<?xml version="1.0" encoding="UTF-8" ?>
<!DOCTYPE svg PUBLIC "-//W3C//DTD SVG 1.1//EN" "http://www.w3.org/Graphics/SVG/1.1/DTD/svg11.dtd">
<svg width="253pt" height="253pt" viewBox="0 0 253 253" version="1.1" xmlns="http://www.w3.org/2000/svg">
<g id="#475152ff">
<path fill="#475152" opacity="1.00" d=" M 77.31 16.21 C 91.84 7.89 109.45 5.75 126.00 5.04 C 125.91 13.28 126.25 21.54 125.81 29.78 C 123.80 54.70 125.81 79.80 124.81 104.78 C 122.97 126.44 124.51 148.27 123.99 170.00 C 124.47 176.37 122.91 183.03 124.72 189.26 C 126.06 204.20 123.52 219.47 125.71 234.26 C 125.92 238.50 125.98 242.77 126.02 247.02 C 125.53 247.02 124.56 247.00 124.07 246.99 C 119.45 240.73 122.50 232.29 121.91 225.16 C 118.64 224.77 113.71 222.03 111.84 225.81 C 109.22 230.16 107.55 235.06 103.05 237.91 C 105.37 239.93 108.48 240.54 111.06 242.13 C 110.22 243.25 109.24 244.24 108.27 245.25 C 100.28 244.78 92.78 241.88 85.14 239.78 L 85.08 238.96 C 86.15 234.79 83.07 232.92 80.26 230.72 C 78.72 225.89 80.70 218.25 74.22 216.55 C 74.10 214.32 75.24 212.35 75.86 210.28 C 74.55 209.04 72.27 208.52 71.89 206.54 C 74.85 206.90 76.66 205.05 76.79 202.16 C 74.70 201.80 71.78 199.83 70.59 202.63 C 69.77 204.53 67.69 202.97 66.24 202.89 C 66.77 199.23 71.06 193.94 66.05 191.87 C 63.56 194.15 60.96 196.15 57.21 193.85 C 55.93 190.85 56.49 187.48 56.12 184.31 C 62.24 184.44 55.36 177.69 58.88 174.88 C 56.60 175.09 54.39 175.75 52.11 175.94 C 51.53 173.97 51.49 171.92 51.30 169.89 C 53.06 171.05 54.81 172.29 56.87 172.87 C 59.10 170.10 56.38 165.55 53.79 163.61 C 52.19 163.58 50.58 163.46 49.07 162.87 C 49.21 161.51 50.13 160.43 50.60 159.19 C 49.37 157.05 47.80 154.64 46.23 157.89 C 46.29 155.25 44.17 153.78 42.28 152.37 C 43.32 151.99 43.89 151.26 43.98 150.20 C 40.35 148.54 37.20 146.05 33.55 144.41 C 31.37 141.53 29.71 138.31 27.82 135.25 C 25.78 135.58 22.37 136.28 21.86 133.48 C 24.45 134.18 25.25 132.14 24.45 129.99 C 25.84 124.68 28.69 119.73 29.34 114.18 C 32.28 110.19 34.87 105.86 38.02 102.04 C 38.94 102.58 39.80 103.21 40.72 103.77 C 41.28 101.31 42.28 98.93 44.41 97.44 C 46.53 92.62 47.47 87.41 46.10 82.19 C 47.53 81.23 49.09 80.51 50.57 79.63 C 50.60 77.79 50.63 75.95 50.77 74.11 C 47.21 74.20 43.27 75.58 40.58 72.55 C 35.55 72.56 34.79 67.33 35.61 63.42 C 38.80 60.88 43.38 58.61 47.30 59.77 C 51.35 62.18 50.19 67.27 52.01 70.91 C 56.42 67.30 62.32 67.32 67.68 67.79 C 69.34 65.39 71.64 63.46 72.97 60.86 C 74.87 57.05 79.11 55.29 81.30 51.71 C 83.57 51.31 85.91 49.75 84.73 47.12 C 83.58 42.05 86.38 37.10 86.74 32.07 C 85.61 32.29 84.51 32.62 83.38 32.79 C 82.92 31.58 82.78 30.17 81.70 29.32 C 77.18 29.17 73.43 26.57 69.14 25.64 C 67.84 22.14 72.10 23.46 73.84 21.85 C 76.18 20.94 76.69 18.37 77.31 16.21 M 99.19 43.96 C 99.10 44.68 98.91 46.11 98.81 46.82 C 96.28 46.67 93.97 47.51 93.04 50.05 C 92.11 52.24 90.35 49.55 89.13 49.07 C 86.76 50.79 89.68 53.72 87.77 55.74 C 83.80 58.39 78.72 59.78 75.29 63.23 C 74.94 65.51 74.71 68.26 72.41 69.46 C 70.38 70.76 68.40 73.61 65.71 72.45 C 63.55 71.18 63.92 74.89 61.96 74.92 C 58.61 75.12 59.34 81.23 54.27 78.29 C 51.35 79.49 55.19 83.39 51.97 84.99 C 49.09 91.38 45.58 97.81 45.30 104.98 C 45.59 106.56 46.83 108.98 44.40 109.41 C 44.08 111.71 42.49 113.33 40.47 114.30 C 41.00 116.15 39.43 118.36 41.21 119.78 C 43.34 122.07 39.65 125.63 41.04 128.07 C 43.41 127.31 48.46 127.00 46.60 123.32 C 45.26 120.79 47.84 115.91 43.97 115.69 C 45.98 112.72 50.49 114.17 53.21 112.19 C 56.12 109.23 59.73 112.99 61.73 115.23 C 61.40 119.45 64.88 122.06 66.40 125.65 C 68.02 127.54 70.89 127.68 72.83 129.27 C 72.33 130.53 71.83 131.85 70.77 132.76 C 67.12 132.53 64.18 134.73 60.79 135.53 C 58.79 135.41 56.16 133.65 56.00 138.00 C 53.45 141.07 53.31 145.25 53.01 149.00 C 53.99 152.43 52.53 158.50 57.05 159.95 C 60.82 161.73 65.12 160.32 68.76 158.76 C 70.55 156.52 71.61 153.75 73.70 151.73 C 75.55 148.49 76.18 142.50 81.06 142.78 C 78.91 140.44 76.50 138.21 77.53 134.39 C 76.38 133.01 74.79 130.23 77.29 129.35 C 81.45 128.57 84.72 125.88 88.65 124.54 C 92.76 122.70 94.16 118.11 96.64 114.69 C 96.87 112.23 96.72 109.63 96.38 107.14 C 97.49 105.12 99.65 104.57 101.81 105.10 C 104.05 108.02 101.34 110.92 100.99 113.95 C 102.10 117.41 105.32 118.78 108.73 118.76 C 110.06 117.68 110.98 115.73 112.98 116.01 C 116.97 117.61 118.88 114.16 121.69 112.62 C 122.31 109.87 122.42 107.02 122.63 104.22 C 120.96 103.00 118.19 98.77 122.07 100.90 C 122.38 97.98 121.13 95.05 118.76 93.31 C 115.80 93.18 113.43 91.50 111.12 89.83 C 112.06 87.63 114.88 86.29 116.97 85.20 C 119.04 86.54 121.49 85.27 121.90 82.96 C 120.02 78.05 126.90 76.07 124.05 71.01 C 123.16 67.46 125.52 62.47 122.34 59.66 C 121.28 57.65 123.56 55.24 121.74 53.35 C 118.67 52.37 115.39 51.32 113.27 48.74 C 109.80 44.08 103.48 46.99 99.19 43.96 M 86.33 198.41 C 80.19 199.11 75.18 207.87 79.21 212.88 C 85.15 213.51 93.14 210.88 94.17 204.14 C 94.16 202.46 97.14 202.81 96.88 201.12 C 93.88 198.98 90.04 197.75 86.33 198.41 Z" />
</g>
<g id="#0d0c0aff">
<path fill="#0d0c0a" opacity="1.00" d=" M 126.00 5.04 L 127.00 4.99 C 127.01 52.33 126.99 99.66 127.00 147.00 C 127.00 153.74 126.85 160.49 127.21 167.22 C 127.01 173.40 126.82 179.60 127.21 185.78 C 126.78 206.18 127.08 226.59 127.00 246.99 L 126.02 247.02 C 125.98 242.77 125.92 238.50 125.71 234.26 C 126.25 166.11 126.07 97.94 125.81 29.78 C 126.25 21.54 125.91 13.28 126.00 5.04 Z" />
</g>
<g id="#f7f2dffe">
<path fill="#f7f2df" opacity="1.00" d=" M 127.00 4.99 C 127.50 5.00 128.50 5.02 129.00 5.02 C 129.05 26.75 128.90 48.47 129.05 70.19 C 129.10 71.84 129.20 75.13 129.25 76.78 C 128.92 84.77 129.15 92.78 128.81 100.78 C 127.05 116.11 128.44 131.60 127.99 147.00 L 127.00 147.00 C 126.99 99.66 127.01 52.33 127.00 4.99 Z" />
</g>
<g id="#d2c8abf8">
<path fill="#d2c8ab" opacity="0.97" d=" M 129.00 5.02 C 131.38 5.81 136.96 3.55 138.00 5.96 C 135.35 5.92 132.69 5.96 130.05 6.08 C 129.88 27.38 130.08 48.67 129.99 69.97 L 129.05 70.19 C 128.90 48.47 129.05 26.75 129.00 5.02 Z" />
</g>
<g id="#e9dfc4fe">
<path fill="#e9dfc4" opacity="1.00" d=" M 130.05 6.08 C 132.69 5.96 135.35 5.92 138.00 5.96 C 151.61 5.91 164.64 10.70 177.03 15.91 C 215.28 32.91 243.64 71.21 247.00 113.15 C 246.51 115.54 246.67 117.83 247.50 119.99 C 250.51 156.88 233.39 194.81 204.97 218.24 C 199.81 218.35 198.36 213.16 196.62 209.37 C 194.33 207.86 191.73 206.62 188.90 206.98 C 190.74 212.63 196.51 219.58 191.81 224.91 C 187.73 226.36 188.44 221.49 188.32 218.98 C 189.28 214.48 183.67 211.12 179.71 212.77 C 176.01 214.71 171.89 213.01 167.96 212.97 C 168.62 217.23 172.86 216.65 175.80 218.23 C 179.12 220.23 171.22 221.12 173.75 223.29 C 174.69 225.96 178.00 224.25 178.11 222.02 C 178.12 220.48 180.53 220.81 180.53 222.22 C 180.73 226.12 179.67 230.11 180.96 233.90 C 173.01 237.73 164.66 242.16 155.82 243.20 C 150.07 242.27 147.55 235.60 150.26 230.75 C 149.18 226.70 153.44 224.99 154.69 221.67 C 156.37 216.94 155.44 212.01 154.81 207.21 C 151.32 206.65 147.76 205.70 144.22 206.13 C 142.45 206.97 143.23 208.87 143.56 210.33 C 143.64 213.34 145.61 215.52 147.86 217.28 C 148.91 218.23 150.04 219.11 151.10 220.07 C 146.62 219.40 138.85 219.07 139.55 212.79 C 140.51 210.03 142.00 206.28 138.64 204.47 C 135.74 203.92 132.91 200.95 129.98 202.93 C 130.06 164.59 129.92 126.24 130.05 87.90 C 133.69 92.44 139.39 94.59 144.05 97.90 C 147.23 97.64 145.38 93.42 145.31 91.31 C 147.43 89.74 149.59 88.24 151.71 86.67 C 151.39 82.80 152.56 76.38 147.99 74.94 C 145.20 70.96 140.91 68.50 136.68 66.31 C 135.43 65.55 134.01 66.29 132.92 66.95 C 132.09 68.17 131.88 70.12 129.99 69.97 C 130.08 48.67 129.88 27.38 130.05 6.08 M 156.24 35.18 C 150.52 37.99 157.74 47.65 161.87 42.80 C 162.68 39.56 160.12 34.08 156.24 35.18 M 188.32 63.32 C 185.30 65.34 181.77 68.33 183.23 72.56 C 186.70 74.23 185.59 81.97 191.68 78.57 C 200.45 77.45 194.58 63.42 188.32 63.32 M 211.27 64.21 C 208.96 66.70 204.78 68.79 206.11 72.80 C 209.79 74.79 214.69 74.64 217.92 71.84 C 219.69 67.67 216.41 61.78 211.27 64.21 M 160.26 101.17 C 156.71 103.11 158.12 107.51 159.77 110.26 C 161.66 113.47 166.98 112.83 168.83 109.74 C 170.19 105.02 165.90 98.26 160.26 101.17 M 219.21 111.13 C 216.84 112.94 216.74 118.23 220.28 118.73 C 223.78 121.52 227.85 117.63 231.74 118.74 C 234.73 116.92 231.46 113.47 230.73 111.16 C 228.75 110.57 226.91 111.73 225.00 111.98 C 223.06 111.73 221.20 110.56 219.21 111.13 M 206.00 124.98 C 204.88 129.86 210.41 132.67 206.58 137.61 C 203.28 140.54 205.68 145.19 209.22 146.55 C 213.72 144.89 217.20 150.62 221.74 149.79 C 223.67 147.75 226.94 146.01 224.70 142.30 C 224.14 139.21 220.50 139.76 218.22 138.71 C 216.46 136.12 215.20 132.99 212.07 131.84 C 216.87 128.29 210.89 122.12 206.00 124.98 M 185.28 127.28 C 183.07 128.50 179.93 130.13 179.97 132.98 C 176.85 140.68 184.84 137.79 188.02 141.00 C 190.52 139.82 194.63 138.56 191.58 134.35 C 190.45 131.38 189.32 126.57 185.28 127.28 M 153.23 158.13 C 151.56 159.92 148.85 162.61 150.95 165.03 C 152.51 169.35 158.08 168.43 160.92 165.82 C 162.00 161.47 158.88 155.01 153.23 158.13 M 224.36 160.55 C 220.80 161.09 217.08 160.93 213.98 163.00 C 212.20 164.49 209.39 161.69 208.15 164.22 C 207.90 166.68 210.58 170.86 213.22 168.22 C 216.76 164.57 219.77 171.80 223.99 170.04 C 232.56 174.26 234.33 154.60 224.36 160.55 M 194.29 168.27 C 191.61 169.61 187.89 171.71 190.29 175.68 C 191.50 177.25 193.92 180.37 195.13 181.94 C 199.89 183.24 202.52 178.81 202.52 174.66 C 206.33 168.30 197.56 168.17 194.29 168.27 Z" />
</g>
<g id="#4a5354fd">
<path fill="#4a5354" opacity="1.00" d=" M 62.00 24.01 C 67.01 21.29 71.55 17.26 77.31 16.21 C 76.69 18.37 76.18 20.94 73.84 21.85 C 72.10 23.46 67.84 22.14 69.14 25.64 C 73.43 26.57 77.18 29.17 81.70 29.32 C 82.78 30.17 82.92 31.58 83.38 32.79 C 84.51 32.62 85.61 32.29 86.74 32.07 C 86.38 37.10 83.58 42.05 84.73 47.12 C 85.91 49.75 83.57 51.31 81.30 51.71 C 79.11 55.29 74.87 57.05 72.97 60.86 C 71.64 63.46 69.34 65.39 67.68 67.79 C 62.32 67.32 56.42 67.30 52.01 70.91 C 50.19 67.27 51.35 62.18 47.30 59.77 C 43.38 58.61 38.80 60.88 35.61 63.42 C 34.79 67.33 35.55 72.56 40.58 72.55 C 43.27 75.58 47.21 74.20 50.77 74.11 C 50.63 75.95 50.60 77.79 50.57 79.63 C 49.09 80.51 47.53 81.23 46.10 82.19 C 47.47 87.41 46.53 92.62 44.41 97.44 C 42.28 98.93 41.28 101.31 40.72 103.77 C 39.80 103.21 38.94 102.58 38.02 102.04 C 34.87 105.86 32.28 110.19 29.34 114.18 C 28.69 119.73 25.84 124.68 24.45 129.99 C 25.25 132.14 24.45 134.18 21.86 133.48 C 22.37 136.28 25.78 135.58 27.82 135.25 C 29.71 138.31 31.37 141.53 33.55 144.41 C 37.20 146.05 40.35 148.54 43.98 150.20 C 43.89 151.26 43.32 151.99 42.28 152.37 C 44.17 153.78 46.29 155.25 46.23 157.89 C 47.80 154.64 49.37 157.05 50.60 159.19 C 50.13 160.43 49.21 161.51 49.07 162.87 C 50.58 163.46 52.19 163.58 53.79 163.61 C 56.38 165.55 59.10 170.10 56.87 172.87 C 54.81 172.29 53.06 171.05 51.30 169.89 C 51.49 171.92 51.53 173.97 52.11 175.94 C 54.39 175.75 56.60 175.09 58.88 174.88 C 55.36 177.69 62.24 184.44 56.12 184.31 C 56.49 187.48 55.93 190.85 57.21 193.85 C 60.96 196.15 63.56 194.15 66.05 191.87 C 71.06 193.94 66.77 199.23 66.24 202.89 C 67.69 202.97 69.77 204.53 70.59 202.63 C 71.78 199.83 74.70 201.80 76.79 202.16 C 76.66 205.05 74.85 206.90 71.89 206.54 C 72.27 208.52 74.55 209.04 75.86 210.28 C 75.24 212.35 74.10 214.32 74.22 216.55 C 80.70 218.25 78.72 225.89 80.26 230.72 C 83.07 232.92 86.15 234.79 85.08 238.96 C 65.26 233.04 47.70 219.35 34.29 203.71 C 10.77 176.13 1.19 137.56 8.24 102.08 C 14.93 70.37 34.25 41.08 62.00 24.01 Z" />
</g>
<g id="#3a484bff">
<path fill="#3a484b" opacity="1.00" d=" M 124.81 104.78 C 125.81 79.80 123.80 54.70 125.81 29.78 C 126.07 97.94 126.25 166.11 125.71 234.26 C 123.52 219.47 126.06 204.20 124.72 189.26 C 125.22 161.11 125.09 132.94 124.81 104.78 Z" />
</g>
<g id="#e0d6bbff">
<path fill="#e0d6bb" opacity="1.00" d=" M 156.24 35.18 C 160.12 34.08 162.68 39.56 161.87 42.80 C 157.74 47.65 150.52 37.99 156.24 35.18 Z" />
</g>
<g id="#434c4eff">
<path fill="#434c4e" opacity="1.00" d=" M 99.19 43.96 C 103.48 46.99 109.80 44.08 113.27 48.74 C 115.39 51.32 118.67 52.37 121.74 53.35 C 123.56 55.24 121.28 57.65 122.34 59.66 C 125.52 62.47 123.16 67.46 124.05 71.01 C 126.90 76.07 120.02 78.05 121.90 82.96 C 121.49 85.27 119.04 86.54 116.97 85.20 C 114.88 86.29 112.06 87.63 111.12 89.83 C 113.43 91.50 115.80 93.18 118.76 93.31 C 121.13 95.05 122.38 97.98 122.07 100.90 C 118.19 98.77 120.96 103.00 122.63 104.22 C 122.42 107.02 122.31 109.87 121.69 112.62 C 118.88 114.16 116.97 117.61 112.98 116.01 C 110.98 115.73 110.06 117.68 108.73 118.76 C 105.32 118.78 102.10 117.41 100.99 113.95 C 101.34 110.92 104.05 108.02 101.81 105.10 C 99.65 104.57 97.49 105.12 96.38 107.14 C 96.72 109.63 96.87 112.23 96.64 114.69 C 94.16 118.11 92.76 122.70 88.65 124.54 C 84.72 125.88 81.45 128.57 77.29 129.35 C 74.79 130.23 76.38 133.01 77.53 134.39 C 76.50 138.21 78.91 140.44 81.06 142.78 C 76.18 142.50 75.55 148.49 73.70 151.73 C 71.61 153.75 70.55 156.52 68.76 158.76 C 65.12 160.32 60.82 161.73 57.05 159.95 C 52.53 158.50 53.99 152.43 53.01 149.00 C 53.31 145.25 53.45 141.07 56.00 138.00 C 56.16 133.65 58.79 135.41 60.79 135.53 C 64.18 134.73 67.12 132.53 70.77 132.76 C 71.83 131.85 72.33 130.53 72.83 129.27 C 70.89 127.68 68.02 127.54 66.40 125.65 C 64.88 122.06 61.40 119.45 61.73 115.23 C 59.73 112.99 56.12 109.23 53.21 112.19 C 50.49 114.17 45.98 112.72 43.97 115.69 C 47.84 115.91 45.26 120.79 46.60 123.32 C 48.46 127.00 43.41 127.31 41.04 128.07 C 39.65 125.63 43.34 122.07 41.21 119.78 C 39.43 118.36 41.00 116.15 40.47 114.30 C 42.49 113.33 44.08 111.71 44.40 109.41 C 46.83 108.98 45.59 106.56 45.30 104.98 C 45.58 97.81 49.09 91.38 51.97 84.99 C 55.19 83.39 51.35 79.49 54.27 78.29 C 59.34 81.23 58.61 75.12 61.96 74.92 C 63.92 74.89 63.55 71.18 65.71 72.45 C 68.40 73.61 70.38 70.76 72.41 69.46 C 74.71 68.26 74.94 65.51 75.29 63.23 C 78.72 59.78 83.80 58.39 87.77 55.74 C 89.68 53.72 86.76 50.79 89.13 49.07 C 90.35 49.55 92.11 52.24 93.04 50.05 C 93.97 47.51 96.28 46.67 98.81 46.82 C 98.91 46.11 99.10 44.68 99.19 43.96 Z" />
</g>
<g id="#e4dabfff">
<path fill="#e4dabf" opacity="1.00" d=" M 188.32 63.32 C 194.58 63.42 200.45 77.45 191.68 78.57 C 185.59 81.97 186.70 74.23 183.23 72.56 C 181.77 68.33 185.30 65.34 188.32 63.32 Z" />
</g>
<g id="#e1d7bcff">
<path fill="#e1d7bc" opacity="1.00" d=" M 211.27 64.21 C 216.41 61.78 219.69 67.67 217.92 71.84 C 214.69 74.64 209.79 74.79 206.11 72.80 C 204.78 68.79 208.96 66.70 211.27 64.21 Z" />
</g>
<g id="#d9ceb4ff">
<path fill="#d9ceb4" opacity="1.00" d=" M 132.92 66.95 C 134.01 66.29 135.43 65.55 136.68 66.31 C 140.91 68.50 145.20 70.96 147.99 74.94 C 149.91 79.17 147.90 83.58 146.67 87.70 C 142.84 90.37 137.85 89.03 134.26 86.68 C 136.18 79.94 132.52 73.69 132.92 66.95 Z" />
</g>
<g id="#e3d9beff">
<path fill="#e3d9be" opacity="1.00" d=" M 129.99 69.97 C 131.88 70.12 132.09 68.17 132.92 66.95 C 132.52 73.69 136.18 79.94 134.26 86.68 C 137.85 89.03 142.84 90.37 146.67 87.70 C 147.90 83.58 149.91 79.17 147.99 74.94 C 152.56 76.38 151.39 82.80 151.71 86.67 C 149.59 88.24 147.43 89.74 145.31 91.31 C 145.38 93.42 147.23 97.64 144.05 97.90 C 139.39 94.59 133.69 92.44 130.05 87.90 C 129.96 84.18 129.69 80.47 129.25 76.78 C 129.20 75.13 129.10 71.84 129.05 70.19 L 129.99 69.97 Z" />
</g>
<g id="#d3c8abfc">
<path fill="#d3c8ab" opacity="1.00" d=" M 129.25 76.78 C 129.69 80.47 129.96 84.18 130.05 87.90 C 129.92 126.24 130.06 164.59 129.98 202.93 C 130.09 217.26 129.84 231.60 130.07 245.93 C 132.71 245.97 135.35 246.01 138.00 246.04 C 137.90 249.23 131.42 246.25 129.00 246.94 C 128.86 198.22 129.28 149.50 128.81 100.78 C 129.15 92.78 128.92 84.77 129.25 76.78 Z" />
</g>
<g id="#f9f7e8fe">
<path fill="#f9f7e8" opacity="1.00" d=" M 127.99 147.00 C 128.44 131.60 127.05 116.11 128.81 100.78 C 129.28 149.50 128.86 198.22 129.00 246.94 L 128.00 247.02 C 127.52 226.61 128.99 206.11 127.21 185.78 C 126.82 179.60 127.01 173.40 127.21 167.22 C 128.31 160.53 128.01 153.75 127.99 147.00 Z" />
</g>
<g id="#dfd4b9ff">
<path fill="#dfd4b9" opacity="1.00" d=" M 160.26 101.17 C 165.90 98.26 170.19 105.02 168.83 109.74 C 166.98 112.83 161.66 113.47 159.77 110.26 C 158.12 107.51 156.71 103.11 160.26 101.17 Z" />
<path fill="#dfd4b9" opacity="1.00" d=" M 194.29 168.27 C 197.56 168.17 206.33 168.30 202.52 174.66 C 202.52 178.81 199.89 183.24 195.13 181.94 C 193.92 180.37 191.50 177.25 190.29 175.68 C 187.89 171.71 191.61 169.61 194.29 168.27 Z" />
</g>
<g id="#4d5858ff">
<path fill="#4d5858" opacity="1.00" d=" M 123.99 170.00 C 124.51 148.27 122.97 126.44 124.81 104.78 C 125.09 132.94 125.22 161.11 124.72 189.26 C 122.91 183.03 124.47 176.37 123.99 170.00 Z" />
</g>
<g id="#e0d6bcff">
<path fill="#e0d6bc" opacity="1.00" d=" M 219.21 111.13 C 221.20 110.56 223.06 111.73 225.00 111.98 C 226.91 111.73 228.75 110.57 230.73 111.16 C 231.46 113.47 234.73 116.92 231.74 118.74 C 227.85 117.63 223.78 121.52 220.28 118.73 C 216.74 118.23 216.84 112.94 219.21 111.13 Z" />
</g>
<g id="#8c87779a">
<path fill="#8c8777" opacity="0.60" d=" M 247.00 113.15 C 249.15 114.05 248.36 118.15 247.50 119.99 C 246.67 117.83 246.51 115.54 247.00 113.15 Z" />
</g>
<g id="#e5dac0ff">
<path fill="#e5dac0" opacity="1.00" d=" M 206.00 124.98 C 210.89 122.12 216.87 128.29 212.07 131.84 C 215.20 132.99 216.46 136.12 218.22 138.71 C 220.50 139.76 224.14 139.21 224.70 142.30 C 226.94 146.01 223.67 147.75 221.74 149.79 C 217.20 150.62 213.72 144.89 209.22 146.55 C 205.68 145.19 203.28 140.54 206.58 137.61 C 210.41 132.67 204.88 129.86 206.00 124.98 Z" />
</g>
<g id="#dfd4baff">
<path fill="#dfd4ba" opacity="1.00" d=" M 185.28 127.28 C 189.32 126.57 190.45 131.38 191.58 134.35 C 194.63 138.56 190.52 139.82 188.02 141.00 C 184.84 137.79 176.85 140.68 179.97 132.98 C 179.93 130.13 183.07 128.50 185.28 127.28 Z" />
</g>
<g id="#f2e7d0fe">
<path fill="#f2e7d0" opacity="1.00" d=" M 127.00 147.00 L 127.99 147.00 C 128.01 153.75 128.31 160.53 127.21 167.22 C 126.85 160.49 127.00 153.74 127.00 147.00 Z" />
</g>
<g id="#ded4b9ff">
<path fill="#ded4b9" opacity="1.00" d=" M 153.23 158.13 C 158.88 155.01 162.00 161.47 160.92 165.82 C 158.08 168.43 152.51 169.35 150.95 165.03 C 148.85 162.61 151.56 159.92 153.23 158.13 Z" />
</g>
<g id="#dfd5baff">
<path fill="#dfd5ba" opacity="1.00" d=" M 224.36 160.55 C 234.33 154.60 232.56 174.26 223.99 170.04 C 219.77 171.80 216.76 164.57 213.22 168.22 C 210.58 170.86 207.90 166.68 208.15 164.22 C 209.39 161.69 212.20 164.49 213.98 163.00 C 217.08 160.93 220.80 161.09 224.36 160.55 Z" />
</g>
<g id="#eee3cffe">
<path fill="#eee3cf" opacity="1.00" d=" M 127.21 185.78 C 128.99 206.11 127.52 226.61 128.00 247.02 L 127.00 246.99 C 127.08 226.59 126.78 206.18 127.21 185.78 Z" />
</g>
<g id="#41494bff">
<path fill="#41494b" opacity="1.00" d=" M 86.33 198.41 C 90.04 197.75 93.88 198.98 96.88 201.12 C 97.14 202.81 94.16 202.46 94.17 204.14 C 93.14 210.88 85.15 213.51 79.21 212.88 C 75.18 207.87 80.19 199.11 86.33 198.41 Z" />
</g>
<g id="#e3d9befe">
<path fill="#e3d9be" opacity="1.00" d=" M 129.98 202.93 C 132.91 200.95 135.74 203.92 138.64 204.47 C 142.00 206.28 140.51 210.03 139.55 212.79 C 138.85 219.07 146.62 219.40 151.10 220.07 C 150.04 219.11 148.91 218.23 147.86 217.28 C 149.57 216.98 151.53 217.15 152.92 215.92 C 151.74 213.19 150.32 210.56 148.85 207.98 C 146.71 207.55 145.17 209.27 143.56 210.33 C 143.23 208.87 142.45 206.97 144.22 206.13 C 147.76 205.70 151.32 206.65 154.81 207.21 C 155.44 212.01 156.37 216.94 154.69 221.67 C 153.44 224.99 149.18 226.70 150.26 230.75 C 147.55 235.60 150.07 242.27 155.82 243.20 L 156.11 243.92 C 150.05 244.47 144.12 246.25 138.00 246.04 C 135.35 246.01 132.71 245.97 130.07 245.93 C 129.84 231.60 130.09 217.26 129.98 202.93 Z" />
</g>
<g id="#e0d6bbfb">
<path fill="#e0d6bb" opacity="1.00" d=" M 188.90 206.98 C 191.73 206.62 194.33 207.86 196.62 209.37 C 198.36 213.16 199.81 218.35 204.97 218.24 C 199.39 224.21 191.48 228.16 184.38 232.44 C 183.31 233.03 182.34 234.28 180.96 233.90 C 179.67 230.11 180.73 226.12 180.53 222.22 C 180.53 220.81 178.12 220.48 178.11 222.02 C 178.00 224.25 174.69 225.96 173.75 223.29 C 171.22 221.12 179.12 220.23 175.80 218.23 C 172.86 216.65 168.62 217.23 167.96 212.97 C 171.89 213.01 176.01 214.71 179.71 212.77 C 183.67 211.12 189.28 214.48 188.32 218.98 C 188.44 221.49 187.73 226.36 191.81 224.91 C 196.51 219.58 190.74 212.63 188.90 206.98 Z" />
</g>
<g id="#dbd1b6ff">
<path fill="#dbd1b6" opacity="1.00" d=" M 143.56 210.33 C 145.17 209.27 146.71 207.55 148.85 207.98 C 150.32 210.56 151.74 213.19 152.92 215.92 C 151.53 217.15 149.57 216.98 147.86 217.28 C 145.61 215.52 143.64 213.34 143.56 210.33 Z" />
</g>
<g id="#444d4efd">
<path fill="#444d4e" opacity="1.00" d=" M 111.84 225.81 C 113.71 222.03 118.64 224.77 121.91 225.16 C 122.50 232.29 119.45 240.73 124.07 246.99 C 118.63 247.29 113.28 246.21 107.87 245.87 L 108.27 245.25 C 109.24 244.24 110.22 243.25 111.06 242.13 C 108.48 240.54 105.37 239.93 103.05 237.91 C 107.55 235.06 109.22 230.16 111.84 225.81 Z" />
</g>
</svg>
