<?xml version="1.0" encoding="UTF-8" ?>
<!DOCTYPE svg PUBLIC "-//W3C//DTD SVG 1.1//EN" "http://www.w3.org/Graphics/SVG/1.1/DTD/svg11.dtd">
<svg width="253pt" height="253pt" viewBox="0 0 253 253" version="1.1" xmlns="http://www.w3.org/2000/svg">
<g id="#8882739b">
<path fill="#888273" opacity="0.61" d=" M 113.14 5.99 C 114.06 3.86 118.15 4.66 120.00 5.49 C 117.84 6.34 115.55 6.50 113.14 5.99 Z" />
</g>
<g id="#e4d9bffd">
<path fill="#e4d9bf" opacity="1.00" d=" M 120.00 5.49 C 123.97 4.74 127.99 4.73 132.04 5.45 C 134.29 6.21 136.56 6.39 138.83 5.99 C 167.42 8.12 194.36 22.53 214.09 42.92 C 238.84 69.03 250.75 106.39 246.07 142.03 C 242.46 168.82 229.35 194.39 210.12 213.02 C 209.40 212.03 208.66 211.07 208.01 210.04 C 209.62 209.53 211.31 209.29 212.93 208.81 C 213.45 206.09 211.08 204.16 210.05 201.90 C 209.68 199.42 212.48 197.74 214.70 197.85 C 214.33 199.91 213.31 202.36 215.11 204.07 C 216.86 202.30 218.95 199.85 216.54 197.71 C 219.04 192.07 220.50 185.39 226.10 181.92 C 225.10 179.08 223.41 176.35 224.55 173.26 C 221.58 173.20 220.03 170.77 218.05 168.96 C 215.11 166.22 216.57 160.33 220.74 159.99 C 221.19 161.60 220.66 163.72 222.28 164.77 C 224.92 165.69 228.17 165.61 229.80 168.29 C 231.21 168.32 228.95 177.70 232.15 174.19 C 233.61 170.53 237.88 168.91 238.82 165.07 C 237.23 162.88 237.65 159.20 234.73 158.27 C 231.43 156.97 232.14 164.74 227.34 160.77 C 224.93 158.66 226.01 154.00 222.48 153.34 C 219.10 157.94 215.00 151.90 212.26 149.77 C 213.10 153.23 212.06 156.50 209.10 158.15 C 207.48 153.93 200.62 155.14 200.81 150.10 C 200.69 147.77 198.07 148.11 196.43 147.82 C 197.65 144.27 192.67 146.84 190.80 145.30 C 195.01 145.40 198.66 143.24 202.06 140.99 C 206.44 141.73 210.42 143.83 213.76 146.74 C 215.09 143.28 215.62 139.58 216.97 136.13 C 213.83 133.65 208.69 135.68 206.95 131.16 C 208.47 130.64 210.07 130.26 211.30 129.15 C 213.88 130.05 216.19 131.66 218.78 132.52 C 221.65 131.43 225.03 130.58 226.57 127.63 C 228.59 123.05 230.81 118.57 232.81 113.98 C 230.80 108.24 228.43 102.59 225.92 97.05 C 224.00 91.60 217.42 89.94 212.27 91.27 C 208.25 93.76 204.62 97.16 202.03 101.11 C 201.10 104.23 203.72 106.34 205.37 108.56 C 205.19 111.70 205.65 114.80 205.92 117.91 C 205.28 119.52 203.74 120.54 202.97 122.08 C 202.73 123.64 204.18 124.58 205.03 125.65 C 203.30 126.56 203.13 128.14 203.52 129.87 C 201.73 131.01 198.34 131.99 198.09 128.90 C 196.23 125.45 198.96 122.77 200.50 119.91 C 199.64 117.82 199.15 115.45 198.74 113.15 C 196.09 111.69 191.68 114.07 189.51 111.38 C 188.02 111.65 186.98 112.81 186.26 114.07 C 186.02 112.14 184.98 110.51 183.99 108.90 C 186.82 105.19 191.70 106.46 195.77 105.76 C 199.90 102.13 198.59 95.74 201.00 91.05 C 198.57 85.55 193.81 81.44 189.02 77.99 C 186.01 75.46 181.44 79.32 178.57 76.49 C 174.62 74.38 177.69 68.42 173.77 66.17 C 170.38 65.98 166.88 67.75 163.63 66.46 C 160.59 65.52 158.03 63.55 155.01 62.58 C 156.58 60.73 160.20 60.02 159.95 57.18 C 157.77 55.02 155.10 54.69 152.93 57.00 C 150.67 55.54 149.10 52.85 146.12 52.85 C 143.94 52.77 146.18 48.10 143.21 49.35 C 139.80 49.74 142.58 46.46 140.81 45.11 C 140.13 45.07 138.77 44.99 138.09 44.95 C 135.37 45.30 133.86 48.03 131.29 48.82 C 128.90 46.27 128.45 42.47 125.77 40.15 C 124.44 39.59 123.64 40.46 123.16 41.59 C 125.16 42.21 127.32 44.31 124.79 45.91 C 121.20 45.78 117.87 43.96 114.28 43.71 C 112.84 41.99 111.93 36.67 109.27 40.20 C 109.87 46.00 110.33 52.87 106.01 57.42 C 99.87 55.51 100.39 48.58 97.96 43.82 C 96.82 41.67 96.25 38.23 91.97 41.00 C 85.99 40.83 80.18 43.78 74.20 41.91 C 71.51 41.48 70.71 39.50 70.73 36.98 C 68.45 37.09 67.25 39.38 65.81 40.85 C 62.91 43.44 64.92 47.58 64.80 50.77 C 63.03 53.60 58.99 52.45 57.07 55.06 C 55.55 57.35 52.80 58.04 50.24 58.37 C 48.74 58.24 45.75 58.00 44.26 57.88 C 45.70 53.48 42.39 46.22 37.10 48.87 C 37.47 46.90 37.88 44.94 38.11 42.95 C 57.28 22.45 84.82 8.32 113.14 5.99 C 115.55 6.50 117.84 6.34 120.00 5.49 M 141.22 13.08 C 139.09 17.46 140.86 22.62 144.21 25.85 C 148.22 27.26 150.85 21.32 150.96 18.15 C 147.85 16.32 145.37 11.94 141.22 13.08 M 167.99 34.97 C 167.45 38.68 168.81 41.95 170.33 45.17 C 169.57 48.22 173.88 49.57 176.19 50.30 L 175.92 51.08 C 179.97 51.00 180.81 45.64 183.02 42.99 C 182.04 40.59 179.42 39.22 177.77 37.30 C 174.08 38.03 171.49 34.68 167.99 34.97 M 194.08 46.01 C 188.59 53.27 190.82 63.05 194.27 70.74 C 196.37 73.31 199.96 73.01 202.98 73.05 C 208.42 75.10 214.16 76.40 219.87 77.72 C 222.93 74.60 223.80 69.44 223.77 65.26 C 219.07 61.79 217.85 55.91 214.63 51.35 C 212.62 49.33 210.02 51.27 207.79 51.82 L 207.92 51.16 C 203.01 50.18 199.09 45.78 194.08 46.01 Z" />
</g>
<g id="#8781719b">
<path fill="#878171" opacity="0.61" d=" M 132.04 5.45 C 133.86 4.64 138.05 3.78 138.83 5.99 C 136.56 6.39 134.29 6.21 132.04 5.45 Z" />
</g>
<g id="#d7ccb1ff">
<path fill="#d7ccb1" opacity="1.00" d=" M 141.22 13.08 C 145.37 11.94 147.85 16.32 150.96 18.15 C 150.85 21.32 148.22 27.26 144.21 25.85 C 140.86 22.62 139.09 17.46 141.22 13.08 Z" />
<path fill="#d7ccb1" opacity="1.00" d=" M 65.81 40.85 C 67.25 39.38 68.45 37.09 70.73 36.98 C 70.71 39.50 71.51 41.48 74.20 41.91 C 71.38 41.64 68.56 41.50 65.81 40.85 Z" />
</g>
<g id="#ded3b8ff">
<path fill="#ded3b8" opacity="1.00" d=" M 167.99 34.97 C 171.49 34.68 174.08 38.03 177.77 37.30 C 179.42 39.22 182.04 40.59 183.02 42.99 C 180.81 45.64 179.97 51.00 175.92 51.08 L 176.19 50.30 C 180.98 47.36 179.21 40.76 174.87 38.10 C 171.57 38.80 169.88 41.70 170.33 45.17 C 168.81 41.95 167.45 38.68 167.99 34.97 Z" />
</g>
<g id="#d4c9aeff">
<path fill="#d4c9ae" opacity="1.00" d=" M 170.33 45.17 C 169.88 41.70 171.57 38.80 174.87 38.10 C 179.21 40.76 180.98 47.36 176.19 50.30 C 173.88 49.57 169.57 48.22 170.33 45.17 Z" />
<path fill="#d4c9ae" opacity="1.00" d=" M 190.03 139.04 C 192.73 136.10 196.30 133.26 200.74 135.08 C 202.68 136.41 201.77 139.01 202.06 140.99 C 198.66 143.24 195.01 145.40 190.80 145.30 C 188.44 144.15 188.41 140.83 190.03 139.04 Z" />
</g>
<g id="#e2d8bdff">
<path fill="#e2d8bd" opacity="1.00" d=" M 109.27 40.20 C 111.93 36.67 112.84 41.99 114.28 43.71 C 117.87 43.96 121.20 45.78 124.79 45.91 C 127.32 44.31 125.16 42.21 123.16 41.59 C 123.64 40.46 124.44 39.59 125.77 40.15 C 128.45 42.47 128.90 46.27 131.29 48.82 C 133.86 48.03 135.37 45.30 138.09 44.95 C 136.88 46.52 135.45 48.02 134.91 49.99 C 133.96 54.05 129.30 54.94 127.17 58.16 C 124.96 62.03 119.37 58.69 116.07 60.13 C 113.20 60.37 111.56 64.94 114.77 66.19 C 119.18 68.66 127.77 69.03 126.87 75.77 C 124.95 78.75 121.87 74.13 119.22 75.13 C 116.76 76.99 116.95 80.27 115.76 82.85 C 113.80 86.84 113.81 91.43 112.71 95.67 C 109.15 96.90 105.73 98.43 103.74 101.81 C 100.50 101.87 97.29 101.27 94.10 100.83 C 93.99 97.89 93.98 94.98 93.97 92.05 C 92.12 83.73 97.87 77.41 102.32 71.29 C 104.61 68.80 109.10 67.04 108.95 63.08 C 108.25 61.06 107.11 59.24 106.01 57.42 C 110.33 52.87 109.87 46.00 109.27 40.20 Z" />
</g>
<g id="#c7bca1ff">
<path fill="#c7bca1" opacity="1.00" d=" M 64.80 50.77 C 64.92 47.58 62.91 43.44 65.81 40.85 C 68.56 41.50 71.38 41.64 74.20 41.91 C 80.18 43.78 85.99 40.83 91.97 41.00 C 96.25 38.23 96.82 41.67 97.96 43.82 C 95.98 45.29 94.32 47.04 92.98 49.06 C 93.07 50.95 95.33 50.40 96.59 50.39 C 98.29 55.15 102.30 58.54 105.60 62.22 C 105.08 64.02 105.66 66.90 103.35 67.43 C 100.20 69.58 96.77 64.59 93.99 67.87 C 93.28 65.47 92.99 62.99 91.63 60.79 C 92.42 57.28 90.09 52.78 85.96 53.98 C 86.01 55.74 86.36 57.47 86.68 59.19 C 84.65 59.78 83.25 55.53 82.06 58.04 C 80.70 61.31 77.11 59.76 75.05 58.15 C 74.08 59.01 73.21 61.32 75.23 61.34 C 78.21 61.27 81.62 63.79 81.04 67.05 C 76.77 67.82 75.25 61.66 70.90 63.00 C 72.85 67.03 74.40 71.23 75.47 75.59 C 76.75 76.66 77.67 77.90 77.45 79.65 C 80.20 81.10 83.14 81.99 86.12 80.63 C 87.69 81.38 89.42 81.53 91.04 82.11 C 90.64 84.62 88.76 87.04 86.12 87.33 C 88.07 89.59 90.44 94.56 93.97 92.05 C 93.98 94.98 93.99 97.89 94.10 100.83 C 97.29 101.27 100.50 101.87 103.74 101.81 C 105.73 98.43 109.15 96.90 112.71 95.67 C 113.81 91.43 113.80 86.84 115.76 82.85 C 116.95 80.27 116.76 76.99 119.22 75.13 C 121.87 74.13 124.95 78.75 126.87 75.77 C 127.77 69.03 119.18 68.66 114.77 66.19 C 111.56 64.94 113.20 60.37 116.07 60.13 C 119.37 58.69 124.96 62.03 127.17 58.16 C 129.30 54.94 133.96 54.05 134.91 49.99 C 137.68 49.90 140.52 50.19 143.21 49.35 C 146.18 48.10 143.94 52.77 146.12 52.85 C 149.10 52.85 150.67 55.54 152.93 57.00 C 155.10 54.69 157.77 55.02 159.95 57.18 C 160.20 60.02 156.58 60.73 155.01 62.58 C 158.03 63.55 160.59 65.52 163.63 66.46 C 166.88 67.75 170.38 65.98 173.77 66.17 C 177.69 68.42 174.62 74.38 178.57 76.49 C 181.44 79.32 186.01 75.46 189.02 77.99 C 193.81 81.44 198.57 85.55 201.00 91.05 C 198.59 95.74 199.90 102.13 195.77 105.76 C 191.70 106.46 186.82 105.19 183.99 108.90 C 184.98 110.51 186.02 112.14 186.26 114.07 C 186.19 119.57 181.61 124.12 177.49 127.25 L 177.17 126.14 C 176.78 124.73 176.34 123.28 175.43 122.11 C 174.34 120.72 173.13 119.39 171.66 118.40 C 162.96 118.24 154.91 112.46 150.65 105.21 C 150.62 102.64 151.75 100.48 153.55 98.73 C 153.20 95.65 154.35 90.60 150.36 89.67 C 147.57 88.99 144.53 90.38 141.81 89.13 C 137.35 86.43 131.80 86.77 126.97 84.92 C 126.73 90.30 129.97 94.91 131.00 100.00 C 130.16 103.46 128.32 106.68 126.81 109.91 C 123.41 109.72 120.00 109.61 116.59 109.60 C 114.14 111.53 111.51 113.23 109.13 115.24 C 108.73 120.10 114.62 123.16 114.99 127.94 C 112.82 133.08 107.83 136.30 104.81 140.91 C 100.74 143.72 99.04 151.25 103.69 154.32 C 108.03 159.21 117.09 158.86 119.23 165.87 C 120.48 168.03 119.66 170.27 118.35 172.17 C 116.38 171.08 114.79 169.51 113.13 168.02 C 112.13 168.86 111.12 170.05 109.65 169.58 C 105.34 166.69 104.40 171.11 102.30 173.13 C 102.16 172.34 101.90 170.78 101.77 170.00 C 96.66 169.97 99.25 177.80 103.29 177.46 C 105.00 177.88 108.71 177.05 107.94 179.83 C 103.78 179.99 97.81 183.35 95.42 178.59 C 94.19 176.33 91.43 176.05 89.51 174.61 C 86.16 173.08 84.39 169.67 81.81 167.23 C 79.61 167.61 73.92 170.37 77.52 172.32 C 76.55 173.32 75.83 174.41 76.87 175.67 C 73.66 179.68 72.43 186.77 75.95 191.04 C 77.37 192.68 76.03 194.83 76.16 196.72 C 77.38 197.30 78.63 197.82 79.89 198.34 C 83.24 199.97 86.02 203.04 86.14 206.94 C 83.72 206.75 82.68 208.91 82.75 211.01 L 81.94 211.03 C 79.06 211.12 75.96 211.52 74.27 208.85 C 74.65 206.39 75.67 204.12 76.79 201.93 C 77.33 200.23 74.54 199.44 73.42 200.48 C 70.81 202.45 65.06 202.60 64.29 198.69 C 62.92 193.22 69.53 188.06 67.07 182.77 C 66.04 180.62 62.62 183.84 61.21 181.80 C 59.56 180.86 60.04 178.81 60.03 177.24 C 60.18 176.47 67.79 177.53 65.68 174.39 C 62.02 171.13 55.35 171.46 54.21 165.88 C 54.13 163.09 50.57 163.75 49.04 164.99 C 49.70 165.68 50.36 166.38 51.01 167.08 C 48.98 169.80 47.20 173.42 42.91 172.55 C 39.12 169.61 33.93 172.47 29.42 171.66 C 28.94 170.44 28.52 169.21 27.94 168.04 C 29.10 160.55 21.09 156.58 18.90 150.09 C 18.40 147.56 16.96 145.63 15.18 143.88 C 17.13 137.18 10.21 132.35 9.21 126.05 C 11.14 122.85 11.38 118.91 10.58 115.32 C 9.54 111.57 11.94 107.99 11.84 104.22 C 11.87 101.40 11.98 98.58 12.16 95.76 C 15.06 99.84 14.83 105.38 16.11 109.98 C 19.74 113.61 19.96 119.84 24.97 122.08 C 25.95 121.27 26.86 120.37 27.72 119.43 C 26.72 118.93 26.11 118.13 25.90 117.04 C 27.54 117.10 29.17 117.26 30.79 117.47 C 30.90 119.12 32.48 121.57 30.34 122.47 C 30.62 124.41 32.21 125.55 34.03 125.95 C 37.14 127.04 35.80 119.63 38.78 123.07 C 38.08 125.04 36.99 126.93 37.04 129.09 C 36.91 130.65 36.84 132.22 36.70 133.79 C 35.86 136.03 34.61 138.31 35.08 140.80 C 37.65 141.80 40.38 142.30 42.98 143.19 C 43.84 144.50 45.04 142.34 45.61 141.69 C 45.81 138.46 45.99 133.93 49.68 132.66 C 53.64 131.32 52.92 124.12 59.02 126.91 C 61.97 126.50 63.52 123.38 65.96 121.95 C 69.14 123.48 73.99 129.43 76.74 124.70 C 77.58 120.88 77.68 116.98 78.06 113.11 C 80.25 110.99 83.07 108.77 86.32 109.58 C 87.64 110.18 88.39 109.20 88.99 108.16 C 90.39 106.06 92.17 103.95 91.04 101.01 C 86.36 100.89 81.66 100.87 77.07 101.80 C 74.27 101.23 71.77 99.79 69.18 98.67 C 67.56 97.99 65.92 97.26 64.17 97.04 C 62.09 98.47 63.81 100.26 64.79 101.73 C 59.86 103.04 57.61 109.37 52.14 110.07 C 51.96 109.71 51.61 108.99 51.43 108.63 C 53.64 101.09 49.27 105.22 46.84 105.92 C 47.99 103.73 49.82 101.78 49.09 98.92 C 48.39 99.65 47.68 100.37 46.97 101.08 C 45.18 99.64 44.10 96.53 41.32 97.36 C 34.77 97.02 31.11 90.53 29.13 85.01 C 31.40 85.84 34.82 86.55 36.13 83.98 C 34.17 81.31 31.29 79.29 30.01 76.15 C 32.24 75.09 34.86 74.36 36.01 71.93 C 39.97 68.86 46.00 66.39 45.35 60.32 C 46.38 58.65 48.59 58.96 50.24 58.37 C 52.80 58.04 55.55 57.35 57.07 55.06 C 58.99 52.45 63.03 53.60 64.80 50.77 Z" />
</g>
<g id="#d7cdb3fb">
<path fill="#d7cdb3" opacity="1.00" d=" M 29.71 53.32 C 31.75 49.30 35.25 46.29 38.11 42.95 C 37.88 44.94 37.47 46.90 37.10 48.87 C 42.39 46.22 45.70 53.48 44.26 57.88 C 45.75 58.00 48.74 58.24 50.24 58.37 C 48.59 58.96 46.38 58.65 45.35 60.32 C 46.00 66.39 39.97 68.86 36.01 71.93 C 32.10 72.36 28.18 72.76 24.31 71.60 C 21.43 70.78 20.48 74.47 18.13 75.14 C 18.07 74.33 17.96 72.72 17.91 71.91 C 20.49 65.90 24.22 60.04 28.33 54.84 C 26.59 61.03 34.60 62.56 38.34 60.33 C 39.81 57.93 44.05 53.61 40.77 51.13 C 36.36 49.49 34.61 56.72 29.71 53.32 Z" />
</g>
<g id="#c5b99fff">
<path fill="#c5b99f" opacity="1.00" d=" M 92.98 49.06 C 94.32 47.04 95.98 45.29 97.96 43.82 C 100.39 48.58 99.87 55.51 106.01 57.42 C 107.11 59.24 108.25 61.06 108.95 63.08 C 109.10 67.04 104.61 68.80 102.32 71.29 C 97.87 77.41 92.12 83.73 93.97 92.05 C 90.44 94.56 88.07 89.59 86.12 87.33 C 88.76 87.04 90.64 84.62 91.04 82.11 C 89.42 81.53 87.69 81.38 86.12 80.63 C 83.14 81.99 80.20 81.10 77.45 79.65 C 77.67 77.90 76.75 76.66 75.47 75.59 C 74.40 71.23 72.85 67.03 70.90 63.00 C 75.25 61.66 76.77 67.82 81.04 67.05 C 81.62 63.79 78.21 61.27 75.23 61.34 C 73.21 61.32 74.08 59.01 75.05 58.15 C 77.11 59.76 80.70 61.31 82.06 58.04 C 83.25 55.53 84.65 59.78 86.68 59.19 C 86.36 57.47 86.01 55.74 85.96 53.98 C 90.09 52.78 92.42 57.28 91.63 60.79 C 92.99 62.99 93.28 65.47 93.99 67.87 C 96.77 64.59 100.20 69.58 103.35 67.43 C 105.66 66.90 105.08 64.02 105.60 62.22 C 102.30 58.54 98.29 55.15 96.59 50.39 C 95.33 50.40 93.07 50.95 92.98 49.06 Z" />
</g>
<g id="#d2c6acff">
<path fill="#d2c6ac" opacity="1.00" d=" M 138.09 44.95 C 138.77 44.99 140.13 45.07 140.81 45.11 C 142.58 46.46 139.80 49.74 143.21 49.35 C 140.52 50.19 137.68 49.90 134.91 49.99 C 135.45 48.02 136.88 46.52 138.09 44.95 Z" />
</g>
<g id="#c8bda3ff">
<path fill="#c8bda3" opacity="1.00" d=" M 194.08 46.01 C 199.09 45.78 203.01 50.18 207.92 51.16 L 207.79 51.82 C 207.59 52.10 207.19 52.66 206.99 52.94 C 211.82 50.41 216.17 55.41 214.59 59.68 C 212.90 62.96 218.35 63.32 217.77 66.57 C 220.57 67.83 219.61 70.56 218.79 72.86 C 210.92 73.95 204.37 69.09 197.02 67.26 C 196.78 67.65 196.28 68.42 196.03 68.81 C 198.27 70.34 200.71 71.56 202.98 73.05 C 199.96 73.01 196.37 73.31 194.27 70.74 C 190.82 63.05 188.59 53.27 194.08 46.01 Z" />
</g>
<g id="#c4b89eff">
<path fill="#c4b89e" opacity="1.00" d=" M 207.79 51.82 C 210.02 51.27 212.62 49.33 214.63 51.35 C 217.85 55.91 219.07 61.79 223.77 65.26 C 223.80 69.44 222.93 74.60 219.87 77.72 C 214.16 76.40 208.42 75.10 202.98 73.05 C 200.71 71.56 198.27 70.34 196.03 68.81 C 196.28 68.42 196.78 67.65 197.02 67.26 C 204.37 69.09 210.92 73.95 218.79 72.86 C 219.61 70.56 220.57 67.83 217.77 66.57 C 218.35 63.32 212.90 62.96 214.59 59.68 C 216.17 55.41 211.82 50.41 206.99 52.94 C 207.19 52.66 207.59 52.10 207.79 51.82 Z" />
</g>
<g id="#d0c5aafd">
<path fill="#d0c5aa" opacity="1.00" d=" M 29.71 53.32 C 34.61 56.72 36.36 49.49 40.77 51.13 C 44.05 53.61 39.81 57.93 38.34 60.33 C 34.60 62.56 26.59 61.03 28.33 54.84 C 28.20 53.82 28.66 53.31 29.71 53.32 Z" />
</g>
<g id="#c9bfa4fe">
<path fill="#c9bfa4" opacity="1.00" d=" M 18.13 75.14 C 20.48 74.47 21.43 70.78 24.31 71.60 C 28.18 72.76 32.10 72.36 36.01 71.93 C 34.86 74.36 32.24 75.09 30.01 76.15 C 31.29 79.29 34.17 81.31 36.13 83.98 C 34.82 86.55 31.40 85.84 29.13 85.01 C 31.11 90.53 34.77 97.02 41.32 97.36 C 44.10 96.53 45.18 99.64 46.97 101.08 C 47.68 100.37 48.39 99.65 49.09 98.92 C 49.82 101.78 47.99 103.73 46.84 105.92 C 49.27 105.22 53.64 101.09 51.43 108.63 C 51.61 108.99 51.96 109.71 52.14 110.07 C 57.61 109.37 59.86 103.04 64.79 101.73 C 63.81 100.26 62.09 98.47 64.17 97.04 C 65.92 97.26 67.56 97.99 69.18 98.67 C 65.26 98.43 68.31 102.68 67.92 104.90 C 67.06 106.67 65.94 108.30 64.98 110.03 C 63.15 108.11 60.44 107.21 58.40 109.43 C 54.35 113.13 48.73 114.14 44.33 117.32 C 42.53 119.51 41.35 122.30 40.99 125.11 C 39.51 126.27 38.16 127.58 37.04 129.09 C 36.99 126.93 38.08 125.04 38.78 123.07 C 35.80 119.63 37.14 127.04 34.03 125.95 C 32.21 125.55 30.62 124.41 30.34 122.47 C 32.48 121.57 30.90 119.12 30.79 117.47 C 29.17 117.26 27.54 117.10 25.90 117.04 C 26.11 118.13 26.72 118.93 27.72 119.43 C 26.86 120.37 25.95 121.27 24.97 122.08 C 19.96 119.84 19.74 113.61 16.11 109.98 C 14.83 105.38 15.06 99.84 12.16 95.76 C 11.98 98.58 11.87 101.40 11.84 104.22 C 11.72 101.25 11.52 98.32 8.13 98.88 C 9.47 90.58 13.14 82.88 16.06 75.05 C 16.67 74.03 16.66 72.41 17.91 71.91 C 17.96 72.72 18.07 74.33 18.13 75.14 Z" />
</g>
<g id="#e4dabfff">
<path fill="#e4dabf" opacity="1.00" d=" M 126.97 84.92 C 131.80 86.77 137.35 86.43 141.81 89.13 C 141.62 92.04 145.37 93.42 144.44 96.32 C 143.80 99.40 146.91 102.57 144.11 105.21 C 146.98 105.23 146.86 100.78 149.70 101.04 C 150.02 102.43 150.20 103.85 150.65 105.21 C 154.91 112.46 162.96 118.24 171.66 118.40 C 173.13 119.39 174.34 120.72 175.43 122.11 C 174.00 122.88 172.44 122.28 170.94 122.17 C 170.67 125.44 175.14 124.83 177.17 126.14 L 177.49 127.25 C 173.89 129.48 170.19 128.08 167.66 125.45 C 164.61 125.85 161.18 125.40 159.43 122.55 C 156.48 120.92 152.95 118.74 149.58 120.39 C 145.75 123.45 141.52 118.09 142.88 114.81 C 144.95 112.12 142.58 107.22 138.91 108.73 C 135.69 109.98 138.55 106.24 136.88 104.96 C 134.29 106.85 132.00 109.20 130.03 111.74 C 132.65 112.96 135.45 113.76 137.98 115.16 C 138.04 118.82 136.89 122.30 135.68 125.69 C 134.04 127.25 131.52 127.27 129.87 128.88 C 128.10 128.18 126.62 126.95 124.96 126.05 C 120.36 127.18 120.00 132.98 120.88 136.83 C 119.74 137.27 118.58 137.88 117.33 137.50 C 112.73 136.26 109.58 141.71 104.81 140.91 C 107.83 136.30 112.82 133.08 114.99 127.94 C 114.62 123.16 108.73 120.10 109.13 115.24 C 111.51 113.23 114.14 111.53 116.59 109.60 C 120.00 109.61 123.41 109.72 126.81 109.91 C 128.32 106.68 130.16 103.46 131.00 100.00 C 129.97 94.91 126.73 90.30 126.97 84.92 M 131.18 115.08 C 128.48 117.55 129.05 121.30 131.17 123.93 C 136.50 125.39 139.71 110.33 131.18 115.08 Z" />
</g>
<g id="#ded3b9fe">
<path fill="#ded3b9" opacity="1.00" d=" M 141.81 89.13 C 144.53 90.38 147.57 88.99 150.36 89.67 C 154.35 90.60 153.20 95.65 153.55 98.73 C 151.75 100.48 150.62 102.64 150.65 105.21 C 150.20 103.85 150.02 102.43 149.70 101.04 C 146.86 100.78 146.98 105.23 144.11 105.21 C 146.91 102.57 143.80 99.40 144.44 96.32 C 145.37 93.42 141.62 92.04 141.81 89.13 Z" />
</g>
<g id="#c8bda2ff">
<path fill="#c8bda2" opacity="1.00" d=" M 212.27 91.27 C 217.42 89.94 224.00 91.60 225.92 97.05 C 228.43 102.59 230.80 108.24 232.81 113.98 C 230.81 118.57 228.59 123.05 226.57 127.63 C 225.03 130.58 221.65 131.43 218.78 132.52 C 216.19 131.66 213.88 130.05 211.30 129.15 C 209.17 128.06 207.14 126.77 205.03 125.65 C 204.18 124.58 202.73 123.64 202.97 122.08 C 203.74 120.54 205.28 119.52 205.92 117.91 C 205.65 114.80 205.19 111.70 205.37 108.56 C 203.72 106.34 201.10 104.23 202.03 101.11 C 204.62 97.16 208.25 93.76 212.27 91.27 Z" />
</g>
<g id="#dcd2b7fb">
<path fill="#dcd2b7" opacity="1.00" d=" M 8.13 98.88 C 11.52 98.32 11.72 101.25 11.84 104.22 C 11.94 107.99 9.54 111.57 10.58 115.32 C 11.38 118.91 11.14 122.85 9.21 126.05 C 10.21 132.35 17.13 137.18 15.18 143.88 C 16.96 145.63 18.40 147.56 18.90 150.09 C 21.09 156.58 29.10 160.55 27.94 168.04 C 27.31 172.70 26.54 177.56 29.28 181.73 C 34.80 184.54 42.93 182.51 47.04 187.88 C 48.38 190.24 52.48 195.11 44.01 192.02 C 41.15 191.56 39.03 195.32 40.97 198.02 C 40.71 200.81 43.90 202.04 46.00 203.01 C 48.86 201.70 51.36 199.71 53.93 197.93 C 56.95 193.27 57.58 186.57 63.06 183.94 C 64.38 183.48 65.71 183.10 67.07 182.77 C 69.53 188.06 62.92 193.22 64.29 198.69 C 65.06 202.60 70.81 202.45 73.42 200.48 C 74.54 199.44 77.33 200.23 76.79 201.93 C 75.67 204.12 74.65 206.39 74.27 208.85 C 75.96 211.52 79.06 211.12 81.94 211.03 C 81.47 216.34 75.45 216.92 72.70 220.69 C 68.27 224.69 79.28 228.80 74.33 231.93 C 74.16 228.65 72.16 231.19 71.18 232.55 C 72.20 233.30 73.23 234.05 74.21 234.85 C 73.74 234.81 72.78 234.73 72.30 234.69 C 48.62 222.40 28.80 203.00 17.08 178.94 C 5.63 154.27 1.39 125.44 8.13 98.88 Z" />
</g>
<g id="#e0d6bbff">
<path fill="#e0d6bb" opacity="1.00" d=" M 67.92 104.90 C 68.31 102.68 65.26 98.43 69.18 98.67 C 71.77 99.79 74.27 101.23 77.07 101.80 C 81.66 100.87 86.36 100.89 91.04 101.01 C 92.17 103.95 90.39 106.06 88.99 108.16 C 86.39 108.57 87.42 106.41 87.70 104.86 C 83.68 106.13 78.58 108.53 78.06 113.11 C 77.68 116.98 77.58 120.88 76.74 124.70 C 73.99 129.43 69.14 123.48 65.96 121.95 C 63.52 123.38 61.97 126.50 59.02 126.91 C 52.92 124.12 53.64 131.32 49.68 132.66 C 45.99 133.93 45.81 138.46 45.61 141.69 C 45.04 142.34 43.84 144.50 42.98 143.19 C 40.63 140.10 35.89 138.49 36.70 133.79 C 36.84 132.22 36.91 130.65 37.04 129.09 C 38.16 127.58 39.51 126.27 40.99 125.11 C 45.80 123.63 49.32 119.93 53.75 117.73 C 55.54 115.25 56.85 112.37 59.12 110.26 C 61.21 110.81 64.18 113.42 64.98 110.03 C 65.94 108.30 67.06 106.67 67.92 104.90 Z" />
</g>
<g id="#d2c7acfe">
<path fill="#d2c7ac" opacity="1.00" d=" M 78.06 113.11 C 78.58 108.53 83.68 106.13 87.70 104.86 C 87.42 106.41 86.39 108.57 88.99 108.16 C 88.39 109.20 87.64 110.18 86.32 109.58 C 83.07 108.77 80.25 110.99 78.06 113.11 Z" />
</g>
<g id="#e9dfc4ff">
<path fill="#e9dfc4" opacity="1.00" d=" M 130.03 111.74 C 132.00 109.20 134.29 106.85 136.88 104.96 C 138.55 106.24 135.69 109.98 138.91 108.73 C 142.58 107.22 144.95 112.12 142.88 114.81 C 141.52 118.09 145.75 123.45 149.58 120.39 C 152.95 118.74 156.48 120.92 159.43 122.55 C 161.18 125.40 164.61 125.85 167.66 125.45 C 170.19 128.08 173.89 129.48 177.49 127.25 C 181.61 124.12 186.19 119.57 186.26 114.07 C 186.98 112.81 188.02 111.65 189.51 111.38 C 191.68 114.07 196.09 111.69 198.74 113.15 C 199.15 115.45 199.64 117.82 200.50 119.91 C 198.96 122.77 196.23 125.45 198.09 128.90 C 198.34 131.99 201.73 131.01 203.52 129.87 C 203.13 128.14 203.30 126.56 205.03 125.65 C 207.14 126.77 209.17 128.06 211.30 129.15 C 210.07 130.26 208.47 130.64 206.95 131.16 C 208.69 135.68 213.83 133.65 216.97 136.13 C 215.62 139.58 215.09 143.28 213.76 146.74 C 210.42 143.83 206.44 141.73 202.06 140.99 C 201.77 139.01 202.68 136.41 200.74 135.08 C 196.30 133.26 192.73 136.10 190.03 139.04 C 188.41 140.83 188.44 144.15 190.80 145.30 C 192.67 146.84 197.65 144.27 196.43 147.82 C 198.07 148.11 200.69 147.77 200.81 150.10 C 200.62 155.14 207.48 153.93 209.10 158.15 C 212.06 156.50 213.10 153.23 212.26 149.77 C 215.00 151.90 219.10 157.94 222.48 153.34 C 226.01 154.00 224.93 158.66 227.34 160.77 C 232.14 164.74 231.43 156.97 234.73 158.27 C 237.65 159.20 237.23 162.88 238.82 165.07 C 237.88 168.91 233.61 170.53 232.15 174.19 C 228.95 177.70 231.21 168.32 229.80 168.29 C 228.17 165.61 224.92 165.69 222.28 164.77 C 220.66 163.72 221.19 161.60 220.74 159.99 C 216.57 160.33 215.11 166.22 218.05 168.96 C 220.03 170.77 221.58 173.20 224.55 173.26 C 223.41 176.35 225.10 179.08 226.10 181.92 C 220.50 185.39 219.04 192.07 216.54 197.71 C 218.95 199.85 216.86 202.30 215.11 204.07 C 213.31 202.36 214.33 199.91 214.70 197.85 C 212.48 197.74 209.68 199.42 210.05 201.90 C 211.08 204.16 213.45 206.09 212.93 208.81 C 211.31 209.29 209.62 209.53 208.01 210.04 C 208.66 211.07 209.40 212.03 210.12 213.02 C 201.08 221.95 190.21 229.02 178.94 234.92 C 175.16 235.79 171.99 239.22 168.02 238.92 C 166.09 238.42 164.11 238.27 162.14 238.50 C 159.91 236.58 163.33 232.43 160.29 230.69 C 159.09 228.31 157.01 230.20 155.20 230.62 C 153.56 229.57 152.02 228.37 150.21 227.60 C 150.88 226.25 151.74 225.01 152.50 223.72 C 152.03 221.83 151.11 220.07 150.90 218.12 C 152.19 218.30 153.46 218.64 154.77 218.76 C 158.16 215.11 162.08 211.44 162.67 206.19 C 160.97 203.50 159.04 200.97 157.82 198.01 C 153.50 200.07 151.57 204.96 147.68 207.64 C 145.15 208.44 142.48 209.12 139.87 208.26 C 137.70 207.33 135.69 209.02 135.00 210.98 C 136.64 214.79 139.09 218.20 141.31 221.69 C 144.47 224.85 148.83 227.05 150.98 231.10 C 151.58 234.19 147.36 234.26 145.42 235.42 C 144.97 237.16 144.96 239.29 142.80 239.71 C 140.42 238.94 137.77 237.89 136.41 235.67 C 135.96 232.25 134.85 228.90 132.89 226.06 C 131.21 227.18 128.89 227.98 128.41 230.18 C 127.95 232.42 124.85 233.47 125.11 235.82 C 126.49 237.55 127.62 239.45 128.53 241.47 C 129.71 241.99 131.42 242.16 130.91 243.91 C 129.04 244.70 127.07 244.20 125.13 244.19 C 122.62 245.48 117.30 248.79 119.49 241.39 C 119.38 234.91 114.78 228.72 115.43 222.40 C 118.90 219.57 117.28 214.84 117.14 211.08 C 119.18 207.40 122.72 204.78 125.82 202.03 C 126.93 204.93 129.19 208.47 132.77 207.94 C 134.74 204.14 137.29 200.60 138.37 196.40 C 137.24 194.63 136.10 192.86 134.99 191.07 C 136.58 189.22 142.92 193.14 143.21 189.13 C 143.88 186.53 151.19 183.90 141.11 186.09 C 137.02 188.08 133.28 190.92 128.44 190.98 C 129.33 188.29 126.84 188.09 124.90 188.84 C 124.93 187.26 126.11 186.21 127.21 185.24 C 129.11 185.17 131.65 186.93 132.89 184.78 C 132.81 181.57 129.96 178.93 127.24 177.55 C 123.48 175.51 118.98 179.42 118.68 183.21 C 118.27 182.87 117.47 182.18 117.07 181.84 C 116.84 178.52 116.56 175.09 118.35 172.17 C 119.66 170.27 120.48 168.03 119.23 165.87 C 117.09 158.86 108.03 159.21 103.69 154.32 C 99.04 151.25 100.74 143.72 104.81 140.91 C 109.58 141.71 112.73 136.26 117.33 137.50 C 118.58 137.88 119.74 137.27 120.88 136.83 C 120.00 132.98 120.36 127.18 124.96 126.05 C 126.62 126.95 128.10 128.18 129.87 128.88 C 131.52 127.27 134.04 127.25 135.68 125.69 C 136.89 122.30 138.04 118.82 137.98 115.16 C 135.45 113.76 132.65 112.96 130.03 111.74 Z" />
</g>
<g id="#cfc5aaff">
<path fill="#cfc5aa" opacity="1.00" d=" M 58.40 109.43 C 60.44 107.21 63.15 108.11 64.98 110.03 C 64.18 113.42 61.21 110.81 59.12 110.26 C 56.85 112.37 55.54 115.25 53.75 117.73 C 49.32 119.93 45.80 123.63 40.99 125.11 C 41.35 122.30 42.53 119.51 44.33 117.32 C 48.73 114.14 54.35 113.13 58.40 109.43 Z" />
</g>
<g id="#ddd2b7ff">
<path fill="#ddd2b7" opacity="1.00" d=" M 131.18 115.08 C 139.71 110.33 136.50 125.39 131.17 123.93 C 129.05 121.30 128.48 117.55 131.18 115.08 Z" />
</g>
<g id="#d4c9afff">
<path fill="#d4c9af" opacity="1.00" d=" M 170.94 122.17 C 172.44 122.28 174.00 122.88 175.43 122.11 C 176.34 123.28 176.78 124.73 177.17 126.14 C 175.14 124.83 170.67 125.44 170.94 122.17 Z" />
</g>
<g id="#d4caaffe">
<path fill="#d4caaf" opacity="1.00" d=" M 35.08 140.80 C 34.61 138.31 35.86 136.03 36.70 133.79 C 35.89 138.49 40.63 140.10 42.98 143.19 C 40.38 142.30 37.65 141.80 35.08 140.80 Z" />
</g>
<g id="#c9bea3ff">
<path fill="#c9bea3" opacity="1.00" d=" M 49.04 164.99 C 50.57 163.75 54.13 163.09 54.21 165.88 C 55.35 171.46 62.02 171.13 65.68 174.39 C 67.79 177.53 60.18 176.47 60.03 177.24 C 60.04 178.81 59.56 180.86 61.21 181.80 C 62.62 183.84 66.04 180.62 67.07 182.77 C 65.71 183.10 64.38 183.48 63.06 183.94 C 60.74 184.36 58.43 184.78 56.11 185.23 C 56.46 187.33 57.00 189.58 54.77 190.84 C 51.89 191.31 49.79 188.42 47.04 187.88 C 42.93 182.51 34.80 184.54 29.28 181.73 C 26.54 177.56 27.31 172.70 27.94 168.04 C 28.52 169.21 28.94 170.44 29.42 171.66 C 33.93 172.47 39.12 169.61 42.91 172.55 C 47.20 173.42 48.98 169.80 51.01 167.08 C 50.36 166.38 49.70 165.68 49.04 164.99 Z" />
</g>
<g id="#c4b99eff">
<path fill="#c4b99e" opacity="1.00" d=" M 77.52 172.32 C 73.92 170.37 79.61 167.61 81.81 167.23 C 84.39 169.67 86.16 173.08 89.51 174.61 C 91.43 176.05 94.19 176.33 95.42 178.59 C 97.81 183.35 103.78 179.99 107.94 179.83 C 108.71 177.05 105.00 177.88 103.29 177.46 C 99.25 177.80 96.66 169.97 101.77 170.00 C 101.90 170.78 102.16 172.34 102.30 173.13 C 104.40 171.11 105.34 166.69 109.65 169.58 C 111.12 170.05 112.13 168.86 113.13 168.02 C 114.79 169.51 116.38 171.08 118.35 172.17 C 116.56 175.09 116.84 178.52 117.07 181.84 C 117.85 186.52 116.69 191.05 113.91 194.82 C 112.22 194.90 108.86 195.07 107.17 195.15 C 105.52 197.86 104.03 205.60 99.77 201.62 C 96.01 199.41 94.53 195.41 92.34 191.89 C 90.95 189.33 87.27 190.67 85.74 188.25 C 82.79 184.06 79.70 179.96 76.87 175.67 C 75.83 174.41 76.55 173.32 77.52 172.32 Z" />
</g>
<g id="#e3d8bdff">
<path fill="#e3d8bd" opacity="1.00" d=" M 75.95 191.04 C 72.43 186.77 73.66 179.68 76.87 175.67 C 79.70 179.96 82.79 184.06 85.74 188.25 C 87.27 190.67 90.95 189.33 92.34 191.89 C 91.53 195.88 85.45 193.31 83.43 196.41 C 82.70 197.72 81.22 198.00 79.89 198.34 C 78.63 197.82 77.38 197.30 76.16 196.72 C 76.03 194.83 77.37 192.68 75.95 191.04 Z" />
</g>
<g id="#e3d9beff">
<path fill="#e3d9be" opacity="1.00" d=" M 118.68 183.21 C 118.98 179.42 123.48 175.51 127.24 177.55 C 123.96 178.68 121.09 180.74 118.68 183.21 Z" />
</g>
<g id="#d9ceb3ff">
<path fill="#d9ceb3" opacity="1.00" d=" M 118.68 183.21 C 121.09 180.74 123.96 178.68 127.24 177.55 C 129.88 182.27 124.98 185.28 122.70 188.80 C 119.74 189.61 119.52 185.15 118.68 183.21 Z" />
</g>
<g id="#e4dabffd">
<path fill="#e4dabf" opacity="1.00" d=" M 127.24 177.55 C 129.96 178.93 132.81 181.57 132.89 184.78 C 131.65 186.93 129.11 185.17 127.21 185.24 C 126.11 186.21 124.93 187.26 124.90 188.84 C 126.84 188.09 129.33 188.29 128.44 190.98 C 133.28 190.92 137.02 188.08 141.11 186.09 C 151.19 183.90 143.88 186.53 143.21 189.13 C 142.92 193.14 136.58 189.22 134.99 191.07 C 136.10 192.86 137.24 194.63 138.37 196.40 C 137.29 200.60 134.74 204.14 132.77 207.94 C 129.19 208.47 126.93 204.93 125.82 202.03 C 122.72 204.78 119.18 207.40 117.14 211.08 C 117.28 214.84 118.90 219.57 115.43 222.40 C 114.78 228.72 119.38 234.91 119.49 241.39 C 117.30 248.79 122.62 245.48 125.13 244.19 C 127.07 244.20 129.04 244.70 130.91 243.91 C 131.42 242.16 129.71 241.99 128.53 241.47 C 127.62 239.45 126.49 237.55 125.11 235.82 C 124.85 233.47 127.95 232.42 128.41 230.18 C 128.89 227.98 131.21 227.18 132.89 226.06 C 134.85 228.90 135.96 232.25 136.41 235.67 C 137.77 237.89 140.42 238.94 142.80 239.71 C 144.96 239.29 144.97 237.16 145.42 235.42 C 147.36 234.26 151.58 234.19 150.98 231.10 C 148.83 227.05 144.47 224.85 141.31 221.69 C 139.09 218.20 136.64 214.79 135.00 210.98 C 135.69 209.02 137.70 207.33 139.87 208.26 C 142.48 209.12 145.15 208.44 147.68 207.64 C 151.57 204.96 153.50 200.07 157.82 198.01 C 159.04 200.97 160.97 203.50 162.67 206.19 C 162.08 211.44 158.16 215.11 154.77 218.76 C 153.46 218.64 152.19 218.30 150.90 218.12 C 151.11 220.07 152.03 221.83 152.50 223.72 C 151.74 225.01 150.88 226.25 150.21 227.60 C 152.02 228.37 153.56 229.57 155.20 230.62 C 157.01 230.20 159.09 228.31 160.29 230.69 C 163.33 232.43 159.91 236.58 162.14 238.50 C 164.11 238.27 166.09 238.42 168.02 238.92 L 167.86 239.76 C 137.60 250.01 102.77 250.16 74.21 234.85 C 73.23 234.05 72.20 233.30 71.18 232.55 C 72.16 231.19 74.16 228.65 74.33 231.93 C 79.28 228.80 68.27 224.69 72.70 220.69 C 75.45 216.92 81.47 216.34 81.94 211.03 L 82.75 211.01 C 86.82 212.80 86.78 217.61 89.07 220.85 C 93.89 219.21 99.73 218.09 102.00 212.91 C 101.76 211.18 100.57 209.78 99.96 208.18 C 102.47 206.32 99.53 203.87 99.77 201.62 C 104.03 205.60 105.52 197.86 107.17 195.15 C 108.86 195.07 112.22 194.90 113.91 194.82 C 116.69 191.05 117.85 186.52 117.07 181.84 C 117.47 182.18 118.27 182.87 118.68 183.21 C 119.52 185.15 119.74 189.61 122.70 188.80 C 124.98 185.28 129.88 182.27 127.24 177.55 M 80.30 220.35 C 79.22 220.63 78.14 220.93 77.07 221.22 C 76.49 223.43 78.43 224.99 79.34 226.77 C 81.40 227.57 83.29 225.86 84.93 224.83 C 85.00 222.74 82.46 219.84 80.30 220.35 Z" />
</g>
<g id="#d3c8adff">
<path fill="#d3c8ad" opacity="1.00" d=" M 56.11 185.23 C 58.43 184.78 60.74 184.36 63.06 183.94 C 57.58 186.57 56.95 193.27 53.93 197.93 C 51.36 199.71 48.86 201.70 46.00 203.01 C 43.90 202.04 40.71 200.81 40.97 198.02 C 39.03 195.32 41.15 191.56 44.01 192.02 C 52.48 195.11 48.38 190.24 47.04 187.88 C 49.79 188.42 51.89 191.31 54.77 190.84 C 57.00 189.58 56.46 187.33 56.11 185.23 Z" />
</g>
<g id="#ddd2b7fe">
<path fill="#ddd2b7" opacity="1.00" d=" M 92.34 191.89 C 94.53 195.41 96.01 199.41 99.77 201.62 C 99.53 203.87 102.47 206.32 99.96 208.18 C 97.04 206.50 96.35 212.68 94.44 209.89 C 94.62 208.24 94.92 206.62 95.02 204.97 C 92.07 205.69 89.24 207.06 86.14 206.94 C 86.02 203.04 83.24 199.97 79.89 198.34 C 81.22 198.00 82.70 197.72 83.43 196.41 C 85.45 193.31 91.53 195.88 92.34 191.89 Z" />
</g>
<g id="#cec2a7ff">
<path fill="#cec2a7" opacity="1.00" d=" M 86.14 206.94 C 89.24 207.06 92.07 205.69 95.02 204.97 C 94.92 206.62 94.62 208.24 94.44 209.89 C 96.35 212.68 97.04 206.50 99.96 208.18 C 100.57 209.78 101.76 211.18 102.00 212.91 C 99.73 218.09 93.89 219.21 89.07 220.85 C 86.78 217.61 86.82 212.80 82.75 211.01 C 82.68 208.91 83.72 206.75 86.14 206.94 Z" />
</g>
<g id="#dfd4b9ff">
<path fill="#dfd4b9" opacity="1.00" d=" M 80.30 220.35 C 82.46 219.84 85.00 222.74 84.93 224.83 C 83.29 225.86 81.40 227.57 79.34 226.77 C 78.43 224.99 76.49 223.43 77.07 221.22 C 78.14 220.93 79.22 220.63 80.30 220.35 Z" />
</g>
</svg>
