<?xml version="1.0" encoding="UTF-8" ?>
<!DOCTYPE svg PUBLIC "-//W3C//DTD SVG 1.1//EN" "http://www.w3.org/Graphics/SVG/1.1/DTD/svg11.dtd">
<svg width="253pt" height="253pt" viewBox="0 0 253 253" version="1.1" xmlns="http://www.w3.org/2000/svg">
<g id="#e2d8befd">
<path fill="#e2d8be" opacity="1.00" d=" M 25.69 60.34 C 46.09 27.02 84.19 6.39 123.00 4.98 C 122.98 22.37 123.06 39.75 122.93 57.14 C 118.31 52.69 113.54 48.30 108.04 44.94 C 105.31 43.76 103.17 40.64 99.89 40.95 C 100.54 43.35 103.91 46.50 100.33 48.35 C 97.09 53.27 90.70 47.91 87.01 52.17 C 88.26 56.38 90.23 60.49 92.83 64.04 C 86.58 67.92 78.83 65.70 72.05 67.16 C 71.54 70.51 71.95 73.89 73.12 77.03 C 69.90 78.05 66.57 78.36 63.89 76.11 C 60.52 77.04 56.37 78.34 54.86 81.90 C 52.70 85.09 47.77 86.31 47.99 91.00 C 45.66 95.18 49.09 99.08 49.90 103.03 C 49.81 108.93 55.93 107.79 59.78 107.80 C 62.20 107.88 64.67 108.09 66.89 109.17 C 66.18 112.80 64.95 116.32 64.74 120.04 C 63.25 120.43 61.76 120.94 60.20 120.98 C 58.24 117.56 56.69 113.91 55.66 110.10 C 52.20 110.57 50.37 114.60 47.73 116.74 C 44.16 119.25 46.60 124.55 42.92 127.00 C 43.03 123.80 44.44 120.41 42.60 117.44 C 40.70 116.04 38.60 114.89 36.84 113.29 C 39.86 113.53 41.57 112.38 41.29 109.23 C 45.44 107.68 48.74 104.36 46.87 99.20 C 42.30 94.52 36.09 92.12 30.00 90.16 C 28.07 91.07 26.27 92.25 24.51 93.44 C 22.12 99.86 19.19 106.16 17.46 112.77 C 19.26 117.01 21.95 120.94 22.49 125.63 C 23.81 129.34 27.30 131.48 30.07 134.05 C 33.57 133.13 34.08 127.17 38.15 128.57 C 36.58 133.36 31.29 134.85 27.14 136.83 C 25.21 135.38 24.91 133.04 24.59 130.82 C 22.96 132.91 23.91 135.44 23.90 137.83 C 18.76 139.17 14.20 141.39 11.41 146.16 C 12.33 148.41 13.09 150.69 13.55 153.11 C 12.64 154.63 11.67 156.14 11.14 157.85 C 16.72 162.13 24.86 162.72 29.74 168.27 C 30.74 172.12 31.70 176.04 32.05 180.02 C 28.88 180.68 26.45 178.47 23.88 177.06 C 21.57 176.27 20.13 178.31 18.81 179.80 L 18.22 179.92 C 10.05 161.14 4.73 140.54 6.45 119.97 C 7.20 117.71 7.38 115.44 6.99 113.17 C 8.17 98.97 11.77 84.52 19.26 72.28 C 21.03 70.95 22.42 67.25 25.01 68.91 C 24.89 70.88 24.10 72.77 24.17 74.75 C 25.89 76.53 27.66 78.93 30.90 76.63 C 37.15 76.64 42.98 74.14 49.03 73.00 C 58.90 70.16 54.64 58.13 55.29 51.10 C 57.50 46.28 49.30 44.16 46.09 45.17 C 43.19 47.51 39.76 48.89 36.41 50.41 C 33.70 54.03 30.54 57.27 27.69 60.78 C 27.19 60.67 26.19 60.45 25.69 60.34 M 71.38 42.36 C 70.16 43.44 68.67 43.96 67.09 44.26 C 66.73 47.63 66.76 51.29 69.16 53.91 C 72.70 54.69 76.57 52.26 77.55 48.81 C 77.14 44.75 78.19 38.85 71.38 42.36 Z" />
</g>
<g id="#fdfdf9ff">
<path fill="#fdfdf9" opacity="1.00" d=" M 123.00 4.98 L 124.00 5.00 C 124.01 26.67 123.98 48.33 124.01 70.00 C 123.99 75.00 123.96 80.00 124.01 85.00 C 124.00 117.00 123.99 149.00 124.01 181.00 C 123.98 203.00 124.01 225.00 124.00 247.00 L 123.00 247.01 C 123.00 225.67 122.99 204.34 123.01 183.00 C 122.82 158.43 123.36 133.83 122.75 109.27 C 122.86 106.51 122.95 103.75 122.99 100.99 C 122.98 86.37 123.08 71.76 122.93 57.14 C 123.06 39.75 122.98 22.37 123.00 4.98 Z" />
</g>
<g id="#3b3e41ff">
<path fill="#3b3e41" opacity="1.00" d=" M 124.00 5.00 L 125.00 5.00 C 124.98 26.67 125.02 48.33 124.99 70.00 L 124.01 70.00 C 123.98 48.33 124.01 26.67 124.00 5.00 Z" />
</g>
<g id="#000002fe">
<path fill="#000002" opacity="1.00" d=" M 125.00 5.00 L 126.00 4.99 C 126.00 85.67 126.01 166.34 126.00 247.01 L 125.00 247.00 C 124.98 225.00 125.03 203.00 124.99 181.00 C 125.00 149.00 125.01 117.00 124.99 85.00 C 125.00 80.00 125.03 75.00 124.99 70.00 C 125.02 48.33 124.98 26.67 125.00 5.00 Z" />
</g>
<g id="#65706ffe">
<path fill="#65706f" opacity="1.00" d=" M 126.00 4.99 L 127.00 5.02 C 127.08 17.93 126.82 30.84 127.12 43.75 C 127.04 107.58 126.68 171.44 127.28 235.26 C 127.11 239.16 127.01 243.06 126.97 246.97 L 126.00 247.01 C 126.01 166.34 126.00 85.67 126.00 4.99 Z" />
</g>
<g id="#454f50ff">
<path fill="#454f50" opacity="1.00" d=" M 127.00 5.02 C 129.73 5.03 135.20 5.05 137.93 5.06 L 138.20 5.93 C 138.43 7.42 140.29 11.00 137.34 9.55 C 134.59 8.05 133.00 10.65 132.23 12.94 C 133.77 16.71 134.05 20.91 136.63 24.21 C 129.46 33.76 131.00 46.75 132.13 57.95 C 133.77 57.89 137.05 58.88 135.72 56.09 C 134.42 53.33 137.77 52.14 139.85 51.60 C 139.79 50.43 139.53 49.28 139.35 48.12 C 141.83 48.38 144.29 48.79 146.79 48.94 C 147.38 46.45 147.78 43.91 148.30 41.40 C 154.55 43.02 153.01 34.49 157.88 33.76 C 161.03 32.49 164.30 34.60 167.11 35.91 C 164.17 35.65 161.26 35.21 158.31 35.13 C 157.49 40.65 154.68 45.54 152.54 50.61 C 150.74 53.94 146.53 52.25 143.44 52.16 C 144.30 54.85 141.74 56.66 141.18 59.06 C 141.82 61.68 141.81 64.32 141.18 66.95 C 141.79 71.03 146.52 72.27 148.37 75.67 C 151.82 78.05 146.69 86.39 152.03 85.37 C 151.55 87.94 150.91 90.53 153.82 91.77 C 149.11 94.75 151.16 101.46 149.03 106.02 C 153.05 107.13 158.13 105.62 157.25 100.84 C 157.99 105.63 163.61 103.40 167.01 104.94 C 169.65 105.03 170.94 108.88 173.71 107.80 C 175.25 106.29 176.32 104.28 178.26 103.20 C 180.18 102.80 182.06 103.82 183.91 104.22 C 184.43 106.90 183.22 109.48 181.53 111.48 C 181.92 113.36 183.45 114.84 184.05 116.68 C 181.85 116.90 179.76 117.46 178.35 119.28 C 174.48 118.93 171.49 123.16 167.65 121.42 C 165.00 120.27 163.59 123.41 161.59 124.49 C 158.99 125.66 155.47 126.49 154.72 129.69 C 153.91 137.07 146.49 140.28 141.02 143.90 C 139.96 143.33 138.99 142.61 137.93 142.04 C 135.51 143.16 134.01 145.51 131.97 147.15 C 129.55 146.24 129.36 143.43 128.67 141.33 C 127.19 135.89 130.67 130.62 129.30 125.11 C 130.18 119.89 128.78 114.13 131.23 109.27 C 135.10 110.17 138.21 108.16 141.69 107.26 C 144.95 104.17 143.70 99.12 142.83 95.18 C 141.15 92.94 138.99 91.04 137.07 89.00 C 136.08 89.44 135.45 91.54 134.23 90.77 C 132.27 89.69 134.24 87.38 133.14 85.81 C 131.18 79.40 126.72 72.69 129.67 65.91 C 128.43 58.54 132.32 49.95 127.12 43.75 C 126.82 30.84 127.08 17.93 127.00 5.02 M 144.36 109.39 C 142.58 110.58 140.60 111.41 138.74 112.44 C 136.19 112.57 132.89 110.73 131.15 113.14 C 131.58 114.22 132.12 115.26 132.59 116.33 C 135.26 121.19 130.51 126.16 131.33 131.23 C 130.86 134.79 132.07 138.37 131.34 141.90 C 132.86 144.12 133.17 141.27 134.21 140.19 C 140.37 139.06 146.93 137.99 151.83 133.79 C 153.20 127.30 151.66 120.78 151.80 114.24 C 149.36 112.75 147.42 108.32 144.36 109.39 Z" />
</g>
<g id="#495354fd">
<path fill="#495354" opacity="1.00" d=" M 138.20 5.93 C 154.71 6.22 170.49 12.50 185.01 19.98 C 218.66 37.58 242.10 72.43 247.08 109.94 C 245.01 111.60 242.50 112.52 239.94 113.07 C 241.15 110.85 242.78 108.91 245.26 108.10 C 242.46 108.03 239.67 107.99 236.88 107.96 C 238.87 106.64 241.04 104.80 240.93 102.18 C 235.14 97.92 227.90 95.42 222.96 90.03 C 220.10 87.02 219.31 82.87 217.71 79.17 C 214.97 74.11 212.47 68.79 207.52 65.47 C 204.43 59.19 201.13 52.57 194.42 49.49 C 191.64 46.73 187.95 51.68 185.00 49.04 C 177.70 46.47 173.53 39.80 167.11 35.91 C 164.30 34.60 161.03 32.49 157.88 33.76 C 153.01 34.49 154.55 43.02 148.30 41.40 C 147.78 43.91 147.38 46.45 146.79 48.94 C 144.29 48.79 141.83 48.38 139.35 48.12 C 139.53 49.28 139.79 50.43 139.85 51.60 C 137.77 52.14 134.42 53.33 135.72 56.09 C 137.05 58.88 133.77 57.89 132.13 57.95 C 131.00 46.75 129.46 33.76 136.63 24.21 C 134.05 20.91 133.77 16.71 132.23 12.94 C 133.00 10.65 134.59 8.05 137.34 9.55 C 140.29 11.00 138.43 7.42 138.20 5.93 Z" />
</g>
<g id="#434d4eff">
<path fill="#434d4e" opacity="1.00" d=" M 158.31 35.13 C 161.26 35.21 164.17 35.65 167.11 35.91 C 173.53 39.80 177.70 46.47 185.00 49.04 C 187.95 51.68 191.64 46.73 194.42 49.49 C 201.13 52.57 204.43 59.19 207.52 65.47 C 212.47 68.79 214.97 74.11 217.71 79.17 C 219.31 82.87 220.10 87.02 222.96 90.03 C 227.90 95.42 235.14 97.92 240.93 102.18 C 241.04 104.80 238.87 106.64 236.88 107.96 C 230.61 108.13 224.36 107.85 218.15 107.07 C 216.87 108.42 218.03 110.29 217.82 111.90 C 217.38 113.93 216.64 115.89 215.71 117.74 C 211.34 119.21 205.21 116.98 201.85 120.81 C 200.79 121.84 199.37 122.39 198.21 123.30 C 197.45 126.04 197.57 128.92 197.30 131.73 C 200.25 133.30 205.84 133.38 202.97 139.02 C 202.23 141.99 204.69 143.77 205.79 146.08 C 204.18 150.61 208.09 154.14 210.24 157.71 C 212.93 159.37 215.44 161.27 217.81 163.36 C 219.71 166.59 217.19 171.80 213.32 170.95 C 213.25 168.84 212.47 167.41 210.16 167.98 C 211.03 171.26 210.01 174.58 210.53 177.89 C 206.81 180.98 201.00 180.66 196.60 182.61 C 194.41 185.44 190.69 187.15 189.85 190.89 C 188.00 194.48 187.97 200.22 183.70 201.65 C 179.44 201.77 175.24 200.79 171.05 200.17 C 168.90 200.49 167.41 202.43 165.62 203.54 C 163.25 203.90 160.54 204.17 159.19 201.73 C 159.17 198.13 159.34 194.55 159.14 190.96 C 161.51 190.42 162.52 193.79 164.90 192.87 C 168.54 191.75 172.03 190.16 175.55 188.70 C 175.63 187.87 175.66 187.03 175.66 186.20 C 170.86 184.43 165.57 185.09 160.87 186.81 C 157.84 188.21 157.26 183.45 154.22 184.66 C 151.67 178.70 144.14 176.42 138.09 177.53 C 136.00 175.73 133.45 176.73 131.03 177.21 C 130.95 178.57 130.89 180.09 132.18 180.92 C 133.66 180.92 134.72 179.65 136.02 179.11 C 137.85 180.62 141.24 182.29 139.01 184.99 C 136.91 187.67 139.91 191.11 137.72 193.70 C 135.36 194.90 132.76 195.49 130.28 196.36 C 131.01 203.81 126.36 210.45 128.13 217.98 C 129.64 223.69 127.89 229.53 127.28 235.26 C 126.68 171.44 127.04 107.58 127.12 43.75 C 132.32 49.95 128.43 58.54 129.67 65.91 C 126.72 72.69 131.18 79.40 133.14 85.81 C 134.24 87.38 132.27 89.69 134.23 90.77 C 135.45 91.54 136.08 89.44 137.07 89.00 C 138.99 91.04 141.15 92.94 142.83 95.18 C 143.70 99.12 144.95 104.17 141.69 107.26 C 138.21 108.16 135.10 110.17 131.23 109.27 C 128.78 114.13 130.18 119.89 129.30 125.11 C 130.67 130.62 127.19 135.89 128.67 141.33 C 129.36 143.43 129.55 146.24 131.97 147.15 C 134.01 145.51 135.51 143.16 137.93 142.04 C 138.99 142.61 139.96 143.33 141.02 143.90 C 146.49 140.28 153.91 137.07 154.72 129.69 C 155.47 126.49 158.99 125.66 161.59 124.49 C 163.59 123.41 165.00 120.27 167.65 121.42 C 171.49 123.16 174.48 118.93 178.35 119.28 C 179.76 117.46 181.85 116.90 184.05 116.68 C 183.45 114.84 181.92 113.36 181.53 111.48 C 183.22 109.48 184.43 106.90 183.91 104.22 C 182.06 103.82 180.18 102.80 178.26 103.20 C 176.32 104.28 175.25 106.29 173.71 107.80 C 170.94 108.88 169.65 105.03 167.01 104.94 C 163.61 103.40 157.99 105.63 157.25 100.84 C 158.13 105.62 153.05 107.13 149.03 106.02 C 151.16 101.46 149.11 94.75 153.82 91.77 C 150.91 90.53 151.55 87.94 152.03 85.37 C 146.69 86.39 151.82 78.05 148.37 75.67 C 146.52 72.27 141.79 71.03 141.18 66.95 C 141.81 64.32 141.82 61.68 141.18 59.06 C 141.74 56.66 144.30 54.85 143.44 52.16 C 146.53 52.25 150.74 53.94 152.54 50.61 C 154.68 45.54 157.49 40.65 158.31 35.13 Z" />
</g>
<g id="#c9bea3ff">
<path fill="#c9bea3" opacity="1.00" d=" M 99.89 40.95 C 103.17 40.64 105.31 43.76 108.04 44.94 C 113.54 48.30 118.31 52.69 122.93 57.14 C 123.08 71.76 122.98 86.37 122.99 100.99 L 122.01 101.01 C 123.58 95.29 119.63 82.86 111.89 86.84 C 107.02 89.44 101.64 90.26 96.22 89.16 C 93.10 91.88 91.10 98.26 96.24 99.93 C 92.35 101.82 91.02 105.86 90.80 109.92 C 90.53 110.18 89.99 110.70 89.71 110.95 C 86.67 113.54 84.33 117.35 80.27 118.44 C 76.62 119.35 75.18 123.57 71.91 124.99 C 68.51 125.69 66.85 121.97 64.74 120.04 C 64.95 116.32 66.18 112.80 66.89 109.17 C 64.67 108.09 62.20 107.88 59.78 107.80 C 61.80 107.14 63.86 106.60 65.82 105.79 C 65.60 104.25 65.18 102.76 64.94 101.23 C 65.66 101.09 68.01 102.83 67.53 101.31 C 66.62 99.00 69.58 98.27 70.63 96.72 C 70.75 95.26 70.79 93.80 70.86 92.34 C 69.87 92.53 68.89 92.71 67.90 92.89 C 68.03 91.09 69.66 88.73 71.68 89.44 C 74.37 90.27 77.72 88.23 77.15 85.18 C 73.86 86.55 70.34 86.88 66.98 88.08 C 66.09 83.80 71.73 84.67 74.03 82.41 C 71.59 82.60 72.01 80.22 73.93 80.33 C 78.48 80.90 83.76 79.10 86.12 74.94 C 83.60 75.41 81.37 76.70 79.00 77.58 C 77.04 77.37 75.09 77.08 73.12 77.03 C 71.95 73.89 71.54 70.51 72.05 67.16 C 78.83 65.70 86.58 67.92 92.83 64.04 C 90.23 60.49 88.26 56.38 87.01 52.17 C 90.70 47.91 97.09 53.27 100.33 48.35 C 103.91 46.50 100.54 43.35 99.89 40.95 Z" />
</g>
<g id="#d2c7adff">
<path fill="#d2c7ad" opacity="1.00" d=" M 71.38 42.36 C 78.19 38.85 77.14 44.75 77.55 48.81 C 76.57 52.26 72.70 54.69 69.16 53.91 C 66.76 51.29 66.73 47.63 67.09 44.26 C 68.67 43.96 70.16 43.44 71.38 42.36 Z" />
</g>
<g id="#c5baa0ff">
<path fill="#c5baa0" opacity="1.00" d=" M 46.09 45.17 C 49.30 44.16 57.50 46.28 55.29 51.10 C 54.64 58.13 58.90 70.16 49.03 73.00 C 42.98 74.14 37.15 76.64 30.90 76.63 C 27.66 78.93 25.89 76.53 24.17 74.75 C 24.10 72.77 24.89 70.88 25.01 68.91 C 25.00 67.16 24.98 63.67 24.98 61.92 C 25.16 61.52 25.51 60.73 25.69 60.34 C 26.19 60.45 27.19 60.67 27.69 60.78 C 30.54 57.27 33.70 54.03 36.41 50.41 C 39.76 48.89 43.19 47.51 46.09 45.17 Z" />
<path fill="#c5baa0" opacity="1.00" d=" M 79.00 77.58 C 81.37 76.70 83.60 75.41 86.12 74.94 C 83.76 79.10 78.48 80.90 73.93 80.33 C 72.01 80.22 71.59 82.60 74.03 82.41 C 71.73 84.67 66.09 83.80 66.98 88.08 C 70.34 86.88 73.86 86.55 77.15 85.18 C 77.72 88.23 74.37 90.27 71.68 89.44 C 69.66 88.73 68.03 91.09 67.90 92.89 C 68.89 92.71 69.87 92.53 70.86 92.34 C 70.79 93.80 70.75 95.26 70.63 96.72 C 69.58 98.27 66.62 99.00 67.53 101.31 C 68.01 102.83 65.66 101.09 64.94 101.23 C 65.18 102.76 65.60 104.25 65.82 105.79 C 63.86 106.60 61.80 107.14 59.78 107.80 C 55.93 107.79 49.81 108.93 49.90 103.03 C 49.09 99.08 45.66 95.18 47.99 91.00 C 47.77 86.31 52.70 85.09 54.86 81.90 C 56.37 78.34 60.52 77.04 63.89 76.11 C 66.57 78.36 69.90 78.05 73.12 77.03 C 75.09 77.08 77.04 77.37 79.00 77.58 Z" />
</g>
<g id="#cac2aae4">
<path fill="#cac2aa" opacity="0.89" d=" M 19.26 72.28 C 19.33 68.36 22.52 64.46 24.98 61.92 C 24.98 63.67 25.00 67.16 25.01 68.91 C 22.42 67.25 21.03 70.95 19.26 72.28 Z" />
</g>
<g id="#2d2e32ff">
<path fill="#2d2e32" opacity="1.00" d=" M 124.01 70.00 L 124.99 70.00 C 125.03 75.00 125.00 80.00 124.99 85.00 L 124.01 85.00 C 123.96 80.00 123.99 75.00 124.01 70.00 Z" />
</g>
<g id="#3d4245ff">
<path fill="#3d4245" opacity="1.00" d=" M 124.01 85.00 L 124.99 85.00 C 125.01 117.00 125.00 149.00 124.99 181.00 L 124.01 181.00 C 123.99 149.00 124.00 117.00 124.01 85.00 Z" />
</g>
<g id="#e3d9bfff">
<path fill="#e3d9bf" opacity="1.00" d=" M 111.89 86.84 C 119.63 82.86 123.58 95.29 122.01 101.01 C 122.02 103.77 121.72 106.64 122.75 109.27 C 123.36 133.83 122.82 158.43 123.01 183.00 C 119.24 186.03 120.78 179.20 120.41 176.72 C 121.20 172.85 122.01 168.86 121.34 164.89 C 121.95 146.66 123.42 128.06 119.87 110.02 C 116.95 110.41 114.99 113.05 112.71 114.70 C 110.47 113.22 108.25 111.71 106.06 110.16 C 104.51 110.36 104.64 113.04 102.98 112.91 C 101.65 112.33 100.47 111.45 99.26 110.67 C 99.33 108.00 100.31 105.44 100.80 102.83 C 97.64 102.84 98.11 107.04 96.88 108.98 C 95.75 111.42 93.54 116.63 90.26 113.77 C 90.13 113.06 89.85 111.66 89.71 110.95 C 89.99 110.70 90.53 110.18 90.80 109.92 C 94.86 108.96 97.29 105.12 97.89 101.22 C 97.48 100.90 96.65 100.26 96.24 99.93 C 91.10 98.26 93.10 91.88 96.22 89.16 C 101.64 90.26 107.02 89.44 111.89 86.84 Z" />
</g>
<g id="#c7bca2ff">
<path fill="#c7bca2" opacity="1.00" d=" M 24.51 93.44 C 26.27 92.25 28.07 91.07 30.00 90.16 C 36.09 92.12 42.30 94.52 46.87 99.20 C 48.74 104.36 45.44 107.68 41.29 109.23 C 41.57 112.38 39.86 113.53 36.84 113.29 C 38.60 114.89 40.70 116.04 42.60 117.44 C 44.44 120.41 43.03 123.80 42.92 127.00 C 41.64 128.34 40.03 129.19 38.15 128.57 C 34.08 127.17 33.57 133.13 30.07 134.05 C 27.30 131.48 23.81 129.34 22.49 125.63 C 21.95 120.94 19.26 117.01 17.46 112.77 C 19.19 106.16 22.12 99.86 24.51 93.44 Z" />
</g>
<g id="#d3c9afff">
<path fill="#d3c9af" opacity="1.00" d=" M 96.24 99.93 C 96.65 100.26 97.48 100.90 97.89 101.22 C 97.29 105.12 94.86 108.96 90.80 109.92 C 91.02 105.86 92.35 101.82 96.24 99.93 Z" />
</g>
<g id="#d0c6aafe">
<path fill="#d0c6aa" opacity="1.00" d=" M 122.01 101.01 L 122.99 100.99 C 122.95 103.75 122.86 106.51 122.75 109.27 C 121.72 106.64 122.02 103.77 122.01 101.01 Z" />
</g>
<g id="#e7ddc3fe">
<path fill="#e7ddc3" opacity="1.00" d=" M 96.88 108.98 C 98.11 107.04 97.64 102.84 100.80 102.83 C 100.31 105.44 99.33 108.00 99.26 110.67 C 100.47 111.45 101.65 112.33 102.98 112.91 C 104.64 113.04 104.51 110.36 106.06 110.16 C 108.25 111.71 110.47 113.22 112.71 114.70 C 114.99 113.05 116.95 110.41 119.87 110.02 C 123.42 128.06 121.95 146.66 121.34 164.89 C 122.01 168.86 121.20 172.85 120.41 176.72 C 120.78 179.20 119.24 186.03 123.01 183.00 C 122.99 204.34 123.00 225.67 123.00 247.01 C 119.51 247.27 116.14 246.75 112.83 245.77 C 115.06 241.22 114.10 236.09 114.82 231.24 C 112.32 227.18 104.50 227.80 103.86 232.89 C 103.40 236.99 101.76 240.70 99.00 243.75 C 64.61 235.65 34.03 211.69 18.81 179.80 C 20.13 178.31 21.57 176.27 23.88 177.06 C 26.45 178.47 28.88 180.68 32.05 180.02 C 31.70 176.04 30.74 172.12 29.74 168.27 C 24.86 162.72 16.72 162.13 11.14 157.85 C 11.67 156.14 12.64 154.63 13.55 153.11 C 13.09 150.69 12.33 148.41 11.41 146.16 C 14.20 141.39 18.76 139.17 23.90 137.83 C 23.91 135.44 22.96 132.91 24.59 130.82 C 24.91 133.04 25.21 135.38 27.14 136.83 C 31.29 134.85 36.58 133.36 38.15 128.57 C 40.03 129.19 41.64 128.34 42.92 127.00 C 46.60 124.55 44.16 119.25 47.73 116.74 C 50.37 114.60 52.20 110.57 55.66 110.10 C 56.69 113.91 58.24 117.56 60.20 120.98 C 61.76 120.94 63.25 120.43 64.74 120.04 C 66.85 121.97 68.51 125.69 71.91 124.99 C 75.18 123.57 76.62 119.35 80.27 118.44 C 84.33 117.35 86.67 113.54 89.71 110.95 C 89.85 111.66 90.13 113.06 90.26 113.77 C 93.54 116.63 95.75 111.42 96.88 108.98 M 50.34 136.36 C 49.15 137.45 46.46 137.81 47.07 139.94 C 48.55 142.87 49.20 146.24 51.16 148.91 C 52.80 148.89 56.06 148.86 57.69 148.85 C 58.42 146.60 61.82 142.99 58.65 141.39 C 55.43 140.34 54.32 134.69 50.34 136.36 M 97.78 188.95 C 95.23 187.72 91.80 187.74 91.00 191.00 C 91.62 193.53 94.45 194.14 96.72 194.28 C 97.49 195.48 97.59 197.25 98.85 198.05 C 99.18 199.46 100.58 200.28 101.99 200.07 L 102.04 200.96 C 103.50 200.99 106.41 201.06 107.87 201.09 C 107.96 202.41 108.05 203.74 108.13 205.06 C 113.47 204.50 114.92 198.32 116.86 194.13 C 115.75 192.40 113.81 194.07 112.30 194.25 C 112.00 195.74 111.72 197.36 110.21 198.11 C 110.22 192.26 106.00 187.41 100.94 185.01 C 98.44 184.29 97.94 187.15 97.78 188.95 Z" />
</g>
<g id="#475052ff">
<path fill="#475052" opacity="1.00" d=" M 218.15 107.07 C 224.36 107.85 230.61 108.13 236.88 107.96 C 239.67 107.99 242.46 108.03 245.26 108.10 C 242.78 108.91 241.15 110.85 239.94 113.07 C 242.50 112.52 245.01 111.60 247.08 109.94 C 247.00 110.67 246.85 112.13 246.78 112.86 C 242.73 115.27 237.79 115.03 233.27 115.95 C 233.80 111.71 230.43 114.24 228.08 114.77 C 225.48 111.76 221.35 114.06 218.37 115.33 C 217.42 117.01 216.68 118.80 215.76 120.49 C 214.55 120.38 213.35 120.15 212.13 120.10 C 208.38 122.97 204.43 125.82 202.10 130.03 C 205.35 132.09 205.24 136.08 206.57 139.35 C 208.68 143.61 206.70 148.98 209.17 152.96 C 211.55 153.03 214.89 150.71 216.18 153.77 C 218.16 158.34 220.22 163.14 220.31 168.22 C 220.06 171.12 217.32 175.33 220.96 177.07 C 224.04 178.57 218.95 181.77 218.52 178.14 C 216.20 180.68 213.32 184.93 209.68 181.64 C 206.50 182.51 201.64 181.54 200.05 185.03 C 197.68 189.82 191.65 191.64 190.15 197.06 C 188.71 203.87 180.80 203.19 175.43 204.69 C 174.05 209.09 168.48 208.77 165.05 210.91 C 163.09 208.82 160.77 207.18 158.48 205.50 C 156.09 202.48 154.53 198.90 152.14 195.89 C 149.29 199.43 145.05 200.66 141.04 202.19 C 138.82 207.48 141.06 207.22 143.98 208.10 C 143.55 209.67 142.91 211.18 142.37 212.72 C 140.72 213.13 139.02 213.28 137.35 213.56 C 136.81 215.41 136.77 218.76 133.95 218.02 C 133.64 216.26 134.95 215.12 135.91 213.88 C 135.21 211.58 133.79 209.19 131.00 209.96 C 135.21 220.81 130.15 232.14 128.96 243.00 C 128.59 247.77 134.84 245.57 137.99 246.05 L 138.00 247.01 C 135.24 247.00 129.73 246.98 126.97 246.97 C 127.01 243.06 127.11 239.16 127.28 235.26 C 127.89 229.53 129.64 223.69 128.13 217.98 C 126.36 210.45 131.01 203.81 130.28 196.36 C 132.76 195.49 135.36 194.90 137.72 193.70 C 139.91 191.11 136.91 187.67 139.01 184.99 C 141.24 182.29 137.85 180.62 136.02 179.11 C 134.72 179.65 133.66 180.92 132.18 180.92 C 130.89 180.09 130.95 178.57 131.03 177.21 C 133.45 176.73 136.00 175.73 138.09 177.53 C 144.14 176.42 151.67 178.70 154.22 184.66 C 157.26 183.45 157.84 188.21 160.87 186.81 C 165.57 185.09 170.86 184.43 175.66 186.20 C 175.66 187.03 175.63 187.87 175.55 188.70 C 172.03 190.16 168.54 191.75 164.90 192.87 C 162.52 193.79 161.51 190.42 159.14 190.96 C 159.34 194.55 159.17 198.13 159.19 201.73 C 160.54 204.17 163.25 203.90 165.62 203.54 C 167.41 202.43 168.90 200.49 171.05 200.17 C 175.24 200.79 179.44 201.77 183.70 201.65 C 187.97 200.22 188.00 194.48 189.85 190.89 C 190.69 187.15 194.41 185.44 196.60 182.61 C 201.00 180.66 206.81 180.98 210.53 177.89 C 210.01 174.58 211.03 171.26 210.16 167.98 C 212.47 167.41 213.25 168.84 213.32 170.95 C 217.19 171.80 219.71 166.59 217.81 163.36 C 215.44 161.27 212.93 159.37 210.24 157.71 C 208.09 154.14 204.18 150.61 205.79 146.08 C 204.69 143.77 202.23 141.99 202.97 139.02 C 205.84 133.38 200.25 133.30 197.30 131.73 C 197.57 128.92 197.45 126.04 198.21 123.30 C 199.37 122.39 200.79 121.84 201.85 120.81 C 205.21 116.98 211.34 119.21 215.71 117.74 C 216.64 115.89 217.38 113.93 217.82 111.90 C 218.03 110.29 216.87 108.42 218.15 107.07 Z" />
</g>
<g id="#485253ff">
<path fill="#485253" opacity="1.00" d=" M 144.36 109.39 C 147.42 108.32 149.36 112.75 151.80 114.24 C 151.66 120.78 153.20 127.30 151.83 133.79 C 146.93 137.99 140.37 139.06 134.21 140.19 C 133.17 141.27 132.86 144.12 131.34 141.90 C 132.07 138.37 130.86 134.79 131.33 131.23 C 130.51 126.16 135.26 121.19 132.59 116.33 C 132.12 115.26 131.58 114.22 131.15 113.14 C 132.89 110.73 136.19 112.57 138.74 112.44 C 140.60 111.41 142.58 110.58 144.36 109.39 Z" />
</g>
<g id="#8882739b">
<path fill="#888273" opacity="0.61" d=" M 6.45 119.97 C 5.65 118.14 4.77 113.95 6.99 113.17 C 7.38 115.44 7.20 117.71 6.45 119.97 Z" />
</g>
<g id="#495254fd">
<path fill="#495254" opacity="1.00" d=" M 218.37 115.33 C 221.35 114.06 225.48 111.76 228.08 114.77 C 230.43 114.24 233.80 111.71 233.27 115.95 C 237.79 115.03 242.73 115.27 246.78 112.86 C 251.11 136.33 244.61 160.46 234.74 181.77 L 233.88 182.00 C 233.99 179.20 235.22 176.17 233.43 173.64 C 232.70 171.22 229.85 171.00 228.00 169.80 C 228.02 166.92 231.27 165.66 232.18 163.10 C 232.78 161.35 234.93 161.40 236.06 160.13 C 237.98 158.58 242.38 158.54 241.93 155.20 C 239.49 152.13 235.61 155.31 233.26 156.90 C 232.43 155.78 231.75 154.56 230.85 153.51 C 228.93 153.63 227.02 153.64 225.10 153.56 C 223.19 155.14 221.37 156.85 219.91 158.86 C 221.09 159.79 223.54 159.50 223.95 161.08 C 222.20 163.19 220.74 165.46 220.31 168.22 C 220.22 163.14 218.16 158.34 216.18 153.77 C 214.89 150.71 211.55 153.03 209.17 152.96 C 206.70 148.98 208.68 143.61 206.57 139.35 C 205.24 136.08 205.35 132.09 202.10 130.03 C 204.43 125.82 208.38 122.97 212.13 120.10 C 213.35 120.15 214.55 120.38 215.76 120.49 C 216.68 118.80 217.42 117.01 218.37 115.33 Z" />
</g>
<g id="#d4c9afff">
<path fill="#d4c9af" opacity="1.00" d=" M 50.34 136.36 C 54.32 134.69 55.43 140.34 58.65 141.39 C 61.82 142.99 58.42 146.60 57.69 148.85 C 56.06 148.86 52.80 148.89 51.16 148.91 C 49.20 146.24 48.55 142.87 47.07 139.94 C 46.46 137.81 49.15 137.45 50.34 136.36 Z" />
</g>
<g id="#4a5455fd">
<path fill="#4a5455" opacity="1.00" d=" M 225.10 153.56 C 227.02 153.64 228.93 153.63 230.85 153.51 C 231.75 154.56 232.43 155.78 233.26 156.90 C 235.61 155.31 239.49 152.13 241.93 155.20 C 242.38 158.54 237.98 158.58 236.06 160.13 C 234.93 161.40 232.78 161.35 232.18 163.10 C 231.27 165.66 228.02 166.92 228.00 169.80 C 229.85 171.00 232.70 171.22 233.43 173.64 C 235.22 176.17 233.99 179.20 233.88 182.00 C 216.20 218.07 178.11 243.57 137.99 246.05 C 134.84 245.57 128.59 247.77 128.96 243.00 C 130.15 232.14 135.21 220.81 131.00 209.96 C 133.79 209.19 135.21 211.58 135.91 213.88 C 134.95 215.12 133.64 216.26 133.95 218.02 C 136.77 218.76 136.81 215.41 137.35 213.56 C 139.02 213.28 140.72 213.13 142.37 212.72 C 142.91 211.18 143.55 209.67 143.98 208.10 C 141.06 207.22 138.82 207.48 141.04 202.19 C 145.05 200.66 149.29 199.43 152.14 195.89 C 154.53 198.90 156.09 202.48 158.48 205.50 C 160.77 207.18 163.09 208.82 165.05 210.91 C 168.48 208.77 174.05 209.09 175.43 204.69 C 180.80 203.19 188.71 203.87 190.15 197.06 C 191.65 191.64 197.68 189.82 200.05 185.03 C 201.64 181.54 206.50 182.51 209.68 181.64 C 213.32 184.93 216.20 180.68 218.52 178.14 C 218.95 181.77 224.04 178.57 220.96 177.07 C 217.32 175.33 220.06 171.12 220.31 168.22 C 220.74 165.46 222.20 163.19 223.95 161.08 C 223.54 159.50 221.09 159.79 219.91 158.86 C 221.37 156.85 223.19 155.14 225.10 153.56 Z" />
</g>
<g id="#2e3235ff">
<path fill="#2e3235" opacity="1.00" d=" M 124.01 181.00 L 124.99 181.00 C 125.03 203.00 124.98 225.00 125.00 247.00 L 124.00 247.00 C 124.01 225.00 123.98 203.00 124.01 181.00 Z" />
</g>
<g id="#e4d9bfff">
<path fill="#e4d9bf" opacity="1.00" d=" M 97.78 188.95 C 97.94 187.15 98.44 184.29 100.94 185.01 C 106.00 187.41 110.22 192.26 110.21 198.11 C 111.72 197.36 112.00 195.74 112.30 194.25 C 113.81 194.07 115.75 192.40 116.86 194.13 C 114.92 198.32 113.47 204.50 108.13 205.06 C 108.05 203.74 107.96 202.41 107.87 201.09 C 106.41 201.06 103.50 200.99 102.04 200.96 L 101.99 200.07 C 103.72 199.79 105.92 200.52 107.34 199.31 C 110.73 195.34 102.53 189.16 99.72 193.70 C 98.64 194.82 99.16 196.64 98.85 198.05 C 97.59 197.25 97.49 195.48 96.72 194.28 C 94.45 194.14 91.62 193.53 91.00 191.00 C 91.80 187.74 95.23 187.72 97.78 188.95 Z" />
</g>
<g id="#d7ccb2ff">
<path fill="#d7ccb2" opacity="1.00" d=" M 99.72 193.70 C 102.53 189.16 110.73 195.34 107.34 199.31 C 105.92 200.52 103.72 199.79 101.99 200.07 C 100.58 200.28 99.18 199.46 98.85 198.05 C 99.16 196.64 98.64 194.82 99.72 193.70 Z" />
</g>
<g id="#dcd2b8fc">
<path fill="#dcd2b8" opacity="1.00" d=" M 103.86 232.89 C 104.50 227.80 112.32 227.18 114.82 231.24 C 114.10 236.09 115.06 241.22 112.83 245.77 C 108.17 246.41 103.52 244.82 99.00 243.75 C 101.76 240.70 103.40 236.99 103.86 232.89 Z" />
</g>
</svg>
