<?xml version="1.0" encoding="UTF-8" standalone="no"?>
<!-- Created with Inkscape (http://www.inkscape.org/) -->

<svg
   width="132.588mm"
   height="83.121498mm"
   viewBox="0 0 132.588 83.121498"
   version="1.1"
   id="svg1"
   inkscape:version="1.4.2 (f4327f4, 2025-05-13)"
   sodipodi:docname="cloud_smiling_widely.svg"
   xmlns:inkscape="http://www.inkscape.org/namespaces/inkscape"
   xmlns:sodipodi="http://sodipodi.sourceforge.net/DTD/sodipodi-0.dtd"
   xmlns="http://www.w3.org/2000/svg"
   xmlns:svg="http://www.w3.org/2000/svg">
  <sodipodi:namedview
     id="namedview1"
     pagecolor="#ffffff"
     bordercolor="#000000"
     borderopacity="0.25"
     inkscape:showpageshadow="2"
     inkscape:pageopacity="0.0"
     inkscape:pagecheckerboard="0"
     inkscape:deskcolor="#d1d1d1"
     inkscape:document-units="mm"
     inkscape:zoom="0.68862935"
     inkscape:cx="255.58016"
     inkscape:cy="160.46368"
     inkscape:window-width="1920"
     inkscape:window-height="991"
     inkscape:window-x="-9"
     inkscape:window-y="-9"
     inkscape:window-maximized="1"
     inkscape:current-layer="svg1" />
  <defs
     id="defs1">
    <radialGradient
       fx="0"
       fy="0"
       cx="0"
       cy="0"
       r="1"
       gradientUnits="userSpaceOnUse"
       gradientTransform="matrix(0,479.576,479.576,0,20833,13377.3)"
       spreadMethod="pad"
       id="radialGradient1476">
      <stop
         style="stop-opacity:1;stop-color:#bd3e26"
         offset="0"
         id="stop1474" />
      <stop
         style="stop-opacity:1;stop-color:#bd3e26"
         offset="0.430359"
         id="stop1475" />
      <stop
         style="stop-opacity:1;stop-color:#8c2e1c"
         offset="1"
         id="stop1476" />
    </radialGradient>
    <clipPath
       clipPathUnits="userSpaceOnUse"
       id="clipPath1476">
      <path
         d="m 20471.8,13758.3 c 0,0 130.6,-91.9 340.8,-74 187.9,16 319,105 319,105 0,0 41.3,-247.5 -322.4,-266.3 -337.7,-17.5 -337.4,235.3 -337.4,235.3 z"
         id="path1476" />
    </clipPath>
  </defs>
  <g
     id="g13"
     style="display:inline"
     transform="matrix(0.26458333,0,0,0.26458333,-357.35682,-75.914266)">
    <path
       id="path685"
       d="m 13304.2,18035.8 c -127.7,531.3 -739.2,773.8 -1195.1,488.7 -144.9,196.3 -377.8,323.6 -640.5,323.6 -457.3,0 -825.5,-386.2 -793.8,-850.7 -308.8,-48.6 -545,-315.9 -545,-638.3 0,-464.5 475.7,-775.2 899.2,-594.9 263.2,-356.3 792.4,-364.4 1066.2,-15.6 295.1,-271.2 760.3,-235.9 1010.3,82.2 392.7,-111.4 782.7,183.7 782.7,591.2 0,329.2 -258.8,597.9 -584,613.8"
       style="fill:#758899;fill-opacity:1;fill-rule:nonzero;stroke:none"
       transform="matrix(0.13333333,0,0,-0.13333333,0,2800)" />
    <path
       id="path686"
       d="m 11568.2,16673.1 c -202.8,0 -405.4,91.2 -539.2,272.3 -83.4,-35.5 -168.8,-52 -252.2,-52 -179.1,0 -349,76 -469.7,202.4 -50.8,84.6 -80.5,183.6 -80.5,291.8 0,292.9 224,535.6 516.9,579.8 -30.1,421.9 319.2,772.7 752.9,772.7 249.2,0 470.1,-115.7 607.6,-294 125,74.9 262.3,109.7 397.4,109.7 332,0 650,-210.5 736,-553.5 308.5,-14.5 554,-258.6 554,-557.6 0,-93.5 -23.6,-180.5 -64.9,-256.7 -113.9,-123.8 -276.8,-199.7 -452,-199.7 -55.5,0 -112.2,7.6 -169,23.8 -137.4,-174.9 -339.9,-264.3 -543.4,-264.3 -166.7,0 -334,60 -466.9,182.1 -134.6,-171.5 -330.9,-256.8 -527,-256.8 m 1331.8,1320.8 -370.3,-51.9 -0.4,-5.2 306.3,-175.1 70,96.4 0.5,6 -124.5,64.9 120.1,58.5 -1.7,6.4 m -1607.7,94 -62.3,-95 0.6,-6.9 119.6,-57 -124.1,-65.8 0.9,-8.8 69.2,-92.7 306.3,175.1 v 5.2 l -310.2,145.9"
       style="fill:#687e92;fill-opacity:1;fill-rule:nonzero;stroke:none"
       transform="matrix(0.13333333,0,0,-0.13333333,0,2800)" />
    <path
       id="path687"
       d="m 11034.7,18545.8 c 40.8,-37.7 20,-126.5 -46.4,-198.4 -66.4,-72 -153.4,-99.7 -194.1,-62.1 -40.8,37.7 -20.1,126.5 46.4,198.5 66.4,71.9 153.3,99.6 194.1,62"
       style="fill:#a9bece;fill-opacity:1;fill-rule:nonzero;stroke:none"
       transform="matrix(0.13333333,0,0,-0.13333333,0,2800)" />
    <path
       id="path688"
       d="m 10579.3,17841.1 c 15.6,-28.4 -12.5,-73.7 -62.6,-101 -50.1,-27.4 -103.3,-26.6 -118.8,1.8 -15.6,28.5 12.5,73.7 62.6,101.1 50.1,27.4 103.3,26.5 118.8,-1.9"
       style="fill:#a9bece;fill-opacity:1;fill-rule:nonzero;stroke:none"
       transform="matrix(0.13333333,0,0,-0.13333333,0,2800)" />
    <path
       id="path689"
       d="m 12406.6,18564.2 c 16.2,-28.1 -10.2,-73.8 -59,-102.1 -48.8,-28.2 -101.6,-28.4 -117.8,-0.4 -16.2,28.1 10.2,73.7 59,102 48.8,28.3 101.6,28.5 117.8,0.5"
       style="fill:#a9bece;fill-opacity:1;fill-rule:nonzero;stroke:none"
       transform="matrix(0.13333333,0,0,-0.13333333,0,2800)" />
    <path
       id="path690"
       d="m 10129.8,17359.1 c 0,0.5 0,1.1 0,1.7 0,-0.6 0,-1.2 0,-1.7 m 0,2.3 c 0,0.3 0,0.7 0,1 0,-0.3 0,-0.7 0,-1 m 0,1.8 c 0,0.2 0,0.5 0,0.7 0,-0.2 0,-0.5 0,-0.7 m 3758.4,58.8 c 0,0.6 0,1.1 0,1.7 0,-0.6 0,-1.1 0,-1.7 m 0,2.2 c 0,0.4 0,0.9 0,1.3 0,-0.4 0,-0.9 0,-1.3 m 0,1.9 c 0,0.4 0,0.9 0,1.4 0,-0.5 0,-1 0,-1.4 m 0,1.9 c 0,0.5 0,0.9 0,1.4 0,-0.5 0,-0.9 0,-1.4 m 0,2.2 c 0,0.3 -0.1,0.6 -0.1,0.9 0,-0.3 0.1,-0.6 0.1,-0.9 m -0.1,1.8 c 0,0.2 0,0.4 0,0.6 0,-0.2 0,-0.4 0,-0.6 m -0.1,4.4 c 0,0 0,0.1 0,0.1 0,0 0,-0.1 0,-0.1"
       style="fill:#11303e;fill-opacity:1;fill-rule:nonzero;stroke:none"
       transform="matrix(0.13333333,0,0,-0.13333333,0,2800)" />
    <path
       id="path691"
       d="m 11568.2,16491.9 c -202.8,0 -405.4,91.2 -539.2,272.3 -83.4,-35.5 -168.8,-52 -252.2,-52 -340.1,0 -647,273.9 -647,646.9 v 0 c 0,0.5 0,1.1 0,1.7 0,0.1 0,0.4 0,0.6 0,0.3 0,0.7 0,1 0,0.3 0,0.5 0,0.8 0,0.2 0,0.5 0,0.7 0.2,29.1 2.4,57.7 6.3,85.8 19.2,-138.8 81.6,-260.2 171,-353.9 108.5,-180.5 313.5,-295.8 533.2,-295.8 79.1,0 160.1,15 239.2,47.2 126.9,-164.5 319.1,-247.3 511.4,-247.3 186,0 372.2,77.5 499.9,233.2 126,-110.9 284.7,-165.3 442.8,-165.3 193,0 385,81.1 515.4,240 53.9,-14.6 107.7,-21.6 160.4,-21.6 219.4,0 418.5,120.1 517.1,301.8 80.6,87.7 136.7,199.4 155,325.2 3.7,-25.1 5.9,-50.7 6.5,-76.7 0,0 0,-0.1 0,-0.1 0.1,-1.2 0.1,-2.5 0.1,-3.8 0,-0.2 0,-0.4 0,-0.6 0,-0.3 0,-0.6 0,-0.9 0,-0.3 0.1,-0.6 0.1,-0.9 0,-0.3 0,-0.5 0,-0.8 0,-0.5 0,-0.9 0,-1.4 0,-0.2 0,-0.4 0,-0.5 0,-0.5 0,-1 0,-1.4 0,-0.2 0,-0.4 0,-0.6 0,-0.4 0,-0.9 0,-1.3 0,-0.1 0,-0.3 0,-0.5 0,-0.6 0,-1.1 0,-1.7 v 0 c 0,-348.6 -285.3,-614.9 -613.6,-614.9 -55.5,0 -112.3,7.6 -169.1,23.7 -137.5,-174.9 -339.9,-264.2 -543.4,-264.2 -166.7,0 -334,59.9 -466.9,182 -134.6,-171.5 -330.9,-256.7 -527,-256.7"
       style="fill:#687e92;fill-opacity:1;fill-rule:nonzero;stroke:none"
       transform="matrix(0.13333333,0,0,-0.13333333,0,2800)" />
    <path
       id="path692"
       d="m 11590.9,16599.9 c -192.3,0 -384.5,82.8 -511.4,247.3 -79.1,-32.2 -160.1,-47.2 -239.2,-47.2 -219.7,0 -424.7,115.3 -533.2,295.8 120.7,-126.4 290.6,-202.4 469.7,-202.4 83.4,0 168.8,16.5 252.2,52 133.8,-181.1 336.4,-272.3 539.2,-272.3 196.1,0 392.4,85.3 527,256.8 132.9,-122.1 300.2,-182.1 466.9,-182.1 203.5,0 406,89.4 543.4,264.3 56.8,-16.2 113.5,-23.8 169,-23.8 175.2,0 338.1,75.9 452,199.7 -98.6,-181.7 -297.7,-301.8 -517.1,-301.8 -52.7,0 -106.5,7 -160.4,21.6 -130.4,-158.9 -322.4,-240 -515.4,-240 -158.1,0 -316.8,54.4 -442.8,165.3 -127.7,-155.7 -313.9,-233.2 -499.9,-233.2"
       style="fill:#5c758b;fill-opacity:1;fill-rule:nonzero;stroke:none"
       transform="matrix(0.13333333,0,0,-0.13333333,0,2800)" />
    <path
       id="path693"
       d="m 12051.5,16885.9 c -124.1,-17.1 -232.8,27 -242.7,98.7 -10,71.7 99.9,55.6 224,72.8 124.1,17.2 215.6,61.1 225.5,-10.5 10,-71.7 -82.6,-143.8 -206.8,-161"
       style="fill:#687e92;fill-opacity:1;fill-rule:nonzero;stroke:none"
       transform="matrix(0.13333333,0,0,-0.13333333,0,2800)" />
    <path
       id="path694"
       d="m 12842.2,17505.6 c 0,0 -138.5,-422.3 -776.1,-422.3 -637.7,0 -776.2,422.3 -776.2,422.3 0,0 347.5,124.2 776.2,124.2 428.6,0 776.1,-124.2 776.1,-124.2"
       style="fill:#ffffff;fill-opacity:1;fill-rule:nonzero;stroke:none"
       transform="matrix(0.13333333,0,0,-0.13333333,0,2800)" />
    <path
       id="path695"
       d="m 12207.1,17366.6 c 0,0 343.6,12.6 541.3,56.3 11.2,-11.3 18,-26.5 4.9,-64.9 66.8,80.6 88.9,147.6 88.9,147.6 0,0 -26.6,9.4 -73.9,23.2 2.8,-20 -2.9,-48.5 -26.6,-72.5 -70.1,-18.5 -335.3,-77 -534.6,-89.7"
       style="fill:#7d8e9d;fill-opacity:1;fill-rule:nonzero;stroke:none"
       transform="matrix(0.13333333,0,0,-0.13333333,0,2800)" />
    <path
       id="path696"
       d="m 11908.7,17366.6 c -198.1,12.6 -462.6,80.1 -534,98.9 -11.5,24.8 -14.2,46.1 -6.9,64.4 -49.8,-14.3 -77.9,-24.3 -77.9,-24.3 0,0 20.2,-61.2 80.1,-136.9 -4.1,27.7 -4.1,53.2 5.6,63.2 197.7,-43.5 533.1,-65.3 533.1,-65.3"
       style="fill:#7d8e9d;fill-opacity:1;fill-rule:nonzero;stroke:none"
       transform="matrix(0.13333333,0,0,-0.13333333,0,2800)" />
    <path
       id="path697"
       d="m 12891,17761 20,-144.7 144.7,-19.9 -144.7,-19.9 -20,-144.7 -19.9,144.7 -144.6,19.9 144.6,19.9 19.9,144.7"
       style="fill:#ffffff;fill-opacity:1;fill-rule:nonzero;stroke:none"
       transform="matrix(0.13333333,0,0,-0.13333333,0,2800)" />
    <path
       id="path698"
       d="m 12835.6,17761.7 -306.3,175.1 0.4,5.2 370.3,51.9 1.7,-6.4 -120.1,-58.5 124.5,-64.9 -0.5,-6 -70,-96.4"
       style="fill:#99a9b6;fill-opacity:1;fill-rule:nonzero;stroke:none"
       transform="matrix(0.13333333,0,0,-0.13333333,0,2800)" />
    <path
       id="path699"
       d="m 11296.2,17761.7 -69.2,92.7 -0.9,8.8 124.1,65.8 -119.6,57 -0.6,6.9 62.3,95 310.2,-145.9 v -5.2 l -306.3,-175.1"
       style="fill:#99a9b6;fill-opacity:1;fill-rule:nonzero;stroke:none"
       transform="matrix(0.13333333,0,0,-0.13333333,0,2800)" />
    <path
       id="path700"
       d="m 12781.6,17934.4 120.1,58.4 -62.2,100.5 -310.2,-151.1 306.3,-175.1 70,96.3 -124,71"
       style="fill:#133441;fill-opacity:1;fill-rule:nonzero;stroke:none"
       transform="matrix(0.13333333,0,0,-0.13333333,0,2800)" />
    <path
       id="path701"
       d="m 11230.1,17992.8 120.1,-58.4 -124,-71 70,-96.3 306.3,175.1 -310.2,151.1 -62.2,-100.5"
       style="fill:#133441;fill-opacity:1;fill-rule:nonzero;stroke:none"
       transform="matrix(0.13333333,0,0,-0.13333333,0,2800)" />
  </g>
</svg>
