<?xml version="1.0" encoding="UTF-8" standalone="no"?>
<!-- Created with Inkscape (http://www.inkscape.org/) -->

<svg
   width="132.588mm"
   height="83.121498mm"
   viewBox="0 0 132.588 83.121498"
   version="1.1"
   id="svg1"
   inkscape:version="1.4.2 (f4327f4, 2025-05-13)"
   sodipodi:docname="cloud_cool.svg"
   xmlns:inkscape="http://www.inkscape.org/namespaces/inkscape"
   xmlns:sodipodi="http://sodipodi.sourceforge.net/DTD/sodipodi-0.dtd"
   xmlns="http://www.w3.org/2000/svg"
   xmlns:svg="http://www.w3.org/2000/svg">
  <sodipodi:namedview
     id="namedview1"
     pagecolor="#ffffff"
     bordercolor="#000000"
     borderopacity="0.25"
     inkscape:showpageshadow="2"
     inkscape:pageopacity="0.0"
     inkscape:pagecheckerboard="0"
     inkscape:deskcolor="#d1d1d1"
     inkscape:document-units="mm"
     inkscape:zoom="0.68862935"
     inkscape:cx="258.48448"
     inkscape:cy="204.02848"
     inkscape:window-width="1920"
     inkscape:window-height="991"
     inkscape:window-x="-9"
     inkscape:window-y="-9"
     inkscape:window-maximized="1"
     inkscape:current-layer="svg1" />
  <defs
     id="defs1">
    <radialGradient
       fx="0"
       fy="0"
       cx="0"
       cy="0"
       r="1"
       gradientUnits="userSpaceOnUse"
       gradientTransform="matrix(0,479.576,479.576,0,20833,13377.3)"
       spreadMethod="pad"
       id="radialGradient1476">
      <stop
         style="stop-opacity:1;stop-color:#bd3e26"
         offset="0"
         id="stop1474" />
      <stop
         style="stop-opacity:1;stop-color:#bd3e26"
         offset="0.430359"
         id="stop1475" />
      <stop
         style="stop-opacity:1;stop-color:#8c2e1c"
         offset="1"
         id="stop1476" />
    </radialGradient>
    <clipPath
       clipPathUnits="userSpaceOnUse"
       id="clipPath1476">
      <path
         d="m 20471.8,13758.3 c 0,0 130.6,-91.9 340.8,-74 187.9,16 319,105 319,105 0,0 41.3,-247.5 -322.4,-266.3 -337.7,-17.5 -337.4,235.3 -337.4,235.3 z"
         id="path1476" />
    </clipPath>
  </defs>
  <g
     id="g19"
     style="display:inline"
     transform="matrix(0.26458333,0,0,0.26458333,-357.03932,-455.50314)">
    <path
       id="path1068"
       d="m 13295.1,7275.8 c -127.6,531.3 -739.1,773.8 -1195,488.7 -144.9,196.3 -377.8,323.6 -640.5,323.6 -457.3,0 -825.5,-386.1 -793.9,-850.7 -308.8,-48.6 -544.9,-315.9 -544.9,-638.3 0,-464.5 475.7,-775.2 899.2,-594.9 263.2,-356.3 792.4,-364.4 1066.2,-15.6 295.1,-271.2 760.3,-235.9 1010.3,82.2 392.7,-111.4 782.7,183.7 782.7,591.2 0,329.2 -258.8,597.9 -584.1,613.8"
       style="fill:#758899;fill-opacity:1;fill-rule:nonzero;stroke:none"
       transform="matrix(0.13333333,0,0,-0.13333333,0,2800)" />
    <path
       id="path1069"
       d="m 11559.2,5913.1 c -202.8,0 -405.4,91.2 -539.2,272.3 -83.4,-35.5 -168.8,-52 -252.2,-52 -179.1,0 -349,76 -469.7,202.4 -50.9,84.7 -80.5,183.6 -80.5,291.8 0,292.9 224,535.6 516.9,579.8 -30.1,421.9 319.2,772.7 752.9,772.7 249.2,0 470.1,-115.7 607.6,-294 125,74.9 262.3,109.7 397.4,109.7 269.6,0 530,-138.9 664.4,-374.8 -44,19.2 -107.9,41.9 -188.5,59 -59.1,12.4 -157.3,22.8 -273.3,22.8 -135,0 -293.9,-14 -443.3,-55.4 -44.5,-12.3 -118.7,-18.2 -192.8,-18.2 -76.2,0 -152.5,6.2 -196.4,18.2 -150.5,41.1 -310.3,55.1 -445.5,55.1 -115.1,0 -212.4,-10.1 -271.2,-22.5 -124.3,-26.4 -208.9,-66.1 -242.1,-85.6 -3.9,-2.3 -5.4,-17.6 -4.7,-36.2 -1.2,-26.7 4.2,-71.7 15,-86.2 9.6,-13.2 41.6,-31.2 65.7,-43.7 -0.3,-5.1 -0.5,-10.3 -0.5,-15.7 0,-19.6 -0.2,-40.7 -0.2,-62.8 -0.5,-202.4 13.7,-505.2 479.3,-505.2 345.6,0 496.7,248.5 521.8,493 h 1.3 c 0,0 13.7,72.1 75.7,72.1 61.9,0 75.5,-72.1 75.5,-72.1 h 1.3 c 25.2,-244.5 176.3,-493 521.9,-493 465.7,0 479.8,302.9 479.4,505.2 0,22.2 -0.2,43.2 -0.2,62.8 0,5.4 -0.2,10.6 -0.5,15.7 24.1,12.5 56.1,30.5 65.6,43.7 4.5,5.9 8,17.1 10.6,30 6.7,-19.4 12.6,-39.3 17.7,-59.7 308.5,-14.5 554,-258.6 554,-557.6 0,-93.5 -23.6,-180.5 -64.9,-256.7 -113.9,-123.8 -276.8,-199.7 -452,-199.7 -55.5,0 -112.2,7.6 -169,23.8 -137.5,-174.9 -339.9,-264.3 -543.4,-264.3 -166.7,0 -334,59.9 -466.9,182.1 -134.6,-171.5 -330.9,-256.8 -527,-256.8 m 237.8,751.7 c -8.7,0 -17.4,-3.3 -24.1,-9.9 -13.6,-13.2 -13.8,-35.1 -0.4,-48.6 1.7,-1.9 123.9,-123.5 291.3,-123.5 84,0 179.5,30.7 276.9,122.5 13.9,13.1 14.5,34.9 1.4,48.6 -6.7,7.2 -15.8,10.9 -24.9,10.9 -8.5,0 -17,-3.2 -23.7,-9.5 -82.5,-77.7 -162.5,-103.6 -232.5,-103.6 -135.3,0 -233.4,96.6 -239.5,102.8 -6.7,6.8 -15.6,10.3 -24.5,10.3"
       style="fill:#687e92;fill-opacity:1;fill-rule:nonzero;stroke:none"
       transform="matrix(0.13333333,0,0,-0.13333333,0,2800)" />
    <path
       id="path1070"
       d="m 11025.7,7785.8 c 40.8,-37.7 20,-126.5 -46.4,-198.4 -66.5,-72 -153.4,-99.7 -194.2,-62.1 -40.7,37.7 -20,126.5 46.4,198.4 66.5,72 153.4,99.7 194.2,62.1"
       style="fill:#a9bece;fill-opacity:1;fill-rule:nonzero;stroke:none"
       transform="matrix(0.13333333,0,0,-0.13333333,0,2800)" />
    <path
       id="path1071"
       d="m 10570.3,7081.1 c 15.6,-28.4 -12.5,-73.7 -62.6,-101 -50.1,-27.4 -103.3,-26.6 -118.9,1.8 -15.5,28.4 12.5,73.7 62.7,101.1 50.1,27.4 103.3,26.5 118.8,-1.9"
       style="fill:#a9bece;fill-opacity:1;fill-rule:nonzero;stroke:none"
       transform="matrix(0.13333333,0,0,-0.13333333,0,2800)" />
    <path
       id="path1072"
       d="m 12397.6,7804.2 c 16.2,-28.1 -10.2,-73.8 -59,-102.1 -48.8,-28.3 -101.6,-28.4 -117.8,-0.4 -16.3,28.1 10.2,73.7 59,102 48.8,28.3 101.6,28.5 117.8,0.5"
       style="fill:#a9bece;fill-opacity:1;fill-rule:nonzero;stroke:none"
       transform="matrix(0.13333333,0,0,-0.13333333,0,2800)" />
    <path
       id="path1073"
       d="m 10120.8,6599.1 c 0,0.5 0,1.1 0,1.7 0,-0.6 0,-1.2 0,-1.7 m 0,2.3 c 0,0.3 0,0.6 0,1 0,-0.4 0,-0.7 0,-1 m 0,1.8 c 0,0.2 0,0.4 0,0.7 0,-0.3 0,-0.5 0,-0.7 m 3758.4,58.8 c 0,0.6 0,1.1 0,1.7 0,-0.6 0,-1.1 0,-1.7 m 0,2.2 c 0,0.4 0,0.9 0,1.3 0,-0.4 0,-0.9 0,-1.3 m 0,1.8 c 0,0.5 0,1 0,1.5 0,-0.5 0,-1 0,-1.5 m 0,2 c 0,0.5 0,0.9 0,1.4 0,-0.5 0,-0.9 0,-1.4 m -0.1,2.2 c 0,0.3 0,0.6 0,0.9 0,-0.3 0,-0.6 0,-0.9 m 0,1.8 c 0,0.2 0,0.4 0,0.6 0,-0.2 0,-0.4 0,-0.6 m -0.1,4.4 c 0,0.1 0,0.1 0,0.1 0,0 0,0 0,-0.1"
       style="fill:#11303e;fill-opacity:1;fill-rule:nonzero;stroke:none"
       transform="matrix(0.13333333,0,0,-0.13333333,0,2800)" />
    <path
       id="path1074"
       d="m 11559.2,5731.9 c -202.8,0 -405.4,91.2 -539.2,272.3 -83.4,-35.5 -168.8,-52 -252.2,-52 -340.2,0 -647,273.9 -647,646.9 v 0 c 0,0.5 0,1.1 0,1.7 0,0.2 0,0.4 0,0.6 0,0.3 0,0.6 0,1 0,0.3 0,0.5 0,0.8 0,0.2 0,0.4 0,0.7 0.2,29.1 2.4,57.7 6.3,85.7 19.2,-138.7 81.6,-260.1 171,-353.8 108.5,-180.4 313.5,-295.8 533.2,-295.8 79.1,0 160.1,15 239.2,47.2 126.9,-164.5 319,-247.3 511.4,-247.3 186,0 372.2,77.4 499.9,233.2 126,-110.9 284.7,-165.4 442.8,-165.4 193,0 385,81.2 515.4,240.1 53.9,-14.6 107.7,-21.6 160.4,-21.6 219.4,0 418.5,120.1 517.1,301.8 80.6,87.7 136.7,199.4 155,325.2 3.7,-25.1 5.9,-50.7 6.5,-76.7 0,0 0,0 0,-0.1 0.1,-1.2 0.1,-2.5 0.1,-3.8 0,-0.2 0,-0.4 0,-0.6 0,-0.3 0,-0.6 0,-0.9 0,-0.3 0,-0.6 0,-0.9 0.1,-0.3 0.1,-0.5 0.1,-0.8 0,-0.5 0,-0.9 0,-1.4 0,-0.2 0,-0.4 0,-0.5 0,-0.5 0,-1 0,-1.5 0,-0.1 0,-0.3 0,-0.5 0,-0.4 0,-0.9 0,-1.3 0,-0.2 0,-0.3 0,-0.5 0,-0.6 0,-1.1 0,-1.7 v 0 c 0,-348.6 -285.3,-614.9 -613.6,-614.9 -55.5,0 -112.3,7.6 -169.1,23.7 -137.5,-174.9 -339.9,-264.3 -543.4,-264.3 -166.7,0 -334,60 -466.9,182.1 -134.6,-171.5 -330.9,-256.7 -527,-256.7"
       style="fill:#687e92;fill-opacity:1;fill-rule:nonzero;stroke:none"
       transform="matrix(0.13333333,0,0,-0.13333333,0,2800)" />
    <path
       id="path1075"
       d="m 11581.9,5839.9 c -192.4,0 -384.5,82.8 -511.4,247.3 -79.1,-32.2 -160.1,-47.2 -239.2,-47.2 -219.7,0 -424.7,115.4 -533.2,295.8 120.7,-126.4 290.6,-202.4 469.7,-202.4 83.4,0 168.8,16.5 252.2,52 133.8,-181.1 336.4,-272.3 539.2,-272.3 196.1,0 392.4,85.3 527,256.8 132.9,-122.2 300.2,-182.1 466.9,-182.1 203.5,0 405.9,89.4 543.4,264.3 56.8,-16.2 113.5,-23.8 169,-23.8 175.2,0 338.1,75.9 452,199.7 -98.6,-181.7 -297.7,-301.8 -517.1,-301.8 -52.7,0 -106.5,7 -160.4,21.6 -130.4,-158.9 -322.4,-240.1 -515.4,-240.1 -158.1,0 -316.8,54.5 -442.8,165.4 -127.7,-155.8 -313.9,-233.2 -499.9,-233.2"
       style="fill:#5c758b;fill-opacity:1;fill-rule:nonzero;stroke:none"
       transform="matrix(0.13333333,0,0,-0.13333333,0,2800)" />
    <path
       id="path1076"
       d="m 12042.5,6125.9 c -124.1,-17.1 -232.8,27 -242.7,98.7 -10,71.7 99.8,55.6 224,72.8 124.1,17.2 215.6,61.1 225.5,-10.5 10,-71.7 -82.6,-143.8 -206.8,-161"
       style="fill:#687e92;fill-opacity:1;fill-rule:nonzero;stroke:none"
       transform="matrix(0.13333333,0,0,-0.13333333,0,2800)" />
    <path
       id="path1077"
       d="m 12655.8,6644.6 c -345.6,0 -496.7,248.5 -521.9,493 h -1.3 c 0,0 -13.6,72.1 -75.5,72.1 -62,0 -75.7,-72.1 -75.7,-72.1 h -1.3 c -25.1,-244.5 -176.2,-493 -521.8,-493 -465.6,0 -479.8,302.8 -479.3,505.2 0.6,-201.9 25.8,-489.3 479.3,-489.3 345.6,0 496.7,248.6 521.8,493 h 1.3 c 0,0 13.7,72.2 75.7,72.2 61.9,0 75.5,-72.2 75.5,-72.2 h 1.3 c 25.2,-244.4 176.3,-493 521.9,-493 453.6,0 478.8,287.4 479.4,489.3 0.4,-202.3 -13.7,-505.2 -479.4,-505.2 m -1676.1,583.7 c -24.1,12.5 -56.1,30.5 -65.7,43.7 -10.8,14.5 -16.2,59.5 -15,86.2 0.9,-26 6.1,-58.4 15,-70.3 9.7,-13.3 42.6,-31.7 66.8,-44.2 -0.4,-5.1 -0.8,-10.2 -1.1,-15.4"
       style="fill:#99a9b6;fill-opacity:1;fill-rule:nonzero;stroke:none"
       transform="matrix(0.13333333,0,0,-0.13333333,0,2800)" />
    <path
       id="path1078"
       d="m 13210.7,7302 c -0.8,2.1 -1.5,4.2 -2.2,6.3 3.8,14.7 6,33.5 6.6,49.8 0.7,-15.7 -0.8,-37.7 -4.4,-56.1"
       style="fill:#a3b0bc;fill-opacity:1;fill-rule:nonzero;stroke:none"
       transform="matrix(0.13333333,0,0,-0.13333333,0,2800)" />
    <path
       id="path1079"
       d="m 13134.5,7228.3 c -0.3,5.2 -0.8,10.3 -1.2,15.4 24.3,12.5 57.2,30.9 66.8,44.2 3.3,4.4 6.1,11.7 8.4,20.4 0.7,-2.1 1.4,-4.2 2.2,-6.3 -2.6,-12.9 -6.1,-24.1 -10.6,-30 -9.5,-13.2 -41.5,-31.2 -65.6,-43.7"
       style="fill:#99a9b6;fill-opacity:1;fill-rule:nonzero;stroke:none"
       transform="matrix(0.13333333,0,0,-0.13333333,0,2800)" />
    <path
       id="path1080"
       d="m 13210.4,7394.4 c -33.2,19.5 -117.7,59.2 -242.1,85.6 -127.8,26.9 -438.8,44.3 -716.6,-32.6 -90.4,-25 -302.6,-23.6 -389.2,0 -278.5,76 -588.9,59.5 -716.7,32.6 -124.3,-26.4 -208.9,-66.1 -242.1,-85.6 -9.4,-5.5 -4.9,-86.1 10.3,-106.5 9.7,-13.3 42.6,-31.7 66.8,-44.2 -0.9,-10.1 -1.6,-20.2 -1.6,-31.1 0,-198.3 -24.1,-552.1 479.1,-552.1 345.6,0 496.7,248.6 521.8,493 h 1.3 c 0,0 13.7,72.2 75.7,72.2 61.9,0 75.5,-72.2 75.5,-72.2 h 1.3 c 25.2,-244.4 176.3,-493 521.9,-493 503.3,0 479.2,353.8 479.2,552.1 0,10.9 -0.9,21 -1.7,31.1 24.3,12.5 57.2,30.9 66.8,44.2 15.2,20.4 19.7,101 10.3,106.5"
       style="fill:#133441;fill-opacity:1;fill-rule:nonzero;stroke:none"
       transform="matrix(0.13333333,0,0,-0.13333333,0,2800)" />
    <path
       id="path1081"
       d="m 11461.8,6723.5 c -426.2,0 -405.8,299.9 -405.8,467.8 0,184.2 145.6,232 420.2,232 274.4,0 431.4,-72.4 431.4,-218.8 0,-225.1 -123,-481 -445.8,-481"
       style="fill:#194556;fill-opacity:1;fill-rule:nonzero;stroke:none"
       transform="matrix(0.13333333,0,0,-0.13333333,0,2800)" />
    <path
       id="path1082"
       d="m 11254.7,7311.3 c 12.4,-28.8 -6.1,-64.3 -41.3,-79.4 -35.2,-15.2 -73.8,-4.1 -86.1,24.7 -12.4,28.7 6.1,64.3 41.3,79.4 35.2,15.1 73.7,4 86.1,-24.7"
       style="fill:#ffffff;fill-opacity:1;fill-rule:nonzero;stroke:none"
       transform="matrix(0.13333333,0,0,-0.13333333,0,2800)" />
    <path
       id="path1083"
       d="m 12652.2,6723.5 c -322.7,0 -445.7,255.9 -445.7,481 0,146.4 157.1,218.8 431.5,218.8 274.5,0 420.1,-47.8 420.1,-232 0,-167.9 20.4,-467.8 -405.9,-467.8"
       style="fill:#194556;fill-opacity:1;fill-rule:nonzero;stroke:none"
       transform="matrix(0.13333333,0,0,-0.13333333,0,2800)" />
    <path
       id="path1084"
       d="m 11108.4,6877.3 c -31.8,54.2 -44.5,116.5 -49.5,176.5 l 516.5,365.9 c 93.1,-7 168.3,-24.7 223.5,-53.1 l -690.5,-489.3"
       style="fill:#255565;fill-opacity:1;fill-rule:nonzero;stroke:none"
       transform="matrix(0.13333333,0,0,-0.13333333,0,2800)" />
    <path
       id="path1085"
       d="m 11423.3,6724.4 c -0.1,0 -0.1,0 -0.1,0 0,0 0,0 0.1,0 v 0 m -1.6,0.1 c -0.1,0 -0.2,0 -0.3,0 0.1,0 0.2,0 0.3,0 m -1.5,0 c -0.1,0.1 -0.2,0.1 -0.3,0.1 0.1,0 0.2,0 0.3,-0.1 m -3.4,0.2 c -0.1,0 -0.1,0 -0.2,0 0.1,0 0.2,0 0.2,0 m 490.8,472.5 c 0,0.1 0,0.3 0,0.4 0,-0.1 0,-0.3 0,-0.4 m 0,1.1 c 0,0.2 0,0.4 0,0.5 0,-0.1 0,-0.3 0,-0.5 m 0,1.2 c 0,0.2 0,0.4 0,0.6 0,-0.2 0,-0.4 0,-0.6 m 0,1.2 c 0,0.3 0,0.5 0,0.7 0,-0.2 0,-0.4 0,-0.7 m 0,1.3 c 0,0.2 0,0.5 0,0.8 0,-0.3 0,-0.6 0,-0.8 m 0,1.2 c 0,0.4 0,0.8 0,1.3 v 0 c 0,-0.5 0,-0.9 0,-1.3 m 0,1.3 c 0,0.2 0,0.5 0,0.7 0,-0.2 0,-0.5 0,-0.7 m 0,0.9 c 0,0.2 0,0.4 0,0.6 0,-0.2 0,-0.4 0,-0.6 m 0,0.8 c 0,0.3 0,0.5 0,0.7 0,-0.2 0,-0.4 0,-0.7 m 0,1 c 0,0.2 0,0.3 0,0.5 0,-0.2 0,-0.3 0,-0.5 m 0,0.8 c 0,0.2 0,0.3 0,0.4 0,-0.1 0,-0.2 0,-0.4 m 0,1.2 c 0,0 0,0.1 0,0.2 0,-0.1 0,-0.2 0,-0.2 m -0.1,0.7 c 0,0 0,0 0,0.1 v -0.1"
       style="fill:#1d4451;fill-opacity:1;fill-rule:nonzero;stroke:none"
       transform="matrix(0.13333333,0,0,-0.13333333,0,2800)" />
    <path
       id="path1086"
       d="m 11423.3,6724.4 c -0.1,0 -0.1,0 -0.1,0 -0.5,0 -1,0 -1.5,0.1 -0.1,0 -0.2,0 -0.3,0 -0.4,0 -0.8,0 -1.2,0 -0.1,0.1 -0.2,0.1 -0.3,0.1 -1.1,0 -2.1,0.1 -3.1,0.1 0,0 -0.1,0 -0.2,0 -137,7.5 -222,49.3 -274.8,107.2 l 707.3,501.2 c 37,-32.3 57.1,-73.3 58.4,-123.1 0,-0.1 0,-0.1 0,-0.1 0.1,-0.2 0.1,-0.4 0.1,-0.5 0,-0.1 0,-0.2 0,-0.2 0,-0.3 0,-0.6 0,-0.8 0,-0.1 0,-0.2 0,-0.4 0,-0.1 0,-0.2 0,-0.3 0,-0.2 0,-0.3 0,-0.5 0,-0.1 0,-0.2 0,-0.3 0,-0.2 0,-0.4 0,-0.7 0,0 0,-0.1 0,-0.2 0,-0.2 0,-0.4 0,-0.6 0,0 0,-0.1 0,-0.2 0,-0.2 0,-0.5 0,-0.7 v 0 c 0,-0.5 0,-0.9 0,-1.3 0,-0.1 0,-0.3 0,-0.4 0,-0.3 0,-0.6 0,-0.8 0,-0.2 0,-0.4 0,-0.6 0,-0.2 0,-0.4 0,-0.7 0,-0.2 0,-0.4 0,-0.6 0,-0.2 0,-0.4 0,-0.6 0,-0.2 0,-0.4 0,-0.7 0,-0.1 0,-0.3 0,-0.5 0,-0.2 0,-0.5 0,-0.7 0,-0.1 0,-0.3 0,-0.4 -0.6,-47.3 -6.6,-95.8 -18.7,-142.9 l -465.6,-329.9"
       style="fill:#255565;fill-opacity:1;fill-rule:nonzero;stroke:none"
       transform="matrix(0.13333333,0,0,-0.13333333,0,2800)" />
    <path
       id="path1087"
       d="m 12273.6,6932.3 c -29.4,52.5 -48.5,110.8 -58.5,170 l 452.7,320.7 c 104.1,-1.4 188.2,-10.7 251.3,-33.3 l -645.5,-457.4"
       style="fill:#255565;fill-opacity:1;fill-rule:nonzero;stroke:none"
       transform="matrix(0.13333333,0,0,-0.13333333,0,2800)" />
    <path
       id="path1088"
       d="m 13058.1,7186.1 c 0,0.1 0,0.3 0,0.4 0,-0.1 0,-0.3 0,-0.4 m 0,0.7 c 0,0.3 0,0.6 0,0.9 0,-0.3 0,-0.6 0,-0.9 m 0,1.2 c 0,0.3 0,0.6 0,1 0,-0.3 0,-0.7 0,-1 m 0,1.1 c 0,0.3 0,0.7 0,1 0,-0.3 0,-0.7 0,-1 m 0,1.1 c 0,0.3 0,0.7 0,1.1 0,-0.4 0,-0.8 0,-1.1 m 0,1.1 c 0,0.3 0,0.7 0,1 0,-0.3 0,-0.7 0,-1 m 0,1.3 c 0,0.2 0,0.5 0,0.7 0,-0.2 0,-0.5 0,-0.7 m 0,1.1 c 0,0.2 0,0.4 0,0.6 0,-0.2 0,-0.4 0,-0.6 m 0,1 c 0,0.2 0,0.4 0,0.6 0,-0.2 0,-0.4 0,-0.6 m 0,1.1 c 0,0.2 0,0.3 0,0.5 0,-0.2 0,-0.3 0,-0.5 m 0,1 c 0,0.2 0,0.4 0,0.6 0,-0.2 0,-0.4 0,-0.6 m 0,1 c 0,0.2 -0.1,0.5 -0.1,0.8 0,-0.3 0.1,-0.6 0.1,-0.8 m -0.1,1.5 c 0,0.1 0,0.2 0,0.4 0,-0.2 0,-0.3 0,-0.4 m 0,1 c 0,0.1 0,0.2 0,0.4 0,-0.2 0,-0.3 0,-0.4 m 0,1 c 0,0.1 0,0.2 0,0.3 0,-0.1 0,-0.2 0,-0.3 m -0.1,0.9 c 0,0.1 0,0.3 0,0.4 0,-0.1 0,-0.3 0,-0.4 m 0,1 c 0,0.1 0,0.2 0,0.2 0,0 0,-0.1 0,-0.2"
       style="fill:#1d4451;fill-opacity:1;fill-rule:nonzero;stroke:none"
       transform="matrix(0.13333333,0,0,-0.13333333,0,2800)" />
    <path
       id="path1089"
       d="m 12529.6,6737.6 c -99.8,24.3 -173.6,78.2 -225.2,147.4 l 672.4,476.5 c 51,-34 78.4,-84.6 81.1,-158.1 0,0 0,-0.1 0,-0.2 0,-0.2 0,-0.4 0,-0.6 0,-0.1 0,-0.3 0,-0.4 0,-0.2 0.1,-0.4 0.1,-0.6 0,-0.1 0,-0.2 0,-0.3 0,-0.2 0,-0.4 0,-0.6 0,-0.2 0,-0.3 0,-0.4 0,-0.2 0,-0.4 0,-0.6 0,-0.2 0,-0.3 0,-0.4 0,-0.3 0,-0.5 0,-0.7 0,-0.3 0.1,-0.6 0.1,-0.8 0,-0.2 0,-0.3 0,-0.4 0,-0.2 0,-0.4 0,-0.6 0,-0.2 0,-0.3 0,-0.5 0,-0.2 0,-0.3 0,-0.5 0,-0.2 0,-0.3 0,-0.5 0,-0.2 0,-0.4 0,-0.6 0,-0.1 0,-0.2 0,-0.4 0,-0.2 0,-0.4 0,-0.6 0,-0.1 0,-0.3 0,-0.4 0,-0.2 0,-0.5 0,-0.7 0,-0.1 0,-0.2 0,-0.3 0,-0.3 0,-0.7 0,-1 v 0 0 c 0,-0.4 0,-0.8 0,-1.1 v -0.1 c 0,-0.3 0,-0.7 0,-1 0,-0.1 0,-0.1 0,-0.1 0,-0.4 0,-0.7 0,-1 0,-0.1 0,-0.2 0,-0.3 0,-0.3 0,-0.6 0,-0.9 0,-0.1 0,-0.2 0,-0.3 0,-0.1 0,-0.3 0,-0.4 0.1,-22.8 0.4,-47.8 -0.1,-74.1 l -528.4,-374.4"
       style="fill:#255565;fill-opacity:1;fill-rule:nonzero;stroke:none"
       transform="matrix(0.13333333,0,0,-0.13333333,0,2800)" />
    <path
       id="path1090"
       d="m 12401.3,7311.3 c 12.4,-28.8 -6.1,-64.3 -41.3,-79.4 -35.2,-15.2 -73.8,-4.1 -86.1,24.7 -12.4,28.7 6.1,64.3 41.3,79.4 35.2,15.1 73.7,4 86.1,-24.7"
       style="fill:#ffffff;fill-opacity:1;fill-rule:nonzero;stroke:none"
       transform="matrix(0.13333333,0,0,-0.13333333,0,2800)" />
    <path
       id="path1091"
       d="m 12063.8,6482.8 c -167.4,0 -289.6,121.6 -291.3,123.5 -13.4,13.5 -13.2,35.4 0.4,48.6 6.7,6.6 15.4,9.9 24.1,9.9 8.9,0 17.8,-3.5 24.5,-10.3 6.1,-6.2 104.2,-102.8 239.5,-102.8 70,0 150,25.9 232.5,103.6 6.7,6.3 15.2,9.5 23.7,9.5 9.1,0 18.2,-3.7 24.9,-10.9 13.1,-13.7 12.5,-35.5 -1.4,-48.6 -97.4,-91.8 -192.9,-122.5 -276.9,-122.5"
       style="fill:#99a9b6;fill-opacity:1;fill-rule:nonzero;stroke:none"
       transform="matrix(0.13333333,0,0,-0.13333333,0,2800)" />
    <path
       id="path1092"
       d="m 12063.8,6486.4 c -167.4,0 -289.6,121.6 -291.3,123.5 -13.3,13.5 -13.2,35.3 0.4,48.6 13.5,13.3 35.3,13.2 48.6,-0.4 9.3,-9.4 230.2,-227.2 472,0.8 13.9,13.1 35.7,12.5 48.6,-1.4 13.1,-13.7 12.5,-35.5 -1.4,-48.6 -97.4,-91.8 -192.9,-122.5 -276.9,-122.5"
       style="fill:#133441;fill-opacity:1;fill-rule:nonzero;stroke:none"
       transform="matrix(0.13333333,0,0,-0.13333333,0,2800)" />
  </g>
</svg>
