<?xml version="1.0" encoding="UTF-8" standalone="no"?>
<!-- Created with Inkscape (http://www.inkscape.org/) -->

<svg
   width="501.12"
   height="314.16"
   viewBox="0 0 132.588 83.121501"
   version="1.1"
   id="svg1"
   inkscape:version="1.4.2 (f4327f4, 2025-05-13)"
   sodipodi:docname="cloud_smiling.svg"
   xmlns:inkscape="http://www.inkscape.org/namespaces/inkscape"
   xmlns:sodipodi="http://sodipodi.sourceforge.net/DTD/sodipodi-0.dtd"
   xmlns="http://www.w3.org/2000/svg"
   xmlns:svg="http://www.w3.org/2000/svg">
  <sodipodi:namedview
     id="namedview1"
     pagecolor="#ffffff"
     bordercolor="#000000"
     borderopacity="0.25"
     inkscape:showpageshadow="2"
     inkscape:pageopacity="0.0"
     inkscape:pagecheckerboard="0"
     inkscape:deskcolor="#d1d1d1"
     inkscape:document-units="mm"
     inkscape:zoom="0.68862935"
     inkscape:cx="280.26688"
     inkscape:cy="174.98528"
     inkscape:window-width="1920"
     inkscape:window-height="991"
     inkscape:window-x="-9"
     inkscape:window-y="-9"
     inkscape:window-maximized="1"
     inkscape:current-layer="svg1" />
  <defs
     id="defs1">
    <radialGradient
       fx="0"
       fy="0"
       cx="0"
       cy="0"
       r="1"
       gradientUnits="userSpaceOnUse"
       gradientTransform="matrix(0,479.576,479.576,0,20833,13377.3)"
       spreadMethod="pad"
       id="radialGradient1476">
      <stop
         style="stop-opacity:1;stop-color:#bd3e26"
         offset="0"
         id="stop1474" />
      <stop
         style="stop-opacity:1;stop-color:#bd3e26"
         offset="0.430359"
         id="stop1475" />
      <stop
         style="stop-opacity:1;stop-color:#8c2e1c"
         offset="1"
         id="stop1476" />
    </radialGradient>
    <clipPath
       clipPathUnits="userSpaceOnUse"
       id="clipPath1476">
      <path
         d="m 20471.8,13758.3 c 0,0 130.6,-91.9 340.8,-74 187.9,16 319,105 319,105 0,0 41.3,-247.5 -322.4,-266.3 -337.7,-17.5 -337.4,235.3 -337.4,235.3 z"
         id="path1476" />
    </clipPath>
  </defs>
  <g
     id="g3"
     style="display:inline"
     transform="matrix(0.26458333,0,0,0.26458333,-663.81839,-75.914266)">
    <path
       id="path18"
       d="m 21991.3,18035.8 c -127.6,531.3 -739.1,773.8 -1195,488.7 -145,196.3 -377.9,323.6 -640.6,323.6 -457.3,0 -825.5,-386.2 -793.8,-850.7 -308.8,-48.6 -545,-315.9 -545,-638.3 0,-464.5 475.8,-775.2 899.2,-594.9 263.3,-356.3 792.4,-364.4 1066.2,-15.6 295.1,-271.2 760.3,-235.9 1010.4,82.2 392.7,-111.4 782.6,183.7 782.6,591.2 0,329.2 -258.8,597.9 -584,613.8"
       style="fill:#758899;fill-opacity:1;fill-rule:nonzero;stroke:none"
       transform="matrix(0.13333333,0,0,-0.13333333,0,2800)" />
    <path
       id="path19"
       d="m 20255.3,16673.1 c -202.8,0 -405.3,91.2 -539.2,272.3 -83.3,-35.5 -168.7,-52 -252.1,-52 -179.2,0 -349.1,76 -469.7,202.4 -50.9,84.6 -80.6,183.6 -80.6,291.8 0,292.9 224,535.6 516.9,579.8 -30,421.9 319.2,772.7 752.9,772.7 249.2,0 470.1,-115.7 607.6,-294 125,74.9 262.3,109.7 397.4,109.7 332,0 650,-210.5 736.1,-553.5 308.4,-14.5 553.9,-258.6 553.9,-557.6 0,-93.5 -23.6,-180.5 -64.9,-256.7 -113.9,-123.8 -276.8,-199.7 -452,-199.7 -55.5,0 -112.2,7.6 -168.9,23.8 -137.5,-174.9 -340,-264.3 -543.5,-264.3 -166.7,0 -334,60 -466.9,182.1 -134.6,-171.5 -330.9,-256.8 -527,-256.8 m 265.7,742.1 c -8.7,0 -17.4,-3.3 -24.1,-9.8 -13.5,-13.3 -13.8,-35.1 -0.4,-48.7 1.7,-1.9 123.9,-123.4 291.3,-123.4 84.1,0 179.6,30.6 276.9,122.5 13.9,13 14.5,34.8 1.5,48.6 -6.8,7.2 -15.9,10.8 -25,10.8 -8.5,0 -17,-3.1 -23.6,-9.4 -82.5,-77.8 -162.6,-103.7 -232.6,-103.7 -135.3,0 -233.3,96.7 -239.5,102.9 -6.7,6.8 -15.6,10.2 -24.5,10.2 m 862.7,356.5 c -67,0 -121.3,-54.3 -121.3,-121.3 0,-67 54.3,-121.4 121.3,-121.4 67,0 121.4,54.4 121.4,121.4 0,67 -54.4,121.3 -121.4,121.3 m -1205.1,0 c -67.2,0 -121.5,-54.3 -121.5,-121.3 0,-67 54.3,-121.4 121.5,-121.4 66.9,0 121.3,54.4 121.3,121.4 0,67 -54.4,121.3 -121.3,121.3"
       style="fill:#687e92;fill-opacity:1;fill-rule:nonzero;stroke:none"
       transform="matrix(0.13333333,0,0,-0.13333333,0,2800)" />
    <path
       id="path20"
       d="m 19721.8,18545.8 c 40.8,-37.7 20,-126.5 -46.4,-198.4 -66.4,-72 -153.3,-99.7 -194.1,-62.1 -40.8,37.7 -20,126.5 46.4,198.5 66.4,71.9 153.3,99.6 194.1,62"
       style="fill:#a9bece;fill-opacity:1;fill-rule:nonzero;stroke:none"
       transform="matrix(0.13333333,0,0,-0.13333333,0,2800)" />
    <path
       id="path21"
       d="m 19266.5,17841.1 c 15.5,-28.4 -12.5,-73.7 -62.7,-101 -50.1,-27.4 -103.3,-26.6 -118.8,1.8 -15.6,28.5 12.5,73.7 62.6,101.1 50.1,27.4 103.3,26.5 118.9,-1.9"
       style="fill:#a9bece;fill-opacity:1;fill-rule:nonzero;stroke:none"
       transform="matrix(0.13333333,0,0,-0.13333333,0,2800)" />
    <path
       id="path22"
       d="m 21093.7,18564.2 c 16.3,-28.1 -10.2,-73.8 -59,-102.1 -48.8,-28.2 -101.6,-28.4 -117.8,-0.4 -16.2,28.1 10.2,73.7 59,102 48.8,28.3 101.6,28.5 117.8,0.5"
       style="fill:#a9bece;fill-opacity:1;fill-rule:nonzero;stroke:none"
       transform="matrix(0.13333333,0,0,-0.13333333,0,2800)" />
    <path
       id="path23"
       d="m 18816.9,17359.1 c 0,0.5 0,1.1 0,1.7 0,-0.6 0,-1.2 0,-1.7 m 0,2.2 c 0,0.4 0,0.8 0,1.1 0,-0.3 0,-0.7 0,-1.1 m 0,1.9 c 0,0.2 0,0.6 0,0.9 0,-0.3 0,-0.7 0,-0.9 m 3758.4,58.8 c 0,0.6 0,1.1 0,1.7 0,-0.6 0,-1.1 0,-1.7 m 0,2.2 c 0,0.4 0,0.9 0,1.3 0,-0.4 0,-0.9 0,-1.3 m 0,1.9 c 0,0.4 0,0.9 0,1.4 0,-0.5 0,-1 0,-1.4 m 0,1.9 c 0,0.5 0,0.9 0,1.4 0,-0.5 0,-0.9 0,-1.4 m 0,2.2 c 0,0.3 0,0.6 0,0.9 0,-0.3 0,-0.6 0,-0.9 m 0,1.8 c -0.1,0.2 -0.1,0.4 -0.1,0.6 0,-0.2 0,-0.4 0.1,-0.6 m -0.1,4.5 v 0 0"
       style="fill:#11303e;fill-opacity:1;fill-rule:nonzero;stroke:none"
       transform="matrix(0.13333333,0,0,-0.13333333,0,2800)" />
    <path
       id="path24"
       d="m 20255.3,16491.9 c -202.8,0 -405.3,91.2 -539.2,272.3 -83.4,-35.5 -168.7,-52 -252.2,-52 -340.1,0 -647,273.9 -647,646.9 v 0 c 0,0.5 0,1.1 0,1.7 0,0.1 0,0.4 0,0.5 0,0.4 0,0.8 0,1.1 0,0.3 0,0.5 0,0.8 0,0.2 0,0.6 0,0.9 0.3,29 2.4,57.6 6.3,85.6 19.2,-138.8 81.6,-260.2 171.1,-353.9 108.4,-180.5 313.5,-295.8 533.1,-295.8 79.1,0 160.1,15 239.2,47.2 126.9,-164.5 319.1,-247.3 511.4,-247.3 186,0 372.2,77.5 499.9,233.2 126,-110.9 284.7,-165.3 442.8,-165.3 193,0 385.1,81.1 515.5,240 53.8,-14.6 107.7,-21.6 160.3,-21.6 219.4,0 418.5,120.1 517.1,301.8 80.7,87.7 136.7,199.4 155,325.2 3.7,-25.1 6,-50.7 6.6,-76.7 v 0 c 0,-1.3 0,-2.6 0,-3.9 0,-0.2 0,-0.4 0.1,-0.6 0,-0.3 0,-0.6 0,-0.9 0,-0.3 0,-0.6 0,-0.9 0,-0.3 0,-0.5 0,-0.8 0,-0.5 0,-0.9 0,-1.4 0,-0.2 0,-0.4 0,-0.5 0,-0.5 0,-1 0,-1.4 0,-0.2 0,-0.4 0,-0.6 0,-0.4 0,-0.9 0,-1.3 0,-0.1 0,-0.3 0,-0.5 0,-0.6 0,-1.1 0,-1.7 v 0 c 0,-348.6 -285.3,-614.9 -613.6,-614.9 -55.5,0 -112.3,7.6 -169,23.7 -137.5,-174.9 -340,-264.2 -543.5,-264.2 -166.6,0 -334,59.9 -466.9,182 -134.6,-171.5 -330.9,-256.7 -527,-256.7"
       style="fill:#687e92;fill-opacity:1;fill-rule:nonzero;stroke:none"
       transform="matrix(0.13333333,0,0,-0.13333333,0,2800)" />
    <path
       id="path25"
       d="m 20278,16599.9 c -192.3,0 -384.5,82.8 -511.4,247.3 -79.1,-32.2 -160.1,-47.2 -239.2,-47.2 -219.6,0 -424.7,115.3 -533.1,295.8 120.6,-126.4 290.5,-202.4 469.7,-202.4 83.4,0 168.8,16.5 252.1,52 133.9,-181.1 336.4,-272.3 539.2,-272.3 196.1,0 392.4,85.3 527,256.8 132.9,-122.1 300.2,-182.1 466.9,-182.1 203.5,0 406,89.4 543.5,264.3 56.7,-16.2 113.4,-23.8 168.9,-23.8 175.2,0 338.1,75.9 452,199.7 -98.6,-181.7 -297.7,-301.8 -517.1,-301.8 -52.6,0 -106.5,7 -160.3,21.6 -130.4,-158.9 -322.5,-240 -515.5,-240 -158.1,0 -316.8,54.4 -442.8,165.3 -127.7,-155.7 -313.9,-233.2 -499.9,-233.2"
       style="fill:#5c758b;fill-opacity:1;fill-rule:nonzero;stroke:none"
       transform="matrix(0.13333333,0,0,-0.13333333,0,2800)" />
    <path
       id="path26"
       d="m 20738.6,16885.9 c -124.1,-17.1 -232.8,27 -242.7,98.7 -9.9,71.7 99.9,55.6 224,72.8 124.2,17.2 215.6,61.1 225.6,-10.5 9.9,-71.7 -82.7,-143.8 -206.9,-161"
       style="fill:#687e92;fill-opacity:1;fill-rule:nonzero;stroke:none"
       transform="matrix(0.13333333,0,0,-0.13333333,0,2800)" />
    <path
       id="path27"
       d="m 21383.7,17529 c -67,0 -121.3,54.4 -121.3,121.4 0,67 54.3,121.3 121.3,121.3 67,0 121.4,-54.3 121.4,-121.3 0,-67 -54.4,-121.4 -121.4,-121.4"
       style="fill:#99a9b6;fill-opacity:1;fill-rule:nonzero;stroke:none"
       transform="matrix(0.13333333,0,0,-0.13333333,0,2800)" />
    <path
       id="path28"
       d="m 20178.6,17529 c -67.2,0 -121.5,54.4 -121.5,121.4 0,67 54.3,121.3 121.5,121.3 66.9,0 121.3,-54.3 121.3,-121.3 0,-67 -54.4,-121.4 -121.3,-121.4"
       style="fill:#99a9b6;fill-opacity:1;fill-rule:nonzero;stroke:none"
       transform="matrix(0.13333333,0,0,-0.13333333,0,2800)" />
    <path
       id="path29"
       d="m 21505.1,17655.6 c 0,-67 -54.4,-121.4 -121.4,-121.4 -67,0 -121.3,54.4 -121.3,121.4 0,67.1 54.3,121.3 121.3,121.3 67,0 121.4,-54.2 121.4,-121.3"
       style="fill:#133441;fill-opacity:1;fill-rule:nonzero;stroke:none"
       transform="matrix(0.13333333,0,0,-0.13333333,0,2800)" />
    <path
       id="path30"
       d="m 20299.9,17655.6 c 0,-67 -54.4,-121.4 -121.3,-121.4 -67.2,0 -121.5,54.4 -121.5,121.4 0,67.1 54.3,121.3 121.5,121.3 66.9,0 121.3,-54.2 121.3,-121.3"
       style="fill:#133441;fill-opacity:1;fill-rule:nonzero;stroke:none"
       transform="matrix(0.13333333,0,0,-0.13333333,0,2800)" />
    <path
       id="path31"
       d="m 20787.8,17233.3 c -167.4,0 -289.6,121.5 -291.3,123.4 -13.4,13.6 -13.1,35.4 0.4,48.7 6.7,6.5 15.4,9.8 24.1,9.8 8.9,0 17.8,-3.4 24.5,-10.2 6.2,-6.2 104.2,-102.9 239.5,-102.9 70,0 150.1,25.9 232.6,103.7 6.6,6.3 15.1,9.4 23.6,9.4 9.1,0 18.2,-3.6 25,-10.8 13,-13.8 12.4,-35.6 -1.5,-48.6 -97.3,-91.9 -192.8,-122.5 -276.9,-122.5"
       style="fill:#99a9b6;fill-opacity:1;fill-rule:nonzero;stroke:none"
       transform="matrix(0.13333333,0,0,-0.13333333,0,2800)" />
    <path
       id="path32"
       d="m 20787.8,17236.8 c -167.4,0 -289.6,121.6 -291.3,123.5 -13.4,13.6 -13.1,35.4 0.4,48.7 13.5,13.3 35.3,13.1 48.6,-0.4 9.3,-9.4 230.3,-227.2 472.1,0.8 13.8,13.1 35.5,12.5 48.6,-1.4 13,-13.8 12.4,-35.6 -1.5,-48.6 -97.3,-91.9 -192.8,-122.6 -276.9,-122.6"
       style="fill:#133441;fill-opacity:1;fill-rule:nonzero;stroke:none"
       transform="matrix(0.13333333,0,0,-0.13333333,0,2800)" />
  </g>
</svg>
