<?xml version="1.0" encoding="UTF-8" standalone="no"?>
<!-- Created with Inkscape (http://www.inkscape.org/) -->

<svg
   width="132.58835mm"
   height="83.121498mm"
   viewBox="0 0 132.58835 83.121498"
   version="1.1"
   id="svg1"
   inkscape:version="1.4.2 (f4327f4, 2025-05-13)"
   sodipodi:docname="cloud_winking.svg"
   xmlns:inkscape="http://www.inkscape.org/namespaces/inkscape"
   xmlns:sodipodi="http://sodipodi.sourceforge.net/DTD/sodipodi-0.dtd"
   xmlns="http://www.w3.org/2000/svg"
   xmlns:svg="http://www.w3.org/2000/svg">
  <sodipodi:namedview
     id="namedview1"
     pagecolor="#ffffff"
     bordercolor="#000000"
     borderopacity="0.25"
     inkscape:showpageshadow="2"
     inkscape:pageopacity="0.0"
     inkscape:pagecheckerboard="0"
     inkscape:deskcolor="#d1d1d1"
     inkscape:document-units="mm"
     inkscape:zoom="0.68862935"
     inkscape:cx="289.70592"
     inkscape:cy="196.76768"
     inkscape:window-width="1920"
     inkscape:window-height="991"
     inkscape:window-x="-9"
     inkscape:window-y="-9"
     inkscape:window-maximized="1"
     inkscape:current-layer="svg1" />
  <defs
     id="defs1">
    <radialGradient
       fx="0"
       fy="0"
       cx="0"
       cy="0"
       r="1"
       gradientUnits="userSpaceOnUse"
       gradientTransform="matrix(0,479.576,479.576,0,20833,13377.3)"
       spreadMethod="pad"
       id="radialGradient1476">
      <stop
         style="stop-opacity:1;stop-color:#bd3e26"
         offset="0"
         id="stop1474" />
      <stop
         style="stop-opacity:1;stop-color:#bd3e26"
         offset="0.430359"
         id="stop1475" />
      <stop
         style="stop-opacity:1;stop-color:#8c2e1c"
         offset="1"
         id="stop1476" />
    </radialGradient>
    <clipPath
       clipPathUnits="userSpaceOnUse"
       id="clipPath1476">
      <path
         d="m 20471.8,13758.3 c 0,0 130.6,-91.9 340.8,-74 187.9,16 319,105 319,105 0,0 41.3,-247.5 -322.4,-266.3 -337.7,-17.5 -337.4,235.3 -337.4,235.3 z"
         id="path1476" />
    </clipPath>
  </defs>
  <g
     id="g18"
     style="display:inline"
     transform="matrix(0.26458333,0,0,0.26458333,-203.64908,-331.32537)">
    <path
       id="path1054"
       d="m 8947.08,10795.8 c -127.61,531.3 -739.11,773.8 -1195.01,488.7 -144.94,196.3 -377.85,323.6 -640.57,323.6 -457.29,0 -825.48,-386.2 -793.82,-850.7 -308.79,-48.6 -544.95,-315.9 -544.95,-638.3 0,-464.5 475.73,-775.2 899.21,-594.9 263.24,-356.3 792.36,-364.4 1066.19,-15.6 295.1,-271.2 760.26,-235.9 1010.33,82.2 392.7,-111.4 782.68,183.7 782.68,591.2 0,329.2 -258.82,597.9 -584.06,613.8"
       style="fill:#758899;fill-opacity:1;fill-rule:nonzero;stroke:none"
       transform="matrix(0.13333333,0,0,-0.13333333,0,2800)" />
    <path
       id="path1055"
       d="m 7211.11,9433.1 c -202.8,0 -405.33,91.2 -539.17,272.3 -83.38,-35.5 -168.78,-52 -252.16,-52 -179.15,0 -349.04,76 -469.72,202.4 -50.87,84.7 -80.53,183.6 -80.53,291.8 0,292.9 223.99,535.6 516.88,579.8 -30.03,421.9 319.19,772.7 752.93,772.7 249.18,0 470.09,-115.7 607.57,-294 125.02,74.9 262.34,109.7 397.38,109.7 332.01,0 650.03,-210.5 736.07,-553.5 308.49,-14.5 553.98,-258.6 553.98,-557.6 0,-93.5 -23.62,-180.5 -64.94,-256.7 -113.85,-123.8 -276.76,-199.7 -451.96,-199.7 -55.49,0 -112.2,7.6 -168.98,23.8 -137.47,-174.9 -339.97,-264.3 -543.46,-264.3 -166.66,0 -334,59.9 -466.87,182.1 -134.61,-171.5 -330.94,-256.8 -527.02,-256.8 m 220.33,890.5 c -8.68,0 -17.38,-3.3 -24.07,-9.9 -13.59,-13.3 -13.78,-35.1 -0.51,-48.7 1.82,-1.8 123.98,-123.4 291.41,-123.4 84.04,0 179.56,30.7 276.95,122.5 13.8,13 14.46,34.8 1.42,48.6 -6.78,7.2 -15.92,10.9 -25.08,10.9 -8.46,0 -16.94,-3.1 -23.59,-9.4 -82.5,-77.8 -162.55,-103.7 -232.62,-103.7 -135.26,0 -233.26,96.6 -239.41,102.8 -6.72,6.8 -15.6,10.3 -24.5,10.3 m -338.96,437.8 c -67.1,0 -121.41,-54.3 -121.41,-121.3 0,-67.1 54.31,-121.5 121.41,-121.5 67.01,0 121.37,54.4 121.37,121.5 0,67 -54.36,121.3 -121.37,121.3"
       style="fill:#687e92;fill-opacity:1;fill-rule:nonzero;stroke:none"
       transform="matrix(0.13333333,0,0,-0.13333333,0,2800)" />
    <path
       id="path1056"
       d="m 6677.6,11305.8 c 40.79,-37.7 20.02,-126.5 -46.4,-198.4 -66.42,-72 -153.33,-99.7 -194.12,-62.1 -40.79,37.7 -20.01,126.5 46.4,198.5 66.42,71.9 153.33,99.6 194.12,62"
       style="fill:#a9bece;fill-opacity:1;fill-rule:nonzero;stroke:none"
       transform="matrix(0.13333333,0,0,-0.13333333,0,2800)" />
    <path
       id="path1057"
       d="m 6222.26,10601.1 c 15.53,-28.4 -12.5,-73.7 -62.62,-101 -50.11,-27.4 -103.32,-26.6 -118.86,1.8 -15.53,28.4 12.5,73.7 62.61,101.1 50.12,27.4 103.33,26.5 118.87,-1.9"
       style="fill:#a9bece;fill-opacity:1;fill-rule:nonzero;stroke:none"
       transform="matrix(0.13333333,0,0,-0.13333333,0,2800)" />
    <path
       id="path1058"
       d="m 8049.52,11324.2 c 16.24,-28.1 -10.17,-73.8 -59,-102.1 -48.82,-28.2 -101.56,-28.4 -117.8,-0.4 -16.24,28.1 10.18,73.7 59,102 48.82,28.3 101.57,28.5 117.8,0.5"
       style="fill:#a9bece;fill-opacity:1;fill-rule:nonzero;stroke:none"
       transform="matrix(0.13333333,0,0,-0.13333333,0,2800)" />
    <path
       id="path1059"
       d="m 5772.73,10119.1 c 0,0.5 0,1.1 0,1.7 0,-0.6 0,-1.2 0,-1.7 m 0.01,2.3 c 0,0.3 0,0.7 0,1 0,-0.3 0,-0.7 0,-1 m 0,1.8 c 0.01,0.2 0.01,0.5 0.01,0.8 0,-0.3 0,-0.6 -0.01,-0.8 m 3758.4,58.8 c 0,0.6 -0.01,1.1 -0.01,1.7 0,-0.6 0.01,-1.1 0.01,-1.7 m -0.01,2.2 c 0,0.5 0,0.9 0,1.3 0,-0.4 0,-0.9 0,-1.3 m -0.01,1.8 c 0,0.6 0,1.1 -0.01,1.6 0.01,-0.5 0.01,-1 0.01,-1.6 m -0.01,1.8 c -0.01,0.5 -0.01,1.1 -0.02,1.7 0.01,-0.6 0.01,-1.2 0.02,-1.7 m -0.03,2.3 c 0,0.4 -0.01,0.7 -0.01,1.1 0,-0.4 0.01,-0.7 0.01,-1.1 m -0.02,1.8 c -0.01,0.4 -0.02,0.8 -0.02,1.1 0,-0.3 0.01,-0.7 0.02,-1.1 m -0.04,2.1 c -0.01,0.4 -0.01,0.7 -0.02,1.1 0.01,-0.3 0.01,-0.7 0.02,-1.1 m -0.04,2 c -0.01,0.3 -0.01,0.5 -0.02,0.8 0.01,-0.3 0.01,-0.5 0.02,-0.8 m -0.04,1.8 c -0.01,0.2 -0.01,0.4 -0.02,0.6 0.01,-0.2 0.01,-0.4 0.02,-0.6 m -0.13,4.3 c 0,0.1 0,0.2 -0.01,0.3 0.01,-0.1 0.01,-0.2 0.01,-0.3"
       style="fill:#11303e;fill-opacity:1;fill-rule:nonzero;stroke:none"
       transform="matrix(0.13333333,0,0,-0.13333333,0,2800)" />
    <path
       id="path1060"
       d="m 7211.1,9251.9 c -202.77,0 -405.34,91.2 -539.16,272.3 -83.41,-35.5 -168.78,-52 -252.21,-52 -340.15,0 -647,273.9 -647,646.9 v 0 c 0,0.5 0,1.1 0,1.7 0,0.2 0.01,0.4 0.01,0.6 0,0.3 0,0.7 0,1 0,0.3 0,0.5 0,0.8 0.01,0.2 0.01,0.5 0.01,0.8 0.22,29 2.38,57.6 6.31,85.6 19.14,-138.7 81.55,-260.1 171,-353.8 108.48,-180.5 313.51,-295.8 533.14,-295.8 79.13,0 160.11,15 239.22,47.2 126.93,-164.5 319.06,-247.3 511.39,-247.3 186.01,0 372.19,77.4 499.88,233.2 126.01,-110.9 284.76,-165.4 442.82,-165.4 193.03,0 385.06,81.2 515.47,240.1 53.85,-14.6 107.69,-21.6 160.33,-21.6 219.39,0 418.54,120.1 517.09,301.8 80.66,87.7 136.7,199.4 155.01,325.2 3.45,-23.2 5.61,-46.8 6.39,-70.8 0.01,-0.1 0.01,-0.2 0.01,-0.3 0.04,-1.3 0.08,-2.5 0.11,-3.7 0.01,-0.2 0.01,-0.4 0.02,-0.6 0,-0.3 0.01,-0.7 0.02,-1 0.01,-0.3 0.01,-0.5 0.02,-0.8 0,-0.3 0.01,-0.6 0.02,-0.9 0.01,-0.4 0.01,-0.7 0.02,-1.1 0.01,-0.3 0.01,-0.7 0.02,-1 0,-0.3 0.01,-0.7 0.02,-1.1 0,-0.2 0,-0.5 0.01,-0.7 0,-0.4 0.01,-0.7 0.01,-1.1 0.01,-0.2 0.01,-0.4 0.01,-0.6 0.01,-0.6 0.01,-1.2 0.02,-1.7 0,-0.1 0,-0.1 0,-0.2 0.01,-0.5 0.01,-1 0.01,-1.6 0,-0.1 0,-0.3 0.01,-0.5 0,-0.4 0,-0.8 0,-1.3 0,-0.2 0,-0.3 0,-0.5 0,-0.6 0.01,-1.1 0.01,-1.7 v 0 c 0,-348.6 -285.32,-614.9 -613.64,-614.9 -55.5,0 -112.26,7.6 -169.04,23.7 -137.49,-174.9 -339.94,-264.3 -543.46,-264.3 -166.64,0 -334.02,60 -466.87,182.1 -134.62,-171.5 -330.92,-256.7 -527.03,-256.7"
       style="fill:#687e92;fill-opacity:1;fill-rule:nonzero;stroke:none"
       transform="matrix(0.13333333,0,0,-0.13333333,0,2800)" />
    <path
       id="path1061"
       d="m 7233.81,9359.9 c -192.33,0 -384.46,82.8 -511.39,247.3 -79.11,-32.2 -160.09,-47.2 -239.22,-47.2 -219.63,0 -424.66,115.3 -533.14,295.8 120.68,-126.4 290.57,-202.4 469.72,-202.4 83.38,0 168.78,16.5 252.16,52 133.84,-181.1 336.37,-272.3 539.17,-272.3 196.08,0 392.41,85.3 527.02,256.8 132.87,-122.2 300.21,-182.1 466.87,-182.1 203.49,0 405.99,89.4 543.46,264.3 56.78,-16.2 113.49,-23.8 168.98,-23.8 175.2,0 338.11,75.9 451.96,199.7 -98.55,-181.7 -297.7,-301.8 -517.09,-301.8 -52.64,0 -106.48,7 -160.33,21.6 -130.41,-158.9 -322.44,-240.1 -515.47,-240.1 -158.06,0 -316.81,54.5 -442.82,165.4 C 7606,9437.3 7419.82,9359.9 7233.81,9359.9"
       style="fill:#5c758b;fill-opacity:1;fill-rule:nonzero;stroke:none"
       transform="matrix(0.13333333,0,0,-0.13333333,0,2800)" />
    <path
       id="path1062"
       d="m 7694.45,9645.9 c -124.15,-17.1 -232.83,27 -242.75,98.7 -9.93,71.7 99.88,55.6 224.03,72.8 124.14,17.2 215.62,61.1 225.54,-10.5 9.92,-71.7 -82.68,-143.8 -206.82,-161"
       style="fill:#687e92;fill-opacity:1;fill-rule:nonzero;stroke:none"
       transform="matrix(0.13333333,0,0,-0.13333333,0,2800)" />
    <path
       id="path1063"
       d="m 8346.59,10641.6 120.14,58.5 -42.66,112.9 -329.79,-174.4 323.03,-179.5 53.32,111.6 -124.04,70.9"
       style="fill:#133441;fill-opacity:1;fill-rule:nonzero;stroke:none"
       transform="matrix(0.13333333,0,0,-0.13333333,0,2800)" />
    <path
       id="path1064"
       d="m 7092.48,10518.6 c -67.1,0 -121.41,54.4 -121.41,121.5 0,67 54.31,121.3 121.41,121.3 67.01,0 121.37,-54.3 121.37,-121.3 0,-67.1 -54.36,-121.5 -121.37,-121.5"
       style="fill:#99a9b6;fill-opacity:1;fill-rule:nonzero;stroke:none"
       transform="matrix(0.13333333,0,0,-0.13333333,0,2800)" />
    <path
       id="path1065"
       d="m 7213.85,10646.5 c 0,-67.1 -54.36,-121.5 -121.37,-121.5 -67.1,0 -121.41,54.4 -121.41,121.5 0,67 54.31,121.3 121.41,121.3 67.01,0 121.37,-54.3 121.37,-121.3"
       style="fill:#133441;fill-opacity:1;fill-rule:nonzero;stroke:none"
       transform="matrix(0.13333333,0,0,-0.13333333,0,2800)" />
    <path
       id="path1066"
       d="m 7698.27,10141.6 c -167.43,0 -289.59,121.6 -291.41,123.4 -13.27,13.6 -13.08,35.4 0.51,48.7 6.69,6.6 15.39,9.9 24.07,9.9 8.9,0 17.78,-3.5 24.5,-10.3 6.15,-6.2 104.15,-102.8 239.41,-102.8 70.07,0 150.12,25.9 232.62,103.7 6.65,6.3 15.13,9.4 23.59,9.4 9.16,0 18.3,-3.7 25.08,-10.9 13.04,-13.8 12.38,-35.6 -1.42,-48.6 -97.39,-91.8 -192.91,-122.5 -276.95,-122.5"
       style="fill:#99a9b6;fill-opacity:1;fill-rule:nonzero;stroke:none"
       transform="matrix(0.13333333,0,0,-0.13333333,0,2800)" />
    <path
       id="path1067"
       d="m 7698.27,10145.2 c -167.43,0 -289.59,121.6 -291.41,123.4 -13.28,13.6 -13.08,35.4 0.51,48.7 13.53,13.3 35.28,13.1 48.58,-0.4 9.32,-9.4 230.25,-227.2 472.02,0.9 13.85,13 35.62,12.4 48.67,-1.5 13.04,-13.8 12.38,-35.6 -1.42,-48.6 -97.39,-91.8 -192.91,-122.5 -276.95,-122.5"
       style="fill:#133441;fill-opacity:1;fill-rule:nonzero;stroke:none"
       transform="matrix(0.13333333,0,0,-0.13333333,0,2800)" />
  </g>
</svg>
