<?xml version="1.0" encoding="UTF-8"?>
<!-- Created with Inkscape (http://www.inkscape.org/) -->
<svg width="501.12" height="314.16" version="1.1" viewBox="0 0 132.588 83.121501" xmlns="http://www.w3.org/2000/svg">
 <g transform="matrix(.26458333 0 0 .26458333 -663.81839 -75.914266)">
  <path transform="matrix(.13333333 0 0 -.13333333 0 2800)" d="m21991.3 18035.8c-127.6 531.3-739.1 773.8-1195 488.7-145 196.3-377.9 323.6-640.6 323.6-457.3 0-825.5-386.2-793.8-850.7-308.8-48.6-545-315.9-545-638.3 0-464.5 475.8-775.2 899.2-594.9 263.3-356.3 792.4-364.4 1066.2-15.6 295.1-271.2 760.3-235.9 1010.4 82.2 392.7-111.4 782.6 183.7 782.6 591.2 0 329.2-258.8 597.9-584 613.8" fill="#758899"/>
  <path transform="matrix(.13333333 0 0 -.13333333 0 2800)" d="m20255.3 16673.1c-202.8 0-405.3 91.2-539.2 272.3-83.3-35.5-168.7-52-252.1-52-179.2 0-349.1 76-469.7 202.4-50.9 84.6-80.6 183.6-80.6 291.8 0 292.9 224 535.6 516.9 579.8-30 421.9 319.2 772.7 752.9 772.7 249.2 0 470.1-115.7 607.6-294 125 74.9 262.3 109.7 397.4 109.7 332 0 650-210.5 736.1-553.5 308.4-14.5 553.9-258.6 553.9-557.6 0-93.5-23.6-180.5-64.9-256.7-113.9-123.8-276.8-199.7-452-199.7-55.5 0-112.2 7.6-168.9 23.8-137.5-174.9-340-264.3-543.5-264.3-166.7 0-334 60-466.9 182.1-134.6-171.5-330.9-256.8-527-256.8m265.7 742.1c-8.7 0-17.4-3.3-24.1-9.8-13.5-13.3-13.8-35.1-0.4-48.7 1.7-1.9 123.9-123.4 291.3-123.4 84.1 0 179.6 30.6 276.9 122.5 13.9 13 14.5 34.8 1.5 48.6-6.8 7.2-15.9 10.8-25 10.8-8.5 0-17-3.1-23.6-9.4-82.5-77.8-162.6-103.7-232.6-103.7-135.3 0-233.3 96.7-239.5 102.9-6.7 6.8-15.6 10.2-24.5 10.2m862.7 356.5c-67 0-121.3-54.3-121.3-121.3s54.3-121.4 121.3-121.4 121.4 54.4 121.4 121.4-54.4 121.3-121.4 121.3m-1205.1 0c-67.2 0-121.5-54.3-121.5-121.3s54.3-121.4 121.5-121.4c66.9 0 121.3 54.4 121.3 121.4s-54.4 121.3-121.3 121.3" fill="#687e92"/>
  <g fill="#a9bece">
   <path transform="matrix(.13333333 0 0 -.13333333 0 2800)" d="m19721.8 18545.8c40.8-37.7 20-126.5-46.4-198.4-66.4-72-153.3-99.7-194.1-62.1-40.8 37.7-20 126.5 46.4 198.5 66.4 71.9 153.3 99.6 194.1 62"/>
   <path transform="matrix(.13333333 0 0 -.13333333 0 2800)" d="m19266.5 17841.1c15.5-28.4-12.5-73.7-62.7-101-50.1-27.4-103.3-26.6-118.8 1.8-15.6 28.5 12.5 73.7 62.6 101.1s103.3 26.5 118.9-1.9"/>
   <path transform="matrix(.13333333 0 0 -.13333333 0 2800)" d="m21093.7 18564.2c16.3-28.1-10.2-73.8-59-102.1-48.8-28.2-101.6-28.4-117.8-0.4-16.2 28.1 10.2 73.7 59 102s101.6 28.5 117.8 0.5"/>
  </g>
  <path transform="matrix(.13333333 0 0 -.13333333 0 2800)" d="m18816.9 17359.1v1.7-1.7m0 2.2v1.1-1.1m0 1.9v0.9-0.9m3758.4 58.8v1.7-1.7m0 2.2v1.3-1.3m0 1.9v1.4-1.4m0 1.9v1.4-1.4m0 2.2v0.9-0.9m0 1.8c-0.1 0.2-0.1 0.4-0.1 0.6 0-0.2 0-0.4 0.1-0.6m-0.1 4.5" fill="#11303e"/>
  <path transform="matrix(.13333333 0 0 -.13333333 0 2800)" d="m20255.3 16491.9c-202.8 0-405.3 91.2-539.2 272.3-83.4-35.5-168.7-52-252.2-52-340.1 0-647 273.9-647 646.9v1.7 0.5 1.1 0.8 0.9c0.3 29 2.4 57.6 6.3 85.6 19.2-138.8 81.6-260.2 171.1-353.9 108.4-180.5 313.5-295.8 533.1-295.8 79.1 0 160.1 15 239.2 47.2 126.9-164.5 319.1-247.3 511.4-247.3 186 0 372.2 77.5 499.9 233.2 126-110.9 284.7-165.3 442.8-165.3 193 0 385.1 81.1 515.5 240 53.8-14.6 107.7-21.6 160.3-21.6 219.4 0 418.5 120.1 517.1 301.8 80.7 87.7 136.7 199.4 155 325.2 3.7-25.1 6-50.7 6.6-76.7v-3.9c0-0.2 0-0.4 0.1-0.6v-0.9-0.9-0.8-1.4-0.5-1.4-0.6-1.3-0.5-1.7c0-348.6-285.3-614.9-613.6-614.9-55.5 0-112.3 7.6-169 23.7-137.5-174.9-340-264.2-543.5-264.2-166.6 0-334 59.9-466.9 182-134.6-171.5-330.9-256.7-527-256.7" fill="#687e92"/>
  <path transform="matrix(.13333333 0 0 -.13333333 0 2800)" d="m20278 16599.9c-192.3 0-384.5 82.8-511.4 247.3-79.1-32.2-160.1-47.2-239.2-47.2-219.6 0-424.7 115.3-533.1 295.8 120.6-126.4 290.5-202.4 469.7-202.4 83.4 0 168.8 16.5 252.1 52 133.9-181.1 336.4-272.3 539.2-272.3 196.1 0 392.4 85.3 527 256.8 132.9-122.1 300.2-182.1 466.9-182.1 203.5 0 406 89.4 543.5 264.3 56.7-16.2 113.4-23.8 168.9-23.8 175.2 0 338.1 75.9 452 199.7-98.6-181.7-297.7-301.8-517.1-301.8-52.6 0-106.5 7-160.3 21.6-130.4-158.9-322.5-240-515.5-240-158.1 0-316.8 54.4-442.8 165.3-127.7-155.7-313.9-233.2-499.9-233.2" fill="#5c758b"/>
  <path transform="matrix(.13333333 0 0 -.13333333 0 2800)" d="m20738.6 16885.9c-124.1-17.1-232.8 27-242.7 98.7s99.9 55.6 224 72.8c124.2 17.2 215.6 61.1 225.6-10.5 9.9-71.7-82.7-143.8-206.9-161" fill="#687e92"/>
  <path transform="matrix(.13333333 0 0 -.13333333 0 2800)" d="m21383.7 17529c-67 0-121.3 54.4-121.3 121.4s54.3 121.3 121.3 121.3 121.4-54.3 121.4-121.3-54.4-121.4-121.4-121.4" fill="#99a9b6"/>
  <path transform="matrix(.13333333 0 0 -.13333333 0 2800)" d="m20178.6 17529c-67.2 0-121.5 54.4-121.5 121.4s54.3 121.3 121.5 121.3c66.9 0 121.3-54.3 121.3-121.3s-54.4-121.4-121.3-121.4" fill="#99a9b6"/>
  <path transform="matrix(.13333333 0 0 -.13333333 0 2800)" d="m21505.1 17655.6c0-67-54.4-121.4-121.4-121.4s-121.3 54.4-121.3 121.4c0 67.1 54.3 121.3 121.3 121.3s121.4-54.2 121.4-121.3" fill="#133441"/>
  <path transform="matrix(.13333333 0 0 -.13333333 0 2800)" d="m20299.9 17655.6c0-67-54.4-121.4-121.3-121.4-67.2 0-121.5 54.4-121.5 121.4 0 67.1 54.3 121.3 121.5 121.3 66.9 0 121.3-54.2 121.3-121.3" fill="#133441"/>
  <path transform="matrix(.13333333 0 0 -.13333333 0 2800)" d="m20787.8 17233.3c-167.4 0-289.6 121.5-291.3 123.4-13.4 13.6-13.1 35.4 0.4 48.7 6.7 6.5 15.4 9.8 24.1 9.8 8.9 0 17.8-3.4 24.5-10.2 6.2-6.2 104.2-102.9 239.5-102.9 70 0 150.1 25.9 232.6 103.7 6.6 6.3 15.1 9.4 23.6 9.4 9.1 0 18.2-3.6 25-10.8 13-13.8 12.4-35.6-1.5-48.6-97.3-91.9-192.8-122.5-276.9-122.5" fill="#99a9b6"/>
  <path transform="matrix(.13333333 0 0 -.13333333 0 2800)" d="m20787.8 17236.8c-167.4 0-289.6 121.6-291.3 123.5-13.4 13.6-13.1 35.4 0.4 48.7s35.3 13.1 48.6-0.4c9.3-9.4 230.3-227.2 472.1 0.8 13.8 13.1 35.5 12.5 48.6-1.4 13-13.8 12.4-35.6-1.5-48.6-97.3-91.9-192.8-122.6-276.9-122.6" fill="#133441"/>
 </g>
</svg>
