<?xml version="1.0" encoding="UTF-8"?>
<!-- Created with Inkscape (http://www.inkscape.org/) -->
<svg width="132.588mm" height="83.121498mm" version="1.1" viewBox="0 0 132.588 83.121498" xmlns="http://www.w3.org/2000/svg">
 <g transform="matrix(.26458333 0 0 .26458333 -510.58937 -75.914266)">
  <path transform="matrix(.13333333 0 0 -.13333333 0 2800)" d="m17647.7 18035.8c-127.6 531.3-739.1 773.8-1195 488.7-144.9 196.3-377.9 323.6-640.6 323.6-457.3 0-825.5-386.2-793.8-850.7-308.8-48.6-544.9-315.9-544.9-638.3 0-464.5 475.7-775.2 899.2-594.9 263.2-356.3 792.3-364.4 1066.2-15.6 295.1-271.2 760.2-235.9 1010.3 82.2 392.7-111.4 782.7 183.7 782.7 591.2 0 329.2-258.8 597.9-584.1 613.8" fill="#758899"/>
  <path transform="matrix(.13333333 0 0 -.13333333 0 2800)" d="m15911.7 16673.1c-202.8 0-405.3 91.2-539.1 272.3-83.4-35.5-168.8-52-252.2-52-179.1 0-349 76-469.7 202.4-50.9 84.7-80.5 183.6-80.5 291.8 0 292.9 224 535.6 516.8 579.8-30 421.9 319.2 772.7 753 772.7 249.2 0 470.1-115.7 607.5-294 125.1 74.9 262.4 109.7 397.4 109.7 332 0 650.1-210.5 736.1-553.5 308.5-14.5 554-258.6 554-557.6 0-93.5-23.7-180.5-65-256.7-113.8-123.8-276.7-199.7-451.9-199.7-55.5 0-112.2 7.6-169 23.8-137.5-174.9-340-264.3-543.5-264.3-166.6 0-334 60-466.8 182.1-134.6-171.5-331-256.8-527.1-256.8m52.8 935.6c-11.7 0-23.2-5-31.4-14.5-14.8-17.3-12.7-43.4 4.6-58.2 133.9-114.6 309.9-171.8 485.9-171.8 175.9 0 352 57.2 485.8 171.8 17.4 14.8 19.4 40.9 4.6 58.2-8.1 9.5-19.7 14.5-31.4 14.5-9.5 0-19-3.3-26.8-10-119.2-101.9-275.7-152.8-432.3-152.8-156.5 0-313 50.9-432.2 152.8-7.8 6.7-17.3 10-26.8 10m1061.7 330.4c38.9 0 73.6-15.7 95.8-15.7 16 0 25.5 8.2 25.5 36.3 0 67-54.3 121.3-121.3 121.3s-121.3-54.3-121.3-121.3c0-28.1 9.5-36.3 25.5-36.3 22.2 0 56.9 15.7 95.8 15.7m-1205.2 0c38.9 0 73.6-15.7 95.8-15.7 16 0 25.5 8.2 25.5 36.3 0 67-54.3 121.3-121.3 121.3-67.1 0-121.4-54.3-121.4-121.3 0-28.1 9.6-36.3 25.6-36.3 22.2 0 56.8 15.7 95.8 15.7" fill="#687e92"/>
  <g fill="#a9bece">
   <path transform="matrix(.13333333 0 0 -.13333333 0 2800)" d="m15378.2 18545.8c40.8-37.7 20.1-126.5-46.4-198.4-66.4-72-153.3-99.7-194.1-62.1-40.8 37.7-20 126.5 46.4 198.5 66.4 71.9 153.3 99.6 194.1 62"/>
   <path transform="matrix(.13333333 0 0 -.13333333 0 2800)" d="m14922.9 17841.1c15.5-28.4-12.5-73.7-62.6-101-50.1-27.4-103.4-26.6-118.9 1.8-15.5 28.5 12.5 73.7 62.6 101.1s103.4 26.5 118.9-1.9"/>
   <path transform="matrix(.13333333 0 0 -.13333333 0 2800)" d="m16750.2 18564.2c16.2-28.1-10.2-73.8-59-102.1-48.9-28.2-101.6-28.4-117.8-0.4-16.3 28.1 10.1 73.7 59 102 48.8 28.3 101.5 28.5 117.8 0.5"/>
  </g>
  <path transform="matrix(.13333333 0 0 -.13333333 0 2800)" d="m14473.4 17359.1v1.7-1.7m0 2.3v1-1m0 1.8v0.7-0.7m3758.4 58.8v1.7-1.7m0 2.2v1.3-1.3m0 1.8c-0.1 1.2-0.1 2.4-0.1 3.5 0-1.1 0-2.3 0.1-3.5m-0.1 4v1.3-1.3m0 1.8c0 1.2-0.1 2.3-0.1 3.5 0-1.2 0.1-2.4 0.1-3.5m-0.1 3.9v1.4-1.4m0 1.9c-0.1 1.1-0.1 2.3-0.1 3.5 0-1.2 0-2.4 0.1-3.5m-0.1 3.8c-0.1 0.5-0.1 1-0.1 1.5 0-0.5 0-1 0.1-1.5m-0.1 1.9c0 0.6 0 1.1-0.1 1.7 0.1-0.6 0.1-1.1 0.1-1.7m-0.1 1.7v1.8-1.8m0 2.1c-0.1 0.5-0.1 1-0.1 1.5 0-0.5 0-1 0.1-1.5m-0.1 1.9c0 0.6-0.1 1.1-0.1 1.7 0-0.6 0.1-1.1 0.1-1.7m-0.1 1.8c0 0.6-0.1 1.1-0.1 1.7 0-0.6 0.1-1.1 0.1-1.7m-0.1 2.1c0 0.5 0 0.9-0.1 1.4 0.1-0.4 0.1-0.9 0.1-1.4m-0.1 1.9c0 0.5-0.1 1-0.1 1.5 0-0.5 0.1-1 0.1-1.5m-0.1 1.7c0 0.6-0.1 1.2-0.1 1.8 0-0.6 0.1-1.2 0.1-1.8m-0.1 2.1c0 0.5-0.1 0.9-0.1 1.4 0-0.5 0.1-0.9 0.1-1.4m-0.1 1.9c-0.1 0.5-0.1 0.9-0.1 1.4 0-0.5 0-0.9 0.1-1.4m-0.1 1.7c-0.1 0.6-0.1 1.1-0.1 1.7 0-0.5 0-1.1 0.1-1.7m-0.2 2.2c0 0.4 0 0.9-0.1 1.2 0.1-0.4 0.1-0.8 0.1-1.2m-0.1 1.9c0 0.4-0.1 0.7-0.1 1.1 0-0.4 0.1-0.8 0.1-1.1m-0.1 1.7c-0.1 0.5-0.1 1-0.2 1.6 0.1-0.6 0.1-1.1 0.2-1.6m-0.2 2.3c0 0.3-0.1 0.6-0.1 0.9 0-0.3 0.1-0.6 0.1-0.9m-0.1 1.8c-0.1 0.2-0.1 0.5-0.1 0.8 0-0.3 0-0.6 0.1-0.8m-0.2 1.7v0.1-0.1m-0.2 2.5v0.5-0.5m-0.1 1.6c-0.1 0.1-0.1 0.2-0.1 0.3 0-0.1 0-0.2 0.1-0.3" fill="#11303e"/>
  <path transform="matrix(.13333333 0 0 -.13333333 0 2800)" d="m15911.7 16491.9c-202.7 0-405.3 91.2-539.1 272.3-83.4-35.5-168.8-52-252.2-52-340.2 0-647 273.9-647 646.9v1.7 0.6 1 0.8 0.7c0.2 29.1 2.4 57.7 6.3 85.8 19.1-138.8 81.5-260.2 171-353.9 108.5-180.4 313.5-295.8 533.1-295.8 79.2 0 160.1 15 239.3 47.2 126.9-164.5 319-247.3 511.3-247.3 186 0 372.2 77.5 499.9 233.2 126-110.9 284.8-165.3 442.8-165.3 193.1 0 385.1 81.1 515.5 240 53.9-14.6 107.7-21.6 160.3-21.6 219.4 0 418.6 120.1 517.1 301.8 80.7 87.7 136.7 199.4 155 325.2 1.8-11.6 3.2-23.2 4.2-35 0-0.1 0-0.2 0.1-0.3 0-0.4 0-0.8 0.1-1.1v-0.5c0.1-0.8 0.1-1.6 0.2-2.4v-0.1c0-0.4 0.1-0.6 0.1-0.9s0-0.6 0.1-0.8v-0.9c0-0.3 0.1-0.6 0.1-0.9v-0.7c0.1-0.6 0.1-1.1 0.2-1.6v-0.6c0-0.4 0.1-0.7 0.1-1.1v-0.7c0.1-0.3 0.1-0.8 0.1-1.2 0-0.1 0-0.3 0.1-0.5 0-0.6 0-1.1 0.1-1.7v-0.3c0-0.5 0-0.9 0.1-1.4v-0.5c0-0.5 0.1-0.9 0.1-1.4v-0.3c0-0.6 0.1-1.2 0.1-1.8v-0.2c0-0.5 0.1-1 0.1-1.5v-0.5c0.1-0.5 0.1-0.9 0.1-1.4v-0.4c0-0.6 0.1-1.1 0.1-1.7v-0.1c0-0.6 0.1-1.1 0.1-1.7v-0.4c0-0.5 0-1 0.1-1.5v-0.3-1.8c0.1-0.6 0.1-1.1 0.1-1.7v-0.4c0-0.5 0-1 0.1-1.5v-0.3c0-1.2 0-2.4 0.1-3.5v-0.5-1.4-0.4c0-1.2 0.1-2.3 0.1-3.5v-0.5-1.3-0.5c0-1.1 0-2.3 0.1-3.5v-0.5-1.3-0.5-1.7c0-348.6-285.4-614.9-613.7-614.9-55.5 0-112.2 7.6-169 23.7-137.5-174.9-340-264.2-543.5-264.2-166.6 0-334 59.9-466.8 182-134.7-171.5-331-256.7-527.1-256.7" fill="#687e92"/>
  <path transform="matrix(.13333333 0 0 -.13333333 0 2800)" d="m15934.4 16599.9c-192.3 0-384.4 82.8-511.3 247.3-79.2-32.2-160.1-47.2-239.3-47.2-219.6 0-424.6 115.4-533.1 295.8 120.7-126.4 290.6-202.4 469.7-202.4 83.4 0 168.8 16.5 252.2 52 133.8-181.1 336.3-272.3 539.1-272.3 196.1 0 392.5 85.3 527.1 256.8 132.8-122.1 300.2-182.1 466.8-182.1 203.5 0 406 89.4 543.5 264.3 56.8-16.2 113.5-23.8 169-23.8 175.2 0 338.1 75.9 451.9 199.7-98.5-181.7-297.7-301.8-517.1-301.8-52.6 0-106.4 7-160.3 21.6-130.4-158.9-322.4-240-515.5-240-158 0-316.8 54.4-442.8 165.3-127.7-155.7-313.9-233.2-499.9-233.2" fill="#5c758b"/>
  <path transform="matrix(.13333333 0 0 -.13333333 0 2800)" d="m16395.1 16885.9c-124.2-17.1-232.8 27-242.8 98.7-9.9 71.7 99.9 55.6 224.1 72.8 124.1 17.2 215.6 61.1 225.5-10.5 9.9-71.7-82.7-143.8-206.8-161" fill="#687e92"/>
  <path transform="matrix(.13333333 0 0 -.13333333 0 2800)" d="m17122 17923.4c-22.2 0-56.9 15.7-95.8 15.7s-73.6-15.7-95.8-15.7c-16 0-25.5 8.2-25.5 36.3 0 67 54.3 121.3 121.3 121.3s121.3-54.3 121.3-121.3c0-28.1-9.5-36.3-25.5-36.3" fill="#99a9b6"/>
  <path transform="matrix(.13333333 0 0 -.13333333 0 2800)" d="m15916.8 17923.4c-22.2 0-56.9 15.7-95.8 15.7-39 0-73.6-15.7-95.8-15.7-16 0-25.6 8.2-25.6 36.3 0 67 54.3 121.3 121.4 121.3 67 0 121.3-54.3 121.3-121.3 0-28.1-9.5-36.3-25.5-36.3" fill="#99a9b6"/>
  <path transform="matrix(.13333333 0 0 -.13333333 0 2800)" d="m17147.5 17964.3c0-67-54.3-20.5-121.3-20.5s-121.3-46.5-121.3 20.5c0 67.1 54.3 121.4 121.3 121.4s121.3-54.3 121.3-121.4" fill="#133441"/>
  <path transform="matrix(.13333333 0 0 -.13333333 0 2800)" d="m15942.3 17964.3c0-67-54.3-20.5-121.3-20.5-67.1 0-121.4-46.5-121.4 20.5 0 67.1 54.3 121.4 121.4 121.4 67 0 121.3-54.3 121.3-121.4" fill="#133441"/>
  <path transform="matrix(.13333333 0 0 -.13333333 0 2800)" d="m16423.6 17364.2c-176 0-352 57.2-485.9 171.8-17.3 14.8-19.4 40.9-4.6 58.2 8.2 9.5 19.7 14.5 31.4 14.5 9.5 0 19-3.3 26.8-10 119.2-101.9 275.7-152.8 432.2-152.8 156.6 0 313.1 50.9 432.3 152.8 7.8 6.7 17.3 10 26.8 10 11.7 0 23.3-5 31.4-14.5 14.8-17.3 12.8-43.4-4.6-58.2-133.8-114.6-309.9-171.8-485.8-171.8" fill="#99a9b6"/>
  <path transform="matrix(.13333333 0 0 -.13333333 0 2800)" d="m16423.6 17371.9c-176 0-352 57.2-485.9 171.8-17.3 14.8-19.4 40.9-4.6 58.2 14.8 17.4 40.8 19.4 58.2 4.5 238.3-203.7 626.2-203.7 864.5 0 17.4 14.9 43.4 12.9 58.2-4.5 14.8-17.3 12.8-43.4-4.6-58.2-133.8-114.5-309.9-171.8-485.8-171.8" fill="#133441"/>
 </g>
</svg>
