<?xml version="1.0" encoding="UTF-8"?>
<svg width="242.40918pt" height="242.73376pt" version="1.1" viewBox="0 0 242.40918 242.73377" xmlns="http://www.w3.org/2000/svg">
 <g id="#475152ff" transform="translate(-5.9721553,-4.811777)">
  <path d="m77.31 16.21c14.53-8.32 32.14-10.46 48.69-11.17-0.09 8.24 0.25 16.5-0.19 24.74-2.01 24.92 0 50.02-1 75-1.84 21.66-0.3 43.49-0.82 65.22 0.48 6.37-1.08 13.03 0.73 19.26 1.34 14.94-1.2 30.21 0.99 45 0.21 4.24 0.27 8.51 0.31 12.76-0.49 0-1.46-0.02-1.95-0.03-4.62-6.26-1.57-14.7-2.16-21.83-3.27-0.39-8.2-3.13-10.07 0.65-2.62 4.35-4.29 9.25-8.79 12.1 2.32 2.02 5.43 2.63 8.01 4.22-0.84 1.12-1.82 2.11-2.79 3.12-7.99-0.47-15.49-3.37-23.13-5.47l-0.06-0.82c1.07-4.17-2.01-6.04-4.82-8.24-1.54-4.83 0.44-12.47-6.04-14.17-0.12-2.23 1.02-4.2 1.64-6.27-1.31-1.24-3.59-1.76-3.97-3.74 2.96 0.36 4.77-1.49 4.9-4.38-2.09-0.36-5.01-2.33-6.2 0.47-0.82 1.9-2.9 0.34-4.35 0.26 0.53-3.66 4.82-8.95-0.19-11.02-2.49 2.28-5.09 4.28-8.84 1.98-1.28-3-0.72-6.37-1.09-9.54 6.12 0.13-0.76-6.62 2.76-9.43-2.28 0.21-4.49 0.87-6.77 1.06-0.58-1.97-0.62-4.02-0.81-6.05 1.76 1.16 3.51 2.4 5.57 2.98 2.23-2.77-0.49-7.32-3.08-9.26-1.6-0.03-3.21-0.15-4.72-0.74 0.14-1.36 1.06-2.44 1.53-3.68-1.23-2.14-2.8-4.55-4.37-1.3 0.06-2.64-2.06-4.11-3.95-5.52 1.04-0.38 1.61-1.11 1.7-2.17-3.63-1.66-6.78-4.15-10.43-5.79-2.18-2.88-3.84-6.1-5.73-9.16-2.04 0.33-5.45 1.03-5.96-1.77 2.59 0.7 3.39-1.34 2.59-3.49 1.39-5.31 4.24-10.26 4.89-15.81 2.94-3.99 5.53-8.32 8.68-12.14 0.92 0.54 1.78 1.17 2.7 1.73 0.56-2.46 1.56-4.84 3.69-6.33 2.12-4.82 3.06-10.03 1.69-15.25 1.43-0.96 2.99-1.68 4.47-2.56 0.03-1.84 0.06-3.68 0.2-5.52-3.56 0.09-7.5 1.47-10.19-1.56-5.03 0.01-5.79-5.22-4.97-9.13 3.19-2.54 7.77-4.81 11.69-3.65 4.05 2.41 2.89 7.5 4.71 11.14 4.41-3.61 10.31-3.59 15.67-3.12 1.66-2.4 3.96-4.33 5.29-6.93 1.9-3.81 6.14-5.57 8.33-9.15 2.27-0.4 4.61-1.96 3.43-4.59-1.15-5.07 1.65-10.02 2.01-15.05-1.13 0.22-2.23 0.55-3.36 0.72-0.46-1.21-0.6-2.62-1.68-3.47-4.52-0.15-8.27-2.75-12.56-3.68-1.3-3.5 2.96-2.18 4.7-3.79 2.34-0.91 2.85-3.48 3.47-5.64m21.88 27.75c-0.09 0.72-0.28 2.15-0.38 2.86-2.53-0.15-4.84 0.69-5.77 3.23-0.93 2.19-2.69-0.5-3.91-0.98-2.37 1.72 0.55 4.65-1.36 6.67-3.97 2.65-9.05 4.04-12.48 7.49-0.35 2.28-0.58 5.03-2.88 6.23-2.03 1.3-4.01 4.15-6.7 2.99-2.16-1.27-1.79 2.44-3.75 2.47-3.35 0.2-2.62 6.31-7.69 3.37-2.92 1.2 0.92 5.1-2.3 6.7-2.88 6.39-6.39 12.82-6.67 19.99 0.29 1.58 1.53 4-0.9 4.43-0.32 2.3-1.91 3.92-3.93 4.89 0.53 1.85-1.04 4.06 0.74 5.48 2.13 2.29-1.56 5.85-0.17 8.29 2.37-0.76 7.42-1.07 5.56-4.75-1.34-2.53 1.24-7.41-2.63-7.63 2.01-2.97 6.52-1.52 9.24-3.5 2.91-2.96 6.52 0.8 8.52 3.04-0.33 4.22 3.15 6.83 4.67 10.42 1.62 1.89 4.49 2.03 6.43 3.62-0.5 1.26-1 2.58-2.06 3.49-3.65-0.23-6.59 1.97-9.98 2.77-2-0.12-4.63-1.88-4.79 2.47-2.55 3.07-2.69 7.25-2.99 11 0.98 3.43-0.48 9.5 4.04 10.95 3.77 1.78 8.07 0.37 11.71-1.19 1.79-2.24 2.85-5.01 4.94-7.03 1.85-3.24 2.48-9.23 7.36-8.95-2.15-2.34-4.56-4.57-3.53-8.39-1.15-1.38-2.74-4.16-0.24-5.04 4.16-0.78 7.43-3.47 11.36-4.81 4.11-1.84 5.51-6.43 7.99-9.85 0.23-2.46 0.08-5.06-0.26-7.55 1.11-2.02 3.27-2.57 5.43-2.04 2.24 2.92-0.47 5.82-0.82 8.85 1.11 3.46 4.33 4.83 7.74 4.81 1.33-1.08 2.25-3.03 4.25-2.75 3.99 1.6 5.9-1.85 8.71-3.39 0.62-2.75 0.73-5.6 0.94-8.4-1.67-1.22-4.44-5.45-0.56-3.32 0.31-2.92-0.94-5.85-3.31-7.59-2.96-0.13-5.33-1.81-7.64-3.48 0.94-2.2 3.76-3.54 5.85-4.63 2.07 1.34 4.52 0.07 4.93-2.24-1.88-4.91 5-6.89 2.15-11.95-0.89-3.55 1.47-8.54-1.71-11.35-1.06-2.01 1.22-4.42-0.6-6.31-3.07-0.98-6.35-2.03-8.47-4.61-3.47-4.66-9.79-1.75-14.08-4.78m-12.86 154.45c-6.14 0.7-11.15 9.46-7.12 14.47 5.94 0.63 13.93-2 14.96-8.74-0.01-1.68 2.97-1.33 2.71-3.02-3-2.14-6.84-3.37-10.55-2.71z" fill="#475152"/>
 </g>
 <g id="#0d0c0aff" transform="translate(-5.9721553,-4.811777)">
  <path d="m126 5.04 1-0.05c0.01 47.34-0.01 94.67 0 142.01 0 6.74-0.15 13.49 0.21 20.22-0.2 6.18-0.39 12.38 0 18.56-0.43 20.4-0.13 40.81-0.21 61.21l-0.98 0.03c-0.04-4.25-0.1-8.52-0.31-12.76 0.54-68.15 0.36-136.32 0.1-204.48 0.44-8.24 0.1-16.5 0.19-24.74z" fill="#0d0c0a"/>
 </g>
 <g id="#f7f2dffe" transform="translate(-5.9721553,-4.811777)">
  <path d="m127 4.99c0.5 0.01 1.5 0.03 2 0.03 0.05 21.73-0.1 43.45 0.05 65.17 0.05 1.65 0.15 4.94 0.2 6.59-0.33 7.99-0.1 16-0.44 24-1.76 15.33-0.37 30.82-0.82 46.22h-0.99c-0.01-47.34 0.01-94.67 0-142.01z" fill="#f7f2df"/>
 </g>
 <g transform="translate(-5.9721553,-4.811777)">
  <path d="m129 5.02c2.38 0.79 7.96-1.47 9 0.94-2.65-0.04-5.31 0-7.95 0.12-0.17 21.3 0.03 42.59-0.06 63.89l-0.94 0.22c-0.15-21.72 0-43.44-0.05-65.17z" fill="#d2c8ab" opacity=".97"/>
 </g>
 <g id="#e9dfc4fe" transform="translate(-5.9721553,-4.811777)">
  <path d="m130.05 6.08c2.64-0.12 5.3-0.16 7.95-0.12 13.61-0.05 26.64 4.74 39.03 9.95 38.25 17 66.61 55.3 69.97 97.24-0.49 2.39-0.33 4.68 0.5 6.84 3.01 36.89-14.11 74.82-42.53 98.25-5.16 0.11-6.61-5.08-8.35-8.87-2.29-1.51-4.89-2.75-7.72-2.39 1.84 5.65 7.61 12.6 2.91 17.93-4.08 1.45-3.37-3.42-3.49-5.93 0.96-4.5-4.65-7.86-8.61-6.21-3.7 1.94-7.82 0.24-11.75 0.2 0.66 4.26 4.9 3.68 7.84 5.26 3.32 2-4.58 2.89-2.05 5.06 0.94 2.67 4.25 0.96 4.36-1.27 0.01-1.54 2.42-1.21 2.42 0.2 0.2 3.9-0.86 7.89 0.43 11.68-7.95 3.83-16.3 8.26-25.14 9.3-5.75-0.93-8.27-7.6-5.56-12.45-1.08-4.05 3.18-5.76 4.43-9.08 1.68-4.73 0.75-9.66 0.12-14.46-3.49-0.56-7.05-1.51-10.59-1.08-1.77 0.84-0.99 2.74-0.66 4.2 0.08 3.01 2.05 5.19 4.3 6.95 1.05 0.95 2.18 1.83 3.24 2.79-4.48-0.67-12.25-1-11.55-7.28 0.96-2.76 2.45-6.51-0.91-8.32-2.9-0.55-5.73-3.52-8.66-1.54 0.08-38.34-0.06-76.69 0.07-115.03 3.64 4.54 9.34 6.69 14 10 3.18-0.26 1.33-4.48 1.26-6.59 2.12-1.57 4.28-3.07 6.4-4.64-0.32-3.87 0.85-10.29-3.72-11.73-2.79-3.98-7.08-6.44-11.31-8.63-1.25-0.76-2.67-0.02-3.76 0.64-0.83 1.22-1.04 3.17-2.93 3.02 0.09-21.3-0.11-42.59 0.06-63.89m26.19 29.1c-5.72 2.81 1.5 12.47 5.63 7.62 0.81-3.24-1.75-8.72-5.63-7.62m32.08 28.14c-3.02 2.02-6.55 5.01-5.09 9.24 3.47 1.67 2.36 9.41 8.45 6.01 8.77-1.12 2.9-15.15-3.36-15.25m22.95 0.89c-2.31 2.49-6.49 4.58-5.16 8.59 3.68 1.99 8.58 1.84 11.81-0.96 1.77-4.17-1.51-10.06-6.65-7.63m-51.01 36.96c-3.55 1.94-2.14 6.34-0.49 9.09 1.89 3.21 7.21 2.57 9.06-0.52 1.36-4.72-2.93-11.48-8.57-8.57m58.95 9.96c-2.37 1.81-2.47 7.1 1.07 7.6 3.5 2.79 7.57-1.1 11.46 0.01 2.99-1.82-0.28-5.27-1.01-7.58-1.98-0.59-3.82 0.57-5.73 0.82-1.94-0.25-3.8-1.42-5.79-0.85m-13.21 13.85c-1.12 4.88 4.41 7.69 0.58 12.63-3.3 2.93-0.9 7.58 2.64 8.94 4.5-1.66 7.98 4.07 12.52 3.24 1.93-2.04 5.2-3.78 2.96-7.49-0.56-3.09-4.2-2.54-6.48-3.59-1.76-2.59-3.02-5.72-6.15-6.87 4.8-3.55-1.18-9.72-6.07-6.86m-20.72 2.3c-2.21 1.22-5.35 2.85-5.31 5.7-3.12 7.7 4.87 4.81 8.05 8.02 2.5-1.18 6.61-2.44 3.56-6.65-1.13-2.97-2.26-7.78-6.3-7.07m-32.05 30.85c-1.67 1.79-4.38 4.48-2.28 6.9 1.56 4.32 7.13 3.4 9.97 0.79 1.08-4.35-2.04-10.81-7.69-7.69m71.13 2.42c-3.56 0.54-7.28 0.38-10.38 2.45-1.78 1.49-4.59-1.31-5.83 1.22-0.25 2.46 2.43 6.64 5.07 4 3.54-3.65 6.55 3.58 10.77 1.82 8.57 4.22 10.34-15.44 0.37-9.49m-30.07 7.72c-2.68 1.34-6.4 3.44-4 7.41 1.21 1.57 3.63 4.69 4.84 6.26 4.76 1.3 7.39-3.13 7.39-7.28 3.81-6.36-4.96-6.49-8.23-6.39z" fill="#e9dfc4"/>
 </g>
 <g id="#4a5354fd" transform="translate(-5.9721553,-4.811777)">
  <path d="m62 24.01c5.01-2.72 9.55-6.75 15.31-7.8-0.62 2.16-1.13 4.73-3.47 5.64-1.74 1.61-6 0.29-4.7 3.79 4.29 0.93 8.04 3.53 12.56 3.68 1.08 0.85 1.22 2.26 1.68 3.47 1.13-0.17 2.23-0.5 3.36-0.72-0.36 5.03-3.16 9.98-2.01 15.05 1.18 2.63-1.16 4.19-3.43 4.59-2.19 3.58-6.43 5.34-8.33 9.15-1.33 2.6-3.63 4.53-5.29 6.93-5.36-0.47-11.26-0.49-15.67 3.12-1.82-3.64-0.66-8.73-4.71-11.14-3.92-1.16-8.5 1.11-11.69 3.65-0.82 3.91-0.06 9.14 4.97 9.13 2.69 3.03 6.63 1.65 10.19 1.56-0.14 1.84-0.17 3.68-0.2 5.52-1.48 0.88-3.04 1.6-4.47 2.56 1.37 5.22 0.43 10.43-1.69 15.25-2.13 1.49-3.13 3.87-3.69 6.33-0.92-0.56-1.78-1.19-2.7-1.73-3.15 3.82-5.74 8.15-8.68 12.14-0.65 5.55-3.5 10.5-4.89 15.81 0.8 2.15 0 4.19-2.59 3.49 0.51 2.8 3.92 2.1 5.96 1.77 1.89 3.06 3.55 6.28 5.73 9.16 3.65 1.64 6.8 4.13 10.43 5.79-0.09 1.06-0.66 1.79-1.7 2.17 1.89 1.41 4.01 2.88 3.95 5.52 1.57-3.25 3.14-0.84 4.37 1.3-0.47 1.24-1.39 2.32-1.53 3.68 1.51 0.59 3.12 0.71 4.72 0.74 2.59 1.94 5.31 6.49 3.08 9.26-2.06-0.58-3.81-1.82-5.57-2.98 0.19 2.03 0.23 4.08 0.81 6.05 2.28-0.19 4.49-0.85 6.77-1.06-3.52 2.81 3.36 9.56-2.76 9.43 0.37 3.17-0.19 6.54 1.09 9.54 3.75 2.3 6.35 0.3 8.84-1.98 5.01 2.07 0.72 7.36 0.19 11.02 1.45 0.08 3.53 1.64 4.35-0.26 1.19-2.8 4.11-0.83 6.2-0.47-0.13 2.89-1.94 4.74-4.9 4.38 0.38 1.98 2.66 2.5 3.97 3.74-0.62 2.07-1.76 4.04-1.64 6.27 6.48 1.7 4.5 9.34 6.04 14.17 2.81 2.2 5.89 4.07 4.82 8.24-19.82-5.92-37.38-19.61-50.79-35.25-23.52-27.58-33.1-66.15-26.05-101.63 6.69-31.71 26.01-61 53.76-78.07z" fill="#4a5354"/>
 </g>
 <g id="#3a484bff" transform="translate(-5.9721553,-4.811777)">
  <path d="m124.81 104.78c1-24.98-1.01-50.08 1-75 0.26 68.16 0.44 136.33-0.1 204.48-2.19-14.79 0.35-30.06-0.99-45 0.5-28.15 0.37-56.32 0.09-84.48z" fill="#3a484b"/>
 </g>
 <g id="#e0d6bbff" transform="translate(-5.9721553,-4.811777)">
  <path d="m156.24 35.18c3.88-1.1 6.44 4.38 5.63 7.62-4.13 4.85-11.35-4.81-5.63-7.62z" fill="#e0d6bb"/>
 </g>
 <g id="#434c4eff" transform="translate(-5.9721553,-4.811777)">
  <path d="m99.19 43.96c4.29 3.03 10.61 0.12 14.08 4.78 2.12 2.58 5.4 3.63 8.47 4.61 1.82 1.89-0.46 4.3 0.6 6.31 3.18 2.81 0.82 7.8 1.71 11.35 2.85 5.06-4.03 7.04-2.15 11.95-0.41 2.31-2.86 3.58-4.93 2.24-2.09 1.09-4.91 2.43-5.85 4.63 2.31 1.67 4.68 3.35 7.64 3.48 2.37 1.74 3.62 4.67 3.31 7.59-3.88-2.13-1.11 2.1 0.56 3.32-0.21 2.8-0.32 5.65-0.94 8.4-2.81 1.54-4.72 4.99-8.71 3.39-2-0.28-2.92 1.67-4.25 2.75-3.41 0.02-6.63-1.35-7.74-4.81 0.35-3.03 3.06-5.93 0.82-8.85-2.16-0.53-4.32 0.02-5.43 2.04 0.34 2.49 0.49 5.09 0.26 7.55-2.48 3.42-3.88 8.01-7.99 9.85-3.93 1.34-7.2 4.03-11.36 4.81-2.5 0.88-0.91 3.66 0.24 5.04-1.03 3.82 1.38 6.05 3.53 8.39-4.88-0.28-5.51 5.71-7.36 8.95-2.09 2.02-3.15 4.79-4.94 7.03-3.64 1.56-7.94 2.97-11.71 1.19-4.52-1.45-3.06-7.52-4.04-10.95 0.3-3.75 0.44-7.93 2.99-11 0.16-4.35 2.79-2.59 4.79-2.47 3.39-0.8 6.33-3 9.98-2.77 1.06-0.91 1.56-2.23 2.06-3.49-1.94-1.59-4.81-1.73-6.43-3.62-1.52-3.59-5-6.2-4.67-10.42-2-2.24-5.61-6-8.52-3.04-2.72 1.98-7.23 0.53-9.24 3.5 3.87 0.22 1.29 5.1 2.63 7.63 1.86 3.68-3.19 3.99-5.56 4.75-1.39-2.44 2.3-6 0.17-8.29-1.78-1.42-0.21-3.63-0.74-5.48 2.02-0.97 3.61-2.59 3.93-4.89 2.43-0.43 1.19-2.85 0.9-4.43 0.28-7.17 3.79-13.6 6.67-19.99 3.22-1.6-0.62-5.5 2.3-6.7 5.07 2.94 4.34-3.17 7.69-3.37 1.96-0.03 1.59-3.74 3.75-2.47 2.69 1.16 4.67-1.69 6.7-2.99 2.3-1.2 2.53-3.95 2.88-6.23 3.43-3.45 8.51-4.84 12.48-7.49 1.91-2.02-1.01-4.95 1.36-6.67 1.22 0.48 2.98 3.17 3.91 0.98 0.93-2.54 3.24-3.38 5.77-3.23 0.1-0.71 0.29-2.14 0.38-2.86z" fill="#434c4e"/>
 </g>
 <g id="#e4dabfff" transform="translate(-5.9721553,-4.811777)">
  <path d="m188.32 63.32c6.26 0.1 12.13 14.13 3.36 15.25-6.09 3.4-4.98-4.34-8.45-6.01-1.46-4.23 2.07-7.22 5.09-9.24z" fill="#e4dabf"/>
 </g>
 <g id="#e1d7bcff" transform="translate(-5.9721553,-4.811777)">
  <path d="m211.27 64.21c5.14-2.43 8.42 3.46 6.65 7.63-3.23 2.8-8.13 2.95-11.81 0.96-1.33-4.01 2.85-6.1 5.16-8.59z" fill="#e1d7bc"/>
 </g>
 <g id="#d9ceb4ff" transform="translate(-5.9721553,-4.811777)">
  <path d="m132.92 66.95c1.09-0.66 2.51-1.4 3.76-0.64 4.23 2.19 8.52 4.65 11.31 8.63 1.92 4.23-0.09 8.64-1.32 12.76-3.83 2.67-8.82 1.33-12.41-1.02 1.92-6.74-1.74-12.99-1.34-19.73z" fill="#d9ceb4"/>
 </g>
 <g id="#e3d9beff" transform="translate(-5.9721553,-4.811777)">
  <path d="m129.99 69.97c1.89 0.15 2.1-1.8 2.93-3.02-0.4 6.74 3.26 12.99 1.34 19.73 3.59 2.35 8.58 3.69 12.41 1.02 1.23-4.12 3.24-8.53 1.32-12.76 4.57 1.44 3.4 7.86 3.72 11.73-2.12 1.57-4.28 3.07-6.4 4.64 0.07 2.11 1.92 6.33-1.26 6.59-4.66-3.31-10.36-5.46-14-10-0.09-3.72-0.36-7.43-0.8-11.12-0.05-1.65-0.15-4.94-0.2-6.59z" fill="#e3d9be"/>
 </g>
 <g id="#d3c8abfc" transform="translate(-5.9721553,-4.811777)">
  <path d="m129.25 76.78c0.44 3.69 0.71 7.4 0.8 11.12-0.13 38.34 0.01 76.69-0.07 115.03 0.11 14.33-0.14 28.67 0.09 43 2.64 0.04 5.28 0.08 7.93 0.11-0.1 3.19-6.58 0.21-9 0.9-0.14-48.72 0.28-97.44-0.19-146.16 0.34-8 0.11-16.01 0.44-24z" fill="#d3c8ab"/>
 </g>
 <g id="#f9f7e8fe" transform="translate(-5.9721553,-4.811777)">
  <path d="m127.99 147c0.45-15.4-0.94-30.89 0.82-46.22 0.47 48.72 0.05 97.44 0.19 146.16l-1 0.08c-0.48-20.41 0.99-40.91-0.79-61.24-0.39-6.18-0.2-12.38 0-18.56 1.1-6.69 0.8-13.47 0.78-20.22z" fill="#f9f7e8"/>
 </g>
 <g id="#dfd4b9ff" transform="translate(-5.9721553,-4.811777)" fill="#dfd4b9">
  <path d="m160.26 101.17c5.64-2.91 9.93 3.85 8.57 8.57-1.85 3.09-7.17 3.73-9.06 0.52-1.65-2.75-3.06-7.15 0.49-9.09z"/>
  <path d="m194.29 168.27c3.27-0.1 12.04 0.03 8.23 6.39 0 4.15-2.63 8.58-7.39 7.28-1.21-1.57-3.63-4.69-4.84-6.26-2.4-3.97 1.32-6.07 4-7.41z"/>
 </g>
 <g id="#4d5858ff" transform="translate(-5.9721553,-4.811777)">
  <path d="m123.99 170c0.52-21.73-1.02-43.56 0.82-65.22 0.28 28.16 0.41 56.33-0.09 84.48-1.81-6.23-0.25-12.89-0.73-19.26z" fill="#4d5858"/>
 </g>
 <g id="#e0d6bcff" transform="translate(-5.9721553,-4.811777)">
  <path d="m219.21 111.13c1.99-0.57 3.85 0.6 5.79 0.85 1.91-0.25 3.75-1.41 5.73-0.82 0.73 2.31 4 5.76 1.01 7.58-3.89-1.11-7.96 2.78-11.46-0.01-3.54-0.5-3.44-5.79-1.07-7.6z" fill="#e0d6bc"/>
 </g>
 <g id="#8c87779a" transform="translate(-5.9721553,-4.811777)">
  <path d="m247 113.15c2.15 0.9 1.36 5 0.5 6.84-0.83-2.16-0.99-4.45-0.5-6.84z" fill="#8c8777" opacity=".6"/>
 </g>
 <g id="#e5dac0ff" transform="translate(-5.9721553,-4.811777)">
  <path d="m206 124.98c4.89-2.86 10.87 3.31 6.07 6.86 3.13 1.15 4.39 4.28 6.15 6.87 2.28 1.05 5.92 0.5 6.48 3.59 2.24 3.71-1.03 5.45-2.96 7.49-4.54 0.83-8.02-4.9-12.52-3.24-3.54-1.36-5.94-6.01-2.64-8.94 3.83-4.94-1.7-7.75-0.58-12.63z" fill="#e5dac0"/>
 </g>
 <g id="#dfd4baff" transform="translate(-5.9721553,-4.811777)">
  <path d="m185.28 127.28c4.04-0.71 5.17 4.1 6.3 7.07 3.05 4.21-1.06 5.47-3.56 6.65-3.18-3.21-11.17-0.32-8.05-8.02-0.04-2.85 3.1-4.48 5.31-5.7z" fill="#dfd4ba"/>
 </g>
 <g id="#f2e7d0fe" transform="translate(-5.9721553,-4.811777)">
  <path d="m127 147h0.99c0.02 6.75 0.32 13.53-0.78 20.22-0.36-6.73-0.21-13.48-0.21-20.22z" fill="#f2e7d0"/>
 </g>
 <g id="#ded4b9ff" transform="translate(-5.9721553,-4.811777)">
  <path d="m153.23 158.13c5.65-3.12 8.77 3.34 7.69 7.69-2.84 2.61-8.41 3.53-9.97-0.79-2.1-2.42 0.61-5.11 2.28-6.9z" fill="#ded4b9"/>
 </g>
 <g id="#dfd5baff" transform="translate(-5.9721553,-4.811777)">
  <path d="m224.36 160.55c9.97-5.95 8.2 13.71-0.37 9.49-4.22 1.76-7.23-5.47-10.77-1.82-2.64 2.64-5.32-1.54-5.07-4 1.24-2.53 4.05 0.27 5.83-1.22 3.1-2.07 6.82-1.91 10.38-2.45z" fill="#dfd5ba"/>
 </g>
 <g id="#eee3cffe" transform="translate(-5.9721553,-4.811777)">
  <path d="m127.21 185.78c1.78 20.33 0.31 40.83 0.79 61.24l-1-0.03c0.08-20.4-0.22-40.81 0.21-61.21z" fill="#eee3cf"/>
 </g>
 <g id="#41494bff" transform="translate(-5.9721553,-4.811777)">
  <path d="m86.33 198.41c3.71-0.66 7.55 0.57 10.55 2.71 0.26 1.69-2.72 1.34-2.71 3.02-1.03 6.74-9.02 9.37-14.96 8.74-4.03-5.01 0.98-13.77 7.12-14.47z" fill="#41494b"/>
 </g>
 <g id="#e3d9befe" transform="translate(-5.9721553,-4.811777)">
  <path d="m129.98 202.93c2.93-1.98 5.76 0.99 8.66 1.54 3.36 1.81 1.87 5.56 0.91 8.32-0.7 6.28 7.07 6.61 11.55 7.28-1.06-0.96-2.19-1.84-3.24-2.79 1.71-0.3 3.67-0.13 5.06-1.36-1.18-2.73-2.6-5.36-4.07-7.94-2.14-0.43-3.68 1.29-5.29 2.35-0.33-1.46-1.11-3.36 0.66-4.2 3.54-0.43 7.1 0.52 10.59 1.08 0.63 4.8 1.56 9.73-0.12 14.46-1.25 3.32-5.51 5.03-4.43 9.08-2.71 4.85-0.19 11.52 5.56 12.45l0.29 0.72c-6.06 0.55-11.99 2.33-18.11 2.12-2.65-0.03-5.29-0.07-7.93-0.11-0.23-14.33 0.02-28.67-0.09-43z" fill="#e3d9be"/>
 </g>
 <g id="#e0d6bbfb" transform="translate(-5.9721553,-4.811777)">
  <path d="m188.9 206.98c2.83-0.36 5.43 0.88 7.72 2.39 1.74 3.79 3.19 8.98 8.35 8.87-5.58 5.97-13.49 9.92-20.59 14.2-1.07 0.59-2.04 1.84-3.42 1.46-1.29-3.79-0.23-7.78-0.43-11.68 0-1.41-2.41-1.74-2.42-0.2-0.11 2.23-3.42 3.94-4.36 1.27-2.53-2.17 5.37-3.06 2.05-5.06-2.94-1.58-7.18-1-7.84-5.26 3.93 0.04 8.05 1.74 11.75-0.2 3.96-1.65 9.57 1.71 8.61 6.21 0.12 2.51-0.59 7.38 3.49 5.93 4.7-5.33-1.07-12.28-2.91-17.93z" fill="#e0d6bb"/>
 </g>
 <g id="#dbd1b6ff" transform="translate(-5.9721553,-4.811777)">
  <path d="m143.56 210.33c1.61-1.06 3.15-2.78 5.29-2.35 1.47 2.58 2.89 5.21 4.07 7.94-1.39 1.23-3.35 1.06-5.06 1.36-2.25-1.76-4.22-3.94-4.3-6.95z" fill="#dbd1b6"/>
 </g>
 <g id="#444d4efd" transform="translate(-5.9721553,-4.811777)">
  <path d="m111.84 225.81c1.87-3.78 6.8-1.04 10.07-0.65 0.59 7.13-2.46 15.57 2.16 21.83-5.44 0.3-10.79-0.78-16.2-1.12l0.4-0.62c0.97-1.01 1.95-2 2.79-3.12-2.58-1.59-5.69-2.2-8.01-4.22 4.5-2.85 6.17-7.75 8.79-12.1z" fill="#444d4e"/>
 </g>
</svg>
