<?xml version="1.0" encoding="UTF-8" standalone="no"?>
<svg
   width="242.56119pt"
   height="242.09656pt"
   viewBox="0 0 242.56119 242.09656"
   version="1.1"
   id="svg30"
   sodipodi:docname="last-quarter.svg"
   inkscape:version="1.4.2 (f4327f4, 2025-05-13)"
   xmlns:inkscape="http://www.inkscape.org/namespaces/inkscape"
   xmlns:sodipodi="http://sodipodi.sourceforge.net/DTD/sodipodi-0.dtd"
   xmlns="http://www.w3.org/2000/svg"
   xmlns:svg="http://www.w3.org/2000/svg">
  <defs
     id="defs30" />
  <sodipodi:namedview
     id="namedview30"
     pagecolor="#ffffff"
     bordercolor="#000000"
     borderopacity="0.25"
     inkscape:showpageshadow="2"
     inkscape:pageopacity="0.0"
     inkscape:pagecheckerboard="0"
     inkscape:deskcolor="#d1d1d1"
     inkscape:document-units="pt"
     inkscape:zoom="1.6203366"
     inkscape:cx="207.98148"
     inkscape:cy="162.00338"
     inkscape:window-width="1920"
     inkscape:window-height="991"
     inkscape:window-x="-9"
     inkscape:window-y="-9"
     inkscape:window-maximized="1"
     inkscape:current-layer="svg30" />
  <g
     id="#e2d8befd"
     transform="translate(-5.5839793,-4.98)">
    <path
       fill="#e2d8be"
       opacity="1"
       d="M 25.69,60.34 C 46.09,27.02 84.19,6.39 123,4.98 c -0.02,17.39 0.06,34.77 -0.07,52.16 -4.62,-4.45 -9.39,-8.84 -14.89,-12.2 -2.73,-1.18 -4.87,-4.3 -8.15,-3.99 0.65,2.4 4.02,5.55 0.44,7.4 -3.24,4.92 -9.63,-0.44 -13.32,3.82 1.25,4.21 3.22,8.32 5.82,11.87 -6.25,3.88 -14,1.66 -20.78,3.12 -0.51,3.35 -0.1,6.73 1.07,9.87 -3.22,1.02 -6.55,1.33 -9.23,-0.92 -3.37,0.93 -7.52,2.23 -9.03,5.79 -2.16,3.19 -7.09,4.41 -6.87,9.1 -2.33,4.18 1.1,8.08 1.91,12.03 -0.09,5.9 6.03,4.76 9.88,4.77 2.42,0.08 4.89,0.29 7.11,1.37 -0.71,3.63 -1.94,7.15 -2.15,10.87 -1.49,0.39 -2.98,0.9 -4.54,0.94 -1.96,-3.42 -3.51,-7.07 -4.54,-10.88 -3.46,0.47 -5.29,4.5 -7.93,6.64 -3.57,2.51 -1.13,7.81 -4.81,10.26 0.11,-3.2 1.52,-6.59 -0.32,-9.56 -1.9,-1.4 -4,-2.55 -5.76,-4.15 3.02,0.24 4.73,-0.91 4.45,-4.06 4.15,-1.55 7.45,-4.87 5.58,-10.03 C 42.3,94.52 36.09,92.12 30,90.16 c -1.93,0.91 -3.73,2.09 -5.49,3.28 -2.39,6.42 -5.32,12.72 -7.05,19.33 1.8,4.24 4.49,8.17 5.03,12.86 1.32,3.71 4.81,5.85 7.58,8.42 3.5,-0.92 4.01,-6.88 8.08,-5.48 -1.57,4.79 -6.86,6.28 -11.01,8.26 -1.93,-1.45 -2.23,-3.79 -2.55,-6.01 -1.63,2.09 -0.68,4.62 -0.69,7.01 -5.14,1.34 -9.7,3.56 -12.49,8.33 0.92,2.25 1.68,4.53 2.14,6.95 -0.91,1.52 -1.88,3.03 -2.41,4.74 5.58,4.28 13.72,4.87 18.6,10.42 1,3.85 1.96,7.77 2.31,11.75 -3.17,0.66 -5.6,-1.55 -8.17,-2.96 -2.31,-0.79 -3.75,1.25 -5.07,2.74 l -0.59,0.12 C 10.05,161.14 4.73,140.54 6.45,119.97 c 0.75,-2.26 0.93,-4.53 0.54,-6.8 1.18,-14.2 4.78,-28.65 12.27,-40.89 1.77,-1.33 3.16,-5.03 5.75,-3.37 -0.12,1.97 -0.91,3.86 -0.84,5.84 1.72,1.78 3.49,4.18 6.73,1.88 6.25,0.01 12.08,-2.49 18.13,-3.63 9.87,-2.84 5.61,-14.87 6.26,-21.9 2.21,-4.82 -5.99,-6.94 -9.2,-5.93 -2.9,2.34 -6.33,3.72 -9.68,5.24 -2.71,3.62 -5.87,6.86 -8.72,10.37 -0.5,-0.11 -1.5,-0.33 -2,-0.44 M 71.38,42.36 c -1.22,1.08 -2.71,1.6 -4.29,1.9 -0.36,3.37 -0.33,7.03 2.07,9.65 3.54,0.78 7.41,-1.65 8.39,-5.1 -0.41,-4.06 0.64,-9.96 -6.17,-6.45 z"
       id="path1" />
  </g>
  <g
     id="#fdfdf9ff"
     transform="translate(-5.5839793,-4.98)">
    <path
       fill="#fdfdf9"
       opacity="1"
       d="M 123,4.98 124,5 c 0.01,21.67 -0.02,43.33 0.01,65 -0.02,5 -0.05,10 0,15 -0.01,32 -0.02,64 0,96 -0.03,22 0,44 -0.01,66 l -1,0.01 c 0,-21.34 -0.01,-42.67 0.01,-64.01 -0.19,-24.57 0.35,-49.17 -0.26,-73.73 0.11,-2.76 0.2,-5.52 0.24,-8.28 -0.01,-14.62 0.09,-29.23 -0.06,-43.85 0.13,-17.39 0.05,-34.77 0.07,-52.16 z"
       id="path2" />
  </g>
  <g
     id="#3b3e41ff"
     transform="translate(-5.5839793,-4.98)">
    <path
       fill="#3b3e41"
       opacity="1"
       d="m 124,5 h 1 c -0.02,21.67 0.02,43.33 -0.01,65 h -0.98 c -0.03,-21.67 0,-43.33 -0.01,-65 z"
       id="path3" />
  </g>
  <g
     id="#000002fe"
     transform="translate(-5.5839793,-4.98)">
    <path
       fill="#000002"
       opacity="1"
       d="m 125,5 1,-0.01 c 0,80.68 0.01,161.35 0,242.02 L 125,247 c -0.02,-22 0.03,-44 -0.01,-66 0.01,-32 0.02,-64 0,-96 0.01,-5 0.04,-10 0,-15 0.03,-21.67 -0.01,-43.33 0.01,-65 z"
       id="path4" />
  </g>
  <g
     id="#65706ffe"
     transform="translate(-5.5839793,-4.98)">
    <path
       fill="#65706f"
       opacity="1"
       d="m 126,4.99 1,0.03 c 0.08,12.91 -0.18,25.82 0.12,38.73 -0.08,63.83 -0.44,127.69 0.16,191.51 -0.17,3.9 -0.27,7.8 -0.31,11.71 l -0.97,0.04 c 0.01,-80.67 0,-161.34 0,-242.02 z"
       id="path5" />
  </g>
  <g
     id="#454f50ff"
     transform="translate(-5.5839793,-4.98)">
    <path
       fill="#454f50"
       opacity="1"
       d="m 127,5.02 c 2.73,0.01 8.2,0.03 10.93,0.04 l 0.27,0.87 c 0.23,1.49 2.09,5.07 -0.86,3.62 -2.75,-1.5 -4.34,1.1 -5.11,3.39 1.54,3.77 1.82,7.97 4.4,11.27 -7.17,9.55 -5.63,22.54 -4.5,33.74 1.64,-0.06 4.92,0.93 3.59,-1.86 -1.3,-2.76 2.05,-3.95 4.13,-4.49 -0.06,-1.17 -0.32,-2.32 -0.5,-3.48 2.48,0.26 4.94,0.67 7.44,0.82 0.59,-2.49 0.99,-5.03 1.51,-7.54 6.25,1.62 4.71,-6.91 9.58,-7.64 3.15,-1.27 6.42,0.84 9.23,2.15 -2.94,-0.26 -5.85,-0.7 -8.8,-0.78 -0.82,5.52 -3.63,10.41 -5.77,15.48 -1.8,3.33 -6.01,1.64 -9.1,1.55 0.86,2.69 -1.7,4.5 -2.26,6.9 0.64,2.62 0.63,5.26 0,7.89 0.61,4.08 5.34,5.32 7.19,8.72 3.45,2.38 -1.68,10.72 3.66,9.7 -0.48,2.57 -1.12,5.16 1.79,6.4 -4.71,2.98 -2.66,9.69 -4.79,14.25 4.02,1.11 9.1,-0.4 8.22,-5.18 0.74,4.79 6.36,2.56 9.76,4.1 2.64,0.09 3.93,3.94 6.7,2.86 1.54,-1.51 2.61,-3.52 4.55,-4.6 1.92,-0.4 3.8,0.62 5.65,1.02 0.52,2.68 -0.69,5.26 -2.38,7.26 0.39,1.88 1.92,3.36 2.52,5.2 -2.2,0.22 -4.29,0.78 -5.7,2.6 -3.87,-0.35 -6.86,3.88 -10.7,2.14 -2.65,-1.15 -4.06,1.99 -6.06,3.07 -2.6,1.17 -6.12,2 -6.87,5.2 -0.81,7.38 -8.23,10.59 -13.7,14.21 -1.06,-0.57 -2.03,-1.29 -3.09,-1.86 -2.42,1.12 -3.92,3.47 -5.96,5.11 -2.42,-0.91 -2.61,-3.72 -3.3,-5.82 -1.48,-5.44 2,-10.71 0.63,-16.22 0.88,-5.22 -0.52,-10.98 1.93,-15.84 3.87,0.9 6.98,-1.11 10.46,-2.01 3.26,-3.09 2.01,-8.14 1.14,-12.08 -1.68,-2.24 -3.84,-4.14 -5.76,-6.18 -0.99,0.44 -1.62,2.54 -2.84,1.77 -1.96,-1.08 0.01,-3.39 -1.09,-4.96 -1.96,-6.41 -6.42,-13.12 -3.47,-19.9 -1.24,-7.37 2.65,-15.96 -2.55,-22.16 C 126.82,30.84 127.08,17.93 127,5.02 m 17.36,104.37 c -1.78,1.19 -3.76,2.02 -5.62,3.05 -2.55,0.13 -5.85,-1.71 -7.59,0.7 0.43,1.08 0.97,2.12 1.44,3.19 2.67,4.86 -2.08,9.83 -1.26,14.9 -0.47,3.56 0.74,7.14 0.01,10.67 1.52,2.22 1.83,-0.63 2.87,-1.71 6.16,-1.13 12.72,-2.2 17.62,-6.4 1.37,-6.49 -0.17,-13.01 -0.03,-19.55 -2.44,-1.49 -4.38,-5.92 -7.44,-4.85 z"
       id="path6" />
  </g>
  <g
     id="#495354fd"
     transform="translate(-5.5839793,-4.98)">
    <path
       fill="#495354"
       opacity="1"
       d="m 138.2,5.93 c 16.51,0.29 32.29,6.57 46.81,14.05 33.65,17.6 57.09,52.45 62.07,89.96 -2.07,1.66 -4.58,2.58 -7.14,3.13 1.21,-2.22 2.84,-4.16 5.32,-4.97 -2.8,-0.07 -5.59,-0.11 -8.38,-0.14 1.99,-1.32 4.16,-3.16 4.05,-5.78 -5.79,-4.26 -13.03,-6.76 -17.97,-12.15 -2.86,-3.01 -3.65,-7.16 -5.25,-10.86 -2.74,-5.06 -5.24,-10.38 -10.19,-13.7 -3.09,-6.28 -6.39,-12.9 -13.1,-15.98 -2.78,-2.76 -6.47,2.19 -9.42,-0.45 -7.3,-2.57 -11.47,-9.24 -17.89,-13.13 -2.81,-1.31 -6.08,-3.42 -9.23,-2.15 -4.87,0.73 -3.33,9.26 -9.58,7.64 -0.52,2.51 -0.92,5.05 -1.51,7.54 -2.5,-0.15 -4.96,-0.56 -7.44,-0.82 0.18,1.16 0.44,2.31 0.5,3.48 -2.08,0.54 -5.43,1.73 -4.13,4.49 1.33,2.79 -1.95,1.8 -3.59,1.86 -1.13,-11.2 -2.67,-24.19 4.5,-33.74 -2.58,-3.3 -2.86,-7.5 -4.4,-11.27 0.77,-2.29 2.36,-4.89 5.11,-3.39 2.95,1.45 1.09,-2.13 0.86,-3.62 z"
       id="path7" />
  </g>
  <g
     id="#434d4eff"
     transform="translate(-5.5839793,-4.98)">
    <path
       fill="#434d4e"
       opacity="1"
       d="m 158.31,35.13 c 2.95,0.08 5.86,0.52 8.8,0.78 6.42,3.89 10.59,10.56 17.89,13.13 2.95,2.64 6.64,-2.31 9.42,0.45 6.71,3.08 10.01,9.7 13.1,15.98 4.95,3.32 7.45,8.64 10.19,13.7 1.6,3.7 2.39,7.85 5.25,10.86 4.94,5.39 12.18,7.89 17.97,12.15 0.11,2.62 -2.06,4.46 -4.05,5.78 -6.27,0.17 -12.52,-0.11 -18.73,-0.89 -1.28,1.35 -0.12,3.22 -0.33,4.83 -0.44,2.03 -1.18,3.99 -2.11,5.84 -4.37,1.47 -10.5,-0.76 -13.86,3.07 -1.06,1.03 -2.48,1.58 -3.64,2.49 -0.76,2.74 -0.64,5.62 -0.91,8.43 2.95,1.57 8.54,1.65 5.67,7.29 -0.74,2.97 1.72,4.75 2.82,7.06 -1.61,4.53 2.3,8.06 4.45,11.63 2.69,1.66 5.2,3.56 7.57,5.65 1.9,3.23 -0.62,8.44 -4.49,7.59 -0.07,-2.11 -0.85,-3.54 -3.16,-2.97 0.87,3.28 -0.15,6.6 0.37,9.91 -3.72,3.09 -9.53,2.77 -13.93,4.72 -2.19,2.83 -5.91,4.54 -6.75,8.28 -1.85,3.59 -1.88,9.33 -6.15,10.76 -4.26,0.12 -8.46,-0.86 -12.65,-1.48 -2.15,0.32 -3.64,2.26 -5.43,3.37 -2.37,0.36 -5.08,0.63 -6.43,-1.81 -0.02,-3.6 0.15,-7.18 -0.05,-10.77 2.37,-0.54 3.38,2.83 5.76,1.91 3.64,-1.12 7.13,-2.71 10.65,-4.17 0.08,-0.83 0.11,-1.67 0.11,-2.5 -4.8,-1.77 -10.09,-1.11 -14.79,0.61 -3.03,1.4 -3.61,-3.36 -6.65,-2.15 -2.55,-5.96 -10.08,-8.24 -16.13,-7.13 -2.09,-1.8 -4.64,-0.8 -7.06,-0.32 -0.08,1.36 -0.14,2.88 1.15,3.71 1.48,0 2.54,-1.27 3.84,-1.81 1.83,1.51 5.22,3.18 2.99,5.88 -2.1,2.68 0.9,6.12 -1.29,8.71 -2.36,1.2 -4.96,1.79 -7.44,2.66 0.73,7.45 -3.92,14.09 -2.15,21.62 1.51,5.71 -0.24,11.55 -0.85,17.28 -0.6,-63.82 -0.24,-127.68 -0.16,-191.51 5.2,6.2 1.31,14.79 2.55,22.16 -2.95,6.78 1.51,13.49 3.47,19.9 1.1,1.57 -0.87,3.88 1.09,4.96 1.22,0.77 1.85,-1.33 2.84,-1.77 1.92,2.04 4.08,3.94 5.76,6.18 0.87,3.94 2.12,8.99 -1.14,12.08 -3.48,0.9 -6.59,2.91 -10.46,2.01 -2.45,4.86 -1.05,10.62 -1.93,15.84 1.37,5.51 -2.11,10.78 -0.63,16.22 0.69,2.1 0.88,4.91 3.3,5.82 2.04,-1.64 3.54,-3.99 5.96,-5.11 1.06,0.57 2.03,1.29 3.09,1.86 5.47,-3.62 12.89,-6.83 13.7,-14.21 0.75,-3.2 4.27,-4.03 6.87,-5.2 2,-1.08 3.41,-4.22 6.06,-3.07 3.84,1.74 6.83,-2.49 10.7,-2.14 1.41,-1.82 3.5,-2.38 5.7,-2.6 -0.6,-1.84 -2.13,-3.32 -2.52,-5.2 1.69,-2 2.9,-4.58 2.38,-7.26 -1.85,-0.4 -3.73,-1.42 -5.65,-1.02 -1.94,1.08 -3.01,3.09 -4.55,4.6 -2.77,1.08 -4.06,-2.77 -6.7,-2.86 -3.4,-1.54 -9.02,0.69 -9.76,-4.1 0.88,4.78 -4.2,6.29 -8.22,5.18 2.13,-4.56 0.08,-11.27 4.79,-14.25 -2.91,-1.24 -2.27,-3.83 -1.79,-6.4 -5.34,1.02 -0.21,-7.32 -3.66,-9.7 -1.85,-3.4 -6.58,-4.64 -7.19,-8.72 0.63,-2.63 0.64,-5.27 0,-7.89 0.56,-2.4 3.12,-4.21 2.26,-6.9 3.09,0.09 7.3,1.78 9.1,-1.55 2.14,-5.07 4.95,-9.96 5.77,-15.48 z"
       id="path8" />
  </g>
  <g
     id="#c9bea3ff"
     transform="translate(-5.5839793,-4.98)">
    <path
       fill="#c9bea3"
       opacity="1"
       d="m 99.89,40.95 c 3.28,-0.31 5.42,2.81 8.15,3.99 5.5,3.36 10.27,7.75 14.89,12.2 0.15,14.62 0.05,29.23 0.06,43.85 l -0.98,0.02 c 1.57,-5.72 -2.38,-18.15 -10.12,-14.17 -4.87,2.6 -10.25,3.42 -15.67,2.32 -3.12,2.72 -5.12,9.1 0.02,10.77 -3.89,1.89 -5.22,5.93 -5.44,9.99 -0.27,0.26 -0.81,0.78 -1.09,1.03 -3.04,2.59 -5.38,6.4 -9.44,7.49 -3.65,0.91 -5.09,5.13 -8.36,6.55 -3.4,0.7 -5.06,-3.02 -7.17,-4.95 0.21,-3.72 1.44,-7.24 2.15,-10.87 -2.22,-1.08 -4.69,-1.29 -7.11,-1.37 2.02,-0.66 4.08,-1.2 6.04,-2.01 -0.22,-1.54 -0.64,-3.03 -0.88,-4.56 0.72,-0.14 3.07,1.6 2.59,0.08 -0.91,-2.31 2.05,-3.04 3.1,-4.59 0.12,-1.46 0.16,-2.92 0.23,-4.38 -0.99,0.19 -1.97,0.37 -2.96,0.55 0.13,-1.8 1.76,-4.16 3.78,-3.45 2.69,0.83 6.04,-1.21 5.47,-4.26 -3.29,1.37 -6.81,1.7 -10.17,2.9 -0.89,-4.28 4.75,-3.41 7.05,-5.67 -2.44,0.19 -2.02,-2.19 -0.1,-2.08 4.55,0.57 9.83,-1.23 12.19,-5.39 -2.52,0.47 -4.75,1.76 -7.12,2.64 -1.96,-0.21 -3.91,-0.5 -5.88,-0.55 -1.17,-3.14 -1.58,-6.52 -1.07,-9.87 6.78,-1.46 14.53,0.76 20.78,-3.12 -2.6,-3.55 -4.57,-7.66 -5.82,-11.87 3.69,-4.26 10.08,1.1 13.32,-3.82 3.58,-1.85 0.21,-5 -0.44,-7.4 z"
       id="path9" />
  </g>
  <g
     id="#d2c7adff"
     transform="translate(-5.5839793,-4.98)">
    <path
       fill="#d2c7ad"
       opacity="1"
       d="m 71.38,42.36 c 6.81,-3.51 5.76,2.39 6.17,6.45 -0.98,3.45 -4.85,5.88 -8.39,5.1 -2.4,-2.62 -2.43,-6.28 -2.07,-9.65 1.58,-0.3 3.07,-0.82 4.29,-1.9 z"
       id="path10" />
  </g>
  <g
     id="#c5baa0ff"
     transform="translate(-5.5839793,-4.98)">
    <path
       fill="#c5baa0"
       opacity="1"
       d="m 46.09,45.17 c 3.21,-1.01 11.41,1.11 9.2,5.93 -0.65,7.03 3.61,19.06 -6.26,21.9 -6.05,1.14 -11.88,3.64 -18.13,3.63 -3.24,2.3 -5.01,-0.1 -6.73,-1.88 -0.07,-1.98 0.72,-3.87 0.84,-5.84 -0.01,-1.75 -0.03,-5.24 -0.03,-6.99 0.18,-0.4 0.53,-1.19 0.71,-1.58 0.5,0.11 1.5,0.33 2,0.44 2.85,-3.51 6.01,-6.75 8.72,-10.37 3.35,-1.52 6.78,-2.9 9.68,-5.24 z"
       id="path11" />
    <path
       fill="#c5baa0"
       opacity="1"
       d="m 79,77.58 c 2.37,-0.88 4.6,-2.17 7.12,-2.64 -2.36,4.16 -7.64,5.96 -12.19,5.39 -1.92,-0.11 -2.34,2.27 0.1,2.08 -2.3,2.26 -7.94,1.39 -7.05,5.67 3.36,-1.2 6.88,-1.53 10.17,-2.9 0.57,3.05 -2.78,5.09 -5.47,4.26 -2.02,-0.71 -3.65,1.65 -3.78,3.45 0.99,-0.18 1.97,-0.36 2.96,-0.55 -0.07,1.46 -0.11,2.92 -0.23,4.38 -1.05,1.55 -4.01,2.28 -3.1,4.59 0.48,1.52 -1.87,-0.22 -2.59,-0.08 0.24,1.53 0.66,3.02 0.88,4.56 -1.96,0.81 -4.02,1.35 -6.04,2.01 -3.85,-0.01 -9.97,1.13 -9.88,-4.77 -0.81,-3.95 -4.24,-7.85 -1.91,-12.03 -0.22,-4.69 4.71,-5.91 6.87,-9.1 1.51,-3.56 5.66,-4.86 9.03,-5.79 2.68,2.25 6.01,1.94 9.23,0.92 1.97,0.05 3.92,0.34 5.88,0.55 z"
       id="path12" />
  </g>
  <g
     id="#cac2aae4"
     transform="translate(-5.5839793,-4.98)">
    <path
       fill="#cac2aa"
       opacity="0.89"
       d="m 19.26,72.28 c 0.07,-3.92 3.26,-7.82 5.72,-10.36 0,1.75 0.02,5.24 0.03,6.99 -2.59,-1.66 -3.98,2.04 -5.75,3.37 z"
       id="path13" />
  </g>
  <g
     id="#2d2e32ff"
     transform="translate(-5.5839793,-4.98)">
    <path
       fill="#2d2e32"
       opacity="1"
       d="m 124.01,70 h 0.98 c 0.04,5 0.01,10 0,15 h -0.98 c -0.05,-5 -0.02,-10 0,-15 z"
       id="path14" />
  </g>
  <g
     id="#3d4245ff"
     transform="translate(-5.5839793,-4.98)">
    <path
       fill="#3d4245"
       opacity="1"
       d="m 124.01,85 h 0.98 c 0.02,32 0.01,64 0,96 h -0.98 c -0.02,-32 -0.01,-64 0,-96 z"
       id="path15" />
  </g>
  <g
     id="#e3d9bfff"
     transform="translate(-5.5839793,-4.98)">
    <path
       fill="#e3d9bf"
       opacity="1"
       d="m 111.89,86.84 c 7.74,-3.98 11.69,8.45 10.12,14.17 0.01,2.76 -0.29,5.63 0.74,8.26 0.61,24.56 0.07,49.16 0.26,73.73 -3.77,3.03 -2.23,-3.8 -2.6,-6.28 0.79,-3.87 1.6,-7.86 0.93,-11.83 0.61,-18.23 2.08,-36.83 -1.47,-54.87 -2.92,0.39 -4.88,3.03 -7.16,4.68 -2.24,-1.48 -4.46,-2.99 -6.65,-4.54 -1.55,0.2 -1.42,2.88 -3.08,2.75 -1.33,-0.58 -2.51,-1.46 -3.72,-2.24 0.07,-2.67 1.05,-5.23 1.54,-7.84 -3.16,0.01 -2.69,4.21 -3.92,6.15 -1.13,2.44 -3.34,7.65 -6.62,4.79 -0.13,-0.71 -0.41,-2.11 -0.55,-2.82 0.28,-0.25 0.82,-0.77 1.09,-1.03 4.06,-0.96 6.49,-4.8 7.09,-8.7 -0.41,-0.32 -1.24,-0.96 -1.65,-1.29 -5.14,-1.67 -3.14,-8.05 -0.02,-10.77 5.42,1.1 10.8,0.28 15.67,-2.32 z"
       id="path16" />
  </g>
  <g
     id="#c7bca2ff"
     transform="translate(-5.5839793,-4.98)">
    <path
       fill="#c7bca2"
       opacity="1"
       d="m 24.51,93.44 c 1.76,-1.19 3.56,-2.37 5.49,-3.28 6.09,1.96 12.3,4.36 16.87,9.04 1.87,5.16 -1.43,8.48 -5.58,10.03 0.28,3.15 -1.43,4.3 -4.45,4.06 1.76,1.6 3.86,2.75 5.76,4.15 1.84,2.97 0.43,6.36 0.32,9.56 -1.28,1.34 -2.89,2.19 -4.77,1.57 -4.07,-1.4 -4.58,4.56 -8.08,5.48 -2.77,-2.57 -6.26,-4.71 -7.58,-8.42 -0.54,-4.69 -3.23,-8.62 -5.03,-12.86 1.73,-6.61 4.66,-12.91 7.05,-19.33 z"
       id="path17" />
  </g>
  <g
     id="#d3c9afff"
     transform="translate(-5.5839793,-4.98)">
    <path
       fill="#d3c9af"
       opacity="1"
       d="m 96.24,99.93 c 0.41,0.33 1.24,0.97 1.65,1.29 -0.6,3.9 -3.03,7.74 -7.09,8.7 0.22,-4.06 1.55,-8.1 5.44,-9.99 z"
       id="path18" />
  </g>
  <g
     id="#d0c6aafe"
     transform="translate(-5.5839793,-4.98)">
    <path
       fill="#d0c6aa"
       opacity="1"
       d="m 122.01,101.01 0.98,-0.02 c -0.04,2.76 -0.13,5.52 -0.24,8.28 -1.03,-2.63 -0.73,-5.5 -0.74,-8.26 z"
       id="path19" />
  </g>
  <g
     id="#e7ddc3fe"
     transform="translate(-5.5839793,-4.98)">
    <path
       fill="#e7ddc3"
       opacity="1"
       d="m 96.88,108.98 c 1.23,-1.94 0.76,-6.14 3.92,-6.15 -0.49,2.61 -1.47,5.17 -1.54,7.84 1.21,0.78 2.39,1.66 3.72,2.24 1.66,0.13 1.53,-2.55 3.08,-2.75 2.19,1.55 4.41,3.06 6.65,4.54 2.28,-1.65 4.24,-4.29 7.16,-4.68 3.55,18.04 2.08,36.64 1.47,54.87 0.67,3.97 -0.14,7.96 -0.93,11.83 0.37,2.48 -1.17,9.31 2.6,6.28 -0.02,21.34 -0.01,42.67 -0.01,64.01 -3.49,0.26 -6.86,-0.26 -10.17,-1.24 2.23,-4.55 1.27,-9.68 1.99,-14.53 -2.5,-4.06 -10.32,-3.44 -10.96,1.65 -0.46,4.1 -2.1,7.81 -4.86,10.86 -34.39,-8.1 -64.97,-32.06 -80.19,-63.95 1.32,-1.49 2.76,-3.53 5.07,-2.74 2.57,1.41 5,3.62 8.17,2.96 -0.35,-3.98 -1.31,-7.9 -2.31,-11.75 -4.88,-5.55 -13.02,-6.14 -18.6,-10.42 0.53,-1.71 1.5,-3.22 2.41,-4.74 -0.46,-2.42 -1.22,-4.7 -2.14,-6.95 2.79,-4.77 7.35,-6.99 12.49,-8.33 0.01,-2.39 -0.94,-4.92 0.69,-7.01 0.32,2.22 0.62,4.56 2.55,6.01 4.15,-1.98 9.44,-3.47 11.01,-8.26 1.88,0.62 3.49,-0.23 4.77,-1.57 3.68,-2.45 1.24,-7.75 4.81,-10.26 2.64,-2.14 4.47,-6.17 7.93,-6.64 1.03,3.81 2.58,7.46 4.54,10.88 1.56,-0.04 3.05,-0.55 4.54,-0.94 2.11,1.93 3.77,5.65 7.17,4.95 3.27,-1.42 4.71,-5.64 8.36,-6.55 4.06,-1.09 6.4,-4.9 9.44,-7.49 0.14,0.71 0.42,2.11 0.55,2.82 3.28,2.86 5.49,-2.35 6.62,-4.79 m -46.54,27.38 c -1.19,1.09 -3.88,1.45 -3.27,3.58 1.48,2.93 2.13,6.3 4.09,8.97 1.64,-0.02 4.9,-0.05 6.53,-0.06 0.73,-2.25 4.13,-5.86 0.96,-7.46 -3.22,-1.05 -4.33,-6.7 -8.31,-5.03 m 47.44,52.59 C 95.23,187.72 91.8,187.74 91,191 c 0.62,2.53 3.45,3.14 5.72,3.28 0.77,1.2 0.87,2.97 2.13,3.77 0.33,1.41 1.73,2.23 3.14,2.02 l 0.05,0.89 c 1.46,0.03 4.37,0.1 5.83,0.13 0.09,1.32 0.18,2.65 0.26,3.97 5.34,-0.56 6.79,-6.74 8.73,-10.93 -1.11,-1.73 -3.05,-0.06 -4.56,0.12 -0.3,1.49 -0.58,3.11 -2.09,3.86 0.01,-5.85 -4.21,-10.7 -9.27,-13.1 -2.5,-0.72 -3,2.14 -3.16,3.94 z"
       id="path20" />
  </g>
  <g
     id="#475052ff"
     transform="translate(-5.5839793,-4.98)">
    <path
       fill="#475052"
       opacity="1"
       d="m 218.15,107.07 c 6.21,0.78 12.46,1.06 18.73,0.89 2.79,0.03 5.58,0.07 8.38,0.14 -2.48,0.81 -4.11,2.75 -5.32,4.97 2.56,-0.55 5.07,-1.47 7.14,-3.13 -0.08,0.73 -0.23,2.19 -0.3,2.92 -4.05,2.41 -8.99,2.17 -13.51,3.09 0.53,-4.24 -2.84,-1.71 -5.19,-1.18 -2.6,-3.01 -6.73,-0.71 -9.71,0.56 -0.95,1.68 -1.69,3.47 -2.61,5.16 -1.21,-0.11 -2.41,-0.34 -3.63,-0.39 -3.75,2.87 -7.7,5.72 -10.03,9.93 3.25,2.06 3.14,6.05 4.47,9.32 2.11,4.26 0.13,9.63 2.6,13.61 2.38,0.07 5.72,-2.25 7.01,0.81 1.98,4.57 4.04,9.37 4.13,14.45 -0.25,2.9 -2.99,7.11 0.65,8.85 3.08,1.5 -2.01,4.7 -2.44,1.07 -2.32,2.54 -5.2,6.79 -8.84,3.5 -3.18,0.87 -8.04,-0.1 -9.63,3.39 -2.37,4.79 -8.4,6.61 -9.9,12.03 -1.44,6.81 -9.35,6.13 -14.72,7.63 -1.38,4.4 -6.95,4.08 -10.38,6.22 -1.96,-2.09 -4.28,-3.73 -6.57,-5.41 -2.39,-3.02 -3.95,-6.6 -6.34,-9.61 -2.85,3.54 -7.09,4.77 -11.1,6.3 -2.22,5.29 0.02,5.03 2.94,5.91 -0.43,1.57 -1.07,3.08 -1.61,4.62 -1.65,0.41 -3.35,0.56 -5.02,0.84 -0.54,1.85 -0.58,5.2 -3.4,4.46 -0.31,-1.76 1,-2.9 1.96,-4.14 -0.7,-2.3 -2.12,-4.69 -4.91,-3.92 4.21,10.85 -0.85,22.18 -2.04,33.04 -0.37,4.77 5.88,2.57 9.03,3.05 l 0.01,0.96 c -2.76,-0.01 -8.27,-0.03 -11.03,-0.04 0.04,-3.91 0.14,-7.81 0.31,-11.71 0.61,-5.73 2.36,-11.57 0.85,-17.28 -1.77,-7.53 2.88,-14.17 2.15,-21.62 2.48,-0.87 5.08,-1.46 7.44,-2.66 2.19,-2.59 -0.81,-6.03 1.29,-8.71 2.23,-2.7 -1.16,-4.37 -2.99,-5.88 -1.3,0.54 -2.36,1.81 -3.84,1.81 -1.29,-0.83 -1.23,-2.35 -1.15,-3.71 2.42,-0.48 4.97,-1.48 7.06,0.32 6.05,-1.11 13.58,1.17 16.13,7.13 3.04,-1.21 3.62,3.55 6.65,2.15 4.7,-1.72 9.99,-2.38 14.79,-0.61 0,0.83 -0.03,1.67 -0.11,2.5 -3.52,1.46 -7.01,3.05 -10.65,4.17 -2.38,0.92 -3.39,-2.45 -5.76,-1.91 0.2,3.59 0.03,7.17 0.05,10.77 1.35,2.44 4.06,2.17 6.43,1.81 1.79,-1.11 3.28,-3.05 5.43,-3.37 4.19,0.62 8.39,1.6 12.65,1.48 4.27,-1.43 4.3,-7.17 6.15,-10.76 0.84,-3.74 4.56,-5.45 6.75,-8.28 4.4,-1.95 10.21,-1.63 13.93,-4.72 -0.52,-3.31 0.5,-6.63 -0.37,-9.91 2.31,-0.57 3.09,0.86 3.16,2.97 3.87,0.85 6.39,-4.36 4.49,-7.59 -2.37,-2.09 -4.88,-3.99 -7.57,-5.65 -2.15,-3.57 -6.06,-7.1 -4.45,-11.63 -1.1,-2.31 -3.56,-4.09 -2.82,-7.06 2.87,-5.64 -2.72,-5.72 -5.67,-7.29 0.27,-2.81 0.15,-5.69 0.91,-8.43 1.16,-0.91 2.58,-1.46 3.64,-2.49 3.36,-3.83 9.49,-1.6 13.86,-3.07 0.93,-1.85 1.67,-3.81 2.11,-5.84 0.21,-1.61 -0.95,-3.48 0.33,-4.83 z"
       id="path21" />
  </g>
  <g
     id="#485253ff"
     transform="translate(-5.5839793,-4.98)">
    <path
       fill="#485253"
       opacity="1"
       d="m 144.36,109.39 c 3.06,-1.07 5,3.36 7.44,4.85 -0.14,6.54 1.4,13.06 0.03,19.55 -4.9,4.2 -11.46,5.27 -17.62,6.4 -1.04,1.08 -1.35,3.93 -2.87,1.71 0.73,-3.53 -0.48,-7.11 -0.01,-10.67 -0.82,-5.07 3.93,-10.04 1.26,-14.9 -0.47,-1.07 -1.01,-2.11 -1.44,-3.19 1.74,-2.41 5.04,-0.57 7.59,-0.7 1.86,-1.03 3.84,-1.86 5.62,-3.05 z"
       id="path22" />
  </g>
  <g
     id="#8882739b"
     transform="translate(-5.5839793,-4.98)">
    <path
       fill="#888273"
       opacity="0.61"
       d="m 6.45,119.97 c -0.8,-1.83 -1.68,-6.02 0.54,-6.8 0.39,2.27 0.21,4.54 -0.54,6.8 z"
       id="path23" />
  </g>
  <g
     id="#495254fd"
     transform="translate(-5.5839793,-4.98)">
    <path
       fill="#495254"
       opacity="1"
       d="m 218.37,115.33 c 2.98,-1.27 7.11,-3.57 9.71,-0.56 2.35,-0.53 5.72,-3.06 5.19,1.18 4.52,-0.92 9.46,-0.68 13.51,-3.09 4.33,23.47 -2.17,47.6 -12.04,68.91 l -0.86,0.23 c 0.11,-2.8 1.34,-5.83 -0.45,-8.36 -0.73,-2.42 -3.58,-2.64 -5.43,-3.84 0.02,-2.88 3.27,-4.14 4.18,-6.7 0.6,-1.75 2.75,-1.7 3.88,-2.97 1.92,-1.55 6.32,-1.59 5.87,-4.93 -2.44,-3.07 -6.32,0.11 -8.67,1.7 -0.83,-1.12 -1.51,-2.34 -2.41,-3.39 -1.92,0.12 -3.83,0.13 -5.75,0.05 -1.91,1.58 -3.73,3.29 -5.19,5.3 1.18,0.93 3.63,0.64 4.04,2.22 -1.75,2.11 -3.21,4.38 -3.64,7.14 -0.09,-5.08 -2.15,-9.88 -4.13,-14.45 -1.29,-3.06 -4.63,-0.74 -7.01,-0.81 -2.47,-3.98 -0.49,-9.35 -2.6,-13.61 -1.33,-3.27 -1.22,-7.26 -4.47,-9.32 2.33,-4.21 6.28,-7.06 10.03,-9.93 1.22,0.05 2.42,0.28 3.63,0.39 0.92,-1.69 1.66,-3.48 2.61,-5.16 z"
       id="path24" />
  </g>
  <g
     id="#d4c9afff"
     transform="translate(-5.5839793,-4.98)">
    <path
       fill="#d4c9af"
       opacity="1"
       d="m 50.34,136.36 c 3.98,-1.67 5.09,3.98 8.31,5.03 3.17,1.6 -0.23,5.21 -0.96,7.46 -1.63,0.01 -4.89,0.04 -6.53,0.06 -1.96,-2.67 -2.61,-6.04 -4.09,-8.97 -0.61,-2.13 2.08,-2.49 3.27,-3.58 z"
       id="path25" />
  </g>
  <g
     id="#4a5455fd"
     transform="translate(-5.5839793,-4.98)">
    <path
       fill="#4a5455"
       opacity="1"
       d="m 225.1,153.56 c 1.92,0.08 3.83,0.07 5.75,-0.05 0.9,1.05 1.58,2.27 2.41,3.39 2.35,-1.59 6.23,-4.77 8.67,-1.7 0.45,3.34 -3.95,3.38 -5.87,4.93 -1.13,1.27 -3.28,1.22 -3.88,2.97 -0.91,2.56 -4.16,3.82 -4.18,6.7 1.85,1.2 4.7,1.42 5.43,3.84 1.79,2.53 0.56,5.56 0.45,8.36 -17.68,36.07 -55.77,61.57 -95.89,64.05 -3.15,-0.48 -9.4,1.72 -9.03,-3.05 1.19,-10.86 6.25,-22.19 2.04,-33.04 2.79,-0.77 4.21,1.62 4.91,3.92 -0.96,1.24 -2.27,2.38 -1.96,4.14 2.82,0.74 2.86,-2.61 3.4,-4.46 1.67,-0.28 3.37,-0.43 5.02,-0.84 0.54,-1.54 1.18,-3.05 1.61,-4.62 -2.92,-0.88 -5.16,-0.62 -2.94,-5.91 4.01,-1.53 8.25,-2.76 11.1,-6.3 2.39,3.01 3.95,6.59 6.34,9.61 2.29,1.68 4.61,3.32 6.57,5.41 3.43,-2.14 9,-1.82 10.38,-6.22 5.37,-1.5 13.28,-0.82 14.72,-7.63 1.5,-5.42 7.53,-7.24 9.9,-12.03 1.59,-3.49 6.45,-2.52 9.63,-3.39 3.64,3.29 6.52,-0.96 8.84,-3.5 0.43,3.63 5.52,0.43 2.44,-1.07 -3.64,-1.74 -0.9,-5.95 -0.65,-8.85 0.43,-2.76 1.89,-5.03 3.64,-7.14 -0.41,-1.58 -2.86,-1.29 -4.04,-2.22 1.46,-2.01 3.28,-3.72 5.19,-5.3 z"
       id="path26" />
  </g>
  <g
     id="#2e3235ff"
     transform="translate(-5.5839793,-4.98)">
    <path
       fill="#2e3235"
       opacity="1"
       d="m 124.01,181 h 0.98 c 0.04,22 -0.01,44 0.01,66 h -1 c 0.01,-22 -0.02,-44 0.01,-66 z"
       id="path27" />
  </g>
  <g
     id="#e4d9bfff"
     transform="translate(-5.5839793,-4.98)">
    <path
       fill="#e4d9bf"
       opacity="1"
       d="m 97.78,188.95 c 0.16,-1.8 0.66,-4.66 3.16,-3.94 5.06,2.4 9.28,7.25 9.27,13.1 1.51,-0.75 1.79,-2.37 2.09,-3.86 1.51,-0.18 3.45,-1.85 4.56,-0.12 -1.94,4.19 -3.39,10.37 -8.73,10.93 -0.08,-1.32 -0.17,-2.65 -0.26,-3.97 -1.46,-0.03 -4.37,-0.1 -5.83,-0.13 l -0.05,-0.89 c 1.73,-0.28 3.93,0.45 5.35,-0.76 3.39,-3.97 -4.81,-10.15 -7.62,-5.61 -1.08,1.12 -0.56,2.94 -0.87,4.35 -1.26,-0.8 -1.36,-2.57 -2.13,-3.77 -2.27,-0.14 -5.1,-0.75 -5.72,-3.28 0.8,-3.26 4.23,-3.28 6.78,-2.05 z"
       id="path28" />
  </g>
  <g
     id="#d7ccb2ff"
     transform="translate(-5.5839793,-4.98)">
    <path
       fill="#d7ccb2"
       opacity="1"
       d="m 99.72,193.7 c 2.81,-4.54 11.01,1.64 7.62,5.61 -1.42,1.21 -3.62,0.48 -5.35,0.76 -1.41,0.21 -2.81,-0.61 -3.14,-2.02 0.31,-1.41 -0.21,-3.23 0.87,-4.35 z"
       id="path29" />
  </g>
  <g
     id="#dcd2b8fc"
     transform="translate(-5.5839793,-4.98)">
    <path
       fill="#dcd2b8"
       opacity="1"
       d="m 103.86,232.89 c 0.64,-5.09 8.46,-5.71 10.96,-1.65 -0.72,4.85 0.24,9.98 -1.99,14.53 -4.66,0.64 -9.31,-0.95 -13.83,-2.02 2.76,-3.05 4.4,-6.76 4.86,-10.86 z"
       id="path30" />
  </g>
</svg>
