<?xml version="1.0" encoding="UTF-8"?>
<svg width="241.51285pt" height="241.43991pt" version="1.1" viewBox="0 0 241.51285 241.43991" xmlns="http://www.w3.org/2000/svg">
 <g id="#262724fd" transform="translate(-5.2533165,-5.2358337)">
  <path d="m85.21 12.4c20.33-7.14 42.58-9.12 63.79-5.14l0.35 1.06c-2.47 1.32-8.73-2.66-6.63 1.91-1.69-0.45-2.52-2.08-3.74-3.17-1.88 0.83-5.51 0.98-5 3.82 1.77-0.17 3.57-0.38 5.14 0.65 2.89 0.15 5.86-0.35 8.64 0.71 1.18 2.49 2.63 4.95 3.26 7.65-1.89 2.04-3.43 4.79-5.95 6.01-1.53-0.88-3.1-1.89-4.95-1.38 2.61-4.15-2.94-4.28-2.64-7.24 0.09-3.17-3.84-3.6-6.02-4.72-0.15-3.14-3.05-4.15-4.82-6.28-1.56-0.12-3.06 0.61-4.56 0.94-0.61 2.5 2.36 3.63 2.99 5.79-0.4 1.42-1.87 2.55-3.36 2.48-1.95-0.15-3.45 1.88-5.42 1.26-2.5-0.64-6.26-1.64-4.64-4.91-4.87 0.25-5.3 7.82-10.93 7.13-2.08 1.4-3.13-2.57-5.32-1.79-0.8 1.36-0.76 4.69-3.07 3.38-1.53-0.9-2.44 0.8-3.52 1.56-0.94-1.25-1.51-2.73-2.23-4.12-2.07 1.99-2.64 5-4.51 7.16 0.13 0.64 1.61 2.69 1.9 0.99 2.19-3.41 5.61 1.57 6.72 3.59-1.5 4.98-6.96 7.62-11.9 7.23 1.18-1.63 6.4-3.62 2.34-4.96-2.22 1.9-4.83 3.27-7.01 5.21-1.12 4.83 5.46 5.34 8.57 3.54 3.95 0.57 9.04-3.35 12.46 0.02-5.54-0.36-10.9 0.93-16.26 2.07-5.05 0.59-11.26-5.82-15.2-1.15-2.75 2.47 2.18 7.5-1.39 9.59-1.85 2.51-5.98 0.66-7.29 3.72-2.66 5.06-10.59 0.9-13.29 5.78-0.5 1.76-4.33 2.47-2.88 4.43 2.74 3.36-3.7 5.4-5.83 5.79-4.77 2.87-9.14-1.15-13.91-1.13 13.9-26.46 37.83-47.61 66.11-57.48z" fill="#262724"/>
 </g>
 <g id="#282a26ff" transform="translate(-5.2533165,-5.2358337)" fill="#282a26">
  <path d="m122.08 7.22c1.5-0.33 3-1.06 4.56-0.94 1.77 2.13 4.67 3.14 4.82 6.28 2.18 1.12 6.11 1.55 6.02 4.72-0.3 2.96 5.25 3.09 2.64 7.24 1.85-0.51 3.42 0.5 4.95 1.38 2.52-1.22 4.06-3.97 5.95-6.01-0.63-2.7-2.08-5.16-3.26-7.65-2.78-1.06-5.75-0.56-8.64-0.71-1.57-1.03-3.37-0.82-5.14-0.65-0.51-2.84 3.12-2.99 5-3.82 1.22 1.09 2.05 2.72 3.74 3.17-2.1-4.57 4.16-0.59 6.63-1.91 8.57-0.58 16.56 4.16 24.51 6.88 22.51 9.88 42.36 26.5 55 47.69-1.21-0.08-2.23 0.21-3.08 0.86-1.79 4.26 0.88 11.42-4.57 13.64 2.16-3.93 2.27-8.6 2.46-12.98-4.19-3.97-5.38-9.85-8.89-14.3-2.28-0.34-4.42 0.85-6.68 0.8-4.05-1.58-7.85-3.94-12.09-4.93-2.33-0.33-2.98 2.55-3.85 4.14-1.6 6.93-0.8 15.2 4.09 20.63 8.22 2.56 16.6 4.59 24.96 6.64-0.8 0.77-1.59 1.56-2.41 2.29-4.33-2.39-9.58-4.66-14.36-4.29-0.9 3.04-2.2-0.62-3.53-1.35-1.8-0.73-3.79-0.75-5.64-1.3-3.44-3.66-4.53-8.72-5.58-13.47-1.65-0.3-4.31 0.16-2.98-2.24-2.33 0.94-4.83 1.18-6.81-0.65 1.73-1.43 6.1-0.65 6.06-3.29-1.61-0.1-3.46 0.99-4.84-0.23-3.19-2.61-8.25-1.64-10.89-5.06-1.69-1.67-0.79-4.63-2.99-5.96-0.44 2.38-0.94 4.79-0.66 7.22-2.96 0.93-4.67-4.03-6.5-0.06-0.03-0.73-0.1-2.2-0.13-2.94-1.63 1.63-3.42 3.36-5.92 3.05 0.7-2.17 1.8-4.17 2.87-6.19-0.15-1.77-2.21-2.29-3.66-2.62-1.98-1.69 0.67-3.46 1.47-5.04-2.18-0.71-4.12-2.19-6.47-2.29-0.13 0.8-0.38 2.38-0.5 3.17-1.05-1.55-1.07-4.94-3.69-4.11-3.48-0.33 0.57 5.08-2.73 3.56-2.38-0.93-2.18 1.89-1.7 3.38-2.43 0.61-7.93 1.79-4.44 4.94 2.79-0.45 5.63-2.44 8.33-0.55 1.17 2.95 3 5.59 5.39 7.68 1.27-2.36 3.82-1.18 5.87-0.83 1.35 2.06 1.8 5.23 4.87 5.29 2.06 1.29 2.94-2.47 5.13-1.39 1.75 1.03 1.15 3.2 1.24 4.88-2.77-0.78-5.53-0.91-7.52 1.5-2.18 0.7-0.11 2.5 0.29 3.79-1.22-0.79-3.33-0.79-3.85-2.3 0.6-2.17 4.63-2.08 4-4.79-2.44-3.45-7.44 2.26-9.35-1.81-1.65-2.62-5.99-2.44-6.04-6.2-2.69 0.15-5.54-0.7-8.2 0.11-3.67 3.6-6.91 8.29-11.41 10.68-4.01-1.09-9.99-1.46-11.92 3.02 2.41 6.92 16.56 3.25 13.86 12.76-2.07 3.55-6.65-3.53-8.56 0.56-2.4 5.53-3.96 11.42-4.6 17.42-1.38 2.14-3.75 3.1-5.97 4.06-2.85 1.09-3.12 5.98-7.74 3.23l-4.73-0.1c-0.29-0.3-0.86-0.89-1.15-1.19-0.15-7.29-1.42-15.35 2.96-21.73 3.36-2.35 4.19-6.98 7.91-9 2.5-1.45 4.96-4.69 3.75-7.72-1.1-3.03-4.38-4.33-6.41-6.6-2.52-4.4-3.04-9.89-6.18-13.9-3.42-3.37-8.51 0.55-12.46-0.02-3.11 1.8-9.69 1.29-8.57-3.54 2.18-1.94 4.79-3.31 7.01-5.21 4.06 1.34-1.16 3.33-2.34 4.96 4.94 0.39 10.4-2.25 11.9-7.23-1.11-2.02-4.53-7-6.72-3.59-0.29 1.7-1.77-0.35-1.9-0.99 1.87-2.16 2.44-5.17 4.51-7.16 0.72 1.39 1.29 2.87 2.23 4.12 1.08-0.76 1.99-2.46 3.52-1.56 2.31 1.31 2.27-2.02 3.07-3.38 2.19-0.78 3.24 3.19 5.32 1.79 5.63 0.69 6.06-6.88 10.93-7.13-1.62 3.27 2.14 4.27 4.64 4.91 1.97 0.62 3.47-1.41 5.42-1.26 1.49 0.07 2.96-1.06 3.36-2.48-0.63-2.16-3.6-3.29-2.99-5.79z"/>
  <path d="m67.22 98.36c6.6 3.1 13.8 2.46 20.73 1.64 3.03 0.29 3.19 5.27 0.86 6.82-1.39 2.26-3.86 0.38-5.77 0.18-2.86 0.84-5.29 3.1-5.96 6.05 0.92 4.28-0.41 9.09-2.26 12.85-4.24 0.86-7.53-2.62-10.66-4.78-2.64 2.64-4.66 7.07-9.4 4.27-3.07 0.86-3.79 5.26-6.95 6.45-3.95 2.33-3.75 7.21-4.93 11.12-2.3-1.8-4.82-3.33-7.87-3.13 0.34-4.05 0.38-8.3 1.59-12.17 2.27-4.18 8.76-3.8 10.82-8.28 1.06-2.22 4.58-1.18 5.65-3.34 1.55-2.26 1.85-6.21 5.12-6.61 2.51 0.8 5.38 1.02 6.29-2.02 3.33-2.42-1.83-8.32 2.74-9.05z"/>
 </g>
 <g id="#2a2c28fe" transform="translate(-5.2533165,-5.2358337)">
  <path d="m141.32 35.59c3.3 1.52-0.75-3.89 2.73-3.56 2.62-0.83 2.64 2.56 3.69 4.11 0.12-0.79 0.37-2.37 0.5-3.17 2.35 0.1 4.29 1.58 6.47 2.29-0.8 1.58-3.45 3.35-1.47 5.04 1.45 0.33 3.51 0.85 3.66 2.62-1.07 2.02-2.17 4.02-2.87 6.19 2.5 0.31 4.29-1.42 5.92-3.05 0.03 0.74 0.1 2.21 0.13 2.94 1.83-3.97 3.54 0.99 6.5 0.06-0.28-2.43 0.22-4.84 0.66-7.22 2.2 1.33 1.3 4.29 2.99 5.96 2.64 3.42 7.7 2.45 10.89 5.06 1.38 1.22 3.23 0.13 4.84 0.23 0.04 2.64-4.33 1.86-6.06 3.29 1.98 1.83 4.48 1.59 6.81 0.65-1.33 2.4 1.33 1.94 2.98 2.24 1.05 4.75 2.14 9.81 5.58 13.47 1.85 0.55 3.84 0.57 5.64 1.3 1.33 0.73 2.63 4.39 3.53 1.35 4.78-0.37 10.03 1.9 14.36 4.29 0.82-0.73 1.61-1.52 2.41-2.29 5.45-2.22 2.78-9.38 4.57-13.64 0.85-0.65 1.87-0.94 3.08-0.86 19.13 31.01 23.56 71.07 10.24 105.15-9.25 24.82-27.12 47.42-49.94 60.55-2.32-2.1-4.16-1.27-5.67 1.17-1.16-2.11-4.51-1.32-4.89-4.07-2.96-0.57-4.12-4.18-5.6-6.46 0.7-0.09 2.1-0.29 2.8-0.38-1.35-1.63-1.17-3.61-1.03-5.58-1.26-1.37-4.21-1.76-3.71-4.1 1.89-1.57 4.26-2.42 6.73-2.29-0.27 1.02-0.53 2.05-0.79 3.07 1.75-0.81 3.43-1.77 5.22-2.51 2 0.36 3.91 1.14 5.9 1.55-0.04-1.69-3.69-4.46-0.16-4.08 2.34 0.09-0.49-3.18 0.96-4.06 4.16-2.35-0.4-8.56 1.16-12.1 1.23 1.82 4.14 4.17 0.69 5.34 2.31 1.39 4.49 3.32 7.14 3.96 1.43-1.08 4.87-4.73 1.47-5.48-1.26-0.59-2.4 0.99-3.58 1.32 0.66-1.65 1.02-3.67 2.66-4.65 1.09 1.5 2.83 2.21 4.55 2.73 2.53-0.58 4.19-5.42 6.75-2.83 1.39 1.12 2.21-2 4.14-1.3-0.64 1.96-3.42 5.34-0.01 6.16 0.8-4.42 5.24-6.68 8.14-9.74 1.43 0.15 4.28 0.45 5.7 0.59 0.01-1.6 0.03-3.19 0.05-4.79-2.59-0.83-1.48 2.42-1.96 3.9-3.17 0.67-0.8-4.11-3.46-4.97-0.1 4.42-5.41-1.53-2.71-3.21 1.01-0.98 1.6-0.55 1.75 1.28 1.22-1.43 1.46-3.17 0.99-4.95 1.2-0.09 2.4-0.18 3.61-0.25-1.27-4.84-7.36-3.5-11.08-2.98 0.31-2.54 4.56-2.21 4.08-5.58-2.1-0.05-3.69-0.7-2.92-3.07 1.59-0.34 3.2-0.65 4.8-0.93-2.32 5.43 2.73 5.7 5.85 5.54 0.56-1.64 0.91-3.4 2.06-4.76-4.29 1.07-3.83-3.01-4.94-5.86-2.17 0.74-4.14 0.11-6-1.07-3.68-1.49-4.3 5.05-8.5 3.32-1.37 0.44-2.3 1.54-3.31 2.49-0.06-1.37-0.12-2.74-0.19-4.1-1.03 1-1.93 2.13-2.89 3.19 0.19-1.58 0.67-3.12 0.72-4.71-3.17-2.15-2.83-6.44-4.82-9.42-2.07 0.67-1.29 2.56-1 4.17-2.96-2.26-7.26-2.21-9.59-5.31 0.18-2.11-0.11-4.42 1.05-6.3 3.85-1.62 8.33-5.44 12.39-2.18 1.89 1.03 2.25 3.12 2.61 5.05 3.43 0.47 5.02 4.78 8.68 4.69 2.7 0.32 6.8-3.53 3.52-5.47 0.23-1.54 0.83-2.99 1.21-4.49-2.59-1.63-5.44-0.44-7.78 0.99-0.75-2.18 2.04-3.07 1.97-4.93-3.28-0.89-5.76-3.42-8.98-4.22-0.7 2.97 5.05 4.54 1.87 6.98-2.79-0.47-5.79-3.23-6.8-5.98-1.11-3.53 3.5-3.83 4.42-6.56 1.99-2.13-2.33-2.5-2.41-4.47-0.48-1.96 1.12-3.41 1.92-5.01-2.99-0.59-6.16 1.74-5.29 4.92-3.15 2.53-4.66-5.35-8.47-3.75-1.05 2.78-0.84 6.01-2.62 8.48-1.49 1.2-3.02 2.35-4.51 3.54 0.45-4.44 7.82-5.29 5-11.1 0.36-2-1.2-3.43-2.05-5.04 3.34-4.7 11.6-0.19 14.03-5.9 1.05-3.95 2.43-7.9 2.99-11.95-3.05-5.44-7.88-9.76-13.19-12.93-3.39-1.74-7.91 0.91-10.6-2.35-3.11-2.61 0.35-10.65-6.86-8.15-4.06 0.61-7.93-0.7-11.59-2.37-0.4-1.29-2.47-3.09-0.29-3.79 1.99-2.41 4.75-2.28 7.52-1.5-0.09-1.68 0.51-3.85-1.24-4.88-2.19-1.08-3.07 2.68-5.13 1.39-3.07-0.06-3.52-3.23-4.87-5.29-2.05-0.35-4.6-1.53-5.87 0.83-2.39-2.09-4.22-4.73-5.39-7.68-2.7-1.89-5.54 0.1-8.33 0.55-3.49-3.15 2.01-4.33 4.44-4.94-0.48-1.49-0.68-4.31 1.7-3.38m73.01 54.72c-4.8 1.85-8.32 5.69-12.03 9.08-1.84 4.27 3 7.16 4.67 10.58-0.46 1.45-1.74 2.72-1.5 4.33 2.19 3.75-1.49 5.6-2.38 8.55 3.1 3.93 8.15 4.55 12.12 6.94 2.93 4.52 8.88 0.97 11.5-2.06 1.25-3.55 2.84-6.91 4.98-10.02 3.39-5.76-1.82-11.54-3.27-17.03-1.51-5.97-7.42-12.42-14.09-10.37z" fill="#2a2c28"/>
 </g>
 <g id="#232420ff" transform="translate(-5.2533165,-5.2358337)">
  <path d="m63.69 41.7c3.94-4.67 10.15 1.74 15.2 1.15 5.36-1.14 10.72-2.43 16.26-2.07 3.14 4.01 3.66 9.5 6.18 13.9 2.03 2.27 5.31 3.57 6.41 6.6 1.21 3.03-1.25 6.27-3.75 7.72-3.72 2.02-4.55 6.65-7.91 9-5.93 1.65-2.34 9.81-5.17 13.88-3.63-0.17-2.16-2.58-1.12-4.85-2.72-2.79 1.22-4.94 1.34-7.99-1.66 0.96-3.25 2.06-4.97 2.94-0.11-0.78-0.32-2.35-0.43-3.13-0.77 0.92-1.45 1.91-2.15 2.89-2.76-0.87-3.07-3.77-4.78-5.6-1.88 0.09-4.21 1.18-4.17-1.63-1.59 0.04-5.07-1.65-4.64 1 1.52-0.04 2.97 0.4 4.32 1.06-8.27-2.91-5.35 1.77-3.22 3.58-0.8 1.05-1.98 1.73-2.97 2.58 2.65 0.97 5.21 2.18 8.01 2.67-1.9 2.03-4.1 0.62-6.18-0.27-2.28 0.82-3.57 3.3-5.94 4 1.81-3.91-0.68-9-5.99-7.12-1.67 5.3 4.01 0.14 5.17 3.86-3.12 0.62-6.31 1.19-9.47 0.53 2.02 1.85 3.75 3.81 3.66 6.75 1.51-0.99 0.68-4.03 2.57-4.15 2.83 1.57 5.47 3.78 5.99 7.17-2.09-0.27-3.49-1.93-5.06-3.16-3.14 1.31-6.05 4.1-4.34 7.69-2.23 0.24-3.75 1.81-3.83 4.08-2.34-0.47-4.5-1.53-5.85-3.55 1.31-0.13 2.62-0.26 3.92-0.41-0.15-1.66-0.29-3.33-0.22-5-1.78 0.57-3.15 1.88-4.57 3.04-0.61-1.63-0.69-3.34-0.38-5.03-3.25-0.12-4.88 5.74-8 2.68-1.96-0.4-6.09 0.59-5.63 3.32 1.37 0.13 2.74 0.24 4.11 0.35-1.87 1.78-3.83 3.52-5.19 5.75 1.55 1.39 3.09 2.81 4.51 4.35 1.47-0.06 2.96-0.05 3.65 1.51-3.05 2.35-7.25 0.1-7.44-3.64-4.58-1.44-3.16 5.15-0.78 6.26 2.31-0.68 2.62 2.82 4.84 2.19 1.83-0.2 4.26 3.44 1.5 4.12 0.39 0.15 1.15 0.45 1.54 0.6-3.9 5.68-5.97 12.55-6.46 19.3 3.05 1.8 7.32 3.02 7.51 7.21-2.31 1.62-8.26 6.72 0.95 4.08 0.94-2.77 1.39-5.57-0.85-7.81 1.34 0.23 2.66 0.57 4.01 0.76 1.08-4.28 0.81-12.1 7.04-12.05-1.85 1.98-2.13 4.73-2.83 7.26 3.6-1.2 11.26 2.79 11.79-2.97-1.25-1.48-2.04-0.4-2.69 0.95-0.13-1.22-0.3-2.43-0.52-3.63-2.25-0.78-5.77-2.12-4.5-5.18 0.97-0.96 2.77-3.45 3.61-1.03-0.01 2.51-3.04 7.09 3.96 3.71 0.1-0.71 0.29-2.14 0.39-2.86 0.98 1.23 2.69 3.09 3.87 0.92 1.56-2.69 2.17 2 4 1.64 2.54-0.47 4.43 1.71 6.07 3.32 1.47 1.74 3.98 1.85 5.65 3.33 0.94 3.29 1.39 6.8 3.96 9.29-2.23 1 0.4 4.9-3.3 3.18-1.5-5.93-9.6-4.91-11.62-10.61-1.42 0.84-2.8 1.77-4.02 2.88 1.62 3.02 5.95 2.43 7.37 5.81-3.23-1.59-4.39 2.01-6.85 3.24 0.65-4.14-2.75-2.69-5.34-2.16-0.09-1.35 0.48-2.56 1.59-3.34-0.97-1.5-1.04-4.88-3.37-4.47-1.41 3.02-0.74 6.67-0.54 9.92-0.04 1.35-2.79 3.31-0.2 3.47 7.46-2.83 4.41 5.26 0.74 4.9-1.22 4.15 3.13 3.37 5.63 2.7 0.27 1.5 1.3 3.04 0.89 4.58-1.16 0.8-2.32 1.6-3.55 2.27-1.84-1.88-2.03-5.34-5.04-5.84-1.5 0.7-2.82 1.92-4.55 1.98-0.08-2.23-0.25-5.12-3.29-3.99-0.4 2.72-1.24 5.31-2.24 7.85 1.55 2.02 3.06 4.09 3.02 6.77-0.52-0.1-1.54-0.31-2.05-0.41-0.01 3.09 1.03 5.97 2.76 8.5-1.85 1.59-4.03 2.26-5.97 0.37-4.82-2.45-10.29-2.69-15.54-3.41-4.16-5.84-3.1-13.02-2.25-19.67-2.52-4.56-6.99-7.84-9.49-12.42-0.55-3.72-3.84-6.16-4.07-10-0.81-4.62-4.14-8.26-5.32-12.75-0.12-3.84 2.25-7.44 1.51-11.3-2.14-4.28 1.58-8.6-0.44-12.73 0.48-11.6 6.1-22.58 10.95-33 4.77-0.02 9.14 4 13.91 1.13 2.13-0.39 8.57-2.43 5.83-5.79-1.45-1.96 2.38-2.67 2.88-4.43 2.7-4.88 10.63-0.72 13.29-5.78 1.31-3.06 5.44-1.21 7.29-3.72 3.57-2.09-1.36-7.12 1.39-9.59z" fill="#232420"/>
 </g>
 <g id="#242521ff" transform="translate(-5.2533165,-5.2358337)" fill="#242521">
  <path d="m192.16 50.12c0.87-1.59 1.52-4.47 3.85-4.14 4.24 0.99 8.04 3.35 12.09 4.93 2.26 0.05 4.4-1.14 6.68-0.8 3.51 4.45 4.7 10.33 8.89 14.3-0.19 4.38-0.3 9.05-2.46 12.98-8.36-2.05-16.74-4.08-24.96-6.64-4.89-5.43-5.69-13.7-4.09-20.63z"/>
  <path d="m135.34 49.29c2.66-0.81 5.51 0.04 8.2-0.11 0.05 3.76 4.39 3.58 6.04 6.2 1.91 4.07 6.91-1.64 9.35 1.81 0.63 2.71-3.4 2.62-4 4.79 0.52 1.51 2.63 1.51 3.85 2.3 3.66 1.67 7.53 2.98 11.59 2.37 7.21-2.5 3.75 5.54 6.86 8.15 2.69 3.26 7.21 0.61 10.6 2.35 5.31 3.17 10.14 7.49 13.19 12.93-0.56 4.05-1.94 8-2.99 11.95-2.43 5.71-10.69 1.2-14.03 5.9 0.85 1.61 2.41 3.04 2.05 5.04 2.82 5.81-4.55 6.66-5 11.1-1.25 0.53-2.36 2.31-3.82 1.75-2.52-1.88-2.32-5.48-4.47-7.59-3.73-2.01-8.56 0.12-11.77-3.25-3.8-3.47-8.49-6.44-11.02-11.05 0.23-3.6 4.69-5.77 3.05-9.97 1.22-5.53-6.86-4.89-9.91-4.08-4.76-3.27-10.7-3.38-16.1-4.98-1.2 6.06 3.63 10.98 2.92 16.99-1.56 2.91-2.02 7.52-5.98 8.04-2.27-0.35-4.43-1.18-6.7-1.48-3.21 2-6.17 4.38-9.2 6.64 1.76 4.35 5.92 7.98 5.95 12.83-3.56 8.17-15.66 12.11-13.69 22.7 3.73 7.75 15.98 6.15 18.17 15 1.69 3.2-1.49 5.78-2.14 8.75-0.23 5.91 1.08 12.49-2.1 17.89-2.11 3.37-8.2 0.13-9.46 4.48-0.95 1.74-1.83 3.53-2.93 5.18-5.34-2-8.78-6.56-11.18-11.57-2.02-1.06-4.28-1.6-6.26-2.75-3.16-4.15-5.15-9.38-9.28-12.71-3.94 6.38-1.2 14.12 0.1 20.9 2.16 1.65 5.24 1.74 7.06 3.92 2.1 1.8 2.12 4.78 3.01 7.22 2.93-0.04 5.54-1.66 8.41-2.09-0.28 1.98-1.64 4.65 0.5 6.06 2.48 0.97 2.55-2.35 3.14-3.91 1.01 1.78 3.3 3.46 2.45 5.73-2.61 3.54-7.15 5.21-11.45 4.99-1.56-2.48-2.95-5.06-4.54-7.52-3.2-0.72-13.29 1.92-9.3-5.77 0.27-1.73 2.66-4.17 0.25-5.24-3.87-0.42-8.64 2.59-11.68-0.43-0.6-5.52 2.16-10.48 3-15.77-3.04-0.16-6.07 0.81-8.63 2.4-3.12 6.35-5.24 13.78-12.51 16.65-3.63-0.24-8.05-4.13-5.93-7.97 1.13-3.24 5.1-3.14 7.83-2.24 3.31-2.59-2.91-3.68-3.09-6.66 1.94 1.89 4.12 1.22 5.97-0.37-1.73-2.53-2.77-5.41-2.76-8.5 0.51 0.1 1.53 0.31 2.05 0.41 0.04-2.68-1.47-4.75-3.02-6.77 1-2.54 1.84-5.13 2.24-7.85 3.04-1.13 3.21 1.76 3.29 3.99 1.73-0.06 3.05-1.28 4.55-1.98 3.01 0.5 3.2 3.96 5.04 5.84 1.23-0.67 2.39-1.47 3.55-2.27 0.41-1.54-0.62-3.08-0.89-4.58-2.5 0.67-6.85 1.45-5.63-2.7 3.67 0.36 6.72-7.73-0.74-4.9-2.59-0.16 0.16-2.12 0.2-3.47-0.2-3.25-0.87-6.9 0.54-9.92 2.33-0.41 2.4 2.97 3.37 4.47-1.11 0.78-1.68 1.99-1.59 3.34 2.59-0.53 5.99-1.98 5.34 2.16 2.46-1.23 3.62-4.83 6.85-3.24-1.42-3.38-5.75-2.79-7.37-5.81 1.22-1.11 2.6-2.04 4.02-2.88 2.02 5.7 10.12 4.68 11.62 10.61 3.7 1.72 1.07-2.18 3.3-3.18-2.57-2.49-3.02-6-3.96-9.29-1.67-1.48-4.18-1.59-5.65-3.33-1.64-1.61-3.53-3.79-6.07-3.32-1.83 0.36-2.44-4.33-4-1.64-1.18 2.17-2.89 0.31-3.87-0.92-0.1 0.72-0.29 2.15-0.39 2.86-7 3.38-3.97-1.2-3.96-3.71-0.84-2.42-2.64 0.07-3.61 1.03-1.27 3.06 2.25 4.4 4.5 5.18 0.22 1.2 0.39 2.41 0.52 3.63 0.65-1.35 1.44-2.43 2.69-0.95-0.53 5.76-8.19 1.77-11.79 2.97 0.7-2.53 0.98-5.28 2.83-7.26-6.23-0.05-5.96 7.77-7.04 12.05-1.35-0.19-2.67-0.53-4.01-0.76 2.24 2.24 1.79 5.04 0.85 7.81-9.21 2.64-3.26-2.46-0.95-4.08-0.19-4.19-4.46-5.41-7.51-7.21 0.49-6.75 2.56-13.62 6.46-19.3-0.39-0.15-1.15-0.45-1.54-0.6 2.76-0.68 0.33-4.32-1.5-4.12-2.22 0.63-2.53-2.87-4.84-2.19-2.38-1.11-3.8-7.7 0.78-6.26 0.19 3.74 4.39 5.99 7.44 3.64-0.69-1.56-2.18-1.57-3.65-1.51-1.42-1.54-2.96-2.96-4.51-4.35 1.36-2.23 3.32-3.97 5.19-5.75-1.37-0.11-2.74-0.22-4.11-0.35-0.46-2.73 3.67-3.72 5.63-3.32 3.12 3.06 4.75-2.8 8-2.68-0.31 1.69-0.23 3.4 0.38 5.03 1.42-1.16 2.79-2.47 4.57-3.04-0.07 1.67 0.07 3.34 0.22 5-1.3 0.15-2.61 0.28-3.92 0.41 1.35 2.02 3.51 3.08 5.85 3.55 0.08-2.27 1.6-3.84 3.83-4.08-1.71-3.59 1.2-6.38 4.34-7.69 1.57 1.23 2.97 2.89 5.06 3.16-0.52-3.39-3.16-5.6-5.99-7.17-1.89 0.12-1.06 3.16-2.57 4.15 0.09-2.94-1.64-4.9-3.66-6.75 3.16 0.66 6.35 0.09 9.47-0.53-1.16-3.72-6.84 1.44-5.17-3.86 5.31-1.88 7.8 3.21 5.99 7.12 2.37-0.7 3.66-3.18 5.94-4 2.08 0.89 4.28 2.3 6.18 0.27-2.8-0.49-5.36-1.7-8.01-2.67 0.99-0.85 2.17-1.53 2.97-2.58-2.13-1.81-5.05-6.49 3.22-3.58-1.35-0.66-2.8-1.1-4.32-1.06-0.43-2.65 3.05-0.96 4.64-1-0.04 2.81 2.29 1.72 4.17 1.63 1.71 1.83 2.02 4.73 4.78 5.6 0.7-0.98 1.38-1.97 2.15-2.89 0.11 0.78 0.32 2.35 0.43 3.13 1.72-0.88 3.31-1.98 4.97-2.94-0.12 3.05-4.06 5.2-1.34 7.99-1.04 2.27-2.51 4.68 1.12 4.85 2.83-4.07-0.76-12.23 5.17-13.88-4.38 6.38-3.11 14.44-2.96 21.73 0.29 0.3 0.86 0.89 1.15 1.19l4.73 0.1c4.62 2.75 4.89-2.14 7.74-3.23 2.22-0.96 4.59-1.92 5.97-4.06 0.64-6 2.2-11.89 4.6-17.42 1.91-4.09 6.49 2.99 8.56-0.56 2.7-9.51-11.45-5.84-13.86-12.76 1.93-4.48 7.91-4.11 11.92-3.02 4.5-2.39 7.74-7.08 11.41-10.68m-68.12 49.07c-4.57 0.73 0.59 6.63-2.74 9.05-0.91 3.04-3.78 2.82-6.29 2.02-3.27 0.4-3.57 4.35-5.12 6.61-1.07 2.16-4.59 1.12-5.65 3.34-2.06 4.48-8.55 4.1-10.82 8.28-1.21 3.87-1.25 8.12-1.59 12.17 3.05-0.2 5.57 1.33 7.87 3.13 1.18-3.91 0.98-8.79 4.93-11.12 3.16-1.19 3.88-5.59 6.95-6.45 4.74 2.8 6.76-1.63 9.4-4.27 3.13 2.16 6.42 5.64 10.66 4.78 1.85-3.76 3.18-8.57 2.26-12.85 0.67-2.95 3.1-5.21 5.96-6.05 1.91 0.2 4.38 2.08 5.77-0.18 2.33-1.55 2.17-6.53-0.86-6.82-6.93 0.82-14.13 1.46-20.73-1.64z"/>
 </g>
 <g id="#2a2c28ff" transform="translate(-5.2533165,-5.2358337)">
  <path d="m127.01 84.9c5.4 1.6 11.34 1.71 16.1 4.98 3.05-0.81 11.13-1.45 9.91 4.08 1.64 4.2-2.82 6.37-3.05 9.97 2.53 4.61 7.22 7.58 11.02 11.05 3.21 3.37 8.04 1.24 11.77 3.25 2.15 2.11 1.95 5.71 4.47 7.59 1.46 0.56 2.57-1.22 3.82-1.75-0.91 2.17-1.45 5.85-5.64 2.34-5.22-1.16-11.87 3.31-15.38-2.19 1.89-0.86 5.01-0.38 6.08-2.21-1.66-1.29-4.75-3.79-6.27-1.02-2.59 0.73-3.86-2.13-5.92-2.99-2.47-0.24-3.44 3.29-5.92 3.04-1.71-0.13-3.66-0.82-4.55-2.38-0.49-1.27-0.51-3.24-2.42-2.62-4.12 0.9-5.2 5.96-5.53 9.45-1.42 1.12-2.75 2.39-3.34 4.15 1.65 1.19 4.87 1.5 5.57 3.27-2.1 0.54-4.22 1.08-6.4 1.19 1.59-4.05-3.45-6.43-6.29-8.23 0.12 2.74 2.8 6.11 0.08 8.27-0.94 2.16 1.56 1.75 2.89 2.15-0.5 1.52-0.58 4.3-2.86 3.7-0.8-1.19-1.08-2.6-1.49-3.94-1.79 0.96-3.31 2.33-4.66 3.83 2.36 1.94 1.41 5.23 2.26 7.85 0.83 2.23 3.32 0.65 5.01 0.62-1.83 4.04-8.09 5.06-6.52 10.64-1.06 2.84 0.59 5.34 1.26 8.01-0.59 2.84-2.16 5.38-2.92 8.19 1.56-0.85 2.86-2.4 4.8-2.26-0.12 2.22-2.45 5.87 3.76 3.52 3.15 1.42 5.54 4.17 9 5.03 3.3 3.46-4.2 6.07-6.45 3.28-1.72-2.31-4.46 2.42-2.12 3.21 1.52 0.87-2.03 2.64-0.38 3.38 2.98 2.76 1.91-4.73 4.97-2.95 2.37 0.76 4.93-0.51 6.2-2.56 1.55-2.31 4.61-2.56 7.13-2.92 0.62 2.14-1.38 2.06-2.87 2.36-0.86 2.11 1.4 1.6 2.73 1.82-1.87 1.57-2 4.48-3.83 5.91-1.64-0.97-3.17-2.12-4.88-2.95-1.52 2.2-1.11 4.65 1.39 5.81 0.39-1.75 2.03-1.97 3.56-1.91-0.81 3.93-6.21 5.53-5.13 9.99 1.31-0.25 2.59-0.62 3.91-0.88-1.9 3.73 1.95 6.97 5.15 8.02-0.05-1.99-0.53-3.92-0.82-5.87 1.17-0.37 2.36-0.71 3.56-0.99 0.26 1.43 0.15 3.33 2.21 2.78 0.15-1.59-1.33-3.61 0.22-4.8 1.18-2.65 5.21 1.12 5.77-2.14-0.57-1.05-1.28-2.01-1.87-3.04 2.35-2.62 7 1.22 5.32 4.46 3.16 0.45 1.7 4.22 4.69 5.42-1.7-0.33-3.39-0.78-5.11-0.93-0.56 2.18 0.48 3.86 2.14 5.18-1.59 1.11-3.39 1.89-4.94 3.05-0.77 1.14-0.61 2.7-1.66 3.69-0.98-1.52-2.03-3.01-3.44-4.16 0.02 1.47 0.06 4.4 0.08 5.87 2.76 0.39 4.03 3.05 6.38 4.19 1.19-1.29 1.87-4.33 4.13-3.36 2.26 0.86 1.99-2.72 3.36-3.75 2.08 1.43 1.17 4.17 1.91 6.22 1.02-0.56 1.98-1.22 3-1.78 1.69 1.52-0.77 2.21-1.12 3.71 2.5-1.1 4.76-0.01 3.3 2.8 2.57-0.46 6.58-0.34 6.53 3.16-1.08 4.19-6.29 1.77-9.04 3.74-1.99 1.94-7.53-0.37-6.63 3.43-0.32 1.99 2.9 0.6 4.07 1.09l-0.3 0.71c-34.05 11.8-73.64 8.76-103.96-11.3 4.8-0.9 8.88 2.74 13.28 4.05 2.76-1.64 7.88-0.26 6.71-5.87 0.88-1.7 2.82-3.29 2.04-5.4-1.57-1.79-3.62-3.02-5.53-4.4 1.25-1.9 1.24-4.53 2.77-6.13 3.46 2.59 1.64 8.9 5.88 10.17 4.84-2.33 10.44-3.67 13.91-8.11 0.39-3.87-2.33-7.3-3.75-10.77 1.56 0.34 3.08 0.97 4.69 0.93 1.51-1.72 2.25-3.92 1.97-6.2 1.26-4.35 7.35-1.11 9.46-4.48 3.18-5.4 1.87-11.98 2.1-17.89 0.65-2.97 3.83-5.55 2.14-8.75-2.19-8.85-14.44-7.25-18.17-15-1.97-10.59 10.13-14.53 13.69-22.7-0.03-4.85-4.19-8.48-5.95-12.83 3.03-2.26 5.99-4.64 9.2-6.64 2.27 0.3 4.43 1.13 6.7 1.48 3.96-0.52 4.42-5.13 5.98-8.04 0.71-6.01-4.12-10.93-2.92-16.99z" fill="#2a2c28"/>
 </g>
 <g id="#252622ff" transform="translate(-5.2533165,-5.2358337)">
  <path d="m214.33 90.31c6.67-2.05 12.58 4.4 14.09 10.37 1.45 5.49 6.66 11.27 3.27 17.03-2.14 3.11-3.73 6.47-4.98 10.02-2.62 3.03-8.57 6.58-11.5 2.06-3.97-2.39-9.02-3.01-12.12-6.94 0.89-2.95 4.57-4.8 2.38-8.55-0.24-1.61 1.04-2.88 1.5-4.33-1.67-3.42-6.51-6.31-4.67-10.58 3.71-3.39 7.23-7.23 12.03-9.08z" fill="#252622"/>
 </g>
 <g id="#272926fe" transform="translate(-5.2533165,-5.2358337)">
  <path d="m7.16 103.02 0.99-0.14c2.02 4.13-1.7 8.45 0.44 12.73 0.74 3.86-1.63 7.46-1.51 11.3 1.18 4.49 4.51 8.13 5.32 12.75 0.23 3.84 3.52 6.28 4.07 10 2.5 4.58 6.97 7.86 9.49 12.42-0.85 6.65-1.91 13.83 2.25 19.67 5.25 0.72 10.72 0.96 15.54 3.41 0.18 2.98 6.4 4.07 3.09 6.66-2.73-0.9-6.7-1-7.83 2.24-2.12 3.84 2.3 7.73 5.93 7.97 7.27-2.87 9.39-10.3 12.51-16.65 2.56-1.59 5.59-2.56 8.63-2.4-0.84 5.29-3.6 10.25-3 15.77 3.04 3.02 7.81 0.01 11.68 0.43 2.41 1.07 0.02 3.51-0.25 5.24-3.99 7.69 6.1 5.05 9.3 5.77 1.59 2.46 2.98 5.04 4.54 7.52 4.3 0.22 8.84-1.45 11.45-4.99 0.85-2.27-1.44-3.95-2.45-5.73-0.59 1.56-0.66 4.88-3.14 3.91-2.14-1.41-0.78-4.08-0.5-6.06-2.87 0.43-5.48 2.05-8.41 2.09-0.89-2.44-0.91-5.42-3.01-7.22-1.82-2.18-4.9-2.27-7.06-3.92-1.3-6.78-4.04-14.52-0.1-20.9 4.13 3.33 6.12 8.56 9.28 12.71 1.98 1.15 4.24 1.69 6.26 2.75 2.4 5.01 5.84 9.57 11.18 11.57 1.1-1.65 1.98-3.44 2.93-5.18 0.28 2.28-0.46 4.48-1.97 6.2-1.61 0.04-3.13-0.59-4.69-0.93 1.42 3.47 4.14 6.9 3.75 10.77-3.47 4.44-9.07 5.78-13.91 8.11-4.24-1.27-2.42-7.58-5.88-10.17-1.53 1.6-1.52 4.23-2.77 6.13 1.91 1.38 3.96 2.61 5.53 4.4 0.78 2.11-1.16 3.7-2.04 5.4 1.17 5.61-3.95 4.23-6.71 5.87-4.4-1.31-8.48-4.95-13.28-4.05-23.3-13.4-41.39-36.22-50.41-61.68-7.21-20.33-8.98-42.53-5.24-63.77z" fill="#272926"/>
 </g>
 <g id="#2b2d29ff" transform="translate(-5.2533165,-5.2358337)">
  <path d="m196.65 115.8c-0.87-3.18 2.3-5.51 5.29-4.92-0.8 1.6-2.4 3.05-1.92 5.01 0.08 1.97 4.4 2.34 2.41 4.47-0.92 2.73-5.53 3.03-4.42 6.56 1.01 2.75 4.01 5.51 6.8 5.98 3.18-2.44-2.57-4.01-1.87-6.98 3.22 0.8 5.7 3.33 8.98 4.22 0.07 1.86-2.72 2.75-1.97 4.93 2.34-1.43 5.19-2.62 7.78-0.99-0.38 1.5-0.98 2.95-1.21 4.49 3.28 1.94-0.82 5.79-3.52 5.47-3.66 0.09-5.25-4.22-8.68-4.69-0.36-1.93-0.72-4.02-2.61-5.05-4.06-3.26-8.54 0.56-12.39 2.18-1.16 1.88-0.87 4.19-1.05 6.3 2.33 3.1 6.63 3.05 9.59 5.31-0.29-1.61-1.07-3.5 1-4.17 1.99 2.98 1.65 7.27 4.82 9.42-0.05 1.59-0.53 3.13-0.72 4.71 0.96-1.06 1.86-2.19 2.89-3.19 0.07 1.36 0.13 2.73 0.19 4.1 1.01-0.95 1.94-2.05 3.31-2.49 4.2 1.73 4.82-4.81 8.5-3.32 1.86 1.18 3.83 1.81 6 1.07 1.11 2.85 0.65 6.93 4.94 5.86-1.15 1.36-1.5 3.12-2.06 4.76-3.12 0.16-8.17-0.11-5.85-5.54-1.6 0.28-3.21 0.59-4.8 0.93-0.77 2.37 0.82 3.02 2.92 3.07 0.48 3.37-3.77 3.04-4.08 5.58 3.72-0.52 9.81-1.86 11.08 2.98-1.21 0.07-2.41 0.16-3.61 0.25 0.47 1.78 0.23 3.52-0.99 4.95-0.15-1.83-0.74-2.26-1.75-1.28-2.7 1.68 2.61 7.63 2.71 3.21 2.66 0.86 0.29 5.64 3.46 4.97 0.48-1.48-0.63-4.73 1.96-3.9-0.02 1.6-0.04 3.19-0.05 4.79-1.42-0.14-4.27-0.44-5.7-0.59-2.9 3.06-7.34 5.32-8.14 9.74-3.41-0.82-0.63-4.2 0.01-6.16-1.93-0.7-2.75 2.42-4.14 1.3-2.56-2.59-4.22 2.25-6.75 2.83-1.72-0.52-3.46-1.23-4.55-2.73-1.64 0.98-2 3-2.66 4.65 1.18-0.33 2.32-1.91 3.58-1.32 3.4 0.75-0.04 4.4-1.47 5.48-2.65-0.64-4.83-2.57-7.14-3.96 3.45-1.17 0.54-3.52-0.69-5.34-1.56 3.54 3 9.75-1.16 12.1-1.45 0.88 1.38 4.15-0.96 4.06-3.53-0.38 0.12 2.39 0.16 4.08-1.99-0.41-3.9-1.19-5.9-1.55-1.79 0.74-3.47 1.7-5.22 2.51 0.26-1.02 0.52-2.05 0.79-3.07-2.47-0.13-4.84 0.72-6.73 2.29-0.5 2.34 2.45 2.73 3.71 4.1-0.14 1.97-0.32 3.95 1.03 5.58-0.7 0.09-2.1 0.29-2.8 0.38 1.48 2.28 2.64 5.89 5.6 6.46 0.38 2.75 3.73 1.96 4.89 4.07 1.51-2.44 3.35-3.27 5.67-1.17-6.77 4.43-14.21 8.72-22.09 10.47-1.17-0.49-4.39 0.9-4.07-1.09-0.9-3.8 4.64-1.49 6.63-3.43 2.75-1.97 7.96 0.45 9.04-3.74 0.05-3.5-3.96-3.62-6.53-3.16 1.46-2.81-0.8-3.9-3.3-2.8 0.35-1.5 2.81-2.19 1.12-3.71-1.02 0.56-1.98 1.22-3 1.78-0.74-2.05 0.17-4.79-1.91-6.22-1.37 1.03-1.1 4.61-3.36 3.75-2.26-0.97-2.94 2.07-4.13 3.36-2.35-1.14-3.62-3.8-6.38-4.19-0.02-1.47-0.06-4.4-0.08-5.87 1.41 1.15 2.46 2.64 3.44 4.16 1.05-0.99 0.89-2.55 1.66-3.69 1.55-1.16 3.35-1.94 4.94-3.05-1.66-1.32-2.7-3-2.14-5.18 1.72 0.15 3.41 0.6 5.11 0.93-2.99-1.2-1.53-4.97-4.69-5.42 1.68-3.24-2.97-7.08-5.32-4.46 0.59 1.03 1.3 1.99 1.87 3.04-0.56 3.26-4.59-0.51-5.77 2.14-1.55 1.19-0.07 3.21-0.22 4.8-2.06 0.55-1.95-1.35-2.21-2.78-1.2 0.28-2.39 0.62-3.56 0.99 0.29 1.95 0.77 3.88 0.82 5.87-3.2-1.05-7.05-4.29-5.15-8.02-1.32 0.26-2.6 0.63-3.91 0.88-1.08-4.46 4.32-6.06 5.13-9.99-1.53-0.06-3.17 0.16-3.56 1.91-2.5-1.16-2.91-3.61-1.39-5.81 1.71 0.83 3.24 1.98 4.88 2.95 1.83-1.43 1.96-4.34 3.83-5.91-1.33-0.22-3.59 0.29-2.73-1.82 1.49-0.3 3.49-0.22 2.87-2.36-2.52 0.36-5.58 0.61-7.13 2.92-1.27 2.05-3.83 3.32-6.2 2.56-3.06-1.78-1.99 5.71-4.97 2.95-1.65-0.74 1.9-2.51 0.38-3.38-2.34-0.79 0.4-5.52 2.12-3.21 2.25 2.79 9.75 0.18 6.45-3.28-3.46-0.86-5.85-3.61-9-5.03-6.21 2.35-3.88-1.3-3.76-3.52-1.94-0.14-3.24 1.41-4.8 2.26 0.76-2.81 2.33-5.35 2.92-8.19-0.67-2.67-2.32-5.17-1.26-8.01-1.57-5.58 4.69-6.6 6.52-10.64-1.69 0.03-4.18 1.61-5.01-0.62-0.85-2.62 0.1-5.91-2.26-7.85 1.35-1.5 2.87-2.87 4.66-3.83 0.41 1.34 0.69 2.75 1.49 3.94 2.28 0.6 2.36-2.18 2.86-3.7-1.33-0.4-3.83 0.01-2.89-2.15 2.72-2.16 0.04-5.53-0.08-8.27 2.84 1.8 7.88 4.18 6.29 8.23 2.18-0.11 4.3-0.65 6.4-1.19-0.7-1.77-3.92-2.08-5.57-3.27 0.59-1.76 1.92-3.03 3.34-4.15 0.33-3.49 1.41-8.55 5.53-9.45 1.91-0.62 1.93 1.35 2.42 2.62 0.89 1.56 2.84 2.25 4.55 2.38 2.48 0.25 3.45-3.28 5.92-3.04 2.06 0.86 3.33 3.72 5.92 2.99 1.52-2.77 4.61-0.27 6.27 1.02-1.07 1.83-4.19 1.35-6.08 2.21 3.51 5.5 10.16 1.03 15.38 2.19 4.19 3.51 4.73-0.17 5.64-2.34 1.49-1.19 3.02-2.34 4.51-3.54 1.78-2.47 1.57-5.7 2.62-8.48 3.81-1.6 5.32 6.28 8.47 3.75z" fill="#2b2d29"/>
 </g>
</svg>
