<?xml version="1.0" encoding="UTF-8" ?>
<!DOCTYPE svg PUBLIC "-//W3C//DTD SVG 1.1//EN" "http://www.w3.org/Graphics/SVG/1.1/DTD/svg11.dtd">
<svg width="253pt" height="253pt" viewBox="0 0 253 253" version="1.1" xmlns="http://www.w3.org/2000/svg">
<g id="#262724fd">
<path fill="#262724" opacity="1.00" d=" M 85.21 12.40 C 105.54 5.26 127.79 3.28 149.00 7.26 L 149.35 8.32 C 146.88 9.64 140.62 5.66 142.72 10.23 C 141.03 9.78 140.20 8.15 138.98 7.06 C 137.10 7.89 133.47 8.04 133.98 10.88 C 135.75 10.71 137.55 10.50 139.12 11.53 C 142.01 11.68 144.98 11.18 147.76 12.24 C 148.94 14.73 150.39 17.19 151.02 19.89 C 149.13 21.93 147.59 24.68 145.07 25.90 C 143.54 25.02 141.97 24.01 140.12 24.52 C 142.73 20.37 137.18 20.24 137.48 17.28 C 137.57 14.11 133.64 13.68 131.46 12.56 C 131.31 9.42 128.41 8.41 126.64 6.28 C 125.08 6.16 123.58 6.89 122.08 7.22 C 121.47 9.72 124.44 10.85 125.07 13.01 C 124.67 14.43 123.20 15.56 121.71 15.49 C 119.76 15.34 118.26 17.37 116.29 16.75 C 113.79 16.11 110.03 15.11 111.65 11.84 C 106.78 12.09 106.35 19.66 100.72 18.97 C 98.64 20.37 97.59 16.40 95.40 17.18 C 94.60 18.54 94.64 21.87 92.33 20.56 C 90.80 19.66 89.89 21.36 88.81 22.12 C 87.87 20.87 87.30 19.39 86.58 18.00 C 84.51 19.99 83.94 23.00 82.07 25.16 C 82.20 25.80 83.68 27.85 83.97 26.15 C 86.16 22.74 89.58 27.72 90.69 29.74 C 89.19 34.72 83.73 37.36 78.79 36.97 C 79.97 35.34 85.19 33.35 81.13 32.01 C 78.91 33.91 76.30 35.28 74.12 37.22 C 73.00 42.05 79.58 42.56 82.69 40.76 C 86.64 41.33 91.73 37.41 95.15 40.78 C 89.61 40.42 84.25 41.71 78.89 42.85 C 73.84 43.44 67.63 37.03 63.69 41.70 C 60.94 44.17 65.87 49.20 62.30 51.29 C 60.45 53.80 56.32 51.95 55.01 55.01 C 52.35 60.07 44.42 55.91 41.72 60.79 C 41.22 62.55 37.39 63.26 38.84 65.22 C 41.58 68.58 35.14 70.62 33.01 71.01 C 28.24 73.88 23.87 69.86 19.10 69.88 C 33.00 43.42 56.93 22.27 85.21 12.40 Z" />
</g>
<g id="#282a26ff">
<path fill="#282a26" opacity="1.00" d=" M 122.08 7.22 C 123.58 6.89 125.08 6.16 126.64 6.28 C 128.41 8.41 131.31 9.42 131.46 12.56 C 133.64 13.68 137.57 14.11 137.48 17.28 C 137.18 20.24 142.73 20.37 140.12 24.52 C 141.97 24.01 143.54 25.02 145.07 25.90 C 147.59 24.68 149.13 21.93 151.02 19.89 C 150.39 17.19 148.94 14.73 147.76 12.24 C 144.98 11.18 142.01 11.68 139.12 11.53 C 137.55 10.50 135.75 10.71 133.98 10.88 C 133.47 8.04 137.10 7.89 138.98 7.06 C 140.20 8.15 141.03 9.78 142.72 10.23 C 140.62 5.66 146.88 9.64 149.35 8.32 C 157.92 7.74 165.91 12.48 173.86 15.20 C 196.37 25.08 216.22 41.70 228.86 62.89 C 227.65 62.81 226.63 63.10 225.78 63.75 C 223.99 68.01 226.66 75.17 221.21 77.39 C 223.37 73.46 223.48 68.79 223.67 64.41 C 219.48 60.44 218.29 54.56 214.78 50.11 C 212.50 49.77 210.36 50.96 208.10 50.91 C 204.05 49.33 200.25 46.97 196.01 45.98 C 193.68 45.65 193.03 48.53 192.16 50.12 C 190.56 57.05 191.36 65.32 196.25 70.75 C 204.47 73.31 212.85 75.34 221.21 77.39 C 220.41 78.16 219.62 78.95 218.80 79.68 C 214.47 77.29 209.22 75.02 204.44 75.39 C 203.54 78.43 202.24 74.77 200.91 74.04 C 199.11 73.31 197.12 73.29 195.27 72.74 C 191.83 69.08 190.74 64.02 189.69 59.27 C 188.04 58.97 185.38 59.43 186.71 57.03 C 184.38 57.97 181.88 58.21 179.90 56.38 C 181.63 54.95 186.00 55.73 185.96 53.09 C 184.35 52.99 182.50 54.08 181.12 52.86 C 177.93 50.25 172.87 51.22 170.23 47.80 C 168.54 46.13 169.44 43.17 167.24 41.84 C 166.80 44.22 166.30 46.63 166.58 49.06 C 163.62 49.99 161.91 45.03 160.08 49.00 C 160.05 48.27 159.98 46.80 159.95 46.06 C 158.32 47.69 156.53 49.42 154.03 49.11 C 154.73 46.94 155.83 44.94 156.90 42.92 C 156.75 41.15 154.69 40.63 153.24 40.30 C 151.26 38.61 153.91 36.84 154.71 35.26 C 152.53 34.55 150.59 33.07 148.24 32.97 C 148.11 33.77 147.86 35.35 147.74 36.14 C 146.69 34.59 146.67 31.20 144.05 32.03 C 140.57 31.70 144.62 37.11 141.32 35.59 C 138.94 34.66 139.14 37.48 139.62 38.97 C 137.19 39.58 131.69 40.76 135.18 43.91 C 137.97 43.46 140.81 41.47 143.51 43.36 C 144.68 46.31 146.51 48.95 148.90 51.04 C 150.17 48.68 152.72 49.86 154.77 50.21 C 156.12 52.27 156.57 55.44 159.64 55.50 C 161.70 56.79 162.58 53.03 164.77 54.11 C 166.52 55.14 165.92 57.31 166.01 58.99 C 163.24 58.21 160.48 58.08 158.49 60.49 C 156.31 61.19 158.38 62.99 158.78 64.28 C 157.56 63.49 155.45 63.49 154.93 61.98 C 155.53 59.81 159.56 59.90 158.93 57.19 C 156.49 53.74 151.49 59.45 149.58 55.38 C 147.93 52.76 143.59 52.94 143.54 49.18 C 140.85 49.33 138.00 48.48 135.34 49.29 C 131.67 52.89 128.43 57.58 123.93 59.97 C 119.92 58.88 113.94 58.51 112.01 62.99 C 114.42 69.91 128.57 66.24 125.87 75.75 C 123.80 79.30 119.22 72.22 117.31 76.31 C 114.91 81.84 113.35 87.73 112.71 93.73 C 111.33 95.87 108.96 96.83 106.74 97.79 C 103.89 98.88 103.62 103.77 99.00 101.02 L 94.27 100.92 C 93.98 100.62 93.41 100.03 93.12 99.73 C 92.97 92.44 91.70 84.38 96.08 78.00 C 99.44 75.65 100.27 71.02 103.99 69.00 C 106.49 67.55 108.95 64.31 107.74 61.28 C 106.64 58.25 103.36 56.95 101.33 54.68 C 98.81 50.28 98.29 44.79 95.15 40.78 C 91.73 37.41 86.64 41.33 82.69 40.76 C 79.58 42.56 73.00 42.05 74.12 37.22 C 76.30 35.28 78.91 33.91 81.13 32.01 C 85.19 33.35 79.97 35.34 78.79 36.97 C 83.73 37.36 89.19 34.72 90.69 29.74 C 89.58 27.72 86.16 22.74 83.97 26.15 C 83.68 27.85 82.20 25.80 82.07 25.16 C 83.94 23.00 84.51 19.99 86.58 18.00 C 87.30 19.39 87.87 20.87 88.81 22.12 C 89.89 21.36 90.80 19.66 92.33 20.56 C 94.64 21.87 94.60 18.54 95.40 17.18 C 97.59 16.40 98.64 20.37 100.72 18.97 C 106.35 19.66 106.78 12.09 111.65 11.84 C 110.03 15.11 113.79 16.11 116.29 16.75 C 118.26 17.37 119.76 15.34 121.71 15.49 C 123.20 15.56 124.67 14.43 125.07 13.01 C 124.44 10.85 121.47 9.72 122.08 7.22 Z" />
<path fill="#282a26" opacity="1.00" d=" M 67.22 98.36 C 73.82 101.46 81.02 100.82 87.95 100.00 C 90.98 100.29 91.14 105.27 88.81 106.82 C 87.42 109.08 84.95 107.20 83.04 107.00 C 80.18 107.84 77.75 110.10 77.08 113.05 C 78.00 117.33 76.67 122.14 74.82 125.90 C 70.58 126.76 67.29 123.28 64.16 121.12 C 61.52 123.76 59.50 128.19 54.76 125.39 C 51.69 126.25 50.97 130.65 47.81 131.84 C 43.86 134.17 44.06 139.05 42.88 142.96 C 40.58 141.16 38.06 139.63 35.01 139.83 C 35.35 135.78 35.39 131.53 36.60 127.66 C 38.87 123.48 45.36 123.86 47.42 119.38 C 48.48 117.16 52.00 118.20 53.07 116.04 C 54.62 113.78 54.92 109.83 58.19 109.43 C 60.70 110.23 63.57 110.45 64.48 107.41 C 67.81 104.99 62.65 99.09 67.22 98.36 Z" />
</g>
<g id="#2a2c28fe">
<path fill="#2a2c28" opacity="1.00" d=" M 141.32 35.59 C 144.62 37.11 140.57 31.70 144.05 32.03 C 146.67 31.20 146.69 34.59 147.74 36.14 C 147.86 35.35 148.11 33.77 148.24 32.97 C 150.59 33.07 152.53 34.55 154.71 35.26 C 153.91 36.84 151.26 38.61 153.24 40.30 C 154.69 40.63 156.75 41.15 156.90 42.92 C 155.83 44.94 154.73 46.94 154.03 49.11 C 156.53 49.42 158.32 47.69 159.95 46.06 C 159.98 46.80 160.05 48.27 160.08 49.00 C 161.91 45.03 163.62 49.99 166.58 49.06 C 166.30 46.63 166.80 44.22 167.24 41.84 C 169.44 43.17 168.54 46.13 170.23 47.80 C 172.87 51.22 177.93 50.25 181.12 52.86 C 182.50 54.08 184.35 52.99 185.96 53.09 C 186.00 55.73 181.63 54.95 179.90 56.38 C 181.88 58.21 184.38 57.97 186.71 57.03 C 185.38 59.43 188.04 58.97 189.69 59.27 C 190.74 64.02 191.83 69.08 195.27 72.74 C 197.12 73.29 199.11 73.31 200.91 74.04 C 202.24 74.77 203.54 78.43 204.44 75.39 C 209.22 75.02 214.47 77.29 218.80 79.68 C 219.62 78.95 220.41 78.16 221.21 77.39 C 226.66 75.17 223.99 68.01 225.78 63.75 C 226.63 63.10 227.65 62.81 228.86 62.89 C 247.99 93.90 252.42 133.96 239.10 168.04 C 229.85 192.86 211.98 215.46 189.16 228.59 C 186.84 226.49 185.00 227.32 183.49 229.76 C 182.33 227.65 178.98 228.44 178.60 225.69 C 175.64 225.12 174.48 221.51 173.00 219.23 C 173.70 219.14 175.10 218.94 175.80 218.85 C 174.45 217.22 174.63 215.24 174.77 213.27 C 173.51 211.90 170.56 211.51 171.06 209.17 C 172.95 207.60 175.32 206.75 177.79 206.88 C 177.52 207.90 177.26 208.93 177.00 209.95 C 178.75 209.14 180.43 208.18 182.22 207.44 C 184.22 207.80 186.13 208.58 188.12 208.99 C 188.08 207.30 184.43 204.53 187.96 204.91 C 190.30 205.00 187.47 201.73 188.92 200.85 C 193.08 198.50 188.52 192.29 190.08 188.75 C 191.31 190.57 194.22 192.92 190.77 194.09 C 193.08 195.48 195.26 197.41 197.91 198.05 C 199.34 196.97 202.78 193.32 199.38 192.57 C 198.12 191.98 196.98 193.56 195.80 193.89 C 196.46 192.24 196.82 190.22 198.46 189.24 C 199.55 190.74 201.29 191.45 203.01 191.97 C 205.54 191.39 207.20 186.55 209.76 189.14 C 211.15 190.26 211.97 187.14 213.90 187.84 C 213.26 189.80 210.48 193.18 213.89 194.00 C 214.69 189.58 219.13 187.32 222.03 184.26 C 223.46 184.41 226.31 184.71 227.73 184.85 C 227.74 183.25 227.76 181.66 227.78 180.06 C 225.19 179.23 226.30 182.48 225.82 183.96 C 222.65 184.63 225.02 179.85 222.36 178.99 C 222.26 183.41 216.95 177.46 219.65 175.78 C 220.66 174.80 221.25 175.23 221.40 177.06 C 222.62 175.63 222.86 173.89 222.39 172.11 C 223.59 172.02 224.79 171.93 226.00 171.86 C 224.73 167.02 218.64 168.36 214.92 168.88 C 215.23 166.34 219.48 166.67 219.00 163.30 C 216.90 163.25 215.31 162.60 216.08 160.23 C 217.67 159.89 219.28 159.58 220.88 159.30 C 218.56 164.73 223.61 165.00 226.73 164.84 C 227.29 163.20 227.64 161.44 228.79 160.08 C 224.50 161.15 224.96 157.07 223.85 154.22 C 221.68 154.96 219.71 154.33 217.85 153.15 C 214.17 151.66 213.55 158.20 209.35 156.47 C 207.98 156.91 207.05 158.01 206.04 158.96 C 205.98 157.59 205.92 156.22 205.85 154.86 C 204.82 155.86 203.92 156.99 202.96 158.05 C 203.15 156.47 203.63 154.93 203.68 153.34 C 200.51 151.19 200.85 146.90 198.86 143.92 C 196.79 144.59 197.57 146.48 197.86 148.09 C 194.90 145.83 190.60 145.88 188.27 142.78 C 188.45 140.67 188.16 138.36 189.32 136.48 C 193.17 134.86 197.65 131.04 201.71 134.30 C 203.60 135.33 203.96 137.42 204.32 139.35 C 207.75 139.82 209.34 144.13 213.00 144.04 C 215.70 144.36 219.80 140.51 216.52 138.57 C 216.75 137.03 217.35 135.58 217.73 134.08 C 215.14 132.45 212.29 133.64 209.95 135.07 C 209.20 132.89 211.99 132.00 211.92 130.14 C 208.64 129.25 206.16 126.72 202.94 125.92 C 202.24 128.89 207.99 130.46 204.81 132.90 C 202.02 132.43 199.02 129.67 198.01 126.92 C 196.90 123.39 201.51 123.09 202.43 120.36 C 204.42 118.23 200.10 117.86 200.02 115.89 C 199.54 113.93 201.14 112.48 201.94 110.88 C 198.95 110.29 195.78 112.62 196.65 115.80 C 193.50 118.33 191.99 110.45 188.18 112.05 C 187.13 114.83 187.34 118.06 185.56 120.53 C 184.07 121.73 182.54 122.88 181.05 124.07 C 181.50 119.63 188.87 118.78 186.05 112.97 C 186.41 110.97 184.85 109.54 184.00 107.93 C 187.34 103.23 195.60 107.74 198.03 102.03 C 199.08 98.08 200.46 94.13 201.02 90.08 C 197.97 84.64 193.14 80.32 187.83 77.15 C 184.44 75.41 179.92 78.06 177.23 74.80 C 174.12 72.19 177.58 64.15 170.37 66.65 C 166.31 67.26 162.44 65.95 158.78 64.28 C 158.38 62.99 156.31 61.19 158.49 60.49 C 160.48 58.08 163.24 58.21 166.01 58.99 C 165.92 57.31 166.52 55.14 164.77 54.11 C 162.58 53.03 161.70 56.79 159.64 55.50 C 156.57 55.44 156.12 52.27 154.77 50.21 C 152.72 49.86 150.17 48.68 148.90 51.04 C 146.51 48.95 144.68 46.31 143.51 43.36 C 140.81 41.47 137.97 43.46 135.18 43.91 C 131.69 40.76 137.19 39.58 139.62 38.97 C 139.14 37.48 138.94 34.66 141.32 35.59 M 214.33 90.31 C 209.53 92.16 206.01 96.00 202.30 99.39 C 200.46 103.66 205.30 106.55 206.97 109.97 C 206.51 111.42 205.23 112.69 205.47 114.30 C 207.66 118.05 203.98 119.90 203.09 122.85 C 206.19 126.78 211.24 127.40 215.21 129.79 C 218.14 134.31 224.09 130.76 226.71 127.73 C 227.96 124.18 229.55 120.82 231.69 117.71 C 235.08 111.95 229.87 106.17 228.42 100.68 C 226.91 94.71 221.00 88.26 214.33 90.31 Z" />
</g>
<g id="#232420ff">
<path fill="#232420" opacity="1.00" d=" M 63.69 41.70 C 67.63 37.03 73.84 43.44 78.89 42.85 C 84.25 41.71 89.61 40.42 95.15 40.78 C 98.29 44.79 98.81 50.28 101.33 54.68 C 103.36 56.95 106.64 58.25 107.74 61.28 C 108.95 64.31 106.49 67.55 103.99 69.00 C 100.27 71.02 99.44 75.65 96.08 78.00 C 90.15 79.65 93.74 87.81 90.91 91.88 C 87.28 91.71 88.75 89.30 89.79 87.03 C 87.07 84.24 91.01 82.09 91.13 79.04 C 89.47 80.00 87.88 81.10 86.16 81.98 C 86.05 81.20 85.84 79.63 85.73 78.85 C 84.96 79.77 84.28 80.76 83.58 81.74 C 80.82 80.87 80.51 77.97 78.80 76.14 C 76.92 76.23 74.59 77.32 74.63 74.51 C 73.04 74.55 69.56 72.86 69.99 75.51 C 71.51 75.47 72.96 75.91 74.31 76.57 C 66.04 73.66 68.96 78.34 71.09 80.15 C 70.29 81.20 69.11 81.88 68.12 82.73 C 70.77 83.70 73.33 84.91 76.13 85.40 C 74.23 87.43 72.03 86.02 69.95 85.13 C 67.67 85.95 66.38 88.43 64.01 89.13 C 65.82 85.22 63.33 80.13 58.02 82.01 C 56.35 87.31 62.03 82.15 63.19 85.87 C 60.07 86.49 56.88 87.06 53.72 86.40 C 55.74 88.25 57.47 90.21 57.38 93.15 C 58.89 92.16 58.06 89.12 59.95 89.00 C 62.78 90.57 65.42 92.78 65.94 96.17 C 63.85 95.90 62.45 94.24 60.88 93.01 C 57.74 94.32 54.83 97.11 56.54 100.70 C 54.31 100.94 52.79 102.51 52.71 104.78 C 50.37 104.31 48.21 103.25 46.86 101.23 C 48.17 101.10 49.48 100.97 50.78 100.82 C 50.63 99.16 50.49 97.49 50.56 95.82 C 48.78 96.39 47.41 97.70 45.99 98.86 C 45.38 97.23 45.30 95.52 45.61 93.83 C 42.36 93.71 40.73 99.57 37.61 96.51 C 35.65 96.11 31.52 97.10 31.98 99.83 C 33.35 99.96 34.72 100.07 36.09 100.18 C 34.22 101.96 32.26 103.70 30.90 105.93 C 32.45 107.32 33.99 108.74 35.41 110.28 C 36.88 110.22 38.37 110.23 39.06 111.79 C 36.01 114.14 31.81 111.89 31.62 108.15 C 27.04 106.71 28.46 113.30 30.84 114.41 C 33.15 113.73 33.46 117.23 35.68 116.60 C 37.51 116.40 39.94 120.04 37.18 120.72 C 37.57 120.87 38.33 121.17 38.72 121.32 C 34.82 127.00 32.75 133.87 32.26 140.62 C 35.31 142.42 39.58 143.64 39.77 147.83 C 37.46 149.45 31.51 154.55 40.72 151.91 C 41.66 149.14 42.11 146.34 39.87 144.10 C 41.21 144.33 42.53 144.67 43.88 144.86 C 44.96 140.58 44.69 132.76 50.92 132.81 C 49.07 134.79 48.79 137.54 48.09 140.07 C 51.69 138.87 59.35 142.86 59.88 137.10 C 58.63 135.62 57.84 136.70 57.19 138.05 C 57.06 136.83 56.89 135.62 56.67 134.42 C 54.42 133.64 50.90 132.30 52.17 129.24 C 53.14 128.28 54.94 125.79 55.78 128.21 C 55.77 130.72 52.74 135.30 59.74 131.92 C 59.84 131.21 60.03 129.78 60.13 129.06 C 61.11 130.29 62.82 132.15 64.00 129.98 C 65.56 127.29 66.17 131.98 68.00 131.62 C 70.54 131.15 72.43 133.33 74.07 134.94 C 75.54 136.68 78.05 136.79 79.72 138.27 C 80.66 141.56 81.11 145.07 83.68 147.56 C 81.45 148.56 84.08 152.46 80.38 150.74 C 78.88 144.81 70.78 145.83 68.76 140.13 C 67.34 140.97 65.96 141.90 64.74 143.01 C 66.36 146.03 70.69 145.44 72.11 148.82 C 68.88 147.23 67.72 150.83 65.26 152.06 C 65.91 147.92 62.51 149.37 59.92 149.90 C 59.83 148.55 60.40 147.34 61.51 146.56 C 60.54 145.06 60.47 141.68 58.14 142.09 C 56.73 145.11 57.40 148.76 57.60 152.01 C 57.56 153.36 54.81 155.32 57.40 155.48 C 64.86 152.65 61.81 160.74 58.14 160.38 C 56.92 164.53 61.27 163.75 63.77 163.08 C 64.04 164.58 65.07 166.12 64.66 167.66 C 63.50 168.46 62.34 169.26 61.11 169.93 C 59.27 168.05 59.08 164.59 56.07 164.09 C 54.57 164.79 53.25 166.01 51.52 166.07 C 51.44 163.84 51.27 160.95 48.23 162.08 C 47.83 164.80 46.99 167.39 45.99 169.93 C 47.54 171.95 49.05 174.02 49.01 176.70 C 48.49 176.60 47.47 176.39 46.96 176.29 C 46.95 179.38 47.99 182.26 49.72 184.79 C 47.87 186.38 45.69 187.05 43.75 185.16 C 38.93 182.71 33.46 182.47 28.21 181.75 C 24.05 175.91 25.11 168.73 25.96 162.08 C 23.44 157.52 18.97 154.24 16.47 149.66 C 15.92 145.94 12.63 143.50 12.40 139.66 C 11.59 135.04 8.26 131.40 7.08 126.91 C 6.96 123.07 9.33 119.47 8.59 115.61 C 6.45 111.33 10.17 107.01 8.15 102.88 C 8.63 91.28 14.25 80.30 19.10 69.88 C 23.87 69.86 28.24 73.88 33.01 71.01 C 35.14 70.62 41.58 68.58 38.84 65.22 C 37.39 63.26 41.22 62.55 41.72 60.79 C 44.42 55.91 52.35 60.07 55.01 55.01 C 56.32 51.95 60.45 53.80 62.30 51.29 C 65.87 49.20 60.94 44.17 63.69 41.70 Z" />
</g>
<g id="#242521ff">
<path fill="#242521" opacity="1.00" d=" M 192.16 50.12 C 193.03 48.53 193.68 45.65 196.01 45.98 C 200.25 46.97 204.05 49.33 208.10 50.91 C 210.36 50.96 212.50 49.77 214.78 50.11 C 218.29 54.56 219.48 60.44 223.67 64.41 C 223.48 68.79 223.37 73.46 221.21 77.39 C 212.85 75.34 204.47 73.31 196.25 70.75 C 191.36 65.32 190.56 57.05 192.16 50.12 Z" />
<path fill="#242521" opacity="1.00" d=" M 135.34 49.29 C 138.00 48.48 140.85 49.33 143.54 49.18 C 143.59 52.94 147.93 52.76 149.58 55.38 C 151.49 59.45 156.49 53.74 158.93 57.19 C 159.56 59.90 155.53 59.81 154.93 61.98 C 155.45 63.49 157.56 63.49 158.78 64.28 C 162.44 65.95 166.31 67.26 170.37 66.65 C 177.58 64.15 174.12 72.19 177.23 74.80 C 179.92 78.06 184.44 75.41 187.83 77.15 C 193.14 80.32 197.97 84.64 201.02 90.08 C 200.46 94.13 199.08 98.08 198.03 102.03 C 195.60 107.74 187.34 103.23 184.00 107.93 C 184.85 109.54 186.41 110.97 186.05 112.97 C 188.87 118.78 181.50 119.63 181.05 124.07 C 179.80 124.60 178.69 126.38 177.23 125.82 C 174.71 123.94 174.91 120.34 172.76 118.23 C 169.03 116.22 164.20 118.35 160.99 114.98 C 157.19 111.51 152.50 108.54 149.97 103.93 C 150.20 100.33 154.66 98.16 153.02 93.96 C 154.24 88.43 146.16 89.07 143.11 89.88 C 138.35 86.61 132.41 86.50 127.01 84.90 C 125.81 90.96 130.64 95.88 129.93 101.89 C 128.37 104.80 127.91 109.41 123.95 109.93 C 121.68 109.58 119.52 108.75 117.25 108.45 C 114.04 110.45 111.08 112.83 108.05 115.09 C 109.81 119.44 113.97 123.07 114.00 127.92 C 110.44 136.09 98.34 140.03 100.31 150.62 C 104.04 158.37 116.29 156.77 118.48 165.62 C 120.17 168.82 116.99 171.40 116.34 174.37 C 116.11 180.28 117.42 186.86 114.24 192.26 C 112.13 195.63 106.04 192.39 104.78 196.74 C 103.83 198.48 102.95 200.27 101.85 201.92 C 96.51 199.92 93.07 195.36 90.67 190.35 C 88.65 189.29 86.39 188.75 84.41 187.60 C 81.25 183.45 79.26 178.22 75.13 174.89 C 71.19 181.27 73.93 189.01 75.23 195.79 C 77.39 197.44 80.47 197.53 82.29 199.71 C 84.39 201.51 84.41 204.49 85.30 206.93 C 88.23 206.89 90.84 205.27 93.71 204.84 C 93.43 206.82 92.07 209.49 94.21 210.90 C 96.69 211.87 96.76 208.55 97.35 206.99 C 98.36 208.77 100.65 210.45 99.80 212.72 C 97.19 216.26 92.65 217.93 88.35 217.71 C 86.79 215.23 85.40 212.65 83.81 210.19 C 80.61 209.47 70.52 212.11 74.51 204.42 C 74.78 202.69 77.17 200.25 74.76 199.18 C 70.89 198.76 66.12 201.77 63.08 198.75 C 62.48 193.23 65.24 188.27 66.08 182.98 C 63.04 182.82 60.01 183.79 57.45 185.38 C 54.33 191.73 52.21 199.16 44.94 202.03 C 41.31 201.79 36.89 197.90 39.01 194.06 C 40.14 190.82 44.11 190.92 46.84 191.82 C 50.15 189.23 43.93 188.14 43.75 185.16 C 45.69 187.05 47.87 186.38 49.72 184.79 C 47.99 182.26 46.95 179.38 46.96 176.29 C 47.47 176.39 48.49 176.60 49.01 176.70 C 49.05 174.02 47.54 171.95 45.99 169.93 C 46.99 167.39 47.83 164.80 48.23 162.08 C 51.27 160.95 51.44 163.84 51.52 166.07 C 53.25 166.01 54.57 164.79 56.07 164.09 C 59.08 164.59 59.27 168.05 61.11 169.93 C 62.34 169.26 63.50 168.46 64.66 167.66 C 65.07 166.12 64.04 164.58 63.77 163.08 C 61.27 163.75 56.92 164.53 58.14 160.38 C 61.81 160.74 64.86 152.65 57.40 155.48 C 54.81 155.32 57.56 153.36 57.60 152.01 C 57.40 148.76 56.73 145.11 58.14 142.09 C 60.47 141.68 60.54 145.06 61.51 146.56 C 60.40 147.34 59.83 148.55 59.92 149.90 C 62.51 149.37 65.91 147.92 65.26 152.06 C 67.72 150.83 68.88 147.23 72.11 148.82 C 70.69 145.44 66.36 146.03 64.74 143.01 C 65.96 141.90 67.34 140.97 68.76 140.13 C 70.78 145.83 78.88 144.81 80.38 150.74 C 84.08 152.46 81.45 148.56 83.68 147.56 C 81.11 145.07 80.66 141.56 79.72 138.27 C 78.05 136.79 75.54 136.68 74.07 134.94 C 72.43 133.33 70.54 131.15 68.00 131.62 C 66.17 131.98 65.56 127.29 64.00 129.98 C 62.82 132.15 61.11 130.29 60.13 129.06 C 60.03 129.78 59.84 131.21 59.74 131.92 C 52.74 135.30 55.77 130.72 55.78 128.21 C 54.94 125.79 53.14 128.28 52.17 129.24 C 50.90 132.30 54.42 133.64 56.67 134.42 C 56.89 135.62 57.06 136.83 57.19 138.05 C 57.84 136.70 58.63 135.62 59.88 137.10 C 59.35 142.86 51.69 138.87 48.09 140.07 C 48.79 137.54 49.07 134.79 50.92 132.81 C 44.69 132.76 44.96 140.58 43.88 144.86 C 42.53 144.67 41.21 144.33 39.87 144.10 C 42.11 146.34 41.66 149.14 40.72 151.91 C 31.51 154.55 37.46 149.45 39.77 147.83 C 39.58 143.64 35.31 142.42 32.26 140.62 C 32.75 133.87 34.82 127.00 38.72 121.32 C 38.33 121.17 37.57 120.87 37.18 120.72 C 39.94 120.04 37.51 116.40 35.68 116.60 C 33.46 117.23 33.15 113.73 30.84 114.41 C 28.46 113.30 27.04 106.71 31.62 108.15 C 31.81 111.89 36.01 114.14 39.06 111.79 C 38.37 110.23 36.88 110.22 35.41 110.28 C 33.99 108.74 32.45 107.32 30.90 105.93 C 32.26 103.70 34.22 101.96 36.09 100.18 C 34.72 100.07 33.35 99.96 31.98 99.83 C 31.52 97.10 35.65 96.11 37.61 96.51 C 40.73 99.57 42.36 93.71 45.61 93.83 C 45.30 95.52 45.38 97.23 45.99 98.86 C 47.41 97.70 48.78 96.39 50.56 95.82 C 50.49 97.49 50.63 99.16 50.78 100.82 C 49.48 100.97 48.17 101.10 46.86 101.23 C 48.21 103.25 50.37 104.31 52.71 104.78 C 52.79 102.51 54.31 100.94 56.54 100.70 C 54.83 97.11 57.74 94.32 60.88 93.01 C 62.45 94.24 63.85 95.90 65.94 96.17 C 65.42 92.78 62.78 90.57 59.95 89.00 C 58.06 89.12 58.89 92.16 57.38 93.15 C 57.47 90.21 55.74 88.25 53.72 86.40 C 56.88 87.06 60.07 86.49 63.19 85.87 C 62.03 82.15 56.35 87.31 58.02 82.01 C 63.33 80.13 65.82 85.22 64.01 89.13 C 66.38 88.43 67.67 85.95 69.95 85.13 C 72.03 86.02 74.23 87.43 76.13 85.40 C 73.33 84.91 70.77 83.70 68.12 82.73 C 69.11 81.88 70.29 81.20 71.09 80.15 C 68.96 78.34 66.04 73.66 74.31 76.57 C 72.96 75.91 71.51 75.47 69.99 75.51 C 69.56 72.86 73.04 74.55 74.63 74.51 C 74.59 77.32 76.92 76.23 78.80 76.14 C 80.51 77.97 80.82 80.87 83.58 81.74 C 84.28 80.76 84.96 79.77 85.73 78.85 C 85.84 79.63 86.05 81.20 86.16 81.98 C 87.88 81.10 89.47 80.00 91.13 79.04 C 91.01 82.09 87.07 84.24 89.79 87.03 C 88.75 89.30 87.28 91.71 90.91 91.88 C 93.74 87.81 90.15 79.65 96.08 78.00 C 91.70 84.38 92.97 92.44 93.12 99.73 C 93.41 100.03 93.98 100.62 94.27 100.92 L 99.00 101.02 C 103.62 103.77 103.89 98.88 106.74 97.79 C 108.96 96.83 111.33 95.87 112.71 93.73 C 113.35 87.73 114.91 81.84 117.31 76.31 C 119.22 72.22 123.80 79.30 125.87 75.75 C 128.57 66.24 114.42 69.91 112.01 62.99 C 113.94 58.51 119.92 58.88 123.93 59.97 C 128.43 57.58 131.67 52.89 135.34 49.29 M 67.22 98.36 C 62.65 99.09 67.81 104.99 64.48 107.41 C 63.57 110.45 60.70 110.23 58.19 109.43 C 54.92 109.83 54.62 113.78 53.07 116.04 C 52.00 118.20 48.48 117.16 47.42 119.38 C 45.36 123.86 38.87 123.48 36.60 127.66 C 35.39 131.53 35.35 135.78 35.01 139.83 C 38.06 139.63 40.58 141.16 42.88 142.96 C 44.06 139.05 43.86 134.17 47.81 131.84 C 50.97 130.65 51.69 126.25 54.76 125.39 C 59.50 128.19 61.52 123.76 64.16 121.12 C 67.29 123.28 70.58 126.76 74.82 125.90 C 76.67 122.14 78.00 117.33 77.08 113.05 C 77.75 110.10 80.18 107.84 83.04 107.00 C 84.95 107.20 87.42 109.08 88.81 106.82 C 91.14 105.27 90.98 100.29 87.95 100.00 C 81.02 100.82 73.82 101.46 67.22 98.36 Z" />
</g>
<g id="#2a2c28ff">
<path fill="#2a2c28" opacity="1.00" d=" M 127.01 84.90 C 132.41 86.50 138.35 86.61 143.11 89.88 C 146.16 89.07 154.24 88.43 153.02 93.96 C 154.66 98.16 150.20 100.33 149.97 103.93 C 152.50 108.54 157.19 111.51 160.99 114.98 C 164.20 118.35 169.03 116.22 172.76 118.23 C 174.91 120.34 174.71 123.94 177.23 125.82 C 178.69 126.38 179.80 124.60 181.05 124.07 C 180.14 126.24 179.60 129.92 175.41 126.41 C 170.19 125.25 163.54 129.72 160.03 124.22 C 161.92 123.36 165.04 123.84 166.11 122.01 C 164.45 120.72 161.36 118.22 159.84 120.99 C 157.25 121.72 155.98 118.86 153.92 118.00 C 151.45 117.76 150.48 121.29 148.00 121.04 C 146.29 120.91 144.34 120.22 143.45 118.66 C 142.96 117.39 142.94 115.42 141.03 116.04 C 136.91 116.94 135.83 122.00 135.50 125.49 C 134.08 126.61 132.75 127.88 132.16 129.64 C 133.81 130.83 137.03 131.14 137.73 132.91 C 135.63 133.45 133.51 133.99 131.33 134.10 C 132.92 130.05 127.88 127.67 125.04 125.87 C 125.16 128.61 127.84 131.98 125.12 134.14 C 124.18 136.30 126.68 135.89 128.01 136.29 C 127.51 137.81 127.43 140.59 125.15 139.99 C 124.35 138.80 124.07 137.39 123.66 136.05 C 121.87 137.01 120.35 138.38 119.00 139.88 C 121.36 141.82 120.41 145.11 121.26 147.73 C 122.09 149.96 124.58 148.38 126.27 148.35 C 124.44 152.39 118.18 153.41 119.75 158.99 C 118.69 161.83 120.34 164.33 121.01 167.00 C 120.42 169.84 118.85 172.38 118.09 175.19 C 119.65 174.34 120.95 172.79 122.89 172.93 C 122.77 175.15 120.44 178.80 126.65 176.45 C 129.80 177.87 132.19 180.62 135.65 181.48 C 138.95 184.94 131.45 187.55 129.20 184.76 C 127.48 182.45 124.74 187.18 127.08 187.97 C 128.60 188.84 125.05 190.61 126.70 191.35 C 129.68 194.11 128.61 186.62 131.67 188.40 C 134.04 189.16 136.60 187.89 137.87 185.84 C 139.42 183.53 142.48 183.28 145.00 182.92 C 145.62 185.06 143.62 184.98 142.13 185.28 C 141.27 187.39 143.53 186.88 144.86 187.10 C 142.99 188.67 142.86 191.58 141.03 193.01 C 139.39 192.04 137.86 190.89 136.15 190.06 C 134.63 192.26 135.04 194.71 137.54 195.87 C 137.93 194.12 139.57 193.90 141.10 193.96 C 140.29 197.89 134.89 199.49 135.97 203.95 C 137.28 203.70 138.56 203.33 139.88 203.07 C 137.98 206.80 141.83 210.04 145.03 211.09 C 144.98 209.10 144.50 207.17 144.21 205.22 C 145.38 204.85 146.57 204.51 147.77 204.23 C 148.03 205.66 147.92 207.56 149.98 207.01 C 150.13 205.42 148.65 203.40 150.20 202.21 C 151.38 199.56 155.41 203.33 155.97 200.07 C 155.40 199.02 154.69 198.06 154.10 197.03 C 156.45 194.41 161.10 198.25 159.42 201.49 C 162.58 201.94 161.12 205.71 164.11 206.91 C 162.41 206.58 160.72 206.13 159.00 205.98 C 158.44 208.16 159.48 209.84 161.14 211.16 C 159.55 212.27 157.75 213.05 156.20 214.21 C 155.43 215.35 155.59 216.91 154.54 217.90 C 153.56 216.38 152.51 214.89 151.10 213.74 C 151.12 215.21 151.16 218.14 151.18 219.61 C 153.94 220.00 155.21 222.66 157.56 223.80 C 158.75 222.51 159.43 219.47 161.69 220.44 C 163.95 221.30 163.68 217.72 165.05 216.69 C 167.13 218.12 166.22 220.86 166.96 222.91 C 167.98 222.35 168.94 221.69 169.96 221.13 C 171.65 222.65 169.19 223.34 168.84 224.84 C 171.34 223.74 173.60 224.83 172.14 227.64 C 174.71 227.18 178.72 227.30 178.67 230.80 C 177.59 234.99 172.38 232.57 169.63 234.54 C 167.64 236.48 162.10 234.17 163.00 237.97 C 162.68 239.96 165.90 238.57 167.07 239.06 L 166.77 239.77 C 132.72 251.57 93.13 248.53 62.81 228.47 C 67.61 227.57 71.69 231.21 76.09 232.52 C 78.85 230.88 83.97 232.26 82.80 226.65 C 83.68 224.95 85.62 223.36 84.84 221.25 C 83.27 219.46 81.22 218.23 79.31 216.85 C 80.56 214.95 80.55 212.32 82.08 210.72 C 85.54 213.31 83.72 219.62 87.96 220.89 C 92.80 218.56 98.40 217.22 101.87 212.78 C 102.26 208.91 99.54 205.48 98.12 202.01 C 99.68 202.35 101.20 202.98 102.81 202.94 C 104.32 201.22 105.06 199.02 104.78 196.74 C 106.04 192.39 112.13 195.63 114.24 192.26 C 117.42 186.86 116.11 180.28 116.34 174.37 C 116.99 171.40 120.17 168.82 118.48 165.62 C 116.29 156.77 104.04 158.37 100.31 150.62 C 98.34 140.03 110.44 136.09 114.00 127.92 C 113.97 123.07 109.81 119.44 108.05 115.09 C 111.08 112.83 114.04 110.45 117.25 108.45 C 119.52 108.75 121.68 109.58 123.95 109.93 C 127.91 109.41 128.37 104.80 129.93 101.89 C 130.64 95.88 125.81 90.96 127.01 84.90 Z" />
</g>
<g id="#252622ff">
<path fill="#252622" opacity="1.00" d=" M 214.33 90.31 C 221.00 88.26 226.91 94.71 228.42 100.68 C 229.87 106.17 235.08 111.95 231.69 117.71 C 229.55 120.82 227.96 124.18 226.71 127.73 C 224.09 130.76 218.14 134.31 215.21 129.79 C 211.24 127.40 206.19 126.78 203.09 122.85 C 203.98 119.90 207.66 118.05 205.47 114.30 C 205.23 112.69 206.51 111.42 206.97 109.97 C 205.30 106.55 200.46 103.66 202.30 99.39 C 206.01 96.00 209.53 92.16 214.33 90.31 Z" />
</g>
<g id="#272926fe">
<path fill="#272926" opacity="1.00" d=" M 7.16 103.02 L 8.15 102.88 C 10.17 107.01 6.45 111.33 8.59 115.61 C 9.33 119.47 6.96 123.07 7.08 126.91 C 8.26 131.40 11.59 135.04 12.40 139.66 C 12.63 143.50 15.92 145.94 16.47 149.66 C 18.97 154.24 23.44 157.52 25.96 162.08 C 25.11 168.73 24.05 175.91 28.21 181.75 C 33.46 182.47 38.93 182.71 43.75 185.16 C 43.93 188.14 50.15 189.23 46.84 191.82 C 44.11 190.92 40.14 190.82 39.01 194.06 C 36.89 197.90 41.31 201.79 44.94 202.03 C 52.21 199.16 54.33 191.73 57.45 185.38 C 60.01 183.79 63.04 182.82 66.08 182.98 C 65.24 188.27 62.48 193.23 63.08 198.75 C 66.12 201.77 70.89 198.76 74.76 199.18 C 77.17 200.25 74.78 202.69 74.51 204.42 C 70.52 212.11 80.61 209.47 83.81 210.19 C 85.40 212.65 86.79 215.23 88.35 217.71 C 92.65 217.93 97.19 216.26 99.80 212.72 C 100.65 210.45 98.36 208.77 97.35 206.99 C 96.76 208.55 96.69 211.87 94.21 210.90 C 92.07 209.49 93.43 206.82 93.71 204.84 C 90.84 205.27 88.23 206.89 85.30 206.93 C 84.41 204.49 84.39 201.51 82.29 199.71 C 80.47 197.53 77.39 197.44 75.23 195.79 C 73.93 189.01 71.19 181.27 75.13 174.89 C 79.26 178.22 81.25 183.45 84.41 187.60 C 86.39 188.75 88.65 189.29 90.67 190.35 C 93.07 195.36 96.51 199.92 101.85 201.92 C 102.95 200.27 103.83 198.48 104.78 196.74 C 105.06 199.02 104.32 201.22 102.81 202.94 C 101.20 202.98 99.68 202.35 98.12 202.01 C 99.54 205.48 102.26 208.91 101.87 212.78 C 98.40 217.22 92.80 218.56 87.96 220.89 C 83.72 219.62 85.54 213.31 82.08 210.72 C 80.55 212.32 80.56 214.95 79.31 216.85 C 81.22 218.23 83.27 219.46 84.84 221.25 C 85.62 223.36 83.68 224.95 82.80 226.65 C 83.97 232.26 78.85 230.88 76.09 232.52 C 71.69 231.21 67.61 227.57 62.81 228.47 C 39.51 215.07 21.42 192.25 12.40 166.79 C 5.19 146.46 3.42 124.26 7.16 103.02 Z" />
</g>
<g id="#2b2d29ff">
<path fill="#2b2d29" opacity="1.00" d=" M 196.65 115.80 C 195.78 112.62 198.95 110.29 201.94 110.88 C 201.14 112.48 199.54 113.93 200.02 115.89 C 200.10 117.86 204.42 118.23 202.43 120.36 C 201.51 123.09 196.90 123.39 198.01 126.92 C 199.02 129.67 202.02 132.43 204.81 132.90 C 207.99 130.46 202.24 128.89 202.94 125.92 C 206.16 126.72 208.64 129.25 211.92 130.14 C 211.99 132.00 209.20 132.89 209.95 135.07 C 212.29 133.64 215.14 132.45 217.73 134.08 C 217.35 135.58 216.75 137.03 216.52 138.57 C 219.80 140.51 215.70 144.36 213.00 144.04 C 209.34 144.13 207.75 139.82 204.32 139.35 C 203.96 137.42 203.60 135.33 201.71 134.30 C 197.65 131.04 193.17 134.86 189.32 136.48 C 188.16 138.36 188.45 140.67 188.27 142.78 C 190.60 145.88 194.90 145.83 197.86 148.09 C 197.57 146.48 196.79 144.59 198.86 143.92 C 200.85 146.90 200.51 151.19 203.68 153.34 C 203.63 154.93 203.15 156.47 202.96 158.05 C 203.92 156.99 204.82 155.86 205.85 154.86 C 205.92 156.22 205.98 157.59 206.04 158.96 C 207.05 158.01 207.98 156.91 209.35 156.47 C 213.55 158.20 214.17 151.66 217.85 153.15 C 219.71 154.33 221.68 154.96 223.85 154.22 C 224.96 157.07 224.50 161.15 228.79 160.08 C 227.64 161.44 227.29 163.20 226.73 164.84 C 223.61 165.00 218.56 164.73 220.88 159.30 C 219.28 159.58 217.67 159.89 216.08 160.23 C 215.31 162.60 216.90 163.25 219.00 163.30 C 219.48 166.67 215.23 166.34 214.92 168.88 C 218.64 168.36 224.73 167.02 226.00 171.86 C 224.79 171.93 223.59 172.02 222.39 172.11 C 222.86 173.89 222.62 175.63 221.40 177.06 C 221.25 175.23 220.66 174.80 219.65 175.78 C 216.95 177.46 222.26 183.41 222.36 178.99 C 225.02 179.85 222.65 184.63 225.82 183.96 C 226.30 182.48 225.19 179.23 227.78 180.06 C 227.76 181.66 227.74 183.25 227.73 184.85 C 226.31 184.71 223.46 184.41 222.03 184.26 C 219.13 187.32 214.69 189.58 213.89 194.00 C 210.48 193.18 213.26 189.80 213.90 187.84 C 211.97 187.14 211.15 190.26 209.76 189.14 C 207.20 186.55 205.54 191.39 203.01 191.97 C 201.29 191.45 199.55 190.74 198.46 189.24 C 196.82 190.22 196.46 192.24 195.80 193.89 C 196.98 193.56 198.12 191.98 199.38 192.57 C 202.78 193.32 199.34 196.97 197.91 198.05 C 195.26 197.41 193.08 195.48 190.77 194.09 C 194.22 192.92 191.31 190.57 190.08 188.75 C 188.52 192.29 193.08 198.50 188.92 200.85 C 187.47 201.73 190.30 205.00 187.96 204.91 C 184.43 204.53 188.08 207.30 188.12 208.99 C 186.13 208.58 184.22 207.80 182.22 207.44 C 180.43 208.18 178.75 209.14 177.00 209.95 C 177.26 208.93 177.52 207.90 177.79 206.88 C 175.32 206.75 172.95 207.60 171.06 209.17 C 170.56 211.51 173.51 211.90 174.77 213.27 C 174.63 215.24 174.45 217.22 175.80 218.85 C 175.10 218.94 173.70 219.14 173.00 219.23 C 174.48 221.51 175.64 225.12 178.60 225.69 C 178.98 228.44 182.33 227.65 183.49 229.76 C 185.00 227.32 186.84 226.49 189.16 228.59 C 182.39 233.02 174.95 237.31 167.07 239.06 C 165.90 238.57 162.68 239.96 163.00 237.97 C 162.10 234.17 167.64 236.48 169.63 234.54 C 172.38 232.57 177.59 234.99 178.67 230.80 C 178.72 227.30 174.71 227.18 172.14 227.64 C 173.60 224.83 171.34 223.74 168.84 224.84 C 169.19 223.34 171.65 222.65 169.96 221.13 C 168.94 221.69 167.98 222.35 166.96 222.91 C 166.22 220.86 167.13 218.12 165.05 216.69 C 163.68 217.72 163.95 221.30 161.69 220.44 C 159.43 219.47 158.75 222.51 157.56 223.80 C 155.21 222.66 153.94 220.00 151.18 219.61 C 151.16 218.14 151.12 215.21 151.10 213.74 C 152.51 214.89 153.56 216.38 154.54 217.90 C 155.59 216.91 155.43 215.35 156.20 214.21 C 157.75 213.05 159.55 212.27 161.14 211.16 C 159.48 209.84 158.44 208.16 159.00 205.98 C 160.72 206.13 162.41 206.58 164.11 206.91 C 161.12 205.71 162.58 201.94 159.42 201.49 C 161.10 198.25 156.45 194.41 154.10 197.03 C 154.69 198.06 155.40 199.02 155.97 200.07 C 155.41 203.33 151.38 199.56 150.20 202.21 C 148.65 203.40 150.13 205.42 149.98 207.01 C 147.92 207.56 148.03 205.66 147.77 204.23 C 146.57 204.51 145.38 204.85 144.21 205.22 C 144.50 207.17 144.98 209.10 145.03 211.09 C 141.83 210.04 137.98 206.80 139.88 203.07 C 138.56 203.33 137.28 203.70 135.97 203.95 C 134.89 199.49 140.29 197.89 141.10 193.96 C 139.57 193.90 137.93 194.12 137.54 195.87 C 135.04 194.71 134.63 192.26 136.15 190.06 C 137.86 190.89 139.39 192.04 141.03 193.01 C 142.86 191.58 142.99 188.67 144.86 187.10 C 143.53 186.88 141.27 187.39 142.13 185.28 C 143.62 184.98 145.62 185.06 145.00 182.92 C 142.48 183.28 139.42 183.53 137.87 185.84 C 136.60 187.89 134.04 189.16 131.67 188.40 C 128.61 186.62 129.68 194.11 126.70 191.35 C 125.05 190.61 128.60 188.84 127.08 187.97 C 124.74 187.18 127.48 182.45 129.20 184.76 C 131.45 187.55 138.95 184.94 135.65 181.48 C 132.19 180.62 129.80 177.87 126.65 176.45 C 120.44 178.80 122.77 175.15 122.89 172.93 C 120.95 172.79 119.65 174.34 118.09 175.19 C 118.85 172.38 120.42 169.84 121.01 167.00 C 120.34 164.33 118.69 161.83 119.75 158.99 C 118.18 153.41 124.44 152.39 126.27 148.35 C 124.58 148.38 122.09 149.96 121.26 147.73 C 120.41 145.11 121.36 141.82 119.00 139.88 C 120.35 138.38 121.87 137.01 123.66 136.05 C 124.07 137.39 124.35 138.80 125.15 139.99 C 127.43 140.59 127.51 137.81 128.01 136.29 C 126.68 135.89 124.18 136.30 125.12 134.14 C 127.84 131.98 125.16 128.61 125.04 125.87 C 127.88 127.67 132.92 130.05 131.33 134.10 C 133.51 133.99 135.63 133.45 137.73 132.91 C 137.03 131.14 133.81 130.83 132.16 129.64 C 132.75 127.88 134.08 126.61 135.50 125.49 C 135.83 122.00 136.91 116.94 141.03 116.04 C 142.94 115.42 142.96 117.39 143.45 118.66 C 144.34 120.22 146.29 120.91 148.00 121.04 C 150.48 121.29 151.45 117.76 153.92 118.00 C 155.98 118.86 157.25 121.72 159.84 120.99 C 161.36 118.22 164.45 120.72 166.11 122.01 C 165.04 123.84 161.92 123.36 160.03 124.22 C 163.54 129.72 170.19 125.25 175.41 126.41 C 179.60 129.92 180.14 126.24 181.05 124.07 C 182.54 122.88 184.07 121.73 185.56 120.53 C 187.34 118.06 187.13 114.83 188.18 112.05 C 191.99 110.45 193.50 118.33 196.65 115.80 Z" />
</g>
</svg>
