<?xml version="1.0" encoding="UTF-8"?>
<svg width="241.09854pt" height="242.12228pt" version="1.1" viewBox="0 0 241.09854 242.12228" xmlns="http://www.w3.org/2000/svg">
 <g id="#d9cfb2fa" transform="translate(-6.8814579,-4.99)">
  <path d="m97.71 8.63c9.34-1.94 18.93-3.82 28.5-3.47-4.66 4.41-8.83 9.27-13.04 14.08-1.64-2.32-3.78-1.67-5.96-0.6-1.87-1.41-3.22-4.35-6-3.59-1.52 2.85-3.77 5.81-2.45 9.18-3.83-2.8-0.69-8.19 1.23-11.31-1.48-1.72-3.63-2.89-5.91-3.09-0.21-1.63 2.62-0.54 3.63-1.2z" fill="#d9cfb2" opacity=".98"/>
 </g>
 <g id="#f0eee4fe" transform="translate(-6.8814579,-4.99)">
  <path d="m126.21 5.16c0.48-0.03 1.45-0.09 1.93-0.12-0.75 0.95-1.48 1.91-2.23 2.86-28.72 26.81-46.47 64.69-49.15 103.88-0.68 7.71-1.86 15.85-0.09 23.49 0.84 12.93 3.39 25.83 7.95 37.97 4.2 13.37 9.93 26.31 17.7 38 1.31 2.31 2.81 4.5 4.34 6.67 2.97 4.63 5.82 9.35 9.66 13.32 1.33 1.97 2.64 3.96 4.25 5.72 2.25 2.43 4.66 4.72 6.87 7.19-0.57-0.11-1.72-0.32-2.3-0.43-7.33-7.04-13.25-15.39-19.13-23.64-20.1-29.8-32.95-65.52-31.09-101.83-0.01-10.56 1.68-21.05 3.87-31.35 1.01-5.73 3.67-11.06 4.36-16.84 0.63-1.01 1.27-2.02 1.72-3.12 2.45-5.65 4.16-11.67 7.43-16.92 4.2-7.55 8.74-14.91 13.87-21.86 2.18-3.09 4.56-6.03 7-8.91 4.21-4.81 8.38-9.67 13.04-14.08z" fill="#f0eee4"/>
 </g>
 <g transform="translate(-6.8814579,-4.99)">
  <path d="m128.14 5.04c2.72-0.01 8.14-0.04 10.85-0.05l0.01 0.96c-4.16-0.34-8.46-0.36-12.02 2.04l-1.07-0.09c0.75-0.95 1.48-1.91 2.23-2.86z" fill="#2f3232" opacity=".84"/>
 </g>
 <g id="#424b4cfe" transform="translate(-6.8814579,-4.99)">
  <path d="m126.98 7.99c3.56-2.4 7.86-2.38 12.02-2.04 20.13 0.78 39.26 9.22 56 20.05 6.1 4.57 12.53 9.05 17.26 15.1-1.14 2.95-3.25 0.69-4.87-0.52-4.39-4.54-8.22-10.3-14.24-12.81-3.4-2.21-7.11-1.02-10.04 1.32 0.61 1.02 1.33 1.97 1.95 2.99-1.21 1.19-2.64 2.15-4.09 3.01-2.28-1.08-3.45-3.45-4.57-5.57-1.49-1.49-3.78-2.23-4.66-4.25 4.2 1.75 1.06-2.18-0.09-3.94-2.73-1.73-6.22-2.47-9.39-1.53-0.37-1.64-0.31-3.46-1.4-4.84-2.12 0.87-0.63 4.04-3.89 3.31 1.74 1.23 3.59 2.32 5.22 3.7-1.85 2.07-3.78 4.12-4.35 6.94-5.38 1.85-1-5.7-4.04-7.82-3.49-0.4-3.21 4.76-4.95 6.87-1.65 0.05-3.75 0.51-4.75-1.18-0.96-2.56 4.07-3.51 1.78-5.84-2.98 2.63-6.5 5.15-8.03 8.96-0.8 2.38-5.37 1.08-4.88 4.18 3.59 0.16 6.05-2.89 9.19-4.1-0.93 3.29-6.22 3.97-5.2 8.09 2.35-0.63 4.48-1.97 6.94-2.17-0.43 2.42-1.97 5.73 1.88 5.5 1.31 4.36-0.64 10.97 5.15 12.16-2.83 0.48-2.31 4.2 0.59 3.74-0.15 3.74 0.67 8.28 4.26 10.16-0.69 2.4-3.17 0.68-4.87 0.65-0.14 1.63 0.76 2.9 2.05 3.78-4.12-0.85-2.19 2.69-1.92 5.15-2.37 0.35-2.11-2.41-3.08-3.83-1.57 0.44-3.1 1.05-4.69 1.39-1.28-0.9-2.22-2.46-3.92-2.57 0.22 3.37-4.56 5.02-6.35 2.11-1.65 1.47-3.63 2.64-5.88 2.87 0.13-3.88-5.28-4.81-3.33-8.78-0.71-0.12-2.12-0.37-2.83-0.49 0.85-1.32 1.89-2.5 2.91-3.68-5.26-2.63-7.21 4.38-11.09 6.72-1.87 1.2 0.76 2.3 1.94 2.23l0.56-3c2.17-0.06 3.72 1.74 5.66 2.45-0.74 1.62-2.35 1.18-3.78 1.02-1.37 1.57-2.19 4.47-4.81 3.1-2.46-1.24-1.06 2.27-1.28 3.56 1.59-0.46 3.61-3.7 4.34-0.56 1.55 1.84-1.2 1.27-2.32 1.6 0.79 2.72 2.94 4.98 2.97 7.91-1.77-0.59-3.38-1.58-5.14-2.19 0.44 2.63 4.44 3.13 1.88 6.17-1.96-1.27-2.69-4.24-5.36-4.21 0.01 1.04 0.39 2.24-0.65 2.93-3.07 1.53-6.4 2.58-9.84 2.72 0.16 2.19 1.88 3.79 2.98 5.58-2.63-0.3-5.77-1.37-7.76 1.09-1.65 3.33 4.13 0.44 3.86 2.93 0.85 2.5-2.26 3.05-3.06 4.89 1.71 2.4 3.2 5.95 6.08 6.83 3.21-1.27 6.06 0.22 8.95 1.59-1.82 2.08-4.37 3.28-6.44 5.07-0.84-0.37-1.6-0.89-2.41-1.32-0.32 1.61 0.08 3.57-1.35 4.74-1.46 0.22-2.46-1.27-3.69-1.82-0.06 0.73-0.19 2.17-0.25 2.89-2.32-1.63-4.28-4.19-7.71-3.2-0.08-1.76 2.3-5.4-0.92-4.9 0.25 1.19 1.13 3.15-0.82 1.82-0.24-2.13-1.9-3.7-2.34-5.64 1.43-2.43 3.63-4.84 2.34-7.84 0.62-0.13 1.87-0.39 2.49-0.52 0.62-3.81-3.22-6.61-5.7-8.98 0.11-2.33 1.17-4.73 0.08-6.99 5.78-31.64 23.65-59.82 45.7-82.74z" fill="#424b4c"/>
 </g>
 <g id="#101110fe" transform="translate(-6.8814579,-4.99)">
  <path d="m76.76 111.78c2.68-39.19 20.43-77.07 49.15-103.88l1.07 0.09c-22.05 22.92-39.92 51.1-45.7 82.74-0.81 3.86-1.28 7.77-1.86 11.67l-0.1 0.67c-0.36 1.95-0.58 3.93-0.8 5.9-0.23 1.25-0.36 2.52-0.35 3.79-0.16 6.82-0.29 13.66-0.03 20.48-0.03 1.34 0.09 2.69 0.54 3.97 0.12 1.72 0.36 5.16 0.49 6.88 0.48 2.65 0.27 5.57 1.7 7.95 0.14 2.79 0.72 5.52 1.38 8.23 4.3 17.15 11.07 33.96 20.59 48.88-0.13 0.52-0.39 1.57-0.52 2.09-7.77-11.69-13.5-24.63-17.7-38-4.56-12.14-7.11-25.04-7.95-37.97 0.44-7.83 0.43-15.67 0.09-23.49z" fill="#101110"/>
 </g>
 <g id="#e2d8bcff" transform="translate(-6.8814579,-4.99)">
  <path d="m91.11 11.09c0.79-0.86 1.78-1.28 2.97-1.26 2.28 0.2 4.43 1.37 5.91 3.09-1.92 3.12-5.06 8.51-1.23 11.31 2.03 2.01 5.01 2.49 7.41 3.92-5.13 6.95-9.67 14.31-13.87 21.86-1.79-3.59-5.52-6.03-9.37-6.9-2.96 0.42-5.7 1.95-8.74 1.98 0.69-3.22 4.16-5.03 4.29-8.49 0.02-4.2 2.23-7.75 3.43-11.62-1.36-2.27-2.98-4.87-5.81-5.34 1.3-1.64 2.79-3.14 4.16-4.73 2.49 0.98 2.75 2.04 0.52 3.59 4.05-0.45 6.75 4.67 11.19 1.44 2.66-4.09-0.69-4.9-2.75-6.34 0.57-0.88 1.24-1.69 1.89-2.51z" fill="#e2d8bc"/>
 </g>
 <g transform="translate(-6.8814579,-4.99)">
  <path d="m80.06 14.21c3.66-1.07 7.17-3.13 11.05-3.12-0.65 0.82-1.32 1.63-1.89 2.51 2.06 1.44 5.41 2.25 2.75 6.34-4.44 3.23-7.14-1.89-11.19-1.44 2.23-1.55 1.97-2.61-0.52-3.59z" fill="#ded4b9" opacity=".97"/>
 </g>
 <g id="#e7dcc1fe" transform="translate(-6.8814579,-4.99)">
  <path d="m44.81 38.03c9.92-9.82 22.07-18.62 35.45-23.12-1.37 1.59-2.86 3.09-4.16 4.73 2.83 0.47 4.45 3.07 5.81 5.34-1.2 3.87-3.41 7.42-3.43 11.62-0.13 3.46-3.6 5.27-4.29 8.49 1.45 6.77 4 13.27 7.4 19.3 1.12 0.81 2.25 1.61 3.28 2.54-0.45 1.1-1.09 2.11-1.72 3.12-1.82 4.05-4.51 7.5-6.87 11.23 1.09 5.28-0.86 10.36-2.6 15.38-2.68 3.25-7.1-0.04-9.72 3.35 2.97-5.15-2.38-9.51-2.37-14.67-0.94-2.24-3.25-2.81-5.46-2.28-3.65 1.56-9.41 1.03-10.24 5.88-0.09 1.49-4.36 1.74-2.04-0.13 3.25-2.96-2.93-5.94-0.24-9.17 1.3-3.93 5.11-5.01 8.34-6.82 1.01-8.79-9.76-13.27-8.97-21.84-1.43-4.62 2.11-7.88 3.72-11.7-0.48-0.31-1.42-0.94-1.89-1.25z" fill="#e7dcc1"/>
 </g>
 <g id="#d1c6a9ff" transform="translate(-6.8814579,-4.99)">
  <path d="m101.21 15.05c2.78-0.76 4.13 2.18 6 3.59 2.18-1.07 4.32-1.72 5.96 0.6-2.44 2.88-4.82 5.82-7 8.91-2.4-1.43-5.38-1.91-7.41-3.92-1.32-3.37 0.93-6.33 2.45-9.18z" fill="#d1c6a9"/>
 </g>
 <g id="#414a4bff" transform="translate(-6.8814579,-4.99)">
  <path d="m156.97 18.27c3.26 0.73 1.77-2.44 3.89-3.31 1.09 1.38 1.03 3.2 1.4 4.84 3.17-0.94 6.66-0.2 9.39 1.53 1.15 1.76 4.29 5.69 0.09 3.94 0.88 2.02 3.17 2.76 4.66 4.25 1.12 2.12 2.29 4.49 4.57 5.57 1.45-0.86 2.88-1.82 4.09-3.01-0.62-1.02-1.34-1.97-1.95-2.99 2.93-2.34 6.64-3.53 10.04-1.32-0.82 0.09-2.44 0.27-3.25 0.35 0.27 2.29 2.81 3.35 3.14 5.6-4.25-0.96-2.58 4.43-0.28 5.59 1.45 0.63 3.24 4.26 3.52 0.85 1.28 1.07 3.97 1.59 3.68 3.66-1.13 0.63-2.34 1.09-3.51 1.65-0.51 1.6-0.6 3.44-2 4.57-0.42-2.11-3.4-7.26-5.19-3.57 1.94 1.49 1.25 4.35 1.7 6.49-1.31 0.08-2.61 0.08-3.91 0.02 0.3-1.56 0.76-3.08 1.03-4.65-4.63 1.74-10.06-4.14-13.79 0.96 2.3 7.87-3.95 3.07-7.16 3.01-1.06 1.11-1.9 2.39-2.83 3.6-0.56-2.29-2.23-5.58-5.1-4.84-1.81 1.78-1.49 4.52-2.04 6.85 1.24-0.05 2.79-1.17 3.63 0.28-0.01 1.94-1.81 4.72 0.74 5.67 0.78-2.71 6.88-3.63 2.47 3.09 0.54 2.43-2.4 2.09-3.79 3.1 0.7 2.66 0.98 5.71 3 7.76 1.27 0.75 1.95-1.36 2.96-1.82 0.02 2.71-1.69 5.01-1.61 7.72-1.08 3.2-6.65 1.99-5.73-1.51-2.64 2.76-10-0.51-8.64 4.42 1.31 0.48 2.64 0.91 3.9 1.5-0.89 1.5-4.87 2.98-1.01 3.27-1.06 0.92-2.35 1.51-3.57 2.19 0.44 2.81-1.63 4.11-3.09 5.8-0.67 1.23 0.21 4.43-2.05 3.38 0.12-4.85-8.93-1.73-5.3-8.46 2.01-0.26 4.32-0.23 4.19-2.86 1.97 0.77 2.02-0.65 1.71-2.3-2.81 1.07-5.85 1.14-8.64 2.17-1.88 1.75-5.02 3.38-7.13 1.02-0.11 2.79-1.78-0.29-3.12-0.49-0.03 1.22 1.66 4.39-0.73 2.74-2.44-1.01-8-4.26-8.34 0.22 0.72 0.08 2.15 0.23 2.86 0.31-1.36 1.92-2.62 3.97-4.9 4.91-1.24 0.26-1.37 2.8 0.03 2.89 2.22 0.7 3.4 2.91 4.76 4.65-1.46 0.51-1.79 1.92-1.95 3.3 2.56-1.27 5.29-1.54 7.14-3.76 0.96 2.33 0.48 5 1.17 7.42 1.9-0.19 3.78 0.07 5.58 0.68-0.5 3.05 2.02 9.18-2.66 8.82-2.32 0.74-2.03-1.61-2.37-3.13-1.12 0.7-1.4 1.78-1.06 3.01-2.18-0.78-4.42-0.59-6.62-0.03 0.25-2.02 0.77-3.99 1.01-6.01-1.43 1.15-2.44 3.66-4.68 2.77-4.82-0.01-9.28 2.83-14.01 3.72-0.32 4.82 0.12 10.07 3.67 13.68 2.44 2.22-0.97 4.07-2.04 6.02 1.23 0.01 2.45-0.09 3.66-0.28 0.86-3.75 4.8-5.45 7.68-7.5 2.72-1.24 2.4 2.7 2.48 4.35-4.44 0.57-7.2 4.01-8.33 8.13 1.48 3.22 4.18 5.46 6.5 7.98-2.61 1.47-5.52 3.69-4.88 7.1 3.24 0.69 6.11 2.23 8.9 4.1 0.67-1.28 0.41-5 2.68-3.62 1.18 1.57 3.55 4.7 4.73 6.26 1.9 1.78 5.43 2.38 5.83 5.29-1.7-0.52-3.37-1.14-5.07-1.64-0.11 1.51-1.64 3.51 0.06 4.59 1.54 2.42 4.03 0.3 5.81-0.56 1.88 0.66 3.76 1.29 5.78 1.12 1.31 1.01 1.96 2.68 2.19 4.28-3.63-0.14-3.31 3.79-4.25 6.29-1.44-0.16-2.49-1.3-3.77-1.86-3.67 0.47-2.94 7.44 0.93 7.01-0.28-1.6-1.09-3.48 0.99-4.13 1.37 3.22 0.32 6.72 0.03 10.08-2.54-0.41-4.99-1.41-6.14-3.85-2.6 1.02-4.85 5.02-7.8 2.98-2.35-1.26 1.99-1.72 2.87-2.41-0.51-1.19-0.61-3.29-2.43-2.58-0.29 3.24-4.18 3.07-5.54 5.65 1.37 0 3.07-1.11 4.03 0.38 0.58 2.57-3.07 2.73-3.99 4.67 2.02 1.78 3.62 3.94 5.37 5.96 3.04-0.55 9.46-1.4 9.56 2.76-2.12 0.33-3.5 1.83-4.79 3.4-0.92-1.51-2.37-1.8-3.99-1.4 2.81-4.98-4.84-0.82-6.64-3.72 0.16-1.29 0.43-2.57 0.57-3.86-1.41-0.21-4.41 1.73-4.43-0.72 0.87-2.71-5.28 0.04-2.97-2.83 0.51-2.71 4.28-2.26 3.58-5.43-1.76 1.3-3.48 2.67-5.29 3.9-1.94 0.27-4.7-1.95-5.71 0.57 2.15 0.61 2.01 2.87 1.69 4.64-9.52-14.92-16.29-31.73-20.59-48.88 1.41-2.71 0.14-5.87-1.38-8.23-1.43-2.38-1.22-5.3-1.7-7.95 1.26-2.02 2.6-6.11-0.49-6.88-0.45-1.28-0.57-2.63-0.54-3.97 1.31-6.74 1.25-13.74 0.03-20.48-0.01-1.27 0.12-2.54 0.35-3.79 2.92 2.61 2.17-4.34 0.8-5.9l0.1-0.67c2.03-0.65 1.38-3.06 1.78-4.68 2.48 2.37 6.32 5.17 5.7 8.98-0.62 0.13-1.87 0.39-2.49 0.52 1.29 3-0.91 5.41-2.34 7.84 0.44 1.94 2.1 3.51 2.34 5.64 1.95 1.33 1.07-0.63 0.82-1.82 3.22-0.5 0.84 3.14 0.92 4.9 3.43-0.99 5.39 1.57 7.71 3.2 0.06-0.72 0.19-2.16 0.25-2.89 1.23 0.55 2.23 2.04 3.69 1.82 1.43-1.17 1.03-3.13 1.35-4.74 0.81 0.43 1.57 0.95 2.41 1.32 2.07-1.79 4.62-2.99 6.44-5.07-2.89-1.37-5.74-2.86-8.95-1.59-2.88-0.88-4.37-4.43-6.08-6.83 0.8-1.84 3.91-2.39 3.06-4.89 0.27-2.49-5.51 0.4-3.86-2.93 1.99-2.46 5.13-1.39 7.76-1.09-1.1-1.79-2.82-3.39-2.98-5.58 3.44-0.14 6.77-1.19 9.84-2.72 1.04-0.69 0.66-1.89 0.65-2.93 2.67-0.03 3.4 2.94 5.36 4.21 2.56-3.04-1.44-3.54-1.88-6.17 1.76 0.61 3.37 1.6 5.14 2.19-0.03-2.93-2.18-5.19-2.97-7.91 1.12-0.33 3.87 0.24 2.32-1.6-0.73-3.14-2.75 0.1-4.34 0.56 0.22-1.29-1.18-4.8 1.28-3.56 2.62 1.37 3.44-1.53 4.81-3.1 1.43 0.16 3.04 0.6 3.78-1.02-1.94-0.71-3.49-2.51-5.66-2.45l-0.56 3c-1.18 0.07-3.81-1.03-1.94-2.23 3.88-2.34 5.83-9.35 11.09-6.72-1.02 1.18-2.06 2.36-2.91 3.68 0.71 0.12 2.12 0.37 2.83 0.49-1.95 3.97 3.46 4.9 3.33 8.78 2.25-0.23 4.23-1.4 5.88-2.87 1.79 2.91 6.57 1.26 6.35-2.11 1.7 0.11 2.64 1.67 3.92 2.57 1.59-0.34 3.12-0.95 4.69-1.39 0.97 1.42 0.71 4.18 3.08 3.83-0.27-2.46-2.2-6 1.92-5.15-1.29-0.88-2.19-2.15-2.05-3.78 1.7 0.03 4.18 1.75 4.87-0.65-3.59-1.88-4.41-6.42-4.26-10.16-2.9 0.46-3.42-3.26-0.59-3.74-5.79-1.19-3.84-7.8-5.15-12.16-3.85 0.23-2.31-3.08-1.88-5.5-2.46 0.2-4.59 1.54-6.94 2.17-1.02-4.12 4.27-4.8 5.2-8.09-3.14 1.21-5.6 4.26-9.19 4.1-0.49-3.1 4.08-1.8 4.88-4.18 1.53-3.81 5.05-6.33 8.03-8.96 2.29 2.33-2.74 3.28-1.78 5.84 1 1.69 3.1 1.23 4.75 1.18 1.74-2.11 1.46-7.27 4.95-6.87 3.04 2.12-1.34 9.67 4.04 7.82 0.57-2.82 2.5-4.87 4.35-6.94-1.63-1.38-3.48-2.47-5.22-3.7z" fill="#414a4b"/>
 </g>
 <g id="#40494aff" transform="translate(-6.8814579,-4.99)">
  <path d="m189.9 28.12c0.81-0.08 2.43-0.26 3.25-0.35 6.02 2.51 9.85 8.27 14.24 12.81 1.62 1.21 3.73 3.47 4.87 0.52 5.31 4.33 10.22 9.83 13.57 15.94 0.82 2.64 2.38 4.93 3.97 7.16 5.08 10.56 10.13 21.32 12.48 32.88 1.84 8.62 2.37 17.4 3.28 26.12 0.03 0.4 0.08 1.2 0.1 1.6 1.05 37.35-17.96 73.72-47.36 96.3 0.1 0.31 0.29 0.94 0.39 1.26-2.58 2.77-7.53 6.25-11.5 8.11-4.88 0.15-9.17 3.94-13.18 6.58-12.79 6.66-27.63 8.61-41.83 9.87-3.4-3.57-6.74-7.21-10.34-10.59-0.32 0.15-0.95 0.46-1.27 0.62-1.61-1.76-2.92-3.75-4.25-5.72 0.09-0.32 0.26-0.96 0.35-1.28-3.01-4.19-5.83-8.51-8.79-12.74-0.3 0.18-0.92 0.53-1.22 0.7-1.53-2.17-3.03-4.36-4.34-6.67 0.13-0.52 0.39-1.57 0.52-2.09 0.32-1.77 0.46-4.03-1.69-4.64 1.01-2.52 3.77-0.3 5.71-0.57 1.81-1.23 3.53-2.6 5.29-3.9 0.7 3.17-3.07 2.72-3.58 5.43-2.31 2.87 3.84 0.12 2.97 2.83 0.02 2.45 3.02 0.51 4.43 0.72-0.14 1.29-0.41 2.57-0.57 3.86 1.8 2.9 9.45-1.26 6.64 3.72 1.62-0.4 3.07-0.11 3.99 1.4 1.29-1.57 2.67-3.07 4.79-3.4-0.1-4.16-6.52-3.31-9.56-2.76-1.75-2.02-3.35-4.18-5.37-5.96 0.92-1.94 4.57-2.1 3.99-4.67-0.96-1.49-2.66-0.38-4.03-0.38 1.36-2.58 5.25-2.41 5.54-5.65 1.82-0.71 1.92 1.39 2.43 2.58-0.88 0.69-5.22 1.15-2.87 2.41 2.95 2.04 5.2-1.96 7.8-2.98 1.15 2.44 3.6 3.44 6.14 3.85 0.29-3.36 1.34-6.86-0.03-10.08-2.08 0.65-1.27 2.53-0.99 4.13-3.87 0.43-4.6-6.54-0.93-7.01 1.28 0.56 2.33 1.7 3.77 1.86 0.94-2.5 0.62-6.43 4.25-6.29-0.23-1.6-0.88-3.27-2.19-4.28-2.02 0.17-3.9-0.46-5.78-1.12-1.78 0.86-4.27 2.98-5.81 0.56-1.7-1.08-0.17-3.08-0.06-4.59 1.7 0.5 3.37 1.12 5.07 1.64-0.4-2.91-3.93-3.51-5.83-5.29-1.18-1.56-3.55-4.69-4.73-6.26-2.27-1.38-2.01 2.34-2.68 3.62-2.79-1.87-5.66-3.41-8.9-4.1-0.64-3.41 2.27-5.63 4.88-7.1-2.32-2.52-5.02-4.76-6.5-7.98 1.13-4.12 3.89-7.56 8.33-8.13-0.08-1.65 0.24-5.59-2.48-4.35-2.88 2.05-6.82 3.75-7.68 7.5-1.21 0.19-2.43 0.29-3.66 0.28 1.07-1.95 4.48-3.8 2.04-6.02-3.55-3.61-3.99-8.86-3.67-13.68 4.73-0.89 9.19-3.73 14.01-3.72 2.24 0.89 3.25-1.62 4.68-2.77-0.24 2.02-0.76 3.99-1.01 6.01 2.2-0.56 4.44-0.75 6.62 0.03-0.34-1.23-0.06-2.31 1.06-3.01 0.34 1.52 0.05 3.87 2.37 3.13 4.68 0.36 2.16-5.77 2.66-8.82-1.8-0.61-3.68-0.87-5.58-0.68-0.69-2.42-0.21-5.09-1.17-7.42-1.85 2.22-4.58 2.49-7.14 3.76 0.16-1.38 0.49-2.79 1.95-3.3-1.36-1.74-2.54-3.95-4.76-4.65-1.4-0.09-1.27-2.63-0.03-2.89 2.28-0.94 3.54-2.99 4.9-4.91-0.71-0.08-2.14-0.23-2.86-0.31 0.34-4.48 5.9-1.23 8.34-0.22 2.39 1.65 0.7-1.52 0.73-2.74 1.34 0.2 3.01 3.28 3.12 0.49 2.11 2.36 5.25 0.73 7.13-1.02 2.79-1.03 5.83-1.1 8.64-2.17 0.31 1.65 0.26 3.07-1.71 2.3 0.13 2.63-2.18 2.6-4.19 2.86-3.63 6.73 5.42 3.61 5.3 8.46 2.26 1.05 1.38-2.15 2.05-3.38 1.46-1.69 3.53-2.99 3.09-5.8 1.22-0.68 2.51-1.27 3.57-2.19-3.86-0.29 0.12-1.77 1.01-3.27-1.26-0.59-2.59-1.02-3.9-1.5-1.36-4.93 6-1.66 8.64-4.42-0.92 3.5 4.65 4.71 5.73 1.51-0.08-2.71 1.63-5.01 1.61-7.72-1.01 0.46-1.69 2.57-2.96 1.82-2.02-2.05-2.3-5.1-3-7.76 1.39-1.01 4.33-0.67 3.79-3.1 4.41-6.72-1.69-5.8-2.47-3.09-2.55-0.95-0.75-3.73-0.74-5.67-0.84-1.45-2.39-0.33-3.63-0.28 0.55-2.33 0.23-5.07 2.04-6.85 2.87-0.74 4.54 2.55 5.1 4.84 0.93-1.21 1.77-2.49 2.83-3.6 3.21 0.06 9.46 4.86 7.16-3.01 3.73-5.1 9.16 0.78 13.79-0.96-0.27 1.57-0.73 3.09-1.03 4.65 1.3 0.06 2.6 0.06 3.91-0.02-0.45-2.14 0.24-5-1.7-6.49 1.79-3.69 4.77 1.46 5.19 3.57 1.4-1.13 1.49-2.97 2-4.57 1.17-0.56 2.38-1.02 3.51-1.65 0.29-2.07-2.4-2.59-3.68-3.66-0.28 3.41-2.07-0.22-3.52-0.85-2.3-1.16-3.97-6.55 0.28-5.59-0.33-2.25-2.87-3.31-3.14-5.6m-12.58 23.09c-1.72 2.05-2.15 4.66-3.12 7.01-4.46 4.71-0.12 11 0 16.56 2.29-0.19 3.17 0.99 2.98 3.2 2.72-0.5 7.73-1.26 7 3.01 1.78-0.33 4.63-2.15 5.27 0.65 0.87 2.68 3.2 1.97 5.27 1.21-1.48-2.59 2.88-3.22 2.33-5.84-1.65-0.15-3.48-0.25-3.32 1.95-2.42-0.55-7.46-1.28-4.55-4.53 1.9 0.23 5.3-1.65 5.02 1.53 1.92-1.56 4.08-2.8 6.54-3.29 0.67-2.58 2.66-4.9 3.07-7.32-2.39-0.61-2.82-3.68-5.51-3.67-0.32-1.45-0.56-3.17-2.15-3.78 1.35 4.78-4.79 2.35-5.42-0.56-3.1 1.77-5.56-0.65-8.29-1.81-1.51-1.49-2.59-4.87-5.12-4.32m-2.99 109.17c-1.34 0.47-2.76 0.55-4.15 0.74 0.47 1.26 0.9 2.54 0.86 3.91-2.22-0.37-5.9-0.21-6.34-3.01-1.04 0.83-1.97 1.78-2.99 2.63-1.38 0.34-3.35 0.19-2.7 2.22 0.75 0.07 2.25 0.19 3 0.25-0.87 1.35-1.78 2.67-2.76 3.95 0.05-1.67-0.72-2.36-2.3-2.07-0.15 1.6 1.42 3.56-0.18 4.77-1.32 1.19-0.69 2.64 1.12 2.42-0.31 3.13-2.27 2.51-4.6 2.11-5.66 4.76-14.7 7.93-15.25 16.48 5.07-0.22 5.66 5.88 8.22 8.92 3.01 2.29 6.63 4.03 8.6 7.42 0.06-0.78 0.2-2.33 0.27-3.11 3.06-1 1.15 5.46 4.76 3.28 2.81 2.38-1.96 5.09-2.84 7.52 2.71 0.93 6.66 1.84 7 5.21-1.98-0.47-5.63-2.26-6.04 0.98 0.83 2.89 3.99 4.04 5.26 6.73 2.71 1.03 6.7 3.88 8.37-0.01 0.81-7.65 10.61-2.16 14.66-5.46 2.29-1.32 1.3-6.49 4.93-4.81 5.88-2.22 13.16-6.68 13.47-13.76 0.79-4.49 6.12-1.9 9.05-3.96 1.39-1.7 0.38-3.67 0.23-5.58 0.76-0.07 2.28-0.23 3.05-0.31 0.41-2.7-2.08-2.77-3.88-1.9-1.47-2.91-3.54-5.67-2.08-9.03-1.48 0.46-1.28 2.99-2.9 2.99-1.81-2.35-0.92-6.58 2.6-6.05-0.58-2.17 0.73-7.37-2.45-5.43-2.32 1.41-0.54-3.02-3.08-2.83-1.5-4.13-0.51-8.26-0.35-12.45-0.69-0.06-2.06-0.18-2.75-0.23 1.8-2.32-1.2-2.16-2.88-2.52-2.28 2.81-5.91 1.15-9 1.05-1.06 1.37-2.48 0.95-3.94 0.88-1.8 2.03-4.66 2.3-7.32 1.8 0.11 1.19 0.96 2.37 0.56 3.58-1.37 2.73 3.43 5.05 5.54 3.42 0.43 2.06-1.83 2.48-3.39 2.34-2.23-0.13-4.56 0.49-6.65-0.61-0.13-2.42 1.57-5.34-0.7-7.19-1.75-1.42 1.8-5.41-0.03-5.28z" fill="#40494a"/>
 </g>
 <g id="#e0d6bbfd" transform="translate(-6.8814579,-4.99)">
  <path d="m14.35 86.69c5.36-18.02 16.39-35.76 30.46-48.66 0.47 0.31 1.41 0.94 1.89 1.25-1.61 3.82-5.15 7.08-3.72 11.7-0.79 8.57 9.98 13.05 8.97 21.84-3.23 1.81-7.04 2.89-8.34 6.82-2.69 3.23 3.49 6.21 0.24 9.17-2.32 1.87 1.95 1.62 2.04 0.13 0.83-4.85 6.59-4.32 10.24-5.88-2.75 2.96-5.01 6.53-8.71 8.4-2.93 2.52-3.8 6.62-6.11 9.66-0.5-2.45-3.22-3.06-4.95-4.44 0.69-2.91 2.01-5.63 2.65-8.55-1.8-1.2-4.16-0.99-5.92-2.26-0.85-2.15 1.52-1.77 2.87-2.15 0.05-4.82-7.03-1.97-10.26-3.2-3.9 1.42-5.57 6.11-7.99 9.35-1.19-1-2.21-2.16-3.36-3.18m29.93-23.41c-3.81 0.8-3.65 5.04-5.45 7.66-3.19-0.83-6.48-3.3-9.75-0.73-0.49 2.56 3.4 3.15 2.9 5.79-0.1 3.26 4.19 4.45 6.84 3.9 0.87-1.81 1.15-3.8 1.37-5.77 3.07-0.09 6.33-0.13 8.73-2.29-1.17-3.2 0.5-10.32-4.64-8.56z" fill="#e0d6bb"/>
 </g>
 <g id="#cdc2a7ff" transform="translate(-6.8814579,-4.99)">
  <path d="m74.19 45.09c3.04-0.03 5.78-1.56 8.74-1.98 3.85 0.87 7.58 3.31 9.37 6.9-3.27 5.25-4.98 11.27-7.43 16.92-1.03-0.93-2.16-1.73-3.28-2.54-3.4-6.03-5.95-12.53-7.4-19.3z" fill="#cdc2a7"/>
 </g>
 <g id="#3d4647ff" transform="translate(-6.8814579,-4.99)">
  <path d="m177.32 51.21c2.53-0.55 3.61 2.83 5.12 4.32 2.73 1.16 5.19 3.58 8.29 1.81 0.63 2.91 6.77 5.34 5.42 0.56 1.59 0.61 1.83 2.33 2.15 3.78 2.69-0.01 3.12 3.06 5.51 3.67-0.41 2.42-2.4 4.74-3.07 7.32-2.46 0.49-4.62 1.73-6.54 3.29 0.28-3.18-3.12-1.3-5.02-1.53-2.91 3.25 2.13 3.98 4.55 4.53-0.16-2.2 1.67-2.1 3.32-1.95 0.55 2.62-3.81 3.25-2.33 5.84-2.07 0.76-4.4 1.47-5.27-1.21-0.64-2.8-3.49-0.98-5.27-0.65 0.73-4.27-4.28-3.51-7-3.01 0.19-2.21-0.69-3.39-2.98-3.2-0.12-5.56-4.46-11.85 0-16.56 0.97-2.35 1.4-4.96 3.12-7.01z" fill="#3d4647"/>
 </g>
 <g transform="translate(-6.8814579,-4.99)">
  <path d="m225.83 57.04c2.47 1.18 4.15 4.55 4.92 7.17l-0.95-0.01c-1.59-2.23-3.15-4.52-3.97-7.16z" fill="#111514" opacity=".75"/>
 </g>
 <g id="#dacfb4ff" transform="translate(-6.8814579,-4.99)">
  <path d="m44.28 63.28c5.14-1.76 3.47 5.36 4.64 8.56-2.4 2.16-5.66 2.2-8.73 2.29-0.22 1.97-0.5 3.96-1.37 5.77-2.65 0.55-6.94-0.64-6.84-3.9 0.5-2.64-3.39-3.23-2.9-5.79 3.27-2.57 6.56-0.1 9.75 0.73 1.8-2.62 1.64-6.86 5.45-7.66z" fill="#dacfb4"/>
 </g>
 <g transform="translate(-6.8814579,-4.99)">
  <path d="m229.8 64.2 0.95 0.01c6.31 9.19 10.02 19.97 12.92 30.65-0.46 0.74-0.93 1.48-1.39 2.22-2.35-11.56-7.4-22.32-12.48-32.88z" fill="#1a1e1d" opacity=".9"/>
 </g>
 <g id="#e2d8bdff" transform="translate(-6.8814579,-4.99)">
  <path d="m76.28 81.28c2.36-3.73 5.05-7.18 6.87-11.23-0.69 5.78-3.35 11.11-4.36 16.84-2.19 10.3-3.88 20.79-3.87 31.35-1.76-0.17-1.88-1.83-2.29-3.19-4.63 1.22-8.1 5.09-11.76 8.02-1.53-1.17-2.47-2.91-3.76-4.3 2.4-3.69 2.98-8.27 5.79-11.8 1.96-2.04 0.09-4.69 1.06-6.96 2.62-3.39 7.04-0.1 9.72-3.35 1.74-5.02 3.69-10.1 2.6-15.38z" fill="#e2d8bd"/>
 </g>
 <g id="#e6dbc1fe" transform="translate(-6.8814579,-4.99)">
  <path d="m17.71 89.87c2.42-3.24 4.09-7.93 7.99-9.35 3.23 1.23 10.31-1.62 10.26 3.2-1.35 0.38-3.72 0-2.87 2.15 1.76 1.27 4.12 1.06 5.92 2.26-0.64 2.92-1.96 5.64-2.65 8.55 1.73 1.38 4.45 1.99 4.95 4.44-2.24 4.03 0.95 8.54 1.04 12.7 1.28 3.37 2.1 6.96 3.81 10.15 4.39 0.74 7.01-3.97 10.95-5.2 1.29 1.39 2.23 3.13 3.76 4.3 3.66-2.93 7.13-6.8 11.76-8.02 0.41 1.36 0.53 3.02 2.29 3.19-1.86 36.31 10.99 72.03 31.09 101.83-4.72 0.88-7.71-3.27-11.7-4.85-3.33 3.29-0.55 8.26-3.17 11.86 0.13 2.5 3.21 1.89 4.49 3.23 0.07 2.24 0.77 4.24 2.07 5.98 1.32 1.84 4.45 6.8 0.36 6.81-8.76-0.58-16.59-5.58-24.73-8.53-24.67-12.51-45.24-33.15-56.44-58.53-11.53-24.43-12.56-53.02-5.84-78.98 1.26-3.36 0.82-7.54 3.3-10.37 1.15 1.02 2.17 2.18 3.36 3.18m4.5 43.22c-0.87 1.23-1.55 2.58-2.4 3.82-2.55 0.73-3.07-3.58-5.59-2.77-2.52 1.58-2.22 6.38 1.07 6.55 4.49-0.52 10.29 3.12 9.93 8.12 2.27 2.64 5.67 2.3 8.52 0.89 1.44-1.91 0.72-4.3 1.06-6.5-5.94-2.22-3.95-13.87-12.59-10.11m51.11 63.24c-1.8 0.83-3.63 1.66-5.24 2.85-0.01 2.45-0.05 7.36-0.07 9.82 4.86 0.44 9.03-4.01 10.66-8.29 1.6-2.96-1.45-7.34-5.35-4.38z" fill="#e6dbc1"/>
 </g>
 <g id="#c5baa0ff" transform="translate(-6.8814579,-4.99)">
  <path d="m56.13 83.06c2.21-0.53 4.52 0.04 5.46 2.28-0.01 5.16 5.34 9.52 2.37 14.67-0.97 2.27 0.9 4.92-1.06 6.96-2.81 3.53-3.39 8.11-5.79 11.8-3.94 1.23-6.56 5.94-10.95 5.2-1.71-3.19-2.53-6.78-3.81-10.15-0.09-4.16-3.28-8.67-1.04-12.7 2.31-3.04 3.18-7.14 6.11-9.66 3.7-1.87 5.96-5.44 8.71-8.4z" fill="#c5baa0"/>
 </g>
 <g id="#535c5dfe" transform="translate(-6.8814579,-4.99)">
  <path d="m81.28 90.73c1.09 2.26 0.03 4.66-0.08 6.99-0.4 1.62 0.25 4.03-1.78 4.68 0.58-3.9 1.05-7.81 1.86-11.67z" fill="#535c5d"/>
 </g>
 <g transform="translate(-6.8814579,-4.99)">
  <path d="m242.28 97.08c0.46-0.74 0.93-1.48 1.39-2.22 1.49 8.52 3.5 17.21 3.1 25.85-0.3 0.62-0.91 1.87-1.21 2.49-0.91-8.72-1.44-17.5-3.28-26.12z" fill="#252a29" opacity=".95"/>
 </g>
 <g id="#5a6364fe" transform="translate(-6.8814579,-4.99)">
  <path d="m79.32 103.07c1.37 1.56 2.12 8.51-0.8 5.9 0.22-1.97 0.44-3.95 0.8-5.9z" fill="#5a6364"/>
 </g>
 <g id="#757771fe" transform="translate(-6.8814579,-4.99)">
  <path d="m76.67 135.27c-1.77-7.64-0.59-15.78 0.09-23.49 0.34 7.82 0.35 15.66-0.09 23.49z" fill="#757771"/>
 </g>
 <g id="#5c6668ff" transform="translate(-6.8814579,-4.99)">
  <path d="m78.17 112.76c1.22 6.74 1.28 13.74-0.03 20.48-0.26-6.82-0.13-13.66 0.03-20.48z" fill="#5c6668"/>
 </g>
 <g id="#121512ff" transform="translate(-6.8814579,-4.99)">
  <path d="m245.56 123.2c0.3-0.62 0.91-1.87 1.21-2.49l0.11 1.15c0.08 3.71 0.18 7.45 0.08 11.17-0.05 0.56-0.17 1.68-0.22 2.24-0.47-3.49-0.77-6.98-1.08-10.47-0.02-0.4-0.07-1.2-0.1-1.6z" fill="#121512"/>
 </g>
 <g transform="translate(-6.8814579,-4.99)">
  <path d="m246.88 121.86 1.07 0.17c0.01 2.74 0.02 8.22 0.03 10.96l-1.02 0.04c0.1-3.72 0-7.46-0.08-11.17z" fill="#161717" opacity=".16"/>
 </g>
 <g id="#272b2bee" transform="translate(-6.8814579,-4.99)">
  <path d="m198.3 221.1c29.4-22.58 48.41-58.95 47.36-96.3 0.31 3.49 0.61 6.98 1.08 10.47-1.06 33.95-20.3 65.28-46.04 86.48-0.5 0.15-1.51 0.46-2.01 0.61-0.1-0.32-0.29-0.95-0.39-1.26z" fill="#272b2b" opacity=".93"/>
 </g>
 <g id="#e0d6bbff" transform="translate(-6.8814579,-4.99)">
  <path d="m22.21 133.09c8.64-3.76 6.65 7.89 12.59 10.11-0.34 2.2 0.38 4.59-1.06 6.5-2.85 1.41-6.25 1.75-8.52-0.89 0.36-5-5.44-8.64-9.93-8.12-3.29-0.17-3.59-4.97-1.07-6.55 2.52-0.81 3.04 3.5 5.59 2.77 0.85-1.24 1.53-2.59 2.4-3.82z" fill="#e0d6bb"/>
 </g>
 <g id="#555f5ffe" transform="translate(-6.8814579,-4.99)">
  <path d="m78.68 137.21c3.09 0.77 1.75 4.86 0.49 6.88-0.13-1.72-0.37-5.16-0.49-6.88z" fill="#555f5f"/>
 </g>
 <g id="#505c5cff" transform="translate(-6.8814579,-4.99)">
  <path d="m80.87 152.04c1.52 2.36 2.79 5.52 1.38 8.23-0.66-2.71-1.24-5.44-1.38-8.23z" fill="#505c5c"/>
 </g>
 <g id="#3e4748ff" transform="translate(-6.8814579,-4.99)">
  <path d="m174.33 160.38c1.83-0.13-1.72 3.86 0.03 5.28 2.27 1.85 0.57 4.77 0.7 7.19 2.09 1.1 4.42 0.48 6.65 0.61 1.56 0.14 3.82-0.28 3.39-2.34-2.11 1.63-6.91-0.69-5.54-3.42 0.4-1.21-0.45-2.39-0.56-3.58 2.66 0.5 5.52 0.23 7.32-1.8 1.46 0.07 2.88 0.49 3.94-0.88 3.09 0.1 6.72 1.76 9-1.05 1.68 0.36 4.68 0.2 2.88 2.52 0.69 0.05 2.06 0.17 2.75 0.23-0.16 4.19-1.15 8.32 0.35 12.45 2.54-0.19 0.76 4.24 3.08 2.83 3.18-1.94 1.87 3.26 2.45 5.43-3.52-0.53-4.41 3.7-2.6 6.05 1.62 0 1.42-2.53 2.9-2.99-1.46 3.36 0.61 6.12 2.08 9.03 1.8-0.87 4.29-0.8 3.88 1.9-0.77 0.08-2.29 0.24-3.05 0.31 0.15 1.91 1.16 3.88-0.23 5.58-2.93 2.06-8.26-0.53-9.05 3.96-0.31 7.08-7.59 11.54-13.47 13.76-3.63-1.68-2.64 3.49-4.93 4.81-4.05 3.3-13.85-2.19-14.66 5.46-1.67 3.89-5.66 1.04-8.37 0.01-1.27-2.69-4.43-3.84-5.26-6.73 0.41-3.24 4.06-1.45 6.04-0.98-0.34-3.37-4.29-4.28-7-5.21 0.88-2.43 5.65-5.14 2.84-7.52-3.61 2.18-1.7-4.28-4.76-3.28-0.07 0.78-0.21 2.33-0.27 3.11-1.97-3.39-5.59-5.13-8.6-7.42-2.56-3.04-3.15-9.14-8.22-8.92 0.55-8.55 9.59-11.72 15.25-16.48 2.33 0.4 4.29 1.02 4.6-2.11-1.81 0.22-2.44-1.23-1.12-2.42 1.6-1.21 0.03-3.17 0.18-4.77 1.58-0.29 2.35 0.4 2.3 2.07 0.98-1.28 1.89-2.6 2.76-3.95-0.75-0.06-2.25-0.18-3-0.25-0.65-2.03 1.32-1.88 2.7-2.22 1.02-0.85 1.95-1.8 2.99-2.63 0.44 2.8 4.12 2.64 6.34 3.01 0.04-1.37-0.39-2.65-0.86-3.91 1.39-0.19 2.81-0.27 4.15-0.74m-27.12 23.74c-2.01 2.25-5.09 4.55-5.19 7.79 1.35 2.79 2.38 6.39 5.62 7.5 2.12 1.2 6.89 1.94 6.93-1.16-0.65-1.57 1.91-2.33 1.06-3.94-1.22-4.38-1.56-12.99-8.42-10.19z" fill="#3e4748"/>
 </g>
 <g id="#3a4143ff" transform="translate(-6.8814579,-4.99)">
  <path d="m147.21 184.12c6.86-2.8 7.2 5.81 8.42 10.19 0.85 1.61-1.71 2.37-1.06 3.94-0.04 3.1-4.81 2.36-6.93 1.16-3.24-1.11-4.27-4.71-5.62-7.5 0.1-3.24 3.18-5.54 5.19-7.79z" fill="#3a4143"/>
 </g>
 <g id="#ded3b8ff" transform="translate(-6.8814579,-4.99)">
  <path d="m73.32 196.33c3.9-2.96 6.95 1.42 5.35 4.38-1.63 4.28-5.8 8.73-10.66 8.29 0.02-2.46 0.06-7.37 0.07-9.82 1.61-1.19 3.44-2.02 5.24-2.85z" fill="#ded3b8"/>
 </g>
 <g id="#e0d5bafd" transform="translate(-6.8814579,-4.99)">
  <path d="m94.31 215.22c3.99 1.58 6.98 5.73 11.7 4.85 5.88 8.25 11.8 16.6 19.13 23.64 0.58 0.11 1.73 0.32 2.3 0.43 0.97 0.86 1.88 1.78 2.8 2.7-5.69 0.1-11.58 0.96-17.05-1.01-3.08-1.66-3.29-5.65-5.56-8.1 1.03-4.78-2.06-12.62-8.39-9.55-3.16 1.7-2.02 5.27-1.54 8.11-1.3-1.74-2-3.74-2.07-5.98-1.28-1.34-4.36-0.73-4.49-3.23 2.62-3.6-0.16-8.57 3.17-11.86z" fill="#e0d5ba"/>
 </g>
 <g id="#0b0b0bff" transform="translate(-6.8814579,-4.99)">
  <path d="m106.66 217.91c0.3-0.17 0.92-0.52 1.22-0.7 2.96 4.23 5.78 8.55 8.79 12.74-0.09 0.32-0.26 0.96-0.35 1.28-3.84-3.97-6.69-8.69-9.66-13.32z" fill="#0b0b0b"/>
 </g>
 <g id="#cfc4a9fb" transform="translate(-6.8814579,-4.99)">
  <path d="m99.24 228.18c6.33-3.07 9.42 4.77 8.39 9.55 2.27 2.45 2.48 6.44 5.56 8.1-5.14 0.63-10.06-1.47-15.12-1.97l-0.01-0.76c4.09-0.01 0.96-4.97-0.36-6.81-0.48-2.84-1.62-6.41 1.54-8.11z" fill="#cfc4a9"/>
 </g>
 <g transform="translate(-6.8814579,-4.99)">
  <path d="m174.01 237.05c4.01-2.64 8.3-6.43 13.18-6.58-4.05 2.68-8.2 6.21-13.18 6.58z" fill="#171c1b" opacity=".82"/>
 </g>
 <g id="#060707fc" transform="translate(-6.8814579,-4.99)">
  <path d="m120.57 236.95c0.32-0.16 0.95-0.47 1.27-0.62 3.6 3.38 6.94 7.02 10.34 10.59-0.49-0.02-1.46-0.06-1.94-0.08-0.92-0.92-1.83-1.84-2.8-2.7-2.21-2.47-4.62-4.76-6.87-7.19z" fill="#060707"/>
 </g>
</svg>
