<?xml version="1.0" encoding="UTF-8" ?>
<!DOCTYPE svg PUBLIC "-//W3C//DTD SVG 1.1//EN" "http://www.w3.org/Graphics/SVG/1.1/DTD/svg11.dtd">
<svg width="253pt" height="253pt" viewBox="0 0 253 253" version="1.1" xmlns="http://www.w3.org/2000/svg">
<g id="#d9cfb2fa">
<path fill="#d9cfb2" opacity="0.98" d=" M 97.71 8.63 C 107.05 6.69 116.64 4.81 126.21 5.16 C 121.55 9.57 117.38 14.43 113.17 19.24 C 111.53 16.92 109.39 17.57 107.21 18.64 C 105.34 17.23 103.99 14.29 101.21 15.05 C 99.69 17.90 97.44 20.86 98.76 24.23 C 94.93 21.43 98.07 16.04 99.99 12.92 C 98.51 11.20 96.36 10.03 94.08 9.83 C 93.87 8.20 96.70 9.29 97.71 8.63 Z" />
</g>
<g id="#f0eee4fe">
<path fill="#f0eee4" opacity="1.00" d=" M 126.21 5.16 C 126.69 5.13 127.66 5.07 128.14 5.04 C 127.39 5.99 126.66 6.95 125.91 7.90 C 97.19 34.71 79.44 72.59 76.76 111.78 C 76.08 119.49 74.90 127.63 76.67 135.27 C 77.51 148.20 80.06 161.10 84.62 173.24 C 88.82 186.61 94.55 199.55 102.32 211.24 C 103.63 213.55 105.13 215.74 106.66 217.91 C 109.63 222.54 112.48 227.26 116.32 231.23 C 117.65 233.20 118.96 235.19 120.57 236.95 C 122.82 239.38 125.23 241.67 127.44 244.14 C 126.87 244.03 125.72 243.82 125.14 243.71 C 117.81 236.67 111.89 228.32 106.01 220.07 C 85.91 190.27 73.06 154.55 74.92 118.24 C 74.91 107.68 76.60 97.19 78.79 86.89 C 79.80 81.16 82.46 75.83 83.15 70.05 C 83.78 69.04 84.42 68.03 84.87 66.93 C 87.32 61.28 89.03 55.26 92.30 50.01 C 96.50 42.46 101.04 35.10 106.17 28.15 C 108.35 25.06 110.73 22.12 113.17 19.24 C 117.38 14.43 121.55 9.57 126.21 5.16 Z" />
</g>
<g id="#2f3232d6">
<path fill="#2f3232" opacity="0.84" d=" M 128.14 5.04 C 130.86 5.03 136.28 5.00 138.99 4.99 L 139.00 5.95 C 134.84 5.61 130.54 5.59 126.98 7.99 L 125.91 7.90 C 126.66 6.95 127.39 5.99 128.14 5.04 Z" />
</g>
<g id="#424b4cfe">
<path fill="#424b4c" opacity="1.00" d=" M 126.98 7.99 C 130.54 5.59 134.84 5.61 139.00 5.95 C 159.13 6.73 178.26 15.17 195.00 26.00 C 201.10 30.57 207.53 35.05 212.26 41.10 C 211.12 44.05 209.01 41.79 207.39 40.58 C 203.00 36.04 199.17 30.28 193.15 27.77 C 189.75 25.56 186.04 26.75 183.11 29.09 C 183.72 30.11 184.44 31.06 185.06 32.08 C 183.85 33.27 182.42 34.23 180.97 35.09 C 178.69 34.01 177.52 31.64 176.40 29.52 C 174.91 28.03 172.62 27.29 171.74 25.27 C 175.94 27.02 172.80 23.09 171.65 21.33 C 168.92 19.60 165.43 18.86 162.26 19.80 C 161.89 18.16 161.95 16.34 160.86 14.96 C 158.74 15.83 160.23 19.00 156.97 18.27 C 158.71 19.50 160.56 20.59 162.19 21.97 C 160.34 24.04 158.41 26.09 157.84 28.91 C 152.46 30.76 156.84 23.21 153.80 21.09 C 150.31 20.69 150.59 25.85 148.85 27.96 C 147.20 28.01 145.10 28.47 144.10 26.78 C 143.14 24.22 148.17 23.27 145.88 20.94 C 142.90 23.57 139.38 26.09 137.85 29.90 C 137.05 32.28 132.48 30.98 132.97 34.08 C 136.56 34.24 139.02 31.19 142.16 29.98 C 141.23 33.27 135.94 33.95 136.96 38.07 C 139.31 37.44 141.44 36.10 143.90 35.90 C 143.47 38.32 141.93 41.63 145.78 41.40 C 147.09 45.76 145.14 52.37 150.93 53.56 C 148.10 54.04 148.62 57.76 151.52 57.30 C 151.37 61.04 152.19 65.58 155.78 67.46 C 155.09 69.86 152.61 68.14 150.91 68.11 C 150.77 69.74 151.67 71.01 152.96 71.89 C 148.84 71.04 150.77 74.58 151.04 77.04 C 148.67 77.39 148.93 74.63 147.96 73.21 C 146.39 73.65 144.86 74.26 143.27 74.60 C 141.99 73.70 141.05 72.14 139.35 72.03 C 139.57 75.40 134.79 77.05 133.00 74.14 C 131.35 75.61 129.37 76.78 127.12 77.01 C 127.25 73.13 121.84 72.20 123.79 68.23 C 123.08 68.11 121.67 67.86 120.96 67.74 C 121.81 66.42 122.85 65.24 123.87 64.06 C 118.61 61.43 116.66 68.44 112.78 70.78 C 110.91 71.98 113.54 73.08 114.72 73.01 C 114.86 72.26 115.14 70.76 115.28 70.01 C 117.45 69.95 119.00 71.75 120.94 72.46 C 120.20 74.08 118.59 73.64 117.16 73.48 C 115.79 75.05 114.97 77.95 112.35 76.58 C 109.89 75.34 111.29 78.85 111.07 80.14 C 112.66 79.68 114.68 76.44 115.41 79.58 C 116.96 81.42 114.21 80.85 113.09 81.18 C 113.88 83.90 116.03 86.16 116.06 89.09 C 114.29 88.50 112.68 87.51 110.92 86.90 C 111.36 89.53 115.36 90.03 112.80 93.07 C 110.84 91.80 110.11 88.83 107.44 88.86 C 107.45 89.90 107.83 91.10 106.79 91.79 C 103.72 93.32 100.39 94.37 96.95 94.51 C 97.11 96.70 98.83 98.30 99.93 100.09 C 97.30 99.79 94.16 98.72 92.17 101.18 C 90.52 104.51 96.30 101.62 96.03 104.11 C 96.88 106.61 93.77 107.16 92.97 109.00 C 94.68 111.40 96.17 114.95 99.05 115.83 C 102.26 114.56 105.11 116.05 108.00 117.42 C 106.18 119.50 103.63 120.70 101.56 122.49 C 100.72 122.12 99.96 121.60 99.15 121.17 C 98.83 122.78 99.23 124.74 97.80 125.91 C 96.34 126.13 95.34 124.64 94.11 124.09 C 94.05 124.82 93.92 126.26 93.86 126.98 C 91.54 125.35 89.58 122.79 86.15 123.78 C 86.07 122.02 88.45 118.38 85.23 118.88 C 85.48 120.07 86.36 122.03 84.41 120.70 C 84.17 118.57 82.51 117.00 82.07 115.06 C 83.50 112.63 85.70 110.22 84.41 107.22 C 85.03 107.09 86.28 106.83 86.90 106.70 C 87.52 102.89 83.68 100.09 81.20 97.72 C 81.31 95.39 82.37 92.99 81.28 90.73 C 87.06 59.09 104.93 30.91 126.98 7.99 Z" />
</g>
<g id="#101110fe">
<path fill="#101110" opacity="1.00" d=" M 76.76 111.78 C 79.44 72.59 97.19 34.71 125.91 7.90 L 126.98 7.99 C 104.93 30.91 87.06 59.09 81.28 90.73 C 80.47 94.59 80.00 98.50 79.42 102.40 L 79.32 103.07 C 78.96 105.02 78.74 107.00 78.52 108.97 C 78.29 110.22 78.16 111.49 78.17 112.76 C 78.01 119.58 77.88 126.42 78.14 133.24 C 78.11 134.58 78.23 135.93 78.68 137.21 C 78.80 138.93 79.04 142.37 79.17 144.09 C 79.65 146.74 79.44 149.66 80.87 152.04 C 81.01 154.83 81.59 157.56 82.25 160.27 C 86.55 177.42 93.32 194.23 102.84 209.15 C 102.71 209.67 102.45 210.72 102.32 211.24 C 94.55 199.55 88.82 186.61 84.62 173.24 C 80.06 161.10 77.51 148.20 76.67 135.27 C 77.11 127.44 77.10 119.60 76.76 111.78 Z" />
</g>
<g id="#e2d8bcff">
<path fill="#e2d8bc" opacity="1.00" d=" M 91.11 11.09 C 91.90 10.23 92.89 9.81 94.08 9.83 C 96.36 10.03 98.51 11.20 99.99 12.92 C 98.07 16.04 94.93 21.43 98.76 24.23 C 100.79 26.24 103.77 26.72 106.17 28.15 C 101.04 35.10 96.50 42.46 92.30 50.01 C 90.51 46.42 86.78 43.98 82.93 43.11 C 79.97 43.53 77.23 45.06 74.19 45.09 C 74.88 41.87 78.35 40.06 78.48 36.60 C 78.50 32.40 80.71 28.85 81.91 24.98 C 80.55 22.71 78.93 20.11 76.10 19.64 C 77.40 18.00 78.89 16.50 80.26 14.91 C 82.75 15.89 83.01 16.95 80.78 18.50 C 84.83 18.05 87.53 23.17 91.97 19.94 C 94.63 15.85 91.28 15.04 89.22 13.60 C 89.79 12.72 90.46 11.91 91.11 11.09 Z" />
</g>
<g id="#ded4b9f7">
<path fill="#ded4b9" opacity="0.97" d=" M 80.06 14.21 C 83.72 13.14 87.23 11.08 91.11 11.09 C 90.46 11.91 89.79 12.72 89.22 13.60 C 91.28 15.04 94.63 15.85 91.97 19.94 C 87.53 23.17 84.83 18.05 80.78 18.50 C 83.01 16.95 82.75 15.89 80.26 14.91 L 80.06 14.21 Z" />
</g>
<g id="#e7dcc1fe">
<path fill="#e7dcc1" opacity="1.00" d=" M 44.81 38.03 C 54.73 28.21 66.88 19.41 80.26 14.91 C 78.89 16.50 77.40 18.00 76.10 19.64 C 78.93 20.11 80.55 22.71 81.91 24.98 C 80.71 28.85 78.50 32.40 78.48 36.60 C 78.35 40.06 74.88 41.87 74.19 45.09 C 75.64 51.86 78.19 58.36 81.59 64.39 C 82.71 65.20 83.84 66.00 84.87 66.93 C 84.42 68.03 83.78 69.04 83.15 70.05 C 81.33 74.10 78.64 77.55 76.28 81.28 C 77.37 86.56 75.42 91.64 73.68 96.66 C 71.00 99.91 66.58 96.62 63.96 100.01 C 66.93 94.86 61.58 90.50 61.59 85.34 C 60.65 83.10 58.34 82.53 56.13 83.06 C 52.48 84.62 46.72 84.09 45.89 88.94 C 45.80 90.43 41.53 90.68 43.85 88.81 C 47.10 85.85 40.92 82.87 43.61 79.64 C 44.91 75.71 48.72 74.63 51.95 72.82 C 52.96 64.03 42.19 59.55 42.98 50.98 C 41.55 46.36 45.09 43.10 46.70 39.28 C 46.22 38.97 45.28 38.34 44.81 38.03 Z" />
</g>
<g id="#d1c6a9ff">
<path fill="#d1c6a9" opacity="1.00" d=" M 101.21 15.05 C 103.99 14.29 105.34 17.23 107.21 18.64 C 109.39 17.57 111.53 16.92 113.17 19.24 C 110.73 22.12 108.35 25.06 106.17 28.15 C 103.77 26.72 100.79 26.24 98.76 24.23 C 97.44 20.86 99.69 17.90 101.21 15.05 Z" />
</g>
<g id="#414a4bff">
<path fill="#414a4b" opacity="1.00" d=" M 156.97 18.27 C 160.23 19.00 158.74 15.83 160.86 14.96 C 161.95 16.34 161.89 18.16 162.26 19.80 C 165.43 18.86 168.92 19.60 171.65 21.33 C 172.80 23.09 175.94 27.02 171.74 25.27 C 172.62 27.29 174.91 28.03 176.40 29.52 C 177.52 31.64 178.69 34.01 180.97 35.09 C 182.42 34.23 183.85 33.27 185.06 32.08 C 184.44 31.06 183.72 30.11 183.11 29.09 C 186.04 26.75 189.75 25.56 193.15 27.77 C 192.33 27.86 190.71 28.04 189.90 28.12 C 190.17 30.41 192.71 31.47 193.04 33.72 C 188.79 32.76 190.46 38.15 192.76 39.31 C 194.21 39.94 196.00 43.57 196.28 40.16 C 197.56 41.23 200.25 41.75 199.96 43.82 C 198.83 44.45 197.62 44.91 196.45 45.47 C 195.94 47.07 195.85 48.91 194.45 50.04 C 194.03 47.93 191.05 42.78 189.26 46.47 C 191.20 47.96 190.51 50.82 190.96 52.96 C 189.65 53.04 188.35 53.04 187.05 52.98 C 187.35 51.42 187.81 49.90 188.08 48.33 C 183.45 50.07 178.02 44.19 174.29 49.29 C 176.59 57.16 170.34 52.36 167.13 52.30 C 166.07 53.41 165.23 54.69 164.30 55.90 C 163.74 53.61 162.07 50.32 159.20 51.06 C 157.39 52.84 157.71 55.58 157.16 57.91 C 158.40 57.86 159.95 56.74 160.79 58.19 C 160.78 60.13 158.98 62.91 161.53 63.86 C 162.31 61.15 168.41 60.23 164.00 66.95 C 164.54 69.38 161.60 69.04 160.21 70.05 C 160.91 72.71 161.19 75.76 163.21 77.81 C 164.48 78.56 165.16 76.45 166.17 75.99 C 166.19 78.70 164.48 81.00 164.56 83.71 C 163.48 86.91 157.91 85.70 158.83 82.20 C 156.19 84.96 148.83 81.69 150.19 86.62 C 151.50 87.10 152.83 87.53 154.09 88.12 C 153.20 89.62 149.22 91.10 153.08 91.39 C 152.02 92.31 150.73 92.90 149.51 93.58 C 149.95 96.39 147.88 97.69 146.42 99.38 C 145.75 100.61 146.63 103.81 144.37 102.76 C 144.49 97.91 135.44 101.03 139.07 94.30 C 141.08 94.04 143.39 94.07 143.26 91.44 C 145.23 92.21 145.28 90.79 144.97 89.14 C 142.16 90.21 139.12 90.28 136.33 91.31 C 134.45 93.06 131.31 94.69 129.20 92.33 C 129.09 95.12 127.42 92.04 126.08 91.84 C 126.05 93.06 127.74 96.23 125.35 94.58 C 122.91 93.57 117.35 90.32 117.01 94.80 C 117.73 94.88 119.16 95.03 119.87 95.11 C 118.51 97.03 117.25 99.08 114.97 100.02 C 113.73 100.28 113.60 102.82 115.00 102.91 C 117.22 103.61 118.40 105.82 119.76 107.56 C 118.30 108.07 117.97 109.48 117.81 110.86 C 120.37 109.59 123.10 109.32 124.95 107.10 C 125.91 109.43 125.43 112.10 126.12 114.52 C 128.02 114.33 129.90 114.59 131.70 115.20 C 131.20 118.25 133.72 124.38 129.04 124.02 C 126.72 124.76 127.01 122.41 126.67 120.89 C 125.55 121.59 125.27 122.67 125.61 123.90 C 123.43 123.12 121.19 123.31 118.99 123.87 C 119.24 121.85 119.76 119.88 120.00 117.86 C 118.57 119.01 117.56 121.52 115.32 120.63 C 110.50 120.62 106.04 123.46 101.31 124.35 C 100.99 129.17 101.43 134.42 104.98 138.03 C 107.42 140.25 104.01 142.10 102.94 144.05 C 104.17 144.06 105.39 143.96 106.60 143.77 C 107.46 140.02 111.40 138.32 114.28 136.27 C 117.00 135.03 116.68 138.97 116.76 140.62 C 112.32 141.19 109.56 144.63 108.43 148.75 C 109.91 151.97 112.61 154.21 114.93 156.73 C 112.32 158.20 109.41 160.42 110.05 163.83 C 113.29 164.52 116.16 166.06 118.95 167.93 C 119.62 166.65 119.36 162.93 121.63 164.31 C 122.81 165.88 125.18 169.01 126.36 170.57 C 128.26 172.35 131.79 172.95 132.19 175.86 C 130.49 175.34 128.82 174.72 127.12 174.22 C 127.01 175.73 125.48 177.73 127.18 178.81 C 128.72 181.23 131.21 179.11 132.99 178.25 C 134.87 178.91 136.75 179.54 138.77 179.37 C 140.08 180.38 140.73 182.05 140.96 183.65 C 137.33 183.51 137.65 187.44 136.71 189.94 C 135.27 189.78 134.22 188.64 132.94 188.08 C 129.27 188.55 130.00 195.52 133.87 195.09 C 133.59 193.49 132.78 191.61 134.86 190.96 C 136.23 194.18 135.18 197.68 134.89 201.04 C 132.35 200.63 129.90 199.63 128.75 197.19 C 126.15 198.21 123.90 202.21 120.95 200.17 C 118.60 198.91 122.94 198.45 123.82 197.76 C 123.31 196.57 123.21 194.47 121.39 195.18 C 121.10 198.42 117.21 198.25 115.85 200.83 C 117.22 200.83 118.92 199.72 119.88 201.21 C 120.46 203.78 116.81 203.94 115.89 205.88 C 117.91 207.66 119.51 209.82 121.26 211.84 C 124.30 211.29 130.72 210.44 130.82 214.60 C 128.70 214.93 127.32 216.43 126.03 218.00 C 125.11 216.49 123.66 216.20 122.04 216.60 C 124.85 211.62 117.20 215.78 115.40 212.88 C 115.56 211.59 115.83 210.31 115.97 209.02 C 114.56 208.81 111.56 210.75 111.54 208.30 C 112.41 205.59 106.26 208.34 108.57 205.47 C 109.08 202.76 112.85 203.21 112.15 200.04 C 110.39 201.34 108.67 202.71 106.86 203.94 C 104.92 204.21 102.16 201.99 101.15 204.51 C 103.30 205.12 103.16 207.38 102.84 209.15 C 93.32 194.23 86.55 177.42 82.25 160.27 C 83.66 157.56 82.39 154.40 80.87 152.04 C 79.44 149.66 79.65 146.74 79.17 144.09 C 80.43 142.07 81.77 137.98 78.68 137.21 C 78.23 135.93 78.11 134.58 78.14 133.24 C 79.45 126.50 79.39 119.50 78.17 112.76 C 78.16 111.49 78.29 110.22 78.52 108.97 C 81.44 111.58 80.69 104.63 79.32 103.07 L 79.42 102.40 C 81.45 101.75 80.80 99.34 81.20 97.72 C 83.68 100.09 87.52 102.89 86.90 106.70 C 86.28 106.83 85.03 107.09 84.41 107.22 C 85.70 110.22 83.50 112.63 82.07 115.06 C 82.51 117.00 84.17 118.57 84.41 120.70 C 86.36 122.03 85.48 120.07 85.23 118.88 C 88.45 118.38 86.07 122.02 86.15 123.78 C 89.58 122.79 91.54 125.35 93.86 126.98 C 93.92 126.26 94.05 124.82 94.11 124.09 C 95.34 124.64 96.34 126.13 97.80 125.91 C 99.23 124.74 98.83 122.78 99.15 121.17 C 99.96 121.60 100.72 122.12 101.56 122.49 C 103.63 120.70 106.18 119.50 108.00 117.42 C 105.11 116.05 102.26 114.56 99.05 115.83 C 96.17 114.95 94.68 111.40 92.97 109.00 C 93.77 107.16 96.88 106.61 96.03 104.11 C 96.30 101.62 90.52 104.51 92.17 101.18 C 94.16 98.72 97.30 99.79 99.93 100.09 C 98.83 98.30 97.11 96.70 96.95 94.51 C 100.39 94.37 103.72 93.32 106.79 91.79 C 107.83 91.10 107.45 89.90 107.44 88.86 C 110.11 88.83 110.84 91.80 112.80 93.07 C 115.36 90.03 111.36 89.53 110.92 86.90 C 112.68 87.51 114.29 88.50 116.06 89.09 C 116.03 86.16 113.88 83.90 113.09 81.18 C 114.21 80.85 116.96 81.42 115.41 79.58 C 114.68 76.44 112.66 79.68 111.07 80.14 C 111.29 78.85 109.89 75.34 112.35 76.58 C 114.97 77.95 115.79 75.05 117.16 73.48 C 118.59 73.64 120.20 74.08 120.94 72.46 C 119.00 71.75 117.45 69.95 115.28 70.01 C 115.14 70.76 114.86 72.26 114.72 73.01 C 113.54 73.08 110.91 71.98 112.78 70.78 C 116.66 68.44 118.61 61.43 123.87 64.06 C 122.85 65.24 121.81 66.42 120.96 67.74 C 121.67 67.86 123.08 68.11 123.79 68.23 C 121.84 72.20 127.25 73.13 127.12 77.01 C 129.37 76.78 131.35 75.61 133.00 74.14 C 134.79 77.05 139.57 75.40 139.35 72.03 C 141.05 72.14 141.99 73.70 143.27 74.60 C 144.86 74.26 146.39 73.65 147.96 73.21 C 148.93 74.63 148.67 77.39 151.04 77.04 C 150.77 74.58 148.84 71.04 152.96 71.89 C 151.67 71.01 150.77 69.74 150.91 68.11 C 152.61 68.14 155.09 69.86 155.78 67.46 C 152.19 65.58 151.37 61.04 151.52 57.30 C 148.62 57.76 148.10 54.04 150.93 53.56 C 145.14 52.37 147.09 45.76 145.78 41.40 C 141.93 41.63 143.47 38.32 143.90 35.90 C 141.44 36.10 139.31 37.44 136.96 38.07 C 135.94 33.95 141.23 33.27 142.16 29.98 C 139.02 31.19 136.56 34.24 132.97 34.08 C 132.48 30.98 137.05 32.28 137.85 29.90 C 139.38 26.09 142.90 23.57 145.88 20.94 C 148.17 23.27 143.14 24.22 144.10 26.78 C 145.10 28.47 147.20 28.01 148.85 27.96 C 150.59 25.85 150.31 20.69 153.80 21.09 C 156.84 23.21 152.46 30.76 157.84 28.91 C 158.41 26.09 160.34 24.04 162.19 21.97 C 160.56 20.59 158.71 19.50 156.97 18.27 Z" />
</g>
<g id="#40494aff">
<path fill="#40494a" opacity="1.00" d=" M 189.90 28.12 C 190.71 28.04 192.33 27.86 193.15 27.77 C 199.17 30.28 203.00 36.04 207.39 40.58 C 209.01 41.79 211.12 44.05 212.26 41.10 C 217.57 45.43 222.48 50.93 225.83 57.04 C 226.65 59.68 228.21 61.97 229.80 64.20 C 234.88 74.76 239.93 85.52 242.28 97.08 C 244.12 105.70 244.65 114.48 245.56 123.20 C 245.59 123.60 245.64 124.40 245.66 124.80 C 246.71 162.15 227.70 198.52 198.30 221.10 C 198.40 221.41 198.59 222.04 198.69 222.36 C 196.11 225.13 191.16 228.61 187.19 230.47 C 182.31 230.62 178.02 234.41 174.01 237.05 C 161.22 243.71 146.38 245.66 132.18 246.92 C 128.78 243.35 125.44 239.71 121.84 236.33 C 121.52 236.48 120.89 236.79 120.57 236.95 C 118.96 235.19 117.65 233.20 116.32 231.23 C 116.41 230.91 116.58 230.27 116.67 229.95 C 113.66 225.76 110.84 221.44 107.88 217.21 C 107.58 217.39 106.96 217.74 106.66 217.91 C 105.13 215.74 103.63 213.55 102.32 211.24 C 102.45 210.72 102.71 209.67 102.84 209.15 C 103.16 207.38 103.30 205.12 101.15 204.51 C 102.16 201.99 104.92 204.21 106.86 203.94 C 108.67 202.71 110.39 201.34 112.15 200.04 C 112.85 203.21 109.08 202.76 108.57 205.47 C 106.26 208.34 112.41 205.59 111.54 208.30 C 111.56 210.75 114.56 208.81 115.97 209.02 C 115.83 210.31 115.56 211.59 115.40 212.88 C 117.20 215.78 124.85 211.62 122.04 216.60 C 123.66 216.20 125.11 216.49 126.03 218.00 C 127.32 216.43 128.70 214.93 130.82 214.60 C 130.72 210.44 124.30 211.29 121.26 211.84 C 119.51 209.82 117.91 207.66 115.89 205.88 C 116.81 203.94 120.46 203.78 119.88 201.21 C 118.92 199.72 117.22 200.83 115.85 200.83 C 117.21 198.25 121.10 198.42 121.39 195.18 C 123.21 194.47 123.31 196.57 123.82 197.76 C 122.94 198.45 118.60 198.91 120.95 200.17 C 123.90 202.21 126.15 198.21 128.75 197.19 C 129.90 199.63 132.35 200.63 134.89 201.04 C 135.18 197.68 136.23 194.18 134.86 190.96 C 132.78 191.61 133.59 193.49 133.87 195.09 C 130.00 195.52 129.27 188.55 132.94 188.08 C 134.22 188.64 135.27 189.78 136.71 189.94 C 137.65 187.44 137.33 183.51 140.96 183.65 C 140.73 182.05 140.08 180.38 138.77 179.37 C 136.75 179.54 134.87 178.91 132.99 178.25 C 131.21 179.11 128.72 181.23 127.18 178.81 C 125.48 177.73 127.01 175.73 127.12 174.22 C 128.82 174.72 130.49 175.34 132.19 175.86 C 131.79 172.95 128.26 172.35 126.36 170.57 C 125.18 169.01 122.81 165.88 121.63 164.31 C 119.36 162.93 119.62 166.65 118.95 167.93 C 116.16 166.06 113.29 164.52 110.05 163.83 C 109.41 160.42 112.32 158.20 114.93 156.73 C 112.61 154.21 109.91 151.97 108.43 148.75 C 109.56 144.63 112.32 141.19 116.76 140.62 C 116.68 138.97 117.00 135.03 114.28 136.27 C 111.40 138.32 107.46 140.02 106.60 143.77 C 105.39 143.96 104.17 144.06 102.94 144.05 C 104.01 142.10 107.42 140.25 104.98 138.03 C 101.43 134.42 100.99 129.17 101.31 124.35 C 106.04 123.46 110.50 120.62 115.32 120.63 C 117.56 121.52 118.57 119.01 120.00 117.86 C 119.76 119.88 119.24 121.85 118.99 123.87 C 121.19 123.31 123.43 123.12 125.61 123.90 C 125.27 122.67 125.55 121.59 126.67 120.89 C 127.01 122.41 126.72 124.76 129.04 124.02 C 133.72 124.38 131.20 118.25 131.70 115.20 C 129.90 114.59 128.02 114.33 126.12 114.52 C 125.43 112.10 125.91 109.43 124.95 107.10 C 123.10 109.32 120.37 109.59 117.81 110.86 C 117.97 109.48 118.30 108.07 119.76 107.56 C 118.40 105.82 117.22 103.61 115.00 102.91 C 113.60 102.82 113.73 100.28 114.97 100.02 C 117.25 99.08 118.51 97.03 119.87 95.11 C 119.16 95.03 117.73 94.88 117.01 94.80 C 117.35 90.32 122.91 93.57 125.35 94.58 C 127.74 96.23 126.05 93.06 126.08 91.84 C 127.42 92.04 129.09 95.12 129.20 92.33 C 131.31 94.69 134.45 93.06 136.33 91.31 C 139.12 90.28 142.16 90.21 144.97 89.14 C 145.28 90.79 145.23 92.21 143.26 91.44 C 143.39 94.07 141.08 94.04 139.07 94.30 C 135.44 101.03 144.49 97.91 144.37 102.76 C 146.63 103.81 145.75 100.61 146.42 99.38 C 147.88 97.69 149.95 96.39 149.51 93.58 C 150.73 92.90 152.02 92.31 153.08 91.39 C 149.22 91.10 153.20 89.62 154.09 88.12 C 152.83 87.53 151.50 87.10 150.19 86.62 C 148.83 81.69 156.19 84.96 158.83 82.20 C 157.91 85.70 163.48 86.91 164.56 83.71 C 164.48 81.00 166.19 78.70 166.17 75.99 C 165.16 76.45 164.48 78.56 163.21 77.81 C 161.19 75.76 160.91 72.71 160.21 70.05 C 161.60 69.04 164.54 69.38 164.00 66.95 C 168.41 60.23 162.31 61.15 161.53 63.86 C 158.98 62.91 160.78 60.13 160.79 58.19 C 159.95 56.74 158.40 57.86 157.16 57.91 C 157.71 55.58 157.39 52.84 159.20 51.06 C 162.07 50.32 163.74 53.61 164.30 55.90 C 165.23 54.69 166.07 53.41 167.13 52.30 C 170.34 52.36 176.59 57.16 174.29 49.29 C 178.02 44.19 183.45 50.07 188.08 48.33 C 187.81 49.90 187.35 51.42 187.05 52.98 C 188.35 53.04 189.65 53.04 190.96 52.96 C 190.51 50.82 191.20 47.96 189.26 46.47 C 191.05 42.78 194.03 47.93 194.45 50.04 C 195.85 48.91 195.94 47.07 196.45 45.47 C 197.62 44.91 198.83 44.45 199.96 43.82 C 200.25 41.75 197.56 41.23 196.28 40.16 C 196.00 43.57 194.21 39.94 192.76 39.31 C 190.46 38.15 188.79 32.76 193.04 33.72 C 192.71 31.47 190.17 30.41 189.90 28.12 M 177.32 51.21 C 175.60 53.26 175.17 55.87 174.20 58.22 C 169.74 62.93 174.08 69.22 174.20 74.78 C 176.49 74.59 177.37 75.77 177.18 77.98 C 179.90 77.48 184.91 76.72 184.18 80.99 C 185.96 80.66 188.81 78.84 189.45 81.64 C 190.32 84.32 192.65 83.61 194.72 82.85 C 193.24 80.26 197.60 79.63 197.05 77.01 C 195.40 76.86 193.57 76.76 193.73 78.96 C 191.31 78.41 186.27 77.68 189.18 74.43 C 191.08 74.66 194.48 72.78 194.20 75.96 C 196.12 74.40 198.28 73.16 200.74 72.67 C 201.41 70.09 203.40 67.77 203.81 65.35 C 201.42 64.74 200.99 61.67 198.30 61.68 C 197.98 60.23 197.74 58.51 196.15 57.90 C 197.50 62.68 191.36 60.25 190.73 57.34 C 187.63 59.11 185.17 56.69 182.44 55.53 C 180.93 54.04 179.85 50.66 177.32 51.21 M 174.33 160.38 C 172.99 160.85 171.57 160.93 170.18 161.12 C 170.65 162.38 171.08 163.66 171.04 165.03 C 168.82 164.66 165.14 164.82 164.70 162.02 C 163.66 162.85 162.73 163.80 161.71 164.65 C 160.33 164.99 158.36 164.84 159.01 166.87 C 159.76 166.94 161.26 167.06 162.01 167.12 C 161.14 168.47 160.23 169.79 159.25 171.07 C 159.30 169.40 158.53 168.71 156.95 169.00 C 156.80 170.60 158.37 172.56 156.77 173.77 C 155.45 174.96 156.08 176.41 157.89 176.19 C 157.58 179.32 155.62 178.70 153.29 178.30 C 147.63 183.06 138.59 186.23 138.04 194.78 C 143.11 194.56 143.70 200.66 146.26 203.70 C 149.27 205.99 152.89 207.73 154.86 211.12 C 154.92 210.34 155.06 208.79 155.13 208.01 C 158.19 207.01 156.28 213.47 159.89 211.29 C 162.70 213.67 157.93 216.38 157.05 218.81 C 159.76 219.74 163.71 220.65 164.05 224.02 C 162.07 223.55 158.42 221.76 158.01 225.00 C 158.84 227.89 162.00 229.04 163.27 231.73 C 165.98 232.76 169.97 235.61 171.64 231.72 C 172.45 224.07 182.25 229.56 186.30 226.26 C 188.59 224.94 187.60 219.77 191.23 221.45 C 197.11 219.23 204.39 214.77 204.70 207.69 C 205.49 203.20 210.82 205.79 213.75 203.73 C 215.14 202.03 214.13 200.06 213.98 198.15 C 214.74 198.08 216.26 197.92 217.03 197.84 C 217.44 195.14 214.95 195.07 213.15 195.94 C 211.68 193.03 209.61 190.27 211.07 186.91 C 209.59 187.37 209.79 189.90 208.17 189.90 C 206.36 187.55 207.25 183.32 210.77 183.85 C 210.19 181.68 211.50 176.48 208.32 178.42 C 206.00 179.83 207.78 175.40 205.24 175.59 C 203.74 171.46 204.73 167.33 204.89 163.14 C 204.20 163.08 202.83 162.96 202.14 162.91 C 203.94 160.59 200.94 160.75 199.26 160.39 C 196.98 163.20 193.35 161.54 190.26 161.44 C 189.20 162.81 187.78 162.39 186.32 162.32 C 184.52 164.35 181.66 164.62 179.00 164.12 C 179.11 165.31 179.96 166.49 179.56 167.70 C 178.19 170.43 182.99 172.75 185.10 171.12 C 185.53 173.18 183.27 173.60 181.71 173.46 C 179.48 173.33 177.15 173.95 175.06 172.85 C 174.93 170.43 176.63 167.51 174.36 165.66 C 172.61 164.24 176.16 160.25 174.33 160.38 Z" />
</g>
<g id="#e0d6bbfd">
<path fill="#e0d6bb" opacity="1.00" d=" M 14.35 86.69 C 19.71 68.67 30.74 50.93 44.81 38.03 C 45.28 38.34 46.22 38.97 46.70 39.28 C 45.09 43.10 41.55 46.36 42.98 50.98 C 42.19 59.55 52.96 64.03 51.95 72.82 C 48.72 74.63 44.91 75.71 43.61 79.64 C 40.92 82.87 47.10 85.85 43.85 88.81 C 41.53 90.68 45.80 90.43 45.89 88.94 C 46.72 84.09 52.48 84.62 56.13 83.06 C 53.38 86.02 51.12 89.59 47.42 91.46 C 44.49 93.98 43.62 98.08 41.31 101.12 C 40.81 98.67 38.09 98.06 36.36 96.68 C 37.05 93.77 38.37 91.05 39.01 88.13 C 37.21 86.93 34.85 87.14 33.09 85.87 C 32.24 83.72 34.61 84.10 35.96 83.72 C 36.01 78.90 28.93 81.75 25.70 80.52 C 21.80 81.94 20.13 86.63 17.71 89.87 C 16.52 88.87 15.50 87.71 14.35 86.69 M 44.28 63.28 C 40.47 64.08 40.63 68.32 38.83 70.94 C 35.64 70.11 32.35 67.64 29.08 70.21 C 28.59 72.77 32.48 73.36 31.98 76.00 C 31.88 79.26 36.17 80.45 38.82 79.90 C 39.69 78.09 39.97 76.10 40.19 74.13 C 43.26 74.04 46.52 74.00 48.92 71.84 C 47.75 68.64 49.42 61.52 44.28 63.28 Z" />
</g>
<g id="#cdc2a7ff">
<path fill="#cdc2a7" opacity="1.00" d=" M 74.19 45.09 C 77.23 45.06 79.97 43.53 82.93 43.11 C 86.78 43.98 90.51 46.42 92.30 50.01 C 89.03 55.26 87.32 61.28 84.87 66.93 C 83.84 66.00 82.71 65.20 81.59 64.39 C 78.19 58.36 75.64 51.86 74.19 45.09 Z" />
</g>
<g id="#3d4647ff">
<path fill="#3d4647" opacity="1.00" d=" M 177.32 51.21 C 179.85 50.66 180.93 54.04 182.44 55.53 C 185.17 56.69 187.63 59.11 190.73 57.34 C 191.36 60.25 197.50 62.68 196.15 57.90 C 197.74 58.51 197.98 60.23 198.30 61.68 C 200.99 61.67 201.42 64.74 203.81 65.35 C 203.40 67.77 201.41 70.09 200.74 72.67 C 198.28 73.16 196.12 74.40 194.20 75.96 C 194.48 72.78 191.08 74.66 189.18 74.43 C 186.27 77.68 191.31 78.41 193.73 78.96 C 193.57 76.76 195.40 76.86 197.05 77.01 C 197.60 79.63 193.24 80.26 194.72 82.85 C 192.65 83.61 190.32 84.32 189.45 81.64 C 188.81 78.84 185.96 80.66 184.18 80.99 C 184.91 76.72 179.90 77.48 177.18 77.98 C 177.37 75.77 176.49 74.59 174.20 74.78 C 174.08 69.22 169.74 62.93 174.20 58.22 C 175.17 55.87 175.60 53.26 177.32 51.21 Z" />
</g>
<g id="#111514c0">
<path fill="#111514" opacity="0.75" d=" M 225.83 57.04 C 228.30 58.22 229.98 61.59 230.75 64.21 L 229.80 64.20 C 228.21 61.97 226.65 59.68 225.83 57.04 Z" />
</g>
<g id="#dacfb4ff">
<path fill="#dacfb4" opacity="1.00" d=" M 44.28 63.28 C 49.42 61.52 47.75 68.64 48.92 71.84 C 46.52 74.00 43.26 74.04 40.19 74.13 C 39.97 76.10 39.69 78.09 38.82 79.90 C 36.17 80.45 31.88 79.26 31.98 76.00 C 32.48 73.36 28.59 72.77 29.08 70.21 C 32.35 67.64 35.64 70.11 38.83 70.94 C 40.63 68.32 40.47 64.08 44.28 63.28 Z" />
</g>
<g id="#1a1e1de6">
<path fill="#1a1e1d" opacity="0.90" d=" M 229.80 64.20 L 230.75 64.21 C 237.06 73.40 240.77 84.18 243.67 94.86 C 243.21 95.60 242.74 96.34 242.28 97.08 C 239.93 85.52 234.88 74.76 229.80 64.20 Z" />
</g>
<g id="#e2d8bdff">
<path fill="#e2d8bd" opacity="1.00" d=" M 76.28 81.28 C 78.64 77.55 81.33 74.10 83.15 70.05 C 82.46 75.83 79.80 81.16 78.79 86.89 C 76.60 97.19 74.91 107.68 74.92 118.24 C 73.16 118.07 73.04 116.41 72.63 115.05 C 68.00 116.27 64.53 120.14 60.87 123.07 C 59.34 121.90 58.40 120.16 57.11 118.77 C 59.51 115.08 60.09 110.50 62.90 106.97 C 64.86 104.93 62.99 102.28 63.96 100.01 C 66.58 96.62 71.00 99.91 73.68 96.66 C 75.42 91.64 77.37 86.56 76.28 81.28 Z" />
</g>
<g id="#e6dbc1fe">
<path fill="#e6dbc1" opacity="1.00" d=" M 17.71 89.87 C 20.13 86.63 21.80 81.94 25.70 80.52 C 28.93 81.75 36.01 78.90 35.96 83.72 C 34.61 84.10 32.24 83.72 33.09 85.87 C 34.85 87.14 37.21 86.93 39.01 88.13 C 38.37 91.05 37.05 93.77 36.36 96.68 C 38.09 98.06 40.81 98.67 41.31 101.12 C 39.07 105.15 42.26 109.66 42.35 113.82 C 43.63 117.19 44.45 120.78 46.16 123.97 C 50.55 124.71 53.17 120.00 57.11 118.77 C 58.40 120.16 59.34 121.90 60.87 123.07 C 64.53 120.14 68.00 116.27 72.63 115.05 C 73.04 116.41 73.16 118.07 74.92 118.24 C 73.06 154.55 85.91 190.27 106.01 220.07 C 101.29 220.95 98.30 216.80 94.31 215.22 C 90.98 218.51 93.76 223.48 91.14 227.08 C 91.27 229.58 94.35 228.97 95.63 230.31 C 95.70 232.55 96.40 234.55 97.70 236.29 C 99.02 238.13 102.15 243.09 98.06 243.10 C 89.30 242.52 81.47 237.52 73.33 234.57 C 48.66 222.06 28.09 201.42 16.89 176.04 C 5.36 151.61 4.33 123.02 11.05 97.06 C 12.31 93.70 11.87 89.52 14.35 86.69 C 15.50 87.71 16.52 88.87 17.71 89.87 M 22.21 133.09 C 21.34 134.32 20.66 135.67 19.81 136.91 C 17.26 137.64 16.74 133.33 14.22 134.14 C 11.70 135.72 12.00 140.52 15.29 140.69 C 19.78 140.17 25.58 143.81 25.22 148.81 C 27.49 151.45 30.89 151.11 33.74 149.70 C 35.18 147.79 34.46 145.40 34.80 143.20 C 28.86 140.98 30.85 129.33 22.21 133.09 M 73.32 196.33 C 71.52 197.16 69.69 197.99 68.08 199.18 C 68.07 201.63 68.03 206.54 68.01 209.00 C 72.87 209.44 77.04 204.99 78.67 200.71 C 80.27 197.75 77.22 193.37 73.32 196.33 Z" />
</g>
<g id="#c5baa0ff">
<path fill="#c5baa0" opacity="1.00" d=" M 56.13 83.06 C 58.34 82.53 60.65 83.10 61.59 85.34 C 61.58 90.50 66.93 94.86 63.96 100.01 C 62.99 102.28 64.86 104.93 62.90 106.97 C 60.09 110.50 59.51 115.08 57.11 118.77 C 53.17 120.00 50.55 124.71 46.16 123.97 C 44.45 120.78 43.63 117.19 42.35 113.82 C 42.26 109.66 39.07 105.15 41.31 101.12 C 43.62 98.08 44.49 93.98 47.42 91.46 C 51.12 89.59 53.38 86.02 56.13 83.06 Z" />
</g>
<g id="#535c5dfe">
<path fill="#535c5d" opacity="1.00" d=" M 81.28 90.73 C 82.37 92.99 81.31 95.39 81.20 97.72 C 80.80 99.34 81.45 101.75 79.42 102.40 C 80.00 98.50 80.47 94.59 81.28 90.73 Z" />
</g>
<g id="#252a29f1">
<path fill="#252a29" opacity="0.95" d=" M 242.28 97.08 C 242.74 96.34 243.21 95.60 243.67 94.86 C 245.16 103.38 247.17 112.07 246.77 120.71 C 246.47 121.33 245.86 122.58 245.56 123.20 C 244.65 114.48 244.12 105.70 242.28 97.08 Z" />
</g>
<g id="#5a6364fe">
<path fill="#5a6364" opacity="1.00" d=" M 79.32 103.07 C 80.69 104.63 81.44 111.58 78.52 108.97 C 78.74 107.00 78.96 105.02 79.32 103.07 Z" />
</g>
<g id="#757771fe">
<path fill="#757771" opacity="1.00" d=" M 76.67 135.27 C 74.90 127.63 76.08 119.49 76.76 111.78 C 77.10 119.60 77.11 127.44 76.67 135.27 Z" />
</g>
<g id="#5c6668ff">
<path fill="#5c6668" opacity="1.00" d=" M 78.17 112.76 C 79.39 119.50 79.45 126.50 78.14 133.24 C 77.88 126.42 78.01 119.58 78.17 112.76 Z" />
</g>
<g id="#121512ff">
<path fill="#121512" opacity="1.00" d=" M 245.56 123.20 C 245.86 122.58 246.47 121.33 246.77 120.71 L 246.88 121.86 C 246.96 125.57 247.06 129.31 246.96 133.03 C 246.91 133.59 246.79 134.71 246.74 135.27 C 246.27 131.78 245.97 128.29 245.66 124.80 C 245.64 124.40 245.59 123.60 245.56 123.20 Z" />
</g>
<g id="#16171728">
<path fill="#161717" opacity="0.16" d=" M 246.88 121.86 L 247.95 122.03 C 247.96 124.77 247.97 130.25 247.98 132.99 L 246.96 133.03 C 247.06 129.31 246.96 125.57 246.88 121.86 Z" />
</g>
<g id="#272b2bee">
<path fill="#272b2b" opacity="0.93" d=" M 198.30 221.10 C 227.70 198.52 246.71 162.15 245.66 124.80 C 245.97 128.29 246.27 131.78 246.74 135.27 C 245.68 169.22 226.44 200.55 200.70 221.75 C 200.20 221.90 199.19 222.21 198.69 222.36 C 198.59 222.04 198.40 221.41 198.30 221.10 Z" />
</g>
<g id="#e0d6bbff">
<path fill="#e0d6bb" opacity="1.00" d=" M 22.21 133.09 C 30.85 129.33 28.86 140.98 34.80 143.20 C 34.46 145.40 35.18 147.79 33.74 149.70 C 30.89 151.11 27.49 151.45 25.22 148.81 C 25.58 143.81 19.78 140.17 15.29 140.69 C 12.00 140.52 11.70 135.72 14.22 134.14 C 16.74 133.33 17.26 137.64 19.81 136.91 C 20.66 135.67 21.34 134.32 22.21 133.09 Z" />
</g>
<g id="#555f5ffe">
<path fill="#555f5f" opacity="1.00" d=" M 78.68 137.21 C 81.77 137.98 80.43 142.07 79.17 144.09 C 79.04 142.37 78.80 138.93 78.68 137.21 Z" />
</g>
<g id="#505c5cff">
<path fill="#505c5c" opacity="1.00" d=" M 80.87 152.04 C 82.39 154.40 83.66 157.56 82.25 160.27 C 81.59 157.56 81.01 154.83 80.87 152.04 Z" />
</g>
<g id="#3e4748ff">
<path fill="#3e4748" opacity="1.00" d=" M 174.33 160.38 C 176.16 160.25 172.61 164.24 174.36 165.66 C 176.63 167.51 174.93 170.43 175.06 172.85 C 177.15 173.95 179.48 173.33 181.71 173.46 C 183.27 173.60 185.53 173.18 185.10 171.12 C 182.99 172.75 178.19 170.43 179.56 167.70 C 179.96 166.49 179.11 165.31 179.00 164.12 C 181.66 164.62 184.52 164.35 186.32 162.32 C 187.78 162.39 189.20 162.81 190.26 161.44 C 193.35 161.54 196.98 163.20 199.26 160.39 C 200.94 160.75 203.94 160.59 202.14 162.91 C 202.83 162.96 204.20 163.08 204.89 163.14 C 204.73 167.33 203.74 171.46 205.24 175.59 C 207.78 175.40 206.00 179.83 208.32 178.42 C 211.50 176.48 210.19 181.68 210.77 183.85 C 207.25 183.32 206.36 187.55 208.17 189.90 C 209.79 189.90 209.59 187.37 211.07 186.91 C 209.61 190.27 211.68 193.03 213.15 195.94 C 214.95 195.07 217.44 195.14 217.03 197.84 C 216.26 197.92 214.74 198.08 213.98 198.15 C 214.13 200.06 215.14 202.03 213.75 203.73 C 210.82 205.79 205.49 203.20 204.70 207.69 C 204.39 214.77 197.11 219.23 191.23 221.45 C 187.60 219.77 188.59 224.94 186.30 226.26 C 182.25 229.56 172.45 224.07 171.64 231.72 C 169.97 235.61 165.98 232.76 163.27 231.73 C 162.00 229.04 158.84 227.89 158.01 225.00 C 158.42 221.76 162.07 223.55 164.05 224.02 C 163.71 220.65 159.76 219.74 157.05 218.81 C 157.93 216.38 162.70 213.67 159.89 211.29 C 156.28 213.47 158.19 207.01 155.13 208.01 C 155.06 208.79 154.92 210.34 154.86 211.12 C 152.89 207.73 149.27 205.99 146.26 203.70 C 143.70 200.66 143.11 194.56 138.04 194.78 C 138.59 186.23 147.63 183.06 153.29 178.30 C 155.62 178.70 157.58 179.32 157.89 176.19 C 156.08 176.41 155.45 174.96 156.77 173.77 C 158.37 172.56 156.80 170.60 156.95 169.00 C 158.53 168.71 159.30 169.40 159.25 171.07 C 160.23 169.79 161.14 168.47 162.01 167.12 C 161.26 167.06 159.76 166.94 159.01 166.87 C 158.36 164.84 160.33 164.99 161.71 164.65 C 162.73 163.80 163.66 162.85 164.70 162.02 C 165.14 164.82 168.82 164.66 171.04 165.03 C 171.08 163.66 170.65 162.38 170.18 161.12 C 171.57 160.93 172.99 160.85 174.33 160.38 M 147.21 184.12 C 145.20 186.37 142.12 188.67 142.02 191.91 C 143.37 194.70 144.40 198.30 147.64 199.41 C 149.76 200.61 154.53 201.35 154.57 198.25 C 153.92 196.68 156.48 195.92 155.63 194.31 C 154.41 189.93 154.07 181.32 147.21 184.12 Z" />
</g>
<g id="#3a4143ff">
<path fill="#3a4143" opacity="1.00" d=" M 147.21 184.12 C 154.07 181.32 154.41 189.93 155.63 194.31 C 156.48 195.92 153.92 196.68 154.57 198.25 C 154.53 201.35 149.76 200.61 147.64 199.41 C 144.40 198.30 143.37 194.70 142.02 191.91 C 142.12 188.67 145.20 186.37 147.21 184.12 Z" />
</g>
<g id="#ded3b8ff">
<path fill="#ded3b8" opacity="1.00" d=" M 73.32 196.33 C 77.22 193.37 80.27 197.75 78.67 200.71 C 77.04 204.99 72.87 209.44 68.01 209.00 C 68.03 206.54 68.07 201.63 68.08 199.18 C 69.69 197.99 71.52 197.16 73.32 196.33 Z" />
</g>
<g id="#e0d5bafd">
<path fill="#e0d5ba" opacity="1.00" d=" M 94.31 215.22 C 98.30 216.80 101.29 220.95 106.01 220.07 C 111.89 228.32 117.81 236.67 125.14 243.71 C 125.72 243.82 126.87 244.03 127.44 244.14 C 128.41 245.00 129.32 245.92 130.24 246.84 C 124.55 246.94 118.66 247.80 113.19 245.83 C 110.11 244.17 109.90 240.18 107.63 237.73 C 108.66 232.95 105.57 225.11 99.24 228.18 C 96.08 229.88 97.22 233.45 97.70 236.29 C 96.40 234.55 95.70 232.55 95.63 230.31 C 94.35 228.97 91.27 229.58 91.14 227.08 C 93.76 223.48 90.98 218.51 94.31 215.22 Z" />
</g>
<g id="#0b0b0bff">
<path fill="#0b0b0b" opacity="1.00" d=" M 106.66 217.91 C 106.96 217.74 107.58 217.39 107.88 217.21 C 110.84 221.44 113.66 225.76 116.67 229.95 C 116.58 230.27 116.41 230.91 116.32 231.23 C 112.48 227.26 109.63 222.54 106.66 217.91 Z" />
</g>
<g id="#cfc4a9fb">
<path fill="#cfc4a9" opacity="1.00" d=" M 99.24 228.18 C 105.57 225.11 108.66 232.95 107.63 237.73 C 109.90 240.18 110.11 244.17 113.19 245.83 C 108.05 246.46 103.13 244.36 98.07 243.86 L 98.06 243.10 C 102.15 243.09 99.02 238.13 97.70 236.29 C 97.22 233.45 96.08 229.88 99.24 228.18 Z" />
</g>
<g id="#171c1bd2">
<path fill="#171c1b" opacity="0.82" d=" M 174.01 237.05 C 178.02 234.41 182.31 230.62 187.19 230.47 C 183.14 233.15 178.99 236.68 174.01 237.05 Z" />
</g>
<g id="#060707fc">
<path fill="#060707" opacity="1.00" d=" M 120.57 236.95 C 120.89 236.79 121.52 236.48 121.84 236.33 C 125.44 239.71 128.78 243.35 132.18 246.92 C 131.69 246.90 130.72 246.86 130.24 246.84 C 129.32 245.92 128.41 245.00 127.44 244.14 C 125.23 241.67 122.82 239.38 120.57 236.95 Z" />
</g>
</svg>
