<?xml version="1.0" encoding="UTF-8" ?>
<!DOCTYPE svg PUBLIC "-//W3C//DTD SVG 1.1//EN" "http://www.w3.org/Graphics/SVG/1.1/DTD/svg11.dtd">
<svg width="253pt" height="253pt" viewBox="0 0 253 253" version="1.1" xmlns="http://www.w3.org/2000/svg">
<g id="#aca797bc">
<path fill="#aca797" opacity="0.74" d=" M 115.36 5.98 C 116.12 4.04 120.01 4.90 121.85 5.19 L 121.86 5.76 L 121.04 6.10 C 119.14 6.05 117.25 6.02 115.36 5.98 Z" />
</g>
<g id="#020405fc">
<path fill="#020405" opacity="1.00" d=" M 121.85 5.19 C 122.34 5.17 123.31 5.13 123.79 5.11 C 125.20 7.79 131.04 9.78 129.27 13.24 C 127.03 10.53 124.67 7.89 121.86 5.76 L 121.85 5.19 Z" />
</g>
<g id="#4b5556fe">
<path fill="#4b5556" opacity="1.00" d=" M 123.79 5.11 C 154.58 4.01 185.43 16.20 207.95 37.06 C 238.67 64.68 252.94 109.27 244.57 149.69 C 241.39 166.30 234.28 182.05 224.67 195.91 L 223.74 196.29 C 223.21 195.29 222.65 194.31 222.25 193.25 C 223.62 191.43 226.70 190.14 225.86 187.40 C 224.27 186.65 221.17 186.58 222.00 184.05 C 222.67 179.71 230.03 183.70 230.19 179.10 C 230.98 173.22 230.61 167.18 230.36 161.31 C 230.66 157.87 233.35 155.83 235.10 153.26 C 232.48 153.40 231.03 152.30 233.57 150.53 C 232.86 147.09 229.87 143.61 226.44 143.25 C 225.45 145.61 224.01 148.43 221.02 148.18 C 221.31 147.30 223.67 146.41 222.48 145.52 C 220.45 144.22 222.06 141.76 221.96 139.90 C 217.27 140.42 215.78 146.06 211.09 146.76 C 208.08 144.49 209.30 138.55 205.02 137.92 C 205.14 140.13 206.34 142.52 204.88 144.54 C 200.64 144.98 196.71 143.60 193.32 141.13 C 192.90 142.47 192.56 143.84 191.86 145.06 C 189.88 144.67 188.42 142.59 186.26 143.13 C 181.75 152.64 183.48 163.81 180.78 173.71 C 173.50 171.05 177.40 176.31 175.96 178.98 C 174.83 181.23 175.86 183.65 176.20 185.97 C 178.20 186.06 180.12 185.45 182.06 185.09 C 181.60 187.69 180.78 190.32 177.83 190.79 C 179.07 190.88 180.31 191.00 181.55 191.14 C 180.95 195.74 184.31 200.31 181.72 204.70 C 178.23 208.15 172.17 206.18 168.57 209.48 C 167.17 212.22 164.80 215.23 161.34 214.51 C 158.77 213.65 154.79 214.04 154.52 217.38 C 155.94 222.21 151.09 223.39 147.84 222.99 C 149.49 220.65 154.03 214.17 148.71 214.09 C 158.24 199.03 164.57 182.16 168.55 164.84 C 168.88 165.15 169.55 165.75 169.89 166.05 C 170.31 163.03 170.49 159.96 170.43 156.90 C 171.58 151.70 170.96 146.07 173.06 141.10 C 174.97 130.20 173.74 118.95 173.94 107.90 C 173.59 108.22 172.89 108.84 172.54 109.15 C 172.41 108.11 172.31 107.07 172.26 106.02 C 173.26 105.57 174.67 97.59 171.55 100.00 C 168.41 79.31 161.11 59.38 150.91 41.16 C 150.61 41.34 150.00 41.72 149.70 41.91 C 147.95 39.00 146.04 36.18 144.36 33.23 C 145.39 31.11 143.00 26.50 140.66 27.77 L 139.86 28.12 C 138.51 24.85 136.30 22.11 134.32 19.22 C 135.74 17.29 132.48 13.55 130.59 14.89 C 130.13 14.36 129.69 13.81 129.27 13.24 C 131.04 9.78 125.20 7.79 123.79 5.11 M 183.17 77.09 C 181.92 80.24 178.64 81.78 175.18 81.22 C 173.47 84.99 174.64 89.09 174.98 93.00 C 173.84 101.06 175.81 109.12 176.82 117.09 C 176.49 120.22 181.80 118.77 181.02 122.02 C 180.05 121.78 179.08 121.52 178.12 121.25 C 175.83 125.92 177.55 131.35 176.40 136.29 C 176.81 141.50 175.71 146.71 176.01 151.98 C 184.68 154.87 180.41 151.42 179.11 149.29 C 180.17 148.77 181.88 148.41 181.97 146.96 C 183.40 142.00 183.62 136.33 186.98 132.16 C 183.42 132.84 183.93 128.94 182.04 127.02 C 183.79 125.23 182.56 122.22 184.66 121.05 C 185.25 123.54 188.17 123.90 190.11 124.98 C 189.35 121.59 185.68 119.41 186.54 115.39 C 185.33 113.95 184.51 112.21 185.13 110.31 C 187.49 110.23 186.83 107.78 187.22 106.17 C 188.37 105.61 189.59 105.33 190.86 105.63 C 190.99 104.79 193.11 101.57 191.35 102.39 C 189.00 104.24 189.72 99.58 191.59 99.57 C 192.23 97.44 193.61 95.70 194.70 93.79 C 194.56 91.98 192.83 90.66 191.99 89.09 C 193.50 88.29 196.51 86.68 198.01 85.87 C 198.35 82.72 195.81 82.96 194.28 84.89 C 193.57 81.72 189.49 81.40 187.31 83.35 C 185.56 85.25 181.38 82.95 183.77 80.78 C 185.38 79.78 185.27 77.21 183.17 77.09 M 200.17 91.09 C 198.57 93.08 197.87 95.59 197.16 97.99 C 199.17 102.33 198.06 107.66 201.71 111.28 C 203.50 114.33 210.58 114.41 210.02 110.03 C 212.28 105.24 207.32 103.54 204.07 102.74 C 202.74 99.81 206.82 100.05 206.99 97.98 C 209.61 93.08 203.84 90.32 200.17 91.09 Z" />
</g>
<g id="#cec5ade7">
<path fill="#cec5ad" opacity="0.91" d=" M 100.99 7.25 C 105.79 6.92 110.54 5.84 115.36 5.98 C 112.11 10.04 105.89 7.14 101.32 8.27 L 100.99 7.25 Z" />
</g>
<g id="#e5dbc0fd">
<path fill="#e5dbc0" opacity="1.00" d=" M 115.36 5.98 C 117.25 6.02 119.14 6.05 121.04 6.10 C 128.02 12.83 132.92 21.40 139.86 28.12 C 140.30 29.31 140.77 30.48 141.27 31.65 C 134.98 31.04 128.54 30.41 122.26 31.22 C 120.44 32.57 118.91 34.37 119.67 36.76 C 117.31 38.81 114.61 40.43 111.83 41.83 C 107.85 43.04 107.14 37.01 103.12 37.12 C 102.50 38.95 102.12 40.84 101.62 42.69 C 100.43 44.34 97.74 45.84 96.06 43.99 C 93.80 41.74 92.31 38.75 90.24 36.31 C 92.72 36.33 93.85 34.21 94.09 31.99 C 90.85 31.21 88.68 33.95 85.92 34.99 C 84.06 35.31 82.93 33.53 81.58 32.60 C 79.43 32.94 77.34 33.63 75.14 33.52 C 73.25 35.48 74.10 39.00 71.78 40.77 C 69.33 42.75 66.09 43.38 63.25 44.62 C 60.84 43.33 59.27 39.47 56.27 40.20 C 44.47 52.43 31.81 63.85 20.58 76.62 C 19.46 82.32 18.40 89.02 21.87 94.12 C 22.67 97.25 18.40 97.66 16.21 97.32 C 13.78 99.60 12.69 104.20 15.03 106.86 C 16.86 105.66 18.80 104.59 21.09 104.95 C 19.05 109.40 14.15 111.45 11.27 115.28 C 10.25 118.08 14.93 117.38 16.54 118.46 C 18.61 122.60 21.49 126.71 20.48 131.65 C 20.91 133.33 21.81 135.57 23.98 135.02 C 28.33 136.10 25.21 129.76 26.18 127.20 C 29.86 125.66 33.41 122.86 37.71 124.11 C 38.53 126.65 40.72 129.49 39.39 132.16 C 38.60 129.94 37.61 127.70 35.77 126.16 C 33.01 125.36 30.54 127.21 28.16 128.30 C 27.67 131.46 30.62 133.84 31.07 136.87 C 29.85 137.59 28.46 137.86 27.11 138.21 C 21.68 139.43 22.87 149.05 27.97 149.95 C 29.11 149.42 30.17 148.75 31.27 148.15 C 31.40 152.31 25.61 152.97 26.36 157.57 C 25.88 159.30 24.35 161.31 26.27 162.73 C 28.54 164.80 29.50 167.68 27.83 170.47 C 24.74 170.30 21.77 171.22 18.76 171.76 C 21.53 168.29 24.31 162.37 19.58 159.38 C 15.68 157.45 15.31 163.20 15.32 165.98 C 16.57 170.60 17.18 175.36 18.01 180.07 C 14.88 176.37 13.85 170.69 11.82 166.10 C 11.51 164.90 10.58 163.59 11.30 162.36 C 13.48 156.96 14.14 150.96 16.80 145.76 C 18.24 143.23 23.14 142.78 21.86 139.13 C 19.53 134.50 17.69 128.39 12.11 126.83 C 10.74 126.36 10.08 124.92 9.10 123.97 C 8.71 125.98 9.30 130.73 6.14 131.30 C 4.69 113.02 8.44 94.59 15.88 77.92 C 29.21 44.63 58.78 18.82 93.34 9.48 C 95.95 9.05 98.81 9.32 101.32 8.27 C 105.89 7.14 112.11 10.04 115.36 5.98 M 64.24 34.11 C 63.96 34.39 63.40 34.95 63.11 35.24 C 59.42 42.28 70.84 43.25 71.99 37.95 C 72.30 34.34 67.06 32.53 64.24 34.11 Z" />
</g>
<g id="#f4f1e6ff">
<path fill="#f4f1e6" opacity="1.00" d=" M 121.04 6.10 L 121.86 5.76 C 124.67 7.89 127.03 10.53 129.27 13.24 C 129.69 13.81 130.13 14.36 130.59 14.89 C 131.82 16.34 133.12 17.74 134.32 19.22 C 136.30 22.11 138.51 24.85 139.86 28.12 C 132.92 21.40 128.02 12.83 121.04 6.10 Z" />
</g>
<g id="#080808fe">
<path fill="#080808" opacity="1.00" d=" M 130.59 14.89 C 132.48 13.55 135.74 17.29 134.32 19.22 C 133.12 17.74 131.82 16.34 130.59 14.89 Z" />
</g>
<g id="#0d0d0cff">
<path fill="#0d0d0c" opacity="1.00" d=" M 140.66 27.77 C 143.00 26.50 145.39 31.11 144.36 33.23 C 143.22 31.35 142.00 29.52 140.66 27.77 Z" />
</g>
<g id="#f3f1e8ff">
<path fill="#f3f1e8" opacity="1.00" d=" M 139.86 28.12 L 140.66 27.77 C 142.00 29.52 143.22 31.35 144.36 33.23 C 146.04 36.18 147.95 39.00 149.70 41.91 C 162.06 63.53 169.57 87.86 171.31 112.73 C 170.90 120.22 170.93 127.73 171.27 135.22 C 170.86 156.66 164.74 177.61 156.19 197.15 C 155.16 199.65 153.99 202.14 151.97 204.00 C 157.94 188.71 164.65 173.51 167.20 157.12 C 170.05 142.86 170.40 128.25 169.88 113.76 C 169.87 112.45 169.75 111.15 169.55 109.86 C 167.98 88.56 161.31 67.89 151.88 48.83 C 148.47 43.04 145.53 36.88 141.27 31.65 C 140.77 30.48 140.30 29.31 139.86 28.12 Z" />
</g>
<g id="#eae0c5ff">
<path fill="#eae0c5" opacity="1.00" d=" M 122.26 31.22 C 128.54 30.41 134.98 31.04 141.27 31.65 C 145.53 36.88 148.47 43.04 151.88 48.83 C 145.56 51.17 153.03 60.36 148.38 63.42 C 149.30 64.58 150.28 65.71 151.32 66.77 C 153.42 67.68 154.83 65.07 156.83 65.04 C 158.94 67.56 158.88 71.04 160.05 73.99 C 161.00 76.91 162.71 79.68 162.74 82.83 C 160.22 83.74 158.66 85.49 157.80 88.00 C 155.49 88.16 155.66 84.34 153.20 85.10 C 151.49 87.44 152.21 89.95 153.87 92.04 C 153.31 94.09 152.21 95.92 151.34 97.85 C 152.58 100.59 154.92 103.74 158.68 102.14 C 156.89 98.26 162.35 99.89 164.88 99.39 C 167.85 102.49 167.47 107.08 168.09 111.02 C 168.45 110.73 169.19 110.15 169.55 109.86 C 169.75 111.15 169.87 112.45 169.88 113.76 C 164.85 120.73 166.86 130.21 167.34 138.22 C 165.79 144.25 167.20 150.58 165.72 156.68 C 164.95 158.92 162.62 157.03 161.01 157.11 C 159.27 156.51 158.72 159.45 156.98 158.96 C 155.23 158.76 153.56 158.14 151.88 157.68 C 152.99 155.89 156.87 157.02 155.96 154.17 C 153.92 152.59 150.26 153.60 150.65 149.96 C 147.79 154.23 143.85 157.13 139.21 159.18 C 135.51 164.64 137.68 172.26 141.93 176.94 C 140.17 179.36 138.29 183.11 134.78 182.68 C 132.86 182.89 130.71 181.94 129.01 183.12 C 131.56 187.76 128.95 192.73 129.15 197.71 C 131.06 198.13 134.85 197.98 134.00 200.99 C 134.00 204.82 130.55 207.02 129.60 210.49 C 123.08 211.91 126.91 222.71 119.98 222.89 C 115.60 221.66 114.04 216.60 116.82 213.07 C 114.68 210.97 111.81 210.97 109.22 212.20 C 109.34 213.35 109.60 214.48 109.70 215.64 C 107.31 216.84 104.86 218.10 103.19 220.27 C 102.38 224.31 107.15 227.31 105.72 231.60 C 102.59 233.80 100.65 239.62 96.05 237.31 C 98.13 240.60 93.70 241.36 91.22 240.92 C 89.33 238.79 88.96 234.21 85.29 234.88 C 85.54 236.29 85.83 237.69 86.00 239.12 C 84.66 237.80 83.45 236.34 82.59 234.65 C 80.83 234.77 79.17 234.30 77.71 233.31 C 80.31 232.09 84.07 233.63 86.30 231.35 C 83.23 231.17 80.22 230.79 77.17 230.49 C 75.60 231.71 74.28 233.23 72.92 234.67 C 49.46 223.22 29.14 203.86 18.01 180.07 C 17.18 175.36 16.57 170.60 15.32 165.98 C 15.31 163.20 15.68 157.45 19.58 159.38 C 24.31 162.37 21.53 168.29 18.76 171.76 C 21.77 171.22 24.74 170.30 27.83 170.47 C 29.50 167.68 28.54 164.80 26.27 162.73 C 24.35 161.31 25.88 159.30 26.36 157.57 C 25.61 152.97 31.40 152.31 31.27 148.15 C 37.61 144.74 36.10 137.43 39.39 132.16 C 40.72 129.49 38.53 126.65 37.71 124.11 C 33.41 122.86 29.86 125.66 26.18 127.20 C 25.21 129.76 28.33 136.10 23.98 135.02 C 21.81 135.57 20.91 133.33 20.48 131.65 C 21.49 126.71 18.61 122.60 16.54 118.46 C 14.93 117.38 10.25 118.08 11.27 115.28 C 14.15 111.45 19.05 109.40 21.09 104.95 C 18.80 104.59 16.86 105.66 15.03 106.86 C 12.69 104.20 13.78 99.60 16.21 97.32 C 18.40 97.66 22.67 97.25 21.87 94.12 C 18.40 89.02 19.46 82.32 20.58 76.62 C 31.81 63.85 44.47 52.43 56.27 40.20 C 59.27 39.47 60.84 43.33 63.25 44.62 C 66.09 43.38 69.33 42.75 71.78 40.77 C 74.10 39.00 73.25 35.48 75.14 33.52 C 77.34 33.63 79.43 32.94 81.58 32.60 C 82.93 33.53 84.06 35.31 85.92 34.99 C 88.68 33.95 90.85 31.21 94.09 31.99 C 93.85 34.21 92.72 36.33 90.24 36.31 C 92.31 38.75 93.80 41.74 96.06 43.99 C 97.74 45.84 100.43 44.34 101.62 42.69 C 102.12 40.84 102.50 38.95 103.12 37.12 C 107.14 37.01 107.85 43.04 111.83 41.83 C 114.61 40.43 117.31 38.81 119.67 36.76 C 118.91 34.37 120.44 32.57 122.26 31.22 M 117.37 50.29 C 114.18 53.68 108.87 50.97 105.05 53.18 C 105.84 56.86 108.91 59.77 109.32 63.74 C 112.18 66.79 117.01 66.16 120.75 67.62 C 125.22 65.94 125.98 61.36 125.90 57.07 C 124.68 53.22 123.36 47.02 117.37 50.29 M 29.89 68.18 C 30.13 70.89 33.85 71.24 35.98 72.07 C 37.35 67.88 32.87 68.64 29.89 68.18 M 70.28 70.29 C 66.44 71.02 67.81 76.48 67.00 79.00 C 65.24 84.51 71.09 86.73 73.23 90.79 C 75.75 90.08 79.77 93.63 81.93 90.86 C 77.55 85.67 80.68 77.97 77.73 72.27 C 75.36 71.43 72.83 69.63 70.28 70.29 M 44.18 104.07 C 42.17 106.42 42.32 109.96 42.06 112.79 C 46.11 114.05 51.06 114.61 53.86 110.77 C 57.14 103.33 47.73 105.00 44.18 104.07 M 28.29 109.28 C 26.01 110.12 24.16 111.91 23.32 114.20 C 23.72 116.46 24.54 119.34 27.00 120.00 C 30.16 118.46 34.76 116.36 33.95 112.07 C 33.03 109.86 32.64 106.10 28.29 109.28 M 130.96 114.09 C 127.39 115.21 123.32 117.64 124.01 121.94 C 124.94 126.30 131.68 125.78 132.71 121.72 C 134.46 119.03 136.03 112.20 130.96 114.09 M 64.30 168.28 C 57.46 169.59 62.32 180.27 67.76 178.81 C 70.14 176.47 72.84 174.16 74.00 170.95 C 74.53 165.79 66.62 168.89 64.30 168.28 M 44.32 172.31 C 40.66 173.13 40.12 177.53 38.32 180.30 C 37.07 183.21 40.67 185.21 41.11 187.93 C 42.45 192.78 50.65 188.65 48.68 184.29 C 46.89 180.13 49.93 176.89 50.83 173.14 C 49.16 171.43 46.99 171.15 44.32 172.31 M 57.97 197.19 C 58.28 199.67 56.50 203.62 59.67 204.42 C 63.70 206.41 56.58 209.63 58.55 212.34 C 59.34 216.13 63.40 211.71 65.70 213.40 C 67.62 214.65 68.33 212.63 69.57 211.56 C 70.15 207.14 75.58 206.67 79.00 205.07 C 81.55 206.83 84.18 208.42 87.65 206.51 C 89.40 205.95 92.83 206.49 92.82 203.91 C 94.46 202.11 96.81 200.35 94.92 197.19 C 92.45 195.52 89.11 195.09 86.17 195.04 C 82.38 194.82 79.10 198.11 75.31 197.63 C 73.22 196.20 70.43 195.08 70.76 192.05 C 64.88 189.38 62.67 198.37 57.97 197.19 Z" />
</g>
<g id="#ddd3b8ff">
<path fill="#ddd3b8" opacity="1.00" d=" M 64.24 34.11 C 67.06 32.53 72.30 34.34 71.99 37.95 C 70.84 43.25 59.42 42.28 63.11 35.24 C 63.40 34.95 63.96 34.39 64.24 34.11 Z" />
</g>
<g id="#101110fe">
<path fill="#101110" opacity="1.00" d=" M 149.70 41.91 C 150.00 41.72 150.61 41.34 150.91 41.16 C 161.11 59.38 168.41 79.31 171.55 100.00 C 171.71 102.01 171.92 104.03 172.26 106.02 C 172.31 107.07 172.41 108.11 172.54 109.15 C 173.33 119.78 172.92 130.45 173.06 141.10 C 170.96 146.07 171.58 151.70 170.43 156.90 C 169.92 159.58 169.17 162.19 168.55 164.84 C 164.57 182.16 158.24 199.03 148.71 214.09 C 147.38 216.24 146.30 218.72 143.94 219.96 C 146.37 214.51 150.36 209.85 151.97 204.00 C 153.99 202.14 155.16 199.65 156.19 197.15 C 164.74 177.61 170.86 156.66 171.27 135.22 C 171.93 127.83 172.99 120.04 171.31 112.73 C 169.57 87.86 162.06 63.53 149.70 41.91 Z" />
</g>
<g id="#e6dcc1ff">
<path fill="#e6dcc1" opacity="1.00" d=" M 148.38 63.42 C 153.03 60.36 145.56 51.17 151.88 48.83 C 161.31 67.89 167.98 88.56 169.55 109.86 C 169.19 110.15 168.45 110.73 168.09 111.02 C 167.47 107.08 167.85 102.49 164.88 99.39 C 162.35 99.89 156.89 98.26 158.68 102.14 C 154.92 103.74 152.58 100.59 151.34 97.85 C 152.21 95.92 153.31 94.09 153.87 92.04 C 152.21 89.95 151.49 87.44 153.20 85.10 C 155.66 84.34 155.49 88.16 157.80 88.00 C 158.66 85.49 160.22 83.74 162.74 82.83 C 162.71 79.68 161.00 76.91 160.05 73.99 C 158.88 71.04 158.94 67.56 156.83 65.04 C 154.83 65.07 153.42 67.68 151.32 66.77 C 150.28 65.71 149.30 64.58 148.38 63.42 Z" />
</g>
<g id="#e5dbc0ff">
<path fill="#e5dbc0" opacity="1.00" d=" M 117.37 50.29 C 123.36 47.02 124.68 53.22 125.90 57.07 C 125.98 61.36 125.22 65.94 120.75 67.62 C 117.01 66.16 112.18 66.79 109.32 63.74 C 108.91 59.77 105.84 56.86 105.05 53.18 C 108.87 50.97 114.18 53.68 117.37 50.29 M 119.23 53.12 C 117.60 56.17 114.48 57.80 112.09 60.18 C 112.13 65.92 124.08 66.02 124.03 60.02 C 125.72 56.97 122.75 51.99 119.23 53.12 Z" />
</g>
<g id="#dbd1b6ff">
<path fill="#dbd1b6" opacity="1.00" d=" M 119.23 53.12 C 122.75 51.99 125.72 56.97 124.03 60.02 C 124.08 66.02 112.13 65.92 112.09 60.18 C 114.48 57.80 117.60 56.17 119.23 53.12 Z" />
<path fill="#dbd1b6" opacity="1.00" d=" M 130.96 114.09 C 136.03 112.20 134.46 119.03 132.71 121.72 C 131.68 125.78 124.94 126.30 124.01 121.94 C 123.32 117.64 127.39 115.21 130.96 114.09 Z" />
</g>
<g id="#e7ddc3fe">
<path fill="#e7ddc3" opacity="1.00" d=" M 29.89 68.18 C 32.87 68.64 37.35 67.88 35.98 72.07 C 33.85 71.24 30.13 70.89 29.89 68.18 Z" />
</g>
<g id="#e0d6bbff">
<path fill="#e0d6bb" opacity="1.00" d=" M 70.28 70.29 C 72.83 69.63 75.36 71.43 77.73 72.27 C 80.68 77.97 77.55 85.67 81.93 90.86 C 79.77 93.63 75.75 90.08 73.23 90.79 C 71.09 86.73 65.24 84.51 67.00 79.00 C 67.81 76.48 66.44 71.02 70.28 70.29 Z" />
<path fill="#e0d6bb" opacity="1.00" d=" M 28.16 128.30 C 30.54 127.21 33.01 125.36 35.77 126.16 C 37.61 127.70 38.60 129.94 39.39 132.16 C 36.10 137.43 37.61 144.74 31.27 148.15 C 30.17 148.75 29.11 149.42 27.97 149.95 C 22.87 149.05 21.68 139.43 27.11 138.21 C 28.46 137.86 29.85 137.59 31.07 136.87 C 30.62 133.84 27.67 131.46 28.16 128.30 Z" />
</g>
<g id="#4e5858ff">
<path fill="#4e5858" opacity="1.00" d=" M 183.17 77.09 C 185.27 77.21 185.38 79.78 183.77 80.78 C 181.38 82.95 185.56 85.25 187.31 83.35 C 189.49 81.40 193.57 81.72 194.28 84.89 C 195.81 82.96 198.35 82.72 198.01 85.87 C 196.51 86.68 193.50 88.29 191.99 89.09 C 192.83 90.66 194.56 91.98 194.70 93.79 C 193.61 95.70 192.23 97.44 191.59 99.57 C 189.72 99.58 189.00 104.24 191.35 102.39 C 193.11 101.57 190.99 104.79 190.86 105.63 C 189.59 105.33 188.37 105.61 187.22 106.17 C 186.83 107.78 187.49 110.23 185.13 110.31 C 184.51 112.21 185.33 113.95 186.54 115.39 C 185.68 119.41 189.35 121.59 190.11 124.98 C 188.17 123.90 185.25 123.54 184.66 121.05 C 182.56 122.22 183.79 125.23 182.04 127.02 C 183.93 128.94 183.42 132.84 186.98 132.16 C 183.62 136.33 183.40 142.00 181.97 146.96 C 181.88 148.41 180.17 148.77 179.11 149.29 C 180.41 151.42 184.68 154.87 176.01 151.98 C 175.71 146.71 176.81 141.50 176.40 136.29 C 177.55 131.35 175.83 125.92 178.12 121.25 C 179.08 121.52 180.05 121.78 181.02 122.02 C 181.80 118.77 176.49 120.22 176.82 117.09 C 175.81 109.12 173.84 101.06 174.98 93.00 C 174.64 89.09 173.47 84.99 175.18 81.22 C 178.64 81.78 181.92 80.24 183.17 77.09 Z" />
</g>
<g id="#464f4fff">
<path fill="#464f4f" opacity="1.00" d=" M 200.17 91.09 C 203.84 90.32 209.61 93.08 206.99 97.98 C 206.82 100.05 202.74 99.81 204.07 102.74 C 207.32 103.54 212.28 105.24 210.02 110.03 C 210.58 114.41 203.50 114.33 201.71 111.28 C 198.06 107.66 199.17 102.33 197.16 97.99 C 197.87 95.59 198.57 93.08 200.17 91.09 Z" />
</g>
<g id="#626e6dff">
<path fill="#626e6d" opacity="1.00" d=" M 171.55 100.00 C 174.67 97.59 173.26 105.57 172.26 106.02 C 171.92 104.03 171.71 102.01 171.55 100.00 Z" />
</g>
<g id="#e5dac0ff">
<path fill="#e5dac0" opacity="1.00" d=" M 44.18 104.07 C 47.73 105.00 57.14 103.33 53.86 110.77 C 51.06 114.61 46.11 114.05 42.06 112.79 C 42.32 109.96 42.17 106.42 44.18 104.07 Z" />
</g>
<g id="#667170ff">
<path fill="#667170" opacity="1.00" d=" M 172.54 109.15 C 172.89 108.84 173.59 108.22 173.94 107.90 C 173.74 118.95 174.97 130.20 173.06 141.10 C 172.92 130.45 173.33 119.78 172.54 109.15 Z" />
</g>
<g id="#e0d6bcff">
<path fill="#e0d6bc" opacity="1.00" d=" M 28.29 109.28 C 32.64 106.10 33.03 109.86 33.95 112.07 C 34.76 116.36 30.16 118.46 27.00 120.00 C 24.54 119.34 23.72 116.46 23.32 114.20 C 24.16 111.91 26.01 110.12 28.29 109.28 Z" />
</g>
<g id="#6f695fff">
<path fill="#6f695f" opacity="1.00" d=" M 171.31 112.73 C 172.99 120.04 171.93 127.83 171.27 135.22 C 170.93 127.73 170.90 120.22 171.31 112.73 Z" />
</g>
<g id="#e4dabffe">
<path fill="#e4dabf" opacity="1.00" d=" M 167.34 138.22 C 166.86 130.21 164.85 120.73 169.88 113.76 C 170.40 128.25 170.05 142.86 167.20 157.12 C 164.65 173.51 157.94 188.71 151.97 204.00 C 142.74 218.64 133.19 233.31 120.39 245.17 C 120.48 245.47 120.67 246.09 120.77 246.39 L 121.00 247.15 C 104.35 246.13 87.88 242.13 72.92 234.67 C 74.28 233.23 75.60 231.71 77.17 230.49 C 80.22 230.79 83.23 231.17 86.30 231.35 C 84.07 233.63 80.31 232.09 77.71 233.31 C 79.17 234.30 80.83 234.77 82.59 234.65 C 83.45 236.34 84.66 237.80 86.00 239.12 C 85.83 237.69 85.54 236.29 85.29 234.88 C 88.96 234.21 89.33 238.79 91.22 240.92 C 93.70 241.36 98.13 240.60 96.05 237.31 C 100.65 239.62 102.59 233.80 105.72 231.60 C 107.15 227.31 102.38 224.31 103.19 220.27 C 104.86 218.10 107.31 216.84 109.70 215.64 C 109.60 214.48 109.34 213.35 109.22 212.20 C 111.81 210.97 114.68 210.97 116.82 213.07 C 114.04 216.60 115.60 221.66 119.98 222.89 C 126.91 222.71 123.08 211.91 129.60 210.49 C 130.55 207.02 134.00 204.82 134.00 200.99 C 134.85 197.98 131.06 198.13 129.15 197.71 C 128.95 192.73 131.56 187.76 129.01 183.12 C 130.71 181.94 132.86 182.89 134.78 182.68 C 138.29 183.11 140.17 179.36 141.93 176.94 C 137.68 172.26 135.51 164.64 139.21 159.18 C 143.85 157.13 147.79 154.23 150.65 149.96 C 150.26 153.60 153.92 152.59 155.96 154.17 C 156.87 157.02 152.99 155.89 151.88 157.68 C 153.56 158.14 155.23 158.76 156.98 158.96 C 158.72 159.45 159.27 156.51 161.01 157.11 C 162.62 157.03 164.95 158.92 165.72 156.68 C 167.20 150.58 165.79 144.25 167.34 138.22 M 147.30 159.33 C 142.32 160.21 136.94 164.59 139.62 170.33 C 140.32 173.68 143.59 175.21 146.79 174.86 C 148.85 173.47 148.80 170.90 150.17 169.07 C 152.05 168.79 153.07 171.05 154.92 171.18 C 157.22 172.57 159.28 170.22 160.86 168.78 C 161.38 164.06 156.18 159.33 151.35 160.53 C 149.99 160.24 148.71 158.81 147.30 159.33 Z" />
</g>
<g id="#ded4b9fc">
<path fill="#ded4b9" opacity="1.00" d=" M 9.10 123.97 C 10.08 124.92 10.74 126.36 12.11 126.83 C 17.69 128.39 19.53 134.50 21.86 139.13 C 23.14 142.78 18.24 143.23 16.80 145.76 C 14.14 150.96 13.48 156.96 11.30 162.36 L 10.24 161.99 C 7.77 151.98 5.61 141.63 6.14 131.30 C 9.30 130.73 8.71 125.98 9.10 123.97 Z" />
</g>
<g id="#4a5455fe">
<path fill="#4a5455" opacity="1.00" d=" M 205.02 137.92 C 209.30 138.55 208.08 144.49 211.09 146.76 C 215.78 146.06 217.27 140.42 221.96 139.90 C 222.06 141.76 220.45 144.22 222.48 145.52 C 223.67 146.41 221.31 147.30 221.02 148.18 C 224.01 148.43 225.45 145.61 226.44 143.25 C 229.87 143.61 232.86 147.09 233.57 150.53 C 231.03 152.30 232.48 153.40 235.10 153.26 C 233.35 155.83 230.66 157.87 230.36 161.31 C 230.61 167.18 230.98 173.22 230.19 179.10 C 230.03 183.70 222.67 179.71 222.00 184.05 C 221.17 186.58 224.27 186.65 225.86 187.40 C 226.70 190.14 223.62 191.43 222.25 193.25 C 222.65 194.31 223.21 195.29 223.74 196.29 C 202.36 229.27 161.82 248.07 122.80 246.85 C 130.10 239.73 136.59 231.86 142.62 223.66 C 143.25 222.50 143.61 221.22 143.94 219.96 C 146.30 218.72 147.38 216.24 148.71 214.09 C 154.03 214.17 149.49 220.65 147.84 222.99 C 151.09 223.39 155.94 222.21 154.52 217.38 C 154.79 214.04 158.77 213.65 161.34 214.51 C 164.80 215.23 167.17 212.22 168.57 209.48 C 172.17 206.18 178.23 208.15 181.72 204.70 C 184.31 200.31 180.95 195.74 181.55 191.14 C 180.31 191.00 179.07 190.88 177.83 190.79 C 180.78 190.32 181.60 187.69 182.06 185.09 C 180.12 185.45 178.20 186.06 176.20 185.97 C 175.86 183.65 174.83 181.23 175.96 178.98 C 177.40 176.31 173.50 171.05 180.78 173.71 C 183.48 163.81 181.75 152.64 186.26 143.13 C 188.42 142.59 189.88 144.67 191.86 145.06 C 192.56 143.84 192.90 142.47 193.32 141.13 C 196.71 143.60 200.64 144.98 204.88 144.54 C 206.34 142.52 205.14 140.13 205.02 137.92 M 191.25 175.15 C 188.38 178.90 183.56 183.10 185.60 188.32 C 187.17 190.46 183.58 193.34 186.20 194.84 C 192.26 195.09 199.80 195.12 203.81 189.75 C 204.71 184.76 199.32 182.44 197.80 178.21 C 196.93 175.41 193.60 175.75 191.25 175.15 M 177.25 209.28 C 174.60 210.27 173.19 213.35 170.08 213.19 C 166.60 213.45 165.32 216.77 164.65 219.70 C 162.10 220.45 160.01 221.82 161.09 224.83 C 164.32 228.18 169.53 226.38 172.33 223.42 C 175.12 223.27 176.27 220.04 179.00 220.02 C 182.95 219.86 184.71 214.43 183.93 211.19 C 182.10 209.73 179.49 209.45 177.25 209.28 Z" />
</g>
<g id="#626f71ff">
<path fill="#626f71" opacity="1.00" d=" M 170.43 156.90 C 170.49 159.96 170.31 163.03 169.89 166.05 C 169.55 165.75 168.88 165.15 168.55 164.84 C 169.17 162.19 169.92 159.58 170.43 156.90 Z" />
</g>
<g id="#ded3b8ff">
<path fill="#ded3b8" opacity="1.00" d=" M 147.30 159.33 C 148.71 158.81 149.99 160.24 151.35 160.53 C 156.18 159.33 161.38 164.06 160.86 168.78 C 159.28 170.22 157.22 172.57 154.92 171.18 C 153.07 171.05 152.05 168.79 150.17 169.07 C 148.80 170.90 148.85 173.47 146.79 174.86 C 143.59 175.21 140.32 173.68 139.62 170.33 C 136.94 164.59 142.32 160.21 147.30 159.33 Z" />
</g>
<g id="#e3d9beff">
<path fill="#e3d9be" opacity="1.00" d=" M 64.30 168.28 C 66.62 168.89 74.53 165.79 74.00 170.95 C 72.84 174.16 70.14 176.47 67.76 178.81 C 62.32 180.27 57.46 169.59 64.30 168.28 Z" />
</g>
<g id="#e2d8bdff">
<path fill="#e2d8bd" opacity="1.00" d=" M 44.32 172.31 C 46.99 171.15 49.16 171.43 50.83 173.14 C 49.93 176.89 46.89 180.13 48.68 184.29 C 50.65 188.65 42.45 192.78 41.11 187.93 C 40.67 185.21 37.07 183.21 38.32 180.30 C 40.12 177.53 40.66 173.13 44.32 172.31 Z" />
</g>
<g id="#424b4dff">
<path fill="#424b4d" opacity="1.00" d=" M 191.25 175.15 C 193.60 175.75 196.93 175.41 197.80 178.21 C 199.32 182.44 204.71 184.76 203.81 189.75 C 199.80 195.12 192.26 195.09 186.20 194.84 C 183.58 193.34 187.17 190.46 185.60 188.32 C 183.56 183.10 188.38 178.90 191.25 175.15 Z" />
</g>
<g id="#e7ddc2ff">
<path fill="#e7ddc2" opacity="1.00" d=" M 57.97 197.19 C 62.67 198.37 64.88 189.38 70.76 192.05 C 70.43 195.08 73.22 196.20 75.31 197.63 C 79.10 198.11 82.38 194.82 86.17 195.04 C 84.39 196.30 82.64 197.63 81.18 199.26 C 81.01 201.53 81.89 203.71 82.28 205.92 C 85.90 205.74 89.24 204.29 92.82 203.91 C 92.83 206.49 89.40 205.95 87.65 206.51 C 84.18 208.42 81.55 206.83 79.00 205.07 C 75.58 206.67 70.15 207.14 69.57 211.56 C 68.33 212.63 67.62 214.65 65.70 213.40 C 63.40 211.71 59.34 216.13 58.55 212.34 C 56.58 209.63 63.70 206.41 59.67 204.42 C 56.50 203.62 58.28 199.67 57.97 197.19 Z" />
</g>
<g id="#e1d6bcff">
<path fill="#e1d6bc" opacity="1.00" d=" M 86.17 195.04 C 89.11 195.09 92.45 195.52 94.92 197.19 C 96.81 200.35 94.46 202.11 92.82 203.91 C 89.24 204.29 85.90 205.74 82.28 205.92 C 81.89 203.71 81.01 201.53 81.18 199.26 C 82.64 197.63 84.39 196.30 86.17 195.04 Z" />
</g>
<g id="#f3f1e9fe">
<path fill="#f3f1e9" opacity="1.00" d=" M 120.39 245.17 C 133.19 233.31 142.74 218.64 151.97 204.00 C 150.36 209.85 146.37 214.51 143.94 219.96 C 136.20 228.73 129.95 238.93 120.77 246.39 C 120.67 246.09 120.48 245.47 120.39 245.17 Z" />
</g>
<g id="#464f51ff">
<path fill="#464f51" opacity="1.00" d=" M 177.25 209.28 C 179.49 209.45 182.10 209.73 183.93 211.19 C 184.71 214.43 182.95 219.86 179.00 220.02 C 176.27 220.04 175.12 223.27 172.33 223.42 C 169.53 226.38 164.32 228.18 161.09 224.83 C 160.01 221.82 162.10 220.45 164.65 219.70 C 165.32 216.77 166.60 213.45 170.08 213.19 C 173.19 213.35 174.60 210.27 177.25 209.28 Z" />
</g>
<g id="#10100ffd">
<path fill="#10100f" opacity="1.00" d=" M 120.77 246.39 C 129.95 238.93 136.20 228.73 143.94 219.96 C 143.61 221.22 143.25 222.50 142.62 223.66 C 136.59 231.86 130.10 239.73 122.80 246.85 C 122.35 246.92 121.45 247.07 121.00 247.15 L 120.77 246.39 Z" />
</g>
</svg>
