<?xml version="1.0" encoding="UTF-8" standalone="no"?>
<svg
   width="241.09892pt"
   height="242.40146pt"
   viewBox="0 0 241.09892 242.40146"
   version="1.1"
   id="svg39"
   sodipodi:docname="waning-gibbous.svg"
   inkscape:version="1.4.2 (f4327f4, 2025-05-13)"
   xmlns:inkscape="http://www.inkscape.org/namespaces/inkscape"
   xmlns:sodipodi="http://sodipodi.sourceforge.net/DTD/sodipodi-0.dtd"
   xmlns="http://www.w3.org/2000/svg"
   xmlns:svg="http://www.w3.org/2000/svg">
  <defs
     id="defs39" />
  <sodipodi:namedview
     id="namedview39"
     pagecolor="#ffffff"
     bordercolor="#000000"
     borderopacity="0.25"
     inkscape:showpageshadow="2"
     inkscape:pageopacity="0.0"
     inkscape:pagecheckerboard="0"
     inkscape:deskcolor="#d1d1d1"
     inkscape:document-units="pt"
     inkscape:zoom="1.6203366"
     inkscape:cx="62.949884"
     inkscape:cy="193.47832"
     inkscape:window-width="1920"
     inkscape:window-height="991"
     inkscape:window-x="-9"
     inkscape:window-y="-9"
     inkscape:window-maximized="1"
     inkscape:current-layer="svg39" />
  <g
     id="#aca797bc"
     transform="translate(-5.8325328,-4.7485456)">
    <path
       fill="#aca797"
       opacity="0.74"
       d="m 115.36,5.98 c 0.76,-1.94 4.65,-1.08 6.49,-0.79 l 0.01,0.57 -0.82,0.34 c -1.9,-0.05 -3.79,-0.08 -5.68,-0.12 z"
       id="path1" />
  </g>
  <g
     id="#020405fc"
     transform="translate(-5.8325328,-4.7485456)">
    <path
       fill="#020405"
       opacity="1"
       d="m 121.85,5.19 c 0.49,-0.02 1.46,-0.06 1.94,-0.08 1.41,2.68 7.25,4.67 5.48,8.13 -2.24,-2.71 -4.6,-5.35 -7.41,-7.48 z"
       id="path2" />
  </g>
  <g
     id="#4b5556fe"
     transform="translate(-5.8325328,-4.7485456)">
    <path
       fill="#4b5556"
       opacity="1"
       d="m 123.79,5.11 c 30.79,-1.1 61.64,11.09 84.16,31.95 30.72,27.62 44.99,72.21 36.62,112.63 -3.18,16.61 -10.29,32.36 -19.9,46.22 l -0.93,0.38 c -0.53,-1 -1.09,-1.98 -1.49,-3.04 1.37,-1.82 4.45,-3.11 3.61,-5.85 -1.59,-0.75 -4.69,-0.82 -3.86,-3.35 0.67,-4.34 8.03,-0.35 8.19,-4.95 0.79,-5.88 0.42,-11.92 0.17,-17.79 0.3,-3.44 2.99,-5.48 4.74,-8.05 -2.62,0.14 -4.07,-0.96 -1.53,-2.73 -0.71,-3.44 -3.7,-6.92 -7.13,-7.28 -0.99,2.36 -2.43,5.18 -5.42,4.93 0.29,-0.88 2.65,-1.77 1.46,-2.66 -2.03,-1.3 -0.42,-3.76 -0.52,-5.62 -4.69,0.52 -6.18,6.16 -10.87,6.86 -3.01,-2.27 -1.79,-8.21 -6.07,-8.84 0.12,2.21 1.32,4.6 -0.14,6.62 -4.24,0.44 -8.17,-0.94 -11.56,-3.41 -0.42,1.34 -0.76,2.71 -1.46,3.93 -1.98,-0.39 -3.44,-2.47 -5.6,-1.93 -4.51,9.51 -2.78,20.68 -5.48,30.58 -7.28,-2.66 -3.38,2.6 -4.82,5.27 -1.13,2.25 -0.1,4.67 0.24,6.99 2,0.09 3.92,-0.52 5.86,-0.88 -0.46,2.6 -1.28,5.23 -4.23,5.7 1.24,0.09 2.48,0.21 3.72,0.35 -0.6,4.6 2.76,9.17 0.17,13.56 -3.49,3.45 -9.55,1.48 -13.15,4.78 -1.4,2.74 -3.77,5.75 -7.23,5.03 -2.57,-0.86 -6.55,-0.47 -6.82,2.87 1.42,4.83 -3.43,6.01 -6.68,5.61 1.65,-2.34 6.19,-8.82 0.87,-8.9 9.53,-15.06 15.86,-31.93 19.84,-49.25 0.33,0.31 1,0.91 1.34,1.21 0.42,-3.02 0.6,-6.09 0.54,-9.15 1.15,-5.2 0.53,-10.83 2.63,-15.8 1.91,-10.9 0.68,-22.15 0.88,-33.2 -0.35,0.32 -1.05,0.94 -1.4,1.25 -0.13,-1.04 -0.23,-2.08 -0.28,-3.13 1,-0.45 2.41,-8.43 -0.71,-6.02 -3.14,-20.69 -10.44,-40.62 -20.64,-58.84 -0.3,0.18 -0.91,0.56 -1.21,0.75 -1.75,-2.91 -3.66,-5.73 -5.34,-8.68 1.03,-2.12 -1.36,-6.73 -3.7,-5.46 l -0.8,0.35 c -1.35,-3.27 -3.56,-6.01 -5.54,-8.9 1.42,-1.93 -1.84,-5.67 -3.73,-4.33 -0.46,-0.53 -0.9,-1.08 -1.32,-1.65 1.77,-3.46 -4.07,-5.45 -5.48,-8.13 m 59.38,71.98 c -1.25,3.15 -4.53,4.69 -7.99,4.13 -1.71,3.77 -0.54,7.87 -0.2,11.78 -1.14,8.06 0.83,16.12 1.84,24.09 -0.33,3.13 4.98,1.68 4.2,4.93 -0.97,-0.24 -1.94,-0.5 -2.9,-0.77 -2.29,4.67 -0.57,10.1 -1.72,15.04 0.41,5.21 -0.69,10.42 -0.39,15.69 8.67,2.89 4.4,-0.56 3.1,-2.69 1.06,-0.52 2.77,-0.88 2.86,-2.33 1.43,-4.96 1.65,-10.63 5.01,-14.8 -3.56,0.68 -3.05,-3.22 -4.94,-5.14 1.75,-1.79 0.52,-4.8 2.62,-5.97 0.59,2.49 3.51,2.85 5.45,3.93 -0.76,-3.39 -4.43,-5.57 -3.57,-9.59 -1.21,-1.44 -2.03,-3.18 -1.41,-5.08 2.36,-0.08 1.7,-2.53 2.09,-4.14 1.15,-0.56 2.37,-0.84 3.64,-0.54 0.13,-0.84 2.25,-4.06 0.49,-3.24 -2.35,1.85 -1.63,-2.81 0.24,-2.82 0.64,-2.13 2.02,-3.87 3.11,-5.78 -0.14,-1.81 -1.87,-3.13 -2.71,-4.7 1.51,-0.8 4.52,-2.41 6.02,-3.22 0.34,-3.15 -2.2,-2.91 -3.73,-0.98 -0.71,-3.17 -4.79,-3.49 -6.97,-1.54 -1.75,1.9 -5.93,-0.4 -3.54,-2.57 1.61,-1 1.5,-3.57 -0.6,-3.69 m 17,14 c -1.6,1.99 -2.3,4.5 -3.01,6.9 2.01,4.34 0.9,9.67 4.55,13.29 1.79,3.05 8.87,3.13 8.31,-1.25 2.26,-4.79 -2.7,-6.49 -5.95,-7.29 -1.33,-2.93 2.75,-2.69 2.92,-4.76 2.62,-4.9 -3.15,-7.66 -6.82,-6.89 z"
       id="path3" />
  </g>
  <g
     id="#cec5ade7"
     transform="translate(-5.8325328,-4.7485456)">
    <path
       fill="#cec5ad"
       opacity="0.91"
       d="m 100.99,7.25 c 4.8,-0.33 9.55,-1.41 14.37,-1.27 -3.25,4.06 -9.47,1.16 -14.04,2.29 z"
       id="path4" />
  </g>
  <g
     id="#e5dbc0fd"
     transform="translate(-5.8325328,-4.7485456)">
    <path
       fill="#e5dbc0"
       opacity="1"
       d="m 115.36,5.98 c 1.89,0.04 3.78,0.07 5.68,0.12 6.98,6.73 11.88,15.3 18.82,22.02 0.44,1.19 0.91,2.36 1.41,3.53 -6.29,-0.61 -12.73,-1.24 -19.01,-0.43 -1.82,1.35 -3.35,3.15 -2.59,5.54 -2.36,2.05 -5.06,3.67 -7.84,5.07 -3.98,1.21 -4.69,-4.82 -8.71,-4.71 -0.62,1.83 -1,3.72 -1.5,5.57 -1.19,1.65 -3.88,3.15 -5.56,1.3 -2.26,-2.25 -3.75,-5.24 -5.82,-7.68 2.48,0.02 3.61,-2.1 3.85,-4.32 -3.24,-0.78 -5.41,1.96 -8.17,3 -1.86,0.32 -2.99,-1.46 -4.34,-2.39 -2.15,0.34 -4.24,1.03 -6.44,0.92 -1.89,1.96 -1.04,5.48 -3.36,7.25 -2.45,1.98 -5.69,2.61 -8.53,3.85 -2.41,-1.29 -3.98,-5.15 -6.98,-4.42 -11.8,12.23 -24.46,23.65 -35.69,36.42 -1.12,5.7 -2.18,12.4 1.29,17.5 0.8,3.13 -3.47,3.54 -5.66,3.2 -2.43,2.28 -3.52,6.88 -1.18,9.54 1.83,-1.2 3.77,-2.27 6.06,-1.91 -2.04,4.45 -6.94,6.5 -9.82,10.33 -1.02,2.8 3.66,2.1 5.27,3.18 2.07,4.14 4.95,8.25 3.94,13.19 0.43,1.68 1.33,3.92 3.5,3.37 4.35,1.08 1.23,-5.26 2.2,-7.82 3.68,-1.54 7.23,-4.34 11.53,-3.09 0.82,2.54 3.01,5.38 1.68,8.05 -0.79,-2.22 -1.78,-4.46 -3.62,-6 -2.76,-0.8 -5.23,1.05 -7.61,2.14 -0.49,3.16 2.46,5.54 2.91,8.57 -1.22,0.72 -2.61,0.99 -3.96,1.34 -5.43,1.22 -4.24,10.84 0.86,11.74 1.14,-0.53 2.2,-1.2 3.3,-1.8 0.13,4.16 -5.66,4.82 -4.91,9.42 -0.48,1.73 -2.01,3.74 -0.09,5.16 2.27,2.07 3.23,4.95 1.56,7.74 -3.09,-0.17 -6.06,0.75 -9.07,1.29 2.77,-3.47 5.55,-9.39 0.82,-12.38 -3.9,-1.93 -4.27,3.82 -4.26,6.6 1.25,4.62 1.86,9.38 2.69,14.09 -3.13,-3.7 -4.16,-9.38 -6.19,-13.97 -0.31,-1.2 -1.24,-2.51 -0.52,-3.74 2.18,-5.4 2.84,-11.4 5.5,-16.6 1.44,-2.53 6.34,-2.98 5.06,-6.63 -2.33,-4.63 -4.17,-10.74 -9.75,-12.3 -1.37,-0.47 -2.03,-1.91 -3.01,-2.86 -0.39,2.01 0.2,6.76 -2.96,7.33 -1.45,-18.28 2.3,-36.71 9.74,-53.38 13.33,-33.29 42.9,-59.1 77.46,-68.44 2.61,-0.43 5.47,-0.16 7.98,-1.21 4.57,-1.13 10.79,1.77 14.04,-2.29 M 64.24,34.11 c -0.28,0.28 -0.84,0.84 -1.13,1.13 -3.69,7.04 7.73,8.01 8.88,2.71 0.31,-3.61 -4.93,-5.42 -7.75,-3.84 z"
       id="path5" />
  </g>
  <g
     id="#f4f1e6ff"
     transform="translate(-5.8325328,-4.7485456)">
    <path
       fill="#f4f1e6"
       opacity="1"
       d="m 121.04,6.1 0.82,-0.34 c 2.81,2.13 5.17,4.77 7.41,7.48 0.42,0.57 0.86,1.12 1.32,1.65 1.23,1.45 2.53,2.85 3.73,4.33 1.98,2.89 4.19,5.63 5.54,8.9 C 132.92,21.4 128.02,12.83 121.04,6.1 Z"
       id="path6" />
  </g>
  <g
     id="#080808fe"
     transform="translate(-5.8325328,-4.7485456)">
    <path
       fill="#080808"
       opacity="1"
       d="m 130.59,14.89 c 1.89,-1.34 5.15,2.4 3.73,4.33 -1.2,-1.48 -2.5,-2.88 -3.73,-4.33 z"
       id="path7" />
  </g>
  <g
     id="#0d0d0cff"
     transform="translate(-5.8325328,-4.7485456)">
    <path
       fill="#0d0d0c"
       opacity="1"
       d="m 140.66,27.77 c 2.34,-1.27 4.73,3.34 3.7,5.46 -1.14,-1.88 -2.36,-3.71 -3.7,-5.46 z"
       id="path8" />
  </g>
  <g
     id="#f3f1e8ff"
     transform="translate(-5.8325328,-4.7485456)">
    <path
       fill="#f3f1e8"
       opacity="1"
       d="m 139.86,28.12 0.8,-0.35 c 1.34,1.75 2.56,3.58 3.7,5.46 1.68,2.95 3.59,5.77 5.34,8.68 12.36,21.62 19.87,45.95 21.61,70.82 -0.41,7.49 -0.38,15 -0.04,22.49 -0.41,21.44 -6.53,42.39 -15.08,61.93 -1.03,2.5 -2.2,4.99 -4.22,6.85 5.97,-15.29 12.68,-30.49 15.23,-46.88 2.85,-14.26 3.2,-28.87 2.68,-43.36 -0.01,-1.31 -0.13,-2.61 -0.33,-3.9 -1.57,-21.3 -8.24,-41.97 -17.67,-61.03 -3.41,-5.79 -6.35,-11.95 -10.61,-17.18 -0.5,-1.17 -0.97,-2.34 -1.41,-3.53 z"
       id="path9" />
  </g>
  <g
     id="#eae0c5ff"
     transform="translate(-5.8325328,-4.7485456)">
    <path
       fill="#eae0c5"
       opacity="1"
       d="m 122.26,31.22 c 6.28,-0.81 12.72,-0.18 19.01,0.43 4.26,5.23 7.2,11.39 10.61,17.18 -6.32,2.34 1.15,11.53 -3.5,14.59 0.92,1.16 1.9,2.29 2.94,3.35 2.1,0.91 3.51,-1.7 5.51,-1.73 2.11,2.52 2.05,6 3.22,8.95 0.95,2.92 2.66,5.69 2.69,8.84 -2.52,0.91 -4.08,2.66 -4.94,5.17 -2.31,0.16 -2.14,-3.66 -4.6,-2.9 -1.71,2.34 -0.99,4.85 0.67,6.94 -0.56,2.05 -1.66,3.88 -2.53,5.81 1.24,2.74 3.58,5.89 7.34,4.29 -1.79,-3.88 3.67,-2.25 6.2,-2.75 2.97,3.1 2.59,7.69 3.21,11.63 0.36,-0.29 1.1,-0.87 1.46,-1.16 0.2,1.29 0.32,2.59 0.33,3.9 -5.03,6.97 -3.02,16.45 -2.54,24.46 -1.55,6.03 -0.14,12.36 -1.62,18.46 -0.77,2.24 -3.1,0.35 -4.71,0.43 -1.74,-0.6 -2.29,2.34 -4.03,1.85 -1.75,-0.2 -3.42,-0.82 -5.1,-1.28 1.11,-1.79 4.99,-0.66 4.08,-3.51 -2.04,-1.58 -5.7,-0.57 -5.31,-4.21 -2.86,4.27 -6.8,7.17 -11.44,9.22 -3.7,5.46 -1.53,13.08 2.72,17.76 -1.76,2.42 -3.64,6.17 -7.15,5.74 -1.92,0.21 -4.07,-0.74 -5.77,0.44 2.55,4.64 -0.06,9.61 0.14,14.59 1.91,0.42 5.7,0.27 4.85,3.28 0,3.83 -3.45,6.03 -4.4,9.5 -6.52,1.42 -2.69,12.22 -9.62,12.4 -4.38,-1.23 -5.94,-6.29 -3.16,-9.82 -2.14,-2.1 -5.01,-2.1 -7.6,-0.87 0.12,1.15 0.38,2.28 0.48,3.44 -2.39,1.2 -4.84,2.46 -6.51,4.63 -0.81,4.04 3.96,7.04 2.53,11.33 -3.13,2.2 -5.07,8.02 -9.67,5.71 2.08,3.29 -2.35,4.05 -4.83,3.61 -1.89,-2.13 -2.26,-6.71 -5.93,-6.04 0.25,1.41 0.54,2.81 0.71,4.24 -1.34,-1.32 -2.55,-2.78 -3.41,-4.47 -1.76,0.12 -3.42,-0.35 -4.88,-1.34 2.6,-1.22 6.36,0.32 8.59,-1.96 -3.07,-0.18 -6.08,-0.56 -9.13,-0.86 -1.57,1.22 -2.89,2.74 -4.25,4.18 -23.46,-11.45 -43.78,-30.81 -54.91,-54.6 -0.83,-4.71 -1.44,-9.47 -2.69,-14.09 -0.01,-2.78 0.36,-8.53 4.26,-6.6 4.73,2.99 1.95,8.91 -0.82,12.38 3.01,-0.54 5.98,-1.46 9.07,-1.29 1.67,-2.79 0.71,-5.67 -1.56,-7.74 -1.92,-1.42 -0.39,-3.43 0.09,-5.16 -0.75,-4.6 5.04,-5.26 4.91,-9.42 6.34,-3.41 4.83,-10.72 8.12,-15.99 1.33,-2.67 -0.86,-5.51 -1.68,-8.05 -4.3,-1.25 -7.85,1.55 -11.53,3.09 -0.97,2.56 2.15,8.9 -2.2,7.82 -2.17,0.55 -3.07,-1.69 -3.5,-3.37 1.01,-4.94 -1.87,-9.05 -3.94,-13.19 -1.61,-1.08 -6.29,-0.38 -5.27,-3.18 2.88,-3.83 7.78,-5.88 9.82,-10.33 -2.29,-0.36 -4.23,0.71 -6.06,1.91 -2.34,-2.66 -1.25,-7.26 1.18,-9.54 2.19,0.34 6.46,-0.07 5.66,-3.2 -3.47,-5.1 -2.41,-11.8 -1.29,-17.5 11.23,-12.77 23.89,-24.19 35.69,-36.42 3,-0.73 4.57,3.13 6.98,4.42 2.84,-1.24 6.08,-1.87 8.53,-3.85 2.32,-1.77 1.47,-5.29 3.36,-7.25 2.2,0.11 4.29,-0.58 6.44,-0.92 1.35,0.93 2.48,2.71 4.34,2.39 2.76,-1.04 4.93,-3.78 8.17,-3 -0.24,2.22 -1.37,4.34 -3.85,4.32 2.07,2.44 3.56,5.43 5.82,7.68 1.68,1.85 4.37,0.35 5.56,-1.3 0.5,-1.85 0.88,-3.74 1.5,-5.57 4.02,-0.11 4.73,5.92 8.71,4.71 2.78,-1.4 5.48,-3.02 7.84,-5.07 -0.76,-2.39 0.77,-4.19 2.59,-5.54 m -4.89,19.07 c -3.19,3.39 -8.5,0.68 -12.32,2.89 0.79,3.68 3.86,6.59 4.27,10.56 2.86,3.05 7.69,2.42 11.43,3.88 4.47,-1.68 5.23,-6.26 5.15,-10.55 -1.22,-3.85 -2.54,-10.05 -8.53,-6.78 M 29.89,68.18 c 0.24,2.71 3.96,3.06 6.09,3.89 1.37,-4.19 -3.11,-3.43 -6.09,-3.89 m 40.39,2.11 C 66.44,71.02 67.81,76.48 67,79 c -1.76,5.51 4.09,7.73 6.23,11.79 2.52,-0.71 6.54,2.84 8.7,0.07 -4.38,-5.19 -1.25,-12.89 -4.2,-18.59 -2.37,-0.84 -4.9,-2.64 -7.45,-1.98 m -26.1,33.78 c -2.01,2.35 -1.86,5.89 -2.12,8.72 4.05,1.26 9,1.82 11.8,-2.02 3.28,-7.44 -6.13,-5.77 -9.68,-6.7 m -15.89,5.21 c -2.28,0.84 -4.13,2.63 -4.97,4.92 0.4,2.26 1.22,5.14 3.68,5.8 3.16,-1.54 7.76,-3.64 6.95,-7.93 -0.92,-2.21 -1.31,-5.97 -5.66,-2.79 m 102.67,4.81 c -3.57,1.12 -7.64,3.55 -6.95,7.85 0.93,4.36 7.67,3.84 8.7,-0.22 1.75,-2.69 3.32,-9.52 -1.75,-7.63 M 64.3,168.28 c -6.84,1.31 -1.98,11.99 3.46,10.53 2.38,-2.34 5.08,-4.65 6.24,-7.86 0.53,-5.16 -7.38,-2.06 -9.7,-2.67 m -19.98,4.03 c -3.66,0.82 -4.2,5.22 -6,7.99 -1.25,2.91 2.35,4.91 2.79,7.63 1.34,4.85 9.54,0.72 7.57,-3.64 -1.79,-4.16 1.25,-7.4 2.15,-11.15 -1.67,-1.71 -3.84,-1.99 -6.51,-0.83 m 13.65,24.88 c 0.31,2.48 -1.47,6.43 1.7,7.23 4.03,1.99 -3.09,5.21 -1.12,7.92 0.79,3.79 4.85,-0.63 7.15,1.06 1.92,1.25 2.63,-0.77 3.87,-1.84 0.58,-4.42 6.01,-4.89 9.43,-6.49 2.55,1.76 5.18,3.35 8.65,1.44 1.75,-0.56 5.18,-0.02 5.17,-2.6 1.64,-1.8 3.99,-3.56 2.1,-6.72 -2.47,-1.67 -5.81,-2.1 -8.75,-2.15 -3.79,-0.22 -7.07,3.07 -10.86,2.59 -2.09,-1.43 -4.88,-2.55 -4.55,-5.58 -5.88,-2.67 -8.09,6.32 -12.79,5.14 z"
       id="path10" />
  </g>
  <g
     id="#ddd3b8ff"
     transform="translate(-5.8325328,-4.7485456)">
    <path
       fill="#ddd3b8"
       opacity="1"
       d="m 64.24,34.11 c 2.82,-1.58 8.06,0.23 7.75,3.84 -1.15,5.3 -12.57,4.33 -8.88,-2.71 0.29,-0.29 0.85,-0.85 1.13,-1.13 z"
       id="path11" />
  </g>
  <g
     id="#101110fe"
     transform="translate(-5.8325328,-4.7485456)">
    <path
       fill="#101110"
       opacity="1"
       d="m 149.7,41.91 c 0.3,-0.19 0.91,-0.57 1.21,-0.75 10.2,18.22 17.5,38.15 20.64,58.84 0.16,2.01 0.37,4.03 0.71,6.02 0.05,1.05 0.15,2.09 0.28,3.13 0.79,10.63 0.38,21.3 0.52,31.95 -2.1,4.97 -1.48,10.6 -2.63,15.8 -0.51,2.68 -1.26,5.29 -1.88,7.94 -3.98,17.32 -10.31,34.19 -19.84,49.25 -1.33,2.15 -2.41,4.63 -4.77,5.87 2.43,-5.45 6.42,-10.11 8.03,-15.96 2.02,-1.86 3.19,-4.35 4.22,-6.85 8.55,-19.54 14.67,-40.49 15.08,-61.93 0.66,-7.39 1.72,-15.18 0.04,-22.49 -1.74,-24.87 -9.25,-49.2 -21.61,-70.82 z"
       id="path12" />
  </g>
  <g
     id="#e6dcc1ff"
     transform="translate(-5.8325328,-4.7485456)">
    <path
       fill="#e6dcc1"
       opacity="1"
       d="m 148.38,63.42 c 4.65,-3.06 -2.82,-12.25 3.5,-14.59 9.43,19.06 16.1,39.73 17.67,61.03 -0.36,0.29 -1.1,0.87 -1.46,1.16 -0.62,-3.94 -0.24,-8.53 -3.21,-11.63 -2.53,0.5 -7.99,-1.13 -6.2,2.75 -3.76,1.6 -6.1,-1.55 -7.34,-4.29 0.87,-1.93 1.97,-3.76 2.53,-5.81 -1.66,-2.09 -2.38,-4.6 -0.67,-6.94 2.46,-0.76 2.29,3.06 4.6,2.9 0.86,-2.51 2.42,-4.26 4.94,-5.17 -0.03,-3.15 -1.74,-5.92 -2.69,-8.84 -1.17,-2.95 -1.11,-6.43 -3.22,-8.95 -2,0.03 -3.41,2.64 -5.51,1.73 -1.04,-1.06 -2.02,-2.19 -2.94,-3.35 z"
       id="path13" />
  </g>
  <g
     id="#e5dbc0ff"
     transform="translate(-5.8325328,-4.7485456)">
    <path
       fill="#e5dbc0"
       opacity="1"
       d="m 117.37,50.29 c 5.99,-3.27 7.31,2.93 8.53,6.78 0.08,4.29 -0.68,8.87 -5.15,10.55 -3.74,-1.46 -8.57,-0.83 -11.43,-3.88 -0.41,-3.97 -3.48,-6.88 -4.27,-10.56 3.82,-2.21 9.13,0.5 12.32,-2.89 m 1.86,2.83 c -1.63,3.05 -4.75,4.68 -7.14,7.06 0.04,5.74 11.99,5.84 11.94,-0.16 1.69,-3.05 -1.28,-8.03 -4.8,-6.9 z"
       id="path14" />
  </g>
  <g
     id="#dbd1b6ff"
     transform="translate(-5.8325328,-4.7485456)">
    <path
       fill="#dbd1b6"
       opacity="1"
       d="m 119.23,53.12 c 3.52,-1.13 6.49,3.85 4.8,6.9 0.05,6 -11.9,5.9 -11.94,0.16 2.39,-2.38 5.51,-4.01 7.14,-7.06 z"
       id="path15" />
    <path
       fill="#dbd1b6"
       opacity="1"
       d="m 130.96,114.09 c 5.07,-1.89 3.5,4.94 1.75,7.63 -1.03,4.06 -7.77,4.58 -8.7,0.22 -0.69,-4.3 3.38,-6.73 6.95,-7.85 z"
       id="path16" />
  </g>
  <g
     id="#e7ddc3fe"
     transform="translate(-5.8325328,-4.7485456)">
    <path
       fill="#e7ddc3"
       opacity="1"
       d="m 29.89,68.18 c 2.98,0.46 7.46,-0.3 6.09,3.89 -2.13,-0.83 -5.85,-1.18 -6.09,-3.89 z"
       id="path17" />
  </g>
  <g
     id="#e0d6bbff"
     transform="translate(-5.8325328,-4.7485456)">
    <path
       fill="#e0d6bb"
       opacity="1"
       d="m 70.28,70.29 c 2.55,-0.66 5.08,1.14 7.45,1.98 2.95,5.7 -0.18,13.4 4.2,18.59 -2.16,2.77 -6.18,-0.78 -8.7,-0.07 C 71.09,86.73 65.24,84.51 67,79 c 0.81,-2.52 -0.56,-7.98 3.28,-8.71 z"
       id="path18" />
    <path
       fill="#e0d6bb"
       opacity="1"
       d="m 28.16,128.3 c 2.38,-1.09 4.85,-2.94 7.61,-2.14 1.84,1.54 2.83,3.78 3.62,6 -3.29,5.27 -1.78,12.58 -8.12,15.99 -1.1,0.6 -2.16,1.27 -3.3,1.8 -5.1,-0.9 -6.29,-10.52 -0.86,-11.74 1.35,-0.35 2.74,-0.62 3.96,-1.34 -0.45,-3.03 -3.4,-5.41 -2.91,-8.57 z"
       id="path19" />
  </g>
  <g
     id="#4e5858ff"
     transform="translate(-5.8325328,-4.7485456)">
    <path
       fill="#4e5858"
       opacity="1"
       d="m 183.17,77.09 c 2.1,0.12 2.21,2.69 0.6,3.69 -2.39,2.17 1.79,4.47 3.54,2.57 2.18,-1.95 6.26,-1.63 6.97,1.54 1.53,-1.93 4.07,-2.17 3.73,0.98 -1.5,0.81 -4.51,2.42 -6.02,3.22 0.84,1.57 2.57,2.89 2.71,4.7 -1.09,1.91 -2.47,3.65 -3.11,5.78 -1.87,0.01 -2.59,4.67 -0.24,2.82 1.76,-0.82 -0.36,2.4 -0.49,3.24 -1.27,-0.3 -2.49,-0.02 -3.64,0.54 -0.39,1.61 0.27,4.06 -2.09,4.14 -0.62,1.9 0.2,3.64 1.41,5.08 -0.86,4.02 2.81,6.2 3.57,9.59 -1.94,-1.08 -4.86,-1.44 -5.45,-3.93 -2.1,1.17 -0.87,4.18 -2.62,5.97 1.89,1.92 1.38,5.82 4.94,5.14 -3.36,4.17 -3.58,9.84 -5.01,14.8 -0.09,1.45 -1.8,1.81 -2.86,2.33 1.3,2.13 5.57,5.58 -3.1,2.69 -0.3,-5.27 0.8,-10.48 0.39,-15.69 1.15,-4.94 -0.57,-10.37 1.72,-15.04 0.96,0.27 1.93,0.53 2.9,0.77 0.78,-3.25 -4.53,-1.8 -4.2,-4.93 -1.01,-7.97 -2.98,-16.03 -1.84,-24.09 -0.34,-3.91 -1.51,-8.01 0.2,-11.78 3.46,0.56 6.74,-0.98 7.99,-4.13 z"
       id="path20" />
  </g>
  <g
     id="#464f4fff"
     transform="translate(-5.8325328,-4.7485456)">
    <path
       fill="#464f4f"
       opacity="1"
       d="m 200.17,91.09 c 3.67,-0.77 9.44,1.99 6.82,6.89 -0.17,2.07 -4.25,1.83 -2.92,4.76 3.25,0.8 8.21,2.5 5.95,7.29 0.56,4.38 -6.52,4.3 -8.31,1.25 -3.65,-3.62 -2.54,-8.95 -4.55,-13.29 0.71,-2.4 1.41,-4.91 3.01,-6.9 z"
       id="path21" />
  </g>
  <g
     id="#626e6dff"
     transform="translate(-5.8325328,-4.7485456)">
    <path
       fill="#626e6d"
       opacity="1"
       d="m 171.55,100 c 3.12,-2.41 1.71,5.57 0.71,6.02 -0.34,-1.99 -0.55,-4.01 -0.71,-6.02 z"
       id="path22" />
  </g>
  <g
     id="#e5dac0ff"
     transform="translate(-5.8325328,-4.7485456)">
    <path
       fill="#e5dac0"
       opacity="1"
       d="m 44.18,104.07 c 3.55,0.93 12.96,-0.74 9.68,6.7 -2.8,3.84 -7.75,3.28 -11.8,2.02 0.26,-2.83 0.11,-6.37 2.12,-8.72 z"
       id="path23" />
  </g>
  <g
     id="#667170ff"
     transform="translate(-5.8325328,-4.7485456)">
    <path
       fill="#667170"
       opacity="1"
       d="m 172.54,109.15 c 0.35,-0.31 1.05,-0.93 1.4,-1.25 -0.2,11.05 1.03,22.3 -0.88,33.2 -0.14,-10.65 0.27,-21.32 -0.52,-31.95 z"
       id="path24" />
  </g>
  <g
     id="#e0d6bcff"
     transform="translate(-5.8325328,-4.7485456)">
    <path
       fill="#e0d6bc"
       opacity="1"
       d="m 28.29,109.28 c 4.35,-3.18 4.74,0.58 5.66,2.79 0.81,4.29 -3.79,6.39 -6.95,7.93 -2.46,-0.66 -3.28,-3.54 -3.68,-5.8 0.84,-2.29 2.69,-4.08 4.97,-4.92 z"
       id="path25" />
  </g>
  <g
     id="#6f695fff"
     transform="translate(-5.8325328,-4.7485456)">
    <path
       fill="#6f695f"
       opacity="1"
       d="m 171.31,112.73 c 1.68,7.31 0.62,15.1 -0.04,22.49 -0.34,-7.49 -0.37,-15 0.04,-22.49 z"
       id="path26" />
  </g>
  <g
     id="#e4dabffe"
     transform="translate(-5.8325328,-4.7485456)">
    <path
       fill="#e4dabf"
       opacity="1"
       d="m 167.34,138.22 c -0.48,-8.01 -2.49,-17.49 2.54,-24.46 0.52,14.49 0.17,29.1 -2.68,43.36 -2.55,16.39 -9.26,31.59 -15.23,46.88 -9.23,14.64 -18.78,29.31 -31.58,41.17 0.09,0.3 0.28,0.92 0.38,1.22 l 0.23,0.76 c -16.65,-1.02 -33.12,-5.02 -48.08,-12.48 1.36,-1.44 2.68,-2.96 4.25,-4.18 3.05,0.3 6.06,0.68 9.13,0.86 -2.23,2.28 -5.99,0.74 -8.59,1.96 1.46,0.99 3.12,1.46 4.88,1.34 0.86,1.69 2.07,3.15 3.41,4.47 -0.17,-1.43 -0.46,-2.83 -0.71,-4.24 3.67,-0.67 4.04,3.91 5.93,6.04 2.48,0.44 6.91,-0.32 4.83,-3.61 4.6,2.31 6.54,-3.51 9.67,-5.71 1.43,-4.29 -3.34,-7.29 -2.53,-11.33 1.67,-2.17 4.12,-3.43 6.51,-4.63 -0.1,-1.16 -0.36,-2.29 -0.48,-3.44 2.59,-1.23 5.46,-1.23 7.6,0.87 -2.78,3.53 -1.22,8.59 3.16,9.82 6.93,-0.18 3.1,-10.98 9.62,-12.4 0.95,-3.47 4.4,-5.67 4.4,-9.5 0.85,-3.01 -2.94,-2.86 -4.85,-3.28 -0.2,-4.98 2.41,-9.95 -0.14,-14.59 1.7,-1.18 3.85,-0.23 5.77,-0.44 3.51,0.43 5.39,-3.32 7.15,-5.74 -4.25,-4.68 -6.42,-12.3 -2.72,-17.76 4.64,-2.05 8.58,-4.95 11.44,-9.22 -0.39,3.64 3.27,2.63 5.31,4.21 0.91,2.85 -2.97,1.72 -4.08,3.51 1.68,0.46 3.35,1.08 5.1,1.28 1.74,0.49 2.29,-2.45 4.03,-1.85 1.61,-0.08 3.94,1.81 4.71,-0.43 1.48,-6.1 0.07,-12.43 1.62,-18.46 m -20.04,21.11 c -4.98,0.88 -10.36,5.26 -7.68,11 0.7,3.35 3.97,4.88 7.17,4.53 2.06,-1.39 2.01,-3.96 3.38,-5.79 1.88,-0.28 2.9,1.98 4.75,2.11 2.3,1.39 4.36,-0.96 5.94,-2.4 0.52,-4.72 -4.68,-9.45 -9.51,-8.25 -1.36,-0.29 -2.64,-1.72 -4.05,-1.2 z"
       id="path27" />
  </g>
  <g
     id="#ded4b9fc"
     transform="translate(-5.8325328,-4.7485456)">
    <path
       fill="#ded4b9"
       opacity="1"
       d="m 9.1,123.97 c 0.98,0.95 1.64,2.39 3.01,2.86 5.58,1.56 7.42,7.67 9.75,12.3 1.28,3.65 -3.62,4.1 -5.06,6.63 -2.66,5.2 -3.32,11.2 -5.5,16.6 l -1.06,-0.37 C 7.77,151.98 5.61,141.63 6.14,131.3 9.3,130.73 8.71,125.98 9.1,123.97 Z"
       id="path28" />
  </g>
  <g
     id="#4a5455fe"
     transform="translate(-5.8325328,-4.7485456)">
    <path
       fill="#4a5455"
       opacity="1"
       d="m 205.02,137.92 c 4.28,0.63 3.06,6.57 6.07,8.84 4.69,-0.7 6.18,-6.34 10.87,-6.86 0.1,1.86 -1.51,4.32 0.52,5.62 1.19,0.89 -1.17,1.78 -1.46,2.66 2.99,0.25 4.43,-2.57 5.42,-4.93 3.43,0.36 6.42,3.84 7.13,7.28 -2.54,1.77 -1.09,2.87 1.53,2.73 -1.75,2.57 -4.44,4.61 -4.74,8.05 0.25,5.87 0.62,11.91 -0.17,17.79 -0.16,4.6 -7.52,0.61 -8.19,4.95 -0.83,2.53 2.27,2.6 3.86,3.35 0.84,2.74 -2.24,4.03 -3.61,5.85 0.4,1.06 0.96,2.04 1.49,3.04 -21.38,32.98 -61.92,51.78 -100.94,50.56 7.3,-7.12 13.79,-14.99 19.82,-23.19 0.63,-1.16 0.99,-2.44 1.32,-3.7 2.36,-1.24 3.44,-3.72 4.77,-5.87 5.32,0.08 0.78,6.56 -0.87,8.9 3.25,0.4 8.1,-0.78 6.68,-5.61 0.27,-3.34 4.25,-3.73 6.82,-2.87 3.46,0.72 5.83,-2.29 7.23,-5.03 3.6,-3.3 9.66,-1.33 13.15,-4.78 2.59,-4.39 -0.77,-8.96 -0.17,-13.56 -1.24,-0.14 -2.48,-0.26 -3.72,-0.35 2.95,-0.47 3.77,-3.1 4.23,-5.7 -1.94,0.36 -3.86,0.97 -5.86,0.88 -0.34,-2.32 -1.37,-4.74 -0.24,-6.99 1.44,-2.67 -2.46,-7.93 4.82,-5.27 2.7,-9.9 0.97,-21.07 5.48,-30.58 2.16,-0.54 3.62,1.54 5.6,1.93 0.7,-1.22 1.04,-2.59 1.46,-3.93 3.39,2.47 7.32,3.85 11.56,3.41 1.46,-2.02 0.26,-4.41 0.14,-6.62 m -13.77,37.23 c -2.87,3.75 -7.69,7.95 -5.65,13.17 1.57,2.14 -2.02,5.02 0.6,6.52 6.06,0.25 13.6,0.28 17.61,-5.09 0.9,-4.99 -4.49,-7.31 -6.01,-11.54 -0.87,-2.8 -4.2,-2.46 -6.55,-3.06 m -14,34.13 c -2.65,0.99 -4.06,4.07 -7.17,3.91 -3.48,0.26 -4.76,3.58 -5.43,6.51 -2.55,0.75 -4.64,2.12 -3.56,5.13 3.23,3.35 8.44,1.55 11.24,-1.41 2.79,-0.15 3.94,-3.38 6.67,-3.4 3.95,-0.16 5.71,-5.59 4.93,-8.83 -1.83,-1.46 -4.44,-1.74 -6.68,-1.91 z"
       id="path29" />
  </g>
  <g
     id="#626f71ff"
     transform="translate(-5.8325328,-4.7485456)">
    <path
       fill="#626f71"
       opacity="1"
       d="m 170.43,156.9 c 0.06,3.06 -0.12,6.13 -0.54,9.15 -0.34,-0.3 -1.01,-0.9 -1.34,-1.21 0.62,-2.65 1.37,-5.26 1.88,-7.94 z"
       id="path30" />
  </g>
  <g
     id="#ded3b8ff"
     transform="translate(-5.8325328,-4.7485456)">
    <path
       fill="#ded3b8"
       opacity="1"
       d="m 147.3,159.33 c 1.41,-0.52 2.69,0.91 4.05,1.2 4.83,-1.2 10.03,3.53 9.51,8.25 -1.58,1.44 -3.64,3.79 -5.94,2.4 -1.85,-0.13 -2.87,-2.39 -4.75,-2.11 -1.37,1.83 -1.32,4.4 -3.38,5.79 -3.2,0.35 -6.47,-1.18 -7.17,-4.53 -2.68,-5.74 2.7,-10.12 7.68,-11 z"
       id="path31" />
  </g>
  <g
     id="#e3d9beff"
     transform="translate(-5.8325328,-4.7485456)">
    <path
       fill="#e3d9be"
       opacity="1"
       d="m 64.3,168.28 c 2.32,0.61 10.23,-2.49 9.7,2.67 -1.16,3.21 -3.86,5.52 -6.24,7.86 -5.44,1.46 -10.3,-9.22 -3.46,-10.53 z"
       id="path32" />
  </g>
  <g
     id="#e2d8bdff"
     transform="translate(-5.8325328,-4.7485456)">
    <path
       fill="#e2d8bd"
       opacity="1"
       d="m 44.32,172.31 c 2.67,-1.16 4.84,-0.88 6.51,0.83 -0.9,3.75 -3.94,6.99 -2.15,11.15 1.97,4.36 -6.23,8.49 -7.57,3.64 -0.44,-2.72 -4.04,-4.72 -2.79,-7.63 1.8,-2.77 2.34,-7.17 6,-7.99 z"
       id="path33" />
  </g>
  <g
     id="#424b4dff"
     transform="translate(-5.8325328,-4.7485456)">
    <path
       fill="#424b4d"
       opacity="1"
       d="m 191.25,175.15 c 2.35,0.6 5.68,0.26 6.55,3.06 1.52,4.23 6.91,6.55 6.01,11.54 -4.01,5.37 -11.55,5.34 -17.61,5.09 -2.62,-1.5 0.97,-4.38 -0.6,-6.52 -2.04,-5.22 2.78,-9.42 5.65,-13.17 z"
       id="path34" />
  </g>
  <g
     id="#e7ddc2ff"
     transform="translate(-5.8325328,-4.7485456)">
    <path
       fill="#e7ddc2"
       opacity="1"
       d="m 57.97,197.19 c 4.7,1.18 6.91,-7.81 12.79,-5.14 -0.33,3.03 2.46,4.15 4.55,5.58 3.79,0.48 7.07,-2.81 10.86,-2.59 -1.78,1.26 -3.53,2.59 -4.99,4.22 -0.17,2.27 0.71,4.45 1.1,6.66 3.62,-0.18 6.96,-1.63 10.54,-2.01 0.01,2.58 -3.42,2.04 -5.17,2.6 -3.47,1.91 -6.1,0.32 -8.65,-1.44 -3.42,1.6 -8.85,2.07 -9.43,6.49 -1.24,1.07 -1.95,3.09 -3.87,1.84 -2.3,-1.69 -6.36,2.73 -7.15,-1.06 -1.97,-2.71 5.15,-5.93 1.12,-7.92 -3.17,-0.8 -1.39,-4.75 -1.7,-7.23 z"
       id="path35" />
  </g>
  <g
     id="#e1d6bcff"
     transform="translate(-5.8325328,-4.7485456)">
    <path
       fill="#e1d6bc"
       opacity="1"
       d="m 86.17,195.04 c 2.94,0.05 6.28,0.48 8.75,2.15 1.89,3.16 -0.46,4.92 -2.1,6.72 -3.58,0.38 -6.92,1.83 -10.54,2.01 -0.39,-2.21 -1.27,-4.39 -1.1,-6.66 1.46,-1.63 3.21,-2.96 4.99,-4.22 z"
       id="path36" />
  </g>
  <g
     id="#f3f1e9fe"
     transform="translate(-5.8325328,-4.7485456)">
    <path
       fill="#f3f1e9"
       opacity="1"
       d="m 120.39,245.17 c 12.8,-11.86 22.35,-26.53 31.58,-41.17 -1.61,5.85 -5.6,10.51 -8.03,15.96 -7.74,8.77 -13.99,18.97 -23.17,26.43 -0.1,-0.3 -0.29,-0.92 -0.38,-1.22 z"
       id="path37" />
  </g>
  <g
     id="#464f51ff"
     transform="translate(-5.8325328,-4.7485456)">
    <path
       fill="#464f51"
       opacity="1"
       d="m 177.25,209.28 c 2.24,0.17 4.85,0.45 6.68,1.91 0.78,3.24 -0.98,8.67 -4.93,8.83 -2.73,0.02 -3.88,3.25 -6.67,3.4 -2.8,2.96 -8.01,4.76 -11.24,1.41 -1.08,-3.01 1.01,-4.38 3.56,-5.13 0.67,-2.93 1.95,-6.25 5.43,-6.51 3.11,0.16 4.52,-2.92 7.17,-3.91 z"
       id="path38" />
  </g>
  <g
     id="#10100ffd"
     transform="translate(-5.8325328,-4.7485456)">
    <path
       fill="#10100f"
       opacity="1"
       d="m 120.77,246.39 c 9.18,-7.46 15.43,-17.66 23.17,-26.43 -0.33,1.26 -0.69,2.54 -1.32,3.7 -6.03,8.2 -12.52,16.07 -19.82,23.19 -0.45,0.07 -1.35,0.22 -1.8,0.3 z"
       id="path39" />
  </g>
</svg>
