<?xml version="1.0" encoding="UTF-8" ?>
<!DOCTYPE svg PUBLIC "-//W3C//DTD SVG 1.1//EN" "http://www.w3.org/Graphics/SVG/1.1/DTD/svg11.dtd">
<svg width="253pt" height="253pt" viewBox="0 0 253 253" version="1.1" xmlns="http://www.w3.org/2000/svg">
<g id="#2f3232d6">
<path fill="#2f3232" opacity="0.84" d=" M 114.01 4.98 C 116.72 5.00 122.15 5.03 124.86 5.04 C 125.60 5.99 126.34 6.94 127.08 7.89 L 126.02 7.97 C 122.44 5.64 118.07 6.12 114.00 5.94 L 114.01 4.98 Z" />
</g>
<g id="#f1eee4fe">
<path fill="#f1eee4" opacity="1.00" d=" M 124.86 5.04 C 125.35 5.07 126.31 5.12 126.80 5.15 C 131.44 9.57 135.62 14.42 139.82 19.24 C 141.98 21.79 144.06 24.41 146.07 27.08 C 151.21 34.55 156.49 41.95 160.71 50.00 C 163.93 55.28 165.69 61.27 168.17 66.91 C 169.13 69.23 169.91 71.63 170.59 74.05 C 175.39 88.29 177.08 103.34 178.12 118.26 C 180.18 154.53 166.99 190.28 146.99 220.08 C 141.10 228.31 135.21 236.68 127.85 243.69 C 127.29 243.81 126.16 244.04 125.60 244.15 C 127.96 241.06 131.94 238.94 133.02 235.01 C 139.81 229.29 143.95 221.18 148.96 213.98 C 164.35 190.52 174.01 163.22 176.24 135.22 C 176.93 127.49 178.05 119.39 176.34 111.73 C 173.75 72.49 155.52 34.88 127.08 7.89 C 126.34 6.94 125.60 5.99 124.86 5.04 Z" />
</g>
<g id="#d9cfb3fa">
<path fill="#d9cfb3" opacity="0.98" d=" M 126.80 5.15 C 138.73 4.30 150.47 7.40 161.94 10.29 L 162.16 11.21 C 159.97 13.56 157.49 15.64 155.51 18.17 C 155.65 20.31 156.75 23.06 154.20 24.17 C 155.59 20.84 153.28 17.88 151.79 15.05 C 149.02 14.32 147.66 17.22 145.79 18.62 C 143.61 17.58 141.47 16.94 139.82 19.24 C 135.62 14.42 131.44 9.57 126.80 5.15 Z" />
</g>
<g id="#424b4dfe">
<path fill="#424b4d" opacity="1.00" d=" M 71.98 17.97 C 84.97 11.15 99.29 6.65 114.00 5.94 C 118.07 6.12 122.44 5.64 126.02 7.97 C 148.31 30.91 165.87 59.34 171.91 91.06 L 170.88 91.05 C 168.03 80.61 165.19 70.04 160.69 60.17 C 153.81 59.57 146.72 59.98 140.08 61.60 C 137.58 60.61 136.17 63.28 134.03 63.87 C 132.21 63.43 129.68 60.82 129.02 63.88 C 130.03 65.16 131.13 66.36 132.02 67.73 C 129.02 67.39 129.13 69.24 129.56 71.53 C 127.42 72.68 126.28 74.70 125.85 77.02 C 122.68 77.34 120.32 72.29 117.93 75.83 C 115.69 75.46 113.58 74.67 113.64 72.03 C 111.97 72.19 111.01 73.69 109.73 74.58 C 108.13 74.26 106.62 73.65 105.05 73.22 C 104.08 74.64 104.30 77.34 101.96 77.05 C 102.21 74.62 104.16 71.07 100.07 71.89 C 101.28 70.97 102.23 69.73 102.09 68.12 C 100.40 68.14 97.92 69.85 97.24 67.47 C 100.80 65.56 101.61 61.06 101.49 57.33 C 104.32 57.71 104.89 54.12 102.12 53.58 C 107.67 52.15 105.63 45.64 107.23 41.42 C 111.04 41.59 109.53 38.31 109.11 35.90 C 111.56 36.13 113.70 37.43 116.04 38.06 C 117.01 33.98 111.82 33.24 110.83 29.99 C 113.98 31.21 116.45 34.21 120.04 34.09 C 120.42 31.04 116.06 32.19 115.08 29.93 C 113.19 26.36 110.32 23.33 107.08 20.95 C 104.99 23.30 109.78 24.25 108.91 26.78 C 107.89 28.46 105.80 28.01 104.16 27.96 C 102.88 25.74 102.39 23.13 100.83 21.07 C 95.24 20.05 101.10 31.01 95.18 28.91 C 94.56 26.11 92.65 24.04 90.82 21.96 C 92.44 20.59 94.28 19.51 96.00 18.29 C 92.95 18.93 94.08 15.77 92.14 14.96 C 91.08 16.35 91.10 18.15 90.72 19.78 C 86.16 18.51 80.69 20.25 78.94 24.97 C 82.75 26.64 77.93 27.90 76.60 29.52 C 75.47 31.63 74.30 34.01 72.03 35.09 C 70.57 34.23 69.16 33.25 67.93 32.09 C 68.41 30.58 72.03 28.30 68.01 27.96 C 65.28 25.70 61.78 26.09 59.00 27.94 C 53.90 31.39 49.06 35.46 45.50 40.53 C 44.25 41.98 42.38 42.18 40.69 41.41 C 48.74 31.07 60.50 24.07 71.98 17.97 Z" />
</g>
<g id="#111110fe">
<path fill="#111110" opacity="1.00" d=" M 126.02 7.97 L 127.08 7.89 C 155.52 34.88 173.75 72.49 176.34 111.73 C 175.89 119.55 175.91 127.39 176.24 135.22 C 174.01 163.22 164.35 190.52 148.96 213.98 C 143.95 221.18 139.81 229.29 133.02 235.01 C 138.41 226.37 145.28 218.36 150.22 209.27 C 159.44 194.10 166.63 177.56 170.74 160.27 C 171.41 157.54 172.01 154.80 172.06 151.98 C 172.70 149.34 173.34 146.72 173.95 144.08 C 174.00 142.35 174.10 138.90 174.14 137.17 C 174.92 136.00 174.86 134.58 174.84 133.24 C 174.93 126.41 175.18 119.58 174.84 112.76 C 174.82 111.49 174.72 110.23 174.53 108.98 C 174.31 106.98 174.05 104.98 173.71 103.00 C 173.64 102.46 173.52 101.40 173.45 100.87 C 173.09 97.57 172.64 94.30 171.91 91.06 C 165.87 59.34 148.31 30.91 126.02 7.97 Z" />
</g>
<g id="#e1d7bcfd">
<path fill="#e1d7bc" opacity="1.00" d=" M 162.16 11.21 C 169.55 12.81 177.94 15.32 183.37 20.31 C 180.51 21.68 177.18 19.10 174.42 20.41 C 173.29 21.90 171.93 23.28 171.12 24.97 C 172.41 28.83 174.14 32.55 174.41 36.69 C 174.81 40.03 178.06 41.92 178.81 45.09 C 175.05 45.32 171.51 41.97 167.88 43.79 C 164.91 44.93 162.13 47.11 160.71 50.00 C 156.49 41.95 151.21 34.55 146.07 27.08 C 149.06 27.22 151.87 25.96 154.20 24.17 C 156.75 23.06 155.65 20.31 155.51 18.17 C 157.49 15.64 159.97 13.56 162.16 11.21 Z" />
</g>
<g id="#414a4cff">
<path fill="#414a4c" opacity="1.00" d=" M 92.14 14.96 C 94.08 15.77 92.95 18.93 96.00 18.29 C 94.28 19.51 92.44 20.59 90.82 21.96 C 92.65 24.04 94.56 26.11 95.18 28.91 C 101.10 31.01 95.24 20.05 100.83 21.07 C 102.39 23.13 102.88 25.74 104.16 27.96 C 105.80 28.01 107.89 28.46 108.91 26.78 C 109.78 24.25 104.99 23.30 107.08 20.95 C 110.32 23.33 113.19 26.36 115.08 29.93 C 116.06 32.19 120.42 31.04 120.04 34.09 C 116.45 34.21 113.98 31.21 110.83 29.99 C 111.82 33.24 117.01 33.98 116.04 38.06 C 113.70 37.43 111.56 36.13 109.11 35.90 C 109.53 38.31 111.04 41.59 107.23 41.42 C 105.63 45.64 107.67 52.15 102.12 53.58 C 104.89 54.12 104.32 57.71 101.49 57.33 C 101.61 61.06 100.80 65.56 97.24 67.47 C 97.92 69.85 100.40 68.14 102.09 68.12 C 102.23 69.73 101.28 70.97 100.07 71.89 C 104.16 71.07 102.21 74.62 101.96 77.05 C 104.30 77.34 104.08 74.64 105.05 73.22 C 106.62 73.65 108.13 74.26 109.73 74.58 C 111.01 73.69 111.97 72.19 113.64 72.03 C 113.58 74.67 115.69 75.46 117.93 75.83 C 120.32 72.29 122.68 77.34 125.85 77.02 C 126.28 74.70 127.42 72.68 129.56 71.53 C 129.13 69.24 129.02 67.39 132.02 67.73 C 131.13 66.36 130.03 65.16 129.02 63.88 C 129.68 60.82 132.21 63.43 134.03 63.87 C 136.17 63.28 137.58 60.61 140.08 61.60 C 146.72 59.98 153.81 59.57 160.69 60.17 C 165.19 70.04 168.03 80.61 170.88 91.05 C 171.33 94.71 171.71 98.38 172.14 102.05 C 172.47 101.75 173.12 101.16 173.45 100.87 C 173.52 101.40 173.64 102.46 173.71 103.00 C 172.66 103.39 171.40 111.47 174.53 108.98 C 174.72 110.23 174.82 111.49 174.84 112.76 C 173.60 119.50 173.60 126.49 174.84 133.24 C 174.86 134.58 174.92 136.00 174.14 137.17 C 171.99 138.60 171.67 142.70 173.95 144.08 C 173.34 146.72 172.70 149.34 172.06 151.98 C 170.76 154.48 169.27 157.50 170.74 160.27 C 166.63 177.56 159.44 194.10 150.22 209.27 C 148.34 206.65 153.81 203.81 150.09 203.31 C 146.34 205.15 143.63 202.13 140.84 200.05 C 140.35 203.23 144.29 203.11 144.73 206.06 C 145.78 208.07 140.69 205.78 141.44 208.28 C 141.40 210.76 138.47 208.81 137.03 209.03 C 137.17 210.32 137.44 211.59 137.61 212.87 C 135.75 215.74 128.40 211.65 130.92 216.56 C 129.34 216.26 127.91 216.56 126.96 217.96 C 125.66 216.42 124.27 214.97 122.20 214.59 C 122.25 210.45 128.71 211.29 131.73 211.83 C 133.50 209.83 135.10 207.69 137.08 205.89 C 136.20 203.91 132.56 203.79 133.09 201.19 C 134.11 199.80 135.78 200.81 137.15 200.80 C 135.72 198.34 132.01 198.34 131.58 195.21 C 129.77 194.44 129.70 196.58 129.19 197.75 C 130.07 198.46 134.41 198.91 132.03 200.16 C 129.10 202.20 126.85 198.20 124.26 197.20 C 123.07 199.61 120.64 200.59 118.13 201.10 C 118.37 197.74 116.87 194.23 118.11 190.94 C 120.18 191.61 119.42 193.49 119.15 195.10 C 121.75 195.03 124.08 192.11 121.89 189.23 C 120.37 186.65 118.22 189.70 116.30 189.97 C 115.36 187.46 115.66 183.53 112.05 183.63 C 112.24 181.10 113.94 178.63 116.74 179.24 C 119.00 178.09 121.12 178.33 123.13 179.87 C 126.40 180.40 127.32 176.59 125.89 174.23 C 124.17 174.72 122.50 175.33 120.80 175.85 C 121.01 173.15 124.40 172.52 125.83 170.79 C 129.13 169.66 129.59 165.80 132.08 163.97 C 133.78 164.07 133.32 166.71 134.07 167.91 C 136.87 166.11 139.70 164.46 142.98 163.86 C 143.56 160.44 140.71 158.22 138.09 156.73 C 140.38 154.19 143.10 151.97 144.57 148.75 C 143.43 144.63 140.68 141.20 136.24 140.62 C 136.30 139.05 136.21 137.35 137.12 135.99 C 140.99 136.93 145.10 139.87 146.41 143.75 C 147.62 143.96 148.83 144.06 150.06 144.06 C 148.98 142.11 145.59 140.25 148.02 138.03 C 151.56 134.41 152.01 129.16 151.69 124.33 C 146.20 123.22 140.94 120.48 135.51 120.47 C 134.67 119.61 133.87 118.70 133.00 117.87 C 133.24 119.88 133.76 121.85 134.00 123.86 C 131.82 123.33 129.61 123.17 127.44 123.86 C 128.11 122.89 126.26 119.56 126.15 121.88 C 126.81 124.80 122.11 124.79 121.30 122.69 C 121.36 120.17 121.29 117.70 121.30 115.19 C 123.10 114.61 124.98 114.36 126.87 114.50 C 127.47 112.02 127.24 109.39 128.04 106.97 C 129.81 109.39 132.69 109.61 135.21 110.83 C 135.02 109.48 134.59 108.15 133.28 107.53 C 134.71 105.48 136.24 103.27 138.76 102.55 C 139.97 99.83 136.16 99.63 135.14 97.86 C 134.34 96.54 131.78 94.48 135.00 94.91 C 136.98 95.25 135.83 92.26 134.36 92.58 C 131.53 92.19 128.95 94.37 126.27 95.12 C 126.50 94.02 126.71 92.93 126.90 91.83 C 125.71 92.12 124.00 94.93 123.78 92.41 C 120.12 95.81 117.08 90.16 113.24 90.44 C 111.03 90.53 106.95 87.40 107.98 91.57 C 109.67 90.99 110.13 92.18 110.39 93.64 C 112.71 94.44 117.09 93.34 113.83 98.69 C 111.75 99.71 108.81 99.86 108.61 102.74 C 106.39 103.82 107.24 100.59 106.55 99.39 C 103.79 96.85 103.91 92.69 99.93 91.40 C 103.68 91.16 99.87 89.52 98.89 88.14 C 100.80 87.20 103.77 87.10 103.04 84.20 C 99.77 84.74 96.75 84.04 94.18 82.18 C 95.10 85.66 89.40 86.99 88.49 83.69 C 88.37 81.03 86.95 78.67 86.81 76.02 C 87.84 76.53 88.50 78.33 89.83 77.87 C 91.72 75.72 92.13 72.77 92.78 70.07 C 90.53 68.61 86.16 68.94 89.00 63.94 C 88.01 61.03 90.83 61.99 91.49 63.82 C 94.03 62.91 92.19 60.11 92.22 58.18 C 93.07 56.79 94.60 57.85 95.83 57.89 C 95.28 55.57 95.56 52.85 93.80 51.05 C 90.92 50.33 89.30 53.60 88.69 55.88 C 87.76 54.68 86.92 53.41 85.86 52.31 C 83.63 52.75 81.46 53.47 79.23 53.94 C 80.89 50.06 77.27 47.03 74.01 47.01 C 70.96 47.53 68.09 49.52 64.93 48.35 C 65.19 49.91 65.65 51.43 65.94 52.98 C 64.64 53.04 63.34 53.03 62.03 52.95 C 62.40 50.79 61.97 48.15 63.64 46.46 C 62.00 42.74 58.95 48.01 58.53 50.04 C 57.19 48.87 57.06 47.06 56.53 45.47 C 55.33 44.56 52.03 44.53 53.31 42.36 C 54.71 41.70 57.12 38.70 57.31 41.85 C 59.82 39.69 62.74 37.94 62.78 34.21 C 62.07 34.08 60.66 33.83 59.96 33.71 C 60.39 31.50 62.74 30.34 63.14 28.10 C 61.76 28.00 60.38 27.95 59.00 27.94 C 61.78 26.09 65.28 25.70 68.01 27.96 C 72.03 28.30 68.41 30.58 67.93 32.09 C 69.16 33.25 70.57 34.23 72.03 35.09 C 74.30 34.01 75.47 31.63 76.60 29.52 C 77.93 27.90 82.75 26.64 78.94 24.97 C 80.69 20.25 86.16 18.51 90.72 19.78 C 91.10 18.15 91.08 16.35 92.14 14.96 Z" />
</g>
<g id="#d1c6a9ff">
<path fill="#d1c6a9" opacity="1.00" d=" M 145.79 18.62 C 147.66 17.22 149.02 14.32 151.79 15.05 C 153.28 17.88 155.59 20.84 154.20 24.17 C 151.87 25.96 149.06 27.22 146.07 27.08 C 144.06 24.41 141.98 21.79 139.82 19.24 C 141.47 16.94 143.61 17.58 145.79 18.62 Z" />
</g>
<g id="#e7ddc2fe">
<path fill="#e7ddc2" opacity="1.00" d=" M 174.42 20.41 C 177.18 19.10 180.51 21.68 183.37 20.31 C 185.93 20.07 188.17 22.47 190.35 23.62 C 196.41 28.20 203.39 32.11 208.20 38.04 C 204.75 38.91 207.49 41.69 208.45 43.60 C 211.29 47.29 209.18 52.65 208.67 56.70 C 205.78 60.79 203.32 65.18 200.47 69.30 C 200.29 72.50 202.72 74.67 205.59 75.53 C 208.49 76.94 212.24 82.27 208.43 84.51 C 205.00 87.64 200.66 83.85 196.87 83.04 C 194.65 82.55 192.34 83.08 191.43 85.35 C 191.67 90.28 186.24 94.36 188.82 99.27 C 185.56 98.65 183.87 96.11 182.90 93.16 C 181.65 93.66 180.45 94.28 179.21 94.79 C 178.47 89.87 175.10 85.56 176.53 80.37 C 174.39 79.34 173.50 71.43 170.59 74.05 C 169.91 71.63 169.13 69.23 168.17 66.91 C 174.91 61.94 176.56 52.74 178.81 45.09 C 178.06 41.92 174.81 40.03 174.41 36.69 C 174.14 32.55 172.41 28.83 171.12 24.97 C 171.93 23.28 173.29 21.90 174.42 20.41 Z" />
</g>
<g id="#40494aff">
<path fill="#40494a" opacity="1.00" d=" M 59.00 27.94 C 60.38 27.95 61.76 28.00 63.14 28.10 C 62.74 30.34 60.39 31.50 59.96 33.71 C 60.66 33.83 62.07 34.08 62.78 34.21 C 62.74 37.94 59.82 39.69 57.31 41.85 C 57.12 38.70 54.71 41.70 53.31 42.36 C 52.03 44.53 55.33 44.56 56.53 45.47 C 57.06 47.06 57.19 48.87 58.53 50.04 C 58.95 48.01 62.00 42.74 63.64 46.46 C 61.97 48.15 62.40 50.79 62.03 52.95 C 63.34 53.03 64.64 53.04 65.94 52.98 C 65.65 51.43 65.19 49.91 64.93 48.35 C 68.09 49.52 70.96 47.53 74.01 47.01 C 77.27 47.03 80.89 50.06 79.23 53.94 C 81.46 53.47 83.63 52.75 85.86 52.31 C 86.92 53.41 87.76 54.68 88.69 55.88 C 89.30 53.60 90.92 50.33 93.80 51.05 C 95.56 52.85 95.28 55.57 95.83 57.89 C 94.60 57.85 93.07 56.79 92.22 58.18 C 92.19 60.11 94.03 62.91 91.49 63.82 C 90.83 61.99 88.01 61.03 89.00 63.94 C 86.16 68.94 90.53 68.61 92.78 70.07 C 92.13 72.77 91.72 75.72 89.83 77.87 C 88.50 78.33 87.84 76.53 86.81 76.02 C 86.95 78.67 88.37 81.03 88.49 83.69 C 89.40 86.99 95.10 85.66 94.18 82.18 C 96.75 84.04 99.77 84.74 103.04 84.20 C 103.77 87.10 100.80 87.20 98.89 88.14 C 99.87 89.52 103.68 91.16 99.93 91.40 C 103.91 92.69 103.79 96.85 106.55 99.39 C 107.24 100.59 106.39 103.82 108.61 102.74 C 108.81 99.86 111.75 99.71 113.83 98.69 C 117.09 93.34 112.71 94.44 110.39 93.64 C 110.13 92.18 109.67 90.99 107.98 91.57 C 106.95 87.40 111.03 90.53 113.24 90.44 C 117.08 90.16 120.12 95.81 123.78 92.41 C 124.00 94.93 125.71 92.12 126.90 91.83 C 126.71 92.93 126.50 94.02 126.27 95.12 C 128.95 94.37 131.53 92.19 134.36 92.58 C 135.83 92.26 136.98 95.25 135.00 94.91 C 131.78 94.48 134.34 96.54 135.14 97.86 C 136.16 99.63 139.97 99.83 138.76 102.55 C 136.24 103.27 134.71 105.48 133.28 107.53 C 134.59 108.15 135.02 109.48 135.21 110.83 C 132.69 109.61 129.81 109.39 128.04 106.97 C 127.24 109.39 127.47 112.02 126.87 114.50 C 124.98 114.36 123.10 114.61 121.30 115.19 C 121.29 117.70 121.36 120.17 121.30 122.69 C 122.11 124.79 126.81 124.80 126.15 121.88 C 126.26 119.56 128.11 122.89 127.44 123.86 C 129.61 123.17 131.82 123.33 134.00 123.86 C 133.76 121.85 133.24 119.88 133.00 117.87 C 133.87 118.70 134.67 119.61 135.51 120.47 C 140.94 120.48 146.20 123.22 151.69 124.33 C 152.01 129.16 151.56 134.41 148.02 138.03 C 145.59 140.25 148.98 142.11 150.06 144.06 C 148.83 144.06 147.62 143.96 146.41 143.75 C 145.10 139.87 140.99 136.93 137.12 135.99 C 136.21 137.35 136.30 139.05 136.24 140.62 C 140.68 141.20 143.43 144.63 144.57 148.75 C 143.10 151.97 140.38 154.19 138.09 156.73 C 140.71 158.22 143.56 160.44 142.98 163.86 C 139.70 164.46 136.87 166.11 134.07 167.91 C 133.32 166.71 133.78 164.07 132.08 163.97 C 129.59 165.80 129.13 169.66 125.83 170.79 C 124.40 172.52 121.01 173.15 120.80 175.85 C 122.50 175.33 124.17 174.72 125.89 174.23 C 127.32 176.59 126.40 180.40 123.13 179.87 C 121.12 178.33 119.00 178.09 116.74 179.24 C 113.94 178.63 112.24 181.10 112.05 183.63 C 115.66 183.53 115.36 187.46 116.30 189.97 C 118.22 189.70 120.37 186.65 121.89 189.23 C 124.08 192.11 121.75 195.03 119.15 195.10 C 119.42 193.49 120.18 191.61 118.11 190.94 C 116.87 194.23 118.37 197.74 118.13 201.10 C 120.64 200.59 123.07 199.61 124.26 197.20 C 126.85 198.20 129.10 202.20 132.03 200.16 C 134.41 198.91 130.07 198.46 129.19 197.75 C 129.70 196.58 129.77 194.44 131.58 195.21 C 132.01 198.34 135.72 198.34 137.15 200.80 C 135.78 200.81 134.11 199.80 133.09 201.19 C 132.56 203.79 136.20 203.91 137.08 205.89 C 135.10 207.69 133.50 209.83 131.73 211.83 C 128.71 211.29 122.25 210.45 122.20 214.59 C 124.27 214.97 125.66 216.42 126.96 217.96 C 127.91 216.56 129.34 216.26 130.92 216.56 C 128.40 211.65 135.75 215.74 137.61 212.87 C 137.44 211.59 137.17 210.32 137.03 209.03 C 138.47 208.81 141.40 210.76 141.44 208.28 C 140.69 205.78 145.78 208.07 144.73 206.06 C 144.29 203.11 140.35 203.23 140.84 200.05 C 143.63 202.13 146.34 205.15 150.09 203.31 C 153.81 203.81 148.34 206.65 150.22 209.27 C 145.28 218.36 138.41 226.37 133.02 235.01 C 128.67 238.69 124.59 242.68 120.80 246.93 C 106.55 246.11 91.79 243.52 79.00 237.03 C 74.77 234.88 70.68 230.71 65.83 230.45 C 60.08 227.44 53.36 223.46 49.31 218.26 C 46.53 212.28 40.30 208.34 35.85 203.49 C 35.57 203.51 34.99 203.56 34.70 203.59 C 33.65 203.66 33.21 203.24 33.37 202.34 C 34.94 199.00 30.12 196.91 29.01 194.25 C 28.67 194.35 28.00 194.56 27.67 194.66 C 26.37 194.96 25.52 192.45 25.46 191.31 C 25.74 190.17 25.76 188.97 24.98 188.02 C 16.95 174.57 10.56 159.80 8.74 144.11 C 7.47 137.73 8.73 131.12 7.43 124.76 C 7.41 124.36 7.37 123.58 7.35 123.18 C 7.59 114.38 8.81 105.68 10.68 97.09 C 13.10 85.51 18.05 74.75 23.20 64.19 C 24.79 61.97 26.35 59.67 27.17 57.03 C 30.54 51.16 35.27 44.91 40.69 41.41 C 42.38 42.18 44.25 41.98 45.50 40.53 C 49.06 35.46 53.90 31.39 59.00 27.94 M 74.18 51.10 C 72.03 55.45 67.41 58.83 62.37 58.46 C 59.74 59.37 58.48 61.28 58.81 64.10 C 57.30 63.25 55.95 59.89 54.19 62.15 C 52.94 63.71 49.19 64.63 50.84 67.03 C 51.15 68.87 53.62 65.94 54.34 67.66 C 56.40 69.62 53.23 70.77 51.91 71.80 C 55.24 73.83 57.98 71.09 59.29 68.17 C 61.77 69.27 64.06 71.00 62.28 73.87 C 64.63 75.69 67.16 74.20 69.72 74.07 C 70.74 78.63 75.94 73.90 78.82 73.72 C 79.28 70.84 79.02 67.83 80.16 65.09 C 82.76 59.94 75.93 56.22 75.72 51.12 C 75.33 51.11 74.57 51.10 74.18 51.10 M 53.22 160.47 C 52.46 160.97 49.70 160.41 50.41 161.75 C 51.74 163.52 49.17 162.85 48.13 163.15 C 48.23 167.33 49.29 171.47 47.74 175.57 C 45.31 175.47 46.94 179.76 44.68 178.42 C 41.50 176.51 42.79 181.66 42.23 183.84 C 45.75 183.34 46.63 187.55 44.83 189.90 C 43.26 189.83 43.32 187.48 41.96 186.89 C 42.08 188.17 42.37 189.44 42.50 190.73 C 40.90 192.90 40.72 197.46 37.11 195.30 C 34.71 197.00 36.64 198.67 39.02 198.16 C 38.86 200.06 37.88 202.03 39.26 203.72 C 41.50 205.11 44.15 205.30 46.78 205.22 C 49.42 207.76 48.37 212.22 51.18 214.79 C 54.29 217.39 57.71 219.55 61.26 221.50 C 62.87 221.07 64.69 220.89 64.87 223.07 C 65.95 229.00 73.19 227.39 77.73 227.31 C 81.37 227.88 80.62 232.07 83.20 233.85 C 88.62 233.64 92.48 229.30 94.99 225.00 C 94.59 221.76 90.92 223.56 88.94 224.01 C 89.32 220.63 93.23 219.77 95.94 218.80 C 94.69 216.81 93.12 215.03 91.98 212.98 C 92.03 211.32 93.69 211.12 94.90 211.71 C 96.59 210.69 95.11 207.19 97.87 208.01 C 97.94 208.79 98.08 210.33 98.15 211.11 C 100.35 207.31 104.65 205.68 107.71 202.73 C 109.55 199.67 110.40 194.45 114.96 194.78 C 114.20 186.27 105.17 182.32 99.02 178.23 C 96.60 180.56 93.30 175.77 96.96 175.75 C 97.05 173.88 94.60 172.90 95.76 170.93 C 97.31 168.13 93.18 168.49 93.73 171.07 C 92.78 169.78 91.87 168.46 90.99 167.13 C 92.40 166.91 94.84 167.50 93.90 165.23 C 91.49 165.24 89.98 163.48 88.31 162.04 C 87.82 164.81 84.17 164.66 81.96 165.04 C 81.95 163.68 82.36 162.40 82.79 161.13 C 81.15 160.94 79.51 160.68 77.94 160.18 C 78.40 162.12 79.97 164.51 78.21 166.23 C 75.78 168.33 80.27 173.46 75.75 173.51 C 73.13 173.03 68.13 174.84 67.90 171.13 C 70.06 172.75 71.93 170.74 73.79 169.68 C 73.29 167.80 73.33 165.96 73.96 164.11 C 71.40 163.82 68.57 164.37 66.67 162.37 C 65.23 162.39 63.81 162.74 62.75 161.47 C 59.50 162.31 55.86 162.08 53.22 160.47 Z" />
</g>
<g id="#e0d6bbfd">
<path fill="#e0d6bb" opacity="1.00" d=" M 208.20 38.04 C 216.71 44.97 222.84 54.91 228.93 64.04 C 231.65 69.75 235.54 75.55 236.59 81.73 C 235.29 84.35 238.88 88.56 235.33 89.84 C 232.07 87.64 233.90 84.32 233.95 81.19 C 231.67 79.75 229.19 78.69 226.91 77.28 C 222.66 77.65 219.37 80.41 216.93 83.73 C 218.34 84.08 220.80 83.64 219.92 85.88 C 218.12 87.07 215.82 87.00 213.99 88.12 C 214.63 91.04 215.94 93.76 216.63 96.67 C 214.90 98.06 212.21 98.69 211.69 101.12 C 209.06 97.76 208.34 92.76 204.33 90.66 C 201.12 88.95 199.35 85.57 196.87 83.04 C 200.66 83.85 205.00 87.64 208.43 84.51 C 212.24 82.27 208.49 76.94 205.59 75.53 C 202.72 74.67 200.29 72.50 200.47 69.30 C 203.32 65.18 205.78 60.79 208.67 56.70 C 209.18 52.65 211.29 47.29 208.45 43.60 C 207.49 41.69 204.75 38.91 208.20 38.04 M 206.20 63.11 C 203.88 65.26 204.67 68.91 204.12 71.84 C 206.50 73.83 209.62 74.65 212.76 74.16 C 213.04 76.12 213.33 78.09 214.17 79.90 C 216.82 80.44 221.11 79.27 221.03 76.01 C 220.55 73.37 224.38 72.76 223.92 70.20 C 220.65 67.67 217.36 70.09 214.16 70.95 C 212.60 67.48 211.24 62.11 206.20 63.11 Z" />
</g>
<g id="#cdc2a7ff">
<path fill="#cdc2a7" opacity="1.00" d=" M 167.88 43.79 C 171.51 41.97 175.05 45.32 178.81 45.09 C 176.56 52.74 174.91 61.94 168.17 66.91 C 165.69 61.27 163.93 55.28 160.71 50.00 C 162.13 47.11 164.91 44.93 167.88 43.79 Z" />
</g>
<g id="#3d4547ff">
<path fill="#3d4547" opacity="1.00" d=" M 74.18 51.10 C 74.57 51.10 75.33 51.11 75.72 51.12 C 75.93 56.22 82.76 59.94 80.16 65.09 C 79.02 67.83 79.28 70.84 78.82 73.72 C 75.94 73.90 70.74 78.63 69.72 74.07 C 67.16 74.20 64.63 75.69 62.28 73.87 C 64.06 71.00 61.77 69.27 59.29 68.17 C 57.98 71.09 55.24 73.83 51.91 71.80 C 53.23 70.77 56.40 69.62 54.34 67.66 C 53.62 65.94 51.15 68.87 50.84 67.03 C 49.19 64.63 52.94 63.71 54.19 62.15 C 55.95 59.89 57.30 63.25 58.81 64.10 C 58.48 61.28 59.74 59.37 62.37 58.46 C 67.41 58.83 72.03 55.45 74.18 51.10 Z" />
</g>
<g id="#111514c0">
<path fill="#111514" opacity="0.75" d=" M 22.25 64.21 C 23.02 61.58 24.69 58.24 27.17 57.03 C 26.35 59.67 24.79 61.97 23.20 64.19 L 22.25 64.21 Z" />
</g>
<g id="#dacfb4ff">
<path fill="#dacfb4" opacity="1.00" d=" M 206.20 63.11 C 211.24 62.11 212.60 67.48 214.16 70.95 C 217.36 70.09 220.65 67.67 223.92 70.20 C 224.38 72.76 220.55 73.37 221.03 76.01 C 221.11 79.27 216.82 80.44 214.17 79.90 C 213.33 78.09 213.04 76.12 212.76 74.16 C 209.62 74.65 206.50 73.83 204.12 71.84 C 204.67 68.91 203.88 65.26 206.20 63.11 Z" />
</g>
<g id="#1a1e1de6">
<path fill="#1a1e1d" opacity="0.90" d=" M 22.25 64.21 L 23.20 64.19 C 18.05 74.75 13.10 85.51 10.68 97.09 C 10.23 96.34 9.78 95.60 9.34 94.85 C 12.22 84.17 15.94 73.39 22.25 64.21 Z" />
</g>
<g id="#e3d8bdff">
<path fill="#e3d8bd" opacity="1.00" d=" M 170.59 74.05 C 173.50 71.43 174.39 79.34 176.53 80.37 C 175.10 85.56 178.47 89.87 179.21 94.79 C 180.45 94.28 181.65 93.66 182.90 93.16 C 183.87 96.11 185.56 98.65 188.82 99.27 C 190.07 101.99 188.20 105.22 190.32 107.69 C 192.96 111.01 193.68 115.25 195.88 118.77 C 194.58 120.14 193.69 121.94 192.12 123.03 C 188.43 120.17 185.02 116.26 180.39 115.07 C 179.94 116.39 179.78 117.98 178.12 118.26 C 177.08 103.34 175.39 88.29 170.59 74.05 Z" />
</g>
<g id="#e6dbc1fe">
<path fill="#e6dbc1" opacity="1.00" d=" M 216.93 83.73 C 219.37 80.41 222.66 77.65 226.91 77.28 C 229.19 78.69 231.67 79.75 233.95 81.19 C 233.90 84.32 232.07 87.64 235.33 89.84 C 238.88 88.56 235.29 84.35 236.59 81.73 C 238.25 83.87 239.10 86.47 239.90 89.02 C 245.93 110.47 248.38 133.39 243.46 155.31 C 233.05 197.78 197.88 233.88 154.94 243.12 C 150.85 243.06 153.99 238.14 155.30 236.28 C 157.34 234.42 155.68 230.11 158.77 229.55 C 160.05 229.23 161.82 228.64 161.87 227.08 C 159.06 223.52 162.28 218.50 158.73 215.22 C 154.48 216.38 151.85 221.11 146.99 220.08 C 166.99 190.28 180.18 154.53 178.12 118.26 C 179.78 117.98 179.94 116.39 180.39 115.07 C 185.02 116.26 188.43 120.17 192.12 123.03 C 193.69 121.94 194.58 120.14 195.88 118.77 C 199.82 120.01 202.45 124.69 206.84 123.97 C 208.54 120.78 209.37 117.19 210.65 113.82 C 210.74 109.66 213.91 105.15 211.69 101.12 C 212.21 98.69 214.90 98.06 216.63 96.67 C 215.94 93.76 214.63 91.04 213.99 88.12 C 215.82 87.00 218.12 87.07 219.92 85.88 C 220.80 83.64 218.34 84.08 216.93 83.73 M 225.18 133.07 C 222.46 136.23 222.39 141.44 218.21 143.20 C 218.48 145.40 217.87 147.78 219.26 149.70 C 222.10 151.10 225.51 151.45 227.78 148.81 C 227.02 144.31 231.91 143.33 234.19 140.39 C 237.22 141.63 242.81 140.12 239.87 135.21 C 237.47 131.63 235.84 137.53 233.19 136.92 C 231.50 133.94 229.83 130.67 225.18 133.07 M 175.22 196.11 C 171.74 199.68 176.30 205.21 179.69 207.33 C 181.68 210.05 188.92 210.25 185.03 203.99 C 187.65 197.78 179.32 195.81 175.22 196.11 Z" />
</g>
<g id="#c5baa0ff">
<path fill="#c5baa0" opacity="1.00" d=" M 191.43 85.35 C 192.34 83.08 194.65 82.55 196.87 83.04 C 199.35 85.57 201.12 88.95 204.33 90.66 C 208.34 92.76 209.06 97.76 211.69 101.12 C 213.91 105.15 210.74 109.66 210.65 113.82 C 209.37 117.19 208.54 120.78 206.84 123.97 C 202.45 124.69 199.82 120.01 195.88 118.77 C 193.68 115.25 192.96 111.01 190.32 107.69 C 188.20 105.22 190.07 101.99 188.82 99.27 C 186.24 94.36 191.67 90.28 191.43 85.35 Z" />
</g>
<g id="#565f5ffe">
<path fill="#565f5f" opacity="1.00" d=" M 170.88 91.05 L 171.91 91.06 C 172.64 94.30 173.09 97.57 173.45 100.87 C 173.12 101.16 172.47 101.75 172.14 102.05 C 171.71 98.38 171.33 94.71 170.88 91.05 Z" />
</g>
<g id="#252a29f1">
<path fill="#252a29" opacity="0.95" d=" M 9.34 94.85 C 9.78 95.60 10.23 96.34 10.68 97.09 C 8.81 105.68 7.59 114.38 7.35 123.18 C 7.08 122.56 6.52 121.32 6.25 120.71 C 5.22 112.00 7.73 103.36 9.34 94.85 Z" />
</g>
<g id="#5a6364fe">
<path fill="#5a6364" opacity="1.00" d=" M 174.53 108.98 C 171.40 111.47 172.66 103.39 173.71 103.00 C 174.05 104.98 174.31 106.98 174.53 108.98 Z" />
</g>
<g id="#757771fe">
<path fill="#757771" opacity="1.00" d=" M 176.34 111.73 C 178.05 119.39 176.93 127.49 176.24 135.22 C 175.91 127.39 175.89 119.55 176.34 111.73 Z" />
</g>
<g id="#5c6668ff">
<path fill="#5c6668" opacity="1.00" d=" M 174.84 133.24 C 173.60 126.49 173.60 119.50 174.84 112.76 C 175.18 119.58 174.93 126.41 174.84 133.24 Z" />
</g>
<g id="#121512ff">
<path fill="#121512" opacity="1.00" d=" M 6.25 120.71 C 6.52 121.32 7.08 122.56 7.35 123.18 C 7.37 123.58 7.41 124.36 7.43 124.76 C 7.17 128.27 7.32 131.88 6.35 135.30 C 6.27 134.74 6.11 133.60 6.03 133.03 C 5.99 129.30 5.93 125.57 6.12 121.84 L 6.25 120.71 Z" />
</g>
<g id="#16171728">
<path fill="#161717" opacity="0.16" d=" M 5.05 122.02 L 6.12 121.84 C 5.93 125.57 5.99 129.30 6.03 133.03 L 5.01 132.99 C 5.02 130.25 5.04 124.76 5.05 122.02 Z" />
</g>
<g id="#262b2aef">
<path fill="#262b2a" opacity="0.94" d=" M 7.43 124.76 C 8.73 131.12 7.47 137.73 8.74 144.11 C 10.56 159.80 16.95 174.57 24.98 188.02 C 25.76 188.97 25.74 190.17 25.46 191.31 C 19.47 185.32 16.71 176.53 13.14 168.91 C 9.47 158.10 6.44 146.75 6.35 135.30 C 7.32 131.88 7.17 128.27 7.43 124.76 Z" />
</g>
<g id="#e0d6bbff">
<path fill="#e0d6bb" opacity="1.00" d=" M 225.18 133.07 C 229.83 130.67 231.50 133.94 233.19 136.92 C 235.84 137.53 237.47 131.63 239.87 135.21 C 242.81 140.12 237.22 141.63 234.19 140.39 C 231.91 143.33 227.02 144.31 227.78 148.81 C 225.51 151.45 222.10 151.10 219.26 149.70 C 217.87 147.78 218.48 145.40 218.21 143.20 C 222.39 141.44 222.46 136.23 225.18 133.07 Z" />
</g>
<g id="#555f5ffe">
<path fill="#555f5f" opacity="1.00" d=" M 173.95 144.08 C 171.67 142.70 171.99 138.60 174.14 137.17 C 174.10 138.90 174.00 142.35 173.95 144.08 Z" />
</g>
<g id="#505c5cff">
<path fill="#505c5c" opacity="1.00" d=" M 170.74 160.27 C 169.27 157.50 170.76 154.48 172.06 151.98 C 172.01 154.80 171.41 157.54 170.74 160.27 Z" />
</g>
<g id="#3e4748ff">
<path fill="#3e4748" opacity="1.00" d=" M 53.22 160.47 C 55.86 162.08 59.50 162.31 62.75 161.47 C 63.81 162.74 65.23 162.39 66.67 162.37 C 68.57 164.37 71.40 163.82 73.96 164.11 C 73.33 165.96 73.29 167.80 73.79 169.68 C 71.93 170.74 70.06 172.75 67.90 171.13 C 68.13 174.84 73.13 173.03 75.75 173.51 C 80.27 173.46 75.78 168.33 78.21 166.23 C 79.97 164.51 78.40 162.12 77.94 160.18 C 79.51 160.68 81.15 160.94 82.79 161.13 C 82.36 162.40 81.95 163.68 81.96 165.04 C 84.17 164.66 87.82 164.81 88.31 162.04 C 89.98 163.48 91.49 165.24 93.90 165.23 C 94.84 167.50 92.40 166.91 90.99 167.13 C 91.87 168.46 92.78 169.78 93.73 171.07 C 93.18 168.49 97.31 168.13 95.76 170.93 C 94.60 172.90 97.05 173.88 96.96 175.75 C 93.30 175.77 96.60 180.56 99.02 178.23 C 105.17 182.32 114.20 186.27 114.96 194.78 C 110.40 194.45 109.55 199.67 107.71 202.73 C 104.65 205.68 100.35 207.31 98.15 211.11 C 98.08 210.33 97.94 208.79 97.87 208.01 C 95.11 207.19 96.59 210.69 94.90 211.71 C 93.69 211.12 92.03 211.32 91.98 212.98 C 93.12 215.03 94.69 216.81 95.94 218.80 C 93.23 219.77 89.32 220.63 88.94 224.01 C 90.92 223.56 94.59 221.76 94.99 225.00 C 92.48 229.30 88.62 233.64 83.20 233.85 C 80.62 232.07 81.37 227.88 77.73 227.31 C 73.19 227.39 65.95 229.00 64.87 223.07 C 64.69 220.89 62.87 221.07 61.26 221.50 C 57.71 219.55 54.29 217.39 51.18 214.79 C 48.37 212.22 49.42 207.76 46.78 205.22 C 44.15 205.30 41.50 205.11 39.26 203.72 C 37.88 202.03 38.86 200.06 39.02 198.16 C 36.64 198.67 34.71 197.00 37.11 195.30 C 40.72 197.46 40.90 192.90 42.50 190.73 C 42.37 189.44 42.08 188.17 41.96 186.89 C 43.32 187.48 43.26 189.83 44.83 189.90 C 46.63 187.55 45.75 183.34 42.23 183.84 C 42.79 181.66 41.50 176.51 44.68 178.42 C 46.94 179.76 45.31 175.47 47.74 175.57 C 49.29 171.47 48.23 167.33 48.13 163.15 C 49.17 162.85 51.74 163.52 50.41 161.75 C 49.70 160.41 52.46 160.97 53.22 160.47 M 101.18 184.07 C 98.97 187.79 95.34 193.32 98.46 197.26 C 98.11 203.20 108.47 199.62 109.39 195.34 C 113.78 190.42 106.77 182.19 101.18 184.07 Z" />
</g>
<g id="#3a4143ff">
<path fill="#3a4143" opacity="1.00" d=" M 101.18 184.07 C 106.77 182.19 113.78 190.42 109.39 195.34 C 108.47 199.62 98.11 203.20 98.46 197.26 C 95.34 193.32 98.97 187.79 101.18 184.07 Z" />
</g>
<g id="#252929ee">
<path fill="#252929" opacity="0.93" d=" M 27.67 194.66 C 28.00 194.56 28.67 194.35 29.01 194.25 C 30.12 196.91 34.94 199.00 33.37 202.34 C 30.96 200.48 28.65 197.62 27.67 194.66 Z" />
</g>
<g id="#ded3b8ff">
<path fill="#ded3b8" opacity="1.00" d=" M 175.22 196.11 C 179.32 195.81 187.65 197.78 185.03 203.99 C 188.92 210.25 181.68 210.05 179.69 207.33 C 176.30 205.21 171.74 199.68 175.22 196.11 Z" />
</g>
<g id="#272a2aec">
<path fill="#272a2a" opacity="0.93" d=" M 34.70 203.59 C 34.99 203.56 35.57 203.51 35.85 203.49 C 40.30 208.34 46.53 212.28 49.31 218.26 C 43.24 214.86 38.36 209.47 34.70 203.59 Z" />
</g>
<g id="#e0d5bafd">
<path fill="#e0d5ba" opacity="1.00" d=" M 146.99 220.08 C 151.85 221.11 154.48 216.38 158.73 215.22 C 162.28 218.50 159.06 223.52 161.87 227.08 C 161.82 228.64 160.05 229.23 158.77 229.55 C 155.68 230.11 157.34 234.42 155.30 236.28 C 155.34 234.16 156.78 231.53 155.32 229.70 C 153.75 227.21 150.69 227.87 148.08 227.99 C 146.21 230.93 144.62 234.18 145.35 237.72 C 143.18 240.24 142.82 244.10 139.83 245.87 C 134.27 247.26 128.44 247.26 122.75 246.82 C 123.68 245.91 124.61 245.00 125.60 244.15 C 126.16 244.04 127.29 243.81 127.85 243.69 C 135.21 236.68 141.10 228.31 146.99 220.08 Z" />
</g>
<g id="#cfc4a9fb">
<path fill="#cfc4a9" opacity="1.00" d=" M 148.08 227.99 C 150.69 227.87 153.75 227.21 155.32 229.70 C 156.78 231.53 155.34 234.16 155.30 236.28 C 153.99 238.14 150.85 243.06 154.94 243.12 L 154.93 243.89 C 149.83 244.13 144.95 246.30 139.83 245.87 C 142.82 244.10 143.18 240.24 145.35 237.72 C 144.62 234.18 146.21 230.93 148.08 227.99 Z" />
</g>
<g id="#171c1bd2">
<path fill="#171c1b" opacity="0.82" d=" M 65.83 230.45 C 70.68 230.71 74.77 234.88 79.00 237.03 C 74.02 236.55 69.77 233.33 65.83 230.45 Z" />
</g>
<g id="#090909fc">
<path fill="#090909" opacity="1.00" d=" M 120.80 246.93 C 124.59 242.68 128.67 238.69 133.02 235.01 C 131.94 238.94 127.96 241.06 125.60 244.15 C 124.61 245.00 123.68 245.91 122.75 246.82 C 122.26 246.85 121.29 246.90 120.80 246.93 Z" />
</g>
</svg>
