<?xml version="1.0" encoding="UTF-8" ?>
<!DOCTYPE svg PUBLIC "-//W3C//DTD SVG 1.1//EN" "http://www.w3.org/Graphics/SVG/1.1/DTD/svg11.dtd">
<svg width="253pt" height="253pt" viewBox="0 0 253 253" version="1.1" xmlns="http://www.w3.org/2000/svg">
<g id="#4c5657fe">
<path fill="#4c5657" opacity="1.00" d=" M 24.64 62.30 C 45.38 25.99 87.69 4.06 129.19 5.14 C 125.33 9.55 120.33 13.52 118.00 19.00 C 115.07 20.76 113.55 24.04 112.09 26.99 C 110.02 28.30 107.40 30.54 108.68 33.26 C 107.95 34.52 107.16 35.74 106.36 36.95 C 106.04 36.75 105.40 36.34 105.08 36.14 C 98.72 46.35 93.63 57.33 89.53 68.63 C 85.10 78.57 83.90 89.50 81.36 99.99 C 78.48 97.43 79.29 104.60 80.78 106.02 C 80.70 107.07 80.59 108.11 80.45 109.16 C 80.11 108.83 79.42 108.18 79.07 107.86 C 79.76 118.86 77.44 130.40 79.83 141.16 C 81.19 146.29 81.41 151.70 82.54 156.90 C 82.50 159.95 82.70 163.02 83.11 166.05 C 83.45 165.75 84.14 165.14 84.48 164.84 C 86.51 176.01 90.82 186.52 95.09 196.97 C 98.07 204.33 103.21 210.58 106.16 217.94 C 103.73 216.14 101.96 212.20 98.32 213.39 C 94.12 213.41 87.71 214.83 86.41 209.65 C 85.83 208.06 84.90 206.66 83.76 205.42 C 79.95 207.21 75.87 205.77 72.40 203.93 C 73.07 201.96 72.62 200.21 71.07 198.82 C 71.28 194.87 75.30 192.30 75.53 188.37 C 79.70 185.24 78.14 179.11 78.60 174.68 C 79.01 171.32 75.73 169.41 73.51 167.55 C 73.84 164.77 71.74 162.85 73.61 160.22 C 66.82 155.34 72.14 145.19 65.91 139.98 C 64.56 140.92 63.38 142.11 62.04 143.07 C 60.87 141.84 59.96 139.97 57.95 140.48 C 56.88 137.30 60.38 135.80 60.06 132.94 C 55.78 132.12 57.24 139.26 53.18 137.92 C 51.55 136.18 52.89 133.55 53.28 131.52 C 54.86 128.05 53.18 124.73 52.88 121.31 C 55.71 122.65 58.55 121.41 59.24 118.28 C 58.11 118.48 56.99 118.68 55.86 118.87 C 58.15 117.12 60.19 115.20 61.97 113.11 C 60.45 111.03 57.91 108.90 58.18 106.13 C 61.96 100.68 56.92 94.65 53.80 90.19 C 50.93 86.65 45.16 94.63 43.15 89.79 C 41.82 87.83 39.57 90.16 38.07 90.80 C 35.96 88.36 34.31 85.56 32.33 83.01 C 32.17 83.50 31.86 84.48 31.70 84.97 C 29.10 83.53 28.26 80.65 27.20 78.09 C 29.13 78.04 31.67 78.45 30.34 75.78 C 33.92 76.22 31.90 79.74 31.96 82.06 C 35.41 82.15 34.72 77.45 36.22 75.23 C 36.95 72.76 40.67 71.97 40.05 69.12 C 39.08 68.00 37.74 67.25 36.89 66.03 C 37.78 64.76 38.86 63.64 39.74 62.36 C 36.01 58.18 29.55 58.47 25.76 62.44 C 25.48 62.41 24.92 62.34 24.64 62.30 M 79.28 36.14 C 77.98 39.13 74.48 44.33 78.29 46.68 C 81.43 47.14 85.67 50.48 87.81 46.77 C 88.55 41.81 85.00 35.25 79.28 36.14 Z" />
</g>
<g id="#0c0c0cfd">
<path fill="#0c0c0c" opacity="1.00" d=" M 129.19 5.14 C 129.64 5.06 130.55 4.92 131.01 4.85 L 131.22 5.60 C 126.07 9.34 123.00 15.14 118.00 19.00 C 120.33 13.52 125.33 9.55 129.19 5.14 Z" />
</g>
<g id="#e4dac0fc">
<path fill="#e4dac0" opacity="1.00" d=" M 131.01 4.85 C 154.08 5.81 176.72 13.41 195.85 26.31 L 195.92 27.26 C 192.38 28.62 189.51 24.99 186.74 23.38 C 183.17 22.17 180.23 19.72 176.91 18.04 C 173.78 17.75 172.39 21.68 170.21 23.31 C 169.32 26.57 170.68 29.61 170.91 32.78 C 169.33 35.02 166.18 33.95 164.29 32.71 C 162.48 29.80 163.36 26.21 162.84 22.96 C 157.78 22.08 156.95 31.05 151.07 27.59 C 148.61 26.89 147.37 29.53 145.61 30.70 C 136.53 31.46 127.40 30.85 118.32 30.73 C 116.27 31.93 113.94 32.11 111.63 31.76 C 117.06 22.60 124.31 14.60 131.58 6.86 C 131.49 6.55 131.31 5.92 131.22 5.60 L 131.01 4.85 Z" />
</g>
<g id="#f2f0e7ff">
<path fill="#f2f0e7" opacity="1.00" d=" M 118.00 19.00 C 123.00 15.14 126.07 9.34 131.22 5.60 C 131.31 5.92 131.49 6.55 131.58 6.86 C 124.31 14.60 117.06 22.60 111.63 31.76 C 104.20 42.63 97.55 54.27 93.43 66.85 C 87.79 80.50 84.82 95.19 83.84 109.90 C 83.26 111.10 83.00 112.42 83.09 113.76 C 81.53 141.12 85.93 168.88 97.13 193.94 C 97.89 196.67 100.95 199.36 99.24 202.29 C 89.09 181.40 82.76 158.52 81.71 135.26 C 82.09 127.77 82.06 120.27 81.72 112.78 C 83.24 85.99 92.26 59.71 106.36 36.95 C 107.16 35.74 107.95 34.52 108.68 33.26 C 109.92 31.23 111.21 29.21 112.09 26.99 C 114.07 24.41 117.25 22.34 118.00 19.00 Z" />
</g>
<g id="#eae0c5ff">
<path fill="#eae0c5" opacity="1.00" d=" M 170.21 23.31 C 172.39 21.68 173.78 17.75 176.91 18.04 C 180.23 19.72 183.17 22.17 186.74 23.38 C 189.51 24.99 192.38 28.62 195.92 27.26 C 196.19 27.45 196.74 27.82 197.02 28.00 C 198.03 30.21 197.77 33.44 200.33 34.56 C 202.12 35.10 203.99 35.43 205.69 36.27 C 206.84 38.40 206.90 41.75 209.88 42.17 C 212.70 42.77 214.86 44.79 215.45 47.64 C 215.67 49.88 219.23 52.25 219.74 48.93 C 236.78 69.58 246.58 96.32 246.96 123.08 C 244.03 119.17 239.92 122.86 236.27 123.39 C 234.56 128.34 233.79 133.99 229.82 137.84 C 227.86 137.61 225.94 137.14 224.01 136.77 C 224.07 133.79 225.97 131.19 225.97 128.21 C 222.78 126.61 217.73 122.56 215.31 127.31 C 213.05 132.83 215.90 139.53 218.26 144.76 C 221.02 146.64 222.82 151.56 226.77 150.91 C 229.11 149.12 229.90 143.78 233.76 145.11 C 236.12 151.09 238.33 157.20 239.43 163.56 C 239.84 163.91 240.66 164.61 241.07 164.96 C 240.93 169.21 238.20 172.85 236.75 176.73 C 234.26 181.79 232.02 187.56 228.22 191.59 C 226.49 191.95 224.94 193.05 223.13 193.05 C 221.00 189.93 217.19 189.44 213.99 187.92 C 216.58 191.98 219.55 195.70 223.23 198.83 C 212.83 214.23 197.37 225.77 181.04 234.27 C 180.63 234.12 179.81 233.81 179.39 233.66 C 178.72 229.21 176.31 225.42 174.51 221.39 C 171.59 217.98 168.41 222.51 167.00 225.09 C 167.01 226.79 167.04 230.19 167.06 231.89 C 169.57 233.27 172.67 232.28 175.29 233.33 C 173.82 234.28 172.16 234.73 170.42 234.68 C 169.52 236.32 168.33 237.79 167.00 239.12 C 167.17 237.69 167.46 236.29 167.71 234.88 C 164.04 234.22 163.66 238.80 161.78 240.91 C 159.30 241.36 154.89 240.60 156.94 237.32 C 152.34 239.58 150.39 233.82 147.29 231.59 C 145.86 227.32 150.61 224.30 149.81 220.27 C 148.14 218.10 145.69 216.85 143.31 215.64 C 143.26 214.08 144.77 211.59 142.13 211.72 C 140.01 210.42 134.67 212.20 137.00 215.00 C 139.73 219.38 133.51 225.11 129.36 221.66 C 128.02 217.98 128.05 211.81 123.42 210.48 C 122.10 206.60 118.10 203.73 119.05 199.18 C 120.34 197.92 122.23 198.11 123.86 197.71 C 123.63 194.20 123.54 190.63 122.62 187.21 C 122.69 185.67 125.23 183.10 122.82 182.53 C 120.65 182.57 118.47 182.78 116.30 182.64 C 113.98 181.33 112.50 179.12 111.08 176.94 C 115.30 172.26 117.50 164.62 113.78 159.19 C 109.15 157.12 105.22 154.23 102.35 149.97 C 103.27 154.46 96.24 151.74 97.03 155.87 C 98.08 156.71 101.03 156.17 100.82 157.78 C 98.65 158.16 95.79 160.10 94.00 158.00 C 92.33 155.30 88.55 159.61 87.28 156.69 C 85.65 150.59 87.41 144.19 85.53 138.21 C 86.24 130.18 88.44 120.64 83.09 113.76 C 83.00 112.42 83.26 111.10 83.84 109.90 C 86.15 106.79 84.58 101.99 87.26 99.20 C 90.97 98.55 94.92 99.02 98.54 97.86 C 98.69 96.65 98.80 95.44 98.85 94.22 C 97.55 94.07 96.26 93.93 94.97 93.80 C 94.71 91.75 97.19 92.22 98.01 90.92 C 98.66 89.78 101.04 88.11 98.88 87.27 C 97.05 87.79 95.39 89.14 93.40 88.87 C 93.04 86.99 91.94 85.55 90.45 84.40 C 89.18 78.26 95.06 72.96 93.43 66.85 C 97.55 54.27 104.20 42.63 111.63 31.76 C 113.94 32.11 116.27 31.93 118.32 30.73 C 127.40 30.85 136.53 31.46 145.61 30.70 C 147.37 29.53 148.61 26.89 151.07 27.59 C 156.95 31.05 157.78 22.08 162.84 22.96 C 163.36 26.21 162.48 29.80 164.29 32.71 C 166.18 33.95 169.33 35.02 170.91 32.78 C 170.68 29.61 169.32 26.57 170.21 23.31 M 154.22 30.12 C 150.55 33.76 149.47 39.85 153.17 43.90 C 160.97 45.89 162.47 29.68 154.22 30.12 M 142.16 33.11 C 141.08 34.73 140.02 36.37 138.97 38.01 C 140.42 37.97 143.32 37.89 144.78 37.86 C 147.85 35.87 143.91 34.08 142.16 33.11 M 183.31 33.27 C 182.14 33.79 180.87 34.26 180.59 35.66 C 179.08 40.68 187.21 44.71 190.31 40.30 C 193.92 36.04 187.65 30.35 183.31 33.27 M 130.18 50.07 C 126.19 55.17 125.33 64.71 132.25 67.62 C 135.69 66.48 139.44 66.36 142.70 64.72 C 144.35 61.62 145.25 58.17 147.37 55.33 C 149.58 52.13 144.03 52.01 142.02 51.92 C 136.93 54.57 135.38 46.74 130.18 50.07 M 177.30 70.28 C 173.63 71.24 172.44 75.61 172.94 79.00 C 173.04 83.78 170.96 88.23 171.00 93.01 C 174.26 93.02 177.60 92.90 180.68 91.70 C 181.50 90.20 182.01 88.49 183.20 87.21 C 183.76 87.98 190.54 87.02 188.64 84.31 C 186.34 80.70 186.74 76.27 185.72 72.25 C 184.06 69.20 180.28 69.61 177.30 70.28 M 204.30 104.36 C 201.05 104.36 198.34 106.41 199.01 109.95 C 200.68 114.40 207.38 115.37 210.27 111.31 C 211.33 108.21 208.61 102.17 204.30 104.36 M 220.23 109.11 C 216.43 114.01 221.99 119.49 226.78 119.84 C 228.59 118.47 229.34 116.37 229.68 114.20 C 228.36 110.50 224.20 108.03 220.23 109.11 M 118.99 113.99 C 118.59 117.97 119.72 124.97 125.00 125.04 C 126.76 125.40 127.75 123.84 128.81 122.76 C 130.39 117.19 123.82 113.48 118.99 113.99 M 180.23 168.13 C 176.66 171.29 182.11 175.59 184.17 177.84 C 187.03 181.21 189.86 176.50 191.86 174.79 C 194.77 167.15 184.46 167.52 180.23 168.13 M 204.29 171.36 C 202.91 171.72 201.39 172.15 202.06 173.94 C 203.15 176.98 205.52 179.97 204.60 183.35 C 201.58 188.21 207.19 190.66 210.79 190.84 C 213.53 189.22 212.47 185.67 214.63 183.66 C 216.22 180.00 212.91 176.47 211.80 173.14 C 209.92 172.69 206.17 171.80 204.29 171.36 M 182.25 192.06 C 182.56 195.09 179.75 196.20 177.68 197.66 C 173.85 197.59 170.65 194.88 166.83 195.04 C 164.23 194.76 161.77 195.88 159.24 196.29 C 157.46 198.72 157.47 202.17 160.18 203.90 C 161.48 207.73 168.55 206.58 171.63 206.70 C 174.19 203.28 178.06 207.17 180.96 208.00 C 183.79 208.68 183.21 214.41 186.69 213.57 C 189.06 212.23 191.36 214.10 193.79 213.91 C 196.41 210.95 192.94 208.75 192.05 205.99 C 191.62 204.09 195.07 204.71 194.95 202.90 C 194.98 201.48 195.04 198.65 195.07 197.24 C 190.06 198.01 187.97 189.71 182.25 192.06 Z" />
</g>
<g id="#151513ff">
<path fill="#151513" opacity="1.00" d=" M 112.09 26.99 C 113.55 24.04 115.07 20.76 118.00 19.00 C 117.25 22.34 114.07 24.41 112.09 26.99 Z" />
</g>
<g id="#0d0d0cff">
<path fill="#0d0d0c" opacity="1.00" d=" M 108.68 33.26 C 107.40 30.54 110.02 28.30 112.09 26.99 C 111.21 29.21 109.92 31.23 108.68 33.26 Z" />
</g>
<g id="#d8cfb5ed">
<path fill="#d8cfb5" opacity="0.93" d=" M 197.02 28.00 C 202.93 29.63 206.50 36.20 211.80 39.20 C 213.70 42.86 218.03 45.51 219.74 48.93 C 219.23 52.25 215.67 49.88 215.45 47.64 C 214.86 44.79 212.70 42.77 209.88 42.17 C 206.90 41.75 206.84 38.40 205.69 36.27 C 203.99 35.43 202.12 35.10 200.33 34.56 C 197.77 33.44 198.03 30.21 197.02 28.00 Z" />
</g>
<g id="#e4d9beff">
<path fill="#e4d9be" opacity="1.00" d=" M 154.22 30.12 C 162.47 29.68 160.97 45.89 153.17 43.90 C 149.47 39.85 150.55 33.76 154.22 30.12 Z" />
</g>
<g id="#e6dcc1ff">
<path fill="#e6dcc1" opacity="1.00" d=" M 142.16 33.11 C 143.91 34.08 147.85 35.87 144.78 37.86 C 143.32 37.89 140.42 37.97 138.97 38.01 C 140.02 36.37 141.08 34.73 142.16 33.11 Z" />
</g>
<g id="#dfd4baff">
<path fill="#dfd4ba" opacity="1.00" d=" M 183.31 33.27 C 187.65 30.35 193.92 36.04 190.31 40.30 C 187.21 44.71 179.08 40.68 180.59 35.66 C 180.87 34.26 182.14 33.79 183.31 33.27 Z" />
</g>
<g id="#475052ff">
<path fill="#475052" opacity="1.00" d=" M 79.28 36.14 C 85.00 35.25 88.55 41.81 87.81 46.77 C 85.67 50.48 81.43 47.14 78.29 46.68 C 74.48 44.33 77.98 39.13 79.28 36.14 Z" />
</g>
<g id="#101110fe">
<path fill="#101110" opacity="1.00" d=" M 105.08 36.14 C 105.40 36.34 106.04 36.75 106.36 36.95 C 92.26 59.71 83.24 85.99 81.72 112.78 C 81.10 120.17 79.97 127.96 81.71 135.26 C 82.76 158.52 89.09 181.40 99.24 202.29 C 99.67 203.19 100.14 204.07 100.66 204.92 C 102.92 208.68 104.96 212.58 107.45 216.20 C 107.97 217.48 108.49 218.77 108.87 220.11 C 107.97 219.39 107.06 218.67 106.16 217.94 C 103.21 210.58 98.07 204.33 95.09 196.97 C 90.82 186.52 86.51 176.01 84.48 164.84 C 83.84 162.19 83.08 159.58 82.54 156.90 C 81.41 151.70 81.19 146.29 79.83 141.16 C 80.16 130.49 79.64 119.81 80.45 109.16 C 80.59 108.11 80.70 107.07 80.78 106.02 C 81.05 104.02 81.21 102.00 81.36 99.99 C 83.90 89.50 85.10 78.57 89.53 68.63 C 93.63 57.33 98.72 46.35 105.08 36.14 Z" />
</g>
<g id="#e5dbc0ff">
<path fill="#e5dbc0" opacity="1.00" d=" M 130.18 50.07 C 135.38 46.74 136.93 54.57 142.02 51.92 C 144.03 52.01 149.58 52.13 147.37 55.33 C 145.25 58.17 144.35 61.62 142.70 64.72 C 139.44 66.36 135.69 66.48 132.25 67.62 C 125.33 64.71 126.19 55.17 130.18 50.07 M 131.24 53.18 C 130.17 54.24 128.61 55.22 128.97 56.98 C 125.66 64.75 139.03 67.12 140.97 60.98 C 140.12 58.04 136.05 57.13 134.63 54.34 C 134.15 52.83 132.54 52.78 131.24 53.18 Z" />
<path fill="#e5dbc0" opacity="1.00" d=" M 93.43 66.85 C 95.06 72.96 89.18 78.26 90.45 84.40 C 91.94 85.55 93.04 86.99 93.40 88.87 C 95.39 89.14 97.05 87.79 98.88 87.27 C 101.04 88.11 98.66 89.78 98.01 90.92 C 97.19 92.22 94.71 91.75 94.97 93.80 C 96.26 93.93 97.55 94.07 98.85 94.22 C 98.80 95.44 98.69 96.65 98.54 97.86 C 94.92 99.02 90.97 98.55 87.26 99.20 C 84.58 101.99 86.15 106.79 83.84 109.90 C 84.82 95.19 87.79 80.50 93.43 66.85 Z" />
<path fill="#e5dbc0" opacity="1.00" d=" M 177.30 70.28 C 180.28 69.61 184.06 69.20 185.72 72.25 C 186.74 76.27 186.34 80.70 188.64 84.31 C 190.54 87.02 183.76 87.98 183.20 87.21 C 182.01 88.49 181.50 90.20 180.68 91.70 C 177.60 92.90 174.26 93.02 171.00 93.01 C 170.96 88.23 173.04 83.78 172.94 79.00 C 172.44 75.61 173.63 71.24 177.30 70.28 M 179.27 71.29 C 172.73 73.74 175.28 82.47 174.14 87.77 C 178.05 92.00 183.01 86.77 183.75 82.73 C 186.44 78.79 185.53 69.16 179.27 71.29 Z" />
</g>
<g id="#dbd1b6ff">
<path fill="#dbd1b6" opacity="1.00" d=" M 131.24 53.18 C 132.54 52.78 134.15 52.83 134.63 54.34 C 136.05 57.13 140.12 58.04 140.97 60.98 C 139.03 67.12 125.66 64.75 128.97 56.98 C 128.61 55.22 130.17 54.24 131.24 53.18 Z" />
<path fill="#dbd1b6" opacity="1.00" d=" M 118.99 113.99 C 123.82 113.48 130.39 117.19 128.81 122.76 C 127.75 123.84 126.76 125.40 125.00 125.04 C 119.72 124.97 118.59 117.97 118.99 113.99 Z" />
</g>
<g id="#4b5455fe">
<path fill="#4b5455" opacity="1.00" d=" M 25.76 62.44 C 29.55 58.47 36.01 58.18 39.74 62.36 C 38.86 63.64 37.78 64.76 36.89 66.03 C 37.74 67.25 39.08 68.00 40.05 69.12 C 40.67 71.97 36.95 72.76 36.22 75.23 C 34.72 77.45 35.41 82.15 31.96 82.06 C 31.90 79.74 33.92 76.22 30.34 75.78 C 31.67 78.45 29.13 78.04 27.20 78.09 C 28.26 80.65 29.10 83.53 31.70 84.97 C 31.86 84.48 32.17 83.50 32.33 83.01 C 34.31 85.56 35.96 88.36 38.07 90.80 C 39.57 90.16 41.82 87.83 43.15 89.79 C 45.16 94.63 50.93 86.65 53.80 90.19 C 56.92 94.65 61.96 100.68 58.18 106.13 C 57.91 108.90 60.45 111.03 61.97 113.11 C 60.19 115.20 58.15 117.12 55.86 118.87 C 56.99 118.68 58.11 118.48 59.24 118.28 C 58.55 121.41 55.71 122.65 52.88 121.31 C 53.18 124.73 54.86 128.05 53.28 131.52 C 52.89 133.55 51.55 136.18 53.18 137.92 C 57.24 139.26 55.78 132.12 60.06 132.94 C 60.38 135.80 56.88 137.30 57.95 140.48 C 59.96 139.97 60.87 141.84 62.04 143.07 C 63.38 142.11 64.56 140.92 65.91 139.98 C 72.14 145.19 66.82 155.34 73.61 160.22 C 71.74 162.85 73.84 164.77 73.51 167.55 C 75.73 169.41 79.01 171.32 78.60 174.68 C 78.14 179.11 79.70 185.24 75.53 188.37 C 75.30 192.30 71.28 194.87 71.07 198.82 C 72.62 200.21 73.07 201.96 72.40 203.93 C 75.87 205.77 79.95 207.21 83.76 205.42 C 84.90 206.66 85.83 208.06 86.41 209.65 C 87.71 214.83 94.12 213.41 98.32 213.39 C 101.96 212.20 103.73 216.14 106.16 217.94 C 107.06 218.67 107.97 219.39 108.87 220.11 C 109.42 221.51 109.87 223.01 110.80 224.22 C 116.86 232.10 123.08 239.88 130.19 246.86 C 96.16 248.48 62.25 233.48 38.91 209.08 C 27.21 195.97 17.86 180.63 12.09 163.98 C 6.79 145.78 4.27 126.45 7.43 107.64 C 9.61 91.47 16.12 76.35 24.00 62.21 L 24.64 62.30 C 24.92 62.34 25.48 62.41 25.76 62.44 M 49.25 91.22 C 47.99 92.66 45.68 93.77 45.96 96.00 C 45.52 99.12 50.25 99.71 49.97 102.75 C 45.69 103.21 40.53 106.43 43.10 111.77 C 44.84 112.53 46.82 113.62 48.73 112.71 C 54.40 110.76 53.13 103.07 55.52 98.76 C 54.75 95.50 54.15 89.15 49.25 91.22 M 57.39 148.30 C 56.13 149.58 54.96 150.91 54.70 152.76 C 52.57 152.90 50.45 153.23 49.25 155.21 C 49.54 158.79 48.82 162.35 47.97 165.81 C 46.97 165.51 45.97 165.23 44.97 164.96 C 45.93 166.99 47.17 168.85 48.33 170.77 C 50.24 171.52 52.14 170.28 54.01 169.98 C 53.21 173.44 54.16 177.93 51.82 180.92 C 49.38 180.99 47.40 179.70 48.94 177.23 C 46.67 177.26 45.16 175.79 43.71 174.26 C 40.69 173.00 40.93 178.45 38.09 178.07 C 40.77 169.16 37.33 173.65 35.22 174.98 C 35.42 172.94 33.90 172.74 32.28 173.10 C 32.39 175.60 29.86 175.05 28.17 174.91 C 27.26 173.67 27.00 171.57 24.99 171.96 C 24.21 174.62 26.19 176.27 28.71 176.20 C 28.84 177.71 27.33 180.17 29.65 180.42 C 31.37 181.87 31.60 179.08 32.33 178.05 C 33.50 179.00 35.36 179.90 34.91 181.71 C 33.54 181.81 32.86 182.52 32.89 183.85 C 34.63 183.30 38.03 181.86 36.23 184.87 C 38.87 186.51 42.04 188.29 42.38 191.74 C 43.07 192.52 44.44 194.08 45.13 194.86 C 48.94 197.96 54.34 193.53 58.21 196.82 C 60.04 198.92 62.71 196.03 64.66 198.27 C 65.03 200.07 65.86 202.46 67.85 202.89 C 70.70 201.05 66.88 197.46 69.65 195.64 C 68.46 191.69 70.67 187.78 69.00 184.00 C 70.14 181.44 69.76 178.87 69.35 176.32 C 71.82 174.57 70.74 171.91 69.47 169.78 C 70.77 165.47 69.16 161.27 67.77 157.23 C 65.78 156.45 68.19 161.11 66.04 161.15 C 64.40 162.32 61.90 161.16 61.84 159.12 C 61.75 157.46 58.29 157.64 59.60 155.69 C 60.50 153.87 57.65 153.10 58.04 151.27 C 61.23 151.53 60.47 146.11 57.39 148.30 M 73.30 209.38 C 71.90 209.77 70.46 209.95 69.03 210.20 C 67.57 215.51 71.30 220.47 76.20 221.84 C 80.19 223.11 82.85 226.85 86.97 227.76 C 88.58 227.11 90.20 227.52 91.82 227.90 C 92.66 226.07 93.76 224.64 95.98 224.78 C 94.54 220.78 89.27 220.13 88.00 216.00 C 86.94 213.30 83.70 213.25 81.30 212.64 C 79.12 210.72 76.49 207.96 73.30 209.38 Z" />
</g>
<g id="#dfd4b9ff">
<path fill="#dfd4b9" opacity="1.00" d=" M 179.27 71.29 C 185.53 69.16 186.44 78.79 183.75 82.73 C 183.01 86.77 178.05 92.00 174.14 87.77 C 175.28 82.47 172.73 73.74 179.27 71.29 Z" />
</g>
<g id="#454e4fff">
<path fill="#454e4f" opacity="1.00" d=" M 49.25 91.22 C 54.15 89.15 54.75 95.50 55.52 98.76 C 53.13 103.07 54.40 110.76 48.73 112.71 C 46.82 113.62 44.84 112.53 43.10 111.77 C 40.53 106.43 45.69 103.21 49.97 102.75 C 50.25 99.71 45.52 99.12 45.96 96.00 C 45.68 93.77 47.99 92.66 49.25 91.22 Z" />
</g>
<g id="#626e6dff">
<path fill="#626e6d" opacity="1.00" d=" M 80.78 106.02 C 79.29 104.60 78.48 97.43 81.36 99.99 C 81.21 102.00 81.05 104.02 80.78 106.02 Z" />
</g>
<g id="#e5dabfff">
<path fill="#e5dabf" opacity="1.00" d=" M 204.30 104.36 C 208.61 102.17 211.33 108.21 210.27 111.31 C 207.38 115.37 200.68 114.40 199.01 109.95 C 198.34 106.41 201.05 104.36 204.30 104.36 Z" />
</g>
<g id="#667170ff">
<path fill="#667170" opacity="1.00" d=" M 79.07 107.86 C 79.42 108.18 80.11 108.83 80.45 109.16 C 79.64 119.81 80.16 130.49 79.83 141.16 C 77.44 130.40 79.76 118.86 79.07 107.86 Z" />
</g>
<g id="#e0d6bcff">
<path fill="#e0d6bc" opacity="1.00" d=" M 220.23 109.11 C 224.20 108.03 228.36 110.50 229.68 114.20 C 229.34 116.37 228.59 118.47 226.78 119.84 C 221.99 119.49 216.43 114.01 220.23 109.11 Z" />
</g>
<g id="#6f695fff">
<path fill="#6f695f" opacity="1.00" d=" M 81.71 135.26 C 79.97 127.96 81.10 120.17 81.72 112.78 C 82.06 120.27 82.09 127.77 81.71 135.26 Z" />
</g>
<g id="#e4dabffe">
<path fill="#e4dabf" opacity="1.00" d=" M 83.09 113.76 C 88.44 120.64 86.24 130.18 85.53 138.21 C 87.41 144.19 85.65 150.59 87.28 156.69 C 88.55 159.61 92.33 155.30 94.00 158.00 C 95.79 160.10 98.65 158.16 100.82 157.78 C 101.03 156.17 98.08 156.71 97.03 155.87 C 96.24 151.74 103.27 154.46 102.35 149.97 C 105.22 154.23 109.15 157.12 113.78 159.19 C 117.50 164.62 115.30 172.26 111.08 176.94 C 112.50 179.12 113.98 181.33 116.30 182.64 C 118.47 182.78 120.65 182.57 122.82 182.53 C 125.23 183.10 122.69 185.67 122.62 187.21 C 123.54 190.63 123.63 194.20 123.86 197.71 C 122.23 198.11 120.34 197.92 119.05 199.18 C 118.10 203.73 122.10 206.60 123.42 210.48 C 128.05 211.81 128.02 217.98 129.36 221.66 C 133.51 225.11 139.73 219.38 137.00 215.00 C 134.67 212.20 140.01 210.42 142.13 211.72 C 144.77 211.59 143.26 214.08 143.31 215.64 C 145.69 216.85 148.14 218.10 149.81 220.27 C 150.61 224.30 145.86 227.32 147.29 231.59 C 150.39 233.82 152.34 239.58 156.94 237.32 C 154.89 240.60 159.30 241.36 161.78 240.91 C 163.66 238.80 164.04 234.22 167.71 234.88 C 167.46 236.29 167.17 237.69 167.00 239.12 C 168.33 237.79 169.52 236.32 170.42 234.68 C 172.16 234.73 173.82 234.28 175.29 233.33 C 172.67 232.28 169.57 233.27 167.06 231.89 C 167.04 230.19 167.01 226.79 167.00 225.09 C 168.41 222.51 171.59 217.98 174.51 221.39 C 176.31 225.42 178.72 229.21 179.39 233.66 C 179.81 233.81 180.63 234.12 181.04 234.27 C 166.04 242.22 148.98 245.47 132.15 247.15 L 132.18 246.35 C 132.34 243.26 128.82 241.92 127.26 239.74 C 120.76 233.78 116.35 226.05 110.89 219.25 C 110.57 219.38 109.95 219.65 109.63 219.79 L 108.87 220.11 C 108.49 218.77 107.97 217.48 107.45 216.20 C 107.79 211.69 103.69 208.11 101.91 204.17 C 101.60 204.35 100.97 204.73 100.66 204.92 C 100.14 204.07 99.67 203.19 99.24 202.29 C 100.95 199.36 97.89 196.67 97.13 193.94 C 85.93 168.88 81.53 141.12 83.09 113.76 M 104.31 159.38 C 101.82 160.62 99.22 161.81 96.27 161.29 C 94.41 162.82 92.70 164.68 92.01 167.05 C 91.58 169.54 94.42 170.69 96.20 171.70 C 98.76 171.66 100.49 169.27 102.83 169.06 C 104.18 170.91 104.17 173.46 106.21 174.86 C 109.41 175.20 112.68 173.68 113.37 170.33 C 116.33 164.22 109.57 159.11 104.31 159.38 Z" />
</g>
<g id="#e0d6bbfd">
<path fill="#e0d6bb" opacity="1.00" d=" M 236.27 123.39 C 239.92 122.86 244.03 119.17 246.96 123.08 C 248.29 137.30 245.99 151.44 241.79 164.97 L 241.07 164.96 C 240.66 164.61 239.84 163.91 239.43 163.56 C 238.33 157.20 236.12 151.09 233.76 145.11 C 229.90 143.78 229.11 149.12 226.77 150.91 C 222.82 151.56 221.02 146.64 218.26 144.76 C 215.90 139.53 213.05 132.83 215.31 127.31 C 217.73 122.56 222.78 126.61 225.97 128.21 C 225.97 131.19 224.07 133.79 224.01 136.77 C 225.94 137.14 227.86 137.61 229.82 137.84 C 233.79 133.99 234.56 128.34 236.27 123.39 Z" />
</g>
<g id="#495253ff">
<path fill="#495253" opacity="1.00" d=" M 57.39 148.30 C 60.47 146.11 61.23 151.53 58.04 151.27 C 57.65 153.10 60.50 153.87 59.60 155.69 C 58.29 157.64 61.75 157.46 61.84 159.12 C 61.90 161.16 64.40 162.32 66.04 161.15 C 68.19 161.11 65.78 156.45 67.77 157.23 C 69.16 161.27 70.77 165.47 69.47 169.78 C 70.74 171.91 71.82 174.57 69.35 176.32 C 69.76 178.87 70.14 181.44 69.00 184.00 C 70.67 187.78 68.46 191.69 69.65 195.64 C 66.88 197.46 70.70 201.05 67.85 202.89 C 65.86 202.46 65.03 200.07 64.66 198.27 C 62.71 196.03 60.04 198.92 58.21 196.82 C 54.34 193.53 48.94 197.96 45.13 194.86 C 44.44 194.08 43.07 192.52 42.38 191.74 C 42.04 188.29 38.87 186.51 36.23 184.87 C 38.03 181.86 34.63 183.30 32.89 183.85 C 32.86 182.52 33.54 181.81 34.91 181.71 C 35.36 179.90 33.50 179.00 32.33 178.05 C 31.60 179.08 31.37 181.87 29.65 180.42 C 27.33 180.17 28.84 177.71 28.71 176.20 C 26.19 176.27 24.21 174.62 24.99 171.96 C 27.00 171.57 27.26 173.67 28.17 174.91 C 29.86 175.05 32.39 175.60 32.28 173.10 C 33.90 172.74 35.42 172.94 35.22 174.98 C 37.33 173.65 40.77 169.16 38.09 178.07 C 40.93 178.45 40.69 173.00 43.71 174.26 C 45.16 175.79 46.67 177.26 48.94 177.23 C 47.40 179.70 49.38 180.99 51.82 180.92 C 54.16 177.93 53.21 173.44 54.01 169.98 C 52.14 170.28 50.24 171.52 48.33 170.77 C 47.17 168.85 45.93 166.99 44.97 164.96 C 45.97 165.23 46.97 165.51 47.97 165.81 C 48.82 162.35 49.54 158.79 49.25 155.21 C 50.45 153.23 52.57 152.90 54.70 152.76 C 54.96 150.91 56.13 149.58 57.39 148.30 M 59.30 176.31 C 53.92 176.77 53.38 183.00 49.99 186.04 C 47.90 192.86 56.82 193.63 61.03 194.99 C 70.52 197.87 66.17 185.93 66.75 181.43 C 63.94 180.25 62.34 176.32 59.30 176.31 Z" />
</g>
<g id="#626f71ff">
<path fill="#626f71" opacity="1.00" d=" M 83.11 166.05 C 82.70 163.02 82.50 159.95 82.54 156.90 C 83.08 159.58 83.84 162.19 84.48 164.84 C 84.14 165.14 83.45 165.75 83.11 166.05 Z" />
</g>
<g id="#ded3b8ff">
<path fill="#ded3b8" opacity="1.00" d=" M 104.31 159.38 C 109.57 159.11 116.33 164.22 113.37 170.33 C 112.68 173.68 109.41 175.20 106.21 174.86 C 104.17 173.46 104.18 170.91 102.83 169.06 C 100.49 169.27 98.76 171.66 96.20 171.70 C 94.42 170.69 91.58 169.54 92.01 167.05 C 92.70 164.68 94.41 162.82 96.27 161.29 C 99.22 161.81 101.82 160.62 104.31 159.38 Z" />
</g>
<g id="#e3d9beff">
<path fill="#e3d9be" opacity="1.00" d=" M 180.23 168.13 C 184.46 167.52 194.77 167.15 191.86 174.79 C 189.86 176.50 187.03 181.21 184.17 177.84 C 182.11 175.59 176.66 171.29 180.23 168.13 Z" />
</g>
<g id="#e2d8bdff">
<path fill="#e2d8bd" opacity="1.00" d=" M 204.29 171.36 C 206.17 171.80 209.92 172.69 211.80 173.14 C 212.91 176.47 216.22 180.00 214.63 183.66 C 212.47 185.67 213.53 189.22 210.79 190.84 C 207.19 190.66 201.58 188.21 204.60 183.35 C 205.52 179.97 203.15 176.98 202.06 173.94 C 201.39 172.15 202.91 171.72 204.29 171.36 Z" />
</g>
<g id="#424b4cff">
<path fill="#424b4c" opacity="1.00" d=" M 59.30 176.31 C 62.34 176.32 63.94 180.25 66.75 181.43 C 66.17 185.93 70.52 197.87 61.03 194.99 C 56.82 193.63 47.90 192.86 49.99 186.04 C 53.38 183.00 53.92 176.77 59.30 176.31 Z" />
</g>
<g id="#dfd5bbf8">
<path fill="#dfd5bb" opacity="0.97" d=" M 213.99 187.92 C 217.19 189.44 221.00 189.93 223.13 193.05 C 224.94 193.05 226.49 191.95 228.22 191.59 C 226.73 193.96 225.56 197.61 223.23 198.83 C 219.55 195.70 216.58 191.98 213.99 187.92 Z" />
</g>
<g id="#e7ddc2ff">
<path fill="#e7ddc2" opacity="1.00" d=" M 182.25 192.06 C 187.97 189.71 190.06 198.01 195.07 197.24 C 195.04 198.65 194.98 201.48 194.95 202.90 C 195.07 204.71 191.62 204.09 192.05 205.99 C 192.94 208.75 196.41 210.95 193.79 213.91 C 191.36 214.10 189.06 212.23 186.69 213.57 C 183.21 214.41 183.79 208.68 180.96 208.00 C 178.06 207.17 174.19 203.28 171.63 206.70 C 168.55 206.58 161.48 207.73 160.18 203.90 C 163.75 204.34 167.11 205.67 170.72 205.92 C 171.10 203.71 171.98 201.52 171.82 199.26 C 170.36 197.63 168.61 196.30 166.83 195.04 C 170.65 194.88 173.85 197.59 177.68 197.66 C 179.75 196.20 182.56 195.09 182.25 192.06 Z" />
</g>
<g id="#e1d6bcff">
<path fill="#e1d6bc" opacity="1.00" d=" M 159.24 196.29 C 161.77 195.88 164.23 194.76 166.83 195.04 C 168.61 196.30 170.36 197.63 171.82 199.26 C 171.98 201.52 171.10 203.71 170.72 205.92 C 167.11 205.67 163.75 204.34 160.18 203.90 C 157.47 202.17 157.46 198.72 159.24 196.29 Z" />
</g>
<g id="#f5f2eaff">
<path fill="#f5f2ea" opacity="1.00" d=" M 100.66 204.92 C 100.97 204.73 101.60 204.35 101.91 204.17 C 103.69 208.11 107.79 211.69 107.45 216.20 C 104.96 212.58 102.92 208.68 100.66 204.92 Z" />
</g>
<g id="#475051ff">
<path fill="#475051" opacity="1.00" d=" M 73.30 209.38 C 76.49 207.96 79.12 210.72 81.30 212.64 C 83.70 213.25 86.94 213.30 88.00 216.00 C 89.27 220.13 94.54 220.78 95.98 224.78 C 93.76 224.64 92.66 226.07 91.82 227.90 C 90.20 227.52 88.58 227.11 86.97 227.76 C 82.85 226.85 80.19 223.11 76.20 221.84 C 71.30 220.47 67.57 215.51 69.03 210.20 C 70.46 209.95 71.90 209.77 73.30 209.38 Z" />
</g>
<g id="#f4f3ebfe">
<path fill="#f4f3eb" opacity="1.00" d=" M 109.63 219.79 C 109.95 219.65 110.57 219.38 110.89 219.25 C 116.35 226.05 120.76 233.78 127.26 239.74 C 128.82 241.92 132.34 243.26 132.18 246.35 C 123.37 238.70 116.09 229.45 109.63 219.79 Z" />
</g>
<g id="#10100ffd">
<path fill="#10100f" opacity="1.00" d=" M 108.87 220.11 L 109.63 219.79 C 116.09 229.45 123.37 238.70 132.18 246.35 L 132.15 247.15 C 131.66 247.08 130.68 246.93 130.19 246.86 C 123.08 239.88 116.86 232.10 110.80 224.22 C 109.87 223.01 109.42 221.51 108.87 220.11 Z" />
</g>
</svg>
