<?xml version="1.0" encoding="UTF-8" standalone="no"?>
<svg
   width="241.07634pt"
   height="242.09981pt"
   viewBox="0 0 241.07634 242.09981"
   version="1.1"
   id="svg39"
   sodipodi:docname="waxing-crescent.svg"
   inkscape:version="1.4.2 (f4327f4, 2025-05-13)"
   xmlns:inkscape="http://www.inkscape.org/namespaces/inkscape"
   xmlns:sodipodi="http://sodipodi.sourceforge.net/DTD/sodipodi-0.dtd"
   xmlns="http://www.w3.org/2000/svg"
   xmlns:svg="http://www.w3.org/2000/svg">
  <defs
     id="defs39" />
  <sodipodi:namedview
     id="namedview39"
     pagecolor="#ffffff"
     bordercolor="#000000"
     borderopacity="0.25"
     inkscape:showpageshadow="2"
     inkscape:pageopacity="0.0"
     inkscape:pagecheckerboard="0"
     inkscape:deskcolor="#d1d1d1"
     inkscape:document-units="pt"
     inkscape:zoom="1.6203366"
     inkscape:cx="180.82663"
     inkscape:cy="173.11218"
     inkscape:window-width="1920"
     inkscape:window-height="991"
     inkscape:window-x="-9"
     inkscape:window-y="-9"
     inkscape:window-maximized="1"
     inkscape:current-layer="svg39" />
  <g
     id="#2f3232d6"
     transform="translate(-5.01,-4.98)">
    <path
       fill="#2f3232"
       opacity="0.84"
       d="m 114.01,4.98 c 2.71,0.02 8.14,0.05 10.85,0.06 0.74,0.95 1.48,1.9 2.22,2.85 l -1.06,0.08 C 122.44,5.64 118.07,6.12 114,5.94 Z"
       id="path1" />
  </g>
  <g
     id="#f1eee4fe"
     transform="translate(-5.01,-4.98)">
    <path
       fill="#f1eee4"
       opacity="1"
       d="m 124.86,5.04 c 0.49,0.03 1.45,0.08 1.94,0.11 4.64,4.42 8.82,9.27 13.02,14.09 2.16,2.55 4.24,5.17 6.25,7.84 5.14,7.47 10.42,14.87 14.64,22.92 3.22,5.28 4.98,11.27 7.46,16.91 0.96,2.32 1.74,4.72 2.42,7.14 4.8,14.24 6.49,29.29 7.53,44.21 2.06,36.27 -11.13,72.02 -31.13,101.82 -5.89,8.23 -11.78,16.6 -19.14,23.61 -0.56,0.12 -1.69,0.35 -2.25,0.46 2.36,-3.09 6.34,-5.21 7.42,-9.14 6.79,-5.72 10.93,-13.83 15.94,-21.03 15.39,-23.46 25.05,-50.76 27.28,-78.76 0.69,-7.73 1.81,-15.83 0.1,-23.49 C 173.75,72.49 155.52,34.88 127.08,7.89 126.34,6.94 125.6,5.99 124.86,5.04 Z"
       id="path2" />
  </g>
  <g
     id="#d9cfb3fa"
     transform="translate(-5.01,-4.98)">
    <path
       fill="#d9cfb3"
       opacity="0.98"
       d="m 126.8,5.15 c 11.93,-0.85 23.67,2.25 35.14,5.14 l 0.22,0.92 c -2.19,2.35 -4.67,4.43 -6.65,6.96 0.14,2.14 1.24,4.89 -1.31,6 1.39,-3.33 -0.92,-6.29 -2.41,-9.12 -2.77,-0.73 -4.13,2.17 -6,3.57 -2.18,-1.04 -4.32,-1.68 -5.97,0.62 -4.2,-4.82 -8.38,-9.67 -13.02,-14.09 z"
       id="path3" />
  </g>
  <g
     id="#424b4dfe"
     transform="translate(-5.01,-4.98)">
    <path
       fill="#424b4d"
       opacity="1"
       d="M 71.98,17.97 C 84.97,11.15 99.29,6.65 114,5.94 c 4.07,0.18 8.44,-0.3 12.02,2.03 22.29,22.94 39.85,51.37 45.89,83.09 l -1.03,-0.01 c -2.85,-10.44 -5.69,-21.01 -10.19,-30.88 -6.88,-0.6 -13.97,-0.19 -20.61,1.43 -2.5,-0.99 -3.91,1.68 -6.05,2.27 -1.82,-0.44 -4.35,-3.05 -5.01,0.01 1.01,1.28 2.11,2.48 3,3.85 -3,-0.34 -2.89,1.51 -2.46,3.8 -2.14,1.15 -3.28,3.17 -3.71,5.49 -3.17,0.32 -5.53,-4.73 -7.92,-1.19 -2.24,-0.37 -4.35,-1.16 -4.29,-3.8 -1.67,0.16 -2.63,1.66 -3.91,2.55 -1.6,-0.32 -3.11,-0.93 -4.68,-1.36 -0.97,1.42 -0.75,4.12 -3.09,3.83 0.25,-2.43 2.2,-5.98 -1.89,-5.16 1.21,-0.92 2.16,-2.16 2.02,-3.77 -1.69,0.02 -4.17,1.73 -4.85,-0.65 3.56,-1.91 4.37,-6.41 4.25,-10.14 2.83,0.38 3.4,-3.21 0.63,-3.75 5.55,-1.43 3.51,-7.94 5.11,-12.16 3.81,0.17 2.3,-3.11 1.88,-5.52 2.45,0.23 4.59,1.53 6.93,2.16 0.97,-4.08 -4.22,-4.82 -5.21,-8.07 3.15,1.22 5.62,4.22 9.21,4.1 0.38,-3.05 -3.98,-1.9 -4.96,-4.16 -1.89,-3.57 -4.76,-6.6 -8,-8.98 -2.09,2.35 2.7,3.3 1.83,5.83 -1.02,1.68 -3.11,1.23 -4.75,1.18 -1.28,-2.22 -1.77,-4.83 -3.33,-6.89 -5.59,-1.02 0.27,9.94 -5.65,7.84 -0.62,-2.8 -2.53,-4.87 -4.36,-6.95 1.62,-1.37 3.46,-2.45 5.18,-3.67 -3.05,0.64 -1.92,-2.52 -3.86,-3.33 -1.06,1.39 -1.04,3.19 -1.42,4.82 -4.56,-1.27 -10.03,0.47 -11.78,5.19 3.81,1.67 -1.01,2.93 -2.34,4.55 -1.13,2.11 -2.3,4.49 -4.57,5.57 -1.46,-0.86 -2.87,-1.84 -4.1,-3 0.48,-1.51 4.1,-3.79 0.08,-4.13 C 65.28,25.7 61.78,26.09 59,27.94 53.9,31.39 49.06,35.46 45.5,40.53 44.25,41.98 42.38,42.18 40.69,41.41 48.74,31.07 60.5,24.07 71.98,17.97 Z"
       id="path4" />
  </g>
  <g
     id="#111110fe"
     transform="translate(-5.01,-4.98)">
    <path
       fill="#111110"
       opacity="1"
       d="m 126.02,7.97 1.06,-0.08 c 28.44,26.99 46.67,64.6 49.26,103.84 -0.45,7.82 -0.43,15.66 -0.1,23.49 -2.23,28 -11.89,55.3 -27.28,78.76 -5.01,7.2 -9.15,15.31 -15.94,21.03 5.39,-8.64 12.26,-16.65 17.2,-25.74 9.22,-15.17 16.41,-31.71 20.52,-49 0.67,-2.73 1.27,-5.47 1.32,-8.29 0.64,-2.64 1.28,-5.26 1.89,-7.9 0.05,-1.73 0.15,-5.18 0.19,-6.91 0.78,-1.17 0.72,-2.59 0.7,-3.93 0.09,-6.83 0.34,-13.66 0,-20.48 -0.02,-1.27 -0.12,-2.53 -0.31,-3.78 -0.22,-2 -0.48,-4 -0.82,-5.98 -0.07,-0.54 -0.19,-1.6 -0.26,-2.13 -0.36,-3.3 -0.81,-6.57 -1.54,-9.81 -6.04,-31.72 -23.6,-60.15 -45.89,-83.09 z"
       id="path5" />
  </g>
  <g
     id="#e1d7bcfd"
     transform="translate(-5.01,-4.98)">
    <path
       fill="#e1d7bc"
       opacity="1"
       d="m 162.16,11.21 c 7.39,1.6 15.78,4.11 21.21,9.1 -2.86,1.37 -6.19,-1.21 -8.95,0.1 -1.13,1.49 -2.49,2.87 -3.3,4.56 1.29,3.86 3.02,7.58 3.29,11.72 0.4,3.34 3.65,5.23 4.4,8.4 -3.76,0.23 -7.3,-3.12 -10.93,-1.3 -2.97,1.14 -5.75,3.32 -7.17,6.21 -4.22,-8.05 -9.5,-15.45 -14.64,-22.92 2.99,0.14 5.8,-1.12 8.13,-2.91 2.55,-1.11 1.45,-3.86 1.31,-6 1.98,-2.53 4.46,-4.61 6.65,-6.96 z"
       id="path6" />
  </g>
  <g
     id="#414a4cff"
     transform="translate(-5.01,-4.98)">
    <path
       fill="#414a4c"
       opacity="1"
       d="m 92.14,14.96 c 1.94,0.81 0.81,3.97 3.86,3.33 -1.72,1.22 -3.56,2.3 -5.18,3.67 1.83,2.08 3.74,4.15 4.36,6.95 5.92,2.1 0.06,-8.86 5.65,-7.84 1.56,2.06 2.05,4.67 3.33,6.89 1.64,0.05 3.73,0.5 4.75,-1.18 0.87,-2.53 -3.92,-3.48 -1.83,-5.83 3.24,2.38 6.11,5.41 8,8.98 0.98,2.26 5.34,1.11 4.96,4.16 -3.59,0.12 -6.06,-2.88 -9.21,-4.1 0.99,3.25 6.18,3.99 5.21,8.07 -2.34,-0.63 -4.48,-1.93 -6.93,-2.16 0.42,2.41 1.93,5.69 -1.88,5.52 -1.6,4.22 0.44,10.73 -5.11,12.16 2.77,0.54 2.2,4.13 -0.63,3.75 0.12,3.73 -0.69,8.23 -4.25,10.14 0.68,2.38 3.16,0.67 4.85,0.65 0.14,1.61 -0.81,2.85 -2.02,3.77 4.09,-0.82 2.14,2.73 1.89,5.16 2.34,0.29 2.12,-2.41 3.09,-3.83 1.57,0.43 3.08,1.04 4.68,1.36 1.28,-0.89 2.24,-2.39 3.91,-2.55 -0.06,2.64 2.05,3.43 4.29,3.8 2.39,-3.54 4.75,1.51 7.92,1.19 0.43,-2.32 1.57,-4.34 3.71,-5.49 -0.43,-2.29 -0.54,-4.14 2.46,-3.8 -0.89,-1.37 -1.99,-2.57 -3,-3.85 0.66,-3.06 3.19,-0.45 5.01,-0.01 2.14,-0.59 3.55,-3.26 6.05,-2.27 6.64,-1.62 13.73,-2.03 20.61,-1.43 4.5,9.87 7.34,20.44 10.19,30.88 0.45,3.66 0.83,7.33 1.26,11 0.33,-0.3 0.98,-0.89 1.31,-1.18 0.07,0.53 0.19,1.59 0.26,2.13 -1.05,0.39 -2.31,8.47 0.82,5.98 0.19,1.25 0.29,2.51 0.31,3.78 -1.24,6.74 -1.24,13.73 0,20.48 0.02,1.34 0.08,2.76 -0.7,3.93 -2.15,1.43 -2.47,5.53 -0.19,6.91 -0.61,2.64 -1.25,5.26 -1.89,7.9 -1.3,2.5 -2.79,5.52 -1.32,8.29 -4.11,17.29 -11.3,33.83 -20.52,49 -1.88,-2.62 3.59,-5.46 -0.13,-5.96 -3.75,1.84 -6.46,-1.18 -9.25,-3.26 -0.49,3.18 3.45,3.06 3.89,6.01 1.05,2.01 -4.04,-0.28 -3.29,2.22 -0.04,2.48 -2.97,0.53 -4.41,0.75 0.14,1.29 0.41,2.56 0.58,3.84 -1.86,2.87 -9.21,-1.22 -6.69,3.69 -1.58,-0.3 -3.01,0 -3.96,1.4 -1.3,-1.54 -2.69,-2.99 -4.76,-3.37 0.05,-4.14 6.51,-3.3 9.53,-2.76 1.77,-2 3.37,-4.14 5.35,-5.94 -0.88,-1.98 -4.52,-2.1 -3.99,-4.7 1.02,-1.39 2.69,-0.38 4.06,-0.39 -1.43,-2.46 -5.14,-2.46 -5.57,-5.59 -1.81,-0.77 -1.88,1.37 -2.39,2.54 0.88,0.71 5.22,1.16 2.84,2.41 -2.93,2.04 -5.18,-1.96 -7.77,-2.96 -1.19,2.41 -3.62,3.39 -6.13,3.9 0.24,-3.36 -1.26,-6.87 -0.02,-10.16 2.07,0.67 1.31,2.55 1.04,4.16 2.6,-0.07 4.93,-2.99 2.74,-5.87 -1.52,-2.58 -3.67,0.47 -5.59,0.74 -0.94,-2.51 -0.64,-6.44 -4.25,-6.34 0.19,-2.53 1.89,-5 4.69,-4.39 2.26,-1.15 4.38,-0.91 6.39,0.63 3.27,0.53 4.19,-3.28 2.76,-5.64 -1.72,0.49 -3.39,1.1 -5.09,1.62 0.21,-2.7 3.6,-3.33 5.03,-5.06 3.3,-1.13 3.76,-4.99 6.25,-6.82 1.7,0.1 1.24,2.74 1.99,3.94 2.8,-1.8 5.63,-3.45 8.91,-4.05 0.58,-3.42 -2.27,-5.64 -4.89,-7.13 2.29,-2.54 5.01,-4.76 6.48,-7.98 -1.14,-4.12 -3.89,-7.55 -8.33,-8.13 0.06,-1.57 -0.03,-3.27 0.88,-4.63 3.87,0.94 7.98,3.88 9.29,7.76 1.21,0.21 2.42,0.31 3.65,0.31 -1.08,-1.95 -4.47,-3.81 -2.04,-6.03 3.54,-3.62 3.99,-8.87 3.67,-13.7 -5.49,-1.11 -10.75,-3.85 -16.18,-3.86 -0.84,-0.86 -1.64,-1.77 -2.51,-2.6 0.24,2.01 0.76,3.98 1,5.99 -2.18,-0.53 -4.39,-0.69 -6.56,0 0.67,-0.97 -1.18,-4.3 -1.29,-1.98 0.66,2.92 -4.04,2.91 -4.85,0.81 0.06,-2.52 -0.01,-4.99 0,-7.5 1.8,-0.58 3.68,-0.83 5.57,-0.69 0.6,-2.48 0.37,-5.11 1.17,-7.53 1.77,2.42 4.65,2.64 7.17,3.86 -0.19,-1.35 -0.62,-2.68 -1.93,-3.3 1.43,-2.05 2.96,-4.26 5.48,-4.98 1.21,-2.72 -2.6,-2.92 -3.62,-4.69 -0.8,-1.32 -3.36,-3.38 -0.14,-2.95 1.98,0.34 0.83,-2.65 -0.64,-2.33 -2.83,-0.39 -5.41,1.79 -8.09,2.54 0.23,-1.1 0.44,-2.19 0.63,-3.29 -1.19,0.29 -2.9,3.1 -3.12,0.58 -3.66,3.4 -6.7,-2.25 -10.54,-1.97 -2.21,0.09 -6.29,-3.04 -5.26,1.13 1.69,-0.58 2.15,0.61 2.41,2.07 2.32,0.8 6.7,-0.3 3.44,5.05 -2.08,1.02 -5.02,1.17 -5.22,4.05 -2.22,1.08 -1.37,-2.15 -2.06,-3.35 -2.76,-2.54 -2.64,-6.7 -6.62,-7.99 3.75,-0.24 -0.06,-1.88 -1.04,-3.26 1.91,-0.94 4.88,-1.04 4.15,-3.94 -3.27,0.54 -6.29,-0.16 -8.86,-2.02 0.92,3.48 -4.78,4.81 -5.69,1.51 -0.12,-2.66 -1.54,-5.02 -1.68,-7.67 1.03,0.51 1.69,2.31 3.02,1.85 1.89,-2.15 2.3,-5.1 2.95,-7.8 -2.25,-1.46 -6.62,-1.13 -3.78,-6.13 -0.99,-2.91 1.83,-1.95 2.49,-0.12 2.54,-0.91 0.7,-3.71 0.73,-5.64 0.85,-1.39 2.38,-0.33 3.61,-0.29 -0.55,-2.32 -0.27,-5.04 -2.03,-6.84 -2.88,-0.72 -4.5,2.55 -5.11,4.83 -0.93,-1.2 -1.77,-2.47 -2.83,-3.57 -2.23,0.44 -4.4,1.16 -6.63,1.63 1.66,-3.88 -1.96,-6.91 -5.22,-6.93 -3.05,0.52 -5.92,2.51 -9.08,1.34 0.26,1.56 0.72,3.08 1.01,4.63 -1.3,0.06 -2.6,0.05 -3.91,-0.03 0.37,-2.16 -0.06,-4.8 1.61,-6.49 -1.64,-3.72 -4.69,1.55 -5.11,3.58 -1.34,-1.17 -1.47,-2.98 -2,-4.57 -1.2,-0.91 -4.5,-0.94 -3.22,-3.11 1.4,-0.66 3.81,-3.66 4,-0.51 2.51,-2.16 5.43,-3.91 5.47,-7.64 -0.71,-0.13 -2.12,-0.38 -2.82,-0.5 0.43,-2.21 2.78,-3.37 3.18,-5.61 C 61.76,28 60.38,27.95 59,27.94 c 2.78,-1.85 6.28,-2.24 9.01,0.02 4.02,0.34 0.4,2.62 -0.08,4.13 1.23,1.16 2.64,2.14 4.1,3 2.27,-1.08 3.44,-3.46 4.57,-5.57 1.33,-1.62 6.15,-2.88 2.34,-4.55 1.75,-4.72 7.22,-6.46 11.78,-5.19 0.38,-1.63 0.36,-3.43 1.42,-4.82 z"
       id="path7" />
  </g>
  <g
     id="#d1c6a9ff"
     transform="translate(-5.01,-4.98)">
    <path
       fill="#d1c6a9"
       opacity="1"
       d="m 145.79,18.62 c 1.87,-1.4 3.23,-4.3 6,-3.57 1.49,2.83 3.8,5.79 2.41,9.12 -2.33,1.79 -5.14,3.05 -8.13,2.91 -2.01,-2.67 -4.09,-5.29 -6.25,-7.84 1.65,-2.3 3.79,-1.66 5.97,-0.62 z"
       id="path8" />
  </g>
  <g
     id="#e7ddc2fe"
     transform="translate(-5.01,-4.98)">
    <path
       fill="#e7ddc2"
       opacity="1"
       d="m 174.42,20.41 c 2.76,-1.31 6.09,1.27 8.95,-0.1 2.56,-0.24 4.8,2.16 6.98,3.31 6.06,4.58 13.04,8.49 17.85,14.42 -3.45,0.87 -0.71,3.65 0.25,5.56 2.84,3.69 0.73,9.05 0.22,13.1 -2.89,4.09 -5.35,8.48 -8.2,12.6 -0.18,3.2 2.25,5.37 5.12,6.23 2.9,1.41 6.65,6.74 2.84,8.98 -3.43,3.13 -7.77,-0.66 -11.56,-1.47 -2.22,-0.49 -4.53,0.04 -5.44,2.31 0.24,4.93 -5.19,9.01 -2.61,13.92 -3.26,-0.62 -4.95,-3.16 -5.92,-6.11 -1.25,0.5 -2.45,1.12 -3.69,1.63 -0.74,-4.92 -4.11,-9.23 -2.68,-14.42 -2.14,-1.03 -3.03,-8.94 -5.94,-6.32 -0.68,-2.42 -1.46,-4.82 -2.42,-7.14 6.74,-4.97 8.39,-14.17 10.64,-21.82 -0.75,-3.17 -4,-5.06 -4.4,-8.4 -0.27,-4.14 -2,-7.86 -3.29,-11.72 0.81,-1.69 2.17,-3.07 3.3,-4.56 z"
       id="path9" />
  </g>
  <g
     id="#40494aff"
     transform="translate(-5.01,-4.98)">
    <path
       fill="#40494a"
       opacity="1"
       d="m 59,27.94 c 1.38,0.01 2.76,0.06 4.14,0.16 -0.4,2.24 -2.75,3.4 -3.18,5.61 0.7,0.12 2.11,0.37 2.82,0.5 -0.04,3.73 -2.96,5.48 -5.47,7.64 -0.19,-3.15 -2.6,-0.15 -4,0.51 -1.28,2.17 2.02,2.2 3.22,3.11 0.53,1.59 0.66,3.4 2,4.57 0.42,-2.03 3.47,-7.3 5.11,-3.58 -1.67,1.69 -1.24,4.33 -1.61,6.49 1.31,0.08 2.61,0.09 3.91,0.03 -0.29,-1.55 -0.75,-3.07 -1.01,-4.63 3.16,1.17 6.03,-0.82 9.08,-1.34 3.26,0.02 6.88,3.05 5.22,6.93 2.23,-0.47 4.4,-1.19 6.63,-1.63 1.06,1.1 1.9,2.37 2.83,3.57 0.61,-2.28 2.23,-5.55 5.11,-4.83 1.76,1.8 1.48,4.52 2.03,6.84 -1.23,-0.04 -2.76,-1.1 -3.61,0.29 -0.03,1.93 1.81,4.73 -0.73,5.64 -0.66,-1.83 -3.48,-2.79 -2.49,0.12 -2.84,5 1.53,4.67 3.78,6.13 -0.65,2.7 -1.06,5.65 -2.95,7.8 -1.33,0.46 -1.99,-1.34 -3.02,-1.85 0.14,2.65 1.56,5.01 1.68,7.67 0.91,3.3 6.61,1.97 5.69,-1.51 2.57,1.86 5.59,2.56 8.86,2.02 0.73,2.9 -2.24,3 -4.15,3.94 0.98,1.38 4.79,3.02 1.04,3.26 3.98,1.29 3.86,5.45 6.62,7.99 0.69,1.2 -0.16,4.43 2.06,3.35 0.2,-2.88 3.14,-3.03 5.22,-4.05 3.26,-5.35 -1.12,-4.25 -3.44,-5.05 -0.26,-1.46 -0.72,-2.65 -2.41,-2.07 -1.03,-4.17 3.05,-1.04 5.26,-1.13 3.84,-0.28 6.88,5.37 10.54,1.97 0.22,2.52 1.93,-0.29 3.12,-0.58 -0.19,1.1 -0.4,2.19 -0.63,3.29 2.68,-0.75 5.26,-2.93 8.09,-2.54 1.47,-0.32 2.62,2.67 0.64,2.33 -3.22,-0.43 -0.66,1.63 0.14,2.95 1.02,1.77 4.83,1.97 3.62,4.69 -2.52,0.72 -4.05,2.93 -5.48,4.98 1.31,0.62 1.74,1.95 1.93,3.3 -2.52,-1.22 -5.4,-1.44 -7.17,-3.86 -0.8,2.42 -0.57,5.05 -1.17,7.53 -1.89,-0.14 -3.77,0.11 -5.57,0.69 -0.01,2.51 0.06,4.98 0,7.5 0.81,2.1 5.51,2.11 4.85,-0.81 0.11,-2.32 1.96,1.01 1.29,1.98 2.17,-0.69 4.38,-0.53 6.56,0 -0.24,-2.01 -0.76,-3.98 -1,-5.99 0.87,0.83 1.67,1.74 2.51,2.6 5.43,0.01 10.69,2.75 16.18,3.86 0.32,4.83 -0.13,10.08 -3.67,13.7 -2.43,2.22 0.96,4.08 2.04,6.03 -1.23,0 -2.44,-0.1 -3.65,-0.31 -1.31,-3.88 -5.42,-6.82 -9.29,-7.76 -0.91,1.36 -0.82,3.06 -0.88,4.63 4.44,0.58 7.19,4.01 8.33,8.13 -1.47,3.22 -4.19,5.44 -6.48,7.98 2.62,1.49 5.47,3.71 4.89,7.13 -3.28,0.6 -6.11,2.25 -8.91,4.05 -0.75,-1.2 -0.29,-3.84 -1.99,-3.94 -2.49,1.83 -2.95,5.69 -6.25,6.82 -1.43,1.73 -4.82,2.36 -5.03,5.06 1.7,-0.52 3.37,-1.13 5.09,-1.62 1.43,2.36 0.51,6.17 -2.76,5.64 -2.01,-1.54 -4.13,-1.78 -6.39,-0.63 -2.8,-0.61 -4.5,1.86 -4.69,4.39 3.61,-0.1 3.31,3.83 4.25,6.34 1.92,-0.27 4.07,-3.32 5.59,-0.74 2.19,2.88 -0.14,5.8 -2.74,5.87 0.27,-1.61 1.03,-3.49 -1.04,-4.16 -1.24,3.29 0.26,6.8 0.02,10.16 2.51,-0.51 4.94,-1.49 6.13,-3.9 2.59,1 4.84,5 7.77,2.96 2.38,-1.25 -1.96,-1.7 -2.84,-2.41 0.51,-1.17 0.58,-3.31 2.39,-2.54 0.43,3.13 4.14,3.13 5.57,5.59 -1.37,0.01 -3.04,-1 -4.06,0.39 -0.53,2.6 3.11,2.72 3.99,4.7 -1.98,1.8 -3.58,3.94 -5.35,5.94 -3.02,-0.54 -9.48,-1.38 -9.53,2.76 2.07,0.38 3.46,1.83 4.76,3.37 0.95,-1.4 2.38,-1.7 3.96,-1.4 -2.52,-4.91 4.83,-0.82 6.69,-3.69 -0.17,-1.28 -0.44,-2.55 -0.58,-3.84 1.44,-0.22 4.37,1.73 4.41,-0.75 -0.75,-2.5 4.34,-0.21 3.29,-2.22 -0.44,-2.95 -4.38,-2.83 -3.89,-6.01 2.79,2.08 5.5,5.1 9.25,3.26 3.72,0.5 -1.75,3.34 0.13,5.96 -4.94,9.09 -11.81,17.1 -17.2,25.74 -4.35,3.68 -8.43,7.67 -12.22,11.92 -14.25,-0.82 -29.01,-3.41 -41.8,-9.9 -4.23,-2.15 -8.32,-6.32 -13.17,-6.58 -5.75,-3.01 -12.47,-6.99 -16.52,-12.19 -2.78,-5.98 -9.01,-9.92 -13.46,-14.77 -0.28,0.02 -0.86,0.07 -1.15,0.1 -1.05,0.07 -1.49,-0.35 -1.33,-1.25 1.57,-3.34 -3.25,-5.43 -4.36,-8.09 -0.34,0.1 -1.01,0.31 -1.34,0.41 -1.3,0.3 -2.15,-2.21 -2.21,-3.35 0.28,-1.14 0.3,-2.34 -0.48,-3.29 C 16.95,174.57 10.56,159.8 8.74,144.11 7.47,137.73 8.73,131.12 7.43,124.76 c -0.02,-0.4 -0.06,-1.18 -0.08,-1.58 0.24,-8.8 1.46,-17.5 3.33,-26.09 2.42,-11.58 7.37,-22.34 12.52,-32.9 1.59,-2.22 3.15,-4.52 3.97,-7.16 3.37,-5.87 8.1,-12.12 13.52,-15.62 1.69,0.77 3.56,0.57 4.81,-0.88 3.56,-5.07 8.4,-9.14 13.5,-12.59 M 74.18,51.1 c -2.15,4.35 -6.77,7.73 -11.81,7.36 -2.63,0.91 -3.89,2.82 -3.56,5.64 -1.51,-0.85 -2.86,-4.21 -4.62,-1.95 -1.25,1.56 -5,2.48 -3.35,4.88 0.31,1.84 2.78,-1.09 3.5,0.63 2.06,1.96 -1.11,3.11 -2.43,4.14 3.33,2.03 6.07,-0.71 7.38,-3.63 2.48,1.1 4.77,2.83 2.99,5.7 2.35,1.82 4.88,0.33 7.44,0.2 1.02,4.56 6.22,-0.17 9.1,-0.35 0.46,-2.88 0.2,-5.89 1.34,-8.63 2.6,-5.15 -4.23,-8.87 -4.44,-13.97 C 75.33,51.11 74.57,51.1 74.18,51.1 M 53.22,160.47 c -0.76,0.5 -3.52,-0.06 -2.81,1.28 1.33,1.77 -1.24,1.1 -2.28,1.4 0.1,4.18 1.16,8.32 -0.39,12.42 -2.43,-0.1 -0.8,4.19 -3.06,2.85 -3.18,-1.91 -1.89,3.24 -2.45,5.42 3.52,-0.5 4.4,3.71 2.6,6.06 -1.57,-0.07 -1.51,-2.42 -2.87,-3.01 0.12,1.28 0.41,2.55 0.54,3.84 -1.6,2.17 -1.78,6.73 -5.39,4.57 -2.4,1.7 -0.47,3.37 1.91,2.86 -0.16,1.9 -1.14,3.87 0.24,5.56 2.24,1.39 4.89,1.58 7.52,1.5 2.64,2.54 1.59,7 4.4,9.57 3.11,2.6 6.53,4.76 10.08,6.71 1.61,-0.43 3.43,-0.61 3.61,1.57 1.08,5.93 8.32,4.32 12.86,4.24 3.64,0.57 2.89,4.76 5.47,6.54 5.42,-0.21 9.28,-4.55 11.79,-8.85 -0.4,-3.24 -4.07,-1.44 -6.05,-0.99 0.38,-3.38 4.29,-4.24 7,-5.21 -1.25,-1.99 -2.82,-3.77 -3.96,-5.82 0.05,-1.66 1.71,-1.86 2.92,-1.27 1.69,-1.02 0.21,-4.52 2.97,-3.7 0.07,0.78 0.21,2.32 0.28,3.1 2.2,-3.8 6.5,-5.43 9.56,-8.38 1.84,-3.06 2.69,-8.28 7.25,-7.95 -0.76,-8.51 -9.79,-12.46 -15.94,-16.55 -2.42,2.33 -5.72,-2.46 -2.06,-2.48 0.09,-1.87 -2.36,-2.85 -1.2,-4.82 1.55,-2.8 -2.58,-2.44 -2.03,0.14 -0.95,-1.29 -1.86,-2.61 -2.74,-3.94 1.41,-0.22 3.85,0.37 2.91,-1.9 -2.41,0.01 -3.92,-1.75 -5.59,-3.19 -0.49,2.77 -4.14,2.62 -6.35,3 -0.01,-1.36 0.4,-2.64 0.83,-3.91 -1.64,-0.19 -3.28,-0.45 -4.85,-0.95 0.46,1.94 2.03,4.33 0.27,6.05 -2.43,2.1 2.06,7.23 -2.46,7.28 -2.62,-0.48 -7.62,1.33 -7.85,-2.38 2.16,1.62 4.03,-0.39 5.89,-1.45 -0.5,-1.88 -0.46,-3.72 0.17,-5.57 -2.56,-0.29 -5.39,0.26 -7.29,-1.74 -1.44,0.02 -2.86,0.37 -3.92,-0.9 -3.25,0.84 -6.89,0.61 -9.53,-1 z"
       id="path10" />
  </g>
  <g
     id="#e0d6bbfd"
     transform="translate(-5.01,-4.98)">
    <path
       fill="#e0d6bb"
       opacity="1"
       d="m 208.2,38.04 c 8.51,6.93 14.64,16.87 20.73,26 2.72,5.71 6.61,11.51 7.66,17.69 -1.3,2.62 2.29,6.83 -1.26,8.11 -3.26,-2.2 -1.43,-5.52 -1.38,-8.65 -2.28,-1.44 -4.76,-2.5 -7.04,-3.91 -4.25,0.37 -7.54,3.13 -9.98,6.45 1.41,0.35 3.87,-0.09 2.99,2.15 -1.8,1.19 -4.1,1.12 -5.93,2.24 0.64,2.92 1.95,5.64 2.64,8.55 -1.73,1.39 -4.42,2.02 -4.94,4.45 -2.63,-3.36 -3.35,-8.36 -7.36,-10.46 -3.21,-1.71 -4.98,-5.09 -7.46,-7.62 3.79,0.81 8.13,4.6 11.56,1.47 3.81,-2.24 0.06,-7.57 -2.84,-8.98 -2.87,-0.86 -5.3,-3.03 -5.12,-6.23 2.85,-4.12 5.31,-8.51 8.2,-12.6 0.51,-4.05 2.62,-9.41 -0.22,-13.1 -0.96,-1.91 -3.7,-4.69 -0.25,-5.56 m -2,25.07 c -2.32,2.15 -1.53,5.8 -2.08,8.73 2.38,1.99 5.5,2.81 8.64,2.32 0.28,1.96 0.57,3.93 1.41,5.74 2.65,0.54 6.94,-0.63 6.86,-3.89 -0.48,-2.64 3.35,-3.25 2.89,-5.81 -3.27,-2.53 -6.56,-0.11 -9.76,0.75 -1.56,-3.47 -2.92,-8.84 -7.96,-7.84 z"
       id="path11" />
  </g>
  <g
     id="#cdc2a7ff"
     transform="translate(-5.01,-4.98)">
    <path
       fill="#cdc2a7"
       opacity="1"
       d="m 167.88,43.79 c 3.63,-1.82 7.17,1.53 10.93,1.3 -2.25,7.65 -3.9,16.85 -10.64,21.82 -2.48,-5.64 -4.24,-11.63 -7.46,-16.91 1.42,-2.89 4.2,-5.07 7.17,-6.21 z"
       id="path12" />
  </g>
  <g
     id="#3d4547ff"
     transform="translate(-5.01,-4.98)">
    <path
       fill="#3d4547"
       opacity="1"
       d="m 74.18,51.1 c 0.39,0 1.15,0.01 1.54,0.02 0.21,5.1 7.04,8.82 4.44,13.97 -1.14,2.74 -0.88,5.75 -1.34,8.63 -2.88,0.18 -8.08,4.91 -9.1,0.35 -2.56,0.13 -5.09,1.62 -7.44,-0.2 1.78,-2.87 -0.51,-4.6 -2.99,-5.7 -1.31,2.92 -4.05,5.66 -7.38,3.63 1.32,-1.03 4.49,-2.18 2.43,-4.14 -0.72,-1.72 -3.19,1.21 -3.5,-0.63 -1.65,-2.4 2.1,-3.32 3.35,-4.88 1.76,-2.26 3.11,1.1 4.62,1.95 -0.33,-2.82 0.93,-4.73 3.56,-5.64 5.04,0.37 9.66,-3.01 11.81,-7.36 z"
       id="path13" />
  </g>
  <g
     id="#111514c0"
     transform="translate(-5.01,-4.98)">
    <path
       fill="#111514"
       opacity="0.75"
       d="m 22.25,64.21 c 0.77,-2.63 2.44,-5.97 4.92,-7.18 -0.82,2.64 -2.38,4.94 -3.97,7.16 z"
       id="path14" />
  </g>
  <g
     id="#dacfb4ff"
     transform="translate(-5.01,-4.98)">
    <path
       fill="#dacfb4"
       opacity="1"
       d="m 206.2,63.11 c 5.04,-1 6.4,4.37 7.96,7.84 3.2,-0.86 6.49,-3.28 9.76,-0.75 0.46,2.56 -3.37,3.17 -2.89,5.81 0.08,3.26 -4.21,4.43 -6.86,3.89 -0.84,-1.81 -1.13,-3.78 -1.41,-5.74 -3.14,0.49 -6.26,-0.33 -8.64,-2.32 0.55,-2.93 -0.24,-6.58 2.08,-8.73 z"
       id="path15" />
  </g>
  <g
     id="#1a1e1de6"
     transform="translate(-5.01,-4.98)">
    <path
       fill="#1a1e1d"
       opacity="0.9"
       d="M 22.25,64.21 23.2,64.19 C 18.05,74.75 13.1,85.51 10.68,97.09 10.23,96.34 9.78,95.6 9.34,94.85 12.22,84.17 15.94,73.39 22.25,64.21 Z"
       id="path16" />
  </g>
  <g
     id="#e3d8bdff"
     transform="translate(-5.01,-4.98)">
    <path
       fill="#e3d8bd"
       opacity="1"
       d="m 170.59,74.05 c 2.91,-2.62 3.8,5.29 5.94,6.32 -1.43,5.19 1.94,9.5 2.68,14.42 1.24,-0.51 2.44,-1.13 3.69,-1.63 0.97,2.95 2.66,5.49 5.92,6.11 1.25,2.72 -0.62,5.95 1.5,8.42 2.64,3.32 3.36,7.56 5.56,11.08 -1.3,1.37 -2.19,3.17 -3.76,4.26 -3.69,-2.86 -7.1,-6.77 -11.73,-7.96 -0.45,1.32 -0.61,2.91 -2.27,3.19 -1.04,-14.92 -2.73,-29.97 -7.53,-44.21 z"
       id="path17" />
  </g>
  <g
     id="#e6dbc1fe"
     transform="translate(-5.01,-4.98)">
    <path
       fill="#e6dbc1"
       opacity="1"
       d="m 216.93,83.73 c 2.44,-3.32 5.73,-6.08 9.98,-6.45 2.28,1.41 4.76,2.47 7.04,3.91 -0.05,3.13 -1.88,6.45 1.38,8.65 3.55,-1.28 -0.04,-5.49 1.26,-8.11 1.66,2.14 2.51,4.74 3.31,7.29 6.03,21.45 8.48,44.37 3.56,66.29 -10.41,42.47 -45.58,78.57 -88.52,87.81 -4.09,-0.06 -0.95,-4.98 0.36,-6.84 2.04,-1.86 0.38,-6.17 3.47,-6.73 1.28,-0.32 3.05,-0.91 3.1,-2.47 -2.81,-3.56 0.41,-8.58 -3.14,-11.86 -4.25,1.16 -6.88,5.89 -11.74,4.86 20,-29.8 33.19,-65.55 31.13,-101.82 1.66,-0.28 1.82,-1.87 2.27,-3.19 4.63,1.19 8.04,5.1 11.73,7.96 1.57,-1.09 2.46,-2.89 3.76,-4.26 3.94,1.24 6.57,5.92 10.96,5.2 1.7,-3.19 2.53,-6.78 3.81,-10.15 0.09,-4.16 3.26,-8.67 1.04,-12.7 0.52,-2.43 3.21,-3.06 4.94,-4.45 -0.69,-2.91 -2,-5.63 -2.64,-8.55 1.83,-1.12 4.13,-1.05 5.93,-2.24 0.88,-2.24 -1.58,-1.8 -2.99,-2.15 m 8.25,49.34 c -2.72,3.16 -2.79,8.37 -6.97,10.13 0.27,2.2 -0.34,4.58 1.05,6.5 2.84,1.4 6.25,1.75 8.52,-0.89 -0.76,-4.5 4.13,-5.48 6.41,-8.42 3.03,1.24 8.62,-0.27 5.68,-5.18 -2.4,-3.58 -4.03,2.32 -6.68,1.71 -1.69,-2.98 -3.36,-6.25 -8.01,-3.85 m -49.96,63.04 c -3.48,3.57 1.08,9.1 4.47,11.22 1.99,2.72 9.23,2.92 5.34,-3.34 2.62,-6.21 -5.71,-8.18 -9.81,-7.88 z"
       id="path18" />
  </g>
  <g
     id="#c5baa0ff"
     transform="translate(-5.01,-4.98)">
    <path
       fill="#c5baa0"
       opacity="1"
       d="m 191.43,85.35 c 0.91,-2.27 3.22,-2.8 5.44,-2.31 2.48,2.53 4.25,5.91 7.46,7.62 4.01,2.1 4.73,7.1 7.36,10.46 2.22,4.03 -0.95,8.54 -1.04,12.7 -1.28,3.37 -2.11,6.96 -3.81,10.15 -4.39,0.72 -7.02,-3.96 -10.96,-5.2 -2.2,-3.52 -2.92,-7.76 -5.56,-11.08 -2.12,-2.47 -0.25,-5.7 -1.5,-8.42 -2.58,-4.91 2.85,-8.99 2.61,-13.92 z"
       id="path19" />
  </g>
  <g
     id="#565f5ffe"
     transform="translate(-5.01,-4.98)">
    <path
       fill="#565f5f"
       opacity="1"
       d="m 170.88,91.05 1.03,0.01 c 0.73,3.24 1.18,6.51 1.54,9.81 -0.33,0.29 -0.98,0.88 -1.31,1.18 -0.43,-3.67 -0.81,-7.34 -1.26,-11 z"
       id="path20" />
  </g>
  <g
     id="#252a29f1"
     transform="translate(-5.01,-4.98)">
    <path
       fill="#252a29"
       opacity="0.95"
       d="m 9.34,94.85 c 0.44,0.75 0.89,1.49 1.34,2.24 -1.87,8.59 -3.09,17.29 -3.33,26.09 -0.27,-0.62 -0.83,-1.86 -1.1,-2.47 C 5.22,112 7.73,103.36 9.34,94.85 Z"
       id="path21" />
  </g>
  <g
     id="#5a6364fe"
     transform="translate(-5.01,-4.98)">
    <path
       fill="#5a6364"
       opacity="1"
       d="m 174.53,108.98 c -3.13,2.49 -1.87,-5.59 -0.82,-5.98 0.34,1.98 0.6,3.98 0.82,5.98 z"
       id="path22" />
  </g>
  <g
     id="#757771fe"
     transform="translate(-5.01,-4.98)">
    <path
       fill="#757771"
       opacity="1"
       d="m 176.34,111.73 c 1.71,7.66 0.59,15.76 -0.1,23.49 -0.33,-7.83 -0.35,-15.67 0.1,-23.49 z"
       id="path23" />
  </g>
  <g
     id="#5c6668ff"
     transform="translate(-5.01,-4.98)">
    <path
       fill="#5c6668"
       opacity="1"
       d="m 174.84,133.24 c -1.24,-6.75 -1.24,-13.74 0,-20.48 0.34,6.82 0.09,13.65 0,20.48 z"
       id="path24" />
  </g>
  <g
     id="#121512ff"
     transform="translate(-5.01,-4.98)">
    <path
       fill="#121512"
       opacity="1"
       d="m 6.25,120.71 c 0.27,0.61 0.83,1.85 1.1,2.47 0.02,0.4 0.06,1.18 0.08,1.58 -0.26,3.51 -0.11,7.12 -1.08,10.54 -0.08,-0.56 -0.24,-1.7 -0.32,-2.27 -0.04,-3.73 -0.1,-7.46 0.09,-11.19 z"
       id="path25" />
  </g>
  <g
     id="#16171728"
     transform="translate(-5.01,-4.98)">
    <path
       fill="#161717"
       opacity="0.16"
       d="m 5.05,122.02 1.07,-0.18 c -0.19,3.73 -0.13,7.46 -0.09,11.19 l -1.02,-0.04 c 0.01,-2.74 0.03,-8.23 0.04,-10.97 z"
       id="path26" />
  </g>
  <g
     id="#262b2aef"
     transform="translate(-5.01,-4.98)">
    <path
       fill="#262b2a"
       opacity="0.94"
       d="m 7.43,124.76 c 1.3,6.36 0.04,12.97 1.31,19.35 1.82,15.69 8.21,30.46 16.24,43.91 0.78,0.95 0.76,2.15 0.48,3.29 -5.99,-5.99 -8.75,-14.78 -12.32,-22.4 -3.67,-10.81 -6.7,-22.16 -6.79,-33.61 0.97,-3.42 0.82,-7.03 1.08,-10.54 z"
       id="path27" />
  </g>
  <g
     id="#e0d6bbff"
     transform="translate(-5.01,-4.98)">
    <path
       fill="#e0d6bb"
       opacity="1"
       d="m 225.18,133.07 c 4.65,-2.4 6.32,0.87 8.01,3.85 2.65,0.61 4.28,-5.29 6.68,-1.71 2.94,4.91 -2.65,6.42 -5.68,5.18 -2.28,2.94 -7.17,3.92 -6.41,8.42 -2.27,2.64 -5.68,2.29 -8.52,0.89 -1.39,-1.92 -0.78,-4.3 -1.05,-6.5 4.18,-1.76 4.25,-6.97 6.97,-10.13 z"
       id="path28" />
  </g>
  <g
     id="#555f5ffe"
     transform="translate(-5.01,-4.98)">
    <path
       fill="#555f5f"
       opacity="1"
       d="m 173.95,144.08 c -2.28,-1.38 -1.96,-5.48 0.19,-6.91 -0.04,1.73 -0.14,5.18 -0.19,6.91 z"
       id="path29" />
  </g>
  <g
     id="#505c5cff"
     transform="translate(-5.01,-4.98)">
    <path
       fill="#505c5c"
       opacity="1"
       d="m 170.74,160.27 c -1.47,-2.77 0.02,-5.79 1.32,-8.29 -0.05,2.82 -0.65,5.56 -1.32,8.29 z"
       id="path30" />
  </g>
  <g
     id="#3e4748ff"
     transform="translate(-5.01,-4.98)">
    <path
       fill="#3e4748"
       opacity="1"
       d="m 53.22,160.47 c 2.64,1.61 6.28,1.84 9.53,1 1.06,1.27 2.48,0.92 3.92,0.9 1.9,2 4.73,1.45 7.29,1.74 -0.63,1.85 -0.67,3.69 -0.17,5.57 -1.86,1.06 -3.73,3.07 -5.89,1.45 0.23,3.71 5.23,1.9 7.85,2.38 4.52,-0.05 0.03,-5.18 2.46,-7.28 1.76,-1.72 0.19,-4.11 -0.27,-6.05 1.57,0.5 3.21,0.76 4.85,0.95 -0.43,1.27 -0.84,2.55 -0.83,3.91 2.21,-0.38 5.86,-0.23 6.35,-3 1.67,1.44 3.18,3.2 5.59,3.19 0.94,2.27 -1.5,1.68 -2.91,1.9 0.88,1.33 1.79,2.65 2.74,3.94 -0.55,-2.58 3.58,-2.94 2.03,-0.14 -1.16,1.97 1.29,2.95 1.2,4.82 -3.66,0.02 -0.36,4.81 2.06,2.48 6.15,4.09 15.18,8.04 15.94,16.55 -4.56,-0.33 -5.41,4.89 -7.25,7.95 -3.06,2.95 -7.36,4.58 -9.56,8.38 -0.07,-0.78 -0.21,-2.32 -0.28,-3.1 -2.76,-0.82 -1.28,2.68 -2.97,3.7 -1.21,-0.59 -2.87,-0.39 -2.92,1.27 1.14,2.05 2.71,3.83 3.96,5.82 -2.71,0.97 -6.62,1.83 -7,5.21 1.98,-0.45 5.65,-2.25 6.05,0.99 -2.51,4.3 -6.37,8.64 -11.79,8.85 -2.58,-1.78 -1.83,-5.97 -5.47,-6.54 -4.54,0.08 -11.78,1.69 -12.86,-4.24 -0.18,-2.18 -2,-2 -3.61,-1.57 -3.55,-1.95 -6.97,-4.11 -10.08,-6.71 -2.81,-2.57 -1.76,-7.03 -4.4,-9.57 -2.63,0.08 -5.28,-0.11 -7.52,-1.5 -1.38,-1.69 -0.4,-3.66 -0.24,-5.56 -2.38,0.51 -4.31,-1.16 -1.91,-2.86 3.61,2.16 3.79,-2.4 5.39,-4.57 -0.13,-1.29 -0.42,-2.56 -0.54,-3.84 1.36,0.59 1.3,2.94 2.87,3.01 1.8,-2.35 0.92,-6.56 -2.6,-6.06 0.56,-2.18 -0.73,-7.33 2.45,-5.42 2.26,1.34 0.63,-2.95 3.06,-2.85 1.55,-4.1 0.49,-8.24 0.39,-12.42 1.04,-0.3 3.61,0.37 2.28,-1.4 -0.71,-1.34 2.05,-0.78 2.81,-1.28 m 47.96,23.6 c -2.21,3.72 -5.84,9.25 -2.72,13.19 -0.35,5.94 10.01,2.36 10.93,-1.92 4.39,-4.92 -2.62,-13.15 -8.21,-11.27 z"
       id="path31" />
  </g>
  <g
     id="#3a4143ff"
     transform="translate(-5.01,-4.98)">
    <path
       fill="#3a4143"
       opacity="1"
       d="m 101.18,184.07 c 5.59,-1.88 12.6,6.35 8.21,11.27 -0.92,4.28 -11.28,7.86 -10.93,1.92 -3.12,-3.94 0.51,-9.47 2.72,-13.19 z"
       id="path32" />
  </g>
  <g
     id="#252929ee"
     transform="translate(-5.01,-4.98)">
    <path
       fill="#252929"
       opacity="0.93"
       d="m 27.67,194.66 c 0.33,-0.1 1,-0.31 1.34,-0.41 1.11,2.66 5.93,4.75 4.36,8.09 -2.41,-1.86 -4.72,-4.72 -5.7,-7.68 z"
       id="path33" />
  </g>
  <g
     id="#ded3b8ff"
     transform="translate(-5.01,-4.98)">
    <path
       fill="#ded3b8"
       opacity="1"
       d="m 175.22,196.11 c 4.1,-0.3 12.43,1.67 9.81,7.88 3.89,6.26 -3.35,6.06 -5.34,3.34 -3.39,-2.12 -7.95,-7.65 -4.47,-11.22 z"
       id="path34" />
  </g>
  <g
     id="#272a2aec"
     transform="translate(-5.01,-4.98)">
    <path
       fill="#272a2a"
       opacity="0.93"
       d="m 34.7,203.59 c 0.29,-0.03 0.87,-0.08 1.15,-0.1 4.45,4.85 10.68,8.79 13.46,14.77 -6.07,-3.4 -10.95,-8.79 -14.61,-14.67 z"
       id="path35" />
  </g>
  <g
     id="#e0d5bafd"
     transform="translate(-5.01,-4.98)">
    <path
       fill="#e0d5ba"
       opacity="1"
       d="m 146.99,220.08 c 4.86,1.03 7.49,-3.7 11.74,-4.86 3.55,3.28 0.33,8.3 3.14,11.86 -0.05,1.56 -1.82,2.15 -3.1,2.47 -3.09,0.56 -1.43,4.87 -3.47,6.73 0.04,-2.12 1.48,-4.75 0.02,-6.58 -1.57,-2.49 -4.63,-1.83 -7.24,-1.71 -1.87,2.94 -3.46,6.19 -2.73,9.73 -2.17,2.52 -2.53,6.38 -5.52,8.15 -5.56,1.39 -11.39,1.39 -17.08,0.95 0.93,-0.91 1.86,-1.82 2.85,-2.67 0.56,-0.11 1.69,-0.34 2.25,-0.46 7.36,-7.01 13.25,-15.38 19.14,-23.61 z"
       id="path36" />
  </g>
  <g
     id="#cfc4a9fb"
     transform="translate(-5.01,-4.98)">
    <path
       fill="#cfc4a9"
       opacity="1"
       d="m 148.08,227.99 c 2.61,-0.12 5.67,-0.78 7.24,1.71 1.46,1.83 0.02,4.46 -0.02,6.58 -1.31,1.86 -4.45,6.78 -0.36,6.84 l -0.01,0.77 c -5.1,0.24 -9.98,2.41 -15.1,1.98 2.99,-1.77 3.35,-5.63 5.52,-8.15 -0.73,-3.54 0.86,-6.79 2.73,-9.73 z"
       id="path37" />
  </g>
  <g
     id="#171c1bd2"
     transform="translate(-5.01,-4.98)">
    <path
       fill="#171c1b"
       opacity="0.82"
       d="m 65.83,230.45 c 4.85,0.26 8.94,4.43 13.17,6.58 -4.98,-0.48 -9.23,-3.7 -13.17,-6.58 z"
       id="path38" />
  </g>
  <g
     id="#090909fc"
     transform="translate(-5.01,-4.98)">
    <path
       fill="#090909"
       opacity="1"
       d="m 120.8,246.93 c 3.79,-4.25 7.87,-8.24 12.22,-11.92 -1.08,3.93 -5.06,6.05 -7.42,9.14 -0.99,0.85 -1.92,1.76 -2.85,2.67 -0.49,0.03 -1.46,0.08 -1.95,0.11 z"
       id="path39" />
  </g>
</svg>
