<?xml version="1.0" encoding="UTF-8" standalone="no"?>
<svg
   width="452.009pt"
   height="728.11469pt"
   viewBox="0 0 452.009 728.11469"
   version="1.1"
   id="svg15"
   sodipodi:docname="unknown.svg"
   inkscape:version="1.4.2 (f4327f4, 2025-05-13)"
   xmlns:inkscape="http://www.inkscape.org/namespaces/inkscape"
   xmlns:sodipodi="http://sodipodi.sourceforge.net/DTD/sodipodi-0.dtd"
   xmlns="http://www.w3.org/2000/svg"
   xmlns:svg="http://www.w3.org/2000/svg">
  <defs
     id="defs15" />
  <sodipodi:namedview
     id="namedview15"
     pagecolor="#ffffff"
     bordercolor="#000000"
     borderopacity="0.25"
     inkscape:showpageshadow="2"
     inkscape:pageopacity="0.0"
     inkscape:pagecheckerboard="0"
     inkscape:deskcolor="#d1d1d1"
     inkscape:document-units="pt"
     inkscape:zoom="0.40033707"
     inkscape:cx="-12.489476"
     inkscape:cy="330.9711"
     inkscape:window-width="1920"
     inkscape:window-height="991"
     inkscape:window-x="-9"
     inkscape:window-y="-9"
     inkscape:window-maximized="1"
     inkscape:current-layer="svg15" />
  <g
     id="#000000fe"
     transform="translate(-280.011,-131.91115)">
    <path
       fill="#000000"
       opacity="1"
       d="m 391.98,159.01 c 46.72,-24.5 101.44,-31.5 153.38,-24.56 41.84,5.55 82.37,22.23 115.01,49.15 41.48,33.15 70.11,83.76 71.65,137.41 -0.07,5.99 -0.08,11.99 -0.01,17.99 -0.2,35.02 -14.27,68.64 -33.77,97.22 -16.75,23.25 -36.74,43.95 -58.23,62.79 -14.13,12.86 -29.11,24.81 -42.25,38.75 -9.89,9.04 -18.09,19.95 -24.05,31.96 -9.5,21.68 -10.14,46.02 -9.69,69.29 1.43,10.12 -8.18,18.71 -18.01,17.95 -25.34,0.11 -50.69,-0.01 -76.03,0.06 -7.14,-0.55 -14.15,-5.15 -15.38,-12.68 -1.38,-15.02 -0.23,-30.25 -0.6,-45.34 -0.78,-22.4 2.53,-45.16 11.08,-65.94 15.21,-36.46 43.4,-65.59 72.25,-91.7 25.41,-21.49 52.41,-43.42 66.69,-74.35 5.23,-9.84 7.85,-20.76 9.29,-31.75 0.59,-4.13 1.17,-8.46 0.11,-12.55 -1.59,-29.47 -21.14,-55.61 -46.49,-69.6 -14.21,-8.32 -30.33,-12.88 -46.67,-14.4 -3.43,-0.52 -6.82,-0.82 -10.27,-0.75 h -1 c -3.14,0 -6.25,-0.16 -9.29,0.61 -17.47,1.15 -34.45,6.87 -49.63,15.49 -20.92,12.2 -37.11,32.09 -45.11,54.92 -4.2,10.71 -6.42,22.03 -10.25,32.86 -2.18,5.24 -6.75,10.39 -12.86,10.21 -1.67,0 -5.02,0 -6.69,0 -26.13,-1.58 -52.06,-5.95 -78.18,-7.94 -4.46,-0.14 -8.82,-2.12 -12.32,-4.77 -3.05,-3.98 -5.21,-9.16 -4.52,-14.27 5.81,-24.86 11.99,-49.86 22.85,-73.08 8.75,-16.6 18.46,-32.9 31.25,-46.75 15.57,-19.47 36.56,-33.51 57.74,-46.23 z"
       id="path6" />
    <path
       fill="#000000"
       opacity="1"
       d="m 459.69,729.69 c 8.36,-9.04 21.17,-13.24 33.3,-12.71 13.34,0.07 26.68,-0.08 40.02,0.06 20.76,0.28 41.05,17.5 41.02,38.96 -0.08,21 -0.01,42.01 -0.03,63.02 -0.28,22.27 -20.9,41.39 -42.99,41 -13.34,-0.03 -26.69,-0.03 -40.02,0 -20.71,0.2 -41.03,-16.86 -42.02,-38.02 -0.31,-17.08 0.85,-34.23 -0.68,-51.25 -1.97,-14.47 0.67,-30.45 11.4,-41.06 z"
       id="path7" />
  </g>
</svg>
