<?xml version="1.0" encoding="UTF-8" ?>
<!DOCTYPE svg PUBLIC "-//W3C//DTD SVG 1.1//EN" "http://www.w3.org/Graphics/SVG/1.1/DTD/svg11.dtd">
<svg width="1024pt" height="1024pt" viewBox="0 0 1024 1024" version="1.1" xmlns="http://www.w3.org/2000/svg">
<g id="#1d1d1d2a">
<path fill="#1d1d1d" opacity="0.16" d=" M 0.00 0.00 L 105.02 0.00 L 104.99 0.99 C 70.33 1.02 35.66 0.98 1.00 1.01 L 0.00 0.99 L 0.00 0.00 Z" />
</g>
<g id="#16161626">
<path fill="#161616" opacity="0.15" d=" M 105.02 0.00 L 343.03 0.00 L 342.98 0.99 C 263.65 1.01 184.32 1.01 104.99 0.99 L 105.02 0.00 Z" />
</g>
<g id="#10101022">
<path fill="#101010" opacity="0.13" d=" M 343.03 0.00 L 877.03 0.00 L 876.98 0.99 C 698.98 1.01 520.98 1.01 342.98 0.99 L 343.03 0.00 Z" />
</g>
<g id="#18181825">
<path fill="#181818" opacity="0.15" d=" M 877.03 0.00 L 1024.00 0.00 L 1024.00 0.97 L 1023.00 1.01 L 1022.00 1.02 C 973.66 0.96 925.32 1.03 876.98 0.99 L 877.03 0.00 Z" />
</g>
<g id="#1313131c">
<path fill="#131313" opacity="0.11" d=" M 0.00 0.99 L 1.00 1.01 C 1.00 342.01 1.00 683.00 1.00 1024.00 L 0.00 1024.00 L 0.00 0.99 Z" />
</g>
<g id="#000000fe">
<path fill="#000000" opacity="1.00" d=" M 391.98 159.01 C 438.70 134.51 493.42 127.51 545.36 134.45 C 587.20 140.00 627.73 156.68 660.37 183.60 C 701.85 216.75 730.48 267.36 732.02 321.01 C 731.95 327.00 731.94 333.00 732.01 339.00 C 731.81 374.02 717.74 407.64 698.24 436.22 C 681.49 459.47 661.50 480.17 640.01 499.01 C 625.88 511.87 610.90 523.82 597.76 537.76 C 587.87 546.80 579.67 557.71 573.71 569.72 C 564.21 591.40 563.57 615.74 564.02 639.01 C 565.45 649.13 555.84 657.72 546.01 656.96 C 520.67 657.07 495.32 656.95 469.98 657.02 C 462.84 656.47 455.83 651.87 454.60 644.34 C 453.22 629.32 454.37 614.09 454.00 599.00 C 453.22 576.60 456.53 553.84 465.08 533.06 C 480.29 496.60 508.48 467.47 537.33 441.36 C 562.74 419.87 589.74 397.94 604.02 367.01 C 609.25 357.17 611.87 346.25 613.31 335.26 C 613.90 331.13 614.48 326.80 613.42 322.71 C 611.83 293.24 592.28 267.10 566.93 253.11 C 552.72 244.79 536.60 240.23 520.26 238.71 C 516.83 238.19 513.44 237.89 509.99 237.96 L 508.99 237.96 C 505.85 237.96 502.74 237.80 499.70 238.57 C 482.23 239.72 465.25 245.44 450.07 254.06 C 429.15 266.26 412.96 286.15 404.96 308.98 C 400.76 319.69 398.54 331.01 394.71 341.84 C 392.53 347.08 387.96 352.23 381.85 352.05 C 380.18 352.05 376.83 352.05 375.16 352.05 C 349.03 350.47 323.10 346.10 296.98 344.11 C 292.52 343.97 288.16 341.99 284.66 339.34 C 281.61 335.36 279.45 330.18 280.14 325.07 C 285.95 300.21 292.13 275.21 302.99 251.99 C 311.74 235.39 321.45 219.09 334.24 205.24 C 349.81 185.77 370.80 171.73 391.98 159.01 Z" />
<path fill="#000000" opacity="1.00" d=" M 459.69 729.69 C 468.05 720.65 480.86 716.45 492.99 716.98 C 506.33 717.05 519.67 716.90 533.01 717.04 C 553.77 717.32 574.06 734.54 574.03 756.00 C 573.95 777.00 574.02 798.01 574.00 819.02 C 573.72 841.29 553.10 860.41 531.01 860.02 C 517.67 859.99 504.32 859.99 490.99 860.02 C 470.28 860.22 449.96 843.16 448.97 822.00 C 448.66 804.92 449.82 787.77 448.29 770.75 C 446.32 756.28 448.96 740.30 459.69 729.69 Z" />
</g>
<g id="#02020249">
<path fill="#020202" opacity="0.29" d=" M 499.70 238.57 C 502.74 237.80 505.85 237.96 508.99 237.96 C 508.89 241.24 502.13 238.37 499.70 238.57 Z" />
</g>
<g id="#0202025a">
<path fill="#020202" opacity="0.35" d=" M 509.99 237.96 C 513.44 237.89 516.83 238.19 520.26 238.71 C 516.81 238.89 513.44 239.14 510.01 238.96 L 509.99 237.96 Z" />
</g>
<g id="#0404045f">
<path fill="#040404" opacity="0.37" d=" M 732.02 321.01 L 732.98 321.00 C 732.97 326.98 733.16 332.98 732.96 338.97 L 732.01 339.00 C 731.94 333.00 731.95 327.00 732.02 321.01 Z" />
</g>
<g id="#0302029e">
<path fill="#030202" opacity="0.62" d=" M 613.42 322.71 C 614.48 326.80 613.90 331.13 613.31 335.26 C 612.88 331.07 612.92 326.88 613.42 322.71 Z" />
</g>
<g id="#04040463">
<path fill="#040404" opacity="0.39" d=" M 375.16 352.05 C 376.83 352.05 380.18 352.05 381.85 352.05 C 381.04 353.85 375.95 353.85 375.16 352.05 Z" />
</g>
<g id="#0707070b">
<path fill="#070707" opacity="0.04" d=" M 1022.97 684.00 C 1023.10 677.25 1022.48 670.42 1024.00 663.79 L 1024.00 1024.00 L 1022.99 1024.00 C 1022.99 910.67 1023.03 797.33 1022.97 684.00 Z" />
</g>
<g id="#04040446">
<path fill="#040404" opacity="0.27" d=" M 574.03 756.00 L 574.99 756.00 C 574.98 776.99 575.07 797.98 574.96 818.97 L 574.00 819.02 C 574.02 798.01 573.95 777.00 574.03 756.00 Z" />
</g>
<g id="#000000f1">
<path fill="#000000" opacity="0.95" d=" M 448.29 770.75 C 449.82 787.77 448.66 804.92 448.97 822.00 L 448.01 822.00 C 448.12 804.91 447.66 787.82 448.29 770.75 Z" />
</g>
</svg>
