<?xml version="1.0" encoding="UTF-8"?>
<svg width="242.16258pt" height="242.38928pt" version="1.1" viewBox="0 0 242.16258 242.38928" xmlns="http://www.w3.org/2000/svg">
 <g id="#8882739b" transform="translate(-4.9083704,-4.5843769)">
  <path d="m113.14 5.99c0.92-2.13 5.01-1.33 6.86-0.5-2.16 0.85-4.45 1.01-6.86 0.5z" fill="#888273" opacity=".61"/>
 </g>
 <g id="#e4d9bffd" transform="translate(-4.9083704,-4.5843769)">
  <path d="m120 5.49c3.97-0.75 7.99-0.76 12.04-0.04 2.25 0.76 4.52 0.94 6.79 0.54 28.59 2.13 55.53 16.54 75.26 36.93 24.75 26.11 36.66 63.47 31.98 99.11-3.61 26.79-16.72 52.36-35.95 70.99-0.72-0.99-1.46-1.95-2.11-2.98 1.61-0.51 3.3-0.75 4.92-1.23 0.52-2.72-1.85-4.65-2.88-6.91-0.37-2.48 2.43-4.16 4.65-4.05-0.37 2.06-1.39 4.51 0.41 6.22 1.75-1.77 3.84-4.22 1.43-6.36 2.5-5.64 3.96-12.32 9.56-15.79-1-2.84-2.69-5.57-1.55-8.66-2.97-0.06-4.52-2.49-6.5-4.3-2.94-2.74-1.48-8.63 2.69-8.97 0.45 1.61-0.08 3.73 1.54 4.78 2.64 0.92 5.89 0.84 7.52 3.52 1.41 0.03-0.85 9.41 2.35 5.9 1.46-3.66 5.73-5.28 6.67-9.12-1.59-2.19-1.17-5.87-4.09-6.8-3.3-1.3-2.59 6.47-7.39 2.5-2.41-2.11-1.33-6.77-4.86-7.43-3.38 4.6-7.48-1.44-10.22-3.57 0.84 3.46-0.2 6.73-3.16 8.38-1.62-4.22-8.48-3.01-8.29-8.05-0.12-2.33-2.74-1.99-4.38-2.28 1.22-3.55-3.76-0.98-5.63-2.52 4.21 0.1 7.86-2.06 11.26-4.31 4.38 0.74 8.36 2.84 11.7 5.75 1.33-3.46 1.86-7.16 3.21-10.61-3.14-2.48-8.28-0.45-10.02-4.97 1.52-0.52 3.12-0.9 4.35-2.01 2.58 0.9 4.89 2.51 7.48 3.37 2.87-1.09 6.25-1.94 7.79-4.89 2.02-4.58 4.24-9.06 6.24-13.65-2.01-5.74-4.38-11.39-6.89-16.93-1.92-5.45-8.5-7.11-13.65-5.78-4.02 2.49-7.65 5.89-10.24 9.84-0.93 3.12 1.69 5.23 3.34 7.45-0.18 3.14 0.28 6.24 0.55 9.35-0.64 1.61-2.18 2.63-2.95 4.17-0.24 1.56 1.21 2.5 2.06 3.57-1.73 0.91-1.9 2.49-1.51 4.22-1.79 1.14-5.18 2.12-5.43-0.97-1.86-3.45 0.87-6.13 2.41-8.99-0.86-2.09-1.35-4.46-1.76-6.76-2.65-1.46-7.06 0.92-9.23-1.77-1.49 0.27-2.53 1.43-3.25 2.69-0.24-1.93-1.28-3.56-2.27-5.17 2.83-3.71 7.71-2.44 11.78-3.14 4.13-3.63 2.82-10.02 5.23-14.71-2.43-5.5-7.19-9.61-11.98-13.06-3.01-2.53-7.58 1.33-10.45-1.5-3.95-2.11-0.88-8.07-4.8-10.32-3.39-0.19-6.89 1.58-10.14 0.29-3.04-0.94-5.6-2.91-8.62-3.88 1.57-1.85 5.19-2.56 4.94-5.4-2.18-2.16-4.85-2.49-7.02-0.18-2.26-1.46-3.83-4.15-6.81-4.15-2.18-0.08 0.06-4.75-2.91-3.5-3.41 0.39-0.63-2.89-2.4-4.24l-2.72-0.16c-2.72 0.35-4.23 3.08-6.8 3.87-2.39-2.55-2.84-6.35-5.52-8.67-1.33-0.56-2.13 0.31-2.61 1.44 2 0.62 4.16 2.72 1.63 4.32-3.59-0.13-6.92-1.95-10.51-2.2-1.44-1.72-2.35-7.04-5.01-3.51 0.6 5.8 1.06 12.67-3.26 17.22-6.14-1.91-5.62-8.84-8.05-13.6-1.14-2.15-1.71-5.59-5.99-2.82-5.98-0.17-11.79 2.78-17.77 0.91-2.69-0.43-3.49-2.41-3.47-4.93-2.28 0.11-3.48 2.4-4.92 3.87-2.9 2.59-0.89 6.73-1.01 9.92-1.77 2.83-5.81 1.68-7.73 4.29-1.52 2.29-4.27 2.98-6.83 3.31-1.5-0.13-4.49-0.37-5.98-0.49 1.44-4.4-1.87-11.66-7.16-9.01 0.37-1.97 0.78-3.93 1.01-5.92 19.17-20.5 46.71-34.63 75.03-36.96 2.41 0.51 4.7 0.35 6.86-0.5m21.22 7.59c-2.13 4.38-0.36 9.54 2.99 12.77 4.01 1.41 6.64-4.53 6.75-7.7-3.11-1.83-5.59-6.21-9.74-5.07m26.77 21.89c-0.54 3.71 0.82 6.98 2.34 10.2-0.76 3.05 3.55 4.4 5.86 5.13l-0.27 0.78c4.05-0.08 4.89-5.44 7.1-8.09-0.98-2.4-3.6-3.77-5.25-5.69-3.69 0.73-6.28-2.62-9.78-2.33m26.09 11.04c-5.49 7.26-3.26 17.04 0.19 24.73 2.1 2.57 5.69 2.27 8.71 2.31 5.44 2.05 11.18 3.35 16.89 4.67 3.06-3.12 3.93-8.28 3.9-12.46-4.7-3.47-5.92-9.35-9.14-13.91-2.01-2.02-4.61-0.08-6.84 0.47l0.13-0.66c-4.91-0.98-8.83-5.38-13.84-5.15z" fill="#e4d9bf"/>
 </g>
 <g id="#8781719b" transform="translate(-4.9083704,-4.5843769)">
  <path d="m132.04 5.45c1.82-0.81 6.01-1.67 6.79 0.54-2.27 0.4-4.54 0.22-6.79-0.54z" fill="#878171" opacity=".61"/>
 </g>
 <g id="#d7ccb1ff" transform="translate(-4.9083704,-4.5843769)" fill="#d7ccb1">
  <path d="m141.22 13.08c4.15-1.14 6.63 3.24 9.74 5.07-0.11 3.17-2.74 9.11-6.75 7.7-3.35-3.23-5.12-8.39-2.99-12.77z"/>
  <path d="m65.81 40.85c1.44-1.47 2.64-3.76 4.92-3.87-0.02 2.52 0.78 4.5 3.47 4.93-2.82-0.27-5.64-0.41-8.39-1.06z"/>
 </g>
 <g id="#ded3b8ff" transform="translate(-4.9083704,-4.5843769)">
  <path d="m167.99 34.97c3.5-0.29 6.09 3.06 9.78 2.33 1.65 1.92 4.27 3.29 5.25 5.69-2.21 2.65-3.05 8.01-7.1 8.09l0.27-0.78c4.79-2.94 3.02-9.54-1.32-12.2-3.3 0.7-4.99 3.6-4.54 7.07-1.52-3.22-2.88-6.49-2.34-10.2z" fill="#ded3b8"/>
 </g>
 <g id="#d4c9aeff" transform="translate(-4.9083704,-4.5843769)" fill="#d4c9ae">
  <path d="m170.33 45.17c-0.45-3.47 1.24-6.37 4.54-7.07 4.34 2.66 6.11 9.26 1.32 12.2-2.31-0.73-6.62-2.08-5.86-5.13z"/>
  <path d="m190.03 139.04c2.7-2.94 6.27-5.78 10.71-3.96 1.94 1.33 1.03 3.93 1.32 5.91-3.4 2.25-7.05 4.41-11.26 4.31-2.36-1.15-2.39-4.47-0.77-6.26z"/>
 </g>
 <g id="#e2d8bdff" transform="translate(-4.9083704,-4.5843769)">
  <path d="m109.27 40.2c2.66-3.53 3.57 1.79 5.01 3.51 3.59 0.25 6.92 2.07 10.51 2.2 2.53-1.6 0.37-3.7-1.63-4.32 0.48-1.13 1.28-2 2.61-1.44 2.68 2.32 3.13 6.12 5.52 8.67 2.57-0.79 4.08-3.52 6.8-3.87-1.21 1.57-2.64 3.07-3.18 5.04-0.95 4.06-5.61 4.95-7.74 8.17-2.21 3.87-7.8 0.53-11.1 1.97-2.87 0.24-4.51 4.81-1.3 6.06 4.41 2.47 13 2.84 12.1 9.58-1.92 2.98-5-1.64-7.65-0.64-2.46 1.86-2.27 5.14-3.46 7.72-1.96 3.99-1.95 8.58-3.05 12.82-3.56 1.23-6.98 2.76-8.97 6.14-3.24 0.06-6.45-0.54-9.64-0.98-0.11-2.94-0.12-5.85-0.13-8.78-1.85-8.32 3.9-14.64 8.35-20.76 2.29-2.49 6.78-4.25 6.63-8.21-0.7-2.02-1.84-3.84-2.94-5.66 4.32-4.55 3.86-11.42 3.26-17.22z" fill="#e2d8bd"/>
 </g>
 <g id="#c7bca1ff" transform="translate(-4.9083704,-4.5843769)">
  <path d="m64.8 50.77c0.12-3.19-1.89-7.33 1.01-9.92 2.75 0.65 5.57 0.79 8.39 1.06 5.98 1.87 11.79-1.08 17.77-0.91 4.28-2.77 4.85 0.67 5.99 2.82-1.98 1.47-3.64 3.22-4.98 5.24 0.09 1.89 2.35 1.34 3.61 1.33 1.7 4.76 5.71 8.15 9.01 11.83-0.52 1.8 0.06 4.68-2.25 5.21-3.15 2.15-6.58-2.84-9.36 0.44-0.71-2.4-1-4.88-2.36-7.08 0.79-3.51-1.54-8.01-5.67-6.81 0.05 1.76 0.4 3.49 0.72 5.21-2.03 0.59-3.43-3.66-4.62-1.15-1.36 3.27-4.95 1.72-7.01 0.11-0.97 0.86-1.84 3.17 0.18 3.19 2.98-0.07 6.39 2.45 5.81 5.71-4.27 0.77-5.79-5.39-10.14-4.05 1.95 4.03 3.5 8.23 4.57 12.59 1.28 1.07 2.2 2.31 1.98 4.06 2.75 1.45 5.69 2.34 8.67 0.98 1.57 0.75 3.3 0.9 4.92 1.48-0.4 2.51-2.28 4.93-4.92 5.22 1.95 2.26 4.32 7.23 7.85 4.72 0.01 2.93 0.02 5.84 0.13 8.78 3.19 0.44 6.4 1.04 9.64 0.98 1.99-3.38 5.41-4.91 8.97-6.14 1.1-4.24 1.09-8.83 3.05-12.82 1.19-2.58 1-5.86 3.46-7.72 2.65-1 5.73 3.62 7.65 0.64 0.9-6.74-7.69-7.11-12.1-9.58-3.21-1.25-1.57-5.82 1.3-6.06 3.3-1.44 8.89 1.9 11.1-1.97 2.13-3.22 6.79-4.11 7.74-8.17 2.77-0.09 5.61 0.2 8.3-0.64 2.97-1.25 0.73 3.42 2.91 3.5 2.98 0 4.55 2.69 6.81 4.15 2.17-2.31 4.84-1.98 7.02 0.18 0.25 2.84-3.37 3.55-4.94 5.4 3.02 0.97 5.58 2.94 8.62 3.88 3.25 1.29 6.75-0.48 10.14-0.29 3.92 2.25 0.85 8.21 4.8 10.32 2.87 2.83 7.44-1.03 10.45 1.5 4.79 3.45 9.55 7.56 11.98 13.06-2.41 4.69-1.1 11.08-5.23 14.71-4.07 0.7-8.95-0.57-11.78 3.14 0.99 1.61 2.03 3.24 2.27 5.17-0.07 5.5-4.65 10.05-8.77 13.18l-0.32-1.11c-0.39-1.41-0.83-2.86-1.74-4.03-1.09-1.39-2.3-2.72-3.77-3.71-8.7-0.16-16.75-5.94-21.01-13.19-0.03-2.57 1.1-4.73 2.9-6.48-0.35-3.08 0.8-8.13-3.19-9.06-2.79-0.68-5.83 0.71-8.55-0.54-4.46-2.7-10.01-2.36-14.84-4.21-0.24 5.38 3 9.99 4.03 15.08-0.84 3.46-2.68 6.68-4.19 9.91-3.4-0.19-6.81-0.3-10.22-0.31-2.45 1.93-5.08 3.63-7.46 5.64-0.4 4.86 5.49 7.92 5.86 12.7-2.17 5.14-7.16 8.36-10.18 12.97-4.07 2.81-5.77 10.34-1.12 13.41 4.34 4.89 13.4 4.54 15.54 11.55 1.25 2.16 0.43 4.4-0.88 6.3-1.97-1.09-3.56-2.66-5.22-4.15-1 0.84-2.01 2.03-3.48 1.56-4.31-2.89-5.25 1.53-7.35 3.55-0.14-0.79-0.4-2.35-0.53-3.13-5.11-0.03-2.52 7.8 1.52 7.46 1.71 0.42 5.42-0.41 4.65 2.37-4.16 0.16-10.13 3.52-12.52-1.24-1.23-2.26-3.99-2.54-5.91-3.98-3.35-1.53-5.12-4.94-7.7-7.38-2.2 0.38-7.89 3.14-4.29 5.09-0.97 1-1.69 2.09-0.65 3.35-3.21 4.01-4.44 11.1-0.92 15.37 1.42 1.64 0.08 3.79 0.21 5.68 1.22 0.58 2.47 1.1 3.73 1.62 3.35 1.63 6.13 4.7 6.25 8.6-2.42-0.19-3.46 1.97-3.39 4.07l-0.81 0.02c-2.88 0.09-5.98 0.49-7.67-2.18 0.38-2.46 1.4-4.73 2.52-6.92 0.54-1.7-2.25-2.49-3.37-1.45-2.61 1.97-8.36 2.12-9.13-1.79-1.37-5.47 5.24-10.63 2.78-15.92-1.03-2.15-4.45 1.07-5.86-0.97-1.65-0.94-1.17-2.99-1.18-4.56 0.15-0.77 7.76 0.29 5.65-2.85-3.66-3.26-10.33-2.93-11.47-8.51-0.08-2.79-3.64-2.13-5.17-0.89 0.66 0.69 1.32 1.39 1.97 2.09-2.03 2.72-3.81 6.34-8.1 5.47-3.79-2.94-8.98-0.08-13.49-0.89-0.48-1.22-0.9-2.45-1.48-3.62 1.16-7.49-6.85-11.46-9.04-17.95-0.5-2.53-1.94-4.46-3.72-6.21 1.95-6.7-4.97-11.53-5.97-17.83 1.93-3.2 2.17-7.14 1.37-10.73-1.04-3.75 1.36-7.33 1.26-11.1 0.03-2.82 0.14-5.64 0.32-8.46 2.9 4.08 2.67 9.62 3.95 14.22 3.63 3.63 3.85 9.86 8.86 12.1 0.98-0.81 1.89-1.71 2.75-2.65-1-0.5-1.61-1.3-1.82-2.39 1.64 0.06 3.27 0.22 4.89 0.43 0.11 1.65 1.69 4.1-0.45 5 0.28 1.94 1.87 3.08 3.69 3.48 3.11 1.09 1.77-6.32 4.75-2.88-0.7 1.97-1.79 3.86-1.74 6.02-0.13 1.56-0.2 3.13-0.34 4.7-0.84 2.24-2.09 4.52-1.62 7.01 2.57 1 5.3 1.5 7.9 2.39 0.86 1.31 2.06-0.85 2.63-1.5 0.2-3.23 0.38-7.76 4.07-9.03 3.96-1.34 3.24-8.54 9.34-5.75 2.95-0.41 4.5-3.53 6.94-4.96 3.18 1.53 8.03 7.48 10.78 2.75 0.84-3.82 0.94-7.72 1.32-11.59 2.19-2.12 5.01-4.34 8.26-3.53 1.32 0.6 2.07-0.38 2.67-1.42 1.4-2.1 3.18-4.21 2.05-7.15-4.68-0.12-9.38-0.14-13.97 0.79-2.8-0.57-5.3-2.01-7.89-3.13-1.62-0.68-3.26-1.41-5.01-1.63-2.08 1.43-0.36 3.22 0.62 4.69-4.93 1.31-7.18 7.64-12.65 8.34-0.18-0.36-0.53-1.08-0.71-1.44 2.21-7.54-2.16-3.41-4.59-2.71 1.15-2.19 2.98-4.14 2.25-7-0.7 0.73-1.41 1.45-2.12 2.16-1.79-1.44-2.87-4.55-5.65-3.72-6.55-0.34-10.21-6.83-12.19-12.35 2.27 0.83 5.69 1.54 7-1.03-1.96-2.67-4.84-4.69-6.12-7.83 2.23-1.06 4.85-1.79 6-4.22 3.96-3.07 9.99-5.54 9.34-11.61 1.03-1.67 3.24-1.36 4.89-1.95 2.56-0.33 5.31-1.02 6.83-3.31 1.92-2.61 5.96-1.46 7.73-4.29z" fill="#c7bca1"/>
 </g>
 <g id="#d7cdb3fb" transform="translate(-4.9083704,-4.5843769)">
  <path d="m29.71 53.32c2.04-4.02 5.54-7.03 8.4-10.37-0.23 1.99-0.64 3.95-1.01 5.92 5.29-2.65 8.6 4.61 7.16 9.01 1.49 0.12 4.48 0.36 5.98 0.49-1.65 0.59-3.86 0.28-4.89 1.95 0.65 6.07-5.38 8.54-9.34 11.61-3.91 0.43-7.83 0.83-11.7-0.33-2.88-0.82-3.83 2.87-6.18 3.54-0.06-0.81-0.17-2.42-0.22-3.23 2.58-6.01 6.31-11.87 10.42-17.07-1.74 6.19 6.27 7.72 10.01 5.49 1.47-2.4 5.71-6.72 2.43-9.2-4.41-1.64-6.16 5.59-11.06 2.19z" fill="#d7cdb3"/>
 </g>
 <g id="#c5b99fff" transform="translate(-4.9083704,-4.5843769)">
  <path d="m92.98 49.06c1.34-2.02 3-3.77 4.98-5.24 2.43 4.76 1.91 11.69 8.05 13.6 1.1 1.82 2.24 3.64 2.94 5.66 0.15 3.96-4.34 5.72-6.63 8.21-4.45 6.12-10.2 12.44-8.35 20.76-3.53 2.51-5.9-2.46-7.85-4.72 2.64-0.29 4.52-2.71 4.92-5.22-1.62-0.58-3.35-0.73-4.92-1.48-2.98 1.36-5.92 0.47-8.67-0.98 0.22-1.75-0.7-2.99-1.98-4.06-1.07-4.36-2.62-8.56-4.57-12.59 4.35-1.34 5.87 4.82 10.14 4.05 0.58-3.26-2.83-5.78-5.81-5.71-2.02-0.02-1.15-2.33-0.18-3.19 2.06 1.61 5.65 3.16 7.01-0.11 1.19-2.51 2.59 1.74 4.62 1.15-0.32-1.72-0.67-3.45-0.72-5.21 4.13-1.2 6.46 3.3 5.67 6.81 1.36 2.2 1.65 4.68 2.36 7.08 2.78-3.28 6.21 1.71 9.36-0.44 2.31-0.53 1.73-3.41 2.25-5.21-3.3-3.68-7.31-7.07-9.01-11.83-1.26 0.01-3.52 0.56-3.61-1.33z" fill="#c5b99f"/>
 </g>
 <g id="#d2c6acff" transform="translate(-4.9083704,-4.5843769)">
  <path d="m138.09 44.95 2.72 0.16c1.77 1.35-1.01 4.63 2.4 4.24-2.69 0.84-5.53 0.55-8.3 0.64 0.54-1.97 1.97-3.47 3.18-5.04z" fill="#d2c6ac"/>
 </g>
 <g id="#c8bda3ff" transform="translate(-4.9083704,-4.5843769)">
  <path d="m194.08 46.01c5.01-0.23 8.93 4.17 13.84 5.15l-0.13 0.66-0.8 1.12c4.83-2.53 9.18 2.47 7.6 6.74-1.69 3.28 3.76 3.64 3.18 6.89 2.8 1.26 1.84 3.99 1.02 6.29-7.87 1.09-14.42-3.77-21.77-5.6-0.24 0.39-0.74 1.16-0.99 1.55 2.24 1.53 4.68 2.75 6.95 4.24-3.02-0.04-6.61 0.26-8.71-2.31-3.45-7.69-5.68-17.47-0.19-24.73z" fill="#c8bda3"/>
 </g>
 <g id="#c4b89eff" transform="translate(-4.9083704,-4.5843769)">
  <path d="m207.79 51.82c2.23-0.55 4.83-2.49 6.84-0.47 3.22 4.56 4.44 10.44 9.14 13.91 0.03 4.18-0.84 9.34-3.9 12.46-5.71-1.32-11.45-2.62-16.89-4.67-2.27-1.49-4.71-2.71-6.95-4.24 0.25-0.39 0.75-1.16 0.99-1.55 7.35 1.83 13.9 6.69 21.77 5.6 0.82-2.3 1.78-5.03-1.02-6.29 0.58-3.25-4.87-3.61-3.18-6.89 1.58-4.27-2.77-9.27-7.6-6.74l0.8-1.12z" fill="#c4b89e"/>
 </g>
 <g id="#d0c5aafd" transform="translate(-4.9083704,-4.5843769)">
  <path d="m29.71 53.32c4.9 3.4 6.65-3.83 11.06-2.19 3.28 2.48-0.96 6.8-2.43 9.2-3.74 2.23-11.75 0.7-10.01-5.49-0.13-1.02 0.33-1.53 1.38-1.52z" fill="#d0c5aa"/>
 </g>
 <g id="#c9bfa4fe" transform="translate(-4.9083704,-4.5843769)">
  <path d="m18.13 75.14c2.35-0.67 3.3-4.36 6.18-3.54 3.87 1.16 7.79 0.76 11.7 0.33-1.15 2.43-3.77 3.16-6 4.22 1.28 3.14 4.16 5.16 6.12 7.83-1.31 2.57-4.73 1.86-7 1.03 1.98 5.52 5.64 12.01 12.19 12.35 2.78-0.83 3.86 2.28 5.65 3.72 0.71-0.71 1.42-1.43 2.12-2.16 0.73 2.86-1.1 4.81-2.25 7 2.43-0.7 6.8-4.83 4.59 2.71 0.18 0.36 0.53 1.08 0.71 1.44 5.47-0.7 7.72-7.03 12.65-8.34-0.98-1.47-2.7-3.26-0.62-4.69 1.75 0.22 3.39 0.95 5.01 1.63-3.92-0.24-0.87 4.01-1.26 6.23-0.86 1.77-1.98 3.4-2.94 5.13-1.83-1.92-4.54-2.82-6.58-0.6-4.05 3.7-9.67 4.71-14.07 7.89-1.8 2.19-2.98 4.98-3.34 7.79-1.48 1.16-2.83 2.47-3.95 3.98-0.05-2.16 1.04-4.05 1.74-6.02-2.98-3.44-1.64 3.97-4.75 2.88-1.82-0.4-3.41-1.54-3.69-3.48 2.14-0.9 0.56-3.35 0.45-5-1.62-0.21-3.25-0.37-4.89-0.43 0.21 1.09 0.82 1.89 1.82 2.39-0.86 0.94-1.77 1.84-2.75 2.65-5.01-2.24-5.23-8.47-8.86-12.1-1.28-4.6-1.05-10.14-3.95-14.22-0.18 2.82-0.29 5.64-0.32 8.46-0.12-2.97-0.32-5.9-3.71-5.34 1.34-8.3 5.01-16 7.93-23.83 0.61-1.02 0.6-2.64 1.85-3.14 0.05 0.81 0.16 2.42 0.22 3.23z" fill="#c9bfa4"/>
 </g>
 <g id="#e4dabfff" transform="translate(-4.9083704,-4.5843769)">
  <path d="m126.97 84.92c4.83 1.85 10.38 1.51 14.84 4.21-0.19 2.91 3.56 4.29 2.63 7.19-0.64 3.08 2.47 6.25-0.33 8.89 2.87 0.02 2.75-4.43 5.59-4.17 0.32 1.39 0.5 2.81 0.95 4.17 4.26 7.25 12.31 13.03 21.01 13.19 1.47 0.99 2.68 2.32 3.77 3.71-1.43 0.77-2.99 0.17-4.49 0.06-0.27 3.27 4.2 2.66 6.23 3.97l0.32 1.11c-3.6 2.23-7.3 0.83-9.83-1.8-3.05 0.4-6.48-0.05-8.23-2.9-2.95-1.63-6.48-3.81-9.85-2.16-3.83 3.06-8.06-2.3-6.7-5.58 2.07-2.69-0.3-7.59-3.97-6.08-3.22 1.25-0.36-2.49-2.03-3.77-2.59 1.89-4.88 4.24-6.85 6.78 2.62 1.22 5.42 2.02 7.95 3.42 0.06 3.66-1.09 7.14-2.3 10.53-1.64 1.56-4.16 1.58-5.81 3.19-1.77-0.7-3.25-1.93-4.91-2.83-4.6 1.13-4.96 6.93-4.08 10.78-1.14 0.44-2.3 1.05-3.55 0.67-4.6-1.24-7.75 4.21-12.52 3.41 3.02-4.61 8.01-7.83 10.18-12.97-0.37-4.78-6.26-7.84-5.86-12.7 2.38-2.01 5.01-3.71 7.46-5.64 3.41 0.01 6.82 0.12 10.22 0.31 1.51-3.23 3.35-6.45 4.19-9.91-1.03-5.09-4.27-9.7-4.03-15.08m4.21 30.16c-2.7 2.47-2.13 6.22-0.01 8.85 5.33 1.46 8.54-13.6 0.01-8.85z" fill="#e4dabf"/>
 </g>
 <g id="#ded3b9fe" transform="translate(-4.9083704,-4.5843769)">
  <path d="m141.81 89.13c2.72 1.25 5.76-0.14 8.55 0.54 3.99 0.93 2.84 5.98 3.19 9.06-1.8 1.75-2.93 3.91-2.9 6.48-0.45-1.36-0.63-2.78-0.95-4.17-2.84-0.26-2.72 4.19-5.59 4.17 2.8-2.64-0.31-5.81 0.33-8.89 0.93-2.9-2.82-4.28-2.63-7.19z" fill="#ded3b9"/>
 </g>
 <g id="#c8bda2ff" transform="translate(-4.9083704,-4.5843769)">
  <path d="m212.27 91.27c5.15-1.33 11.73 0.33 13.65 5.78 2.51 5.54 4.88 11.19 6.89 16.93-2 4.59-4.22 9.07-6.24 13.65-1.54 2.95-4.92 3.8-7.79 4.89-2.59-0.86-4.9-2.47-7.48-3.37-2.13-1.09-4.16-2.38-6.27-3.5-0.85-1.07-2.3-2.01-2.06-3.57 0.77-1.54 2.31-2.56 2.95-4.17-0.27-3.11-0.73-6.21-0.55-9.35-1.65-2.22-4.27-4.33-3.34-7.45 2.59-3.95 6.22-7.35 10.24-9.84z" fill="#c8bda2"/>
 </g>
 <g id="#dcd2b7fb" transform="translate(-4.9083704,-4.5843769)">
  <path d="m8.13 98.88c3.39-0.56 3.59 2.37 3.71 5.34 0.1 3.77-2.3 7.35-1.26 11.1 0.8 3.59 0.56 7.53-1.37 10.73 1 6.3 7.92 11.13 5.97 17.83 1.78 1.75 3.22 3.68 3.72 6.21 2.19 6.49 10.2 10.46 9.04 17.95-0.63 4.66-1.4 9.52 1.34 13.69 5.52 2.81 13.65 0.78 17.76 6.15 1.34 2.36 5.44 7.23-3.03 4.14-2.86-0.46-4.98 3.3-3.04 6-0.26 2.79 2.93 4.02 5.03 4.99 2.86-1.31 5.36-3.3 7.93-5.08 3.02-4.66 3.65-11.36 9.13-13.99 1.32-0.46 2.65-0.84 4.01-1.17 2.46 5.29-4.15 10.45-2.78 15.92 0.77 3.91 6.52 3.76 9.13 1.79 1.12-1.04 3.91-0.25 3.37 1.45-1.12 2.19-2.14 4.46-2.52 6.92 1.69 2.67 4.79 2.27 7.67 2.18-0.47 5.31-6.49 5.89-9.24 9.66-4.43 4 6.58 8.11 1.63 11.24-0.17-3.28-2.17-0.74-3.15 0.62 1.02 0.75 2.05 1.5 3.03 2.3-0.47-0.04-1.43-0.12-1.91-0.16-23.68-12.29-43.5-31.69-55.22-55.75-11.45-24.67-15.69-53.5-8.95-80.06z" fill="#dcd2b7"/>
 </g>
 <g id="#e0d6bbff" transform="translate(-4.9083704,-4.5843769)">
  <path d="m67.92 104.9c0.39-2.22-2.66-6.47 1.26-6.23 2.59 1.12 5.09 2.56 7.89 3.13 4.59-0.93 9.29-0.91 13.97-0.79 1.13 2.94-0.65 5.05-2.05 7.15-2.6 0.41-1.57-1.75-1.29-3.3-4.02 1.27-9.12 3.67-9.64 8.25-0.38 3.87-0.48 7.77-1.32 11.59-2.75 4.73-7.6-1.22-10.78-2.75-2.44 1.43-3.99 4.55-6.94 4.96-6.1-2.79-5.38 4.41-9.34 5.75-3.69 1.27-3.87 5.8-4.07 9.03-0.57 0.65-1.77 2.81-2.63 1.5-2.35-3.09-7.09-4.7-6.28-9.4 0.14-1.57 0.21-3.14 0.34-4.7 1.12-1.51 2.47-2.82 3.95-3.98 4.81-1.48 8.33-5.18 12.76-7.38 1.79-2.48 3.1-5.36 5.37-7.47 2.09 0.55 5.06 3.16 5.86-0.23 0.96-1.73 2.08-3.36 2.94-5.13z" fill="#e0d6bb"/>
 </g>
 <g id="#d2c7acfe" transform="translate(-4.9083704,-4.5843769)">
  <path d="m78.06 113.11c0.52-4.58 5.62-6.98 9.64-8.25-0.28 1.55-1.31 3.71 1.29 3.3-0.6 1.04-1.35 2.02-2.67 1.42-3.25-0.81-6.07 1.41-8.26 3.53z" fill="#d2c7ac"/>
 </g>
 <g id="#e9dfc4ff" transform="translate(-4.9083704,-4.5843769)">
  <path d="m130.03 111.74c1.97-2.54 4.26-4.89 6.85-6.78 1.67 1.28-1.19 5.02 2.03 3.77 3.67-1.51 6.04 3.39 3.97 6.08-1.36 3.28 2.87 8.64 6.7 5.58 3.37-1.65 6.9 0.53 9.85 2.16 1.75 2.85 5.18 3.3 8.23 2.9 2.53 2.63 6.23 4.03 9.83 1.8 4.12-3.13 8.7-7.68 8.77-13.18 0.72-1.26 1.76-2.42 3.25-2.69 2.17 2.69 6.58 0.31 9.23 1.77 0.41 2.3 0.9 4.67 1.76 6.76-1.54 2.86-4.27 5.54-2.41 8.99 0.25 3.09 3.64 2.11 5.43 0.97-0.39-1.73-0.22-3.31 1.51-4.22 2.11 1.12 4.14 2.41 6.27 3.5-1.23 1.11-2.83 1.49-4.35 2.01 1.74 4.52 6.88 2.49 10.02 4.97-1.35 3.45-1.88 7.15-3.21 10.61-3.34-2.91-7.32-5.01-11.7-5.75-0.29-1.98 0.62-4.58-1.32-5.91-4.44-1.82-8.01 1.02-10.71 3.96-1.62 1.79-1.59 5.11 0.77 6.26 1.87 1.54 6.85-1.03 5.63 2.52 1.64 0.29 4.26-0.05 4.38 2.28-0.19 5.04 6.67 3.83 8.29 8.05 2.96-1.65 4-4.92 3.16-8.38 2.74 2.13 6.84 8.17 10.22 3.57 3.53 0.66 2.45 5.32 4.86 7.43 4.8 3.97 4.09-3.8 7.39-2.5 2.92 0.93 2.5 4.61 4.09 6.8-0.94 3.84-5.21 5.46-6.67 9.12-3.2 3.51-0.94-5.87-2.35-5.9-1.63-2.68-4.88-2.6-7.52-3.52-1.62-1.05-1.09-3.17-1.54-4.78-4.17 0.34-5.63 6.23-2.69 8.97 1.98 1.81 3.53 4.24 6.5 4.3-1.14 3.09 0.55 5.82 1.55 8.66-5.6 3.47-7.06 10.15-9.56 15.79 2.41 2.14 0.32 4.59-1.43 6.36-1.8-1.71-0.78-4.16-0.41-6.22-2.22-0.11-5.02 1.57-4.65 4.05 1.03 2.26 3.4 4.19 2.88 6.91-1.62 0.48-3.31 0.72-4.92 1.23 0.65 1.03 1.39 1.99 2.11 2.98-9.04 8.93-19.91 16-31.18 21.9-3.78 0.87-6.95 4.3-10.92 4-1.93-0.5-3.91-0.65-5.88-0.42-2.23-1.92 1.19-6.07-1.85-7.81-1.2-2.38-3.28-0.49-5.09-0.07-1.64-1.05-3.18-2.25-4.99-3.02 0.67-1.35 1.53-2.59 2.29-3.88-0.47-1.89-1.39-3.65-1.6-5.6 1.29 0.18 2.56 0.52 3.87 0.64 3.39-3.65 7.31-7.32 7.9-12.57-1.7-2.69-3.63-5.22-4.85-8.18-4.32 2.06-6.25 6.95-10.14 9.63-2.53 0.8-5.2 1.48-7.81 0.62-2.17-0.93-4.18 0.76-4.87 2.72 1.64 3.81 4.09 7.22 6.31 10.71 3.16 3.16 7.52 5.36 9.67 9.41 0.6 3.09-3.62 3.16-5.56 4.32-0.45 1.74-0.46 3.87-2.62 4.29-2.38-0.77-5.03-1.82-6.39-4.04-0.45-3.42-1.56-6.77-3.52-9.61-1.68 1.12-4 1.92-4.48 4.12-0.46 2.24-3.56 3.29-3.3 5.64 1.38 1.73 2.51 3.63 3.42 5.65 1.18 0.52 2.89 0.69 2.38 2.44-1.87 0.79-3.84 0.29-5.78 0.28-2.51 1.29-7.83 4.6-5.64-2.8-0.11-6.48-4.71-12.67-4.06-18.99 3.47-2.83 1.85-7.56 1.71-11.32 2.04-3.68 5.58-6.3 8.68-9.05 1.11 2.9 3.37 6.44 6.95 5.91 1.97-3.8 4.52-7.34 5.6-11.54-1.13-1.77-2.27-3.54-3.38-5.33 1.59-1.85 7.93 2.07 8.22-1.94 0.67-2.6 7.98-5.23-2.1-3.04-4.09 1.99-7.83 4.83-12.67 4.89 0.89-2.69-1.6-2.89-3.54-2.14 0.03-1.58 1.21-2.63 2.31-3.6 1.9-0.07 4.44 1.69 5.68-0.46-0.08-3.21-2.93-5.85-5.65-7.23-3.76-2.04-8.26 1.87-8.56 5.66-0.41-0.34-1.21-1.03-1.61-1.37-0.23-3.32-0.51-6.75 1.28-9.67 1.31-1.9 2.13-4.14 0.88-6.3-2.14-7.01-11.2-6.66-15.54-11.55-4.65-3.07-2.95-10.6 1.12-13.41 4.77 0.8 7.92-4.65 12.52-3.41 1.25 0.38 2.41-0.23 3.55-0.67-0.88-3.85-0.52-9.65 4.08-10.78 1.66 0.9 3.14 2.13 4.91 2.83 1.65-1.61 4.17-1.63 5.81-3.19 1.21-3.39 2.36-6.87 2.3-10.53-2.53-1.4-5.33-2.2-7.95-3.42z" fill="#e9dfc4"/>
 </g>
 <g id="#cfc5aaff" transform="translate(-4.9083704,-4.5843769)">
  <path d="m58.4 109.43c2.04-2.22 4.75-1.32 6.58 0.6-0.8 3.39-3.77 0.78-5.86 0.23-2.27 2.11-3.58 4.99-5.37 7.47-4.43 2.2-7.95 5.9-12.76 7.38 0.36-2.81 1.54-5.6 3.34-7.79 4.4-3.18 10.02-4.19 14.07-7.89z" fill="#cfc5aa"/>
 </g>
 <g id="#ddd2b7ff" transform="translate(-4.9083704,-4.5843769)">
  <path d="m131.18 115.08c8.53-4.75 5.32 10.31-0.01 8.85-2.12-2.63-2.69-6.38 0.01-8.85z" fill="#ddd2b7"/>
 </g>
 <g id="#d4c9afff" transform="translate(-4.9083704,-4.5843769)">
  <path d="m170.94 122.17c1.5 0.11 3.06 0.71 4.49-0.06 0.91 1.17 1.35 2.62 1.74 4.03-2.03-1.31-6.5-0.7-6.23-3.97z" fill="#d4c9af"/>
 </g>
 <g id="#d4caaffe" transform="translate(-4.9083704,-4.5843769)">
  <path d="m35.08 140.8c-0.47-2.49 0.78-4.77 1.62-7.01-0.81 4.7 3.93 6.31 6.28 9.4-2.6-0.89-5.33-1.39-7.9-2.39z" fill="#d4caaf"/>
 </g>
 <g id="#c9bea3ff" transform="translate(-4.9083704,-4.5843769)">
  <path d="m49.04 164.99c1.53-1.24 5.09-1.9 5.17 0.89 1.14 5.58 7.81 5.25 11.47 8.51 2.11 3.14-5.5 2.08-5.65 2.85 0.01 1.57-0.47 3.62 1.18 4.56 1.41 2.04 4.83-1.18 5.86 0.97-1.36 0.33-2.69 0.71-4.01 1.17-2.32 0.42-4.63 0.84-6.95 1.29 0.35 2.1 0.89 4.35-1.34 5.61-2.88 0.47-4.98-2.42-7.73-2.96-4.11-5.37-12.24-3.34-17.76-6.15-2.74-4.17-1.97-9.03-1.34-13.69 0.58 1.17 1 2.4 1.48 3.62 4.51 0.81 9.7-2.05 13.49 0.89 4.29 0.87 6.07-2.75 8.1-5.47-0.65-0.7-1.31-1.4-1.97-2.09z" fill="#c9bea3"/>
 </g>
 <g id="#c4b99eff" transform="translate(-4.9083704,-4.5843769)">
  <path d="m77.52 172.32c-3.6-1.95 2.09-4.71 4.29-5.09 2.58 2.44 4.35 5.85 7.7 7.38 1.92 1.44 4.68 1.72 5.91 3.98 2.39 4.76 8.36 1.4 12.52 1.24 0.77-2.78-2.94-1.95-4.65-2.37-4.04 0.34-6.63-7.49-1.52-7.46 0.13 0.78 0.39 2.34 0.53 3.13 2.1-2.02 3.04-6.44 7.35-3.55 1.47 0.47 2.48-0.72 3.48-1.56 1.66 1.49 3.25 3.06 5.22 4.15-1.79 2.92-1.51 6.35-1.28 9.67 0.78 4.68-0.38 9.21-3.16 12.98-1.69 0.08-5.05 0.25-6.74 0.33-1.65 2.71-3.14 10.45-7.4 6.47-3.76-2.21-5.24-6.21-7.43-9.73-1.39-2.56-5.07-1.22-6.6-3.64-2.95-4.19-6.04-8.29-8.87-12.58-1.04-1.26-0.32-2.35 0.65-3.35z" fill="#c4b99e"/>
 </g>
 <g id="#e3d8bdff" transform="translate(-4.9083704,-4.5843769)">
  <path d="m75.95 191.04c-3.52-4.27-2.29-11.36 0.92-15.37 2.83 4.29 5.92 8.39 8.87 12.58 1.53 2.42 5.21 1.08 6.6 3.64-0.81 3.99-6.89 1.42-8.91 4.52-0.73 1.31-2.21 1.59-3.54 1.93-1.26-0.52-2.51-1.04-3.73-1.62-0.13-1.89 1.21-4.04-0.21-5.68z" fill="#e3d8bd"/>
 </g>
 <g id="#e3d9beff" transform="translate(-4.9083704,-4.5843769)">
  <path d="m118.68 183.21c0.3-3.79 4.8-7.7 8.56-5.66-3.28 1.13-6.15 3.19-8.56 5.66z" fill="#e3d9be"/>
 </g>
 <g id="#d9ceb3ff" transform="translate(-4.9083704,-4.5843769)">
  <path d="m118.68 183.21c2.41-2.47 5.28-4.53 8.56-5.66 2.64 4.72-2.26 7.73-4.54 11.25-2.96 0.81-3.18-3.65-4.02-5.59z" fill="#d9ceb3"/>
 </g>
 <g id="#e4dabffd" transform="translate(-4.9083704,-4.5843769)">
  <path d="m127.24 177.55c2.72 1.38 5.57 4.02 5.65 7.23-1.24 2.15-3.78 0.39-5.68 0.46-1.1 0.97-2.28 2.02-2.31 3.6 1.94-0.75 4.43-0.55 3.54 2.14 4.84-0.06 8.58-2.9 12.67-4.89 10.08-2.19 2.77 0.44 2.1 3.04-0.29 4.01-6.63 0.09-8.22 1.94 1.11 1.79 2.25 3.56 3.38 5.33-1.08 4.2-3.63 7.74-5.6 11.54-3.58 0.53-5.84-3.01-6.95-5.91-3.1 2.75-6.64 5.37-8.68 9.05 0.14 3.76 1.76 8.49-1.71 11.32-0.65 6.32 3.95 12.51 4.06 18.99-2.19 7.4 3.13 4.09 5.64 2.8 1.94 0.01 3.91 0.51 5.78-0.28 0.51-1.75-1.2-1.92-2.38-2.44-0.91-2.02-2.04-3.92-3.42-5.65-0.26-2.35 2.84-3.4 3.3-5.64 0.48-2.2 2.8-3 4.48-4.12 1.96 2.84 3.07 6.19 3.52 9.61 1.36 2.22 4.01 3.27 6.39 4.04 2.16-0.42 2.17-2.55 2.62-4.29 1.94-1.16 6.16-1.23 5.56-4.32-2.15-4.05-6.51-6.25-9.67-9.41-2.22-3.49-4.67-6.9-6.31-10.71 0.69-1.96 2.7-3.65 4.87-2.72 2.61 0.86 5.28 0.18 7.81-0.62 3.89-2.68 5.82-7.57 10.14-9.63 1.22 2.96 3.15 5.49 4.85 8.18-0.59 5.25-4.51 8.92-7.9 12.57-1.31-0.12-2.58-0.46-3.87-0.64 0.21 1.95 1.13 3.71 1.6 5.6-0.76 1.29-1.62 2.53-2.29 3.88 1.81 0.77 3.35 1.97 4.99 3.02 1.81-0.42 3.89-2.31 5.09 0.07 3.04 1.74-0.38 5.89 1.85 7.81 1.97-0.23 3.95-0.08 5.88 0.42l-0.16 0.84c-30.26 10.25-65.09 10.4-93.65-4.91-0.98-0.8-2.01-1.55-3.03-2.3 0.98-1.36 2.98-3.9 3.15-0.62 4.95-3.13-6.06-7.24-1.63-11.24 2.75-3.77 8.77-4.35 9.24-9.66l0.81-0.02c4.07 1.79 4.03 6.6 6.32 9.84 4.82-1.64 10.66-2.76 12.93-7.94-0.24-1.73-1.43-3.13-2.04-4.73 2.51-1.86-0.43-4.31-0.19-6.56 4.26 3.98 5.75-3.76 7.4-6.47 1.69-0.08 5.05-0.25 6.74-0.33 2.78-3.77 3.94-8.3 3.16-12.98 0.4 0.34 1.2 1.03 1.61 1.37 0.84 1.94 1.06 6.4 4.02 5.59 2.28-3.52 7.18-6.53 4.54-11.25m-46.94 42.8c-1.08 0.28-2.16 0.58-3.23 0.87-0.58 2.21 1.36 3.77 2.27 5.55 2.06 0.8 3.95-0.91 5.59-1.94 0.07-2.09-2.47-4.99-4.63-4.48z" fill="#e4dabf"/>
 </g>
 <g id="#d3c8adff" transform="translate(-4.9083704,-4.5843769)">
  <path d="m56.11 185.23c2.32-0.45 4.63-0.87 6.95-1.29-5.48 2.63-6.11 9.33-9.13 13.99-2.57 1.78-5.07 3.77-7.93 5.08-2.1-0.97-5.29-2.2-5.03-4.99-1.94-2.7 0.18-6.46 3.04-6 8.47 3.09 4.37-1.78 3.03-4.14 2.75 0.54 4.85 3.43 7.73 2.96 2.23-1.26 1.69-3.51 1.34-5.61z" fill="#d3c8ad"/>
 </g>
 <g id="#ddd2b7fe" transform="translate(-4.9083704,-4.5843769)">
  <path d="m92.34 191.89c2.19 3.52 3.67 7.52 7.43 9.73-0.24 2.25 2.7 4.7 0.19 6.56-2.92-1.68-3.61 4.5-5.52 1.71 0.18-1.65 0.48-3.27 0.58-4.92-2.95 0.72-5.78 2.09-8.88 1.97-0.12-3.9-2.9-6.97-6.25-8.6 1.33-0.34 2.81-0.62 3.54-1.93 2.02-3.1 8.1-0.53 8.91-4.52z" fill="#ddd2b7"/>
 </g>
 <g id="#cec2a7ff" transform="translate(-4.9083704,-4.5843769)">
  <path d="m86.14 206.94c3.1 0.12 5.93-1.25 8.88-1.97-0.1 1.65-0.4 3.27-0.58 4.92 1.91 2.79 2.6-3.39 5.52-1.71 0.61 1.6 1.8 3 2.04 4.73-2.27 5.18-8.11 6.3-12.93 7.94-2.29-3.24-2.25-8.05-6.32-9.84-0.07-2.1 0.97-4.26 3.39-4.07z" fill="#cec2a7"/>
 </g>
 <g id="#dfd4b9ff" transform="translate(-4.9083704,-4.5843769)">
  <path d="m80.3 220.35c2.16-0.51 4.7 2.39 4.63 4.48-1.64 1.03-3.53 2.74-5.59 1.94-0.91-1.78-2.85-3.34-2.27-5.55 1.07-0.29 2.15-0.59 3.23-0.87z" fill="#dfd4b9"/>
 </g>
</svg>
