<?xml version="1.0" encoding="UTF-8"?>
<svg width="241.29561pt" height="242.3pt" version="1.1" viewBox="0 0 241.29561 242.3" xmlns="http://www.w3.org/2000/svg">
 <g id="#4c5657fe" transform="translate(-6.0412736,-4.85)">
  <path d="m24.64 62.3c20.74-36.31 63.05-58.24 104.55-57.16-3.86 4.41-8.86 8.38-11.19 13.86-2.93 1.76-4.45 5.04-5.91 7.99-2.07 1.31-4.69 3.55-3.41 6.27-0.73 1.26-1.52 2.48-2.32 3.69-0.32-0.2-0.96-0.61-1.28-0.81-6.36 10.21-11.45 21.19-15.55 32.49-4.43 9.94-5.63 20.87-8.17 31.36-2.88-2.56-2.07 4.61-0.58 6.03-0.08 1.05-0.19 2.09-0.33 3.14-0.34-0.33-1.03-0.98-1.38-1.3 0.69 11-1.63 22.54 0.76 33.3 1.36 5.13 1.58 10.54 2.71 15.74-0.04 3.05 0.16 6.12 0.57 9.15 0.34-0.3 1.03-0.91 1.37-1.21 2.03 11.17 6.34 21.68 10.61 32.13 2.98 7.36 8.12 13.61 11.07 20.97-2.43-1.8-4.2-5.74-7.84-4.55-4.2 0.02-10.61 1.44-11.91-3.74-0.58-1.59-1.51-2.99-2.65-4.23-3.81 1.79-7.89 0.35-11.36-1.49 0.67-1.97 0.22-3.72-1.33-5.11 0.21-3.95 4.23-6.52 4.46-10.45 4.17-3.13 2.61-9.26 3.07-13.69 0.41-3.36-2.87-5.27-5.09-7.13 0.33-2.78-1.77-4.7 0.1-7.33-6.79-4.88-1.47-15.03-7.7-20.24-1.35 0.94-2.53 2.13-3.87 3.09-1.17-1.23-2.08-3.1-4.09-2.59-1.07-3.18 2.43-4.68 2.11-7.54-4.28-0.82-2.82 6.32-6.88 4.98-1.63-1.74-0.29-4.37 0.1-6.4 1.58-3.47-0.1-6.79-0.4-10.21 2.83 1.34 5.67 0.1 6.36-3.03-1.13 0.2-2.25 0.4-3.38 0.59 2.29-1.75 4.33-3.67 6.11-5.76-1.52-2.08-4.06-4.21-3.79-6.98 3.78-5.45-1.26-11.48-4.38-15.94-2.87-3.54-8.64 4.44-10.65-0.4-1.33-1.96-3.58 0.37-5.08 1.01-2.11-2.44-3.76-5.24-5.74-7.79-0.16 0.49-0.47 1.47-0.63 1.96-2.6-1.44-3.44-4.32-4.5-6.88 1.93-0.05 4.47 0.36 3.14-2.31 3.58 0.44 1.56 3.96 1.62 6.28 3.45 0.09 2.76-4.61 4.26-6.83 0.73-2.47 4.45-3.26 3.83-6.11-0.97-1.12-2.31-1.87-3.16-3.09 0.89-1.27 1.97-2.39 2.85-3.67-3.73-4.18-10.19-3.89-13.98 0.08-0.28-0.03-0.84-0.1-1.12-0.14m54.64-26.16c-1.3 2.99-4.8 8.19-0.99 10.54 3.14 0.46 7.38 3.8 9.52 0.09 0.74-4.96-2.81-11.52-8.53-10.63z" fill="#4c5657"/>
 </g>
 <g id="#0c0c0cfd" transform="translate(-6.0412736,-4.85)">
  <path d="m129.19 5.14c0.45-0.08 1.36-0.22 1.82-0.29l0.21 0.75c-5.15 3.74-8.22 9.54-13.22 13.4 2.33-5.48 7.33-9.45 11.19-13.86z" fill="#0c0c0c"/>
 </g>
 <g id="#e4dac0fc" transform="translate(-6.0412736,-4.85)">
  <path d="m131.01 4.85c23.07 0.96 45.71 8.56 64.84 21.46l0.07 0.95c-3.54 1.36-6.41-2.27-9.18-3.88-3.57-1.21-6.51-3.66-9.83-5.34-3.13-0.29-4.52 3.64-6.7 5.27-0.89 3.26 0.47 6.3 0.7 9.47-1.58 2.24-4.73 1.17-6.62-0.07-1.81-2.91-0.93-6.5-1.45-9.75-5.06-0.88-5.89 8.09-11.77 4.63-2.46-0.7-3.7 1.94-5.46 3.11-9.08 0.76-18.21 0.15-27.29 0.03-2.05 1.2-4.38 1.38-6.69 1.03 5.43-9.16 12.68-17.16 19.95-24.9-0.09-0.31-0.27-0.94-0.36-1.26z" fill="#e4dac0"/>
 </g>
 <g id="#f2f0e7ff" transform="translate(-6.0412736,-4.85)">
  <path d="m118 19c5-3.86 8.07-9.66 13.22-13.4 0.09 0.32 0.27 0.95 0.36 1.26-7.27 7.74-14.52 15.74-19.95 24.9-7.43 10.87-14.08 22.51-18.2 35.09-5.64 13.65-8.61 28.34-9.59 43.05-0.58 1.2-0.84 2.52-0.75 3.86-1.56 27.36 2.84 55.12 14.04 80.18 0.76 2.73 3.82 5.42 2.11 8.35-10.15-20.89-16.48-43.77-17.53-67.03 0.38-7.49 0.35-14.99 0.01-22.48 1.52-26.79 10.54-53.07 24.64-75.83 0.8-1.21 1.59-2.43 2.32-3.69 1.24-2.03 2.53-4.05 3.41-6.27 1.98-2.58 5.16-4.65 5.91-7.99z" fill="#f2f0e7"/>
 </g>
 <g id="#eae0c5ff" transform="translate(-6.0412736,-4.85)">
  <path d="m170.21 23.31c2.18-1.63 3.57-5.56 6.7-5.27 3.32 1.68 6.26 4.13 9.83 5.34 2.77 1.61 5.64 5.24 9.18 3.88 0.27 0.19 0.82 0.56 1.1 0.74 1.01 2.21 0.75 5.44 3.31 6.56 1.79 0.54 3.66 0.87 5.36 1.71 1.15 2.13 1.21 5.48 4.19 5.9 2.82 0.6 4.98 2.62 5.57 5.47 0.22 2.24 3.78 4.61 4.29 1.29 17.04 20.65 26.84 47.39 27.22 74.15-2.93-3.91-7.04-0.22-10.69 0.31-1.71 4.95-2.48 10.6-6.45 14.45-1.96-0.23-3.88-0.7-5.81-1.07 0.06-2.98 1.96-5.58 1.96-8.56-3.19-1.6-8.24-5.65-10.66-0.9-2.26 5.52 0.59 12.22 2.95 17.45 2.76 1.88 4.56 6.8 8.51 6.15 2.34-1.79 3.13-7.13 6.99-5.8 2.36 5.98 4.57 12.09 5.67 18.45l1.64 1.4c-0.14 4.25-2.87 7.89-4.32 11.77-2.49 5.06-4.73 10.83-8.53 14.86-1.73 0.36-3.28 1.46-5.09 1.46-2.13-3.12-5.94-3.61-9.14-5.13 2.59 4.06 5.56 7.78 9.24 10.91-10.4 15.4-25.86 26.94-42.19 35.44-0.41-0.15-1.23-0.46-1.65-0.61-0.67-4.45-3.08-8.24-4.88-12.27-2.92-3.41-6.1 1.12-7.51 3.7 0.01 1.7 0.04 5.1 0.06 6.8 2.51 1.38 5.61 0.39 8.23 1.44-1.47 0.95-3.13 1.4-4.87 1.35-0.9 1.64-2.09 3.11-3.42 4.44 0.17-1.43 0.46-2.83 0.71-4.24-3.67-0.66-4.05 3.92-5.93 6.03-2.48 0.45-6.89-0.31-4.84-3.59-4.6 2.26-6.55-3.5-9.65-5.73-1.43-4.27 3.32-7.29 2.52-11.32-1.67-2.17-4.12-3.42-6.5-4.63-0.05-1.56 1.46-4.05-1.18-3.92-2.12-1.3-7.46 0.48-5.13 3.28 2.73 4.38-3.49 10.11-7.64 6.66-1.34-3.68-1.31-9.85-5.94-11.18-1.32-3.88-5.32-6.75-4.37-11.3 1.29-1.26 3.18-1.07 4.81-1.47-0.23-3.51-0.32-7.08-1.24-10.5 0.07-1.54 2.61-4.11 0.2-4.68-2.17 0.04-4.35 0.25-6.52 0.11-2.32-1.31-3.8-3.52-5.22-5.7 4.22-4.68 6.42-12.32 2.7-17.75-4.63-2.07-8.56-4.96-11.43-9.22 0.92 4.49-6.11 1.77-5.32 5.9 1.05 0.84 4 0.3 3.79 1.91-2.17 0.38-5.03 2.32-6.82 0.22-1.67-2.7-5.45 1.61-6.72-1.31-1.63-6.1 0.13-12.5-1.75-18.48 0.71-8.03 2.91-17.57-2.44-24.45-0.09-1.34 0.17-2.66 0.75-3.86 2.31-3.11 0.74-7.91 3.42-10.7 3.71-0.65 7.66-0.18 11.28-1.34 0.15-1.21 0.26-2.42 0.31-3.64-1.3-0.15-2.59-0.29-3.88-0.42-0.26-2.05 2.22-1.58 3.04-2.88 0.65-1.14 3.03-2.81 0.87-3.65-1.83 0.52-3.49 1.87-5.48 1.6-0.36-1.88-1.46-3.32-2.95-4.47-1.27-6.14 4.61-11.44 2.98-17.55 4.12-12.58 10.77-24.22 18.2-35.09 2.31 0.35 4.64 0.17 6.69-1.03 9.08 0.12 18.21 0.73 27.29-0.03 1.76-1.17 3-3.81 5.46-3.11 5.88 3.46 6.71-5.51 11.77-4.63 0.52 3.25-0.36 6.84 1.45 9.75 1.89 1.24 5.04 2.31 6.62 0.07-0.23-3.17-1.59-6.21-0.7-9.47m-15.99 6.81c-3.67 3.64-4.75 9.73-1.05 13.78 7.8 1.99 9.3-14.22 1.05-13.78m-12.06 2.99c-1.08 1.62-2.14 3.26-3.19 4.9 1.45-0.04 4.35-0.12 5.81-0.15 3.07-1.99-0.87-3.78-2.62-4.75m41.15 0.16c-1.17 0.52-2.44 0.99-2.72 2.39-1.51 5.02 6.62 9.05 9.72 4.64 3.61-4.26-2.66-9.95-7-7.03m-53.13 16.8c-3.99 5.1-4.85 14.64 2.07 17.55 3.44-1.14 7.19-1.26 10.45-2.9 1.65-3.1 2.55-6.55 4.67-9.39 2.21-3.2-3.34-3.32-5.35-3.41-5.09 2.65-6.64-5.18-11.84-1.85m47.12 20.21c-3.67 0.96-4.86 5.33-4.36 8.72 0.1 4.78-1.98 9.23-1.94 14.01 3.26 0.01 6.6-0.11 9.68-1.31 0.82-1.5 1.33-3.21 2.52-4.49 0.56 0.77 7.34-0.19 5.44-2.9-2.3-3.61-1.9-8.04-2.92-12.06-1.66-3.05-5.44-2.64-8.42-1.97m27 34.08c-3.25 0-5.96 2.05-5.29 5.59 1.67 4.45 8.37 5.42 11.26 1.36 1.06-3.1-1.66-9.14-5.97-6.95m15.93 4.75c-3.8 4.9 1.76 10.38 6.55 10.73 1.81-1.37 2.56-3.47 2.9-5.64-1.32-3.7-5.48-6.17-9.45-5.09m-101.24 4.88c-0.4 3.98 0.73 10.98 6.01 11.05 1.76 0.36 2.75-1.2 3.81-2.28 1.58-5.57-4.99-9.28-9.82-8.77m61.24 54.14c-3.57 3.16 1.88 7.46 3.94 9.71 2.86 3.37 5.69-1.34 7.69-3.05 2.91-7.64-7.4-7.27-11.63-6.66m24.06 3.23c-1.38 0.36-2.9 0.79-2.23 2.58 1.09 3.04 3.46 6.03 2.54 9.41-3.02 4.86 2.59 7.31 6.19 7.49 2.74-1.62 1.68-5.17 3.84-7.18 1.59-3.66-1.72-7.19-2.83-10.52-1.88-0.45-5.63-1.34-7.51-1.78m-22.04 20.7c0.31 3.03-2.5 4.14-4.57 5.6-3.83-0.07-7.03-2.78-10.85-2.62-2.6-0.28-5.06 0.84-7.59 1.25-1.78 2.43-1.77 5.88 0.94 7.61 1.3 3.83 8.37 2.68 11.45 2.8 2.56-3.42 6.43 0.47 9.33 1.3 2.83 0.68 2.25 6.41 5.73 5.57 2.37-1.34 4.67 0.53 7.1 0.34 2.62-2.96-0.85-5.16-1.74-7.92-0.43-1.9 3.02-1.28 2.9-3.09 0.03-1.42 0.09-4.25 0.12-5.66-5.01 0.77-7.1-7.53-12.82-5.18z" fill="#eae0c5"/>
 </g>
 <g id="#151513ff" transform="translate(-6.0412736,-4.85)">
  <path d="m112.09 26.99c1.46-2.95 2.98-6.23 5.91-7.99-0.75 3.34-3.93 5.41-5.91 7.99z" fill="#151513"/>
 </g>
 <g id="#0d0d0cff" transform="translate(-6.0412736,-4.85)">
  <path d="m108.68 33.26c-1.28-2.72 1.34-4.96 3.41-6.27-0.88 2.22-2.17 4.24-3.41 6.27z" fill="#0d0d0c"/>
 </g>
 <g id="#d8cfb5ed" transform="translate(-6.0412736,-4.85)">
  <path d="m197.02 28c5.91 1.63 9.48 8.2 14.78 11.2 1.9 3.66 6.23 6.31 7.94 9.73-0.51 3.32-4.07 0.95-4.29-1.29-0.59-2.85-2.75-4.87-5.57-5.47-2.98-0.42-3.04-3.77-4.19-5.9-1.7-0.84-3.57-1.17-5.36-1.71-2.56-1.12-2.3-4.35-3.31-6.56z" fill="#d8cfb5" opacity=".93"/>
 </g>
 <g id="#e4d9beff" transform="translate(-6.0412736,-4.85)">
  <path d="m154.22 30.12c8.25-0.44 6.75 15.77-1.05 13.78-3.7-4.05-2.62-10.14 1.05-13.78z" fill="#e4d9be"/>
 </g>
 <g id="#e6dcc1ff" transform="translate(-6.0412736,-4.85)">
  <path d="m142.16 33.11c1.75 0.97 5.69 2.76 2.62 4.75-1.46 0.03-4.36 0.11-5.81 0.15 1.05-1.64 2.11-3.28 3.19-4.9z" fill="#e6dcc1"/>
 </g>
 <g id="#dfd4baff" transform="translate(-6.0412736,-4.85)">
  <path d="m183.31 33.27c4.34-2.92 10.61 2.77 7 7.03-3.1 4.41-11.23 0.38-9.72-4.64 0.28-1.4 1.55-1.87 2.72-2.39z" fill="#dfd4ba"/>
 </g>
 <g id="#475052ff" transform="translate(-6.0412736,-4.85)">
  <path d="m79.28 36.14c5.72-0.89 9.27 5.67 8.53 10.63-2.14 3.71-6.38 0.37-9.52-0.09-3.81-2.35-0.31-7.55 0.99-10.54z" fill="#475052"/>
 </g>
 <g id="#101110fe" transform="translate(-6.0412736,-4.85)">
  <path d="m105.08 36.14c0.32 0.2 0.96 0.61 1.28 0.81-14.1 22.76-23.12 49.04-24.64 75.83-0.62 7.39-1.75 15.18-0.01 22.48 1.05 23.26 7.38 46.14 17.53 67.03 0.43 0.9 0.9 1.78 1.42 2.63 2.26 3.76 4.3 7.66 6.79 11.28 0.52 1.28 1.04 2.57 1.42 3.91-0.9-0.72-1.81-1.44-2.71-2.17-2.95-7.36-8.09-13.61-11.07-20.97-4.27-10.45-8.58-20.96-10.61-32.13-0.64-2.65-1.4-5.26-1.94-7.94-1.13-5.2-1.35-10.61-2.71-15.74 0.33-10.67-0.19-21.35 0.62-32 0.14-1.05 0.25-2.09 0.33-3.14 0.27-2 0.43-4.02 0.58-6.03 2.54-10.49 3.74-21.42 8.17-31.36 4.1-11.3 9.19-22.28 15.55-32.49z" fill="#101110"/>
 </g>
 <g id="#e5dbc0ff" transform="translate(-6.0412736,-4.85)" fill="#e5dbc0">
  <path d="m130.18 50.07c5.2-3.33 6.75 4.5 11.84 1.85 2.01 0.09 7.56 0.21 5.35 3.41-2.12 2.84-3.02 6.29-4.67 9.39-3.26 1.64-7.01 1.76-10.45 2.9-6.92-2.91-6.06-12.45-2.07-17.55m1.06 3.11c-1.07 1.06-2.63 2.04-2.27 3.8-3.31 7.77 10.06 10.14 12 4-0.85-2.94-4.92-3.85-6.34-6.64-0.48-1.51-2.09-1.56-3.39-1.16z"/>
  <path d="m93.43 66.85c1.63 6.11-4.25 11.41-2.98 17.55 1.49 1.15 2.59 2.59 2.95 4.47 1.99 0.27 3.65-1.08 5.48-1.6 2.16 0.84-0.22 2.51-0.87 3.65-0.82 1.3-3.3 0.83-3.04 2.88 1.29 0.13 2.58 0.27 3.88 0.42-0.05 1.22-0.16 2.43-0.31 3.64-3.62 1.16-7.57 0.69-11.28 1.34-2.68 2.79-1.11 7.59-3.42 10.7 0.98-14.71 3.95-29.4 9.59-43.05z"/>
  <path d="m177.3 70.28c2.98-0.67 6.76-1.08 8.42 1.97 1.02 4.02 0.62 8.45 2.92 12.06 1.9 2.71-4.88 3.67-5.44 2.9-1.19 1.28-1.7 2.99-2.52 4.49-3.08 1.2-6.42 1.32-9.68 1.31-0.04-4.78 2.04-9.23 1.94-14.01-0.5-3.39 0.69-7.76 4.36-8.72m1.97 1.01c-6.54 2.45-3.99 11.18-5.13 16.48 3.91 4.23 8.87-1 9.61-5.04 2.69-3.94 1.78-13.57-4.48-11.44z"/>
 </g>
 <g id="#dbd1b6ff" transform="translate(-6.0412736,-4.85)" fill="#dbd1b6">
  <path d="m131.24 53.18c1.3-0.4 2.91-0.35 3.39 1.16 1.42 2.79 5.49 3.7 6.34 6.64-1.94 6.14-15.31 3.77-12-4-0.36-1.76 1.2-2.74 2.27-3.8z"/>
  <path d="m118.99 113.99c4.83-0.51 11.4 3.2 9.82 8.77-1.06 1.08-2.05 2.64-3.81 2.28-5.28-0.07-6.41-7.07-6.01-11.05z"/>
 </g>
 <g id="#4b5455fe" transform="translate(-6.0412736,-4.85)">
  <path d="m25.76 62.44c3.79-3.97 10.25-4.26 13.98-0.08-0.88 1.28-1.96 2.4-2.85 3.67 0.85 1.22 2.19 1.97 3.16 3.09 0.62 2.85-3.1 3.64-3.83 6.11-1.5 2.22-0.81 6.92-4.26 6.83-0.06-2.32 1.96-5.84-1.62-6.28 1.33 2.67-1.21 2.26-3.14 2.31 1.06 2.56 1.9 5.44 4.5 6.88 0.16-0.49 0.47-1.47 0.63-1.96 1.98 2.55 3.63 5.35 5.74 7.79 1.5-0.64 3.75-2.97 5.08-1.01 2.01 4.84 7.78-3.14 10.65 0.4 3.12 4.46 8.16 10.49 4.38 15.94-0.27 2.77 2.27 4.9 3.79 6.98-1.78 2.09-3.82 4.01-6.11 5.76 1.13-0.19 2.25-0.39 3.38-0.59-0.69 3.13-3.53 4.37-6.36 3.03 0.3 3.42 1.98 6.74 0.4 10.21-0.39 2.03-1.73 4.66-0.1 6.4 4.06 1.34 2.6-5.8 6.88-4.98 0.32 2.86-3.18 4.36-2.11 7.54 2.01-0.51 2.92 1.36 4.09 2.59 1.34-0.96 2.52-2.15 3.87-3.09 6.23 5.21 0.91 15.36 7.7 20.24-1.87 2.63 0.23 4.55-0.1 7.33 2.22 1.86 5.5 3.77 5.09 7.13-0.46 4.43 1.1 10.56-3.07 13.69-0.23 3.93-4.25 6.5-4.46 10.45 1.55 1.39 2 3.14 1.33 5.11 3.47 1.84 7.55 3.28 11.36 1.49 1.14 1.24 2.07 2.64 2.65 4.23 1.3 5.18 7.71 3.76 11.91 3.74 3.64-1.19 5.41 2.75 7.84 4.55 0.9 0.73 1.81 1.45 2.71 2.17 0.55 1.4 1 2.9 1.93 4.11 6.06 7.88 12.28 15.66 19.39 22.64-34.03 1.62-67.94-13.38-91.28-37.78-11.7-13.11-21.05-28.45-26.82-45.1-5.3-18.2-7.82-37.53-4.66-56.34 2.18-16.17 8.69-31.29 16.57-45.43l0.64 0.09c0.28 0.04 0.84 0.11 1.12 0.14m23.49 28.78c-1.26 1.44-3.57 2.55-3.29 4.78-0.44 3.12 4.29 3.71 4.01 6.75-4.28 0.46-9.44 3.68-6.87 9.02 1.74 0.76 3.72 1.85 5.63 0.94 5.67-1.95 4.4-9.64 6.79-13.95-0.77-3.26-1.37-9.61-6.27-7.54m8.14 57.08c-1.26 1.28-2.43 2.61-2.69 4.46-2.13 0.14-4.25 0.47-5.45 2.45 0.29 3.58-0.43 7.14-1.28 10.6-1-0.3-2-0.58-3-0.85 0.96 2.03 2.2 3.89 3.36 5.81 1.91 0.75 3.81-0.49 5.68-0.79-0.8 3.46 0.15 7.95-2.19 10.94-2.44 0.07-4.42-1.22-2.88-3.69-2.27 0.03-3.78-1.44-5.23-2.97-3.02-1.26-2.78 4.19-5.62 3.81 2.68-8.91-0.76-4.42-2.87-3.09 0.2-2.04-1.32-2.24-2.94-1.88 0.11 2.5-2.42 1.95-4.11 1.81-0.91-1.24-1.17-3.34-3.18-2.95-0.78 2.66 1.2 4.31 3.72 4.24 0.13 1.51-1.38 3.97 0.94 4.22 1.72 1.45 1.95-1.34 2.68-2.37 1.17 0.95 3.03 1.85 2.58 3.66-1.37 0.1-2.05 0.81-2.02 2.14 1.74-0.55 5.14-1.99 3.34 1.02 2.64 1.64 5.81 3.42 6.15 6.87 0.69 0.78 2.06 2.34 2.75 3.12 3.81 3.1 9.21-1.33 13.08 1.96 1.83 2.1 4.5-0.79 6.45 1.45 0.37 1.8 1.2 4.19 3.19 4.62 2.85-1.84-0.97-5.43 1.8-7.25-1.19-3.95 1.02-7.86-0.65-11.64 1.14-2.56 0.76-5.13 0.35-7.68 2.47-1.75 1.39-4.41 0.12-6.54 1.3-4.31-0.31-8.51-1.7-12.55-1.99-0.78 0.42 3.88-1.73 3.92-1.64 1.17-4.14 0.01-4.2-2.03-0.09-1.66-3.55-1.48-2.24-3.43 0.9-1.82-1.95-2.59-1.56-4.42 3.19 0.26 2.43-5.16-0.65-2.97m15.91 61.08c-1.4 0.39-2.84 0.57-4.27 0.82-1.46 5.31 2.27 10.27 7.17 11.64 3.99 1.27 6.65 5.01 10.77 5.92 1.61-0.65 3.23-0.24 4.85 0.14 0.84-1.83 1.94-3.26 4.16-3.12-1.44-4-6.71-4.65-7.98-8.78-1.06-2.7-4.3-2.75-6.7-3.36-2.18-1.92-4.81-4.68-8-3.26z" fill="#4b5455"/>
 </g>
 <g id="#dfd4b9ff" transform="translate(-6.0412736,-4.85)">
  <path d="m179.27 71.29c6.26-2.13 7.17 7.5 4.48 11.44-0.74 4.04-5.7 9.27-9.61 5.04 1.14-5.3-1.41-14.03 5.13-16.48z" fill="#dfd4b9"/>
 </g>
 <g id="#454e4fff" transform="translate(-6.0412736,-4.85)">
  <path d="m49.25 91.22c4.9-2.07 5.5 4.28 6.27 7.54-2.39 4.31-1.12 12-6.79 13.95-1.91 0.91-3.89-0.18-5.63-0.94-2.57-5.34 2.59-8.56 6.87-9.02 0.28-3.04-4.45-3.63-4.01-6.75-0.28-2.23 2.03-3.34 3.29-4.78z" fill="#454e4f"/>
 </g>
 <g id="#626e6dff" transform="translate(-6.0412736,-4.85)">
  <path d="m80.78 106.02c-1.49-1.42-2.3-8.59 0.58-6.03-0.15 2.01-0.31 4.03-0.58 6.03z" fill="#626e6d"/>
 </g>
 <g id="#e5dabfff" transform="translate(-6.0412736,-4.85)">
  <path d="m204.3 104.36c4.31-2.19 7.03 3.85 5.97 6.95-2.89 4.06-9.59 3.09-11.26-1.36-0.67-3.54 2.04-5.59 5.29-5.59z" fill="#e5dabf"/>
 </g>
 <g id="#667170ff" transform="translate(-6.0412736,-4.85)">
  <path d="m79.07 107.86c0.35 0.32 1.04 0.97 1.38 1.3-0.81 10.65-0.29 21.33-0.62 32-2.39-10.76-0.07-22.3-0.76-33.3z" fill="#667170"/>
 </g>
 <g id="#e0d6bcff" transform="translate(-6.0412736,-4.85)">
  <path d="m220.23 109.11c3.97-1.08 8.13 1.39 9.45 5.09-0.34 2.17-1.09 4.27-2.9 5.64-4.79-0.35-10.35-5.83-6.55-10.73z" fill="#e0d6bc"/>
 </g>
 <g id="#6f695fff" transform="translate(-6.0412736,-4.85)">
  <path d="m81.71 135.26c-1.74-7.3-0.61-15.09 0.01-22.48 0.34 7.49 0.37 14.99-0.01 22.48z" fill="#6f695f"/>
 </g>
 <g id="#e4dabffe" transform="translate(-6.0412736,-4.85)">
  <path d="m83.09 113.76c5.35 6.88 3.15 16.42 2.44 24.45 1.88 5.98 0.12 12.38 1.75 18.48 1.27 2.92 5.05-1.39 6.72 1.31 1.79 2.1 4.65 0.16 6.82-0.22 0.21-1.61-2.74-1.07-3.79-1.91-0.79-4.13 6.24-1.41 5.32-5.9 2.87 4.26 6.8 7.15 11.43 9.22 3.72 5.43 1.52 13.07-2.7 17.75 1.42 2.18 2.9 4.39 5.22 5.7 2.17 0.14 4.35-0.07 6.52-0.11 2.41 0.57-0.13 3.14-0.2 4.68 0.92 3.42 1.01 6.99 1.24 10.5-1.63 0.4-3.52 0.21-4.81 1.47-0.95 4.55 3.05 7.42 4.37 11.3 4.63 1.33 4.6 7.5 5.94 11.18 4.15 3.45 10.37-2.28 7.64-6.66-2.33-2.8 3.01-4.58 5.13-3.28 2.64-0.13 1.13 2.36 1.18 3.92 2.38 1.21 4.83 2.46 6.5 4.63 0.8 4.03-3.95 7.05-2.52 11.32 3.1 2.23 5.05 7.99 9.65 5.73-2.05 3.28 2.36 4.04 4.84 3.59 1.88-2.11 2.26-6.69 5.93-6.03-0.25 1.41-0.54 2.81-0.71 4.24 1.33-1.33 2.52-2.8 3.42-4.44 1.74 0.05 3.4-0.4 4.87-1.35-2.62-1.05-5.72-0.06-8.23-1.44-0.02-1.7-0.05-5.1-0.06-6.8 1.41-2.58 4.59-7.11 7.51-3.7 1.8 4.03 4.21 7.82 4.88 12.27 0.42 0.15 1.24 0.46 1.65 0.61-15 7.95-32.06 11.2-48.89 12.88l0.03-0.8c0.16-3.09-3.36-4.43-4.92-6.61-6.5-5.96-10.91-13.69-16.37-20.49-0.32 0.13-0.94 0.4-1.26 0.54l-0.76 0.32c-0.38-1.34-0.9-2.63-1.42-3.91 0.34-4.51-3.76-8.09-5.54-12.03-0.31 0.18-0.94 0.56-1.25 0.75-0.52-0.85-0.99-1.73-1.42-2.63 1.71-2.93-1.35-5.62-2.11-8.35-11.2-25.06-15.6-52.82-14.04-80.18m21.22 45.62c-2.49 1.24-5.09 2.43-8.04 1.91-1.86 1.53-3.57 3.39-4.26 5.76-0.43 2.49 2.41 3.64 4.19 4.65 2.56-0.04 4.29-2.43 6.63-2.64 1.35 1.85 1.34 4.4 3.38 5.8 3.2 0.34 6.47-1.18 7.16-4.53 2.96-6.11-3.8-11.22-9.06-10.95z" fill="#e4dabf"/>
 </g>
 <g id="#e0d6bbfd" transform="translate(-6.0412736,-4.85)">
  <path d="m236.27 123.39c3.65-0.53 7.76-4.22 10.69-0.31 1.33 14.22-0.97 28.36-5.17 41.89l-0.72-0.01-1.64-1.4c-1.1-6.36-3.31-12.47-5.67-18.45-3.86-1.33-4.65 4.01-6.99 5.8-3.95 0.65-5.75-4.27-8.51-6.15-2.36-5.23-5.21-11.93-2.95-17.45 2.42-4.75 7.47-0.7 10.66 0.9 0 2.98-1.9 5.58-1.96 8.56 1.93 0.37 3.85 0.84 5.81 1.07 3.97-3.85 4.74-9.5 6.45-14.45z" fill="#e0d6bb"/>
 </g>
 <g id="#495253ff" transform="translate(-6.0412736,-4.85)">
  <path d="m57.39 148.3c3.08-2.19 3.84 3.23 0.65 2.97-0.39 1.83 2.46 2.6 1.56 4.42-1.31 1.95 2.15 1.77 2.24 3.43 0.06 2.04 2.56 3.2 4.2 2.03 2.15-0.04-0.26-4.7 1.73-3.92 1.39 4.04 3 8.24 1.7 12.55 1.27 2.13 2.35 4.79-0.12 6.54 0.41 2.55 0.79 5.12-0.35 7.68 1.67 3.78-0.54 7.69 0.65 11.64-2.77 1.82 1.05 5.41-1.8 7.25-1.99-0.43-2.82-2.82-3.19-4.62-1.95-2.24-4.62 0.65-6.45-1.45-3.87-3.29-9.27 1.14-13.08-1.96-0.69-0.78-2.06-2.34-2.75-3.12-0.34-3.45-3.51-5.23-6.15-6.87 1.8-3.01-1.6-1.57-3.34-1.02-0.03-1.33 0.65-2.04 2.02-2.14 0.45-1.81-1.41-2.71-2.58-3.66-0.73 1.03-0.96 3.82-2.68 2.37-2.32-0.25-0.81-2.71-0.94-4.22-2.52 0.07-4.5-1.58-3.72-4.24 2.01-0.39 2.27 1.71 3.18 2.95 1.69 0.14 4.22 0.69 4.11-1.81 1.62-0.36 3.14-0.16 2.94 1.88 2.11-1.33 5.55-5.82 2.87 3.09 2.84 0.38 2.6-5.07 5.62-3.81 1.45 1.53 2.96 3 5.23 2.97-1.54 2.47 0.44 3.76 2.88 3.69 2.34-2.99 1.39-7.48 2.19-10.94-1.87 0.3-3.77 1.54-5.68 0.79-1.16-1.92-2.4-3.78-3.36-5.81 1 0.27 2 0.55 3 0.85 0.85-3.46 1.57-7.02 1.28-10.6 1.2-1.98 3.32-2.31 5.45-2.45 0.26-1.85 1.43-3.18 2.69-4.46m1.91 28.01c-5.38 0.46-5.92 6.69-9.31 9.73-2.09 6.82 6.83 7.59 11.04 8.95 9.49 2.88 5.14-9.06 5.72-13.56-2.81-1.18-4.41-5.11-7.45-5.12z" fill="#495253"/>
 </g>
 <g id="#626f71ff" transform="translate(-6.0412736,-4.85)">
  <path d="m83.11 166.05c-0.41-3.03-0.61-6.1-0.57-9.15 0.54 2.68 1.3 5.29 1.94 7.94-0.34 0.3-1.03 0.91-1.37 1.21z" fill="#626f71"/>
 </g>
 <g id="#ded3b8ff" transform="translate(-6.0412736,-4.85)">
  <path d="m104.31 159.38c5.26-0.27 12.02 4.84 9.06 10.95-0.69 3.35-3.96 4.87-7.16 4.53-2.04-1.4-2.03-3.95-3.38-5.8-2.34 0.21-4.07 2.6-6.63 2.64-1.78-1.01-4.62-2.16-4.19-4.65 0.69-2.37 2.4-4.23 4.26-5.76 2.95 0.52 5.55-0.67 8.04-1.91z" fill="#ded3b8"/>
 </g>
 <g id="#e3d9beff" transform="translate(-6.0412736,-4.85)">
  <path d="m180.23 168.13c4.23-0.61 14.54-0.98 11.63 6.66-2 1.71-4.83 6.42-7.69 3.05-2.06-2.25-7.51-6.55-3.94-9.71z" fill="#e3d9be"/>
 </g>
 <g id="#e2d8bdff" transform="translate(-6.0412736,-4.85)">
  <path d="m204.29 171.36c1.88 0.44 5.63 1.33 7.51 1.78 1.11 3.33 4.42 6.86 2.83 10.52-2.16 2.01-1.1 5.56-3.84 7.18-3.6-0.18-9.21-2.63-6.19-7.49 0.92-3.38-1.45-6.37-2.54-9.41-0.67-1.79 0.85-2.22 2.23-2.58z" fill="#e2d8bd"/>
 </g>
 <g id="#424b4cff" transform="translate(-6.0412736,-4.85)">
  <path d="m59.3 176.31c3.04 0.01 4.64 3.94 7.45 5.12-0.58 4.5 3.77 16.44-5.72 13.56-4.21-1.36-13.13-2.13-11.04-8.95 3.39-3.04 3.93-9.27 9.31-9.73z" fill="#424b4c"/>
 </g>
 <g transform="translate(-6.0412736,-4.85)">
  <path d="m213.99 187.92c3.2 1.52 7.01 2.01 9.14 5.13 1.81 0 3.36-1.1 5.09-1.46-1.49 2.37-2.66 6.02-4.99 7.24-3.68-3.13-6.65-6.85-9.24-10.91z" fill="#dfd5bb" opacity=".97"/>
 </g>
 <g id="#e7ddc2ff" transform="translate(-6.0412736,-4.85)">
  <path d="m182.25 192.06c5.72-2.35 7.81 5.95 12.82 5.18-0.03 1.41-0.09 4.24-0.12 5.66 0.12 1.81-3.33 1.19-2.9 3.09 0.89 2.76 4.36 4.96 1.74 7.92-2.43 0.19-4.73-1.68-7.1-0.34-3.48 0.84-2.9-4.89-5.73-5.57-2.9-0.83-6.77-4.72-9.33-1.3-3.08-0.12-10.15 1.03-11.45-2.8 3.57 0.44 6.93 1.77 10.54 2.02 0.38-2.21 1.26-4.4 1.1-6.66-1.46-1.63-3.21-2.96-4.99-4.22 3.82-0.16 7.02 2.55 10.85 2.62 2.07-1.46 4.88-2.57 4.57-5.6z" fill="#e7ddc2"/>
 </g>
 <g id="#e1d6bcff" transform="translate(-6.0412736,-4.85)">
  <path d="m159.24 196.29c2.53-0.41 4.99-1.53 7.59-1.25 1.78 1.26 3.53 2.59 4.99 4.22 0.16 2.26-0.72 4.45-1.1 6.66-3.61-0.25-6.97-1.58-10.54-2.02-2.71-1.73-2.72-5.18-0.94-7.61z" fill="#e1d6bc"/>
 </g>
 <g id="#f5f2eaff" transform="translate(-6.0412736,-4.85)">
  <path d="m100.66 204.92c0.31-0.19 0.94-0.57 1.25-0.75 1.78 3.94 5.88 7.52 5.54 12.03-2.49-3.62-4.53-7.52-6.79-11.28z" fill="#f5f2ea"/>
 </g>
 <g id="#475051ff" transform="translate(-6.0412736,-4.85)">
  <path d="m73.3 209.38c3.19-1.42 5.82 1.34 8 3.26 2.4 0.61 5.64 0.66 6.7 3.36 1.27 4.13 6.54 4.78 7.98 8.78-2.22-0.14-3.32 1.29-4.16 3.12-1.62-0.38-3.24-0.79-4.85-0.14-4.12-0.91-6.78-4.65-10.77-5.92-4.9-1.37-8.63-6.33-7.17-11.64 1.43-0.25 2.87-0.43 4.27-0.82z" fill="#475051"/>
 </g>
 <g id="#f4f3ebfe" transform="translate(-6.0412736,-4.85)">
  <path d="m109.63 219.79c0.32-0.14 0.94-0.41 1.26-0.54 5.46 6.8 9.87 14.53 16.37 20.49 1.56 2.18 5.08 3.52 4.92 6.61-8.81-7.65-16.09-16.9-22.55-26.56z" fill="#f4f3eb"/>
 </g>
 <g id="#10100ffd" transform="translate(-6.0412736,-4.85)">
  <path d="m108.87 220.11 0.76-0.32c6.46 9.66 13.74 18.91 22.55 26.56l-0.03 0.8c-0.49-0.07-1.47-0.22-1.96-0.29-7.11-6.98-13.33-14.76-19.39-22.64-0.93-1.21-1.38-2.71-1.93-4.11z" fill="#10100f"/>
 </g>
</svg>
