<?xml version="1.0" encoding="UTF-8"?>
<!-- Created with Inkscape (http://www.inkscape.org/) -->
<svg width="132.588mm" height="83.121498mm" version="1.1" viewBox="0 0 132.588 83.121498" xmlns="http://www.w3.org/2000/svg">
 <g transform="matrix(.26458333 0 0 .26458333 -357.03932 -331.32537)">
  <path transform="matrix(.13333333 0 0 -.13333333 0 2800)" d="m13295.1 10795.8c-127.6 531.3-739.1 773.8-1195 488.7-144.9 196.3-377.8 323.6-640.5 323.6-457.3 0-825.5-386.2-793.9-850.7-308.8-48.6-544.9-315.9-544.9-638.3 0-464.5 475.7-775.2 899.2-594.9 263.2-356.3 792.4-364.4 1066.2-15.6 295.1-271.2 760.3-235.9 1010.3 82.2 392.7-111.4 782.7 183.7 782.7 591.2 0 329.2-258.8 597.9-584.1 613.8" fill="#758899"/>
  <path transform="matrix(.13333333 0 0 -.13333333 0 2800)" d="m11559.2 9433.1c-202.8 0-405.4 91.2-539.2 272.3-83.4-35.5-168.8-52-252.2-52-179.1 0-349 76-469.7 202.4-50.9 84.7-80.5 183.6-80.5 291.8 0 292.9 224 535.6 516.9 579.8-30.1 421.9 319.2 772.7 752.9 772.7 249.2 0 470.1-115.7 607.6-294 125 74.9 262.3 109.7 397.4 109.7 332 0 650-210.5 736-553.5 308.5-14.5 554-258.6 554-557.6 0-93.5-23.6-180.5-64.9-256.7-113.9-123.8-276.8-199.7-452-199.7-55.5 0-112.2 7.6-169 23.8-137.5-174.9-339.9-264.3-543.4-264.3-166.7 0-334 59.9-466.9 182.1-134.6-171.5-330.9-256.8-527-256.8m211.4 813.4c-13.1 0-26.1-6.2-34.1-17.9-12.9-18.8-8.1-44.5 10.7-57.4 59-40.5 118.9-54.9 173.2-54.9 78.1 0 144.5 29.8 179 55.2 44.4 31.3 87.8 41.8 126 41.8 73.1 0 126.7-38.5 130.3-41.2 7.5-5.5 16.2-8.2 24.8-8.2 12.5 0 24.9 5.7 33 16.5 13.7 18.2 10.1 44.1-8.2 57.8-34.9 26.4-101.5 57.2-179.8 57.2-54.6 0-114.9-15-174.3-56.9-0.9-0.6-55.8-39.8-131.1-39.8-38.2 0-81.8 10.1-126.1 40.6-7.2 4.9-15.3 7.2-23.4 7.2m889.1 514.9c-67.1 0-121.4-54.3-121.4-121.3 0-67.1 54.3-121.5 121.4-121.5 67 0 121.3 54.4 121.3 121.5 0 67-54.3 121.3-121.3 121.3m-1205.2 0c-67.1 0-121.4-54.3-121.4-121.3 0-67.1 54.3-121.5 121.4-121.5 67 0 121.4 54.4 121.4 121.5 0 67-54.4 121.3-121.4 121.3" fill="#687e92"/>
  <g fill="#a9bece">
   <path transform="matrix(.13333333 0 0 -.13333333 0 2800)" d="m11025.7 11305.8c40.8-37.7 20-126.5-46.4-198.4-66.5-72-153.4-99.7-194.2-62.1-40.7 37.7-20 126.5 46.4 198.5 66.5 71.9 153.4 99.6 194.2 62"/>
   <path transform="matrix(.13333333 0 0 -.13333333 0 2800)" d="m10570.3 10601.1c15.6-28.4-12.5-73.7-62.6-101-50.1-27.4-103.3-26.6-118.9 1.8-15.5 28.4 12.5 73.7 62.7 101.1 50.1 27.4 103.3 26.5 118.8-1.9"/>
   <path transform="matrix(.13333333 0 0 -.13333333 0 2800)" d="m12397.6 11324.2c16.2-28.1-10.2-73.8-59-102.1-48.8-28.2-101.6-28.4-117.8-0.4-16.3 28.1 10.2 73.7 59 102s101.6 28.5 117.8 0.5"/>
  </g>
  <path transform="matrix(.13333333 0 0 -.13333333 0 2800)" d="m10120.8 10119.1v1.7-1.7m0 2.3v1-1m0 1.8v0.7-0.7m3758.4 58.8v1.7-1.7m0 2.2v1.3-1.3m0 1.8v1.5-1.5m0 2v1.4-1.4m-0.1 2.2v0.9-0.9m0 1.8v0.6-0.6m-0.1 4.4v0.1-0.1" fill="#11303e"/>
  <path transform="matrix(.13333333 0 0 -.13333333 0 2800)" d="m11559.2 9251.9c-202.8 0-405.4 91.2-539.2 272.3-83.4-35.5-168.8-52-252.2-52-340.2 0-647 273.9-647 646.9v1.7 0.6 1 0.8 0.7c0.2 29.1 2.4 57.7 6.3 85.7 19.2-138.7 81.6-260.1 171-353.8 108.5-180.4 313.5-295.8 533.2-295.8 79.1 0 160.1 15 239.2 47.2 126.9-164.5 319-247.3 511.4-247.3 186 0 372.2 77.4 499.9 233.2 126-110.9 284.7-165.4 442.8-165.4 193 0 385 81.2 515.4 240.1 53.9-14.6 107.7-21.6 160.4-21.6 219.4 0 418.5 120.1 517.1 301.8 80.6 87.7 136.7 199.4 155 325.2 3.7-25.1 5.9-50.7 6.5-76.7v-0.1c0.1-1.2 0.1-2.5 0.1-3.8v-0.6-0.9-0.9c0.1-0.3 0.1-0.5 0.1-0.8v-1.4-0.5-1.5-0.5-1.3-0.5-1.7c0-348.6-285.3-614.9-613.6-614.9-55.5 0-112.3 7.6-169.1 23.7-137.5-174.9-339.9-264.3-543.4-264.3-166.7 0-334 60-466.9 182.1-134.6-171.5-330.9-256.7-527-256.7" fill="#687e92"/>
  <path transform="matrix(.13333333 0 0 -.13333333 0 2800)" d="m11581.9 9359.9c-192.4 0-384.5 82.8-511.4 247.3-79.1-32.2-160.1-47.2-239.2-47.2-219.7 0-424.7 115.4-533.2 295.8 120.7-126.4 290.6-202.4 469.7-202.4 83.4 0 168.8 16.5 252.2 52 133.8-181.1 336.4-272.3 539.2-272.3 196.1 0 392.4 85.3 527 256.8 132.9-122.2 300.2-182.1 466.9-182.1 203.5 0 405.9 89.4 543.4 264.3 56.8-16.2 113.5-23.8 169-23.8 175.2 0 338.1 75.9 452 199.7-98.6-181.7-297.7-301.8-517.1-301.8-52.7 0-106.5 7-160.4 21.6-130.4-158.9-322.4-240.1-515.4-240.1-158.1 0-316.8 54.5-442.8 165.4-127.7-155.8-313.9-233.2-499.9-233.2" fill="#5c758b"/>
  <path transform="matrix(.13333333 0 0 -.13333333 0 2800)" d="m12042.5 9645.9c-124.1-17.1-232.8 27-242.7 98.7-10 71.7 99.8 55.6 224 72.8 124.1 17.2 215.6 61.1 225.5-10.5 10-71.7-82.6-143.8-206.8-161" fill="#687e92"/>
  <path transform="matrix(.13333333 0 0 -.13333333 0 2800)" d="m12659.7 10518.6c-67.1 0-121.4 54.4-121.4 121.5 0 67 54.3 121.3 121.4 121.3 67 0 121.3-54.3 121.3-121.3 0-67.1-54.3-121.5-121.3-121.5" fill="#99a9b6"/>
  <path transform="matrix(.13333333 0 0 -.13333333 0 2800)" d="m11454.5 10518.6c-67.1 0-121.4 54.4-121.4 121.5 0 67 54.3 121.3 121.4 121.3 67 0 121.4-54.3 121.4-121.3 0-67.1-54.4-121.5-121.4-121.5" fill="#99a9b6"/>
  <path transform="matrix(.13333333 0 0 -.13333333 0 2800)" d="m12781 10646.5c0-67.1-54.3-121.5-121.3-121.5-67.1 0-121.4 54.4-121.4 121.5 0 67 54.3 121.3 121.4 121.3 67 0 121.3-54.3 121.3-121.3" fill="#133441"/>
  <path transform="matrix(.13333333 0 0 -.13333333 0 2800)" d="m11575.9 10646.5c0-67.1-54.4-121.5-121.4-121.5-67.1 0-121.4 54.4-121.4 121.5 0 67 54.3 121.3 121.4 121.3 67 0 121.4-54.3 121.4-121.3" fill="#133441"/>
  <path transform="matrix(.13333333 0 0 -.13333333 0 2800)" d="m11920.4 10116.3c-54.3 0-114.2 14.4-173.2 54.9-18.8 12.9-23.6 38.6-10.7 57.4 8 11.7 21 17.9 34.1 17.9 8.1 0 16.2-2.3 23.4-7.2 44.3-30.5 87.9-40.6 126.1-40.6 75.3 0 130.2 39.2 131.1 39.8 59.4 41.9 119.7 56.9 174.3 56.9 78.3 0 144.9-30.8 179.8-57.2 18.3-13.7 21.9-39.6 8.2-57.8-8.1-10.8-20.5-16.5-33-16.5-8.6 0-17.3 2.7-24.8 8.2-3.6 2.7-57.2 41.2-130.3 41.2-38.2 0-81.6-10.5-126-41.8-34.5-25.4-100.9-55.2-179-55.2" fill="#99a9b6"/>
  <path transform="matrix(.13333333 0 0 -.13333333 0 2800)" d="m12405.3 10242.7c-59.3 44.6-209.6 102.3-354.1 0.3-1.3-1-125.5-89.8-257.2 0.7-18.9 12.9-44.6 8.1-57.5-10.7s-8.1-44.5 10.7-57.4c59-40.5 118.9-54.9 173.2-54.9 78.1 0 144.5 29.9 179 55.2 129.7 91.6 250.8 4.8 256.3 0.7 18.3-13.6 44.1-10 57.8 8.2s10.1 44.1-8.2 57.9" fill="#133441"/>
 </g>
</svg>
