<?xml version="1.0" encoding="UTF-8" standalone="no"?>
<!-- Created with Inkscape (http://www.inkscape.org/) -->

<svg
   width="132.58835mm"
   height="83.121498mm"
   viewBox="0 0 132.58835 83.121498"
   version="1.1"
   id="svg1"
   inkscape:version="1.4.2 (f4327f4, 2025-05-13)"
   sodipodi:docname="cloud_disappointed.svg"
   xmlns:inkscape="http://www.inkscape.org/namespaces/inkscape"
   xmlns:sodipodi="http://sodipodi.sourceforge.net/DTD/sodipodi-0.dtd"
   xmlns="http://www.w3.org/2000/svg"
   xmlns:svg="http://www.w3.org/2000/svg">
  <sodipodi:namedview
     id="namedview1"
     pagecolor="#ffffff"
     bordercolor="#000000"
     borderopacity="0.25"
     inkscape:showpageshadow="2"
     inkscape:pageopacity="0.0"
     inkscape:pagecheckerboard="0"
     inkscape:deskcolor="#d1d1d1"
     inkscape:document-units="mm"
     inkscape:zoom="0.68862935"
     inkscape:cx="271.55392"
     inkscape:cy="173.53312"
     inkscape:window-width="1920"
     inkscape:window-height="991"
     inkscape:window-x="-9"
     inkscape:window-y="-9"
     inkscape:window-maximized="1"
     inkscape:current-layer="svg1" />
  <defs
     id="defs1">
    <radialGradient
       fx="0"
       fy="0"
       cx="0"
       cy="0"
       r="1"
       gradientUnits="userSpaceOnUse"
       gradientTransform="matrix(0,479.576,479.576,0,20833,13377.3)"
       spreadMethod="pad"
       id="radialGradient1476">
      <stop
         style="stop-opacity:1;stop-color:#bd3e26"
         offset="0"
         id="stop1474" />
      <stop
         style="stop-opacity:1;stop-color:#bd3e26"
         offset="0.430359"
         id="stop1475" />
      <stop
         style="stop-opacity:1;stop-color:#8c2e1c"
         offset="1"
         id="stop1476" />
    </radialGradient>
    <clipPath
       clipPathUnits="userSpaceOnUse"
       id="clipPath1476">
      <path
         d="m 20471.8,13758.3 c 0,0 130.6,-91.9 340.8,-74 187.9,16 319,105 319,105 0,0 41.3,-247.5 -322.4,-266.3 -337.7,-17.5 -337.4,235.3 -337.4,235.3 z"
         id="path1476" />
    </clipPath>
  </defs>
  <g
     id="g8"
     style="display:inline"
     transform="matrix(0.26458333,0,0,0.26458333,-203.64908,-207.14759)">
    <path
       id="path414"
       d="m 8947.08,14315.8 c -127.61,531.3 -739.11,773.8 -1195.01,488.7 -144.94,196.3 -377.85,323.6 -640.57,323.6 -457.29,0 -825.48,-386.2 -793.82,-850.7 -308.79,-48.6 -544.95,-315.9 -544.95,-638.3 0,-464.5 475.73,-775.2 899.21,-594.9 263.24,-356.3 792.36,-364.4 1066.19,-15.6 295.1,-271.2 760.26,-235.9 1010.33,82.2 392.7,-111.4 782.68,183.7 782.68,591.2 0,329.2 -258.82,597.9 -584.06,613.8"
       style="fill:#758899;fill-opacity:1;fill-rule:nonzero;stroke:none"
       transform="matrix(0.13333333,0,0,-0.13333333,0,2800)" />
    <path
       id="path415"
       d="m 7211.11,12953.1 c -202.8,0 -405.33,91.2 -539.17,272.3 -83.38,-35.5 -168.78,-52 -252.17,-52 -179.14,0 -349.02,76 -469.7,202.4 -50.87,84.7 -80.54,183.6 -80.54,291.8 0,292.9 223.99,535.6 516.88,579.8 -30.03,421.9 319.19,772.7 752.93,772.7 249.18,0 470.09,-115.7 607.57,-294 125.02,74.9 262.34,109.7 397.38,109.7 332.01,0 650.03,-210.5 736.07,-553.5 308.49,-14.5 553.98,-258.6 553.98,-557.6 0,-93.5 -23.62,-180.5 -64.94,-256.7 -113.85,-123.8 -276.76,-199.7 -451.96,-199.7 -55.49,0 -112.2,7.6 -168.98,23.8 -137.47,-174.9 -339.97,-264.3 -543.46,-264.3 -154.28,0 -309.15,51.4 -436.71,155.9 84.88,29.9 140.8,86.6 132.98,143.2 -4.14,29.8 -22.45,39.6 -51.41,39.6 -40.48,0 -101.75,-19.1 -174.13,-29.1 -124.15,-17.2 -233.96,-1.1 -224.03,-72.8 8.47,-61.2 88.96,-102.4 189.62,-102.4 17.2,0 35.01,1.2 53.12,3.7 2.4,0.4 4.77,0.7 7.14,1.1 -132.26,-142.8 -311.48,-213.9 -490.47,-213.9 m 881.9,1015.9 c -26.12,0 -41.41,-5.5 -41.41,-23.4 0,-47.1 106.45,-65.5 237.75,-65.5 131.27,0 237.72,18.4 237.72,65.5 0,17.9 -15.28,23.4 -41.41,23.4 -42.83,0 -114.79,-14.9 -196.31,-14.9 -81.55,0 -153.51,14.9 -196.34,14.9 m -1180.7,-0.4 c -26.1,0 -41.37,-5.5 -41.37,-23.4 0,-47.1 106.43,-63.8 237.73,-63.8 131.27,0 237.69,16.7 237.69,63.8 0,17.9 -15.26,23.4 -41.37,23.4 -42.81,0 -114.77,-14.9 -196.32,-14.9 -81.57,0 -153.54,14.9 -196.36,14.9 m 1646.29,125 v 0 0 c -273.24,55.5 -563.96,163.1 -563.96,163.1 l -30.72,104.4 c 0,0 -14.68,-112.8 19.15,-129.7 126.11,-63 575.53,-137.8 575.53,-137.8 m -1685.07,0.1 c 0,-0.1 0,-0.1 0,-0.1 v 0 c 0.87,0.2 449.54,74.8 575.53,137.8 33.81,16.9 19.14,129.7 19.14,129.7 l -30.73,-104.4 c 0,0 -290.73,-107.6 -563.94,-163.1"
       style="fill:#687e92;fill-opacity:1;fill-rule:nonzero;stroke:none"
       transform="matrix(0.13333333,0,0,-0.13333333,0,2800)" />
    <path
       id="path416"
       d="m 6677.6,14825.8 c 40.79,-37.7 20.02,-126.5 -46.4,-198.4 -66.42,-72 -153.33,-99.7 -194.12,-62.1 -40.79,37.7 -20.01,126.5 46.4,198.5 66.42,71.9 153.33,99.6 194.12,62"
       style="fill:#a9bece;fill-opacity:1;fill-rule:nonzero;stroke:none"
       transform="matrix(0.13333333,0,0,-0.13333333,0,2800)" />
    <path
       id="path417"
       d="m 6222.26,14121.1 c 15.53,-28.4 -12.5,-73.7 -62.62,-101 -50.11,-27.4 -103.32,-26.6 -118.86,1.8 -15.53,28.5 12.5,73.7 62.61,101.1 50.12,27.4 103.33,26.5 118.87,-1.9"
       style="fill:#a9bece;fill-opacity:1;fill-rule:nonzero;stroke:none"
       transform="matrix(0.13333333,0,0,-0.13333333,0,2800)" />
    <path
       id="path418"
       d="m 8049.52,14844.2 c 16.24,-28.1 -10.17,-73.8 -59,-102.1 -48.82,-28.2 -101.56,-28.4 -117.8,-0.4 -16.24,28.1 10.18,73.7 59,102 48.82,28.3 101.57,28.5 117.8,0.5"
       style="fill:#a9bece;fill-opacity:1;fill-rule:nonzero;stroke:none"
       transform="matrix(0.13333333,0,0,-0.13333333,0,2800)" />
    <path
       id="path419"
       d="m 5772.73,13639.1 c 0,0.5 0,1.1 0,1.7 0,-0.6 0,-1.2 0,-1.7 m 0.01,2.3 c 0,0.3 0,0.7 0,1 0,-0.3 0,-0.7 0,-1 m 0,1.8 c 0.01,0.2 0.01,0.5 0.01,0.8 0,-0.3 0,-0.6 -0.01,-0.8 m 3758.4,58.8 c 0,0.6 -0.01,1.1 -0.01,1.7 0,-0.6 0.01,-1.1 0.01,-1.7 m -0.01,2.2 c 0,0.5 0,0.9 0,1.3 0,-0.4 0,-0.9 0,-1.3 m -0.01,1.8 c 0,0.6 0,1.1 -0.01,1.6 0.01,-0.5 0.01,-1 0.01,-1.6 m -0.01,1.8 c -0.01,0.5 -0.01,1.1 -0.02,1.7 0.01,-0.6 0.01,-1.2 0.02,-1.7 m -0.03,2.3 c 0,0.4 -0.01,0.7 -0.01,1.1 0,-0.4 0.01,-0.7 0.01,-1.1 m -0.02,1.8 c -0.01,0.4 -0.02,0.8 -0.02,1.1 0,-0.3 0.01,-0.7 0.02,-1.1 m -0.04,2.1 c -0.01,0.4 -0.01,0.7 -0.02,1.1 0.01,-0.3 0.01,-0.7 0.02,-1.1 m -0.04,2 c -0.01,0.3 -0.01,0.5 -0.02,0.8 0.01,-0.3 0.01,-0.5 0.02,-0.8 m -0.04,1.8 c -0.01,0.2 -0.01,0.4 -0.02,0.6 0.01,-0.2 0.01,-0.4 0.02,-0.6 m -0.13,4.3 c 0,0.1 0,0.2 -0.01,0.3 0.01,-0.1 0.01,-0.2 0.01,-0.3"
       style="fill:#11303e;fill-opacity:1;fill-rule:nonzero;stroke:none"
       transform="matrix(0.13333333,0,0,-0.13333333,0,2800)" />
    <path
       id="path420"
       d="m 7211.1,12771.9 c -202.77,0 -405.34,91.2 -539.16,272.3 -83.41,-35.5 -168.78,-52 -252.21,-52 -340.15,0 -647,273.9 -647,646.9 v 0 c 0,0.5 0,1.1 0,1.7 0,0.1 0.01,0.4 0.01,0.6 0,0.3 0,0.7 0,1 0,0.3 0,0.5 0,0.8 0.01,0.2 0.01,0.5 0.01,0.8 0.22,29 2.38,57.6 6.31,85.7 19.14,-138.8 81.56,-260.2 171.01,-353.9 108.48,-180.5 313.5,-295.8 533.14,-295.8 79.13,0 160.1,15 239.21,47.2 126.93,-164.5 319.06,-247.3 511.39,-247.3 186,0 372.19,77.5 499.88,233.2 126.01,-110.9 284.76,-165.3 442.82,-165.3 193.03,0 385.06,81.1 515.47,240 53.85,-14.6 107.69,-21.6 160.33,-21.6 219.39,0 418.54,120.1 517.09,301.8 80.66,87.7 136.7,199.4 155.01,325.2 3.45,-23.2 5.61,-46.8 6.39,-70.8 0.01,-0.1 0.01,-0.2 0.01,-0.3 0.04,-1.3 0.08,-2.5 0.11,-3.7 0.01,-0.2 0.01,-0.4 0.02,-0.6 0,-0.4 0.01,-0.7 0.02,-1 0.01,-0.3 0.01,-0.5 0.02,-0.8 0,-0.3 0.01,-0.6 0.02,-0.9 0.01,-0.4 0.01,-0.7 0.02,-1.1 0.01,-0.3 0.01,-0.6 0.02,-1 0,-0.3 0.01,-0.7 0.02,-1.1 0,-0.2 0,-0.5 0.01,-0.7 0,-0.4 0.01,-0.7 0.01,-1.1 0.01,-0.2 0.01,-0.4 0.01,-0.6 0.01,-0.6 0.01,-1.2 0.02,-1.7 0,-0.1 0,-0.1 0,-0.2 0.01,-0.5 0.01,-1 0.01,-1.6 0,-0.1 0,-0.3 0.01,-0.5 0,-0.4 0,-0.8 0,-1.3 0,-0.1 0,-0.3 0,-0.5 0,-0.6 0.01,-1.1 0.01,-1.7 v 0 c 0,-348.6 -285.32,-614.9 -613.64,-614.9 -55.5,0 -112.26,7.6 -169.04,23.7 -137.49,-174.9 -339.94,-264.2 -543.46,-264.2 -166.64,0 -334.02,59.9 -466.87,182 -134.62,-171.5 -330.92,-256.7 -527.03,-256.7"
       style="fill:#687e92;fill-opacity:1;fill-rule:nonzero;stroke:none"
       transform="matrix(0.13333333,0,0,-0.13333333,0,2800)" />
    <path
       id="path421"
       d="m 7233.81,12879.9 c -192.33,0 -384.46,82.8 -511.39,247.3 -79.11,-32.2 -160.08,-47.2 -239.21,-47.2 -219.64,0 -424.66,115.3 -533.14,295.8 120.68,-126.4 290.56,-202.4 469.7,-202.4 83.39,0 168.79,16.5 252.17,52 133.84,-181.1 336.37,-272.3 539.17,-272.3 178.99,0 358.21,71.1 490.47,213.9 23.62,3.7 46.03,9.4 66.71,16.7 127.56,-104.5 282.43,-155.9 436.71,-155.9 203.49,0 405.99,89.4 543.46,264.3 56.78,-16.2 113.49,-23.8 168.98,-23.8 175.2,0 338.11,75.9 451.96,199.7 -98.55,-181.7 -297.7,-301.8 -517.09,-301.8 -52.64,0 -106.48,7 -160.33,21.6 -130.41,-158.9 -322.44,-240 -515.47,-240 -158.06,0 -316.81,54.4 -442.82,165.3 -127.69,-155.7 -313.88,-233.2 -499.88,-233.2"
       style="fill:#5c758b;fill-opacity:1;fill-rule:nonzero;stroke:none"
       transform="matrix(0.13333333,0,0,-0.13333333,0,2800)" />
    <path
       id="path422"
       d="m 7694.44,13165.9 c -124.14,-17.1 -232.82,27 -242.74,98.7 -9.93,71.7 99.88,55.6 224.03,72.8 124.15,17.2 215.61,61.1 225.54,-10.5 9.92,-71.7 -82.68,-143.8 -206.83,-161"
       style="fill:#687e92;fill-opacity:1;fill-rule:nonzero;stroke:none"
       transform="matrix(0.13333333,0,0,-0.13333333,0,2800)" />
    <path
       id="path423"
       d="m 8558.6,14093.6 c 0,0 -449.42,74.8 -575.53,137.8 -33.83,16.9 -19.15,129.7 -19.15,129.7 l 30.72,-104.4 c 0,0 290.72,-107.6 563.96,-163.1"
       style="fill:#99a9b6;fill-opacity:1;fill-rule:nonzero;stroke:none"
       transform="matrix(0.13333333,0,0,-0.13333333,0,2800)" />
    <path
       id="path424"
       d="m 6873.53,14093.6 c 0,0 0,0 0,0.1 0,-0.1 0,-0.1 0,-0.1 m 0,0 c 273.21,55.5 563.94,163.1 563.94,163.1 l 30.73,104.4 c 0,0 14.67,-112.8 -19.14,-129.7 -125.99,-63 -574.66,-137.6 -575.53,-137.7"
       style="fill:#99a9b6;fill-opacity:1;fill-rule:nonzero;stroke:none"
       transform="matrix(0.13333333,0,0,-0.13333333,0,2800)" />
    <path
       id="path425"
       d="m 7108.67,13881.4 c -131.3,0 -237.73,16.7 -237.73,63.8 0,17.9 15.27,23.4 41.37,23.4 42.82,0 114.79,-14.9 196.36,-14.9 81.55,0 153.51,14.9 196.32,14.9 26.11,0 41.37,-5.5 41.37,-23.4 0,-47.1 -106.42,-63.8 -237.69,-63.8"
       style="fill:#99a9b6;fill-opacity:1;fill-rule:nonzero;stroke:none"
       transform="matrix(0.13333333,0,0,-0.13333333,0,2800)" />
    <path
       id="path426"
       d="m 8289.35,13880.1 c -131.3,0 -237.75,18.4 -237.75,65.5 0,17.9 15.29,23.4 41.41,23.4 42.83,0 114.79,-14.9 196.34,-14.9 81.52,0 153.48,14.9 196.31,14.9 26.13,0 41.41,-5.5 41.41,-23.4 0,-47.1 -106.45,-65.5 -237.72,-65.5"
       style="fill:#99a9b6;fill-opacity:1;fill-rule:nonzero;stroke:none"
       transform="matrix(0.13333333,0,0,-0.13333333,0,2800)" />
    <path
       id="path427"
       d="m 7346.36,13952.6 c 0,-47.1 -106.42,-63.8 -237.69,-63.8 -131.31,0 -237.73,16.7 -237.73,63.8 0,47.1 106.42,8.5 237.73,8.5 131.27,0 237.69,38.6 237.69,-8.5"
       style="fill:#133441;fill-opacity:1;fill-rule:nonzero;stroke:none"
       transform="matrix(0.13333333,0,0,-0.13333333,0,2800)" />
    <path
       id="path428"
       d="m 8527.07,13953 c 0,-47.1 -106.45,-65.5 -237.71,-65.5 -131.31,0 -237.76,18.4 -237.76,65.5 0,47.2 106.45,8.6 237.76,8.6 131.26,0 237.71,38.6 237.71,-8.6"
       style="fill:#133441;fill-opacity:1;fill-rule:nonzero;stroke:none"
       transform="matrix(0.13333333,0,0,-0.13333333,0,2800)" />
    <path
       id="path429"
       d="m 7861.35,13277.4 c 0,0 -94.09,30.9 -171.84,30.9 -77.76,0 -180.66,-30.9 -180.66,-30.9 0,0 46.19,54.1 180.57,54.1 134.39,0 171.93,-54.1 171.93,-54.1"
       style="fill:#99a9b6;fill-opacity:1;fill-rule:nonzero;stroke:none"
       transform="matrix(0.13333333,0,0,-0.13333333,0,2800)" />
    <path
       id="path430"
       d="m 7861.35,13279.3 c 0,0 -94.09,30.9 -171.84,30.9 -77.76,0 -180.66,-30.9 -180.66,-30.9 0,0 46.19,54.1 180.57,54.1 134.39,0 171.93,-54.1 171.93,-54.1"
       style="fill:#133441;fill-opacity:1;fill-rule:nonzero;stroke:none"
       transform="matrix(0.13333333,0,0,-0.13333333,0,2800)" />
    <path
       id="path431"
       d="m 7994.64,14260.3 c 0,0 290.73,-107.5 563.96,-163 0,0 -449.42,74.7 -575.53,137.8 -33.83,16.8 -19.16,129.6 -19.16,129.6 l 30.73,-104.4"
       style="fill:#133441;fill-opacity:1;fill-rule:nonzero;stroke:none"
       transform="matrix(0.13333333,0,0,-0.13333333,0,2800)" />
    <path
       id="path432"
       d="m 7437.47,14260.3 c 0,0 -290.73,-107.5 -563.94,-163 0,0 449.42,74.7 575.53,137.8 33.81,16.8 19.13,129.6 19.13,129.6 l -30.72,-104.4"
       style="fill:#133441;fill-opacity:1;fill-rule:nonzero;stroke:none"
       transform="matrix(0.13333333,0,0,-0.13333333,0,2800)" />
  </g>
</svg>
