<?xml version="1.0" encoding="UTF-8"?>
<!-- Created with Inkscape (http://www.inkscape.org/) -->
<svg width="132.588mm" height="83.121498mm" version="1.1" viewBox="0 0 132.588 83.121498" xmlns="http://www.w3.org/2000/svg">
 <g transform="matrix(.26458333 0 0 .26458333 -50.25919 -331.32537)">
  <path transform="matrix(.13333333 0 0 -.13333333 0 2800)" d="m4599.02 10795.8c-127.62 531.3-739.11 773.8-1195.01 488.7-144.95 196.3-377.86 323.6-640.57 323.6-457.3 0-825.49-386.2-793.82-850.7-308.79-48.6-544.95-315.9-544.95-638.3 0-464.5 475.73-775.2 899.2-594.9 263.24-356.3 792.36-364.4 1066.2-15.6 295.1-271.2 760.25-235.9 1010.32 82.2 392.71-111.4 782.68 183.7 782.68 591.2 0 329.2-258.81 597.9-584.05 613.8" fill="#758899"/>
  <path transform="matrix(.13333333 0 0 -.13333333 0 2800)" d="m2863.04 9433.1c-202.8 0-405.33 91.2-539.17 272.3-83.38-35.5-168.77-52-252.16-52-179.15 0-349.02 76-469.71 202.4-50.87 84.7-80.53 183.6-80.53 291.8 0 292.9 223.99 535.6 516.87 579.8-30.03 421.9 319.2 772.7 752.93 772.7 249.18 0 470.1-115.7 607.58-294 125.02 74.9 262.34 109.7 397.37 109.7 332.02 0 650.04-210.5 736.08-553.5 308.49-14.5 553.97-258.6 553.97-557.6 0-93.5-23.61-180.5-64.94-256.7-113.85-123.8-276.75-199.7-451.96-199.7-55.48 0-112.2 7.6-168.98 23.8-137.47-174.9-339.96-264.3-543.45-264.3-166.67 0-334 59.9-466.87 182.1-134.61-171.5-330.95-256.8-527.03-256.8m47.05 650.5-36.07-82.3 211.33-136.3 161.44 115.3 177.37-100.1 174.78 111.2 151.21-100.2 177.02 133.9-57.83 77.1-122.62-93.2-146.7 97.3-178.82-113.8-180.51 101.9-159.72-114.2-170.88 103.4m715.43 623-59.47-34.7 198.28-340.4 454.84 93.2-113.84 445.3-361.06-86.6 71.52-303.9 255.79 33.3-59.95 218.9-120.15-33.5 18.53-66.3 53.52 14.9 20.78-75.9-115.77-15.1-41.61 176.6 228.52 54.8 79.17-309.5-335.69-68.9-173.41 297.8m-699.52 243.2-339.14-197.5 60.86-414.4 477.2 68.8-87.4 364.8-303.92-71.5 33.29-255.7 218.86 59.9-33.48 120.1-66.29-18.5 14.9-53.5-75.95-20.8-15.05 115.8 176.66 41.6 53.87-224.8-334.59-48.3-44.1 300.4 298.9 174.1-34.62 59.5" fill="#687e92"/>
  <g fill="#a9bece">
   <path transform="matrix(.13333333 0 0 -.13333333 0 2800)" d="m2329.54 11305.8c40.79-37.7 20.01-126.5-46.41-198.4-66.41-72-153.32-99.7-194.11-62.1-40.79 37.7-20.02 126.5 46.4 198.5 66.42 71.9 153.33 99.6 194.12 62"/>
   <path transform="matrix(.13333333 0 0 -.13333333 0 2800)" d="m1874.19 10601.1c15.53-28.4-12.5-73.7-62.61-101-50.11-27.4-103.33-26.6-118.86 1.8s12.5 73.7 62.61 101.1 103.33 26.5 118.86-1.9"/>
   <path transform="matrix(.13333333 0 0 -.13333333 0 2800)" d="m3701.46 11324.2c16.24-28.1-10.18-73.8-59-102.1-48.82-28.2-101.57-28.4-117.8-0.4-16.24 28.1 10.17 73.7 59 102 48.82 28.3 101.56 28.5 117.8 0.5"/>
  </g>
  <path transform="matrix(.13333333 0 0 -.13333333 0 2800)" d="m1424.67 10119.1v1.7-1.7m0 2.3c0.01 0.3 0.01 0.7 0.01 1 0-0.3 0-0.7-0.01-1m0.01 1.8c0.01 0.2 0.01 0.5 0.01 0.8 0-0.3 0-0.6-0.01-0.8m3758.39 58.8v1.7-1.7m0 2.2c0 0.4 0 0.9-0.01 1.3 0.01-0.4 0.01-0.9 0.01-1.3m-0.01 1.8c0 0.5-0.01 1-0.01 1.5 0-0.5 0.01-1 0.01-1.5m-0.02 2c0 0.5 0 0.9-0.01 1.4 0.01-0.5 0.01-0.9 0.01-1.4m-0.02 2.2c0 0.3-0.01 0.6-0.01 0.9 0-0.3 0.01-0.6 0.01-0.9m-0.03 1.8c0 0.2 0 0.4-0.01 0.6 0.01-0.2 0.01-0.4 0.01-0.6m-0.08 4.4v0.1-0.1" fill="#11303e"/>
  <path transform="matrix(.13333333 0 0 -.13333333 0 2800)" d="m2863.04 9251.9c-202.78 0-405.35 91.2-539.17 272.3-83.41-35.5-168.78-52-252.2-52-340.15 0-647 273.9-647 646.9v1.7 0.6c0.01 0.3 0.01 0.7 0.01 1v0.8c0.01 0.2 0.01 0.5 0.01 0.8 0.22 29 2.38 57.6 6.3 85.6 19.15-138.7 81.56-260.1 171.01-353.8 108.48-180.5 313.5-295.8 533.14-295.8 79.13 0 160.1 15 239.21 47.2 126.93-164.5 319.07-247.3 511.4-247.3 186 0 372.18 77.4 499.87 233.2 126.01-110.9 284.77-165.4 442.83-165.4 193.03 0 385.05 81.2 515.46 240.1 53.86-14.6 107.7-21.6 160.33-21.6 219.4 0 418.55 120.1 517.09 301.8 80.66 87.7 136.7 199.4 155.01 325.2 3.73-25.1 5.96-50.7 6.57-76.7v-0.1c0.03-1.2 0.05-2.5 0.07-3.8 0.01-0.2 0.01-0.4 0.01-0.6 0.01-0.3 0.01-0.6 0.02-0.9 0-0.3 0.01-0.6 0.01-0.9s0.01-0.5 0.01-0.8c0.01-0.5 0.01-0.9 0.01-1.4 0.01-0.2 0.01-0.4 0.01-0.5 0-0.5 0.01-1 0.01-1.5v-0.5c0.01-0.4 0.01-0.9 0.01-1.3v-0.5-1.7c0-348.6-285.31-614.9-613.64-614.9-55.5 0-112.25 7.6-169.04 23.7-137.49-174.9-339.94-264.3-543.45-264.3-166.65 0-334.02 60-466.87 182.1-134.63-171.5-330.93-256.7-527.03-256.7" fill="#687e92"/>
  <path transform="matrix(.13333333 0 0 -.13333333 0 2800)" d="m2885.75 9359.9c-192.33 0-384.47 82.8-511.4 247.3-79.11-32.2-160.08-47.2-239.21-47.2-219.64 0-424.66 115.3-533.14 295.8 120.69-126.4 290.56-202.4 469.71-202.4 83.39 0 168.78 16.5 252.16 52 133.84-181.1 336.37-272.3 539.17-272.3 196.08 0 392.42 85.3 527.03 256.8 132.87-122.2 300.2-182.1 466.87-182.1 203.49 0 405.98 89.4 543.45 264.3 56.78-16.2 113.5-23.8 168.98-23.8 175.21 0 338.11 75.9 451.96 199.7-98.54-181.7-297.69-301.8-517.09-301.8-52.63 0-106.47 7-160.33 21.6-130.41-158.9-322.43-240.1-515.46-240.1-158.06 0-316.82 54.5-442.83 165.4-127.69-155.8-313.87-233.2-499.87-233.2" fill="#5c758b"/>
  <path transform="matrix(.13333333 0 0 -.13333333 0 2800)" d="m3346.38 9645.9c-124.14-17.1-232.83 27-242.75 98.7s99.89 55.6 224.03 72.8c124.15 17.2 215.62 61.1 225.54-10.5 9.93-71.7-82.67-143.8-206.82-161" fill="#687e92"/>
  <path transform="matrix(.13333333 0 0 -.13333333 0 2800)" d="m2647.72 10337.9-60.86 414.4 339.14 197.5 34.62-59.5-298.9-174.1 44.1-300.4 334.59 48.3-53.87 224.8-176.66-41.6 15.05-115.8 75.95 20.8-14.9 53.5 66.29 18.5 33.48-120.1-218.86-59.9-33.29 255.7 303.92 71.5 87.4-364.8-477.2-68.8" fill="#99a9b6"/>
  <path transform="matrix(.13333333 0 0 -.13333333 0 2800)" d="m3764.33 10331.5-198.28 340.4 59.47 34.7 173.41-297.8 335.69 68.9-79.17 309.5-228.52-54.8 41.61-176.6 115.77 15.1-20.78 75.9-53.52-14.9-18.53 66.3 120.15 33.5 59.95-218.9-255.79-33.3-71.52 303.9 361.06 86.6 113.84-445.3-454.84-93.2" fill="#99a9b6"/>
  <path transform="matrix(.13333333 0 0 -.13333333 0 2800)" d="m2733.6 10704.4 33.29-255.8 218.86 60-33.48 120-66.29-18.4 14.9-53.5-75.95-20.8-15.05 115.7 176.66 41.6 53.87-224.8-334.59-48.2-44.1 300.3 298.91 174.1-34.63 59.5-339.14-197.5 60.86-414.3 477.2 68.8-87.4 364.8-303.92-71.5" fill="#133441"/>
  <path transform="matrix(.13333333 0 0 -.13333333 0 2800)" d="m4105.33 10874.3-361.06-86.6 71.52-303.9 255.79 33.4-59.95 218.8-120.14-33.5 18.52-66.3 53.52 14.9 20.78-75.9-115.77-15.1-41.61 176.7 228.52 54.8 79.17-309.6-335.69-68.8-173.41 297.7-59.48-34.7 198.29-340.3 454.84 93.2-113.84 445.2" fill="#133441"/>
  <path transform="matrix(.13333333 0 0 -.13333333 0 2800)" d="m3085.35 9865-211.33 136.3 36.07 82.3 170.88-103.4 159.72 114.2 180.51-101.9 178.82 113.8 146.7-97.3 122.62 93.2 57.83-77.1-177.02-133.9-151.21 100.2-174.78-111.2-177.37 100.1-161.44-115.3" fill="#99a9b6"/>
  <path transform="matrix(.13333333 0 0 -.13333333 0 2800)" d="m3869.35 10106.9-122.62-93.1-146.72 97.2-178.81-113.8-180.51 101.8-159.72-114.1-170.88 103.4-36.07-82.3 211.33-136.3 161.44 115.3 177.37-100.1 174.78 111.2 151.21-100.2 177.02 133.9-57.82 77.1" fill="#133441"/>
 </g>
</svg>
