<?xml version="1.0" encoding="UTF-8" standalone="no"?>
<!-- Created with Inkscape (http://www.inkscape.org/) -->

<svg
   width="132.588mm"
   height="83.121498mm"
   viewBox="0 0 132.588 83.121498"
   version="1.1"
   id="svg1"
   inkscape:version="1.4.2 (f4327f4, 2025-05-13)"
   sodipodi:docname="cloud_not_happy.svg"
   xmlns:inkscape="http://www.inkscape.org/namespaces/inkscape"
   xmlns:sodipodi="http://sodipodi.sourceforge.net/DTD/sodipodi-0.dtd"
   xmlns="http://www.w3.org/2000/svg"
   xmlns:svg="http://www.w3.org/2000/svg">
  <sodipodi:namedview
     id="namedview1"
     pagecolor="#ffffff"
     bordercolor="#000000"
     borderopacity="0.25"
     inkscape:showpageshadow="2"
     inkscape:pageopacity="0.0"
     inkscape:pagecheckerboard="0"
     inkscape:deskcolor="#d1d1d1"
     inkscape:document-units="mm"
     inkscape:zoom="0.68862935"
     inkscape:cx="300.59712"
     inkscape:cy="161.91584"
     inkscape:window-width="1920"
     inkscape:window-height="991"
     inkscape:window-x="-9"
     inkscape:window-y="-9"
     inkscape:window-maximized="1"
     inkscape:current-layer="svg1" />
  <defs
     id="defs1">
    <radialGradient
       fx="0"
       fy="0"
       cx="0"
       cy="0"
       r="1"
       gradientUnits="userSpaceOnUse"
       gradientTransform="matrix(0,479.576,479.576,0,20833,13377.3)"
       spreadMethod="pad"
       id="radialGradient1476">
      <stop
         style="stop-opacity:1;stop-color:#bd3e26"
         offset="0"
         id="stop1474" />
      <stop
         style="stop-opacity:1;stop-color:#bd3e26"
         offset="0.430359"
         id="stop1475" />
      <stop
         style="stop-opacity:1;stop-color:#8c2e1c"
         offset="1"
         id="stop1476" />
    </radialGradient>
    <clipPath
       clipPathUnits="userSpaceOnUse"
       id="clipPath1476">
      <path
         d="m 20471.8,13758.3 c 0,0 130.6,-91.9 340.8,-74 187.9,16 319,105 319,105 0,0 41.3,-247.5 -322.4,-266.3 -337.7,-17.5 -337.4,235.3 -337.4,235.3 z"
         id="path1476" />
    </clipPath>
  </defs>
  <g
     id="g16"
     style="display:inline"
     transform="matrix(0.26458333,0,0,0.26458333,-357.03932,-331.32537)">
    <path
       id="path746"
       d="m 13295.1,10795.8 c -127.6,531.3 -739.1,773.8 -1195,488.7 -144.9,196.3 -377.8,323.6 -640.5,323.6 -457.3,0 -825.5,-386.2 -793.9,-850.7 -308.8,-48.6 -544.9,-315.9 -544.9,-638.3 0,-464.5 475.7,-775.2 899.2,-594.9 263.2,-356.3 792.4,-364.4 1066.2,-15.6 295.1,-271.2 760.3,-235.9 1010.3,82.2 392.7,-111.4 782.7,183.7 782.7,591.2 0,329.2 -258.8,597.9 -584.1,613.8"
       style="fill:#758899;fill-opacity:1;fill-rule:nonzero;stroke:none"
       transform="matrix(0.13333333,0,0,-0.13333333,0,2800)" />
    <path
       id="path747"
       d="m 11559.2,9433.1 c -202.8,0 -405.4,91.2 -539.2,272.3 -83.4,-35.5 -168.8,-52 -252.2,-52 -179.1,0 -349,76 -469.7,202.4 -50.9,84.7 -80.5,183.6 -80.5,291.8 0,292.9 224,535.6 516.9,579.8 -30.1,421.9 319.2,772.7 752.9,772.7 249.2,0 470.1,-115.7 607.6,-294 125,74.9 262.3,109.7 397.4,109.7 332,0 650,-210.5 736,-553.5 308.5,-14.5 554,-258.6 554,-557.6 0,-93.5 -23.6,-180.5 -64.9,-256.7 -113.9,-123.8 -276.8,-199.7 -452,-199.7 -55.5,0 -112.2,7.6 -169,23.8 -137.5,-174.9 -339.9,-264.3 -543.4,-264.3 -166.7,0 -334,59.9 -466.9,182.1 -134.6,-171.5 -330.9,-256.8 -527,-256.8 m 211.4,813.4 c -13.1,0 -26.1,-6.2 -34.1,-17.9 -12.9,-18.8 -8.1,-44.5 10.7,-57.4 59,-40.5 118.9,-54.9 173.2,-54.9 78.1,0 144.5,29.8 179,55.2 44.4,31.3 87.8,41.8 126,41.8 73.1,0 126.7,-38.5 130.3,-41.2 7.5,-5.5 16.2,-8.2 24.8,-8.2 12.5,0 24.9,5.7 33,16.5 13.7,18.2 10.1,44.1 -8.2,57.8 -34.9,26.4 -101.5,57.2 -179.8,57.2 -54.6,0 -114.9,-15 -174.3,-56.9 -0.9,-0.6 -55.8,-39.8 -131.1,-39.8 -38.2,0 -81.8,10.1 -126.1,40.6 -7.2,4.9 -15.3,7.2 -23.4,7.2 m 889.1,514.9 c -67.1,0 -121.4,-54.3 -121.4,-121.3 0,-67.1 54.3,-121.5 121.4,-121.5 67,0 121.3,54.4 121.3,121.5 0,67 -54.3,121.3 -121.3,121.3 m -1205.2,0 c -67.1,0 -121.4,-54.3 -121.4,-121.3 0,-67.1 54.3,-121.5 121.4,-121.5 67,0 121.4,54.4 121.4,121.5 0,67 -54.4,121.3 -121.4,121.3"
       style="fill:#687e92;fill-opacity:1;fill-rule:nonzero;stroke:none"
       transform="matrix(0.13333333,0,0,-0.13333333,0,2800)" />
    <path
       id="path748"
       d="m 11025.7,11305.8 c 40.8,-37.7 20,-126.5 -46.4,-198.4 -66.5,-72 -153.4,-99.7 -194.2,-62.1 -40.7,37.7 -20,126.5 46.4,198.5 66.5,71.9 153.4,99.6 194.2,62"
       style="fill:#a9bece;fill-opacity:1;fill-rule:nonzero;stroke:none"
       transform="matrix(0.13333333,0,0,-0.13333333,0,2800)" />
    <path
       id="path749"
       d="m 10570.3,10601.1 c 15.6,-28.4 -12.5,-73.7 -62.6,-101 -50.1,-27.4 -103.3,-26.6 -118.9,1.8 -15.5,28.4 12.5,73.7 62.7,101.1 50.1,27.4 103.3,26.5 118.8,-1.9"
       style="fill:#a9bece;fill-opacity:1;fill-rule:nonzero;stroke:none"
       transform="matrix(0.13333333,0,0,-0.13333333,0,2800)" />
    <path
       id="path750"
       d="m 12397.6,11324.2 c 16.2,-28.1 -10.2,-73.8 -59,-102.1 -48.8,-28.2 -101.6,-28.4 -117.8,-0.4 -16.3,28.1 10.2,73.7 59,102 48.8,28.3 101.6,28.5 117.8,0.5"
       style="fill:#a9bece;fill-opacity:1;fill-rule:nonzero;stroke:none"
       transform="matrix(0.13333333,0,0,-0.13333333,0,2800)" />
    <path
       id="path751"
       d="m 10120.8,10119.1 c 0,0.5 0,1.1 0,1.7 0,-0.6 0,-1.2 0,-1.7 m 0,2.3 c 0,0.3 0,0.6 0,1 0,-0.3 0,-0.7 0,-1 m 0,1.8 c 0,0.2 0,0.4 0,0.7 0,-0.3 0,-0.5 0,-0.7 m 3758.4,58.8 c 0,0.6 0,1.1 0,1.7 0,-0.6 0,-1.1 0,-1.7 m 0,2.2 c 0,0.4 0,0.9 0,1.3 0,-0.4 0,-0.9 0,-1.3 m 0,1.8 c 0,0.5 0,1 0,1.5 0,-0.5 0,-1 0,-1.5 m 0,2 c 0,0.5 0,0.9 0,1.4 0,-0.5 0,-0.9 0,-1.4 m -0.1,2.2 c 0,0.3 0,0.6 0,0.9 0,-0.3 0,-0.6 0,-0.9 m 0,1.8 c 0,0.2 0,0.4 0,0.6 0,-0.2 0,-0.4 0,-0.6 m -0.1,4.4 c 0,0.1 0,0.1 0,0.1 0,0 0,0 0,-0.1"
       style="fill:#11303e;fill-opacity:1;fill-rule:nonzero;stroke:none"
       transform="matrix(0.13333333,0,0,-0.13333333,0,2800)" />
    <path
       id="path752"
       d="m 11559.2,9251.9 c -202.8,0 -405.4,91.2 -539.2,272.3 -83.4,-35.5 -168.8,-52 -252.2,-52 -340.2,0 -647,273.9 -647,646.9 v 0 c 0,0.5 0,1.1 0,1.7 0,0.2 0,0.4 0,0.6 0,0.3 0,0.7 0,1 0,0.3 0,0.5 0,0.8 0,0.2 0,0.4 0,0.7 0.2,29.1 2.4,57.7 6.3,85.7 19.2,-138.7 81.6,-260.1 171,-353.8 108.5,-180.4 313.5,-295.8 533.2,-295.8 79.1,0 160.1,15 239.2,47.2 126.9,-164.5 319,-247.3 511.4,-247.3 186,0 372.2,77.4 499.9,233.2 126,-110.9 284.7,-165.4 442.8,-165.4 193,0 385,81.2 515.4,240.1 53.9,-14.6 107.7,-21.6 160.4,-21.6 219.4,0 418.5,120.1 517.1,301.8 80.6,87.7 136.7,199.4 155,325.2 3.7,-25.1 5.9,-50.7 6.5,-76.7 0,0 0,0 0,-0.1 0.1,-1.2 0.1,-2.5 0.1,-3.8 0,-0.2 0,-0.4 0,-0.6 0,-0.3 0,-0.6 0,-0.9 0,-0.3 0,-0.6 0,-0.9 0.1,-0.3 0.1,-0.5 0.1,-0.8 0,-0.5 0,-0.9 0,-1.4 0,-0.2 0,-0.4 0,-0.5 0,-0.5 0,-1 0,-1.5 0,-0.1 0,-0.3 0,-0.5 0,-0.4 0,-0.9 0,-1.3 0,-0.2 0,-0.3 0,-0.5 0,-0.6 0,-1.1 0,-1.7 v 0 c 0,-348.6 -285.3,-614.9 -613.6,-614.9 -55.5,0 -112.3,7.6 -169.1,23.7 -137.5,-174.9 -339.9,-264.3 -543.4,-264.3 -166.7,0 -334,60 -466.9,182.1 -134.6,-171.5 -330.9,-256.7 -527,-256.7"
       style="fill:#687e92;fill-opacity:1;fill-rule:nonzero;stroke:none"
       transform="matrix(0.13333333,0,0,-0.13333333,0,2800)" />
    <path
       id="path753"
       d="m 11581.9,9359.9 c -192.4,0 -384.5,82.8 -511.4,247.3 -79.1,-32.2 -160.1,-47.2 -239.2,-47.2 -219.7,0 -424.7,115.4 -533.2,295.8 120.7,-126.4 290.6,-202.4 469.7,-202.4 83.4,0 168.8,16.5 252.2,52 133.8,-181.1 336.4,-272.3 539.2,-272.3 196.1,0 392.4,85.3 527,256.8 132.9,-122.2 300.2,-182.1 466.9,-182.1 203.5,0 405.9,89.4 543.4,264.3 56.8,-16.2 113.5,-23.8 169,-23.8 175.2,0 338.1,75.9 452,199.7 -98.6,-181.7 -297.7,-301.8 -517.1,-301.8 -52.7,0 -106.5,7 -160.4,21.6 -130.4,-158.9 -322.4,-240.1 -515.4,-240.1 -158.1,0 -316.8,54.5 -442.8,165.4 -127.7,-155.8 -313.9,-233.2 -499.9,-233.2"
       style="fill:#5c758b;fill-opacity:1;fill-rule:nonzero;stroke:none"
       transform="matrix(0.13333333,0,0,-0.13333333,0,2800)" />
    <path
       id="path754"
       d="m 12042.5,9645.9 c -124.1,-17.1 -232.8,27 -242.7,98.7 -10,71.7 99.8,55.6 224,72.8 124.1,17.2 215.6,61.1 225.5,-10.5 10,-71.7 -82.6,-143.8 -206.8,-161"
       style="fill:#687e92;fill-opacity:1;fill-rule:nonzero;stroke:none"
       transform="matrix(0.13333333,0,0,-0.13333333,0,2800)" />
    <path
       id="path755"
       d="m 12659.7,10518.6 c -67.1,0 -121.4,54.4 -121.4,121.5 0,67 54.3,121.3 121.4,121.3 67,0 121.3,-54.3 121.3,-121.3 0,-67.1 -54.3,-121.5 -121.3,-121.5"
       style="fill:#99a9b6;fill-opacity:1;fill-rule:nonzero;stroke:none"
       transform="matrix(0.13333333,0,0,-0.13333333,0,2800)" />
    <path
       id="path756"
       d="m 11454.5,10518.6 c -67.1,0 -121.4,54.4 -121.4,121.5 0,67 54.3,121.3 121.4,121.3 67,0 121.4,-54.3 121.4,-121.3 0,-67.1 -54.4,-121.5 -121.4,-121.5"
       style="fill:#99a9b6;fill-opacity:1;fill-rule:nonzero;stroke:none"
       transform="matrix(0.13333333,0,0,-0.13333333,0,2800)" />
    <path
       id="path757"
       d="m 12781,10646.5 c 0,-67.1 -54.3,-121.5 -121.3,-121.5 -67.1,0 -121.4,54.4 -121.4,121.5 0,67 54.3,121.3 121.4,121.3 67,0 121.3,-54.3 121.3,-121.3"
       style="fill:#133441;fill-opacity:1;fill-rule:nonzero;stroke:none"
       transform="matrix(0.13333333,0,0,-0.13333333,0,2800)" />
    <path
       id="path758"
       d="m 11575.9,10646.5 c 0,-67.1 -54.4,-121.5 -121.4,-121.5 -67.1,0 -121.4,54.4 -121.4,121.5 0,67 54.3,121.3 121.4,121.3 67,0 121.4,-54.3 121.4,-121.3"
       style="fill:#133441;fill-opacity:1;fill-rule:nonzero;stroke:none"
       transform="matrix(0.13333333,0,0,-0.13333333,0,2800)" />
    <path
       id="path759"
       d="m 11920.4,10116.3 c -54.3,0 -114.2,14.4 -173.2,54.9 -18.8,12.9 -23.6,38.6 -10.7,57.4 8,11.7 21,17.9 34.1,17.9 8.1,0 16.2,-2.3 23.4,-7.2 44.3,-30.5 87.9,-40.6 126.1,-40.6 75.3,0 130.2,39.2 131.1,39.8 59.4,41.9 119.7,56.9 174.3,56.9 78.3,0 144.9,-30.8 179.8,-57.2 18.3,-13.7 21.9,-39.6 8.2,-57.8 -8.1,-10.8 -20.5,-16.5 -33,-16.5 -8.6,0 -17.3,2.7 -24.8,8.2 -3.6,2.7 -57.2,41.2 -130.3,41.2 -38.2,0 -81.6,-10.5 -126,-41.8 -34.5,-25.4 -100.9,-55.2 -179,-55.2"
       style="fill:#99a9b6;fill-opacity:1;fill-rule:nonzero;stroke:none"
       transform="matrix(0.13333333,0,0,-0.13333333,0,2800)" />
    <path
       id="path760"
       d="m 12405.3,10242.7 c -59.3,44.6 -209.6,102.3 -354.1,0.3 -1.3,-1 -125.5,-89.8 -257.2,0.7 -18.9,12.9 -44.6,8.1 -57.5,-10.7 -12.9,-18.8 -8.1,-44.5 10.7,-57.4 59,-40.5 118.9,-54.9 173.2,-54.9 78.1,0 144.5,29.9 179,55.2 129.7,91.6 250.8,4.8 256.3,0.7 18.3,-13.6 44.1,-10 57.8,8.2 13.7,18.2 10.1,44.1 -8.2,57.9"
       style="fill:#133441;fill-opacity:1;fill-rule:nonzero;stroke:none"
       transform="matrix(0.13333333,0,0,-0.13333333,0,2800)" />
  </g>
</svg>
