<?xml version="1.0" encoding="UTF-8" standalone="no"?>
<!-- Created with Inkscape (http://www.inkscape.org/) -->

<svg
   width="132.588mm"
   height="83.121513mm"
   viewBox="0 0 132.588 83.121513"
   version="1.1"
   id="svg1"
   inkscape:version="1.4.2 (f4327f4, 2025-05-13)"
   sodipodi:docname="cloud_sad.svg"
   xmlns:inkscape="http://www.inkscape.org/namespaces/inkscape"
   xmlns:sodipodi="http://sodipodi.sourceforge.net/DTD/sodipodi-0.dtd"
   xmlns="http://www.w3.org/2000/svg"
   xmlns:svg="http://www.w3.org/2000/svg">
  <sodipodi:namedview
     id="namedview1"
     pagecolor="#ffffff"
     bordercolor="#000000"
     borderopacity="0.25"
     inkscape:showpageshadow="2"
     inkscape:pageopacity="0.0"
     inkscape:pagecheckerboard="0"
     inkscape:deskcolor="#d1d1d1"
     inkscape:document-units="mm"
     inkscape:zoom="0.68862935"
     inkscape:cx="290.432"
     inkscape:cy="363.76608"
     inkscape:window-width="1920"
     inkscape:window-height="991"
     inkscape:window-x="-9"
     inkscape:window-y="-9"
     inkscape:window-maximized="1"
     inkscape:current-layer="layer1" />
  <defs
     id="defs1" />
  <g
     inkscape:label="Layer 1"
     inkscape:groupmode="layer"
     id="layer1"
     transform="translate(-28.574999,-51.858324)">
    <g
       id="g27"
       style="display:inline"
       transform="matrix(0.26458333,0,0,0.26458333,-328.46433,-155.28927)">
      <path
         id="path3"
         d="m 1772.68,891.22671 c -17.0134,-70.83999 -98.5467,-103.17333 -159.3334,-65.15999 -19.32,-26.17334 -50.3733,-43.14667 -85.4,-43.14667 -60.9733,0 -110.0666,51.49333 -105.8533,113.42666 -41.1733,6.48 -72.6533,42.12 -72.6533,85.10667 0,61.93332 63.4266,103.36002 119.8933,79.32002 35.0933,47.5066 105.6533,48.5866 142.16,2.08 39.3467,36.16 101.3733,31.4533 134.7067,-10.96 52.36,14.8533 104.36,-24.4934 104.36,-78.82669 0,-43.89333 -34.5067,-79.72 -77.88,-81.84"
         style="fill:#758899;fill-opacity:1;fill-rule:nonzero;stroke:none;stroke-width:0.133333" />
      <path
         id="path4"
         d="m 1541.2266,1072.92 c -27.04,0 -54.0533,-12.16 -71.8933,-36.3066 -11.12,4.7333 -22.5067,6.9333 -33.6267,6.9333 -23.88,0 -46.5333,-10.1333 -62.6266,-26.9867 -6.7734,-11.2933 -10.7334,-24.47995 -10.7334,-38.90662 0,-39.05333 29.8667,-71.41333 68.92,-77.30667 -4.0133,-56.25333 42.56,-103.02666 100.3867,-103.02666 33.2267,0 62.68,15.42667 81.0133,39.2 16.6667,-9.98667 34.9734,-14.62667 52.9867,-14.62667 44.2667,0 86.6667,28.06667 98.1333,73.8 41.1334,1.93333 73.8667,34.48 73.8667,74.34667 0,12.46666 -3.1467,24.06666 -8.6533,34.22665 -15.1867,16.5067 -36.9067,26.6267 -60.2667,26.6267 -7.4,0 -14.96,-1.0134 -22.5333,-3.1734 -18.3334,23.32 -45.32,35.24 -72.4534,35.24 -22.2266,0 -44.5333,-8 -62.2533,-24.28 -17.9467,22.8667 -44.12,34.24 -70.2667,34.24 m -118.1733,-92.69329 -28.32,49.29329 68.9067,-64.38662 -26.0267,-3.62667 22.16,-34.70666 -61.0133,53.62666 24.2933,-0.2 m 183.6533,-6.77333 c -11.2,0 -23.9333,4.09333 -36.92,16.34667 -1.8533,1.73333 -1.9333,4.64 -0.1866,6.48 0.8933,0.96 2.1066,1.44 3.3333,1.44 1.12,0 2.2533,-0.41334 3.1467,-1.25334 11,-10.37333 21.6666,-13.82666 31.0133,-13.82666 18.04,0 31.1067,12.88 31.92,13.70666 0.8933,0.92 2.08,1.37334 3.2667,1.37334 1.16,0 2.32,-0.44 3.2266,-1.30667 1.8,-1.77333 1.8267,-4.68 0.053,-6.49333 -0.24,-0.25334 -16.52,-16.46667 -38.8534,-16.46667 m 81.2534,-75.25333 c -8.9467,0 -16.1867,7.24 -16.1867,16.17333 0,8.93333 7.24,16.18667 16.1867,16.18667 8.9333,0 16.1733,-7.25334 16.1733,-16.18667 0,-8.93333 -7.24,-16.17333 -16.1733,-16.17333 m -160.6934,0 c -8.9466,0 -16.1866,7.24 -16.1866,16.17333 0,8.93333 7.24,16.18667 16.1866,16.18667 8.9334,0 16.1867,-7.25334 16.1867,-16.18667 0,-8.93333 -7.2533,-16.17333 -16.1867,-16.17333"
         style="fill:#687e92;fill-opacity:1;fill-rule:nonzero;stroke:none;stroke-width:0.133333" />
      <path
         id="path5"
         d="m 1470.0933,823.22672 c 5.44,5.02666 2.6667,16.86666 -6.1867,26.45333 -8.8666,9.6 -20.4533,13.29333 -25.8933,8.28 -5.4267,-5.02667 -2.6667,-16.86667 6.1867,-26.46667 8.8666,-9.58666 20.4533,-13.28 25.8933,-8.26666"
         style="fill:#a9bece;fill-opacity:1;fill-rule:nonzero;stroke:none;stroke-width:0.133333" />
      <path
         id="path6"
         d="m 1409.3733,917.18671 c 2.08,3.78667 -1.6667,9.82667 -8.3467,13.46667 -6.68,3.65333 -13.7733,3.54667 -15.8533,-0.24 -2.0667,-3.8 1.6667,-9.82667 8.36,-13.48 6.68,-3.65333 13.7733,-3.53333 15.84,0.25333"
         style="fill:#a9bece;fill-opacity:1;fill-rule:nonzero;stroke:none;stroke-width:0.133333" />
      <path
         id="path7"
         d="m 1653.0133,820.77338 c 2.16,3.74667 -1.36,9.84 -7.8667,13.61334 -6.5066,3.76 -13.5466,3.78666 -15.7066,0.0533 -2.1734,-3.74667 1.36,-9.82667 7.8666,-13.6 6.5067,-3.77333 13.5467,-3.8 15.7067,-0.0667"
         style="fill:#a9bece;fill-opacity:1;fill-rule:nonzero;stroke:none;stroke-width:0.133333" />
      <path
         id="path8"
         d="m 1349.44,981.45338 c 0,-0.0667 0,-0.14667 0,-0.22667 0,0.08 0,0.16 0,0.22667 m 0,-0.30667 c 0,-0.04 0,-0.0933 0,-0.13333 0,0.04 0,0.0933 0,0.13333 m 0,-0.24 c 0,-0.0267 0,-0.0533 0,-0.0933 0,0.0267 0,0.0667 0,0.0933 m 501.12,-7.84 c 0,-0.08 0,-0.14666 0,-0.22666 0,0.08 0,0.14666 0,0.22666 m 0,-0.29333 c 0,-0.0533 0,-0.12 0,-0.17333 0,0.0533 0,0.12 0,0.17333 m 0,-0.25333 c 0,-0.0533 0,-0.12 0,-0.18667 0,0.0667 0,0.13333 0,0.18667 m 0,-0.25334 c 0,-0.0667 0,-0.12 0,-0.18666 0,0.0667 0,0.12 0,0.18666 m -0.013,-0.29333 c 0,-0.04 0,-0.08 0,-0.12 0,0.04 0,0.08 0,0.12 m 0,-0.24 c 0,-0.0267 0,-0.0533 0,-0.08 0,0.0267 0,0.0533 0,0.08 m -0.013,-0.58667 c 0,0 0,-0.0133 0,-0.0133 0,0 0,0.0133 0,0.0133"
         style="fill:#11303e;fill-opacity:1;fill-rule:nonzero;stroke:none;stroke-width:0.133333" />
      <path
         id="path9"
         d="m 1541.2266,1097.08 c -27.04,0 -54.0533,-12.16 -71.8933,-36.3066 -11.12,4.7333 -22.5067,6.9333 -33.6267,6.9333 -45.36,0 -86.2666,-36.52 -86.2666,-86.25332 v 0 c 0,-0.0667 0,-0.14667 0,-0.22667 0,-0.0267 0,-0.0533 0,-0.08 0,-0.04 0,-0.0933 0,-0.13333 0,-0.04 0,-0.0667 0,-0.10667 0,-0.0267 0,-0.0667 0,-0.0933 0.027,-3.88 0.32,-7.69333 0.84,-11.44 2.56,18.50667 10.88,34.69329 22.8,47.18659 14.4666,24.0534 41.8,39.44 71.0933,39.44 10.5467,0 21.3467,-2 31.8933,-6.2933 16.92,21.9333 42.5334,32.9733 68.1867,32.9733 24.8,0 49.6267,-10.3333 66.6533,-31.0933 16.8,14.7867 37.96,22.04 59.04,22.04 25.7334,0 51.3334,-10.8133 68.72,-32 7.1867,1.9467 14.36,2.88 21.3867,2.88 29.2533,0 55.8,-16.0133 68.9467,-40.24 10.7466,-11.69329 18.2266,-26.58662 20.6666,-43.35996 0.4934,3.34667 0.7867,6.76 0.8667,10.22667 0,0 0,0.0133 0,0.0133 0.013,0.16 0.013,0.33334 0.013,0.50667 0,0.0267 0,0.0533 0,0.08 0,0.04 0,0.08 0,0.12 0,0.04 0,0.08 0,0.12 0.013,0.04 0.013,0.0667 0.013,0.10667 0,0.0667 0,0.12 0,0.18666 0,0.0267 0,0.04 0,0.0667 0,0.0667 0,0.13333 0,0.18667 0,0.0267 0,0.0533 0,0.08 0,0.0533 0,0.12 0,0.17333 0,0.0133 0,0.04 0,0.0667 0,0.08 0,0.14666 0,0.22666 v 0 c 0,46.48003 -38.04,81.98673 -81.8134,81.98673 -7.4,0 -14.9733,-1.0134 -22.5466,-3.16 -18.3334,23.32 -45.32,35.2266 -72.4534,35.2266 -22.2266,0 -44.5333,-7.9866 -62.2533,-24.2666 -17.9467,22.8666 -44.12,34.2266 -70.2667,34.2266"
         style="fill:#687e92;fill-opacity:1;fill-rule:nonzero;stroke:none;stroke-width:0.133333" />
      <path
         id="path10"
         d="m 1544.2533,1082.68 c -25.6533,0 -51.2667,-11.04 -68.1867,-32.9733 C 1465.52,1054 1454.72,1056 1444.1733,1056 c -29.2933,0 -56.6267,-15.3866 -71.0933,-39.44 16.0933,16.8534 38.7466,26.9867 62.6266,26.9867 11.12,0 22.5067,-2.2 33.6267,-6.9333 17.84,24.1466 44.8533,36.3066 71.8933,36.3066 26.1467,0 52.32,-11.3733 70.2667,-34.24 17.72,16.28 40.0267,24.28 62.2533,24.28 27.1334,0 54.12,-11.92 72.4534,-35.24 7.5733,2.16 15.1333,3.1734 22.5333,3.1734 23.36,0 45.08,-10.12 60.2667,-26.6267 -13.1467,24.2267 -39.6934,40.24 -68.9467,40.24 -7.0267,0 -14.2,-0.9333 -21.3867,-2.88 -17.3866,21.1867 -42.9866,32 -68.72,32 -21.08,0 -42.24,-7.2533 -59.04,-22.04 -17.0266,20.76 -41.8533,31.0933 -66.6533,31.0933"
         style="fill:#5c758b;fill-opacity:1;fill-rule:nonzero;stroke:none;stroke-width:0.133333" />
      <path
         id="path11"
         d="m 1605.6666,1044.5467 c -16.5466,2.28 -31.04,-3.6 -32.36,-13.16 -1.3333,-9.56 13.3067,-7.4133 29.8667,-9.7067 16.5467,-2.2933 28.7467,-8.1466 30.0667,1.4 1.3333,9.56 -11.0134,19.1734 -27.5734,21.4667"
         style="fill:#687e92;fill-opacity:1;fill-rule:nonzero;stroke:none;stroke-width:0.133333" />
      <path
         id="path12"
         d="m 1687.96,930.56005 c -8.9467,0 -16.1867,-7.25334 -16.1867,-16.18667 0,-8.93333 7.24,-16.17333 16.1867,-16.17333 8.9333,0 16.1733,7.24 16.1733,16.17333 0,8.93333 -7.24,16.18667 -16.1733,16.18667"
         style="fill:#99a9b6;fill-opacity:1;fill-rule:nonzero;stroke:none;stroke-width:0.133333" />
      <path
         id="path13"
         d="m 1527.2666,930.56005 c -8.9466,0 -16.1866,-7.25334 -16.1866,-16.18667 0,-8.93333 7.24,-16.17333 16.1866,-16.17333 8.9334,0 16.1867,7.24 16.1867,16.17333 0,8.93333 -7.2533,16.18667 -16.1867,16.18667"
         style="fill:#99a9b6;fill-opacity:1;fill-rule:nonzero;stroke:none;stroke-width:0.133333" />
      <path
         id="path14"
         d="m 1704.1333,913.52005 c 0,8.93333 -7.24,16.18666 -16.1733,16.18666 -8.9467,0 -16.1867,-7.25333 -16.1867,-16.18666 0,-8.94667 7.24,-16.17334 16.1867,-16.17334 8.9333,0 16.1733,7.22667 16.1733,16.17334"
         style="fill:#133441;fill-opacity:1;fill-rule:nonzero;stroke:none;stroke-width:0.133333" />
      <path
         id="path15"
         d="m 1543.4533,913.52005 c 0,8.93333 -7.2533,16.18666 -16.1867,16.18666 -8.9466,0 -16.1866,-7.25333 -16.1866,-16.18666 0,-8.94667 7.24,-16.17334 16.1866,-16.17334 8.9334,0 16.1867,7.22667 16.1867,16.17334"
         style="fill:#133441;fill-opacity:1;fill-rule:nonzero;stroke:none;stroke-width:0.133333" />
      <path
         id="path16"
         d="m 1572.9333,997.72005 c -1.2267,0 -2.44,-0.48 -3.3333,-1.44 -1.7467,-1.84 -1.6667,-4.74667 0.1866,-6.48 12.9867,-12.25334 25.72,-16.34667 36.92,-16.34667 22.3334,0 38.6134,16.21333 38.8534,16.46667 1.7733,1.81333 1.7466,4.72 -0.053,6.49333 -0.9066,0.86667 -2.0666,1.30667 -3.2266,1.30667 -1.1867,0 -2.3734,-0.45334 -3.2667,-1.37334 -0.8133,-0.82666 -13.88,-13.70666 -31.92,-13.70666 -9.3467,0 -20.0133,3.45333 -31.0133,13.82666 -0.8934,0.84 -2.0267,1.25334 -3.1467,1.25334"
         style="fill:#99a9b6;fill-opacity:1;fill-rule:nonzero;stroke:none;stroke-width:0.133333" />
      <path
         id="path17"
         d="m 1606.7066,972.68005 c 22.3334,0 38.6134,16.21333 38.8534,16.46666 1.7733,1.81334 1.7466,4.70667 -0.053,6.48 -1.8133,1.77334 -4.72,1.74667 -6.4933,-0.0533 -1.24,-1.25333 -30.6933,-30.29333 -62.9333,0.12 -1.84,1.73333 -4.7467,1.65333 -6.48,-0.18667 -1.7467,-1.84 -1.6667,-4.74666 0.1866,-6.49333 12.9867,-12.24 25.72,-16.33333 36.92,-16.33333"
         style="fill:#133441;fill-opacity:1;fill-rule:nonzero;stroke:none;stroke-width:0.133333" />
      <path
         id="path1496"
         d="m 10948.3,14049 -457.6,-402.2 182.2,1.5 -212.4,-369.7 516.8,482.9 -195.2,27.2 166.2,260.3"
         style="fill:#ffeb3b;fill-opacity:1;fill-rule:nonzero;stroke:none"
         transform="matrix(0.13333333,0,0,-0.13333333,0,2800)" />
      <path
         id="path1497"
         d="m 10948.3,14049 -457.6,-402.2 182.2,1.5 -212.4,-369.7 475.7,466.5 -189.7,23.6 201.8,280.3"
         style="fill:#ff9800;fill-opacity:1;fill-rule:nonzero;stroke:none"
         transform="matrix(0.13333333,0,0,-0.13333333,0,2800)" />
      <path
         id="path1498"
         d="m 10948.3,14049 -430.6,-383.5 178.6,-7 -235.8,-379.9 475.7,466.5 -189.7,23.6 201.8,280.3"
         style="fill:#ffc107;fill-opacity:1;fill-rule:nonzero;stroke:none"
         transform="matrix(0.13333333,0,0,-0.13333333,0,2800)" />
      <path
         id="path1499"
         d="m 10460.5,13278.6 289,400.7 -199.4,7.1 398.2,362.6 -248.9,-295.6 215.6,-15.4 -454.5,-459.4"
         style="fill:#ffcf00;fill-opacity:1;fill-rule:nonzero;stroke:none"
         transform="matrix(0.13333333,0,0,-0.13333333,0,2800)" />
    </g>
  </g>
</svg>
